<?xml version="1.0" encoding="UTF-8" standalone="no"?>
<svg
   xmlns:dc="http://purl.org/dc/elements/1.1/"
   xmlns:cc="http://creativecommons.org/ns#"
   xmlns:rdf="http://www.w3.org/1999/02/22-rdf-syntax-ns#"
   xmlns:svg="http://www.w3.org/2000/svg"
   xmlns="http://www.w3.org/2000/svg"
   xmlns:sodipodi="http://sodipodi.sourceforge.net/DTD/sodipodi-0.dtd"
   xmlns:inkscape="http://www.inkscape.org/namespaces/inkscape"
   version="1.1"
   id="svg2"
   xml:space="preserve"
   width="6666.6665"
   height="4000"
   viewBox="0 0 6666.6665 4000"
   sodipodi:docname="Main source file.ai"><metadata
     id="metadata8"><rdf:RDF><cc:Work
         rdf:about=""><dc:format>image/svg+xml</dc:format><dc:type
           rdf:resource="http://purl.org/dc/dcmitype/StillImage" /></cc:Work></rdf:RDF></metadata><defs
     id="defs6"><linearGradient
       x1="0"
       y1="0"
       x2="1"
       y2="0"
       gradientUnits="userSpaceOnUse"
       gradientTransform="matrix(302.48492,831.0705,831.0705,-302.48492,2454.595,915.1698)"
       spreadMethod="pad"
       id="linearGradient28"><stop
         style="stop-opacity:1;stop-color:#20d6de"
         offset="0"
         id="stop24" /><stop
         style="stop-opacity:1;stop-color:#5e309d"
         offset="1"
         id="stop26" /></linearGradient><linearGradient
       x1="0"
       y1="0"
       x2="1"
       y2="0"
       gradientUnits="userSpaceOnUse"
       gradientTransform="matrix(217.21188,596.78473,596.78473,-217.21188,2541.5127,1673.5288)"
       spreadMethod="pad"
       id="linearGradient48"><stop
         style="stop-opacity:1;stop-color:#20d6de"
         offset="0"
         id="stop44" /><stop
         style="stop-opacity:1;stop-color:#5e309d"
         offset="1"
         id="stop46" /></linearGradient><linearGradient
       x1="0"
       y1="0"
       x2="1"
       y2="0"
       gradientUnits="userSpaceOnUse"
       gradientTransform="matrix(217.20833,596.77496,596.77496,-217.20833,1856.9919,1077.8831)"
       spreadMethod="pad"
       id="linearGradient68"><stop
         style="stop-opacity:1;stop-color:#20d6de"
         offset="0"
         id="stop64" /><stop
         style="stop-opacity:1;stop-color:#5e309d"
         offset="1"
         id="stop66" /></linearGradient><linearGradient
       x1="0"
       y1="0"
       x2="1"
       y2="0"
       gradientUnits="userSpaceOnUse"
       gradientTransform="matrix(302.10968,830.03949,830.03949,-302.10968,1859.3459,1602.4362)"
       spreadMethod="pad"
       id="linearGradient88"><stop
         style="stop-opacity:1;stop-color:#20d6de"
         offset="0"
         id="stop84" /><stop
         style="stop-opacity:1;stop-color:#5e309d"
         offset="1"
         id="stop86" /></linearGradient><linearGradient
       x1="0"
       y1="0"
       x2="1"
       y2="0"
       gradientUnits="userSpaceOnUse"
       gradientTransform="matrix(56.437962,155.06201,155.06201,-56.437962,2279.834,1596.8442)"
       spreadMethod="pad"
       id="linearGradient108"><stop
         style="stop-opacity:1;stop-color:#20d6de"
         offset="0"
         id="stop104" /><stop
         style="stop-opacity:1;stop-color:#5e309d"
         offset="1"
         id="stop106" /></linearGradient><linearGradient
       x1="0"
       y1="0"
       x2="1"
       y2="0"
       gradientUnits="userSpaceOnUse"
       gradientTransform="matrix(31.22374,85.786522,85.786522,-31.22374,3093.5029,1631.4934)"
       spreadMethod="pad"
       id="linearGradient128"><stop
         style="stop-opacity:1;stop-color:#20d6de"
         offset="0"
         id="stop124" /><stop
         style="stop-opacity:1;stop-color:#5e309d"
         offset="1"
         id="stop126" /></linearGradient><linearGradient
       x1="0"
       y1="0"
       x2="1"
       y2="0"
       gradientUnits="userSpaceOnUse"
       gradientTransform="matrix(30.981966,85.122246,85.122246,-30.981966,2292.623,830.51514)"
       spreadMethod="pad"
       id="linearGradient148"><stop
         style="stop-opacity:1;stop-color:#20d6de"
         offset="0"
         id="stop144" /><stop
         style="stop-opacity:1;stop-color:#5e309d"
         offset="1"
         id="stop146" /></linearGradient><linearGradient
       x1="0"
       y1="0"
       x2="1"
       y2="0"
       gradientUnits="userSpaceOnUse"
       gradientTransform="matrix(30.461496,83.692268,83.692268,-30.461496,2292.7551,2433.7717)"
       spreadMethod="pad"
       id="linearGradient168"><stop
         style="stop-opacity:1;stop-color:#20d6de"
         offset="0"
         id="stop164" /><stop
         style="stop-opacity:1;stop-color:#5e309d"
         offset="1"
         id="stop166" /></linearGradient><linearGradient
       x1="0"
       y1="0"
       x2="1"
       y2="0"
       gradientUnits="userSpaceOnUse"
       gradientTransform="matrix(30.921942,84.957336,84.957336,-30.921942,1491.2046,1631.7085)"
       spreadMethod="pad"
       id="linearGradient188"><stop
         style="stop-opacity:1;stop-color:#20d6de"
         offset="0"
         id="stop184" /><stop
         style="stop-opacity:1;stop-color:#5e309d"
         offset="1"
         id="stop186" /></linearGradient><linearGradient
       x1="0"
       y1="0"
       x2="1"
       y2="0"
       gradientUnits="userSpaceOnUse"
       gradientTransform="matrix(114.37769,314.25012,314.25012,-114.37769,1495.9436,487.80246)"
       spreadMethod="pad"
       id="linearGradient208"><stop
         style="stop-opacity:1;stop-color:#20d6de"
         offset="0"
         id="stop204" /><stop
         style="stop-opacity:1;stop-color:#5e309d"
         offset="1"
         id="stop206" /></linearGradient><linearGradient
       x1="0"
       y1="0"
       x2="1"
       y2="0"
       gradientUnits="userSpaceOnUse"
       gradientTransform="matrix(90.752037,249.33916,249.33916,-90.752037,1772.3125,491.17902)"
       spreadMethod="pad"
       id="linearGradient228"><stop
         style="stop-opacity:1;stop-color:#20d6de"
         offset="0"
         id="stop224" /><stop
         style="stop-opacity:1;stop-color:#5e309d"
         offset="1"
         id="stop226" /></linearGradient><linearGradient
       x1="0"
       y1="0"
       x2="1"
       y2="0"
       gradientUnits="userSpaceOnUse"
       gradientTransform="matrix(120.54827,331.20364,331.20364,-120.54827,1969.6782,450.24692)"
       spreadMethod="pad"
       id="linearGradient248"><stop
         style="stop-opacity:1;stop-color:#20d6de"
         offset="0"
         id="stop244" /><stop
         style="stop-opacity:1;stop-color:#5e309d"
         offset="1"
         id="stop246" /></linearGradient><linearGradient
       x1="0"
       y1="0"
       x2="1"
       y2="0"
       gradientUnits="userSpaceOnUse"
       gradientTransform="matrix(83.352524,229.00917,229.00917,-83.352524,2316.7009,470.57675)"
       spreadMethod="pad"
       id="linearGradient268"><stop
         style="stop-opacity:1;stop-color:#20d6de"
         offset="0"
         id="stop264" /><stop
         style="stop-opacity:1;stop-color:#5e309d"
         offset="1"
         id="stop266" /></linearGradient><linearGradient
       x1="0"
       y1="0"
       x2="1"
       y2="0"
       gradientUnits="userSpaceOnUse"
       gradientTransform="matrix(105.41416,289.62302,289.62302,-105.41416,2687.0574,436.35309)"
       spreadMethod="pad"
       id="linearGradient288"><stop
         style="stop-opacity:1;stop-color:#20d6de"
         offset="0"
         id="stop284" /><stop
         style="stop-opacity:1;stop-color:#5e309d"
         offset="1"
         id="stop286" /></linearGradient><linearGradient
       x1="0"
       y1="0"
       x2="1"
       y2="0"
       gradientUnits="userSpaceOnUse"
       gradientTransform="matrix(113.14883,310.87384,310.87384,-113.14883,2979.8889,453.3981)"
       spreadMethod="pad"
       id="linearGradient308"><stop
         style="stop-opacity:1;stop-color:#20d6de"
         offset="0"
         id="stop304" /><stop
         style="stop-opacity:1;stop-color:#5e309d"
         offset="1"
         id="stop306" /></linearGradient></defs><sodipodi:namedview
     pagecolor="#ffffff"
     bordercolor="#666666"
     borderopacity="1"
     objecttolerance="10"
     gridtolerance="10"
     guidetolerance="10"
     inkscape:pageopacity="0"
     inkscape:pageshadow="2"
     inkscape:window-width="640"
     inkscape:window-height="480"
     id="namedview4" /><g
     id="g10"
     inkscape:groupmode="layer"
     inkscape:label="Main source file"
     transform="matrix(1.3333333,0,0,-1.3333333,0,4000)"><g
       id="g12"><g
         id="g14"><g
           id="g20"><g
             id="g22"><path
               d="m 2894.799,1649.44 c -5.861,-131.283 -50.594,-247.862 -136.445,-347.12 v 0 c -17.289,16.348 -33.316,31.502 -49.95,47.231 v 0 c 72.951,87.384 111.845,187.319 115.641,301.399 v 0 h -126.667 c -5.332,-78.813 -29.426,-149.496 -79.063,-210.238 v 0 c -16.686,17.036 -32.401,33.083 -48.641,49.665 v 0 c 34.012,46.787 53.946,99.942 56.182,160.232 v 0 h -151.189 c -4.844,-38.351 -19.127,-70.93 -45.928,-97.802 v 0 c -26.814,-26.885 -59.783,-40.329 -97.139,-45.39 v 0 -151.136 c 60.912,2.699 114.228,22.637 159.57,55.684 v 0 c 16.889,-17.034 32.681,-32.959 48.907,-49.322 v 0 c -59.839,-48.527 -130.7,-72.601 -208.674,-77.811 v 0 -126.663 c 114.743,4.171 214.506,43.123 301.394,115.642 v 0 c 16.078,-16.246 31.393,-31.721 48.367,-48.87 v 0 C 2580.485,1137.868 2463.769,1093.287 2331.2,1087.395 v 0 -127.313 c 87.444,2.262 170.026,19.665 251.08,54.204 v 0 c -8.304,8.663 -14.74,15.379 -21.294,22.219 v 0 c -65.664,-25.668 -131.979,-41.986 -201.645,-45.685 v 0 69.221 c 141.197,12.251 262.404,66.667 363.554,163.695 v 0 c -30.565,30.596 -59.656,59.715 -89.703,89.793 v 0 c -76.406,-72.172 -167.411,-114.522 -273.865,-124.923 v 0 70.208 c 42.933,4.807 83.267,15.948 121.682,33.599 v 0 c 38.472,17.681 72.806,41.367 102.402,69.66 v 0 c -30.083,30.14 -59.382,59.496 -89.221,89.39 v 0 c -37.862,-33.424 -82.185,-55.92 -135.056,-63.892 v 0 95.95 c 74.294,19.611 120.418,66.814 139.82,139.647 v 0 h 95.728 c -7.925,-53.033 -30.594,-97.326 -64.13,-135.417 v 0 c 30.119,-29.786 59.597,-58.937 89.891,-88.896 v 0 c 58.888,62.55 92.845,138.053 103.34,223.916 v 0 h 69.907 c -10.587,-106.82 -53.296,-197.512 -125.123,-274.099 v 0 c 30.612,-30.369 59.808,-59.333 90.009,-89.295 v 0 c 97.339,101.46 151.424,223.016 163.764,363.682 v 0 h 69.203 c -3.93,-70.3 -20.285,-136.723 -44.843,-199.534 v 0 c 7.238,-8.367 13.294,-15.371 19.534,-22.587 v 0 c 26.876,36.059 64.63,214.151 53.804,249.594 v 0 c -7.447,1.975 -31.257,2.943 -56.289,2.943 v 0 c -29.726,-10e-4 -61.173,-1.366 -68.95,-4.035"
               style="fill:url(#linearGradient28);stroke:none"
               id="path30" /></g></g></g></g><g
       id="g32"><g
         id="g34"><g
           id="g40"><g
             id="g42"><path
               d="m 2331.59,2261.747 c 133.489,-6.009 250.692,-50.886 349.564,-137.455 v 0 c -17.211,-17.161 -33.107,-33.011 -49.455,-49.311 v 0 c -85.977,71.41 -185.78,110.759 -300.218,114.931 v 0 -126.055 c 39.993,-2.457 77.395,-9.555 113.373,-23.322 v 0 c 35.869,-13.724 68.954,-32.098 97.879,-56.145 v 0 c -16.789,-17.223 -32.516,-33.356 -48.923,-50.186 v 0 c -47.873,35.164 -101.471,54.884 -162.248,57.8 v 0 -150.635 c 37.724,-5.178 70.591,-18.791 97.438,-45.658 v 0 c 27.076,-27.093 41.026,-60.212 46.182,-98.04 v 0 h 150.859 c -0.861,10.413 -1.09,19.748 -2.48,28.908 v 0 c -7.459,49.174 -26.073,93.844 -55.871,133.646 v 0 c 16.774,16.56 32.81,32.39 50.006,49.366 v 0 c 49.97,-61.618 74.899,-132.727 79.651,-212.02 v 0 h 126.69 c -4.126,115.426 -44.091,215.486 -117.745,303.229 v 0 c 16.88,16.525 32.64,31.952 49.853,48.804 v 0 c 89.001,-102.483 132.976,-219.74 138.865,-352.998 v 0 h 124.617 c 11.093,37.764 -28.484,221.606 -54.354,250.706 v 0 c -6.863,-6.396 -13.628,-12.7 -19.904,-18.55 v 0 c 26.469,-67.295 42.183,-133.462 46.454,-203.353 v 0 h -69.556 c -12.744,140.28 -66.333,261.623 -163.292,362.077 v 0 c -30.182,-29.912 -59.294,-58.762 -89.216,-88.413 v 0 c 72.06,-76.542 113.668,-167.481 124.057,-273.704 v 0 h -70.307 c -10.476,86.726 -44.656,161.706 -102.554,222.771 v 0 c -29.711,-29.676 -58.736,-58.67 -88.655,-88.555 v 0 c 31.864,-37.656 55.507,-81.378 62.246,-134.496 v 0 h -95.599 c -19.989,73.53 -66.625,120.313 -139.749,139.98 v 0 96.153 c 53.209,-7.734 97.343,-30.812 134.254,-62.983 v 0 c 30.459,29.804 59.561,58.28 89.549,87.621 v 0 c -62.553,60.084 -138.146,92.876 -225.028,103.943 v 0 c 0.298,24.216 -1.093,46.932 0.92,70.779 v 0 c 107.117,-10.745 197.699,-52.708 273.803,-124.477 v 0 c 29.867,29.809 58.881,58.767 88.386,88.215 v 0 c -1.083,1.377 -2.399,3.716 -4.307,5.375 v 0 c -13.135,11.422 -26.036,23.152 -39.67,33.955 v 0 c -83.621,66.257 -178.463,106.147 -284.198,120.222 v 0 c -11.401,1.519 -22.773,3.252 -33.743,4.825 v 0 69.881 c 70.319,-4.131 136.482,-20.113 200.068,-45.075 v 0 c 7.474,6.704 14.271,12.804 22.67,20.337 v 0 c -81.918,34.055 -164.045,52.066 -250.312,53.465 v 0 z"
               style="fill:url(#linearGradient48);stroke:none"
               id="path50" /></g></g></g></g><g
       id="g52"><g
         id="g54"><g
           id="g60"><g
             id="g62"><path
               d="m 1792.347,1650.694 c 4.296,-114.945 43.8,-214.874 117.301,-302.753 v 0 c -16.101,-17.053 -31.533,-33.399 -48.058,-50.902 v 0 c -90.545,103.448 -135.179,220.911 -141.064,353.316 v 0 h -126.168 c 3.021,-86.821 19.759,-168.977 53.54,-248.241 v 0 c 8.288,7.297 15.211,13.392 21.666,19.076 v 0 c -25.996,66.193 -41.86,132.253 -45.865,202.256 v 0 h 70.459 c 12.755,-140.141 65.916,-261.713 163.549,-363.191 v 0 c 29.829,30.2 58.639,59.367 88.489,89.587 v 0 c -35.106,36.357 -63.944,78.333 -85.219,125.226 v 0 c -21.233,46.8 -34.838,95.673 -38.846,148.13 v 0 h 70.616 c 10.9,-86.709 44.133,-162.062 103.055,-223.4 v 0 c 29.665,29.625 58.491,58.413 88.414,88.294 v 0 c -31.984,38.107 -56.048,81.801 -62.787,135.161 v 0 h 95.736 c 20.067,-73.531 66.742,-120.274 139.894,-139.847 v 0 -95.872 c -53.435,7.189 -97.531,31.028 -135.358,63.158 v 0 c -30.483,-30.285 -59.376,-58.99 -88.851,-88.274 v 0 c 62.588,-59.183 137.741,-93.129 224.104,-103.763 v 0 -69.759 c -35.165,2.321 -68.187,9.783 -100.66,20.171 v 0 c -32.629,10.439 -64.194,23.672 -92.768,42.436 v 0 c -28.337,18.611 -55.084,39.638 -81.321,58.728 v 0 c -28.637,-28.077 -57.902,-56.771 -88.038,-86.32 v 0 c 101.422,-97.653 222.773,-151.367 362.536,-163.879 v 0 -69.598 c -70.065,4.301 -136.286,20.096 -200.74,45.472 v 0 c -7.195,-6.88 -13.85,-13.244 -22.303,-21.328 v 0 c 81.997,-34.637 164.635,-52.211 251.478,-54.426 v 0 127.342 c -65.769,2.611 -128.322,14.604 -188.344,38.375 v 0 c -59.878,23.715 -114.574,55.734 -162.79,99.844 v 0 c 17.468,16.803 33.385,32.115 50.076,48.172 v 0 c 85.902,-71.972 185.941,-111.717 300.585,-115.598 v 0 126.811 c -79.682,4.518 -150.532,29.783 -210.329,78.162 v 0 c 16.89,17.552 32.506,33.779 48.675,50.581 v 0 c 47.442,-34.943 100.963,-54.742 161.486,-57.4 v 0 150.281 c -82.983,13.681 -130.748,61.758 -144.12,143.85 v 0 h -149.905 c 0.985,-30.529 5.748,-59.29 17.152,-86.174 v 0 c 11.296,-26.632 25.32,-52.106 37.283,-76.333 v 0 c -15.175,-15.167 -31.084,-31.07 -47.751,-47.729 v 0 c -23.619,28.653 -41.935,61.849 -55.729,97.75 v 0 c -13.914,36.207 -20.157,74.101 -23.541,112.608 v 0 z"
               style="fill:url(#linearGradient68);stroke:none"
               id="path70" /></g></g></g></g><g
       id="g72"><g
         id="g74"><g
           id="g80"><g
             id="g82"><path
               d="m 2036.778,2334.835 c -0.761,-1.348 -1.521,-2.695 -2.282,-4.043 v 0 c 6.483,-6.484 12.964,-12.966 18.699,-18.702 v 0 c 67.837,26.465 134.069,42.805 203.824,46.243 v 0 -70.273 c -140.484,-12.825 -261.912,-66.006 -364.507,-165.036 v 0 c 30.321,-30.302 59.281,-59.245 88.795,-88.741 v 0 c 78.837,73.768 169.293,116.228 275.364,126.027 v 0 -70.908 c -86.869,-10.659 -161.649,-44.475 -222.877,-102.357 v 0 c 29.699,-29.722 58.715,-58.76 88.669,-88.737 v 0 c 37.696,32.182 81.558,55.579 134.479,62.847 v 0 -96.084 c -73.62,-20.093 -119.937,-66.648 -139.775,-139.762 v 0 h -94.919 c 0,3.727 -0.385,6.359 0.057,8.845 v 0 c 8.642,48.557 31.374,90.357 61.932,126.037 v 0 c -30.321,30.184 -59.366,59.099 -88.829,88.427 v 0 c -58.741,-61.985 -92.092,-137.456 -102.851,-224.162 v 0 c -24.416,-0.29 -47.116,-0.831 -70.952,0.307 v 0 c 10.911,107.533 52.803,198.177 124.537,274.125 v 0 c -29.786,30.003 -58.667,59.094 -87.94,88.579 v 0 c -1.37,-0.983 -3.501,-1.983 -4.912,-3.609 v 0 c -12.406,-14.284 -25.278,-28.215 -36.898,-43.12 v 0 c -65.063,-83.463 -104.499,-177.726 -118.116,-282.739 v 0 c -1.429,-11.025 -3.216,-22.004 -4.768,-32.543 v 0 h -69.939 c 4.409,70.312 20.172,136.525 45.817,201.529 v 0 c -6.066,7.27 -11.928,14.296 -18.508,22.182 v 0 c -29.699,-48.105 -65.994,-223.153 -53.665,-251.323 v 0 h 123.314 c 6.019,133.03 50.469,249.936 138.832,350.902 v 0 c 16.623,-18.038 31.596,-34.287 47.476,-51.519 v 0 c -70.896,-84.582 -110.142,-184.575 -114.454,-299.336 v 0 h 125.901 c 4.957,79.491 30.172,150.344 78.92,210.295 v 0 c 17.552,-16.849 33.802,-32.446 50.596,-48.565 v 0 c -35.181,-47.721 -54.778,-101.29 -57.327,-161.63 v 0 h 150.008 c 13.792,83.137 62.165,130.612 143.691,143.905 v 0 150.206 c -60.838,-3.204 -114.278,-22.842 -161.095,-57.234 v 0 c -16.803,16.6 -32.824,32.427 -50.012,49.406 v 0 c 61.148,49.623 132.186,74.703 211.24,79.838 v 0 125.707 c -56.533,-1.821 -109.875,-12.558 -161.441,-32.576 v 0 c -51.595,-20.031 -98.154,-48.591 -141.417,-84.597 v 0 c -16.266,16.583 -31.726,32.344 -48.788,49.739 v 0 c 102.161,88.995 219.168,133.432 351.582,139.404 v 0 125.997 c -86.781,-2.49 -168.841,-19.732 -247.461,-52.951"
               style="fill:url(#linearGradient88);stroke:none"
               id="path90" /></g></g></g></g><g
       id="g92"><g
         id="g94"><g
           id="g100"><g
             id="g102"><path
               d="m 2225.873,1674.901 c -0.219,-46.986 35.295,-82.669 82.368,-82.761 v 0 c 45.672,-0.091 81.743,35.542 81.91,80.916 v 0 c 0.173,46.96 -34.806,83.111 -80.658,83.358 v 0 c -0.173,10e-4 -0.346,10e-4 -0.519,10e-4 v 0 c -47.221,-10e-4 -82.885,-34.934 -83.101,-81.514"
               style="fill:url(#linearGradient108);stroke:none"
               id="path110" /></g></g></g></g><g
       id="g112"><g
         id="g114"><g
           id="g120"><g
             id="g122"><path
               d="m 3063.568,1674.585 c -0.263,-24.61 20.583,-45.778 45.326,-46.028 v 0 c 25.139,-0.254 45.356,19.964 45.341,45.345 v 0 c -0.016,25.741 -19.601,45.931 -44.681,46.064 v 0 c -0.079,0 -0.156,0 -0.235,0 v 0 c -24.613,0 -45.487,-20.677 -45.751,-45.381"
               style="fill:url(#linearGradient128);stroke:none"
               id="path130" /></g></g></g></g><g
       id="g132"><g
         id="g134"><g
           id="g140"><g
             id="g142"><path
               d="m 2262.317,872.716 c 0.164,-24.694 20.067,-44.499 44.89,-44.671 v 0 c 25.846,-0.178 46.029,19 46.511,44.196 v 0 c 0.481,25.207 -20.231,46.045 -46.036,46.314 v 0 c -0.145,0.002 -0.288,0.003 -0.433,0.003 v 0 c -24.218,-10e-4 -45.096,-21.244 -44.932,-45.842"
               style="fill:url(#linearGradient148);stroke:none"
               id="path150" /></g></g></g></g><g
       id="g152"><g
         id="g154"><g
           id="g160"><g
             id="g162"><path
               d="m 2307.579,2519.996 c -25.338,-0.311 -45.122,-20.207 -44.664,-44.917 v 0 c 0.467,-25.225 19.895,-43.871 45.572,-43.742 v 0 c 25.325,0.126 44.46,19.241 44.694,44.645 v 0 c 0.22,24.126 -20.197,44.019 -45.03,44.017 v 0 c -0.189,0 -0.382,-10e-4 -0.572,0"
               style="fill:url(#linearGradient168);stroke:none"
               id="path170" /></g></g></g></g><g
       id="g172"><g
         id="g174"><g
           id="g180"><g
             id="g182"><path
               d="m 1505.891,1719.439 c -23.906,-0.064 -43.479,-20.19 -43.616,-44.847 v 0 c -0.14,-25.271 19.813,-45.849 44.109,-45.493 v 0 c 25.541,0.376 44.441,19.404 44.541,44.844 v 0 c 0.1,25.947 -19.203,45.497 -44.896,45.496 v 0 c -0.045,0 -0.092,0 -0.138,0"
               style="fill:url(#linearGradient188);stroke:none"
               id="path190" /></g></g></g></g><g
       id="g192"><g
         id="g194"><g
           id="g200"><g
             id="g202"><path
               d="m 1723.349,751.699 c -8.679,0 -14.906,-5.661 -18.68,-16.982 v 0 l -61.509,-166.793 -61.51,166.793 c -3.773,11.321 -9.999,16.982 -18.678,16.982 v 0 h -18.869 c -12.579,0 -18.868,-4.406 -18.868,-13.207 v 0 c 0,-3.397 1.633,-10.001 4.906,-19.813 v 0 l 28.302,-73.773 -28.49,-77.17 -61.51,166.981 c -3.773,11.321 -10,16.982 -18.68,16.982 v 0 h -18.867 c -12.58,0 -18.868,-4.406 -18.868,-13.207 v 0 c 0,-3.651 1.636,-10.256 4.905,-19.813 v 0 l 84.906,-221.698 c 3.773,-11.321 10,-16.982 18.68,-16.982 v 0 h 18.867 c 8.68,0 14.906,5.661 18.68,16.982 v 0 l 28.491,74.34 28.49,-74.34 c 3.774,-11.321 9.999,-16.982 18.679,-16.982 v 0 h 18.868 c 8.679,0 14.906,5.661 18.679,16.982 v 0 l 84.906,221.888 c 3.269,9.556 4.905,16.099 4.905,19.623 v 0 c 0,8.801 -6.292,13.207 -18.867,13.207 v 0 z"
               style="fill:url(#linearGradient208);stroke:none"
               id="path210" /></g></g></g></g><g
       id="g212"><g
         id="g214"><g
           id="g220"><g
             id="g222"><path
               d="m 1808.255,751.699 c -12.58,0 -18.868,-5.977 -18.868,-17.926 v 0 -235.848 c 0,-11.953 6.288,-17.926 18.868,-17.926 v 0 h 18.867 c 12.576,0 18.868,5.973 18.868,17.926 v 0 235.848 c 0,11.949 -6.292,17.926 -18.868,17.926 v 0 z"
               style="fill:url(#linearGradient228);stroke:none"
               id="path230" /></g></g></g></g><g
       id="g232"><g
         id="g234"><g
           id="g240"><g
             id="g242"><path
               d="m 1973.35,751.699 c -27.298,0 -50.632,-7.736 -70.001,-23.208 v 0 c -19.372,-15.472 -29.056,-34.151 -29.056,-56.038 v 0 c 0,-21.886 9.684,-40.566 29.056,-56.038 v 0 c 19.369,-15.472 42.703,-23.207 70.001,-23.207 v 0 h 113.207 c 11.821,0 21.853,-3.303 30.093,-9.907 v 0 c 8.237,-6.603 12.359,-14.621 12.359,-24.056 v 0 c 0,-9.434 -4.122,-17.452 -12.359,-24.057 v 0 c -8.24,-6.603 -18.272,-9.905 -30.093,-9.905 v 0 h -193.396 c -12.58,0 -18.868,-5.976 -18.868,-17.924 v 0 -9.434 c 0,-11.953 6.288,-17.926 18.868,-17.926 v 0 h 193.396 c 27.293,0 50.628,7.738 70,23.209 v 0 c 19.368,15.472 29.057,34.15 29.057,56.037 v 0 c 0,21.887 -9.689,40.566 -29.057,56.038 v 0 c -19.372,15.472 -42.707,23.207 -70,23.207 v 0 H 1973.35 c -11.826,0 -21.858,3.303 -30.095,9.907 v 0 c -8.241,6.603 -12.359,14.621 -12.359,24.056 v 0 c 0,9.433 4.118,17.453 12.359,24.057 v 0 c 8.237,6.603 18.269,9.906 30.095,9.906 v 0 h 193.396 c 12.576,0 18.868,5.971 18.868,17.924 v 0 9.433 c 0,11.949 -6.292,17.926 -18.868,17.926 v 0 z"
               style="fill:url(#linearGradient248);stroke:none"
               id="path250" /></g></g></g></g><g
       id="g252"><g
         id="g254"><g
           id="g260"><g
             id="g262"><path
               d="m 2232.783,751.699 c -12.58,0 -18.868,-5.977 -18.868,-17.926 v 0 -174.528 c 0,-21.887 9.685,-40.565 29.057,-56.037 v 0 c 19.369,-15.471 42.704,-23.209 70,-23.209 v 0 h 193.396 c 12.576,0 18.868,5.973 18.868,17.926 v 0 9.434 c 0,11.948 -6.292,17.924 -18.868,17.924 v 0 h -193.396 c -11.826,0 -21.858,3.302 -30.095,9.905 v 0 c -8.24,6.605 -12.359,14.623 -12.359,24.057 v 0 174.528 c 0,11.949 -6.291,17.926 -18.867,17.926 v 0 z"
               style="fill:url(#linearGradient268);stroke:none"
               id="path270" /></g></g></g></g><g
       id="g272"><g
         id="g274"><g
           id="g280"><g
             id="g282"><path
               d="m 2699.765,751.699 c -8.68,0 -14.906,-5.599 -18.68,-16.792 v 0 l -122.453,-221.51 c -3.395,-6.67 -5.094,-11.887 -5.094,-15.66 v 0 c 0,-11.826 6.288,-17.738 18.868,-17.738 v 0 h 14.151 c 8.174,0 15.91,5.473 23.207,16.416 v 0 l 21.321,40.189 h 156.227 l 21.321,-40.189 c 7.293,-10.943 15.028,-16.416 23.207,-16.416 v 0 h 14.151 c 12.576,0 18.867,5.973 18.867,17.926 v 0 c 0,3.646 -1.697,8.802 -5.093,15.472 v 0 l -122.453,221.51 c -3.775,11.193 -10,16.792 -18.679,16.792 v 0 z m 9.434,-68.114 53.963,-101.698 h -107.926 z"
               style="fill:url(#linearGradient288);stroke:none"
               id="path290" /></g></g></g></g><g
       id="g292"><g
         id="g294"><g
           id="g300"><g
             id="g302"><path
               d="m 2912.029,751.699 c -12.58,0 -18.868,-5.977 -18.868,-17.926 v 0 -235.848 c 0,-11.953 6.288,-17.926 18.868,-17.926 v 0 h 193.396 c 27.293,0 50.628,7.738 70,23.209 v 0 c 19.368,15.472 29.057,34.15 29.057,56.037 v 0 c 0,21.887 -9.689,40.566 -29.057,56.038 v 0 c 19.368,16.226 29.057,35.284 29.057,57.17 v 0 c 0,21.887 -9.689,40.566 -29.057,56.038 v 0 c -19.372,15.472 -42.707,23.208 -70,23.208 v 0 z m 37.735,-45.283 h 155.661 c 11.821,0 21.855,-3.303 30.095,-9.906 v 0 c 8.237,-6.604 12.358,-14.624 12.358,-24.057 v 0 c 0,-9.435 -4.121,-17.453 -12.358,-24.056 v 0 c -8.24,-6.604 -18.274,-9.907 -30.095,-9.907 v 0 h -155.661 z m 0.19,-113.208 h 155.471 c 11.821,0 21.855,-3.303 30.095,-9.907 v 0 c 8.237,-6.603 12.358,-14.621 12.358,-24.056 v 0 c 0,-9.434 -4.121,-17.452 -12.358,-24.057 v 0 c -8.24,-6.603 -18.274,-9.905 -30.095,-9.905 v 0 h -155.661 z"
               style="fill:url(#linearGradient308);stroke:none"
               id="path310" /></g></g></g></g></g></svg>
