<?xml version="1.0" encoding="utf-8"?>
<!-- Generator: Adobe Illustrator 24.1.2, SVG Export Plug-In . SVG Version: 6.00 Build 0)  -->
<svg version="1.1" id="Layer_1" xmlns="http://www.w3.org/2000/svg" xmlns:xlink="http://www.w3.org/1999/xlink" x="0px" y="0px"
	 viewBox="0 0 5000 3000" style="enable-background:new 0 0 5000 3000;" xml:space="preserve">
<style type="text/css">
	.st0{fill:url(#SVGID_1_);}
	.st1{fill:url(#SVGID_2_);}
	.st2{fill:url(#SVGID_3_);}
	.st3{fill:url(#SVGID_4_);}
	.st4{fill:url(#SVGID_5_);}
	.st5{fill:url(#SVGID_6_);}
	.st6{fill:url(#SVGID_7_);}
	.st7{fill:url(#SVGID_8_);}
	.st8{fill:url(#SVGID_9_);}
	.st9{fill:url(#SVGID_10_);}
	.st10{fill:url(#SVGID_11_);}
	.st11{fill:url(#SVGID_12_);}
	.st12{fill:url(#SVGID_13_);}
	.st13{fill:url(#SVGID_14_);}
	.st14{fill:url(#SVGID_15_);}
	.st15{fill:url(#SVGID_16_);}
	.st16{fill:url(#SVGID_17_);}
	.st17{fill:url(#SVGID_18_);}
	.st18{fill:url(#SVGID_19_);}
	.st19{fill:url(#SVGID_20_);}
	.st20{fill:url(#SVGID_21_);}
	.st21{fill:url(#SVGID_22_);}
	.st22{fill:url(#SVGID_23_);}
	.st23{fill:url(#SVGID_24_);}
	.st24{fill:url(#SVGID_25_);}
</style>
<g>
	<g>
		<linearGradient id="SVGID_1_" gradientUnits="userSpaceOnUse" x1="7194.0303" y1="2045.9519" x2="7633.3877" y2="838.8271">
			<stop  offset="0" style="stop-color:#20D6DE"/>
			<stop  offset="1" style="stop-color:#5E309D"/>
		</linearGradient>
		<path class="st0" d="M8039.85,1438.34c-6.72,232.97-108.45,431.06-328.9,556.15c-323.88,183.79-729.4,54.91-892.76-279.6
			c-41.7-85.39-63.4-176.37-63.91-271.77c-0.19-35.39,15.56-57.88,44.01-66.42c48.64-14.6,83,9.62,84.75,60.63
			c3.51,102.5,29.92,197.83,87.8,283.34c86.12,127.24,205.41,204.12,357.48,223.47c278.46,35.43,523.03-145.28,574.24-420.35
			c52.29-280.86-145.32-556.07-428.47-596.09c-27.35-3.87-55.16-4.39-82.73-6.79c-45.98-4-72.68-32.52-67.55-71.79
			c4.2-32.16,29.04-55.36,68.5-54.03c49.81,1.67,100.57,4.54,148.92,15.62C7828.01,876.45,8023.22,1117.27,8039.85,1438.34z"/>
		<linearGradient id="SVGID_2_" gradientUnits="userSpaceOnUse" x1="7721.1318" y1="1313.5391" x2="7970.7925" y2="627.6027">
			<stop  offset="0" style="stop-color:#20D6DE"/>
			<stop  offset="1" style="stop-color:#5E309D"/>
		</linearGradient>
		<path class="st1" d="M7431.54,480.68c348.1,22.88,616.78,178.89,795.64,481.06c84.3,142.43,124.22,298.35,126.19,463.65
			c0.23,19.48-4.72,40.27-12.38,58.28c-9.36,22-29.28,33.96-54.07,32.74c-24.65-1.21-42.66-15.07-51.66-37.18
			c-5.86-14.39-8.78-30.88-9.08-46.51c-4.98-256.99-104.34-470.17-301.22-634.75c-147.11-122.98-318.76-186.58-511.48-190.29
			c-11.71-0.23-23.63,0.2-35.06-1.87c-32.53-5.88-55.48-34-54.64-65.36c0.8-30.06,23.69-55.22,56.69-59.4
			C7397.24,478.93,7414.5,480.68,7431.54,480.68z"/>
		<linearGradient id="SVGID_3_" gradientUnits="userSpaceOnUse" x1="7472.4805" y1="1451.399" x2="7583.3906" y2="1146.6761">
			<stop  offset="0" style="stop-color:#20D6DE"/>
			<stop  offset="1" style="stop-color:#5E309D"/>
		</linearGradient>
		<path class="st2" d="M7731.77,1422.58c-4.03,19.58-5.68,40.07-12.69,58.53c-9.03,23.76-28.39,36.94-54.89,36.39
			c-26.72-0.56-44.09-15.35-52.67-39.39c-4.56-12.77-6.43-26.89-7.25-40.53c-7.4-122.97-85.18-201.4-207.43-208.51
			c-39.74-2.31-65.26-18.99-72.02-47.06c-6.43-26.72,4.2-56.55,29.24-68.31c16.74-7.86,36.8-12.36,55.3-12.16
			C7580.04,1103.44,7726.97,1251.54,7731.77,1422.58z"/>
		<linearGradient id="SVGID_4_" gradientUnits="userSpaceOnUse" x1="7286.0918" y1="1650.196" x2="7374.9946" y2="1405.9369">
			<stop  offset="0" style="stop-color:#20D6DE"/>
			<stop  offset="1" style="stop-color:#5E309D"/>
		</linearGradient>
		<path class="st3" d="M7460.19,1526.5c0.33,73.46-55.59,131.11-127.69,131.63c-72.49,0.53-130.58-56.33-131.39-128.59
			c-0.82-73.24,54.86-129.77,128.46-130.41C7404.47,1398.48,7459.86,1452.48,7460.19,1526.5z"/>
	</g>
	<g>
		<linearGradient id="SVGID_5_" gradientUnits="userSpaceOnUse" x1="6628.269" y1="2511.1099" x2="6758.5928" y2="2153.0491">
			<stop  offset="0" style="stop-color:#20D6DE"/>
			<stop  offset="1" style="stop-color:#5E309D"/>
		</linearGradient>
		<path class="st4" d="M6731.51,2415.95l-32.46,84.7c-4.3,12.9-11.39,19.35-21.28,19.35h-21.5c-9.89,0-16.98-6.45-21.28-19.35
			l-96.74-252.61c-3.73-10.89-5.59-18.41-5.59-22.57c0-10.03,7.16-15.05,21.5-15.05h21.5c9.89,0,16.98,6.45,21.28,19.35
			l70.08,190.26l32.46-87.93l-32.25-84.06c-3.73-11.18-5.59-18.7-5.59-22.57c0-10.03,7.16-15.05,21.5-15.05h21.5
			c9.89,0,16.98,6.45,21.28,19.35l70.08,190.05l70.08-190.05c4.3-12.9,11.39-19.35,21.28-19.35h21.5c14.33,0,21.5,5.02,21.5,15.05
			c0,4.01-1.86,11.47-5.59,22.36l-96.74,252.82c-4.3,12.9-11.39,19.35-21.28,19.35h-21.5c-9.89,0-16.98-6.45-21.28-19.35
			L6731.51,2415.95z"/>
		<linearGradient id="SVGID_6_" gradientUnits="userSpaceOnUse" x1="6943.1675" y1="2507.2625" x2="7046.5713" y2="2223.1621">
			<stop  offset="0" style="stop-color:#20D6DE"/>
			<stop  offset="1" style="stop-color:#5E309D"/>
		</linearGradient>
		<path class="st5" d="M7027.12,2499.58c0,13.62-7.17,20.42-21.5,20.42h-21.5c-14.33,0-21.5-6.8-21.5-20.42v-268.73
			c0-13.61,7.16-20.42,21.5-20.42h21.5c14.33,0,21.5,6.81,21.5,20.42V2499.58z"/>
		<linearGradient id="SVGID_7_" gradientUnits="userSpaceOnUse" x1="7168.0483" y1="2553.9011" x2="7305.4028" y2="2176.5232">
			<stop  offset="0" style="stop-color:#20D6DE"/>
			<stop  offset="1" style="stop-color:#5E309D"/>
		</linearGradient>
		<path class="st6" d="M7301.22,2339.41c31.1,0,57.69,8.81,79.76,26.44c22.07,17.63,33.11,38.91,33.11,63.85
			c0,24.94-11.04,46.22-33.11,63.85c-22.07,17.63-48.66,26.44-79.76,26.44h-220.36c-14.33,0-21.5-6.8-21.5-20.42v-10.75
			c0-13.61,7.16-20.42,21.5-20.42h220.36c13.47,0,24.9-3.76,34.29-11.29c9.38-7.52,14.08-16.66,14.08-27.41
			c0-10.75-4.7-19.89-14.08-27.41c-9.39-7.52-20.82-11.29-34.29-11.29h-128.99c-31.1,0-57.69-8.81-79.76-26.44
			c-22.07-17.63-33.11-38.91-33.11-63.85c0-24.94,11.03-46.22,33.11-63.85c22.07-17.63,48.66-26.44,79.76-26.44h220.36
			c14.33,0,21.5,6.81,21.5,20.42v10.75c0,13.62-7.17,20.42-21.5,20.42h-220.36c-13.47,0-24.9,3.76-34.29,11.29
			c-9.39,7.52-14.08,16.66-14.08,27.41c0,10.75,4.69,19.89,14.08,27.41c9.38,7.52,20.82,11.29,34.29,11.29H7301.22z"/>
		<linearGradient id="SVGID_8_" gradientUnits="userSpaceOnUse" x1="7563.4507" y1="2530.7371" x2="7658.4238" y2="2269.801">
			<stop  offset="0" style="stop-color:#20D6DE"/>
			<stop  offset="1" style="stop-color:#5E309D"/>
		</linearGradient>
		<path class="st7" d="M7446.34,2230.85c0-13.61,7.16-20.42,21.5-20.42h21.5c14.33,0,21.5,6.81,21.5,20.42v198.86
			c0,10.75,4.69,19.89,14.08,27.41c9.38,7.52,20.82,11.29,34.29,11.29h220.36c14.33,0,21.5,6.81,21.5,20.42v10.75
			c0,13.62-7.17,20.42-21.5,20.42H7559.2c-31.1,0-57.69-8.81-79.76-26.44c-22.07-17.63-33.11-38.91-33.11-63.85V2230.85z"/>
		<linearGradient id="SVGID_9_" gradientUnits="userSpaceOnUse" x1="7985.4395" y1="2569.7319" x2="8105.5498" y2="2239.7317">
			<stop  offset="0" style="stop-color:#20D6DE"/>
			<stop  offset="1" style="stop-color:#5E309D"/>
		</linearGradient>
		<path class="st8" d="M7921.66,2455.5l-24.29,45.79c-8.31,12.47-17.13,18.7-26.44,18.7h-16.12c-14.33,0-21.5-6.73-21.5-20.21
			c0-4.3,1.94-10.24,5.8-17.84l139.52-252.39c4.3-12.75,11.39-19.13,21.28-19.13h21.5c9.89,0,16.98,6.38,21.28,19.13l139.52,252.39
			c3.87,7.6,5.8,13.47,5.8,17.63c0,13.62-7.17,20.42-21.5,20.42h-16.12c-9.32,0-18.13-6.23-26.44-18.7l-24.29-45.79H7921.66z
			 M8072.15,2403.91l-61.49-115.88l-61.49,115.88H8072.15z"/>
		<linearGradient id="SVGID_10_" gradientUnits="userSpaceOnUse" x1="8319.0957" y1="2550.3105" x2="8448.0186" y2="2196.0969">
			<stop  offset="0" style="stop-color:#20D6DE"/>
			<stop  offset="1" style="stop-color:#5E309D"/>
		</linearGradient>
		<path class="st9" d="M8220.28,2230.85c0-13.61,7.17-20.42,21.5-20.42h220.36c31.1,0,57.69,8.81,79.76,26.44
			c22.07,17.63,33.11,38.91,33.11,63.85c0,24.94-11.04,46.65-33.11,65.14c22.07,17.63,33.11,38.91,33.11,63.85
			c0,24.94-11.04,46.22-33.11,63.85c-22.07,17.63-48.66,26.44-79.76,26.44h-220.36c-14.33,0-21.5-6.8-21.5-20.42V2230.85z
			 M8284.77,2339.41h177.36c13.47,0,24.9-3.76,34.29-11.29c9.38-7.52,14.08-16.66,14.08-27.41c0-10.75-4.7-19.89-14.08-27.41
			c-9.39-7.52-20.82-11.29-34.29-11.29h-177.36V2339.41z M8284.99,2391.01l-0.22,77.39h177.36c13.47,0,24.9-3.76,34.29-11.29
			c9.38-7.52,14.08-16.66,14.08-27.41c0-10.75-4.7-19.89-14.08-27.41c-9.39-7.52-20.82-11.29-34.29-11.29H8284.99z"/>
	</g>
</g>
<g>
	<g>
		<linearGradient id="SVGID_11_" gradientUnits="userSpaceOnUse" x1="2454.595" y1="2084.8301" x2="2757.0801" y2="1253.7598">
			<stop  offset="0" style="stop-color:#20D6DE"/>
			<stop  offset="1" style="stop-color:#5E309D"/>
		</linearGradient>
		<path class="st10" d="M2681.16,1775.06c-16.97-17.15-32.29-32.63-48.37-48.87c-86.89,72.52-186.65,111.47-301.39,115.64
			c0-42.74,0-83.73,0-126.66c77.97-5.21,148.84-29.28,208.67-77.81c-16.23-16.36-32.02-32.29-48.91-49.32
			c-45.34,33.05-98.66,52.98-159.57,55.68c0-50.69,0-100.32,0-151.14c37.36-5.06,70.32-18.51,97.14-45.39
			c26.8-26.87,41.08-59.45,45.93-97.8c50.26,0,99.9,0,151.19,0c-2.24,60.29-22.17,113.44-56.18,160.23
			c16.24,16.58,31.96,32.63,48.64,49.66c49.64-60.74,73.73-131.42,79.06-210.24c42.11,0,83.14,0,126.67,0
			c-3.8,114.08-42.69,214.02-115.64,301.4c16.63,15.73,32.66,30.88,49.95,47.23c85.85-99.26,130.58-215.84,136.44-347.12
			c14.33-4.92,108.95-5.41,125.24-1.09c10.83,35.44-26.93,213.53-53.8,249.59c-6.24-7.22-12.3-14.22-19.53-22.59
			c24.56-62.81,40.91-129.23,44.84-199.53c-23.32,0-45.41,0-69.2,0c-12.34,140.66-66.43,262.22-163.76,363.68
			c-30.2-29.96-59.4-58.93-90.01-89.29c71.83-76.59,114.54-167.28,125.12-274.1c-23.17,0-45.51,0-69.91,0
			c-10.49,85.86-44.45,161.37-103.34,223.92c-30.29-29.96-59.77-59.11-89.89-88.9c33.54-38.09,56.21-82.38,64.13-135.42
			c-32.7,0-63.53,0-95.73,0c-19.4,72.83-65.52,120.04-139.82,139.65c0,31.63,0,62.74,0,95.95c52.87-7.97,97.19-30.47,135.06-63.89
			c29.84,29.89,59.14,59.25,89.22,89.39c-29.6,28.29-63.93,51.98-102.4,69.66c-38.42,17.65-78.75,28.79-121.68,33.6
			c0,23.72,0,46.14,0,70.21c106.45-10.4,197.46-52.75,273.87-124.92c30.05,30.08,59.14,59.2,89.7,89.79
			c-101.15,97.03-222.36,151.44-363.55,163.7c0,23.26,0,45.35,0,69.22c69.67-3.7,135.98-20.02,201.64-45.68
			c6.56,6.84,12.99,13.56,21.29,22.22c-81.05,34.54-163.64,51.94-251.08,54.2c0-43.05,0-84.38,0-127.31
			C2463.77,1906.71,2580.48,1862.13,2681.16,1775.06z"/>
		<linearGradient id="SVGID_12_" gradientUnits="userSpaceOnUse" x1="2541.5127" y1="1326.4712" x2="2758.7246" y2="729.6865">
			<stop  offset="0" style="stop-color:#20D6DE"/>
			<stop  offset="1" style="stop-color:#5E309D"/>
		</linearGradient>
		<path class="st11" d="M2331.48,936.14c0-42.29,0-82.99,0-126.05c114.44,4.17,214.24,43.52,300.22,114.93
			c16.35-16.3,32.24-32.15,49.45-49.31c-98.87-86.57-216.07-131.44-349.56-137.46c0-42,0-82.69,0-125.56
			c86.27,1.4,168.39,19.41,250.31,53.46c-8.4,7.53-15.2,13.63-22.67,20.34c-63.59-24.96-129.75-40.94-200.07-45.07
			c0,23.51,0,45.58,0,69.88c10.97,1.57,22.34,3.31,33.74,4.82c105.73,14.08,200.58,53.97,284.2,120.22
			c13.63,10.8,26.53,22.53,39.67,33.96c1.91,1.66,3.23,4,4.31,5.38c-29.5,29.45-58.52,58.41-88.38,88.21
			c-76.1-71.77-166.69-113.73-273.8-124.48c-2.01,23.85-0.62,46.56-0.92,70.78c86.88,11.07,162.47,43.86,225.03,103.94
			c-29.99,29.34-59.09,57.82-89.55,87.62c-36.91-32.17-81.05-55.25-134.26-62.98c0,32.9,0,63.99,0,96.15
			c73.12,19.67,119.76,66.45,139.75,139.98c31.62,0,62.46,0,95.6,0c-6.74-53.12-30.38-96.84-62.25-134.5
			c29.92-29.89,58.95-58.88,88.66-88.55c57.9,61.07,92.08,136.05,102.55,222.77c23.63,0,46.09,0,70.31,0
			c-10.39-106.22-52-197.16-124.06-273.7c29.92-29.65,59.03-58.5,89.22-88.41c96.96,100.45,150.55,221.8,163.29,362.08
			c23.76,0,45.84,0,69.56,0c-4.27-69.89-19.99-136.06-46.45-203.35c6.28-5.85,13.04-12.16,19.9-18.55
			c25.87,29.1,65.45,212.94,54.35,250.71c-40.6,0-81.64,0-124.62,0c-5.89-133.26-49.86-250.52-138.87-353
			c-17.21,16.85-32.97,32.28-49.85,48.8c73.65,87.74,113.62,187.8,117.74,303.23c-42.91,0-83.9,0-126.69,0
			c-4.75-79.29-29.68-150.4-79.65-212.02c-17.2,16.98-33.23,32.81-50.01,49.37c29.8,39.8,48.41,84.47,55.87,133.65
			c1.39,9.16,1.62,18.5,2.48,28.91c-51,0-100.35,0-150.86,0c-5.16-37.83-19.11-70.95-46.18-98.04
			c-26.85-26.87-59.71-40.48-97.44-45.66c0-50.18,0-99.52,0-150.64c60.78,2.92,114.38,22.64,162.25,57.8
			c16.41-16.83,32.13-32.96,48.92-50.19c-28.93-24.05-62.01-42.42-97.88-56.15C2408.88,945.7,2371.47,938.6,2331.48,936.14z"/>
		<linearGradient id="SVGID_13_" gradientUnits="userSpaceOnUse" x1="1856.9919" y1="1922.1169" x2="2074.2002" y2="1325.342">
			<stop  offset="0" style="stop-color:#20D6DE"/>
			<stop  offset="1" style="stop-color:#5E309D"/>
		</linearGradient>
		<path class="st12" d="M2117.17,1376.75c-31.81,0-62.93,0-95.74,0c6.74,53.36,30.8,97.05,62.79,135.16
			c-29.92,29.88-58.75,58.67-88.41,88.29c-58.92-61.34-92.15-136.69-103.05-223.4c-23.81,0-46.57,0-70.62,0
			c4.01,52.46,17.61,101.33,38.85,148.13c21.28,46.89,50.11,88.87,85.22,125.23c-29.85,30.22-58.66,59.39-88.49,89.59
			c-97.63-101.48-150.79-223.05-163.55-363.19c-24.12,0-46.21,0-70.46,0c4.01,70,19.87,136.06,45.87,202.26
			c-6.45,5.68-13.38,11.78-21.67,19.07c-33.78-79.26-50.52-161.42-53.54-248.24c42.3,0,83.27,0,126.17,0
			c5.88,132.4,50.52,249.87,141.07,353.32c16.52-17.5,31.96-33.85,48.06-50.9c-73.5-87.88-113.01-187.81-117.3-302.75
			c42.45,0,83.14,0,125.54,0c3.38,38.51,9.63,76.4,23.54,112.61c13.8,35.9,32.11,69.1,55.73,97.75
			c16.67-16.66,32.58-32.56,47.75-47.73c-11.96-24.23-25.99-49.7-37.28-76.33c-11.4-26.88-16.17-55.65-17.15-86.17
			c50.39,0,99.72,0,149.91,0c13.37,82.09,61.14,130.17,144.12,143.85c0,49.65,0,99.01,0,150.28
			c-60.52-2.66-114.04-22.46-161.49-57.4c-16.17,16.8-31.78,33.03-48.67,50.58c59.8,48.38,130.65,73.65,210.33,78.16
			c0,42.35,0,83.39,0,126.81c-114.64-3.88-214.68-43.63-300.59-115.6c-16.69,16.06-32.61,31.37-50.08,48.17
			c48.22,44.11,102.91,76.13,162.79,99.84c60.02,23.77,122.58,35.76,188.34,38.38c0,42.68,0,84.03,0,127.34
			c-86.84-2.21-169.48-19.79-251.48-54.43c8.45-8.08,15.11-14.45,22.3-21.33c64.45,25.38,130.67,41.17,200.74,45.47
			c0-23.38,0-45.46,0-69.6c-139.76-12.51-261.11-66.23-362.54-163.88c30.14-29.55,59.4-58.24,88.04-86.32
			c26.24,19.09,52.98,40.12,81.32,58.73c28.57,18.77,60.14,32,92.77,42.44c32.47,10.39,65.49,17.85,100.66,20.17
			c0-23.46,0-45.94,0-69.76c-86.36-10.64-161.51-44.58-224.1-103.76c29.48-29.28,58.37-57.99,88.85-88.27
			c37.83,32.13,81.92,55.97,135.36,63.16c0-33,0-63.84,0-95.87C2183.91,1497.02,2137.23,1450.28,2117.17,1376.75z"/>
		<linearGradient id="SVGID_14_" gradientUnits="userSpaceOnUse" x1="1859.3459" y1="1397.5638" x2="2161.4556" y2="567.5244">
			<stop  offset="0" style="stop-color:#20D6DE"/>
			<stop  offset="1" style="stop-color:#5E309D"/>
		</linearGradient>
		<path class="st13" d="M1858.2,912.53c29.27,29.49,58.15,58.58,87.94,88.58c-71.73,75.95-113.63,166.59-124.54,274.13
			c23.84,1.14,46.54,0.6,70.95,0.31c10.76-86.71,44.11-162.18,102.85-224.16c29.46,29.33,58.51,58.24,88.83,88.43
			c-30.56,35.68-53.29,77.48-61.93,126.04c-0.44,2.49-0.06,5.12-0.06,8.85c31.95,0,63.06,0,94.92,0
			c19.84-73.11,66.15-119.67,139.77-139.76c0-31.45,0-62.56,0-96.09c-52.92,7.27-96.78,30.67-134.48,62.85
			c-29.95-29.98-58.97-59.01-88.67-88.74c61.23-57.88,136.01-91.7,222.88-102.36c0-23.41,0-46.15,0-70.91
			c-106.07,9.8-196.53,52.26-275.37,126.03c-29.51-29.5-58.47-58.44-88.79-88.74c102.59-99.03,224.02-152.21,364.51-165.04
			c0-23.66,0-45.76,0-70.27c-69.76,3.44-135.99,19.78-203.82,46.24c-5.73-5.74-12.22-12.22-18.7-18.7c0.76-1.35,1.52-2.7,2.28-4.04
			c78.62-33.22,160.68-50.46,247.46-52.95c0,42.42,0,83.38,0,126c-132.41,5.97-249.42,50.41-351.58,139.4
			c17.06,17.4,32.52,33.16,48.79,49.74c43.26-36.01,89.82-64.57,141.42-84.6c51.57-20.02,104.91-30.76,161.44-32.58
			c0,42.32,0,83.28,0,125.71c-79.05,5.13-150.09,30.22-211.24,79.84c17.19,16.98,33.21,32.81,50.01,49.41
			c46.82-34.39,100.26-54.03,161.1-57.23c0,50.43,0,99.76,0,150.21c-81.53,13.29-129.9,60.77-143.69,143.9
			c-49.41,0-98.75,0-150.01,0c2.55-60.34,22.15-113.91,57.33-161.63c-16.79-16.12-33.04-31.72-50.6-48.56
			c-48.75,59.95-73.96,130.8-78.92,210.29c-42.13,0-83.1,0-125.9,0c4.31-114.76,43.56-214.75,114.45-299.34
			c-15.88-17.23-30.85-33.48-47.48-51.52c-88.36,100.97-132.81,217.87-138.83,350.9c-41.99,0-82.69,0-123.31,0
			c-12.33-28.17,23.97-203.22,53.67-251.32c6.58,7.88,12.44,14.91,18.51,22.18c-25.64,65-41.41,131.22-45.82,201.53
			c23.59,0,45.66,0,69.94,0c1.55-10.54,3.34-21.52,4.77-32.54c13.62-105.01,53.05-199.28,118.12-282.74
			c11.62-14.9,24.49-28.84,36.9-43.12C1854.7,914.52,1856.83,913.52,1858.2,912.53z"/>
		<linearGradient id="SVGID_15_" gradientUnits="userSpaceOnUse" x1="2279.834" y1="1403.1558" x2="2336.2717" y2="1248.0938">
			<stop  offset="0" style="stop-color:#20D6DE"/>
			<stop  offset="1" style="stop-color:#5E309D"/>
		</linearGradient>
		<path class="st14" d="M2308.24,1407.86c-47.07-0.09-82.59-35.78-82.37-82.76c0.22-46.75,36.14-81.77,83.62-81.51
			c45.85,0.25,80.83,36.4,80.66,83.36C2389.98,1372.32,2353.91,1407.95,2308.24,1407.86z"/>
		<linearGradient id="SVGID_16_" gradientUnits="userSpaceOnUse" x1="3093.5029" y1="1368.5066" x2="3124.7268" y2="1282.7201">
			<stop  offset="0" style="stop-color:#20D6DE"/>
			<stop  offset="1" style="stop-color:#5E309D"/>
		</linearGradient>
		<path class="st15" d="M3154.23,1326.1c0.02,25.38-20.2,45.6-45.34,45.35c-24.74-0.25-45.59-21.42-45.33-46.03
			c0.26-24.78,21.27-45.51,45.99-45.38C3134.63,1280.17,3154.22,1300.36,3154.23,1326.1z"/>
		<linearGradient id="SVGID_17_" gradientUnits="userSpaceOnUse" x1="2292.623" y1="2169.4849" x2="2323.605" y2="2084.3625">
			<stop  offset="0" style="stop-color:#20D6DE"/>
			<stop  offset="1" style="stop-color:#5E309D"/>
		</linearGradient>
		<path class="st16" d="M2307.21,2171.95c-24.82-0.17-44.73-19.98-44.89-44.67c-0.16-24.74,20.96-46.09,45.36-45.84
			c25.81,0.27,46.52,21.11,46.04,46.31C2353.24,2152.95,2333.05,2172.13,2307.21,2171.95z"/>
		<linearGradient id="SVGID_18_" gradientUnits="userSpaceOnUse" x1="2292.7551" y1="566.2283" x2="2323.2166" y2="482.536">
			<stop  offset="0" style="stop-color:#20D6DE"/>
			<stop  offset="1" style="stop-color:#5E309D"/>
		</linearGradient>
		<path class="st17" d="M2308.49,568.66c-25.68,0.13-45.11-18.52-45.57-43.74c-0.46-24.71,19.33-44.61,44.66-44.92
			c25.09-0.31,45.82,19.7,45.6,44.01C2352.95,549.42,2333.81,568.54,2308.49,568.66z"/>
		<linearGradient id="SVGID_19_" gradientUnits="userSpaceOnUse" x1="1491.2046" y1="1368.2915" x2="1522.1265" y2="1283.3342">
			<stop  offset="0" style="stop-color:#20D6DE"/>
			<stop  offset="1" style="stop-color:#5E309D"/>
		</linearGradient>
		<path class="st18" d="M1550.92,1326.06c-0.1,25.44-19,44.47-44.54,44.84c-24.3,0.36-44.25-20.22-44.11-45.49
			c0.14-24.66,19.71-44.78,43.61-44.85C1531.65,1280.49,1551.02,1300.06,1550.92,1326.06z"/>
	</g>
	<g>
		<linearGradient id="SVGID_20_" gradientUnits="userSpaceOnUse" x1="1495.9436" y1="2512.1975" x2="1610.3213" y2="2197.9475">
			<stop  offset="0" style="stop-color:#20D6DE"/>
			<stop  offset="1" style="stop-color:#5E309D"/>
		</linearGradient>
		<path class="st19" d="M1586.56,2428.68l-28.49,74.34c-3.77,11.32-10,16.98-18.68,16.98h-18.87c-8.68,0-14.91-5.66-18.68-16.98
			l-84.91-221.7c-3.27-9.56-4.91-16.16-4.91-19.81c0-8.8,6.29-13.21,18.87-13.21h18.87c8.68,0,14.91,5.66,18.68,16.98l61.51,166.98
			l28.49-77.17l-28.3-73.77c-3.27-9.81-4.91-16.42-4.91-19.81c0-8.8,6.29-13.21,18.87-13.21h18.87c8.68,0,14.91,5.66,18.68,16.98
			l61.51,166.79l61.51-166.79c3.77-11.32,10-16.98,18.68-16.98h18.87c12.58,0,18.87,4.41,18.87,13.21c0,3.52-1.64,10.07-4.91,19.62
			l-84.91,221.89c-3.77,11.32-10,16.98-18.68,16.98h-18.87c-8.68,0-14.91-5.66-18.68-16.98L1586.56,2428.68z"/>
		<linearGradient id="SVGID_21_" gradientUnits="userSpaceOnUse" x1="1772.3125" y1="2508.821" x2="1863.0645" y2="2259.4819">
			<stop  offset="0" style="stop-color:#20D6DE"/>
			<stop  offset="1" style="stop-color:#5E309D"/>
		</linearGradient>
		<path class="st20" d="M1845.99,2502.08c0,11.95-6.29,17.92-18.87,17.92h-18.87c-12.58,0-18.87-5.97-18.87-17.92v-235.85
			c0-11.95,6.29-17.92,18.87-17.92h18.87c12.58,0,18.87,5.98,18.87,17.92V2502.08z"/>
		<linearGradient id="SVGID_22_" gradientUnits="userSpaceOnUse" x1="1969.6782" y1="2549.7532" x2="2090.2266" y2="2218.5493">
			<stop  offset="0" style="stop-color:#20D6DE"/>
			<stop  offset="1" style="stop-color:#5E309D"/>
		</linearGradient>
		<path class="st21" d="M2086.56,2361.51c27.29,0,50.63,7.74,70,23.21c19.37,15.47,29.06,34.15,29.06,56.04s-9.69,40.57-29.06,56.04
			c-19.37,15.47-42.71,23.21-70,23.21h-193.4c-12.58,0-18.87-5.97-18.87-17.92v-9.43c0-11.95,6.29-17.92,18.87-17.92h193.4
			c11.82,0,21.85-3.3,30.09-9.91c8.24-6.6,12.36-14.62,12.36-24.06c0-9.43-4.12-17.45-12.36-24.06c-8.24-6.6-18.27-9.91-30.09-9.91
			h-113.21c-27.3,0-50.63-7.74-70-23.21c-19.37-15.47-29.06-34.15-29.06-56.04c0-21.89,9.68-40.57,29.06-56.04
			c19.37-15.47,42.7-23.21,70-23.21h193.4c12.58,0,18.87,5.98,18.87,17.92v9.43c0,11.95-6.29,17.92-18.87,17.92h-193.4
			c-11.83,0-21.86,3.3-30.09,9.91c-8.24,6.6-12.36,14.62-12.36,24.06c0,9.43,4.12,17.45,12.36,24.06c8.24,6.6,18.27,9.91,30.09,9.91
			H2086.56z"/>
		<linearGradient id="SVGID_23_" gradientUnits="userSpaceOnUse" x1="2316.7009" y1="2529.4233" x2="2400.0535" y2="2300.4141">
			<stop  offset="0" style="stop-color:#20D6DE"/>
			<stop  offset="1" style="stop-color:#5E309D"/>
		</linearGradient>
		<path class="st22" d="M2213.92,2266.23c0-11.95,6.29-17.92,18.87-17.92h18.87c12.58,0,18.87,5.98,18.87,17.92v174.53
			c0,9.43,4.12,17.45,12.36,24.06c8.24,6.6,18.27,9.91,30.09,9.91h193.4c12.58,0,18.87,5.98,18.87,17.92v9.43
			c0,11.95-6.29,17.92-18.87,17.92h-193.4c-27.3,0-50.63-7.74-70-23.21c-19.37-15.47-29.06-34.15-29.06-56.04V2266.23z"/>
		<linearGradient id="SVGID_24_" gradientUnits="userSpaceOnUse" x1="2687.0574" y1="2563.647" x2="2792.4714" y2="2274.0239">
			<stop  offset="0" style="stop-color:#20D6DE"/>
			<stop  offset="1" style="stop-color:#5E309D"/>
		</linearGradient>
		<path class="st23" d="M2631.09,2463.4l-21.32,40.19c-7.3,10.94-15.03,16.42-23.21,16.42h-14.15c-12.58,0-18.87-5.91-18.87-17.74
			c0-3.77,1.7-8.99,5.09-15.66l122.45-221.51c3.77-11.19,10-16.79,18.68-16.79h18.87c8.68,0,14.91,5.6,18.68,16.79l122.45,221.51
			c3.4,6.67,5.09,11.83,5.09,15.47c0,11.95-6.29,17.92-18.87,17.92h-14.15c-8.18,0-15.91-5.47-23.21-16.42l-21.32-40.19H2631.09z
			 M2763.16,2418.11l-53.96-101.7l-53.96,101.7H2763.16z"/>
		<linearGradient id="SVGID_25_" gradientUnits="userSpaceOnUse" x1="2979.8889" y1="2546.6018" x2="3093.0378" y2="2235.728">
			<stop  offset="0" style="stop-color:#20D6DE"/>
			<stop  offset="1" style="stop-color:#5E309D"/>
		</linearGradient>
		<path class="st24" d="M2893.16,2266.23c0-11.95,6.29-17.92,18.87-17.92h193.4c27.29,0,50.63,7.74,70,23.21
			c19.37,15.47,29.06,34.15,29.06,56.04c0,21.89-9.69,40.94-29.06,57.17c19.37,15.47,29.06,34.15,29.06,56.04
			s-9.69,40.57-29.06,56.04c-19.37,15.47-42.71,23.21-70,23.21h-193.4c-12.58,0-18.87-5.97-18.87-17.92V2266.23z M2949.76,2361.51
			h155.66c11.82,0,21.85-3.3,30.09-9.91c8.24-6.6,12.36-14.62,12.36-24.06c0-9.43-4.12-17.45-12.36-24.06
			c-8.24-6.6-18.27-9.91-30.09-9.91h-155.66V2361.51z M2949.95,2406.79l-0.19,67.92h155.66c11.82,0,21.85-3.3,30.09-9.91
			c8.24-6.6,12.36-14.62,12.36-24.06c0-9.43-4.12-17.45-12.36-24.06c-8.24-6.6-18.27-9.91-30.09-9.91H2949.95z"/>
	</g>
</g>
</svg>
