M48
;Layer_Color=9474304
;FILE_FORMAT=2:5
INCH,LZ
;TYPE=PLATED
T1F00S00C0.00590
%
T01
X023Y009625
X02317Y009495
X02331Y009335
X02344Y009525
X0236Y009395
X02377Y009275
X02395Y009165
X02414Y009065
X02411Y008815
X02389Y008905
X0237Y009015
X02351Y009155
X02329Y009675
X02314Y009835
X02287Y009805
X023751Y009891
X023964Y009871
X024137Y009758
X024324Y009671
X024518Y009599
X024717Y009543
X02492Y009505
X025125Y009481
X025331Y009479
X025537Y009496
X02574Y009533
X02594Y009583
X026133Y009655
X02616Y009445
X026407Y009468
X026444Y009262
X026238Y009247
X026288Y009047
X026071
X025836
X025612Y009051
X02559Y009268
X025796Y009273
X026004Y009307
X025384Y00928
X025387Y009074
X025179Y009115
X024966Y009167
X024751Y009225
X024557Y009297
X024369Y009383
X024186Y009478
X024013Y009591
X023841Y009705
X02433Y008975
X02452Y008895
X02472Y008825
X024955Y008769
X025176Y008725
X025407Y00869
X025635Y008671
X025864Y008666
X026086Y008664
X026306Y008665
X026522Y008666
X026741Y008669
X026738Y008456
X026482
X026276
X02607Y008439
X025837Y008435
X0256Y008454
X025312Y008462
X025065Y008474
X02481Y008505
X02459Y008615
X02435Y008675
X02517Y009905
X02538
X026319Y009745
X026497Y009849
X026542Y009633
X026738Y009697
X026735Y009491
X02673Y009285
X026739Y009045
X026508Y009048
X0020081Y0100156
X01652Y01003
X0165075Y0102475
X01651Y01046
X01955Y011565
X019545Y0117834
X01946Y011955
X01896Y012175
X01908Y0123882
X0188Y012365
X01881Y0126
X018934Y0127769
X01903Y013725
X01918Y013875
X01937Y013985
X01959
X01981Y013955
X02003Y013855
X02025Y013825
X02048Y013965
X0209917Y0140227
X0211542Y0134995
X0214101Y0132436
X021628Y013219
X0211542Y0129877
X02083Y012885
X02068Y012735
X02055Y012565
Y012345
Y012125
Y011905
X02Y011555
X01978Y011515
X02049Y0132346
X021666Y0140113
X0228015Y013419
X0226896Y0132436
X0227585Y01304
Y0128335
Y012627
X0232014Y0125737
Y0127807
Y0129877
Y0132436
X0230905Y013419
X0233135
X0236025
X0238255
X0237132Y0132436
Y0129877
Y0127807
Y0125737
X0241545Y012633
Y0128395
Y013046
X024225Y0132436
X0241145Y013419
X024741Y0134995
X02496Y013505
X02498Y013285
Y013035
X02523Y013115
X025199Y012898
X025418Y012959
X025596Y013064
X025777Y01317
X025797Y012936
X025969Y013068
X02617Y013015
X02612Y012775
X02609Y012525
X02611Y012305
X02632Y012395
X026292Y012619
X026526Y012563
X026521Y012323
X02653Y01204
X026741Y012038
Y012244
X026735Y01245
Y012687
X026737Y0129
X02673Y013106
X026732Y013312
X02673Y013518
X026728Y0137248
X026507Y0137228
X026297Y0137268
X02609
X025883
X025672Y0137448
X02549Y013848
X025327Y0139748
X025135Y0140568
X024924Y0140728
X02497Y013865
X02518Y013825
X02513Y013625
X02522Y013355
X025407Y013245
X02538Y012675
X02537Y012395
X02518Y012295
X0252Y012545
X02555Y012525
X025572Y012794
X02553Y012245
X02573Y012075
X02574Y011835
X02597Y01181
X02587Y011625
X025845Y01142
X02589Y011215
X025995Y011035
X025824Y010917
X025569Y010926
X02547Y010736
X025691Y010729
X025925Y010737
X026115Y010655
X026111Y010861
X026498Y010838
X02649Y010632
X026439Y010422
X026643Y010453
X026833Y010533
X027039Y010542
X027245Y010545
X027481Y01055
X027486Y010163
X027258Y010164
X027033
X026822Y010103
X026665Y009969
X026347Y010237
X02618Y010115
X026Y010015
X0258Y009945
X02559Y009915
X025635Y01032
X025425
X025215
X025
X02479Y01033
X024585Y01038
X02468Y01057
X02489Y010555
X0251Y010535
X02533
X02555Y010545
X025809Y010559
X02584Y010355
X02601Y010475
X025721Y011096
X02545Y0111
X025591Y011256
X02563Y011459
X02562Y011665
X02538Y011355
X026235Y011391
X026293Y011589
X026512Y011652
X02674Y011659
X026736Y011453
X02674Y011247
X026738Y011041
X026739Y010834
X026449Y011039
X026349Y011219
X02632Y012025
X026125Y01195
X02598Y012125
X02642Y012875
X026497Y013111
X026277Y013199
X026293Y01343
X026521Y013398
X026065Y013496
X02607Y013275
X026117Y014099
X026325
X026532Y0141
X026741Y014099
X026737Y014473
X026515Y014469
X026326Y014379
X026117Y014348
X025911
X025908Y0141
X025724Y01426
X02553Y014335
X02533Y014415
X0251508Y0145231
X0249438
X0247368
X0244809
X0243065Y014413
Y014635
Y014925
Y015147
X0244809Y0150349
X0247368
X0249438
X0251508
X025332Y015144
X025351Y014921
X025528Y014789
X02573Y014727
X025937Y014722
X026145Y014728
X026328Y014824
X026533Y014847
X026741Y014846
X026739Y015222
X026529Y01522
X026321Y015243
X026138Y015341
X025923Y015343
X025703Y015336
X025509Y01526
X025535Y015726
X025726Y015815
X025914Y015726
X026132Y015725
X026349Y015682
X026536Y015594
X026742
Y015971
X026536Y015968
X026318Y015967
X026099Y015968
X025893
X025883Y016343
X02609
X026297
X026507Y016347
X02674Y016345
Y016555
X02673Y016815
Y017025
Y017235
Y017445
X02669Y017655
X026484Y017619
X026359Y017442
X02654Y017325
X02647Y017115
X02627Y017182
X02631Y016955
X02629Y016735
X0264Y016535
X02615Y016545
X02592Y016555
X026012Y016815
X026107Y017015
X02655Y016915
X02657Y016675
X025672Y016325
X02549Y016225
X025327Y016095
X025135Y016013
X024924Y015997
X024717Y016054
X024484
X0243065Y015949
Y015659
Y015437
X0244809Y0155467
X0247368
X0249438
X0251508
X02534Y015635
X024717Y0140113
X0244809
X0243065Y014123
X0241545Y012426
X024157Y012161
X024155Y011874
Y0116675
Y0114605
Y0112535
Y011045
X02418Y01084
X02427Y01065
X02441Y01049
X02433Y010085
X02454Y009995
X02475Y009935
X02496Y009925
X02415Y010205
X02398Y010355
X02383Y010525
X02374Y010745
X023709Y010959
Y011166
Y011373
Y01158
Y011787
Y011994
X023201Y01199
Y011783
Y011576
Y011369
Y011162
Y010955
Y010748
X02325Y010535
X023345Y010351
X023458Y010178
X023588Y010018
X02301Y010005
X02279Y010015
X02269Y010205
X02291Y010185
X02283Y010385
X02278Y010595
X022756Y010813
X022757Y011021
X022756Y011231
X022753Y011437
X022755Y01165
X022753Y011859
X022757Y01207
X02176Y017905
X02155Y017885
X02119Y017895
X02098Y017935
X02018Y017715
X02017Y017505
X01953Y017425
Y017635
X024Y017975
X02327Y021692
X023064Y021646
X022857
X02265
X022443
X0222143
X0219857
X0217787
X0215717
X0213647
X0211577Y021692
Y022006
X0213647Y022052
X0215717
X0217787
X0219857
X0222143
X022443
X02265
X022857
X023064
X02327Y022006
X023398Y021849
X023278Y022573
X023072Y022527
X022865
X022658
X022451
X022222
X022015
X021808
X021601
X021394
X021187
X02098
X020773
X020566
X020359
X020152
X019945
X019738
X019531
X019324
X019117
X01891
X018703
X018496
X018289
X018082
X017875
X017668
X017461
X017254
X017047
X01684
X016633
X016427Y022573
Y022887
X016633Y022933
X01684
X017047
X017254
X017461
X017668
X017875
X018082
X018289
X018496
X018703
X01891
X019117
X019324
X019531
X019738
X019945
X020152
X020359
X020566
X020773
X02098
X021187
X021394
X021601
X021808
X022015
X022222
X022451
X022658
X022865
X023072
X023278Y022887
X023406Y02273
X0209507Y021849
X016197Y02273
M30
