M48
;Layer_Color=9474304
;FILE_FORMAT=2:5
INCH,LZ
;TYPE=PLATED
T2F00S00C0.00787
T3F00S00C0.01220
T5F00S00C0.03346
T7F00S00C0.04000
T8F00S00C0.04016
T9F00S00C0.04724
T10F00S00C0.15748
%
T02
X0202849Y0089324
Y0093261
X0206786
Y0089324
X00096Y00736
X0006284Y0071368
Y0075896
X00029Y00736
X0151675Y010805
X01551
X0158526
X0156042Y0168818
Y017365
X0159603Y0175757
X016224
T03
X02924Y001915
X03004
Y002715
Y003515
Y004315
X02924
Y005115
X03004
Y005915
X02924
Y003515
Y002715
X02844
Y003515
Y004315
X02764
X02684
X02604
X02524
Y005115
X02604
X02684
X02764
X02844
Y005915
X02764
X02684
X02604
X02524
X02444Y005115
X02404Y004315
X02364Y003915
Y003115
Y002315
Y001515
Y000715
X02444
X02524
X02604
X02684
X02764
Y-000085
X02684
X02604
X02524
X02444
X02364
X02284
Y000715
Y001515
Y002315
X0221678Y002295
X0210064Y002325
X0203661Y0033859
X0201999Y0037252
X0200189Y0041211
X01972Y004035
X01964Y003195
X01842Y003755
X01795Y003775
X01785Y004125
X01789Y004495
X0173Y004315
X01739Y003965
X01744Y003575
X0176467Y0031264
X0176297Y0026904
X0169045Y0026599
X0168978Y0030136
X0162527Y0035472
X0159523Y0035453
X0158728Y0048548
X0161732
X0164714
X0165158Y0062804
X0167613Y0066027
X01756Y006495
X01798Y006525
X01815Y006895
X01768Y006855
X0175927Y0088503
X017Y00877
X01689Y00851
X01688Y00903
X01656Y00911
X0156655Y009088
X0153555
X01455Y0092
X01429Y00909
X01401Y00907
X0141Y00879
Y00851
X01363Y00918
X01382Y00953
X0143Y00987
X0150155Y008188
X0153155
X0156455
X0159455
X01892Y0079027
X0187795Y0089007
X01864Y009525
X01916Y009495
X0195984Y0095474
X02118Y009705
X0228477Y0094656
X0234065Y0087184
X02364Y008315
X02404Y007915
X02484
X02324
Y006715
X02237Y006765
Y007145
X0226743Y0061493
X0238057Y0072807
X02284Y003115
Y-000885
X02364
X02444
X02524
X02604
X02684
X02764
X02844
Y-000085
Y000715
Y001915
X02764
Y002715
Y003515
X02008Y0046916
X01916Y001455
X017355Y-00001
X0147274Y0012745
X01358Y0022
X01368Y00458
X0137005Y0062915
X0133574Y0062841
X013343Y0067049
X0118327Y0072091
X0113159Y0068489
X01129Y00592
X01053Y00598
X01042Y006725
X0104Y007385
X0100318Y0079905
X0094142Y0080597
X00974Y0085848
X00901Y00856
X00909Y00944
X00861Y009805
X00751Y009905
X00732Y00872
X00664Y0085
X007Y007445
X00738Y007275
X00904Y007235
X00908Y006845
X00907Y006365
X00945Y006265
X00864Y005535
Y005115
X00816Y004605
X00764Y005115
X006922Y004855
X00713Y003825
X0075988Y0020838
X0087018Y0020732
X00808Y001285
X00724Y001255
X00562Y002195
X0051Y002215
X00474Y002415
X00451Y002805
X0040952Y003855
X00317Y004515
X00214Y004895
X00136Y0047846
X00118Y0042689
X00055Y0045977
X00058Y005425
X-0001133Y005315
X-00023Y005845
X00075Y006395
X0015Y006255
X00125Y006865
X00149Y008
X001992Y007855
X00229Y0075669
X0027Y0064337
X00295Y006065
X00442Y00566
X00491Y00567
X0056335Y0056388
X005792Y005325
X00568Y004935
X006275Y0057718
X0051551Y0081623
X00443Y008565
X0035022Y0081597
X00323Y00899
X0026805Y0089335
X00177Y00868
X00138Y008775
X00063Y009065
X00022Y009085
X-000154Y009055
X-00032Y008075
X-00048Y007155
X0007217Y0094123
X00055Y009735
X0003345Y0033451
X-000144Y0031679
X-0001112Y003735
X00084Y003115
X00164
X00244
X00177Y003875
X00404Y-000885
X00884
X00964
X01044
X01305Y001105
X01316Y00213
X013275Y00451
X01273Y004275
X012015Y004305
X01162Y00424
X0115735Y0046383
X0116578Y0051818
X01068Y00513
X0106722Y0047
X0103Y0046
X0095686Y0044079
X0093068Y0045971
X0109213Y0041662
X01164Y003495
X012275Y004605
X01115Y009255
X01117Y009645
X0106098Y0092446
X00981Y009675
X0114237Y0100236
X0115919Y0109029
X0116649Y0112627
X0116657Y0119934
X0118107Y0123161
X0114269Y0126266
X0110357Y0126552
X0107132
X010407Y0126394
X0099051Y0124373
X0096707Y0126525
X0095562Y0121891
X00945Y0119
X009435Y011583
X0101258Y0116933
X0101256Y0119934
X0104198Y0115978
X010675Y0114373
X0106187Y0111299
X0111179Y0114558
X0108398Y0120995
X0126001Y0120067
X0125447Y0125849
X0132231Y0112239
X0132373Y0106599
X0088792Y0108669
X0086919Y0123
X0086861Y012636
X0076688Y012405
X00724Y011915
X00644
Y010715
X00564
X00524Y011515
X00564Y012715
X00462Y012725
X0033665Y013535
X00261Y013585
X00266Y012845
X00284Y011325
X0033535Y011265
X0030425Y010695
X00272Y01063
X00306Y00997
X00404Y010315
X00505Y010045
X00764Y010395
X00769Y014595
X00779Y015425
X00768Y016805
X0082061Y0171189
X0093867Y0171184
X00971Y016795
X0099594Y0163256
X01004Y015805
X0098842Y0151855
X0102632
X0105661
X0095052
X0091404Y015144
X00923Y016545
X01046Y016955
X01087Y016625
X011835Y016595
X0115691Y0153749
X0102402Y0184266
X01058Y018995
X00996Y019195
X01Y020885
X00961Y020927
X0092214Y0214271
X0097957Y0216842
X0106386Y0220417
X0109114Y02184
X0108538Y0214371
X0107562Y0206526
X01033Y020635
X01144Y020655
X0113671Y0210617
X0120666Y0214187
X0123088Y0208291
X0127357Y0208391
X013141Y021509
X0132955Y0228295
X0125652Y0228098
X01208Y022815
X0116802Y0228166
X0112741Y0229134
X0102955Y0228395
X009275Y0229
X0086803Y0224325
X00791Y022545
X0079Y023085
X0073005Y0229045
X006715Y02263
X00668Y022115
X00684Y021735
X0061445Y0215605
X00611Y020875
X0057Y020885
X00505Y020905
X00426Y020835
X00442Y020205
X00462Y019855
X0048775Y0194765
X00441Y019235
X00429Y0188626
X0057676
X00587Y018445
X0068911Y0184185
X0072708Y0184555
X0076484Y018455
X0079881Y0183782
X0084942Y0185645
X00828Y0188626
X0088295Y0183643
X00871Y020655
X00811Y020725
Y021585
X00767Y021905
X007275Y02081
X00669Y020845
X00565Y0222072
X005275Y022835
X00482Y022395
X0045Y021685
X00421Y021955
X00392Y022715
X00349Y018185
X00315Y017765
X00307Y016865
X00267Y016805
X00362Y016785
X00319Y016065
X00321Y015035
X00282Y015055
X0020482Y0151516
X00216Y0157205
X00219Y016305
X00157Y015955
X0014126Y0155568
X00108Y014595
X-00036Y014715
Y015515
Y016315
Y017115
Y017915
Y018715
X00062Y019155
X00239Y019025
X001515Y01687
X00488Y016765
X0052498Y0171153
X0056Y016795
X0064353Y0171197
X00682Y016835
X00649Y014915
X0059Y015055
X00531Y015005
X00393Y015035
X00109Y012695
X0003275Y012595
X-00007Y011395
X00097Y011595
X00163Y011715
X0010795Y010595
X0008Y010055
X013102Y018955
X0128922Y019635
X01364Y019875
X01388Y019555
X01422Y019345
X01467Y019475
X01464Y020045
X0153251Y0196539
X0153868Y018965
X0157407Y018674
X0149921Y0187102
X0146Y018708
X0135645Y0189535
X01371Y016445
X0142181Y0163769
X0146451Y0163067
X0147707Y0170331
X0149125Y0172321
X0146198Y0172332
X015356Y0178957
X0167715Y0182118
X016569Y0186887
X0164006Y0192379
X0163Y02015
X0159704Y0199344
X0169001Y0202712
X0167034Y0210677
X01579Y021095
X01561Y021415
X01583Y021745
X01544Y021845
X0152Y021565
X0157202Y0222948
X01369Y021725
X01773Y0208952
X01814Y020025
X018452Y0200255
X01876Y020035
X01861Y019585
X01892
X01829
X01796
X01794Y0188
X0183244Y0186927
X0186544
X0189744
X02073Y018545
X0207323Y0177706
X02084Y017325
X0201675Y0172226
X0200684Y0169899
X01998Y016295
X01999Y015995
X02034Y016005
X02098Y016628
X02196Y0172702
X0220525Y0177615
X02177Y018525
X02139Y0188448
X0212834Y0182919
X0224576Y0185934
X02301Y018455
X0230472Y018749
X023582Y0189276
X0236238Y0193558
X023253Y0193718
X0245996Y0194246
X02503Y019425
X02537Y018835
X025315Y01844
X02578Y018415
X026152Y018433
X02619Y018825
X02617Y019235
X0259565Y0174524
X0254Y017535
X02445Y017565
X0243781Y0181283
X0245113Y0185876
X02362Y018005
X02375Y01725
X0239234Y015874
X023965Y015454
X0239662Y015017
X0239005Y014548
X0238875Y014158
X0234875Y014229
X0232015Y014327
Y014027
X0233275Y013768
X0230475Y01377
X0227675
X0224835
X0220665Y0138
X022252Y0134525
X0218595Y013462
X0214101Y013755
X0208881Y0135113
X02092Y0131072
X02022Y014105
X0218575Y014288
X0218579Y0147495
X0218575Y015262
X0218579Y0157975
X0222995Y015886
X0221599Y0155185
X0222059Y0150545
X0226445Y015108
X0226719Y015512
X0228119Y0158785
X0233845Y015851
X0231965Y015508
X02346Y015215
X0235045Y014858
X0229505Y014804
X0225005Y014794
X0226695Y014523
X0222055Y014524
X0224635Y014227
X0226895Y014042
X0229505Y014197
X0236125Y013848
X024005Y013712
X0243015Y01371
X02541Y013575
X02583Y012655
X0258Y012375
X02528Y01197
X02524Y01166
X02517Y01113
Y01081
X02495Y012685
X023721Y012274
X023204Y0122739
X022716Y012349
X0224755Y011288
X0221955
X0217828Y0116007
X02101Y011223
X0211568Y0108118
X0212879Y0103054
X0216881Y0103138
X0223249Y01033
X02024Y011245
X0194236Y0108517
X019135Y0107172
X01887Y011335
X01917Y011655
X0181365Y01198
X01803Y01102
X01784Y010665
X01772Y00991
X0171642Y0109608
X01659Y010935
X0166171Y0120036
X0163187Y0119966
X0165289Y0122669
X016809Y0122081
X0175887Y0124996
X0156855Y012318
X0153355
X0155123Y0126157
X0155102Y0129027
X01453Y01232
X01439Y01207
X0147Y01209
X0140385Y0123046
X0139372Y0117667
X013615Y011665
X0141036Y0111951
X014475Y01124
X01447Y0107779
X014415Y010345
X01408Y01065
X0139253Y0101286
X0135439Y0126655
X0153606Y0159305
X0157796Y0161147
X0162129Y0162233
X0167047Y0162326
X0172071Y0164484
X0173733Y0162938
X0175115Y0164768
X017437Y0176607
X0176684
X017203
X0181001Y0157767
X0178243Y0154959
X0176162Y0152879
X01965Y0099504
X02078Y0199526
X0208Y020377
X02123Y0208899
X0225082Y0209398
X02416Y023375
X02512Y023355
X02632
X02744
X02848
X02776Y022155
X02816Y021275
X0278743Y0204807
X02844Y019915
X0273086Y0210464
X02571Y016755
X02545Y016512
X0249055Y016659
X0290057Y0193493
X02996Y019155
Y020195
X02908Y020755
T05
X0184658Y0000088
X0204343
T07
X0156Y00215
X0166
X0081844Y0066875
Y0076875
X0061244Y0076975
Y0066975
X00409Y0066942
Y0076942
T08
X0003194Y0157453
Y0167453
Y0177453
X0019694Y0173977
X00195Y0184
T09
X005328Y-0002134
X0067059
X0080839
T10
X0254395Y0024355
Y0214355
M30
