G04 Layer_Color=32896*
%FSLAX25Y25*%
%MOIN*%
G70*
G01*
G75*
%ADD60C,0.01500*%
%ADD65C,0.01000*%
%ADD71C,0.00600*%
%ADD74C,0.00900*%
%ADD80C,0.00800*%
%ADD157C,0.00100*%
G54D60*
X-107910Y678791D02*
X-99772D01*
X-107910Y659019D02*
X-99772D01*
X-107910D02*
Y678791D01*
X-125046Y678991D02*
X-119118D01*
X-125046Y559270D02*
Y678991D01*
Y559270D02*
X-99772D01*
X-97426Y673183D02*
Y685200D01*
Y673183D02*
X-87242D01*
Y685200D01*
X-97426D02*
X-87242D01*
X339103Y650680D02*
Y665386D01*
Y650680D02*
X352412D01*
Y665386D01*
X339103D02*
X352412D01*
X359098Y651641D02*
X457535D01*
G54D65*
X295262Y534491D02*
Y714491D01*
X201822Y694491D02*
X295262D01*
X201822Y684491D02*
X295262D01*
X201822Y674491D02*
X295262D01*
X201822Y664491D02*
X295262D01*
X201822Y654491D02*
X295262D01*
X201822Y644491D02*
X295262D01*
X201822Y634491D02*
X295262D01*
X201822Y624491D02*
X295262D01*
X201822Y614491D02*
X295262D01*
X201822Y604491D02*
X295262D01*
X201822Y594491D02*
X295262D01*
X201822Y584491D02*
X295262D01*
X201822Y574491D02*
X295262D01*
X201822Y564491D02*
X295262D01*
X201822Y554491D02*
X295262D01*
X201822Y544491D02*
X295262D01*
X201822Y534491D02*
X295262D01*
X201822D02*
Y714491D01*
X154200Y694491D02*
X201822D01*
X154200Y684491D02*
X201822D01*
X154200Y674491D02*
X201822D01*
X154200Y664491D02*
X201822D01*
X154200Y654491D02*
X201822D01*
X154200Y644491D02*
X201822D01*
X154200Y634491D02*
X201822D01*
X154200Y624491D02*
X201822D01*
X154200Y614491D02*
X201822D01*
X154200Y604491D02*
X201822D01*
X154200Y594491D02*
X201822D01*
X154200Y584491D02*
X201822D01*
X154200Y574491D02*
X201822D01*
X154200Y564491D02*
X201822D01*
X154200Y554491D02*
X201822D01*
X154200Y544491D02*
X201822D01*
X154200Y534491D02*
X201822D01*
X154200D02*
Y714491D01*
X99914Y694491D02*
X154200D01*
X99914Y684491D02*
X154200D01*
X99914Y674491D02*
X154200D01*
X99914Y664491D02*
X154200D01*
X99914Y654491D02*
X154200D01*
X99914Y644491D02*
X154200D01*
X99914Y634491D02*
X154200D01*
X99914Y624491D02*
X154200D01*
X99914Y614491D02*
X154200D01*
X99914Y604491D02*
X154200D01*
X99914Y594491D02*
X154200D01*
X99914Y584491D02*
X154200D01*
X99914Y574491D02*
X154200D01*
X99914Y564491D02*
X154200D01*
X99914Y554491D02*
X154200D01*
X99914Y544491D02*
X154200D01*
X99914Y534491D02*
X154200D01*
X99914D02*
Y714491D01*
X28133Y694491D02*
X99914D01*
X28133Y684491D02*
X99914D01*
X28133Y674491D02*
X99914D01*
X28133Y664491D02*
X99914D01*
X28133Y654491D02*
X99914D01*
X28133Y644491D02*
X99914D01*
X28133Y634491D02*
X99914D01*
X28133Y624491D02*
X99914D01*
X28133Y614491D02*
X99914D01*
X28133Y604491D02*
X99914D01*
X28133Y594491D02*
X99914D01*
X28133Y584491D02*
X99914D01*
X28133Y574491D02*
X99914D01*
X28133Y564491D02*
X99914D01*
X28133Y554491D02*
X99914D01*
X28133Y544491D02*
X99914D01*
X28133Y534491D02*
X99914D01*
X28133D02*
Y714491D01*
X-49479Y694491D02*
X28133D01*
X-49479Y684491D02*
X28133D01*
X-49479Y674491D02*
X28133D01*
X-49479Y664491D02*
X28133D01*
X-49479Y654491D02*
X28133D01*
X-49479Y644491D02*
X28133D01*
X-49479Y634491D02*
X28133D01*
X-49479Y624491D02*
X28133D01*
X-49479Y614491D02*
X28133D01*
X-49479Y604491D02*
X28133D01*
X-49479Y594491D02*
X28133D01*
X-49479Y584491D02*
X28133D01*
X-49479Y574491D02*
X28133D01*
X-49479Y564491D02*
X28133D01*
X-49479Y554491D02*
X28133D01*
X-49479Y544491D02*
X28133D01*
X-49479Y534491D02*
X28133D01*
X-49479D02*
Y714491D01*
X-83772Y694491D02*
X-49479D01*
X-83772Y684491D02*
X-49479D01*
X-83772Y674491D02*
X-49479D01*
X-83772Y664491D02*
X-49479D01*
X-83772Y654491D02*
X-49479D01*
X-83772Y644491D02*
X-49479D01*
X-83772Y634491D02*
X-49479D01*
X-83772Y624491D02*
X-49479D01*
X-83772Y614491D02*
X-49479D01*
X-83772Y604491D02*
X-49479D01*
X-83772Y594491D02*
X-49479D01*
X-83772Y584491D02*
X-49479D01*
X-83772Y574491D02*
X-49479D01*
X-83772Y564491D02*
X-49479D01*
X-83772Y554491D02*
X-49479D01*
X-83772Y544491D02*
X-49479D01*
X-83772Y534491D02*
X-49479D01*
X-83772D02*
Y714491D01*
X295262D01*
X-83772Y704491D02*
X295262D01*
X-80956Y719703D02*
X9533D01*
X-78701Y728052D02*
Y722054D01*
X-74703D01*
X-72703D02*
Y726052D01*
X-70704Y728052D01*
X-68705Y726052D01*
Y722054D01*
Y725053D01*
X-72703D01*
X-66705Y728052D02*
Y727052D01*
X-64706Y725053D01*
X-62707Y727052D01*
Y728052D01*
X-64706Y725053D02*
Y722054D01*
X-56709Y728052D02*
X-60707D01*
Y722054D01*
X-56709D01*
X-60707Y725053D02*
X-58708D01*
X-54709Y722054D02*
Y728052D01*
X-51710D01*
X-50710Y727052D01*
Y725053D01*
X-51710Y724053D01*
X-54709D01*
X-52710D02*
X-50710Y722054D01*
X-38714Y727052D02*
X-39714Y728052D01*
X-41713D01*
X-42713Y727052D01*
Y726052D01*
X-41713Y725053D01*
X-39714D01*
X-38714Y724053D01*
Y723053D01*
X-39714Y722054D01*
X-41713D01*
X-42713Y723053D01*
X-36715Y728052D02*
X-32716D01*
X-34716D01*
Y722054D01*
X-30717D02*
Y726052D01*
X-28718Y728052D01*
X-26718Y726052D01*
Y722054D01*
Y725053D01*
X-30717D01*
X-20720Y727052D02*
X-21720Y728052D01*
X-23719D01*
X-24719Y727052D01*
Y723053D01*
X-23719Y722054D01*
X-21720D01*
X-20720Y723053D01*
X-18721Y728052D02*
Y722054D01*
Y724053D01*
X-14722Y728052D01*
X-17721Y725053D01*
X-14722Y722054D01*
X-12723Y728052D02*
Y723053D01*
X-11723Y722054D01*
X-9724D01*
X-8724Y723053D01*
Y728052D01*
X-6725Y722054D02*
Y728052D01*
X-3726D01*
X-2726Y727052D01*
Y725053D01*
X-3726Y724053D01*
X-6725D01*
X5271Y726052D02*
X6271D01*
Y725053D01*
X5271D01*
Y726052D01*
Y723053D02*
X6271D01*
Y722054D01*
X5271D01*
Y723053D01*
X-116611Y655181D02*
X-110613D01*
Y659180D01*
Y661179D02*
Y663179D01*
Y662179D01*
X-116611D01*
X-115611Y661179D01*
X-113612Y666178D02*
Y670176D01*
X-116611Y672176D02*
X-110613D01*
Y676174D01*
Y682172D02*
Y678174D01*
X-114612Y682172D01*
X-115611D01*
X-116611Y681173D01*
Y679173D01*
X-115611Y678174D01*
X-134771Y606258D02*
X-128773D01*
Y610256D01*
Y612256D02*
Y614255D01*
Y613255D01*
X-134771D01*
X-133771Y612256D01*
X-131772Y617254D02*
Y621253D01*
X-134771Y623252D02*
X-128773D01*
Y627251D01*
X-134771Y633249D02*
X-133771Y631250D01*
X-131772Y629250D01*
X-129772D01*
X-128773Y630250D01*
Y632249D01*
X-129772Y633249D01*
X-130772D01*
X-131772Y632249D01*
Y629250D01*
X-117222Y498508D02*
X-121864D01*
Y491010D01*
X-117222D01*
X-121864Y494937D02*
X-119008D01*
X-115973Y498508D02*
X-110974Y491010D01*
Y498508D02*
X-115973Y491010D01*
X-106796Y498508D02*
Y491010D01*
X-109296Y498508D02*
X-104297D01*
X-98762D02*
X-103404D01*
Y491010D01*
X-98762D01*
X-103404Y494937D02*
X-100548D01*
X-97512Y498508D02*
Y491010D01*
Y498508D02*
X-94299D01*
X-93228Y498151D01*
X-92870Y497794D01*
X-92514Y497080D01*
Y496366D01*
X-92870Y495651D01*
X-93228Y495294D01*
X-94299Y494937D01*
X-97512D01*
X-95013D02*
X-92514Y491010D01*
X-90835Y498508D02*
Y491010D01*
Y498508D02*
X-85836Y491010D01*
Y498508D02*
Y491010D01*
X-78052D02*
X-80909Y498508D01*
X-83765Y491010D01*
X-82694Y493509D02*
X-79124D01*
X-76303Y498508D02*
Y491010D01*
X-72018D01*
X-65305Y498508D02*
Y491010D01*
X-61020D01*
X-54486D02*
X-57342Y498508D01*
X-60199Y491010D01*
X-59128Y493509D02*
X-55557D01*
X-52736Y498508D02*
X-49880Y494937D01*
Y491010D01*
X-47023Y498508D02*
X-49880Y494937D01*
X-41417Y498508D02*
X-46059D01*
Y491010D01*
X-41417D01*
X-46059Y494937D02*
X-43203D01*
X-40167Y498508D02*
Y491010D01*
Y498508D02*
X-36954D01*
X-35883Y498151D01*
X-35526Y497794D01*
X-35169Y497080D01*
Y496366D01*
X-35526Y495651D01*
X-35883Y495294D01*
X-36954Y494937D01*
X-40167D01*
X-37668D02*
X-35169Y491010D01*
X-22243Y496723D02*
X-22600Y497437D01*
X-23314Y498151D01*
X-24028Y498508D01*
X-25456D01*
X-26171Y498151D01*
X-26885Y497437D01*
X-27242Y496723D01*
X-27599Y495651D01*
Y493866D01*
X-27242Y492795D01*
X-26885Y492081D01*
X-26171Y491367D01*
X-25456Y491010D01*
X-24028D01*
X-23314Y491367D01*
X-22600Y492081D01*
X-22243Y492795D01*
X-20136Y498508D02*
Y493152D01*
X-19779Y492081D01*
X-19065Y491367D01*
X-17994Y491010D01*
X-17280D01*
X-16208Y491367D01*
X-15494Y492081D01*
X-15137Y493152D01*
Y498508D01*
X-4675D02*
Y491010D01*
X-7175Y498508D02*
X-2176D01*
X-1283D02*
Y491010D01*
X3716Y498508D02*
Y491010D01*
X-1283Y494937D02*
X3716D01*
X5787Y498508D02*
Y491010D01*
X12714Y496723D02*
X12357Y497437D01*
X11643Y498151D01*
X10929Y498508D01*
X9500D01*
X8786Y498151D01*
X8072Y497437D01*
X7715Y496723D01*
X7358Y495651D01*
Y493866D01*
X7715Y492795D01*
X8072Y492081D01*
X8786Y491367D01*
X9500Y491010D01*
X10929D01*
X11643Y491367D01*
X12357Y492081D01*
X12714Y492795D01*
X14821Y498508D02*
Y491010D01*
X19820Y498508D02*
X14821Y493509D01*
X16606Y495294D02*
X19820Y491010D01*
X21498Y498508D02*
Y491010D01*
Y498508D02*
X26497Y491010D01*
Y498508D02*
Y491010D01*
X33210Y498508D02*
X28568D01*
Y491010D01*
X33210D01*
X28568Y494937D02*
X31424D01*
X39458Y497437D02*
X38744Y498151D01*
X37673Y498508D01*
X36245D01*
X35173Y498151D01*
X34459Y497437D01*
Y496723D01*
X34816Y496008D01*
X35173Y495651D01*
X35888Y495294D01*
X38030Y494580D01*
X38744Y494223D01*
X39101Y493866D01*
X39458Y493152D01*
Y492081D01*
X38744Y491367D01*
X37673Y491010D01*
X36245D01*
X35173Y491367D01*
X34459Y492081D01*
X46135Y497437D02*
X45421Y498151D01*
X44350Y498508D01*
X42922D01*
X41851Y498151D01*
X41136Y497437D01*
Y496723D01*
X41493Y496008D01*
X41851Y495651D01*
X42565Y495294D01*
X44707Y494580D01*
X45421Y494223D01*
X45778Y493866D01*
X46135Y493152D01*
Y492081D01*
X45421Y491367D01*
X44350Y491010D01*
X42922D01*
X41851Y491367D01*
X41136Y492081D01*
X52455Y498508D02*
X47814D01*
Y491010D01*
X52455D01*
X47814Y494937D02*
X50670D01*
X58704Y497437D02*
X57990Y498151D01*
X56919Y498508D01*
X55490D01*
X54419Y498151D01*
X53705Y497437D01*
Y496723D01*
X54062Y496008D01*
X54419Y495651D01*
X55133Y495294D01*
X57276Y494580D01*
X57990Y494223D01*
X58347Y493866D01*
X58704Y493152D01*
Y492081D01*
X57990Y491367D01*
X56919Y491010D01*
X55490D01*
X54419Y491367D01*
X53705Y492081D01*
X71987Y491010D02*
X69130Y498508D01*
X66274Y491010D01*
X67345Y493509D02*
X70916D01*
X73737Y498508D02*
Y491010D01*
Y498508D02*
X76950D01*
X78021Y498151D01*
X78378Y497794D01*
X78736Y497080D01*
Y496366D01*
X78378Y495651D01*
X78021Y495294D01*
X76950Y494937D01*
X73737D01*
X76236D02*
X78736Y491010D01*
X85056Y498508D02*
X80414D01*
Y491010D01*
X85056D01*
X80414Y494937D02*
X83270D01*
X92197Y498508D02*
Y491010D01*
Y498508D02*
X96839D01*
X92197Y494937D02*
X95053D01*
X97696Y498508D02*
Y491010D01*
X99267Y498508D02*
Y491010D01*
Y498508D02*
X104266Y491010D01*
Y498508D02*
Y491010D01*
X106337Y498508D02*
Y491010D01*
X112907Y497437D02*
X112193Y498151D01*
X111121Y498508D01*
X109693D01*
X108622Y498151D01*
X107908Y497437D01*
Y496723D01*
X108265Y496008D01*
X108622Y495651D01*
X109336Y495294D01*
X111478Y494580D01*
X112193Y494223D01*
X112550Y493866D01*
X112907Y493152D01*
Y492081D01*
X112193Y491367D01*
X111121Y491010D01*
X109693D01*
X108622Y491367D01*
X107908Y492081D01*
X114585Y498508D02*
Y491010D01*
X119584Y498508D02*
Y491010D01*
X114585Y494937D02*
X119584D01*
X126297Y498508D02*
X121655D01*
Y491010D01*
X126297D01*
X121655Y494937D02*
X124511D01*
X127547Y498508D02*
Y491010D01*
Y498508D02*
X130046D01*
X131117Y498151D01*
X131831Y497437D01*
X132188Y496723D01*
X132545Y495651D01*
Y493866D01*
X132188Y492795D01*
X131831Y492081D01*
X131117Y491367D01*
X130046Y491010D01*
X127547D01*
X142615Y498508D02*
Y491010D01*
X140115Y498508D02*
X145114D01*
X146007D02*
Y491010D01*
X151006Y498508D02*
Y491010D01*
X146007Y494937D02*
X151006D01*
X153077Y498508D02*
Y491010D01*
X160004Y496723D02*
X159647Y497437D01*
X158933Y498151D01*
X158218Y498508D01*
X156790D01*
X156076Y498151D01*
X155362Y497437D01*
X155005Y496723D01*
X154648Y495651D01*
Y493866D01*
X155005Y492795D01*
X155362Y492081D01*
X156076Y491367D01*
X156790Y491010D01*
X158218D01*
X158933Y491367D01*
X159647Y492081D01*
X160004Y492795D01*
X162110Y498508D02*
Y491010D01*
X167109Y498508D02*
X162110Y493509D01*
X163896Y495294D02*
X167109Y491010D01*
X168788Y498508D02*
Y491010D01*
Y498508D02*
X173786Y491010D01*
Y498508D02*
Y491010D01*
X180499Y498508D02*
X175857D01*
Y491010D01*
X180499D01*
X175857Y494937D02*
X178714D01*
X186748Y497437D02*
X186034Y498151D01*
X184963Y498508D01*
X183534D01*
X182463Y498151D01*
X181749Y497437D01*
Y496723D01*
X182106Y496008D01*
X182463Y495651D01*
X183177Y495294D01*
X185320Y494580D01*
X186034Y494223D01*
X186391Y493866D01*
X186748Y493152D01*
Y492081D01*
X186034Y491367D01*
X184963Y491010D01*
X183534D01*
X182463Y491367D01*
X181749Y492081D01*
X193425Y497437D02*
X192711Y498151D01*
X191640Y498508D01*
X190212D01*
X189140Y498151D01*
X188426Y497437D01*
Y496723D01*
X188783Y496008D01*
X189140Y495651D01*
X189855Y495294D01*
X191997Y494580D01*
X192711Y494223D01*
X193068Y493866D01*
X193425Y493152D01*
Y492081D01*
X192711Y491367D01*
X191640Y491010D01*
X190212D01*
X189140Y491367D01*
X188426Y492081D01*
X206708Y491010D02*
X203852Y498508D01*
X200995Y491010D01*
X202066Y493509D02*
X205637D01*
X208458Y498508D02*
Y491010D01*
Y498508D02*
X213100D01*
X208458Y494937D02*
X211314D01*
X216456Y498508D02*
Y491010D01*
X213956Y498508D02*
X218955D01*
X224490D02*
X219848D01*
Y491010D01*
X224490D01*
X219848Y494937D02*
X222705D01*
X225740Y498508D02*
Y491010D01*
Y498508D02*
X228953D01*
X230025Y498151D01*
X230381Y497794D01*
X230739Y497080D01*
Y496366D01*
X230381Y495651D01*
X230025Y495294D01*
X228953Y494937D01*
X225740D01*
X228239D02*
X230739Y491010D01*
X238308Y494580D02*
X241522D01*
X242593Y494937D01*
X242950Y495294D01*
X243307Y496008D01*
Y497080D01*
X242950Y497794D01*
X242593Y498151D01*
X241522Y498508D01*
X238308D01*
Y491010D01*
X244986Y498508D02*
Y491010D01*
X249270D01*
X255805D02*
X252948Y498508D01*
X250092Y491010D01*
X251163Y493509D02*
X254733D01*
X260054Y498508D02*
Y491010D01*
X257554Y498508D02*
X262553D01*
X263446D02*
Y491010D01*
X265017Y498508D02*
Y491010D01*
Y498508D02*
X270016Y491010D01*
Y498508D02*
Y491010D01*
X277443Y496723D02*
X277086Y497437D01*
X276372Y498151D01*
X275658Y498508D01*
X274229D01*
X273515Y498151D01*
X272801Y497437D01*
X272444Y496723D01*
X272087Y495651D01*
Y493866D01*
X272444Y492795D01*
X272801Y492081D01*
X273515Y491367D01*
X274229Y491010D01*
X275658D01*
X276372Y491367D01*
X277086Y492081D01*
X277443Y492795D01*
Y493866D01*
X275658D02*
X277443D01*
X279514Y491724D02*
X279157Y491367D01*
X279514Y491010D01*
X279871Y491367D01*
X279514Y491724D01*
X-11310Y527503D02*
Y520005D01*
X-13810Y527503D02*
X-8811D01*
X-7918D02*
Y520005D01*
X-2919Y527503D02*
Y520005D01*
X-7918Y523932D02*
X-2919D01*
X-848Y527503D02*
Y520005D01*
X5722Y526432D02*
X5008Y527146D01*
X3936Y527503D01*
X2508D01*
X1437Y527146D01*
X723Y526432D01*
Y525718D01*
X1080Y525003D01*
X1437Y524646D01*
X2151Y524289D01*
X4293Y523575D01*
X5008Y523218D01*
X5365Y522861D01*
X5722Y522147D01*
Y521076D01*
X5008Y520362D01*
X3936Y520005D01*
X2508D01*
X1437Y520362D01*
X723Y521076D01*
X13292Y527503D02*
Y520005D01*
X19861Y526432D02*
X19147Y527146D01*
X18076Y527503D01*
X16648D01*
X15577Y527146D01*
X14863Y526432D01*
Y525718D01*
X15220Y525003D01*
X15577Y524646D01*
X16291Y524289D01*
X18433Y523575D01*
X19147Y523218D01*
X19504Y522861D01*
X19861Y522147D01*
Y521076D01*
X19147Y520362D01*
X18076Y520005D01*
X16648D01*
X15577Y520362D01*
X14863Y521076D01*
X33144Y520005D02*
X30288Y527503D01*
X27431Y520005D01*
X28503Y522504D02*
X32073D01*
X34894Y527503D02*
Y520005D01*
Y527503D02*
X39893Y520005D01*
Y527503D02*
Y520005D01*
X47855Y527503D02*
Y520005D01*
X49427Y527503D02*
Y520005D01*
Y527503D02*
X52283Y520005D01*
X55140Y527503D02*
X52283Y520005D01*
X55140Y527503D02*
Y520005D01*
X57282Y523575D02*
X60496D01*
X61567Y523932D01*
X61924Y524289D01*
X62281Y525003D01*
Y526075D01*
X61924Y526789D01*
X61567Y527146D01*
X60496Y527503D01*
X57282D01*
Y520005D01*
X68601Y527503D02*
X63959D01*
Y520005D01*
X68601D01*
X63959Y523932D02*
X66816D01*
X69851Y527503D02*
Y520005D01*
Y527503D02*
X72350D01*
X73422Y527146D01*
X74136Y526432D01*
X74493Y525718D01*
X74850Y524646D01*
Y522861D01*
X74493Y521790D01*
X74136Y521076D01*
X73422Y520362D01*
X72350Y520005D01*
X69851D01*
X82241D02*
X79384Y527503D01*
X76528Y520005D01*
X77599Y522504D02*
X81170D01*
X83991Y527503D02*
Y520005D01*
Y527503D02*
X88990Y520005D01*
Y527503D02*
Y520005D01*
X96416Y525718D02*
X96060Y526432D01*
X95345Y527146D01*
X94631Y527503D01*
X93203D01*
X92489Y527146D01*
X91775Y526432D01*
X91418Y525718D01*
X91061Y524646D01*
Y522861D01*
X91418Y521790D01*
X91775Y521076D01*
X92489Y520362D01*
X93203Y520005D01*
X94631D01*
X95345Y520362D01*
X96060Y521076D01*
X96416Y521790D01*
X103165Y527503D02*
X98523D01*
Y520005D01*
X103165D01*
X98523Y523932D02*
X101380D01*
X115662Y525718D02*
X115305Y526432D01*
X114591Y527146D01*
X113877Y527503D01*
X112449D01*
X111735Y527146D01*
X111021Y526432D01*
X110663Y525718D01*
X110306Y524646D01*
Y522861D01*
X110663Y521790D01*
X111021Y521076D01*
X111735Y520362D01*
X112449Y520005D01*
X113877D01*
X114591Y520362D01*
X115305Y521076D01*
X115662Y521790D01*
X119912Y527503D02*
X119197Y527146D01*
X118483Y526432D01*
X118126Y525718D01*
X117769Y524646D01*
Y522861D01*
X118126Y521790D01*
X118483Y521076D01*
X119197Y520362D01*
X119912Y520005D01*
X121340D01*
X122054Y520362D01*
X122768Y521076D01*
X123125Y521790D01*
X123482Y522861D01*
Y524646D01*
X123125Y525718D01*
X122768Y526432D01*
X122054Y527146D01*
X121340Y527503D01*
X119912D01*
X125232D02*
Y520005D01*
Y527503D02*
X130231Y520005D01*
Y527503D02*
Y520005D01*
X134801Y527503D02*
Y520005D01*
X132302Y527503D02*
X137301D01*
X138193D02*
Y520005D01*
Y527503D02*
X141407D01*
X142478Y527146D01*
X142835Y526789D01*
X143192Y526075D01*
Y525360D01*
X142835Y524646D01*
X142478Y524289D01*
X141407Y523932D01*
X138193D01*
X140693D02*
X143192Y520005D01*
X147013Y527503D02*
X146299Y527146D01*
X145585Y526432D01*
X145228Y525718D01*
X144870Y524646D01*
Y522861D01*
X145228Y521790D01*
X145585Y521076D01*
X146299Y520362D01*
X147013Y520005D01*
X148441D01*
X149155Y520362D01*
X149869Y521076D01*
X150226Y521790D01*
X150584Y522861D01*
Y524646D01*
X150226Y525718D01*
X149869Y526432D01*
X149155Y527146D01*
X148441Y527503D01*
X147013D01*
X152333D02*
Y520005D01*
X156618D01*
X157439Y527503D02*
Y520005D01*
X161724D01*
X167187Y527503D02*
X162545D01*
Y520005D01*
X167187D01*
X162545Y523932D02*
X165402D01*
X168437Y527503D02*
Y520005D01*
Y527503D02*
X170936D01*
X172008Y527146D01*
X172722Y526432D01*
X173079Y525718D01*
X173436Y524646D01*
Y522861D01*
X173079Y521790D01*
X172722Y521076D01*
X172008Y520362D01*
X170936Y520005D01*
X168437D01*
X181006Y527503D02*
Y520005D01*
Y527503D02*
X184219D01*
X185290Y527146D01*
X185647Y526789D01*
X186004Y526075D01*
Y525360D01*
X185647Y524646D01*
X185290Y524289D01*
X184219Y523932D01*
X181006D02*
X184219D01*
X185290Y523575D01*
X185647Y523218D01*
X186004Y522504D01*
Y521433D01*
X185647Y520719D01*
X185290Y520362D01*
X184219Y520005D01*
X181006D01*
X189825Y527503D02*
X189111Y527146D01*
X188397Y526432D01*
X188040Y525718D01*
X187683Y524646D01*
Y522861D01*
X188040Y521790D01*
X188397Y521076D01*
X189111Y520362D01*
X189825Y520005D01*
X191253D01*
X191967Y520362D01*
X192682Y521076D01*
X193039Y521790D01*
X193396Y522861D01*
Y524646D01*
X193039Y525718D01*
X192682Y526432D01*
X191967Y527146D01*
X191253Y527503D01*
X189825D01*
X200858Y520005D02*
X198002Y527503D01*
X195145Y520005D01*
X196217Y522504D02*
X199787D01*
X202608Y527503D02*
Y520005D01*
Y527503D02*
X205822D01*
X206893Y527146D01*
X207250Y526789D01*
X207607Y526075D01*
Y525360D01*
X207250Y524646D01*
X206893Y524289D01*
X205822Y523932D01*
X202608D01*
X205107D02*
X207607Y520005D01*
X209285Y527503D02*
Y520005D01*
Y527503D02*
X211785D01*
X212856Y527146D01*
X213570Y526432D01*
X213927Y525718D01*
X214284Y524646D01*
Y522861D01*
X213927Y521790D01*
X213570Y521076D01*
X212856Y520362D01*
X211785Y520005D01*
X209285D01*
X216319Y520719D02*
X215962Y520362D01*
X216319Y520005D01*
X216676Y520362D01*
X216319Y520719D01*
X-129253Y515303D02*
Y507805D01*
Y515303D02*
X-124254Y507805D01*
Y515303D02*
Y507805D01*
X-120041Y515303D02*
X-120755Y514946D01*
X-121469Y514232D01*
X-121826Y513518D01*
X-122183Y512447D01*
Y510662D01*
X-121826Y509590D01*
X-121469Y508876D01*
X-120755Y508162D01*
X-120041Y507805D01*
X-118612D01*
X-117898Y508162D01*
X-117184Y508876D01*
X-116827Y509590D01*
X-116470Y510662D01*
Y512447D01*
X-116827Y513518D01*
X-117184Y514232D01*
X-117898Y514946D01*
X-118612Y515303D01*
X-120041D01*
X-112221D02*
Y507805D01*
X-114720Y515303D02*
X-109721D01*
X-104187D02*
X-108829D01*
Y507805D01*
X-104187D01*
X-108829Y511733D02*
X-105972D01*
X-96688Y512804D02*
X-97045Y512447D01*
X-96688Y512090D01*
X-96331Y512447D01*
X-96688Y512804D01*
Y508519D02*
X-97045Y508162D01*
X-96688Y507805D01*
X-96331Y508162D01*
X-96688Y508519D01*
X-90079Y682480D02*
X-94077D01*
Y679481D01*
X-92078Y680481D01*
X-91078D01*
X-90079Y679481D01*
Y677482D01*
X-91078Y676482D01*
X-93078D01*
X-94077Y677482D01*
X347687Y661460D02*
X343022D01*
Y657961D01*
X345354Y659128D01*
X346520D01*
X347687Y657961D01*
Y655629D01*
X346520Y654462D01*
X344188D01*
X343022Y655629D01*
X380200Y-174000D02*
Y-153717D01*
X261300Y-173350D02*
X521000D01*
Y-112350D01*
X107300Y-173350D02*
Y-112350D01*
X-139200Y-173350D02*
Y-112350D01*
X-139150Y-173350D02*
X18400D01*
X-139150D02*
Y-112350D01*
Y-112350D02*
X521000D01*
X-139200Y-173350D02*
X261300D01*
X-139200Y-153017D02*
X520800D01*
X-139200Y-132683D02*
X521000D01*
X234000D02*
Y-112350D01*
X318000Y-132683D02*
Y-112350D01*
G54D71*
X852058Y554593D02*
Y646030D01*
X355051Y554606D02*
X852058D01*
X355051D02*
Y646030D01*
X421491Y554751D02*
Y643751D01*
X529597Y554657D02*
Y645974D01*
X583087Y554645D02*
Y643645D01*
X355051Y646030D02*
X852058D01*
X355051Y613606D02*
X852058D01*
X355051Y584106D02*
X852058D01*
X421491Y554751D02*
Y646067D01*
X583087Y554645D02*
Y645961D01*
X636578Y554632D02*
Y645948D01*
X756994Y554504D02*
Y645820D01*
G54D74*
X206822Y711990D02*
Y706991D01*
X209321D01*
X210154Y707824D01*
Y708657D01*
X209321Y709490D01*
X206822D01*
X209321D01*
X210154Y710323D01*
Y711157D01*
X209321Y711990D01*
X206822D01*
X212653Y706991D02*
X214319D01*
X215152Y707824D01*
Y709490D01*
X214319Y710323D01*
X212653D01*
X211820Y709490D01*
Y707824D01*
X212653Y706991D01*
X217652Y710323D02*
X219318D01*
X220151Y709490D01*
Y706991D01*
X217652D01*
X216818Y707824D01*
X217652Y708657D01*
X220151D01*
X221817Y710323D02*
Y706991D01*
Y708657D01*
X222650Y709490D01*
X223483Y710323D01*
X224316D01*
X230148Y711990D02*
Y706991D01*
X227648D01*
X226815Y707824D01*
Y709490D01*
X227648Y710323D01*
X230148D01*
X236812Y711990D02*
Y706991D01*
X240144D01*
X242643Y710323D02*
X244310D01*
X245143Y709490D01*
Y706991D01*
X242643D01*
X241810Y707824D01*
X242643Y708657D01*
X245143D01*
X246809Y710323D02*
Y707824D01*
X247642Y706991D01*
X250141D01*
Y706158D01*
X249308Y705325D01*
X248475D01*
X250141Y706991D02*
Y710323D01*
X254306Y706991D02*
X252640D01*
X251807Y707824D01*
Y709490D01*
X252640Y710323D01*
X254306D01*
X255139Y709490D01*
Y708657D01*
X251807D01*
X256806Y710323D02*
Y706991D01*
Y708657D01*
X257639Y709490D01*
X258472Y710323D01*
X259305D01*
X270135Y711157D02*
X269302Y711990D01*
X267635D01*
X266802Y711157D01*
Y710323D01*
X267635Y709490D01*
X269302D01*
X270135Y708657D01*
Y707824D01*
X269302Y706991D01*
X267635D01*
X266802Y707824D01*
X272634Y711157D02*
Y710323D01*
X271801D01*
X273467D01*
X272634D01*
Y707824D01*
X273467Y706991D01*
X276799Y710323D02*
X278465D01*
X279298Y709490D01*
Y706991D01*
X276799D01*
X275966Y707824D01*
X276799Y708657D01*
X279298D01*
X284297Y710323D02*
X281798D01*
X280964Y709490D01*
Y707824D01*
X281798Y706991D01*
X284297D01*
X285963D02*
Y711990D01*
Y708657D02*
X288462Y710323D01*
X285963Y708657D02*
X288462Y706991D01*
X159200Y691156D02*
X160033Y691990D01*
X161699D01*
X162532Y691156D01*
Y690323D01*
X161699Y689490D01*
X160866D01*
X161699D01*
X162532Y688657D01*
Y687824D01*
X161699Y686991D01*
X160033D01*
X159200Y687824D01*
X164198Y686991D02*
Y687824D01*
X165032D01*
Y686991D01*
X164198D01*
X171696Y691990D02*
X168364D01*
Y689490D01*
X170030Y690323D01*
X170863D01*
X171696Y689490D01*
Y687824D01*
X170863Y686991D01*
X169197D01*
X168364Y687824D01*
X159200Y671157D02*
X160033Y671990D01*
X161699D01*
X162532Y671157D01*
Y670324D01*
X161699Y669490D01*
X160866D01*
X161699D01*
X162532Y668657D01*
Y667824D01*
X161699Y666991D01*
X160033D01*
X159200Y667824D01*
X164198Y666991D02*
Y667824D01*
X165032D01*
Y666991D01*
X164198D01*
X171696Y671990D02*
X170030Y671157D01*
X168364Y669490D01*
Y667824D01*
X169197Y666991D01*
X170863D01*
X171696Y667824D01*
Y668657D01*
X170863Y669490D01*
X168364D01*
X176694Y671990D02*
X175028Y671157D01*
X173362Y669490D01*
Y667824D01*
X174195Y666991D01*
X175861D01*
X176694Y667824D01*
Y668657D01*
X175861Y669490D01*
X173362D01*
X159200Y651157D02*
X160033Y651990D01*
X161699D01*
X162532Y651157D01*
Y650323D01*
X161699Y649490D01*
X160866D01*
X161699D01*
X162532Y648657D01*
Y647824D01*
X161699Y646991D01*
X160033D01*
X159200Y647824D01*
X164198Y646991D02*
Y647824D01*
X165032D01*
Y646991D01*
X164198D01*
X168364Y647824D02*
X169197Y646991D01*
X170863D01*
X171696Y647824D01*
Y651157D01*
X170863Y651990D01*
X169197D01*
X168364Y651157D01*
Y650323D01*
X169197Y649490D01*
X171696D01*
X159200Y641156D02*
X160033Y641990D01*
X161699D01*
X162532Y641156D01*
Y640323D01*
X161699Y639490D01*
X160866D01*
X161699D01*
X162532Y638657D01*
Y637824D01*
X161699Y636991D01*
X160033D01*
X159200Y637824D01*
X164198Y636991D02*
Y637824D01*
X165032D01*
Y636991D01*
X164198D01*
X168364Y637824D02*
X169197Y636991D01*
X170863D01*
X171696Y637824D01*
Y641156D01*
X170863Y641990D01*
X169197D01*
X168364Y641156D01*
Y640323D01*
X169197Y639490D01*
X171696D01*
X161699Y616991D02*
Y621990D01*
X159200Y619490D01*
X162532D01*
X164198Y616991D02*
Y617824D01*
X165032D01*
Y616991D01*
X164198D01*
X168364Y621157D02*
X169197Y621990D01*
X170863D01*
X171696Y621157D01*
Y620324D01*
X170863Y619490D01*
X170030D01*
X170863D01*
X171696Y618657D01*
Y617824D01*
X170863Y616991D01*
X169197D01*
X168364Y617824D01*
X176694Y621990D02*
X175028Y621157D01*
X173362Y619490D01*
Y617824D01*
X174195Y616991D01*
X175861D01*
X176694Y617824D01*
Y618657D01*
X175861Y619490D01*
X173362D01*
X159200Y601157D02*
X160033Y601990D01*
X161699D01*
X162532Y601157D01*
Y600323D01*
X161699Y599490D01*
X160866D01*
X161699D01*
X162532Y598657D01*
Y597824D01*
X161699Y596991D01*
X160033D01*
X159200Y597824D01*
X164198Y596991D02*
Y597824D01*
X165032D01*
Y596991D01*
X164198D01*
X168364Y597824D02*
X169197Y596991D01*
X170863D01*
X171696Y597824D01*
Y601157D01*
X170863Y601990D01*
X169197D01*
X168364Y601157D01*
Y600323D01*
X169197Y599490D01*
X171696D01*
X159200Y591156D02*
X160033Y591990D01*
X161699D01*
X162532Y591156D01*
Y590323D01*
X161699Y589490D01*
X160866D01*
X161699D01*
X162532Y588657D01*
Y587824D01*
X161699Y586991D01*
X160033D01*
X159200Y587824D01*
X164198Y586991D02*
Y587824D01*
X165032D01*
Y586991D01*
X164198D01*
X168364Y587824D02*
X169197Y586991D01*
X170863D01*
X171696Y587824D01*
Y591156D01*
X170863Y591990D01*
X169197D01*
X168364Y591156D01*
Y590323D01*
X169197Y589490D01*
X171696D01*
X161699Y566991D02*
Y571990D01*
X159200Y569490D01*
X162532D01*
X164198Y566991D02*
Y567824D01*
X165032D01*
Y566991D01*
X164198D01*
X171696D02*
X168364D01*
X171696Y570324D01*
Y571157D01*
X170863Y571990D01*
X169197D01*
X168364Y571157D01*
X176694Y571990D02*
X175028Y571157D01*
X173362Y569490D01*
Y567824D01*
X174195Y566991D01*
X175861D01*
X176694Y567824D01*
Y568657D01*
X175861Y569490D01*
X173362D01*
X159200Y551157D02*
X160033Y551990D01*
X161699D01*
X162532Y551157D01*
Y550323D01*
X161699Y549490D01*
X160866D01*
X161699D01*
X162532Y548657D01*
Y547824D01*
X161699Y546991D01*
X160033D01*
X159200Y547824D01*
X164198Y546991D02*
Y547824D01*
X165032D01*
Y546991D01*
X164198D01*
X171696Y551990D02*
X168364D01*
Y549490D01*
X170030Y550323D01*
X170863D01*
X171696Y549490D01*
Y547824D01*
X170863Y546991D01*
X169197D01*
X168364Y547824D01*
X162532Y711157D02*
X161699Y711990D01*
X160033D01*
X159200Y711157D01*
Y707824D01*
X160033Y706991D01*
X161699D01*
X162532Y707824D01*
X165032Y706991D02*
X166698D01*
X167531Y707824D01*
Y709490D01*
X166698Y710323D01*
X165032D01*
X164198Y709490D01*
Y707824D01*
X165032Y706991D01*
X169197D02*
Y710323D01*
X171696D01*
X172529Y709490D01*
Y706991D01*
X174195D02*
X176694D01*
X177527Y707824D01*
X176694Y708657D01*
X175028D01*
X174195Y709490D01*
X175028Y710323D01*
X177527D01*
X180027Y711157D02*
Y710323D01*
X179194D01*
X180860D01*
X180027D01*
Y707824D01*
X180860Y706991D01*
X184192Y710323D02*
X185858D01*
X186691Y709490D01*
Y706991D01*
X184192D01*
X183359Y707824D01*
X184192Y708657D01*
X186691D01*
X188357Y706991D02*
Y710323D01*
X190856D01*
X191690Y709490D01*
Y706991D01*
X194189Y711157D02*
Y710323D01*
X193356D01*
X195022D01*
X194189D01*
Y707824D01*
X195022Y706991D01*
X104914Y691156D02*
X105747Y691990D01*
X107413D01*
X108246Y691156D01*
Y687824D01*
X107413Y686991D01*
X105747D01*
X104914Y687824D01*
Y691156D01*
X109912Y686991D02*
Y687824D01*
X110745D01*
Y686991D01*
X109912D01*
X114077Y691156D02*
X114911Y691990D01*
X116577D01*
X117410Y691156D01*
Y690323D01*
X116577Y689490D01*
X117410Y688657D01*
Y687824D01*
X116577Y686991D01*
X114911D01*
X114077Y687824D01*
Y688657D01*
X114911Y689490D01*
X114077Y690323D01*
Y691156D01*
X114911Y689490D02*
X116577D01*
X119076Y691156D02*
X119909Y691990D01*
X121575D01*
X122408Y691156D01*
Y687824D01*
X121575Y686991D01*
X119909D01*
X119076Y687824D01*
Y691156D01*
X124074Y686991D02*
Y690323D01*
X124907D01*
X125740Y689490D01*
Y686991D01*
Y689490D01*
X126574Y690323D01*
X127407Y689490D01*
Y686991D01*
X129073D02*
X130739D01*
X129906D01*
Y690323D01*
X129073D01*
X133238Y686991D02*
X134904D01*
X134071D01*
Y691990D01*
X133238D01*
X104914Y676991D02*
X106580D01*
X105747D01*
Y681990D01*
X104914Y681156D01*
X109079Y676991D02*
Y677824D01*
X109912D01*
Y676991D01*
X109079D01*
X116577Y681990D02*
X114911Y681156D01*
X113244Y679490D01*
Y677824D01*
X114077Y676991D01*
X115744D01*
X116577Y677824D01*
Y678657D01*
X115744Y679490D01*
X113244D01*
X118243Y681156D02*
X119076Y681990D01*
X120742D01*
X121575Y681156D01*
Y677824D01*
X120742Y676991D01*
X119076D01*
X118243Y677824D01*
Y681156D01*
X123241Y676991D02*
Y680324D01*
X124074D01*
X124907Y679490D01*
Y676991D01*
Y679490D01*
X125740Y680324D01*
X126574Y679490D01*
Y676991D01*
X128240D02*
X129906D01*
X129073D01*
Y680324D01*
X128240D01*
X132405Y676991D02*
X134071D01*
X133238D01*
Y681990D01*
X132405D01*
X107413Y666991D02*
Y671990D01*
X104914Y669490D01*
X108246D01*
X109912Y666991D02*
Y667824D01*
X110745D01*
Y666991D01*
X109912D01*
X114077Y671157D02*
X114911Y671990D01*
X116577D01*
X117410Y671157D01*
Y667824D01*
X116577Y666991D01*
X114911D01*
X114077Y667824D01*
Y671157D01*
X119076D02*
X119909Y671990D01*
X121575D01*
X122408Y671157D01*
Y667824D01*
X121575Y666991D01*
X119909D01*
X119076Y667824D01*
Y671157D01*
X124074Y666991D02*
Y670324D01*
X124907D01*
X125740Y669490D01*
Y666991D01*
Y669490D01*
X126574Y670324D01*
X127407Y669490D01*
Y666991D01*
X129073D02*
X130739D01*
X129906D01*
Y670324D01*
X129073D01*
X133238Y666991D02*
X134904D01*
X134071D01*
Y671990D01*
X133238D01*
X104914Y656991D02*
X106580D01*
X105747D01*
Y661990D01*
X104914Y661157D01*
X109079Y656991D02*
Y657824D01*
X109912D01*
Y656991D01*
X109079D01*
X116577D02*
X113244D01*
X116577Y660323D01*
Y661157D01*
X115744Y661990D01*
X114077D01*
X113244Y661157D01*
X118243D02*
X119076Y661990D01*
X120742D01*
X121575Y661157D01*
Y657824D01*
X120742Y656991D01*
X119076D01*
X118243Y657824D01*
Y661157D01*
X123241Y656991D02*
Y660323D01*
X124074D01*
X124907Y659490D01*
Y656991D01*
Y659490D01*
X125740Y660323D01*
X126574Y659490D01*
Y656991D01*
X128240D02*
X129906D01*
X129073D01*
Y660323D01*
X128240D01*
X132405Y656991D02*
X134071D01*
X133238D01*
Y661990D01*
X132405D01*
X108246Y646991D02*
X104914D01*
X108246Y650323D01*
Y651157D01*
X107413Y651990D01*
X105747D01*
X104914Y651157D01*
X109912Y646991D02*
Y647824D01*
X110745D01*
Y646991D01*
X109912D01*
X114077Y651157D02*
X114911Y651990D01*
X116577D01*
X117410Y651157D01*
Y650323D01*
X116577Y649490D01*
X117410Y648657D01*
Y647824D01*
X116577Y646991D01*
X114911D01*
X114077Y647824D01*
Y648657D01*
X114911Y649490D01*
X114077Y650323D01*
Y651157D01*
X114911Y649490D02*
X116577D01*
X122408Y651990D02*
X119076D01*
Y649490D01*
X120742Y650323D01*
X121575D01*
X122408Y649490D01*
Y647824D01*
X121575Y646991D01*
X119909D01*
X119076Y647824D01*
X124074Y646991D02*
Y650323D01*
X124907D01*
X125740Y649490D01*
Y646991D01*
Y649490D01*
X126574Y650323D01*
X127407Y649490D01*
Y646991D01*
X129073D02*
X130739D01*
X129906D01*
Y650323D01*
X129073D01*
X133238Y646991D02*
X134904D01*
X134071D01*
Y651990D01*
X133238D01*
X108246Y636991D02*
X104914D01*
X108246Y640323D01*
Y641156D01*
X107413Y641990D01*
X105747D01*
X104914Y641156D01*
X109912Y636991D02*
Y637824D01*
X110745D01*
Y636991D01*
X109912D01*
X114077Y641156D02*
X114911Y641990D01*
X116577D01*
X117410Y641156D01*
Y640323D01*
X116577Y639490D01*
X117410Y638657D01*
Y637824D01*
X116577Y636991D01*
X114911D01*
X114077Y637824D01*
Y638657D01*
X114911Y639490D01*
X114077Y640323D01*
Y641156D01*
X114911Y639490D02*
X116577D01*
X122408Y641990D02*
X119076D01*
Y639490D01*
X120742Y640323D01*
X121575D01*
X122408Y639490D01*
Y637824D01*
X121575Y636991D01*
X119909D01*
X119076Y637824D01*
X124074Y636991D02*
Y640323D01*
X124907D01*
X125740Y639490D01*
Y636991D01*
Y639490D01*
X126574Y640323D01*
X127407Y639490D01*
Y636991D01*
X129073D02*
X130739D01*
X129906D01*
Y640323D01*
X129073D01*
X133238Y636991D02*
X134904D01*
X134071D01*
Y641990D01*
X133238D01*
X104914Y626991D02*
X106580D01*
X105747D01*
Y631990D01*
X104914Y631156D01*
X109079Y626991D02*
Y627824D01*
X109912D01*
Y626991D01*
X109079D01*
X116577D02*
X113244D01*
X116577Y630324D01*
Y631156D01*
X115744Y631990D01*
X114077D01*
X113244Y631156D01*
X118243D02*
X119076Y631990D01*
X120742D01*
X121575Y631156D01*
Y627824D01*
X120742Y626991D01*
X119076D01*
X118243Y627824D01*
Y631156D01*
X123241Y626991D02*
Y630324D01*
X124074D01*
X124907Y629490D01*
Y626991D01*
Y629490D01*
X125740Y630324D01*
X126574Y629490D01*
Y626991D01*
X128240D02*
X129906D01*
X129073D01*
Y630324D01*
X128240D01*
X132405Y626991D02*
X134071D01*
X133238D01*
Y631990D01*
X132405D01*
X108246Y616991D02*
X104914D01*
X108246Y620324D01*
Y621157D01*
X107413Y621990D01*
X105747D01*
X104914Y621157D01*
X109912D02*
X110745Y621990D01*
X112411D01*
X113244Y621157D01*
Y620324D01*
X112411Y619490D01*
X113244Y618657D01*
Y617824D01*
X112411Y616991D01*
X110745D01*
X109912Y617824D01*
Y618657D01*
X110745Y619490D01*
X109912Y620324D01*
Y621157D01*
X110745Y619490D02*
X112411D01*
X114911Y616991D02*
Y617824D01*
X115744D01*
Y616991D01*
X114911D01*
X119076Y621157D02*
X119909Y621990D01*
X121575D01*
X122408Y621157D01*
Y617824D01*
X121575Y616991D01*
X119909D01*
X119076Y617824D01*
Y621157D01*
X124074D02*
X124907Y621990D01*
X126574D01*
X127407Y621157D01*
Y617824D01*
X126574Y616991D01*
X124907D01*
X124074Y617824D01*
Y621157D01*
X129073Y616991D02*
Y620324D01*
X129906D01*
X130739Y619490D01*
Y616991D01*
Y619490D01*
X131572Y620324D01*
X132405Y619490D01*
Y616991D01*
X134071D02*
X135737D01*
X134904D01*
Y620324D01*
X134071D01*
X138236Y616991D02*
X139902D01*
X139069D01*
Y621990D01*
X138236D01*
X104914Y606991D02*
X106580D01*
X105747D01*
Y611990D01*
X104914Y611157D01*
X109079Y606991D02*
Y607824D01*
X109912D01*
Y606991D01*
X109079D01*
X116577D02*
X113244D01*
X116577Y610323D01*
Y611157D01*
X115744Y611990D01*
X114077D01*
X113244Y611157D01*
X118243D02*
X119076Y611990D01*
X120742D01*
X121575Y611157D01*
Y607824D01*
X120742Y606991D01*
X119076D01*
X118243Y607824D01*
Y611157D01*
X123241Y606991D02*
Y610323D01*
X124074D01*
X124907Y609490D01*
Y606991D01*
Y609490D01*
X125740Y610323D01*
X126574Y609490D01*
Y606991D01*
X128240D02*
X129906D01*
X129073D01*
Y610323D01*
X128240D01*
X132405Y606991D02*
X134071D01*
X133238D01*
Y611990D01*
X132405D01*
X108246Y596991D02*
X104914D01*
X108246Y600323D01*
Y601157D01*
X107413Y601990D01*
X105747D01*
X104914Y601157D01*
X109912Y596991D02*
Y597824D01*
X110745D01*
Y596991D01*
X109912D01*
X114077Y597824D02*
X114911Y596991D01*
X116577D01*
X117410Y597824D01*
Y601157D01*
X116577Y601990D01*
X114911D01*
X114077Y601157D01*
Y600323D01*
X114911Y599490D01*
X117410D01*
X122408Y596991D02*
X119076D01*
X122408Y600323D01*
Y601157D01*
X121575Y601990D01*
X119909D01*
X119076Y601157D01*
X124074Y596991D02*
Y600323D01*
X124907D01*
X125740Y599490D01*
Y596991D01*
Y599490D01*
X126574Y600323D01*
X127407Y599490D01*
Y596991D01*
X129073D02*
X130739D01*
X129906D01*
Y600323D01*
X129073D01*
X133238Y596991D02*
X134904D01*
X134071D01*
Y601990D01*
X133238D01*
X108246Y586991D02*
X104914D01*
X108246Y590323D01*
Y591156D01*
X107413Y591990D01*
X105747D01*
X104914Y591156D01*
X109912Y586991D02*
Y587824D01*
X110745D01*
Y586991D01*
X109912D01*
X114077Y587824D02*
X114911Y586991D01*
X116577D01*
X117410Y587824D01*
Y591156D01*
X116577Y591990D01*
X114911D01*
X114077Y591156D01*
Y590323D01*
X114911Y589490D01*
X117410D01*
X122408Y586991D02*
X119076D01*
X122408Y590323D01*
Y591156D01*
X121575Y591990D01*
X119909D01*
X119076Y591156D01*
X124074Y586991D02*
Y590323D01*
X124907D01*
X125740Y589490D01*
Y586991D01*
Y589490D01*
X126574Y590323D01*
X127407Y589490D01*
Y586991D01*
X129073D02*
X130739D01*
X129906D01*
Y590323D01*
X129073D01*
X133238Y586991D02*
X134904D01*
X134071D01*
Y591990D01*
X133238D01*
X104914Y576991D02*
X106580D01*
X105747D01*
Y581990D01*
X104914Y581156D01*
X109079Y576991D02*
Y577824D01*
X109912D01*
Y576991D01*
X109079D01*
X116577D02*
X113244D01*
X116577Y580324D01*
Y581156D01*
X115744Y581990D01*
X114077D01*
X113244Y581156D01*
X118243D02*
X119076Y581990D01*
X120742D01*
X121575Y581156D01*
Y577824D01*
X120742Y576991D01*
X119076D01*
X118243Y577824D01*
Y581156D01*
X123241Y576991D02*
Y580324D01*
X124074D01*
X124907Y579490D01*
Y576991D01*
Y579490D01*
X125740Y580324D01*
X126574Y579490D01*
Y576991D01*
X128240D02*
X129906D01*
X129073D01*
Y580324D01*
X128240D01*
X132405Y576991D02*
X134071D01*
X133238D01*
Y581990D01*
X132405D01*
X107413Y566991D02*
Y571990D01*
X104914Y569490D01*
X108246D01*
X109912Y566991D02*
Y567824D01*
X110745D01*
Y566991D01*
X109912D01*
X114077Y571157D02*
X114911Y571990D01*
X116577D01*
X117410Y571157D01*
Y567824D01*
X116577Y566991D01*
X114911D01*
X114077Y567824D01*
Y571157D01*
X119076D02*
X119909Y571990D01*
X121575D01*
X122408Y571157D01*
Y567824D01*
X121575Y566991D01*
X119909D01*
X119076Y567824D01*
Y571157D01*
X124074Y566991D02*
Y570324D01*
X124907D01*
X125740Y569490D01*
Y566991D01*
Y569490D01*
X126574Y570324D01*
X127407Y569490D01*
Y566991D01*
X129073D02*
X130739D01*
X129906D01*
Y570324D01*
X129073D01*
X133238Y566991D02*
X134904D01*
X134071D01*
Y571990D01*
X133238D01*
X104914Y556991D02*
X106580D01*
X105747D01*
Y561990D01*
X104914Y561157D01*
X109079Y556991D02*
Y557824D01*
X109912D01*
Y556991D01*
X109079D01*
X116577Y561990D02*
X114911Y561157D01*
X113244Y559490D01*
Y557824D01*
X114077Y556991D01*
X115744D01*
X116577Y557824D01*
Y558657D01*
X115744Y559490D01*
X113244D01*
X118243Y561157D02*
X119076Y561990D01*
X120742D01*
X121575Y561157D01*
Y557824D01*
X120742Y556991D01*
X119076D01*
X118243Y557824D01*
Y561157D01*
X123241Y556991D02*
Y560323D01*
X124074D01*
X124907Y559490D01*
Y556991D01*
Y559490D01*
X125740Y560323D01*
X126574Y559490D01*
Y556991D01*
X128240D02*
X129906D01*
X129073D01*
Y560323D01*
X128240D01*
X132405Y556991D02*
X134071D01*
X133238D01*
Y561990D01*
X132405D01*
X104914Y551157D02*
X105747Y551990D01*
X107413D01*
X108246Y551157D01*
Y547824D01*
X107413Y546991D01*
X105747D01*
X104914Y547824D01*
Y551157D01*
X109912Y546991D02*
Y547824D01*
X110745D01*
Y546991D01*
X109912D01*
X114077Y551157D02*
X114911Y551990D01*
X116577D01*
X117410Y551157D01*
Y550323D01*
X116577Y549490D01*
X117410Y548657D01*
Y547824D01*
X116577Y546991D01*
X114911D01*
X114077Y547824D01*
Y548657D01*
X114911Y549490D01*
X114077Y550323D01*
Y551157D01*
X114911Y549490D02*
X116577D01*
X119076Y551157D02*
X119909Y551990D01*
X121575D01*
X122408Y551157D01*
Y547824D01*
X121575Y546991D01*
X119909D01*
X119076Y547824D01*
Y551157D01*
X124074Y546991D02*
Y550323D01*
X124907D01*
X125740Y549490D01*
Y546991D01*
Y549490D01*
X126574Y550323D01*
X127407Y549490D01*
Y546991D01*
X129073D02*
X130739D01*
X129906D01*
Y550323D01*
X129073D01*
X133238Y546991D02*
X134904D01*
X134071D01*
Y551990D01*
X133238D01*
X104914Y711990D02*
X108246D01*
X106580D01*
Y706991D01*
X109912Y711990D02*
Y706991D01*
Y709490D01*
X110745Y710323D01*
X112411D01*
X113244Y709490D01*
Y706991D01*
X114911D02*
X116577D01*
X115744D01*
Y710323D01*
X114911D01*
X122408D02*
X119909D01*
X119076Y709490D01*
Y707824D01*
X119909Y706991D01*
X122408D01*
X124074D02*
Y711990D01*
Y708657D02*
X126574Y710323D01*
X124074Y708657D02*
X126574Y706991D01*
X129073D02*
Y710323D01*
X131572D01*
X132405Y709490D01*
Y706991D01*
X136570D02*
X134904D01*
X134071Y707824D01*
Y709490D01*
X134904Y710323D01*
X136570D01*
X137403Y709490D01*
Y708657D01*
X134071D01*
X139069Y706991D02*
X141569D01*
X142402Y707824D01*
X141569Y708657D01*
X139902D01*
X139069Y709490D01*
X139902Y710323D01*
X142402D01*
X144068Y706991D02*
X146567D01*
X147400Y707824D01*
X146567Y708657D01*
X144901D01*
X144068Y709490D01*
X144901Y710323D01*
X147400D01*
X36465Y691156D02*
X35632Y691990D01*
X33966D01*
X33133Y691156D01*
Y690323D01*
X33966Y689490D01*
X35632D01*
X36465Y688657D01*
Y687824D01*
X35632Y686991D01*
X33966D01*
X33133Y687824D01*
X38965Y686991D02*
X40631D01*
X41464Y687824D01*
Y689490D01*
X40631Y690323D01*
X38965D01*
X38132Y689490D01*
Y687824D01*
X38965Y686991D01*
X43130D02*
X44796D01*
X43963D01*
Y691990D01*
X43130D01*
X50628D02*
Y686991D01*
X48128D01*
X47295Y687824D01*
Y689490D01*
X48128Y690323D01*
X50628D01*
X54793Y686991D02*
X53127D01*
X52294Y687824D01*
Y689490D01*
X53127Y690323D01*
X54793D01*
X55626Y689490D01*
Y688657D01*
X52294D01*
X57292Y690323D02*
Y686991D01*
Y688657D01*
X58125Y689490D01*
X58958Y690323D01*
X59791D01*
X67289Y686991D02*
Y691990D01*
X69788D01*
X70621Y691156D01*
Y689490D01*
X69788Y688657D01*
X67289D01*
X68955D02*
X70621Y686991D01*
X74786D02*
X73120D01*
X72287Y687824D01*
Y689490D01*
X73120Y690323D01*
X74786D01*
X75620Y689490D01*
Y688657D01*
X72287D01*
X77286Y686991D02*
X79785D01*
X80618Y687824D01*
X79785Y688657D01*
X78119D01*
X77286Y689490D01*
X78119Y690323D01*
X80618D01*
X82284Y686991D02*
X83950D01*
X83117D01*
Y690323D01*
X82284D01*
X86449Y686991D02*
X88949D01*
X89782Y687824D01*
X88949Y688657D01*
X87282D01*
X86449Y689490D01*
X87282Y690323D01*
X89782D01*
X92281Y691156D02*
Y690323D01*
X91448D01*
X93114D01*
X92281D01*
Y687824D01*
X93114Y686991D01*
X36465Y681156D02*
X35632Y681990D01*
X33966D01*
X33133Y681156D01*
Y677824D01*
X33966Y676991D01*
X35632D01*
X36465Y677824D01*
X38965Y676991D02*
X40631D01*
X41464Y677824D01*
Y679490D01*
X40631Y680324D01*
X38965D01*
X38132Y679490D01*
Y677824D01*
X38965Y676991D01*
X43130Y675325D02*
Y680324D01*
X45629D01*
X46462Y679490D01*
Y677824D01*
X45629Y676991D01*
X43130D01*
X48128Y675325D02*
Y680324D01*
X50628D01*
X51461Y679490D01*
Y677824D01*
X50628Y676991D01*
X48128D01*
X55626D02*
X53960D01*
X53127Y677824D01*
Y679490D01*
X53960Y680324D01*
X55626D01*
X56459Y679490D01*
Y678657D01*
X53127D01*
X58125Y680324D02*
Y676991D01*
Y678657D01*
X58958Y679490D01*
X59791Y680324D01*
X60624D01*
X33133Y666991D02*
Y671990D01*
X35632D01*
X36465Y671157D01*
Y669490D01*
X35632Y668657D01*
X33133D01*
X34799D02*
X36465Y666991D01*
X40631Y671990D02*
X38965D01*
X38132Y671157D01*
Y667824D01*
X38965Y666991D01*
X40631D01*
X41464Y667824D01*
Y671157D01*
X40631Y671990D01*
X45629Y666991D02*
Y671990D01*
X43130Y669490D01*
X46462D01*
X48128Y671157D02*
X48961Y671990D01*
X50628D01*
X51461Y671157D01*
Y670324D01*
X50628Y669490D01*
X51461Y668657D01*
Y667824D01*
X50628Y666991D01*
X48961D01*
X48128Y667824D01*
Y668657D01*
X48961Y669490D01*
X48128Y670324D01*
Y671157D01*
X48961Y669490D02*
X50628D01*
X53127Y671157D02*
X53960Y671990D01*
X55626D01*
X56459Y671157D01*
Y670324D01*
X55626Y669490D01*
X54793D01*
X55626D01*
X56459Y668657D01*
Y667824D01*
X55626Y666991D01*
X53960D01*
X53127Y667824D01*
X61457Y671990D02*
X58125D01*
Y669490D01*
X59791Y670324D01*
X60624D01*
X61457Y669490D01*
Y667824D01*
X60624Y666991D01*
X58958D01*
X58125Y667824D01*
X68122Y671990D02*
Y666991D01*
X71454D01*
X75620Y671990D02*
X73953D01*
X73120Y671157D01*
Y667824D01*
X73953Y666991D01*
X75620D01*
X76452Y667824D01*
Y671157D01*
X75620Y671990D01*
X78119Y666991D02*
Y671990D01*
X80618D01*
X81451Y671157D01*
Y669490D01*
X80618Y668657D01*
X78119D01*
X83117Y666991D02*
Y671990D01*
X85616D01*
X86449Y671157D01*
Y669490D01*
X85616Y668657D01*
X83117D01*
X84783D02*
X86449Y666991D01*
X90615Y671990D02*
X88949D01*
X88115Y671157D01*
Y667824D01*
X88949Y666991D01*
X90615D01*
X91448Y667824D01*
Y671157D01*
X90615Y671990D01*
X36465Y661157D02*
X35632Y661990D01*
X33966D01*
X33133Y661157D01*
Y657824D01*
X33966Y656991D01*
X35632D01*
X36465Y657824D01*
X38965Y656991D02*
X40631D01*
X41464Y657824D01*
Y659490D01*
X40631Y660323D01*
X38965D01*
X38132Y659490D01*
Y657824D01*
X38965Y656991D01*
X43130Y655325D02*
Y660323D01*
X45629D01*
X46462Y659490D01*
Y657824D01*
X45629Y656991D01*
X43130D01*
X48128Y655325D02*
Y660323D01*
X50628D01*
X51461Y659490D01*
Y657824D01*
X50628Y656991D01*
X48128D01*
X55626D02*
X53960D01*
X53127Y657824D01*
Y659490D01*
X53960Y660323D01*
X55626D01*
X56459Y659490D01*
Y658657D01*
X53127D01*
X58125Y660323D02*
Y656991D01*
Y658657D01*
X58958Y659490D01*
X59791Y660323D01*
X60624D01*
X36465Y651990D02*
X33133D01*
Y649490D01*
X34799D01*
X33133D01*
Y646991D01*
X38132D02*
Y651990D01*
X40631D01*
X41464Y651157D01*
Y649490D01*
X40631Y648657D01*
X38132D01*
X39798D02*
X41464Y646991D01*
X45629D02*
Y651990D01*
X43130Y649490D01*
X46462D01*
X53127Y651157D02*
X53960Y651990D01*
X55626D01*
X56459Y651157D01*
Y650323D01*
X55626Y649490D01*
X54793D01*
X55626D01*
X56459Y648657D01*
Y647824D01*
X55626Y646991D01*
X53960D01*
X53127Y647824D01*
X58125Y651990D02*
X61457D01*
Y651157D01*
X58125Y647824D01*
Y646991D01*
X63124Y651157D02*
X63957Y651990D01*
X65623D01*
X66456Y651157D01*
Y647824D01*
X65623Y646991D01*
X63957D01*
X63124Y647824D01*
Y651157D01*
X68122Y651990D02*
Y646991D01*
Y649490D01*
X71454D01*
Y651990D01*
Y646991D01*
X73120D02*
Y651990D01*
X75620D01*
X76452Y651157D01*
Y649490D01*
X75620Y648657D01*
X73120D01*
X74786D02*
X76452Y646991D01*
X36465Y641990D02*
X33133D01*
Y639490D01*
X34799D01*
X33133D01*
Y636991D01*
X38132D02*
Y641990D01*
X40631D01*
X41464Y641156D01*
Y639490D01*
X40631Y638657D01*
X38132D01*
X39798D02*
X41464Y636991D01*
X45629D02*
Y641990D01*
X43130Y639490D01*
X46462D01*
X53127Y641156D02*
X53960Y641990D01*
X55626D01*
X56459Y641156D01*
Y640323D01*
X55626Y639490D01*
X54793D01*
X55626D01*
X56459Y638657D01*
Y637824D01*
X55626Y636991D01*
X53960D01*
X53127Y637824D01*
X58125Y641990D02*
X61457D01*
Y641156D01*
X58125Y637824D01*
Y636991D01*
X63124Y641156D02*
X63957Y641990D01*
X65623D01*
X66456Y641156D01*
Y637824D01*
X65623Y636991D01*
X63957D01*
X63124Y637824D01*
Y641156D01*
X68122Y641990D02*
Y636991D01*
Y639490D01*
X71454D01*
Y641990D01*
Y636991D01*
X73120D02*
Y641990D01*
X75620D01*
X76452Y641156D01*
Y639490D01*
X75620Y638657D01*
X73120D01*
X74786D02*
X76452Y636991D01*
X36465Y631156D02*
X35632Y631990D01*
X33966D01*
X33133Y631156D01*
Y627824D01*
X33966Y626991D01*
X35632D01*
X36465Y627824D01*
X38965Y626991D02*
X40631D01*
X41464Y627824D01*
Y629490D01*
X40631Y630324D01*
X38965D01*
X38132Y629490D01*
Y627824D01*
X38965Y626991D01*
X43130Y625325D02*
Y630324D01*
X45629D01*
X46462Y629490D01*
Y627824D01*
X45629Y626991D01*
X43130D01*
X48128Y625325D02*
Y630324D01*
X50628D01*
X51461Y629490D01*
Y627824D01*
X50628Y626991D01*
X48128D01*
X55626D02*
X53960D01*
X53127Y627824D01*
Y629490D01*
X53960Y630324D01*
X55626D01*
X56459Y629490D01*
Y628657D01*
X53127D01*
X58125Y630324D02*
Y626991D01*
Y628657D01*
X58958Y629490D01*
X59791Y630324D01*
X60624D01*
X36465Y621990D02*
X33133D01*
Y619490D01*
X34799D01*
X33133D01*
Y616991D01*
X38132D02*
Y621990D01*
X40631D01*
X41464Y621157D01*
Y619490D01*
X40631Y618657D01*
X38132D01*
X39798D02*
X41464Y616991D01*
X45629D02*
Y621990D01*
X43130Y619490D01*
X46462D01*
X53127Y621157D02*
X53960Y621990D01*
X55626D01*
X56459Y621157D01*
Y620324D01*
X55626Y619490D01*
X54793D01*
X55626D01*
X56459Y618657D01*
Y617824D01*
X55626Y616991D01*
X53960D01*
X53127Y617824D01*
X58125Y621990D02*
X61457D01*
Y621157D01*
X58125Y617824D01*
Y616991D01*
X63124Y621157D02*
X63957Y621990D01*
X65623D01*
X66456Y621157D01*
Y617824D01*
X65623Y616991D01*
X63957D01*
X63124Y617824D01*
Y621157D01*
X68122Y621990D02*
Y616991D01*
Y619490D01*
X71454D01*
Y621990D01*
Y616991D01*
X73120D02*
Y621990D01*
X75620D01*
X76452Y621157D01*
Y619490D01*
X75620Y618657D01*
X73120D01*
X74786D02*
X76452Y616991D01*
X36465Y611157D02*
X35632Y611990D01*
X33966D01*
X33133Y611157D01*
Y607824D01*
X33966Y606991D01*
X35632D01*
X36465Y607824D01*
X38965Y606991D02*
X40631D01*
X41464Y607824D01*
Y609490D01*
X40631Y610323D01*
X38965D01*
X38132Y609490D01*
Y607824D01*
X38965Y606991D01*
X43130Y605325D02*
Y610323D01*
X45629D01*
X46462Y609490D01*
Y607824D01*
X45629Y606991D01*
X43130D01*
X48128Y605325D02*
Y610323D01*
X50628D01*
X51461Y609490D01*
Y607824D01*
X50628Y606991D01*
X48128D01*
X55626D02*
X53960D01*
X53127Y607824D01*
Y609490D01*
X53960Y610323D01*
X55626D01*
X56459Y609490D01*
Y608657D01*
X53127D01*
X58125Y610323D02*
Y606991D01*
Y608657D01*
X58958Y609490D01*
X59791Y610323D01*
X60624D01*
X36465Y601990D02*
X33133D01*
Y599490D01*
X34799D01*
X33133D01*
Y596991D01*
X38132D02*
Y601990D01*
X40631D01*
X41464Y601157D01*
Y599490D01*
X40631Y598657D01*
X38132D01*
X39798D02*
X41464Y596991D01*
X45629D02*
Y601990D01*
X43130Y599490D01*
X46462D01*
X53127Y601157D02*
X53960Y601990D01*
X55626D01*
X56459Y601157D01*
Y600323D01*
X55626Y599490D01*
X54793D01*
X55626D01*
X56459Y598657D01*
Y597824D01*
X55626Y596991D01*
X53960D01*
X53127Y597824D01*
X58125Y601990D02*
X61457D01*
Y601157D01*
X58125Y597824D01*
Y596991D01*
X63124Y601157D02*
X63957Y601990D01*
X65623D01*
X66456Y601157D01*
Y597824D01*
X65623Y596991D01*
X63957D01*
X63124Y597824D01*
Y601157D01*
X68122Y601990D02*
Y596991D01*
Y599490D01*
X71454D01*
Y601990D01*
Y596991D01*
X73120D02*
Y601990D01*
X75620D01*
X76452Y601157D01*
Y599490D01*
X75620Y598657D01*
X73120D01*
X74786D02*
X76452Y596991D01*
X36465Y591990D02*
X33133D01*
Y589490D01*
X34799D01*
X33133D01*
Y586991D01*
X38132D02*
Y591990D01*
X40631D01*
X41464Y591156D01*
Y589490D01*
X40631Y588657D01*
X38132D01*
X39798D02*
X41464Y586991D01*
X45629D02*
Y591990D01*
X43130Y589490D01*
X46462D01*
X53127Y591156D02*
X53960Y591990D01*
X55626D01*
X56459Y591156D01*
Y590323D01*
X55626Y589490D01*
X54793D01*
X55626D01*
X56459Y588657D01*
Y587824D01*
X55626Y586991D01*
X53960D01*
X53127Y587824D01*
X58125Y591990D02*
X61457D01*
Y591156D01*
X58125Y587824D01*
Y586991D01*
X63124Y591156D02*
X63957Y591990D01*
X65623D01*
X66456Y591156D01*
Y587824D01*
X65623Y586991D01*
X63957D01*
X63124Y587824D01*
Y591156D01*
X68122Y591990D02*
Y586991D01*
Y589490D01*
X71454D01*
Y591990D01*
Y586991D01*
X73120D02*
Y591990D01*
X75620D01*
X76452Y591156D01*
Y589490D01*
X75620Y588657D01*
X73120D01*
X74786D02*
X76452Y586991D01*
X36465Y581156D02*
X35632Y581990D01*
X33966D01*
X33133Y581156D01*
Y577824D01*
X33966Y576991D01*
X35632D01*
X36465Y577824D01*
X38965Y576991D02*
X40631D01*
X41464Y577824D01*
Y579490D01*
X40631Y580324D01*
X38965D01*
X38132Y579490D01*
Y577824D01*
X38965Y576991D01*
X43130Y575325D02*
Y580324D01*
X45629D01*
X46462Y579490D01*
Y577824D01*
X45629Y576991D01*
X43130D01*
X48128Y575325D02*
Y580324D01*
X50628D01*
X51461Y579490D01*
Y577824D01*
X50628Y576991D01*
X48128D01*
X55626D02*
X53960D01*
X53127Y577824D01*
Y579490D01*
X53960Y580324D01*
X55626D01*
X56459Y579490D01*
Y578657D01*
X53127D01*
X58125Y580324D02*
Y576991D01*
Y578657D01*
X58958Y579490D01*
X59791Y580324D01*
X60624D01*
X36465Y571990D02*
X33133D01*
Y569490D01*
X34799D01*
X33133D01*
Y566991D01*
X38132D02*
Y571990D01*
X40631D01*
X41464Y571157D01*
Y569490D01*
X40631Y568657D01*
X38132D01*
X39798D02*
X41464Y566991D01*
X45629D02*
Y571990D01*
X43130Y569490D01*
X46462D01*
X53127Y571157D02*
X53960Y571990D01*
X55626D01*
X56459Y571157D01*
Y570324D01*
X55626Y569490D01*
X54793D01*
X55626D01*
X56459Y568657D01*
Y567824D01*
X55626Y566991D01*
X53960D01*
X53127Y567824D01*
X58125Y571990D02*
X61457D01*
Y571157D01*
X58125Y567824D01*
Y566991D01*
X63124Y571157D02*
X63957Y571990D01*
X65623D01*
X66456Y571157D01*
Y567824D01*
X65623Y566991D01*
X63957D01*
X63124Y567824D01*
Y571157D01*
X68122Y571990D02*
Y566991D01*
Y569490D01*
X71454D01*
Y571990D01*
Y566991D01*
X73120D02*
Y571990D01*
X75620D01*
X76452Y571157D01*
Y569490D01*
X75620Y568657D01*
X73120D01*
X74786D02*
X76452Y566991D01*
X36465Y561157D02*
X35632Y561990D01*
X33966D01*
X33133Y561157D01*
Y557824D01*
X33966Y556991D01*
X35632D01*
X36465Y557824D01*
X38965Y556991D02*
X40631D01*
X41464Y557824D01*
Y559490D01*
X40631Y560323D01*
X38965D01*
X38132Y559490D01*
Y557824D01*
X38965Y556991D01*
X43130Y555325D02*
Y560323D01*
X45629D01*
X46462Y559490D01*
Y557824D01*
X45629Y556991D01*
X43130D01*
X48128Y555325D02*
Y560323D01*
X50628D01*
X51461Y559490D01*
Y557824D01*
X50628Y556991D01*
X48128D01*
X55626D02*
X53960D01*
X53127Y557824D01*
Y559490D01*
X53960Y560323D01*
X55626D01*
X56459Y559490D01*
Y558657D01*
X53127D01*
X58125Y560323D02*
Y556991D01*
Y558657D01*
X58958Y559490D01*
X59791Y560323D01*
X60624D01*
X36465Y551157D02*
X35632Y551990D01*
X33966D01*
X33133Y551157D01*
Y550323D01*
X33966Y549490D01*
X35632D01*
X36465Y548657D01*
Y547824D01*
X35632Y546991D01*
X33966D01*
X33133Y547824D01*
X38965Y546991D02*
X40631D01*
X41464Y547824D01*
Y549490D01*
X40631Y550323D01*
X38965D01*
X38132Y549490D01*
Y547824D01*
X38965Y546991D01*
X43130D02*
X44796D01*
X43963D01*
Y551990D01*
X43130D01*
X50628D02*
Y546991D01*
X48128D01*
X47295Y547824D01*
Y549490D01*
X48128Y550323D01*
X50628D01*
X54793Y546991D02*
X53127D01*
X52294Y547824D01*
Y549490D01*
X53127Y550323D01*
X54793D01*
X55626Y549490D01*
Y548657D01*
X52294D01*
X57292Y550323D02*
Y546991D01*
Y548657D01*
X58125Y549490D01*
X58958Y550323D01*
X59791D01*
X67289Y546991D02*
Y551990D01*
X69788D01*
X70621Y551157D01*
Y549490D01*
X69788Y548657D01*
X67289D01*
X68955D02*
X70621Y546991D01*
X74786D02*
X73120D01*
X72287Y547824D01*
Y549490D01*
X73120Y550323D01*
X74786D01*
X75620Y549490D01*
Y548657D01*
X72287D01*
X77286Y546991D02*
X79785D01*
X80618Y547824D01*
X79785Y548657D01*
X78119D01*
X77286Y549490D01*
X78119Y550323D01*
X80618D01*
X82284Y546991D02*
X83950D01*
X83117D01*
Y550323D01*
X82284D01*
X86449Y546991D02*
X88949D01*
X89782Y547824D01*
X88949Y548657D01*
X87282D01*
X86449Y549490D01*
X87282Y550323D01*
X89782D01*
X92281Y551157D02*
Y550323D01*
X91448D01*
X93114D01*
X92281D01*
Y547824D01*
X93114Y546991D01*
X33133Y706991D02*
Y711990D01*
X34799Y710323D01*
X36465Y711990D01*
Y706991D01*
X38965Y710323D02*
X40631D01*
X41464Y709490D01*
Y706991D01*
X38965D01*
X38132Y707824D01*
X38965Y708657D01*
X41464D01*
X43963Y711157D02*
Y710323D01*
X43130D01*
X44796D01*
X43963D01*
Y707824D01*
X44796Y706991D01*
X49795D02*
X48128D01*
X47295Y707824D01*
Y709490D01*
X48128Y710323D01*
X49795D01*
X50628Y709490D01*
Y708657D01*
X47295D01*
X52294Y710323D02*
Y706991D01*
Y708657D01*
X53127Y709490D01*
X53960Y710323D01*
X54793D01*
X57292Y706991D02*
X58958D01*
X58125D01*
Y710323D01*
X57292D01*
X62290D02*
X63957D01*
X64790Y709490D01*
Y706991D01*
X62290D01*
X61457Y707824D01*
X62290Y708657D01*
X64790D01*
X66456Y706991D02*
X68122D01*
X67289D01*
Y711990D01*
X66456D01*
X-44479Y701990D02*
X-41146D01*
X-42813D01*
Y696991D01*
X-38647D02*
X-36981D01*
X-36148Y697824D01*
Y699490D01*
X-36981Y700323D01*
X-38647D01*
X-39480Y699490D01*
Y697824D01*
X-38647Y696991D01*
X-34482Y695325D02*
Y700323D01*
X-31983D01*
X-31150Y699490D01*
Y697824D01*
X-31983Y696991D01*
X-34482D01*
X-21986Y701990D02*
X-23652D01*
X-24485Y701157D01*
Y697824D01*
X-23652Y696991D01*
X-21986D01*
X-21153Y697824D01*
Y701157D01*
X-21986Y701990D01*
X-19487Y700323D02*
X-17821Y696991D01*
X-16155Y700323D01*
X-11989Y696991D02*
X-13655D01*
X-14489Y697824D01*
Y699490D01*
X-13655Y700323D01*
X-11989D01*
X-11156Y699490D01*
Y698657D01*
X-14489D01*
X-9490Y700323D02*
Y696991D01*
Y698657D01*
X-8657Y699490D01*
X-7824Y700323D01*
X-6991D01*
X-4492Y696991D02*
X-2826D01*
X-3659D01*
Y701990D01*
X-4492D01*
X507Y700323D02*
X2173D01*
X3006Y699490D01*
Y696991D01*
X507D01*
X-326Y697824D01*
X507Y698657D01*
X3006D01*
X4672Y700323D02*
Y697824D01*
X5505Y696991D01*
X8004D01*
Y696158D01*
X7171Y695325D01*
X6338D01*
X8004Y696991D02*
Y700323D01*
X-44479Y691990D02*
X-41146D01*
X-42813D01*
Y686991D01*
X-38647D02*
X-36981D01*
X-36148Y687824D01*
Y689490D01*
X-36981Y690323D01*
X-38647D01*
X-39480Y689490D01*
Y687824D01*
X-38647Y686991D01*
X-34482Y685325D02*
Y690323D01*
X-31983D01*
X-31150Y689490D01*
Y687824D01*
X-31983Y686991D01*
X-34482D01*
X-21153Y691156D02*
X-21986Y691990D01*
X-23652D01*
X-24485Y691156D01*
Y690323D01*
X-23652Y689490D01*
X-21986D01*
X-21153Y688657D01*
Y687824D01*
X-21986Y686991D01*
X-23652D01*
X-24485Y687824D01*
X-18654Y686991D02*
X-16988D01*
X-16155Y687824D01*
Y689490D01*
X-16988Y690323D01*
X-18654D01*
X-19487Y689490D01*
Y687824D01*
X-18654Y686991D01*
X-14489D02*
X-12822D01*
X-13655D01*
Y691990D01*
X-14489D01*
X-6991D02*
Y686991D01*
X-9490D01*
X-10323Y687824D01*
Y689490D01*
X-9490Y690323D01*
X-6991D01*
X-2826Y686991D02*
X-4492D01*
X-5325Y687824D01*
Y689490D01*
X-4492Y690323D01*
X-2826D01*
X-1993Y689490D01*
Y688657D01*
X-5325D01*
X-326Y690323D02*
Y686991D01*
Y688657D01*
X507Y689490D01*
X1340Y690323D01*
X2173D01*
X-44479Y681990D02*
X-41146D01*
X-42813D01*
Y676991D01*
X-36981Y681990D02*
X-38647D01*
X-39480Y681156D01*
Y677824D01*
X-38647Y676991D01*
X-36981D01*
X-36148Y677824D01*
Y681156D01*
X-36981Y681990D01*
X-34482Y676991D02*
Y681990D01*
X-31983D01*
X-31150Y681156D01*
Y679490D01*
X-31983Y678657D01*
X-34482D01*
X-44479Y671990D02*
Y666991D01*
X-41980D01*
X-41146Y667824D01*
Y671157D01*
X-41980Y671990D01*
X-44479D01*
X-39480Y666991D02*
X-37814D01*
X-38647D01*
Y670324D01*
X-39480D01*
X-32816Y666991D02*
X-34482D01*
X-35315Y667824D01*
Y669490D01*
X-34482Y670324D01*
X-32816D01*
X-31983Y669490D01*
Y668657D01*
X-35315D01*
X-30317Y666991D02*
X-28651D01*
X-29484D01*
Y671990D01*
X-30317D01*
X-23652Y666991D02*
X-25318D01*
X-26151Y667824D01*
Y669490D01*
X-25318Y670324D01*
X-23652D01*
X-22819Y669490D01*
Y668657D01*
X-26151D01*
X-17821Y670324D02*
X-20320D01*
X-21153Y669490D01*
Y667824D01*
X-20320Y666991D01*
X-17821D01*
X-15322Y671157D02*
Y670324D01*
X-16155D01*
X-14489D01*
X-15322D01*
Y667824D01*
X-14489Y666991D01*
X-11989Y670324D02*
Y666991D01*
Y668657D01*
X-11156Y669490D01*
X-10323Y670324D01*
X-9490D01*
X-6991Y666991D02*
X-5325D01*
X-6158D01*
Y670324D01*
X-6991D01*
X507D02*
X-1993D01*
X-2826Y669490D01*
Y667824D01*
X-1993Y666991D01*
X507D01*
X7171D02*
X8837D01*
X8004D01*
Y671990D01*
X7171Y671157D01*
X-44479Y661990D02*
Y656991D01*
X-41146D01*
X-36148D02*
X-39480D01*
X-36148Y660323D01*
Y661157D01*
X-36981Y661990D01*
X-38647D01*
X-39480Y661157D01*
X-44479Y651990D02*
Y646991D01*
X-41980D01*
X-41146Y647824D01*
Y651157D01*
X-41980Y651990D01*
X-44479D01*
X-39480Y646991D02*
X-37814D01*
X-38647D01*
Y650323D01*
X-39480D01*
X-32816Y646991D02*
X-34482D01*
X-35315Y647824D01*
Y649490D01*
X-34482Y650323D01*
X-32816D01*
X-31983Y649490D01*
Y648657D01*
X-35315D01*
X-30317Y646991D02*
X-28651D01*
X-29484D01*
Y651990D01*
X-30317D01*
X-23652Y646991D02*
X-25318D01*
X-26151Y647824D01*
Y649490D01*
X-25318Y650323D01*
X-23652D01*
X-22819Y649490D01*
Y648657D01*
X-26151D01*
X-17821Y650323D02*
X-20320D01*
X-21153Y649490D01*
Y647824D01*
X-20320Y646991D01*
X-17821D01*
X-15322Y651157D02*
Y650323D01*
X-16155D01*
X-14489D01*
X-15322D01*
Y647824D01*
X-14489Y646991D01*
X-11989Y650323D02*
Y646991D01*
Y648657D01*
X-11156Y649490D01*
X-10323Y650323D01*
X-9490D01*
X-6991Y646991D02*
X-5325D01*
X-6158D01*
Y650323D01*
X-6991D01*
X507D02*
X-1993D01*
X-2826Y649490D01*
Y647824D01*
X-1993Y646991D01*
X507D01*
X5505D02*
X2173D01*
X5505Y650323D01*
Y651157D01*
X4672Y651990D01*
X3006D01*
X2173Y651157D01*
X-44479Y641990D02*
Y636991D01*
X-41980D01*
X-41146Y637824D01*
Y641156D01*
X-41980Y641990D01*
X-44479D01*
X-39480Y636991D02*
X-37814D01*
X-38647D01*
Y640323D01*
X-39480D01*
X-32816Y636991D02*
X-34482D01*
X-35315Y637824D01*
Y639490D01*
X-34482Y640323D01*
X-32816D01*
X-31983Y639490D01*
Y638657D01*
X-35315D01*
X-30317Y636991D02*
X-28651D01*
X-29484D01*
Y641990D01*
X-30317D01*
X-23652Y636991D02*
X-25318D01*
X-26151Y637824D01*
Y639490D01*
X-25318Y640323D01*
X-23652D01*
X-22819Y639490D01*
Y638657D01*
X-26151D01*
X-17821Y640323D02*
X-20320D01*
X-21153Y639490D01*
Y637824D01*
X-20320Y636991D01*
X-17821D01*
X-15322Y641156D02*
Y640323D01*
X-16155D01*
X-14489D01*
X-15322D01*
Y637824D01*
X-14489Y636991D01*
X-11989Y640323D02*
Y636991D01*
Y638657D01*
X-11156Y639490D01*
X-10323Y640323D01*
X-9490D01*
X-6991Y636991D02*
X-5325D01*
X-6158D01*
Y640323D01*
X-6991D01*
X507D02*
X-1993D01*
X-2826Y639490D01*
Y637824D01*
X-1993Y636991D01*
X507D01*
X7171Y641156D02*
X8004Y641990D01*
X9670D01*
X10503Y641156D01*
Y640323D01*
X9670Y639490D01*
X8837D01*
X9670D01*
X10503Y638657D01*
Y637824D01*
X9670Y636991D01*
X8004D01*
X7171Y637824D01*
X-44479Y631990D02*
Y626991D01*
X-41146D01*
X-39480Y631156D02*
X-38647Y631990D01*
X-36981D01*
X-36148Y631156D01*
Y630324D01*
X-36981Y629490D01*
X-37814D01*
X-36981D01*
X-36148Y628657D01*
Y627824D01*
X-36981Y626991D01*
X-38647D01*
X-39480Y627824D01*
X-44479Y621990D02*
Y616991D01*
X-41980D01*
X-41146Y617824D01*
Y621157D01*
X-41980Y621990D01*
X-44479D01*
X-39480Y616991D02*
X-37814D01*
X-38647D01*
Y620324D01*
X-39480D01*
X-32816Y616991D02*
X-34482D01*
X-35315Y617824D01*
Y619490D01*
X-34482Y620324D01*
X-32816D01*
X-31983Y619490D01*
Y618657D01*
X-35315D01*
X-30317Y616991D02*
X-28651D01*
X-29484D01*
Y621990D01*
X-30317D01*
X-23652Y616991D02*
X-25318D01*
X-26151Y617824D01*
Y619490D01*
X-25318Y620324D01*
X-23652D01*
X-22819Y619490D01*
Y618657D01*
X-26151D01*
X-17821Y620324D02*
X-20320D01*
X-21153Y619490D01*
Y617824D01*
X-20320Y616991D01*
X-17821D01*
X-15322Y621157D02*
Y620324D01*
X-16155D01*
X-14489D01*
X-15322D01*
Y617824D01*
X-14489Y616991D01*
X-11989Y620324D02*
Y616991D01*
Y618657D01*
X-11156Y619490D01*
X-10323Y620324D01*
X-9490D01*
X-6991Y616991D02*
X-5325D01*
X-6158D01*
Y620324D01*
X-6991D01*
X507D02*
X-1993D01*
X-2826Y619490D01*
Y617824D01*
X-1993Y616991D01*
X507D01*
X4672D02*
Y621990D01*
X2173Y619490D01*
X5505D01*
X-44479Y611990D02*
Y606991D01*
X-41146D01*
X-36981D02*
Y611990D01*
X-39480Y609490D01*
X-36148D01*
X-44479Y601990D02*
Y596991D01*
X-41980D01*
X-41146Y597824D01*
Y601157D01*
X-41980Y601990D01*
X-44479D01*
X-39480Y596991D02*
X-37814D01*
X-38647D01*
Y600323D01*
X-39480D01*
X-32816Y596991D02*
X-34482D01*
X-35315Y597824D01*
Y599490D01*
X-34482Y600323D01*
X-32816D01*
X-31983Y599490D01*
Y598657D01*
X-35315D01*
X-30317Y596991D02*
X-28651D01*
X-29484D01*
Y601990D01*
X-30317D01*
X-23652Y596991D02*
X-25318D01*
X-26151Y597824D01*
Y599490D01*
X-25318Y600323D01*
X-23652D01*
X-22819Y599490D01*
Y598657D01*
X-26151D01*
X-17821Y600323D02*
X-20320D01*
X-21153Y599490D01*
Y597824D01*
X-20320Y596991D01*
X-17821D01*
X-15322Y601157D02*
Y600323D01*
X-16155D01*
X-14489D01*
X-15322D01*
Y597824D01*
X-14489Y596991D01*
X-11989Y600323D02*
Y596991D01*
Y598657D01*
X-11156Y599490D01*
X-10323Y600323D01*
X-9490D01*
X-6991Y596991D02*
X-5325D01*
X-6158D01*
Y600323D01*
X-6991D01*
X507D02*
X-1993D01*
X-2826Y599490D01*
Y597824D01*
X-1993Y596991D01*
X507D01*
X5505Y601990D02*
X2173D01*
Y599490D01*
X3839Y600323D01*
X4672D01*
X5505Y599490D01*
Y597824D01*
X4672Y596991D01*
X3006D01*
X2173Y597824D01*
X-44479Y591990D02*
Y586991D01*
X-41980D01*
X-41146Y587824D01*
Y591156D01*
X-41980Y591990D01*
X-44479D01*
X-39480Y586991D02*
X-37814D01*
X-38647D01*
Y590323D01*
X-39480D01*
X-32816Y586991D02*
X-34482D01*
X-35315Y587824D01*
Y589490D01*
X-34482Y590323D01*
X-32816D01*
X-31983Y589490D01*
Y588657D01*
X-35315D01*
X-30317Y586991D02*
X-28651D01*
X-29484D01*
Y591990D01*
X-30317D01*
X-23652Y586991D02*
X-25318D01*
X-26151Y587824D01*
Y589490D01*
X-25318Y590323D01*
X-23652D01*
X-22819Y589490D01*
Y588657D01*
X-26151D01*
X-17821Y590323D02*
X-20320D01*
X-21153Y589490D01*
Y587824D01*
X-20320Y586991D01*
X-17821D01*
X-15322Y591156D02*
Y590323D01*
X-16155D01*
X-14489D01*
X-15322D01*
Y587824D01*
X-14489Y586991D01*
X-11989Y590323D02*
Y586991D01*
Y588657D01*
X-11156Y589490D01*
X-10323Y590323D01*
X-9490D01*
X-6991Y586991D02*
X-5325D01*
X-6158D01*
Y590323D01*
X-6991D01*
X507D02*
X-1993D01*
X-2826Y589490D01*
Y587824D01*
X-1993Y586991D01*
X507D01*
X10503Y591990D02*
X8837Y591156D01*
X7171Y589490D01*
Y587824D01*
X8004Y586991D01*
X9670D01*
X10503Y587824D01*
Y588657D01*
X9670Y589490D01*
X7171D01*
X-44479Y581990D02*
Y576991D01*
X-41146D01*
X-36148Y581990D02*
X-39480D01*
Y579490D01*
X-37814Y580324D01*
X-36981D01*
X-36148Y579490D01*
Y577824D01*
X-36981Y576991D01*
X-38647D01*
X-39480Y577824D01*
X-44479Y571990D02*
Y566991D01*
X-41980D01*
X-41146Y567824D01*
Y571157D01*
X-41980Y571990D01*
X-44479D01*
X-39480Y566991D02*
X-37814D01*
X-38647D01*
Y570324D01*
X-39480D01*
X-32816Y566991D02*
X-34482D01*
X-35315Y567824D01*
Y569490D01*
X-34482Y570324D01*
X-32816D01*
X-31983Y569490D01*
Y568657D01*
X-35315D01*
X-30317Y566991D02*
X-28651D01*
X-29484D01*
Y571990D01*
X-30317D01*
X-23652Y566991D02*
X-25318D01*
X-26151Y567824D01*
Y569490D01*
X-25318Y570324D01*
X-23652D01*
X-22819Y569490D01*
Y568657D01*
X-26151D01*
X-17821Y570324D02*
X-20320D01*
X-21153Y569490D01*
Y567824D01*
X-20320Y566991D01*
X-17821D01*
X-15322Y571157D02*
Y570324D01*
X-16155D01*
X-14489D01*
X-15322D01*
Y567824D01*
X-14489Y566991D01*
X-11989Y570324D02*
Y566991D01*
Y568657D01*
X-11156Y569490D01*
X-10323Y570324D01*
X-9490D01*
X-6991Y566991D02*
X-5325D01*
X-6158D01*
Y570324D01*
X-6991D01*
X507D02*
X-1993D01*
X-2826Y569490D01*
Y567824D01*
X-1993Y566991D01*
X507D01*
X2173Y571990D02*
X5505D01*
Y571157D01*
X2173Y567824D01*
Y566991D01*
X-44479Y561990D02*
Y556991D01*
X-41980D01*
X-41146Y557824D01*
Y558657D01*
X-41980Y559490D01*
X-44479D01*
X-41980D01*
X-41146Y560323D01*
Y561157D01*
X-41980Y561990D01*
X-44479D01*
X-36981D02*
X-38647D01*
X-39480Y561157D01*
Y557824D01*
X-38647Y556991D01*
X-36981D01*
X-36148Y557824D01*
Y561157D01*
X-36981Y561990D01*
X-34482D02*
X-31150D01*
X-32816D01*
Y556991D01*
X-29484Y561990D02*
X-26151D01*
X-27817D01*
Y556991D01*
X-21986Y561990D02*
X-23652D01*
X-24485Y561157D01*
Y557824D01*
X-23652Y556991D01*
X-21986D01*
X-21153Y557824D01*
Y561157D01*
X-21986Y561990D01*
X-19487Y556991D02*
Y561990D01*
X-17821Y560323D01*
X-16155Y561990D01*
Y556991D01*
X-44479Y551990D02*
Y546991D01*
X-41980D01*
X-41146Y547824D01*
Y548657D01*
X-41980Y549490D01*
X-44479D01*
X-41980D01*
X-41146Y550323D01*
Y551157D01*
X-41980Y551990D01*
X-44479D01*
X-38647Y546991D02*
X-36981D01*
X-36148Y547824D01*
Y549490D01*
X-36981Y550323D01*
X-38647D01*
X-39480Y549490D01*
Y547824D01*
X-38647Y546991D01*
X-33649Y551157D02*
Y550323D01*
X-34482D01*
X-32816D01*
X-33649D01*
Y547824D01*
X-32816Y546991D01*
X-29484Y551157D02*
Y550323D01*
X-30317D01*
X-28651D01*
X-29484D01*
Y547824D01*
X-28651Y546991D01*
X-25318D02*
X-23652D01*
X-22819Y547824D01*
Y549490D01*
X-23652Y550323D01*
X-25318D01*
X-26151Y549490D01*
Y547824D01*
X-25318Y546991D01*
X-21153D02*
Y550323D01*
X-20320D01*
X-19487Y549490D01*
Y546991D01*
Y549490D01*
X-18654Y550323D01*
X-17821Y549490D01*
Y546991D01*
X-7824Y551157D02*
X-8657Y551990D01*
X-10323D01*
X-11156Y551157D01*
Y550323D01*
X-10323Y549490D01*
X-8657D01*
X-7824Y548657D01*
Y547824D01*
X-8657Y546991D01*
X-10323D01*
X-11156Y547824D01*
X-5325Y546991D02*
X-3659D01*
X-2826Y547824D01*
Y549490D01*
X-3659Y550323D01*
X-5325D01*
X-6158Y549490D01*
Y547824D01*
X-5325Y546991D01*
X-1159D02*
X507D01*
X-326D01*
Y551990D01*
X-1159D01*
X6338D02*
Y546991D01*
X3839D01*
X3006Y547824D01*
Y549490D01*
X3839Y550323D01*
X6338D01*
X10503Y546991D02*
X8837D01*
X8004Y547824D01*
Y549490D01*
X8837Y550323D01*
X10503D01*
X11337Y549490D01*
Y548657D01*
X8004D01*
X13003Y550323D02*
Y546991D01*
Y548657D01*
X13836Y549490D01*
X14669Y550323D01*
X15502D01*
X-44479Y541990D02*
Y536991D01*
X-41980D01*
X-41146Y537824D01*
Y538657D01*
X-41980Y539490D01*
X-44479D01*
X-41980D01*
X-41146Y540323D01*
Y541156D01*
X-41980Y541990D01*
X-44479D01*
X-38647Y536991D02*
X-36981D01*
X-36148Y537824D01*
Y539490D01*
X-36981Y540323D01*
X-38647D01*
X-39480Y539490D01*
Y537824D01*
X-38647Y536991D01*
X-33649Y541156D02*
Y540323D01*
X-34482D01*
X-32816D01*
X-33649D01*
Y537824D01*
X-32816Y536991D01*
X-29484Y541156D02*
Y540323D01*
X-30317D01*
X-28651D01*
X-29484D01*
Y537824D01*
X-28651Y536991D01*
X-25318D02*
X-23652D01*
X-22819Y537824D01*
Y539490D01*
X-23652Y540323D01*
X-25318D01*
X-26151Y539490D01*
Y537824D01*
X-25318Y536991D01*
X-21153D02*
Y540323D01*
X-20320D01*
X-19487Y539490D01*
Y536991D01*
Y539490D01*
X-18654Y540323D01*
X-17821Y539490D01*
Y536991D01*
X-8657Y541990D02*
X-10323D01*
X-11156Y541156D01*
Y537824D01*
X-10323Y536991D01*
X-8657D01*
X-7824Y537824D01*
Y541156D01*
X-8657Y541990D01*
X-6158Y540323D02*
X-4492Y536991D01*
X-2826Y540323D01*
X1340Y536991D02*
X-326D01*
X-1159Y537824D01*
Y539490D01*
X-326Y540323D01*
X1340D01*
X2173Y539490D01*
Y538657D01*
X-1159D01*
X3839Y540323D02*
Y536991D01*
Y538657D01*
X4672Y539490D01*
X5505Y540323D01*
X6338D01*
X8837Y536991D02*
X10503D01*
X9670D01*
Y541990D01*
X8837D01*
X13836Y540323D02*
X15502D01*
X16335Y539490D01*
Y536991D01*
X13836D01*
X13003Y537824D01*
X13836Y538657D01*
X16335D01*
X18001Y540323D02*
Y537824D01*
X18834Y536991D01*
X21333D01*
Y536158D01*
X20500Y535325D01*
X19667D01*
X21333Y536991D02*
Y540323D01*
X-44479Y706991D02*
Y711990D01*
X-41146Y706991D01*
Y711990D01*
X-38647Y710323D02*
X-36981D01*
X-36148Y709490D01*
Y706991D01*
X-38647D01*
X-39480Y707824D01*
X-38647Y708657D01*
X-36148D01*
X-34482Y706991D02*
Y710323D01*
X-33649D01*
X-32816Y709490D01*
Y706991D01*
Y709490D01*
X-31983Y710323D01*
X-31150Y709490D01*
Y706991D01*
X-26985D02*
X-28651D01*
X-29484Y707824D01*
Y709490D01*
X-28651Y710323D01*
X-26985D01*
X-26151Y709490D01*
Y708657D01*
X-29484D01*
X-78772Y696991D02*
X-77105D01*
X-77938D01*
Y701990D01*
X-78772Y701157D01*
X-75439Y686991D02*
X-78772D01*
X-75439Y690323D01*
Y691156D01*
X-76272Y691990D01*
X-77938D01*
X-78772Y691156D01*
Y681156D02*
X-77938Y681990D01*
X-76272D01*
X-75439Y681156D01*
Y680324D01*
X-76272Y679490D01*
X-77105D01*
X-76272D01*
X-75439Y678657D01*
Y677824D01*
X-76272Y676991D01*
X-77938D01*
X-78772Y677824D01*
X-76272Y666991D02*
Y671990D01*
X-78772Y669490D01*
X-75439D01*
Y661990D02*
X-78772D01*
Y659490D01*
X-77105Y660323D01*
X-76272D01*
X-75439Y659490D01*
Y657824D01*
X-76272Y656991D01*
X-77938D01*
X-78772Y657824D01*
X-75439Y651990D02*
X-77105Y651157D01*
X-78772Y649490D01*
Y647824D01*
X-77938Y646991D01*
X-76272D01*
X-75439Y647824D01*
Y648657D01*
X-76272Y649490D01*
X-78772D01*
Y641990D02*
X-75439D01*
Y641156D01*
X-78772Y637824D01*
Y636991D01*
Y631156D02*
X-77938Y631990D01*
X-76272D01*
X-75439Y631156D01*
Y630324D01*
X-76272Y629490D01*
X-75439Y628657D01*
Y627824D01*
X-76272Y626991D01*
X-77938D01*
X-78772Y627824D01*
Y628657D01*
X-77938Y629490D01*
X-78772Y630324D01*
Y631156D01*
X-77938Y629490D02*
X-76272D01*
X-78772Y617824D02*
X-77938Y616991D01*
X-76272D01*
X-75439Y617824D01*
Y621157D01*
X-76272Y621990D01*
X-77938D01*
X-78772Y621157D01*
Y620324D01*
X-77938Y619490D01*
X-75439D01*
X-78772Y606991D02*
X-77105D01*
X-77938D01*
Y611990D01*
X-78772Y611157D01*
X-74606D02*
X-73773Y611990D01*
X-72107D01*
X-71274Y611157D01*
Y607824D01*
X-72107Y606991D01*
X-73773D01*
X-74606Y607824D01*
Y611157D01*
X-78772Y596991D02*
X-77105D01*
X-77938D01*
Y601990D01*
X-78772Y601157D01*
X-74606Y596991D02*
X-72940D01*
X-73773D01*
Y601990D01*
X-74606Y601157D01*
X-78772Y586991D02*
X-77105D01*
X-77938D01*
Y591990D01*
X-78772Y591156D01*
X-71274Y586991D02*
X-74606D01*
X-71274Y590323D01*
Y591156D01*
X-72107Y591990D01*
X-73773D01*
X-74606Y591156D01*
X-78772Y576991D02*
X-77105D01*
X-77938D01*
Y581990D01*
X-78772Y581156D01*
X-74606D02*
X-73773Y581990D01*
X-72107D01*
X-71274Y581156D01*
Y580324D01*
X-72107Y579490D01*
X-72940D01*
X-72107D01*
X-71274Y578657D01*
Y577824D01*
X-72107Y576991D01*
X-73773D01*
X-74606Y577824D01*
X-78772Y566991D02*
X-77105D01*
X-77938D01*
Y571990D01*
X-78772Y571157D01*
X-72107Y566991D02*
Y571990D01*
X-74606Y569490D01*
X-71274D01*
X-78772Y556991D02*
X-77105D01*
X-77938D01*
Y561990D01*
X-78772Y561157D01*
X-71274Y561990D02*
X-74606D01*
Y559490D01*
X-72940Y560323D01*
X-72107D01*
X-71274Y559490D01*
Y557824D01*
X-72107Y556991D01*
X-73773D01*
X-74606Y557824D01*
X-78772Y546991D02*
X-77105D01*
X-77938D01*
Y551990D01*
X-78772Y551157D01*
X-71274Y551990D02*
X-72940Y551157D01*
X-74606Y549490D01*
Y547824D01*
X-73773Y546991D01*
X-72107D01*
X-71274Y547824D01*
Y548657D01*
X-72107Y549490D01*
X-74606D01*
X-78772Y536991D02*
X-77105D01*
X-77938D01*
Y541990D01*
X-78772Y541156D01*
X-74606Y541990D02*
X-71274D01*
Y541156D01*
X-74606Y537824D01*
Y536991D01*
X-78772Y711990D02*
Y706991D01*
X-75439D01*
X-72940Y710323D02*
X-71274D01*
X-70441Y709490D01*
Y706991D01*
X-72940D01*
X-73773Y707824D01*
X-72940Y708657D01*
X-70441D01*
X-68775Y710323D02*
Y707824D01*
X-67942Y706991D01*
X-65443D01*
Y706158D01*
X-66276Y705325D01*
X-67109D01*
X-65443Y706991D02*
Y710323D01*
X-61277Y706991D02*
X-62943D01*
X-63776Y707824D01*
Y709490D01*
X-62943Y710323D01*
X-61277D01*
X-60444Y709490D01*
Y708657D01*
X-63776D01*
X-58778Y710323D02*
Y706991D01*
Y708657D01*
X-57945Y709490D01*
X-57112Y710323D01*
X-56279D01*
G54D80*
X602279Y636475D02*
X601946Y637141D01*
X601280Y637808D01*
X600613Y638141D01*
X599280D01*
X598614Y637808D01*
X597947Y637141D01*
X597614Y636475D01*
X597281Y635475D01*
Y633808D01*
X597614Y632809D01*
X597947Y632142D01*
X598614Y631476D01*
X599280Y631142D01*
X600613D01*
X601280Y631476D01*
X601946Y632142D01*
X602279Y632809D01*
X604246Y634475D02*
X607245D01*
X608245Y634808D01*
X608578Y635141D01*
X608911Y635808D01*
Y636808D01*
X608578Y637474D01*
X608245Y637808D01*
X607245Y638141D01*
X604246D01*
Y631142D01*
X610478Y638141D02*
X612144Y631142D01*
X613810Y638141D02*
X612144Y631142D01*
X613810Y638141D02*
X615477Y631142D01*
X617143Y638141D02*
X615477Y631142D01*
X623541Y636475D02*
X623208Y637141D01*
X622542Y637808D01*
X621875Y638141D01*
X620542D01*
X619876Y637808D01*
X619209Y637141D01*
X618876Y636475D01*
X618543Y635475D01*
Y633808D01*
X618876Y632809D01*
X619209Y632142D01*
X619876Y631476D01*
X620542Y631142D01*
X621875D01*
X622542Y631476D01*
X623208Y632142D01*
X623541Y632809D01*
Y633808D01*
X621875D02*
X623541D01*
X595348Y626823D02*
X594681Y627489D01*
X593681Y627823D01*
X592348D01*
X591348Y627489D01*
X590682Y626823D01*
Y626156D01*
X591015Y625490D01*
X591348Y625156D01*
X592015Y624823D01*
X594015Y624157D01*
X594681Y623823D01*
X595014Y623490D01*
X595348Y622824D01*
Y621824D01*
X594681Y621157D01*
X593681Y620824D01*
X592348D01*
X591348Y621157D01*
X590682Y621824D01*
X596914Y624157D02*
X599913D01*
X600913Y624490D01*
X601246Y624823D01*
X601580Y625490D01*
Y626489D01*
X601246Y627156D01*
X600913Y627489D01*
X599913Y627823D01*
X596914D01*
Y620824D01*
X608478D02*
X605812Y627823D01*
X603146Y620824D01*
X604146Y623157D02*
X607478D01*
X615110Y626156D02*
X614777Y626823D01*
X614110Y627489D01*
X613444Y627823D01*
X612111D01*
X611444Y627489D01*
X610778Y626823D01*
X610444Y626156D01*
X610111Y625156D01*
Y623490D01*
X610444Y622490D01*
X610778Y621824D01*
X611444Y621157D01*
X612111Y620824D01*
X613444D01*
X614110Y621157D01*
X614777Y621824D01*
X615110Y622490D01*
X617076Y627823D02*
Y620824D01*
X618543Y627823D02*
Y620824D01*
Y627823D02*
X623208Y620824D01*
Y627823D02*
Y620824D01*
X630140Y626156D02*
X629807Y626823D01*
X629140Y627489D01*
X628474Y627823D01*
X627141D01*
X626474Y627489D01*
X625808Y626823D01*
X625474Y626156D01*
X625141Y625156D01*
Y623490D01*
X625474Y622490D01*
X625808Y621824D01*
X626474Y621157D01*
X627141Y620824D01*
X628474D01*
X629140Y621157D01*
X629807Y621824D01*
X630140Y622490D01*
Y623490D01*
X628474D02*
X630140D01*
X547261Y643859D02*
Y636861D01*
Y643859D02*
X549594D01*
X550594Y643526D01*
X551260Y642859D01*
X551594Y642193D01*
X551927Y641193D01*
Y639527D01*
X551594Y638527D01*
X551260Y637860D01*
X550594Y637194D01*
X549594Y636861D01*
X547261D01*
X553493Y643859D02*
Y636861D01*
X554960Y643859D02*
Y636861D01*
Y643859D02*
X559292D01*
X554960Y640526D02*
X557626D01*
X560092Y643859D02*
Y636861D01*
Y643859D02*
X564424D01*
X560092Y640526D02*
X562758D01*
X565557Y637527D02*
X565224Y637194D01*
X565557Y636861D01*
X565891Y637194D01*
X565557Y637527D01*
X546911Y629875D02*
X549911D01*
X550911Y630208D01*
X551244Y630542D01*
X551577Y631208D01*
Y632208D01*
X551244Y632874D01*
X550911Y633208D01*
X549911Y633541D01*
X546911D01*
Y626542D01*
X558475D02*
X555809Y633541D01*
X553143Y626542D01*
X554143Y628875D02*
X557476D01*
X560109Y633541D02*
Y626542D01*
X561575Y633541D02*
Y626542D01*
Y633541D02*
X564574D01*
X565574Y633208D01*
X565907Y632874D01*
X566241Y632208D01*
Y631541D01*
X565907Y630875D01*
X565574Y630542D01*
X564574Y630208D01*
X561575D01*
X563908D02*
X566241Y626542D01*
X541512Y622223D02*
X540846Y622889D01*
X539846Y623223D01*
X538513D01*
X537513Y622889D01*
X536847Y622223D01*
Y621556D01*
X537180Y620890D01*
X537513Y620557D01*
X538180Y620223D01*
X540179Y619557D01*
X540846Y619224D01*
X541179Y618890D01*
X541512Y618224D01*
Y617224D01*
X540846Y616558D01*
X539846Y616224D01*
X538513D01*
X537513Y616558D01*
X536847Y617224D01*
X543079Y619557D02*
X546078D01*
X547078Y619890D01*
X547411Y620223D01*
X547745Y620890D01*
Y621890D01*
X547411Y622556D01*
X547078Y622889D01*
X546078Y623223D01*
X543079D01*
Y616224D01*
X554643D02*
X551977Y623223D01*
X549311Y616224D01*
X550311Y618557D02*
X553643D01*
X561275Y621556D02*
X560942Y622223D01*
X560275Y622889D01*
X559609Y623223D01*
X558276D01*
X557609Y622889D01*
X556943Y622223D01*
X556609Y621556D01*
X556276Y620557D01*
Y618890D01*
X556609Y617891D01*
X556943Y617224D01*
X557609Y616558D01*
X558276Y616224D01*
X559609D01*
X560275Y616558D01*
X560942Y617224D01*
X561275Y617891D01*
X563241Y623223D02*
Y616224D01*
X564708Y623223D02*
Y616224D01*
Y623223D02*
X569373Y616224D01*
Y623223D02*
Y616224D01*
X576305Y621556D02*
X575972Y622223D01*
X575305Y622889D01*
X574639Y623223D01*
X573306D01*
X572639Y622889D01*
X571973Y622223D01*
X571639Y621556D01*
X571306Y620557D01*
Y618890D01*
X571639Y617891D01*
X571973Y617224D01*
X572639Y616558D01*
X573306Y616224D01*
X574639D01*
X575305Y616558D01*
X575972Y617224D01*
X576305Y617891D01*
Y618890D01*
X574639D02*
X576305D01*
X365301Y628437D02*
Y621439D01*
X369300D01*
X375398D02*
X372732Y628437D01*
X370066Y621439D01*
X371066Y623772D02*
X374399D01*
X377031Y628437D02*
X379698Y625105D01*
Y621439D01*
X382364Y628437D02*
X379698Y625105D01*
X387596Y628437D02*
X383263D01*
Y621439D01*
X387596D01*
X383263Y625105D02*
X385930D01*
X388762Y628437D02*
Y621439D01*
Y628437D02*
X391762D01*
X392761Y628104D01*
X393095Y627771D01*
X393428Y627104D01*
Y626438D01*
X393095Y625771D01*
X392761Y625438D01*
X391762Y625105D01*
X388762D01*
X391095D02*
X393428Y621439D01*
X400493Y628437D02*
Y621439D01*
Y628437D02*
X405159Y621439D01*
Y628437D02*
Y621439D01*
X409091Y628437D02*
X408425Y628104D01*
X407758Y627438D01*
X407425Y626771D01*
X407092Y625771D01*
Y624105D01*
X407425Y623105D01*
X407758Y622439D01*
X408425Y621772D01*
X409091Y621439D01*
X410424D01*
X411091Y621772D01*
X411757Y622439D01*
X412091Y623105D01*
X412424Y624105D01*
Y625771D01*
X412091Y626771D01*
X411757Y627438D01*
X411091Y628104D01*
X410424Y628437D01*
X409091D01*
X434851Y626771D02*
X434518Y627438D01*
X433851Y628104D01*
X433184Y628437D01*
X431851D01*
X431185Y628104D01*
X430518Y627438D01*
X430185Y626771D01*
X429852Y625771D01*
Y624105D01*
X430185Y623105D01*
X430518Y622439D01*
X431185Y621772D01*
X431851Y621439D01*
X433184D01*
X433851Y621772D01*
X434518Y622439D01*
X434851Y623105D01*
X438817Y628437D02*
X438150Y628104D01*
X437484Y627438D01*
X437150Y626771D01*
X436817Y625771D01*
Y624105D01*
X437150Y623105D01*
X437484Y622439D01*
X438150Y621772D01*
X438817Y621439D01*
X440150D01*
X440816Y621772D01*
X441483Y622439D01*
X441816Y623105D01*
X442149Y624105D01*
Y625771D01*
X441816Y626771D01*
X441483Y627438D01*
X440816Y628104D01*
X440150Y628437D01*
X438817D01*
X443782D02*
Y621439D01*
Y628437D02*
X448448Y621439D01*
Y628437D02*
Y621439D01*
X450381Y628437D02*
Y621439D01*
Y628437D02*
X452714D01*
X453714Y628104D01*
X454380Y627438D01*
X454713Y626771D01*
X455047Y625771D01*
Y624105D01*
X454713Y623105D01*
X454380Y622439D01*
X453714Y621772D01*
X452714Y621439D01*
X450381D01*
X456613Y628437D02*
Y623439D01*
X456946Y622439D01*
X457613Y621772D01*
X458612Y621439D01*
X459279D01*
X460279Y621772D01*
X460945Y622439D01*
X461278Y623439D01*
Y628437D01*
X468210Y626771D02*
X467877Y627438D01*
X467211Y628104D01*
X466544Y628437D01*
X465211D01*
X464544Y628104D01*
X463878Y627438D01*
X463545Y626771D01*
X463211Y625771D01*
Y624105D01*
X463545Y623105D01*
X463878Y622439D01*
X464544Y621772D01*
X465211Y621439D01*
X466544D01*
X467211Y621772D01*
X467877Y622439D01*
X468210Y623105D01*
X472509Y628437D02*
Y621439D01*
X470177Y628437D02*
X474842D01*
X477675D02*
X477008Y628104D01*
X476342Y627438D01*
X476009Y626771D01*
X475675Y625771D01*
Y624105D01*
X476009Y623105D01*
X476342Y622439D01*
X477008Y621772D01*
X477675Y621439D01*
X479008D01*
X479674Y621772D01*
X480341Y622439D01*
X480674Y623105D01*
X481008Y624105D01*
Y625771D01*
X480674Y626771D01*
X480341Y627438D01*
X479674Y628104D01*
X479008Y628437D01*
X477675D01*
X482641D02*
Y621439D01*
Y628437D02*
X485640D01*
X486640Y628104D01*
X486973Y627771D01*
X487306Y627104D01*
Y626438D01*
X486973Y625771D01*
X486640Y625438D01*
X485640Y625105D01*
X482641D01*
X484973D02*
X487306Y621439D01*
X494371Y628437D02*
X496038Y621439D01*
X497704Y628437D02*
X496038Y621439D01*
X497704Y628437D02*
X499370Y621439D01*
X501037Y628437D02*
X499370Y621439D01*
X502436Y628437D02*
Y621439D01*
X503903Y628437D02*
Y621439D01*
Y628437D02*
X506236D01*
X507235Y628104D01*
X507902Y627438D01*
X508235Y626771D01*
X508568Y625771D01*
Y624105D01*
X508235Y623105D01*
X507902Y622439D01*
X507235Y621772D01*
X506236Y621439D01*
X503903D01*
X512467Y628437D02*
Y621439D01*
X510135Y628437D02*
X514800D01*
X515633D02*
Y621439D01*
X520299Y628437D02*
Y621439D01*
X515633Y625105D02*
X520299D01*
X463254Y601551D02*
X459922Y594553D01*
X458589Y601551D02*
X463254D01*
X465154Y595219D02*
X464821Y594886D01*
X465154Y594553D01*
X465487Y594886D01*
X465154Y595219D01*
X469020Y601551D02*
X468020Y601218D01*
X467354Y600218D01*
X467020Y598552D01*
Y597552D01*
X467354Y595886D01*
X468020Y594886D01*
X469020Y594553D01*
X469686D01*
X470686Y594886D01*
X471353Y595886D01*
X471686Y597552D01*
Y598552D01*
X471353Y600218D01*
X470686Y601218D01*
X469686Y601551D01*
X469020D01*
X474919D02*
X473919Y601218D01*
X473586Y600551D01*
Y599885D01*
X473919Y599218D01*
X474585Y598885D01*
X475918Y598552D01*
X476918Y598219D01*
X477585Y597552D01*
X477918Y596885D01*
Y595886D01*
X477585Y595219D01*
X477251Y594886D01*
X476252Y594553D01*
X474919D01*
X473919Y594886D01*
X473586Y595219D01*
X473252Y595886D01*
Y596885D01*
X473586Y597552D01*
X474252Y598219D01*
X475252Y598552D01*
X476585Y598885D01*
X477251Y599218D01*
X477585Y599885D01*
Y600551D01*
X477251Y601218D01*
X476252Y601551D01*
X474919D01*
X479484Y599218D02*
Y594553D01*
Y597885D02*
X480484Y598885D01*
X481151Y599218D01*
X482150D01*
X482817Y598885D01*
X483150Y597885D01*
Y594553D01*
Y597885D02*
X484150Y598885D01*
X484817Y599218D01*
X485816D01*
X486483Y598885D01*
X486816Y597885D01*
Y594553D01*
X489682Y601551D02*
X490015Y601218D01*
X490349Y601551D01*
X490015Y601885D01*
X489682Y601551D01*
X490015Y599218D02*
Y594553D01*
X491582Y601551D02*
Y594553D01*
X544490Y600971D02*
Y593972D01*
Y600971D02*
X549156Y593972D01*
Y600971D02*
Y593972D01*
X551088Y592973D02*
X555754Y600971D01*
X561553Y593972D02*
X558887Y600971D01*
X556221Y593972D01*
X557220Y596305D02*
X560553D01*
X649849Y628425D02*
Y621426D01*
X651315Y628425D02*
Y621426D01*
Y628425D02*
X653981Y621426D01*
X656647Y628425D02*
X653981Y621426D01*
X656647Y628425D02*
Y621426D01*
X658647Y624759D02*
X661646D01*
X662646Y625092D01*
X662979Y625425D01*
X663313Y626092D01*
Y627092D01*
X662979Y627758D01*
X662646Y628091D01*
X661646Y628425D01*
X658647D01*
Y621426D01*
X669211Y628425D02*
X664879D01*
Y621426D01*
X669211D01*
X664879Y625092D02*
X667545D01*
X670378Y628425D02*
Y621426D01*
Y628425D02*
X672711D01*
X673710Y628091D01*
X674377Y627425D01*
X674710Y626758D01*
X675043Y625759D01*
Y624092D01*
X674710Y623092D01*
X674377Y622426D01*
X673710Y621759D01*
X672711Y621426D01*
X670378D01*
X681942D02*
X679276Y628425D01*
X676610Y621426D01*
X677610Y623759D02*
X680942D01*
X683575Y628425D02*
Y621426D01*
Y628425D02*
X688241Y621426D01*
Y628425D02*
Y621426D01*
X695173Y626758D02*
X694839Y627425D01*
X694173Y628091D01*
X693506Y628425D01*
X692173D01*
X691507Y628091D01*
X690840Y627425D01*
X690507Y626758D01*
X690174Y625759D01*
Y624092D01*
X690507Y623092D01*
X690840Y622426D01*
X691507Y621759D01*
X692173Y621426D01*
X693506D01*
X694173Y621759D01*
X694839Y622426D01*
X695173Y623092D01*
X701471Y628425D02*
X697139D01*
Y621426D01*
X701471D01*
X697139Y625092D02*
X699805D01*
X711136Y627425D02*
Y621426D01*
X708136Y624426D02*
X714135D01*
X716201Y620426D02*
X720867Y628425D01*
X721334Y624426D02*
X727332D01*
X729398Y627092D02*
X730065Y627425D01*
X731065Y628425D01*
Y621426D01*
X736530Y628425D02*
X735531Y628091D01*
X734864Y627092D01*
X734531Y625425D01*
Y624426D01*
X734864Y622759D01*
X735531Y621759D01*
X736530Y621426D01*
X737197D01*
X738197Y621759D01*
X738863Y622759D01*
X739196Y624426D01*
Y625425D01*
X738863Y627092D01*
X738197Y628091D01*
X737197Y628425D01*
X736530D01*
X746761D02*
X740763Y621426D01*
X742429Y628425D02*
X743096Y627758D01*
Y627092D01*
X742762Y626425D01*
X742096Y626092D01*
X741429D01*
X740763Y626758D01*
Y627425D01*
X741096Y628091D01*
X741762Y628425D01*
X742429D01*
X743096Y628091D01*
X744095Y627758D01*
X745095D01*
X746095Y628091D01*
X746761Y628425D01*
X745428Y623759D02*
X744762Y623426D01*
X744429Y622759D01*
Y622093D01*
X745095Y621426D01*
X745762D01*
X746428Y621759D01*
X746761Y622426D01*
Y623092D01*
X746095Y623759D01*
X745428D01*
X678599Y600965D02*
X675267D01*
X674933Y597966D01*
X675267Y598299D01*
X676266Y598633D01*
X677266D01*
X678266Y598299D01*
X678933Y597633D01*
X679266Y596633D01*
Y595967D01*
X678933Y594967D01*
X678266Y594300D01*
X677266Y593967D01*
X676266D01*
X675267Y594300D01*
X674933Y594633D01*
X674600Y595300D01*
X682832Y600965D02*
X681832Y600632D01*
X681166Y599632D01*
X680832Y597966D01*
Y596966D01*
X681166Y595300D01*
X681832Y594300D01*
X682832Y593967D01*
X683498D01*
X684498Y594300D01*
X685165Y595300D01*
X685498Y596966D01*
Y597966D01*
X685165Y599632D01*
X684498Y600632D01*
X683498Y600965D01*
X682832D01*
X688730Y598633D02*
X688064Y598299D01*
X687397Y597633D01*
X687064Y596633D01*
Y595967D01*
X687397Y594967D01*
X688064Y594300D01*
X688730Y593967D01*
X689730D01*
X690397Y594300D01*
X691063Y594967D01*
X691397Y595967D01*
Y596633D01*
X691063Y597633D01*
X690397Y598299D01*
X689730Y598633D01*
X688730D01*
X692930Y600965D02*
Y593967D01*
Y597300D02*
X693929Y598299D01*
X694596Y598633D01*
X695596D01*
X696262Y598299D01*
X696595Y597300D01*
Y593967D01*
X698428Y598633D02*
Y593967D01*
Y597300D02*
X699428Y598299D01*
X700095Y598633D01*
X701094D01*
X701761Y598299D01*
X702094Y597300D01*
Y593967D01*
Y597300D02*
X703094Y598299D01*
X703761Y598633D01*
X704760D01*
X705427Y598299D01*
X705760Y597300D01*
Y593967D01*
X767953Y628425D02*
Y621426D01*
Y628425D02*
X770953D01*
X771952Y628091D01*
X772286Y627758D01*
X772619Y627092D01*
Y626425D01*
X772286Y625759D01*
X771952Y625425D01*
X770953Y625092D01*
X767953D01*
X770286D02*
X772619Y621426D01*
X778518Y628425D02*
X774185D01*
Y621426D01*
X778518D01*
X774185Y625092D02*
X776851D01*
X779684Y628425D02*
Y621426D01*
Y628425D02*
X784017D01*
X779684Y625092D02*
X782350D01*
X789149Y628425D02*
X784816D01*
Y621426D01*
X789149D01*
X784816Y625092D02*
X787482D01*
X790315Y628425D02*
Y621426D01*
Y628425D02*
X793315D01*
X794314Y628091D01*
X794648Y627758D01*
X794981Y627092D01*
Y626425D01*
X794648Y625759D01*
X794314Y625425D01*
X793315Y625092D01*
X790315D01*
X792648D02*
X794981Y621426D01*
X800880Y628425D02*
X796547D01*
Y621426D01*
X800880D01*
X796547Y625092D02*
X799213D01*
X802046Y628425D02*
Y621426D01*
Y628425D02*
X806712Y621426D01*
Y628425D02*
Y621426D01*
X813643Y626758D02*
X813310Y627425D01*
X812644Y628091D01*
X811977Y628425D01*
X810644D01*
X809978Y628091D01*
X809311Y627425D01*
X808978Y626758D01*
X808645Y625759D01*
Y624092D01*
X808978Y623092D01*
X809311Y622426D01*
X809978Y621759D01*
X810644Y621426D01*
X811977D01*
X812644Y621759D01*
X813310Y622426D01*
X813643Y623092D01*
X819942Y628425D02*
X815610D01*
Y621426D01*
X819942D01*
X815610Y625092D02*
X818276D01*
X831606Y626758D02*
X831273Y627425D01*
X830606Y628091D01*
X829940Y628425D01*
X828607D01*
X827940Y628091D01*
X827274Y627425D01*
X826941Y626758D01*
X826607Y625759D01*
Y624092D01*
X826941Y623092D01*
X827274Y622426D01*
X827940Y621759D01*
X828607Y621426D01*
X829940D01*
X830606Y621759D01*
X831273Y622426D01*
X831606Y623092D01*
Y624092D01*
X829940D02*
X831606D01*
X833206Y628425D02*
Y621426D01*
Y628425D02*
X837872Y621426D01*
Y628425D02*
Y621426D01*
X839805Y628425D02*
Y621426D01*
Y628425D02*
X842137D01*
X843137Y628091D01*
X843804Y627425D01*
X844137Y626758D01*
X844470Y625759D01*
Y624092D01*
X844137Y623092D01*
X843804Y622426D01*
X843137Y621759D01*
X842137Y621426D01*
X839805D01*
X797874Y599625D02*
X797541Y600291D01*
X796874Y600958D01*
X796208Y601291D01*
X794875D01*
X794208Y600958D01*
X793542Y600291D01*
X793209Y599625D01*
X792875Y598625D01*
Y596959D01*
X793209Y595959D01*
X793542Y595293D01*
X794208Y594626D01*
X794875Y594293D01*
X796208D01*
X796874Y594626D01*
X797541Y595293D01*
X797874Y595959D01*
Y596959D01*
X796208D02*
X797874D01*
X799474Y601291D02*
Y594293D01*
Y601291D02*
X804140Y594293D01*
Y601291D02*
Y594293D01*
X806073Y601291D02*
Y594293D01*
Y601291D02*
X808405D01*
X809405Y600958D01*
X810072Y600291D01*
X810405Y599625D01*
X810738Y598625D01*
Y596959D01*
X810405Y595959D01*
X810072Y595293D01*
X809405Y594626D01*
X808405Y594293D01*
X806073D01*
X376255Y599971D02*
X376921Y600304D01*
X377921Y601304D01*
Y594306D01*
X389219Y602637D02*
X388552Y601970D01*
X387885Y600971D01*
X387219Y599638D01*
X386886Y597971D01*
Y596638D01*
X387219Y594972D01*
X387885Y593639D01*
X388552Y592639D01*
X389219Y591973D01*
X388552Y601970D02*
X387885Y600637D01*
X387552Y599638D01*
X387219Y597971D01*
Y596638D01*
X387552Y594972D01*
X387885Y593972D01*
X388552Y592639D01*
X392884Y601304D02*
Y594306D01*
X390552Y601304D02*
X395217D01*
X398050D02*
X397383Y600971D01*
X396717Y600304D01*
X396384Y599638D01*
X396051Y598638D01*
Y596972D01*
X396384Y595972D01*
X396717Y595305D01*
X397383Y594639D01*
X398050Y594306D01*
X399383D01*
X400050Y594639D01*
X400716Y595305D01*
X401049Y595972D01*
X401383Y596972D01*
Y598638D01*
X401049Y599638D01*
X400716Y600304D01*
X400050Y600971D01*
X399383Y601304D01*
X398050D01*
X403016Y597638D02*
X406015D01*
X407015Y597971D01*
X407348Y598305D01*
X407681Y598971D01*
Y599971D01*
X407348Y600637D01*
X407015Y600971D01*
X406015Y601304D01*
X403016D01*
Y594306D01*
X409248Y602637D02*
X409914Y601970D01*
X410581Y600971D01*
X411247Y599638D01*
X411581Y597971D01*
Y596638D01*
X411247Y594972D01*
X410581Y593639D01*
X409914Y592639D01*
X409248Y591973D01*
X409914Y601970D02*
X410581Y600637D01*
X410914Y599638D01*
X411247Y597971D01*
Y596638D01*
X410914Y594972D01*
X410581Y593972D01*
X409914Y592639D01*
X597475Y600218D02*
X597142Y600885D01*
X596142Y601218D01*
X595476D01*
X594476Y600885D01*
X593809Y599885D01*
X593476Y598219D01*
Y596552D01*
X593809Y595219D01*
X594476Y594553D01*
X595476Y594219D01*
X595809D01*
X596809Y594553D01*
X597475Y595219D01*
X597809Y596219D01*
Y596552D01*
X597475Y597552D01*
X596809Y598219D01*
X595809Y598552D01*
X595476D01*
X594476Y598219D01*
X593809Y597552D01*
X593476Y596552D01*
X599675Y594886D02*
X599341Y594553D01*
X599675Y594219D01*
X600008Y594553D01*
X599675Y594886D01*
X606207Y601218D02*
X602874Y594219D01*
X601541Y601218D02*
X606207D01*
X608440D02*
X612105D01*
X610106Y598552D01*
X611106D01*
X611772Y598219D01*
X612105Y597885D01*
X612439Y596885D01*
Y596219D01*
X612105Y595219D01*
X611439Y594553D01*
X610439Y594219D01*
X609439D01*
X608440Y594553D01*
X608106Y594886D01*
X607773Y595552D01*
X614005Y598885D02*
Y594219D01*
Y597552D02*
X615005Y598552D01*
X615671Y598885D01*
X616671D01*
X617338Y598552D01*
X617671Y597552D01*
Y594219D01*
Y597552D02*
X618671Y598552D01*
X619337Y598885D01*
X620337D01*
X621003Y598552D01*
X621337Y597552D01*
Y594219D01*
X624203Y601218D02*
X624536Y600885D01*
X624869Y601218D01*
X624536Y601551D01*
X624203Y601218D01*
X624536Y598885D02*
Y594219D01*
X626102Y601218D02*
Y594219D01*
X597980Y571458D02*
Y564459D01*
Y571458D02*
X602646Y564459D01*
Y571458D02*
Y564459D01*
X604579Y563460D02*
X609245Y571458D01*
X615043Y564459D02*
X612377Y571458D01*
X609711Y564459D01*
X610711Y566792D02*
X614044D01*
X797874Y570125D02*
X797541Y570791D01*
X796874Y571458D01*
X796208Y571791D01*
X794875D01*
X794208Y571458D01*
X793542Y570791D01*
X793209Y570125D01*
X792875Y569125D01*
Y567459D01*
X793209Y566459D01*
X793542Y565793D01*
X794208Y565126D01*
X794875Y564793D01*
X796208D01*
X796874Y565126D01*
X797541Y565793D01*
X797874Y566459D01*
Y567459D01*
X796208D02*
X797874D01*
X799474Y571791D02*
Y564793D01*
Y571791D02*
X804140Y564793D01*
Y571791D02*
Y564793D01*
X806073Y571791D02*
Y564793D01*
Y571791D02*
X808405D01*
X809405Y571458D01*
X810072Y570791D01*
X810405Y570125D01*
X810738Y569125D01*
Y567459D01*
X810405Y566459D01*
X810072Y565793D01*
X809405Y565126D01*
X808405Y564793D01*
X806073D01*
X674600Y570132D02*
X675267Y570466D01*
X676266Y571465D01*
Y564467D01*
X681732Y571465D02*
X680732Y571132D01*
X680066Y570132D01*
X679732Y568466D01*
Y567466D01*
X680066Y565800D01*
X680732Y564800D01*
X681732Y564467D01*
X682399D01*
X683398Y564800D01*
X684065Y565800D01*
X684398Y567466D01*
Y568466D01*
X684065Y570132D01*
X683398Y571132D01*
X682399Y571465D01*
X681732D01*
X687964D02*
X686964Y571132D01*
X686298Y570132D01*
X685964Y568466D01*
Y567466D01*
X686298Y565800D01*
X686964Y564800D01*
X687964Y564467D01*
X688630D01*
X689630Y564800D01*
X690297Y565800D01*
X690630Y567466D01*
Y568466D01*
X690297Y570132D01*
X689630Y571132D01*
X688630Y571465D01*
X687964D01*
X693863Y569133D02*
X693196Y568799D01*
X692530Y568133D01*
X692196Y567133D01*
Y566467D01*
X692530Y565467D01*
X693196Y564800D01*
X693863Y564467D01*
X694863D01*
X695529Y564800D01*
X696196Y565467D01*
X696529Y566467D01*
Y567133D01*
X696196Y568133D01*
X695529Y568799D01*
X694863Y569133D01*
X693863D01*
X698062Y571465D02*
Y564467D01*
Y567800D02*
X699062Y568799D01*
X699728Y569133D01*
X700728D01*
X701395Y568799D01*
X701728Y567800D01*
Y564467D01*
X703561Y569133D02*
Y564467D01*
Y567800D02*
X704561Y568799D01*
X705227Y569133D01*
X706227D01*
X706893Y568799D01*
X707227Y567800D01*
Y564467D01*
Y567800D02*
X708226Y568799D01*
X708893Y569133D01*
X709893D01*
X710559Y568799D01*
X710892Y567800D01*
Y564467D01*
X548489Y571471D02*
X545156D01*
X544823Y568471D01*
X545156Y568805D01*
X546156Y569138D01*
X547156D01*
X548156Y568805D01*
X548822Y568138D01*
X549156Y567138D01*
Y566472D01*
X548822Y565472D01*
X548156Y564806D01*
X547156Y564472D01*
X546156D01*
X545156Y564806D01*
X544823Y565139D01*
X544490Y565805D01*
X550722Y569138D02*
Y564472D01*
Y567805D02*
X551722Y568805D01*
X552388Y569138D01*
X553388D01*
X554054Y568805D01*
X554388Y567805D01*
Y564472D01*
Y567805D02*
X555387Y568805D01*
X556054Y569138D01*
X557054D01*
X557720Y568805D01*
X558054Y567805D01*
Y564472D01*
X560920Y571471D02*
X561253Y571138D01*
X561586Y571471D01*
X561253Y571804D01*
X560920Y571471D01*
X561253Y569138D02*
Y564472D01*
X562819Y571471D02*
Y564472D01*
X462588Y572051D02*
X459255D01*
X458922Y569052D01*
X459255Y569385D01*
X460255Y569718D01*
X461255D01*
X462255Y569385D01*
X462921Y568719D01*
X463254Y567719D01*
Y567052D01*
X462921Y566052D01*
X462255Y565386D01*
X461255Y565053D01*
X460255D01*
X459255Y565386D01*
X458922Y565719D01*
X458589Y566386D01*
X465154Y565719D02*
X464821Y565386D01*
X465154Y565053D01*
X465487Y565386D01*
X465154Y565719D01*
X467354Y570385D02*
Y570718D01*
X467687Y571385D01*
X468020Y571718D01*
X468687Y572051D01*
X470020D01*
X470686Y571718D01*
X471020Y571385D01*
X471353Y570718D01*
Y570052D01*
X471020Y569385D01*
X470353Y568385D01*
X467020Y565053D01*
X471686D01*
X473252Y569718D02*
Y565053D01*
Y568385D02*
X474252Y569385D01*
X474919Y569718D01*
X475918D01*
X476585Y569385D01*
X476918Y568385D01*
Y565053D01*
Y568385D02*
X477918Y569385D01*
X478584Y569718D01*
X479584D01*
X480251Y569385D01*
X480584Y568385D01*
Y565053D01*
X483450Y572051D02*
X483783Y571718D01*
X484117Y572051D01*
X483783Y572385D01*
X483450Y572051D01*
X483783Y569718D02*
Y565053D01*
X485350Y572051D02*
Y565053D01*
X376255Y570471D02*
X376921Y570804D01*
X377921Y571804D01*
Y564806D01*
X389219Y573137D02*
X388552Y572471D01*
X387885Y571471D01*
X387219Y570138D01*
X386886Y568471D01*
Y567138D01*
X387219Y565472D01*
X387885Y564139D01*
X388552Y563139D01*
X389219Y562473D01*
X388552Y572471D02*
X387885Y571138D01*
X387552Y570138D01*
X387219Y568471D01*
Y567138D01*
X387552Y565472D01*
X387885Y564472D01*
X388552Y563139D01*
X392884Y571804D02*
Y564806D01*
X390552Y571804D02*
X395217D01*
X398050D02*
X397383Y571471D01*
X396717Y570804D01*
X396384Y570138D01*
X396051Y569138D01*
Y567472D01*
X396384Y566472D01*
X396717Y565805D01*
X397383Y565139D01*
X398050Y564806D01*
X399383D01*
X400050Y565139D01*
X400716Y565805D01*
X401049Y566472D01*
X401383Y567472D01*
Y569138D01*
X401049Y570138D01*
X400716Y570804D01*
X400050Y571471D01*
X399383Y571804D01*
X398050D01*
X403016Y568138D02*
X406015D01*
X407015Y568471D01*
X407348Y568805D01*
X407681Y569471D01*
Y570471D01*
X407348Y571138D01*
X407015Y571471D01*
X406015Y571804D01*
X403016D01*
Y564806D01*
X409248Y573137D02*
X409914Y572471D01*
X410581Y571471D01*
X411247Y570138D01*
X411581Y568471D01*
Y567138D01*
X411247Y565472D01*
X410581Y564139D01*
X409914Y563139D01*
X409248Y562473D01*
X409914Y572471D02*
X410581Y571138D01*
X410914Y570138D01*
X411247Y568471D01*
Y567138D01*
X410914Y565472D01*
X410581Y564472D01*
X409914Y563139D01*
X360083Y662593D02*
Y655594D01*
X361549Y662593D02*
Y655594D01*
Y662593D02*
X364215Y655594D01*
X366881Y662593D02*
X364215Y655594D01*
X366881Y662593D02*
Y655594D01*
X368881Y658927D02*
X371880D01*
X372880Y659260D01*
X373213Y659593D01*
X373547Y660260D01*
Y661260D01*
X373213Y661926D01*
X372880Y662259D01*
X371880Y662593D01*
X368881D01*
Y655594D01*
X379445Y662593D02*
X375113D01*
Y655594D01*
X379445D01*
X375113Y659260D02*
X377779D01*
X380612Y662593D02*
Y655594D01*
Y662593D02*
X382944D01*
X383944Y662259D01*
X384611Y661593D01*
X384944Y660926D01*
X385277Y659927D01*
Y658260D01*
X384944Y657261D01*
X384611Y656594D01*
X383944Y655928D01*
X382944Y655594D01*
X380612D01*
X392176D02*
X389510Y662593D01*
X386844Y655594D01*
X387843Y657927D02*
X391176D01*
X393809Y662593D02*
Y655594D01*
Y662593D02*
X398475Y655594D01*
Y662593D02*
Y655594D01*
X405406Y660926D02*
X405073Y661593D01*
X404406Y662259D01*
X403740Y662593D01*
X402407D01*
X401740Y662259D01*
X401074Y661593D01*
X400741Y660926D01*
X400407Y659927D01*
Y658260D01*
X400741Y657261D01*
X401074Y656594D01*
X401740Y655928D01*
X402407Y655594D01*
X403740D01*
X404406Y655928D01*
X405073Y656594D01*
X405406Y657261D01*
X411705Y662593D02*
X407373D01*
Y655594D01*
X411705D01*
X407373Y659260D02*
X410039D01*
X420703Y662593D02*
Y655594D01*
X418370Y662593D02*
X423036D01*
X429201Y655594D02*
X426535Y662593D01*
X423869Y655594D01*
X424869Y657927D02*
X428201D01*
X430834Y662593D02*
Y655594D01*
Y662593D02*
X433834D01*
X434833Y662259D01*
X435167Y661926D01*
X435500Y661260D01*
Y660593D01*
X435167Y659927D01*
X434833Y659593D01*
X433834Y659260D01*
X430834D02*
X433834D01*
X434833Y658927D01*
X435167Y658594D01*
X435500Y657927D01*
Y656927D01*
X435167Y656261D01*
X434833Y655928D01*
X433834Y655594D01*
X430834D01*
X437066Y662593D02*
Y655594D01*
X441065D01*
X446164Y662593D02*
X441832D01*
Y655594D01*
X446164D01*
X441832Y659260D02*
X444498D01*
X453163Y660260D02*
X452830Y659927D01*
X453163Y659593D01*
X453496Y659927D01*
X453163Y660260D01*
Y656261D02*
X452830Y655928D01*
X453163Y655594D01*
X453496Y655928D01*
X453163Y656261D01*
X169350Y-145900D02*
Y-139902D01*
X173349Y-145900D01*
Y-139902D01*
X175348Y-145900D02*
X179347Y-141901D01*
X181346Y-145900D02*
Y-141901D01*
X183345Y-139902D01*
X185345Y-141901D01*
Y-145900D01*
Y-142901D01*
X181346D01*
X114800Y-139902D02*
X118799D01*
X116799D01*
Y-145900D01*
X120798Y-139902D02*
X122797D01*
X121798D01*
Y-145900D01*
X120798D01*
X122797D01*
X125796Y-139902D02*
Y-145900D01*
X128796D01*
X129795Y-144900D01*
Y-140902D01*
X128796Y-139902D01*
X125796D01*
X138792Y-145900D02*
Y-139902D01*
X140792D02*
Y-145900D01*
X137793Y-141901D02*
X140792D01*
X141791D01*
X137793Y-143901D02*
X141791D01*
X143791Y-141901D02*
X144790D01*
Y-142901D01*
X143791D01*
Y-141901D01*
Y-144900D02*
X144790D01*
Y-145900D01*
X143791D01*
Y-144900D01*
X401300Y-160435D02*
X405299D01*
X403299D01*
Y-166434D01*
X411297Y-160435D02*
X407298D01*
Y-166434D01*
X411297D01*
X407298Y-163435D02*
X409297D01*
X413296Y-160435D02*
X417295Y-166434D01*
Y-160435D02*
X413296Y-166434D01*
X419294D02*
Y-162435D01*
X421293Y-160435D01*
X423293Y-162435D01*
Y-166434D01*
Y-163435D01*
X419294D01*
X429291Y-161435D02*
X428291Y-160435D01*
X426292D01*
X425292Y-161435D01*
Y-162435D01*
X426292Y-163435D01*
X428291D01*
X429291Y-164434D01*
Y-165434D01*
X428291Y-166434D01*
X426292D01*
X425292Y-165434D01*
X437288Y-160435D02*
X439288D01*
X438288D01*
Y-166434D01*
X437288D01*
X439288D01*
X442287D02*
Y-160435D01*
X446285Y-166434D01*
Y-160435D01*
X452283Y-161435D02*
X451284Y-160435D01*
X449285D01*
X448285Y-161435D01*
Y-162435D01*
X449285Y-163435D01*
X451284D01*
X452283Y-164434D01*
Y-165434D01*
X451284Y-166434D01*
X449285D01*
X448285Y-165434D01*
X454283Y-160435D02*
X458282D01*
X456282D01*
Y-166434D01*
X460281D02*
Y-160435D01*
X463280D01*
X464280Y-161435D01*
Y-163435D01*
X463280Y-164434D01*
X460281D01*
X462280D02*
X464280Y-166434D01*
X466279Y-160435D02*
Y-165434D01*
X467279Y-166434D01*
X469278D01*
X470278Y-165434D01*
Y-160435D01*
X472277Y-166434D02*
Y-160435D01*
X474276Y-162435D01*
X476276Y-160435D01*
Y-166434D01*
X482274Y-160435D02*
X478275D01*
Y-166434D01*
X482274D01*
X478275Y-163435D02*
X480274D01*
X484273Y-166434D02*
Y-160435D01*
X488272Y-166434D01*
Y-160435D01*
X490271D02*
X494270D01*
X492271D01*
Y-166434D01*
X500268Y-161435D02*
X499268Y-160435D01*
X497269D01*
X496269Y-161435D01*
Y-162435D01*
X497269Y-163435D01*
X499268D01*
X500268Y-164434D01*
Y-165434D01*
X499268Y-166434D01*
X497269D01*
X496269Y-165434D01*
X274850Y-166434D02*
X276849D01*
X275850D01*
Y-160435D01*
X274850Y-161435D01*
X279848Y-162435D02*
X280848D01*
Y-163435D01*
X279848D01*
Y-162435D01*
Y-165434D02*
X280848D01*
Y-166434D01*
X279848D01*
Y-165434D01*
X284847Y-161435D02*
X285846Y-160435D01*
X287846D01*
X288845Y-161435D01*
Y-162435D01*
X287846Y-163435D01*
X286846D01*
X287846D01*
X288845Y-164434D01*
Y-165434D01*
X287846Y-166434D01*
X285846D01*
X284847Y-165434D01*
X290845Y-161435D02*
X291845Y-160435D01*
X293844D01*
X294844Y-161435D01*
Y-162435D01*
X293844Y-163435D01*
X294844Y-164434D01*
Y-165434D01*
X293844Y-166434D01*
X291845D01*
X290845Y-165434D01*
Y-164434D01*
X291845Y-163435D01*
X290845Y-162435D01*
Y-161435D01*
X291845Y-163435D02*
X293844D01*
X296843Y-162435D02*
X297843D01*
Y-163435D01*
X296843D01*
Y-162435D01*
Y-165434D02*
X297843D01*
Y-166434D01*
X296843D01*
Y-165434D01*
X304840Y-166434D02*
Y-160435D01*
X301841Y-163435D01*
X305840D01*
X311838Y-160435D02*
X307839D01*
Y-163435D01*
X309839Y-162435D01*
X310838D01*
X311838Y-163435D01*
Y-165434D01*
X310838Y-166434D01*
X308839D01*
X307839Y-165434D01*
X319835Y-166434D02*
Y-160435D01*
X322834D01*
X323834Y-161435D01*
Y-163435D01*
X322834Y-164434D01*
X319835D01*
X325834Y-166434D02*
Y-160435D01*
X327833Y-162435D01*
X329832Y-160435D01*
Y-166434D01*
X-132850Y-139851D02*
Y-145849D01*
X-128851D01*
X-126852D02*
Y-141851D01*
X-124853Y-139851D01*
X-122853Y-141851D01*
Y-145849D01*
Y-142850D01*
X-126852D01*
X-120854Y-139851D02*
Y-140851D01*
X-118854Y-142850D01*
X-116855Y-140851D01*
Y-139851D01*
X-118854Y-142850D02*
Y-145849D01*
X-110857Y-139851D02*
X-114856D01*
Y-145849D01*
X-110857D01*
X-114856Y-142850D02*
X-112856D01*
X-108858Y-145849D02*
Y-139851D01*
X-105859D01*
X-104859Y-140851D01*
Y-142850D01*
X-105859Y-143850D01*
X-108858D01*
X-106858D02*
X-104859Y-145849D01*
X-96862D02*
Y-139851D01*
X-92863Y-145849D01*
Y-139851D01*
X-90864Y-145849D02*
Y-141851D01*
X-88864Y-139851D01*
X-86865Y-141851D01*
Y-145849D01*
Y-142850D01*
X-90864D01*
X-84865Y-145849D02*
Y-139851D01*
X-82866Y-141851D01*
X-80867Y-139851D01*
Y-145849D01*
X-74869Y-139851D02*
X-78868D01*
Y-145849D01*
X-74869D01*
X-78868Y-142850D02*
X-76868D01*
X-66871Y-143850D02*
X-62873D01*
X-66871Y-141851D02*
X-62873D01*
X114800Y-119569D02*
Y-125567D01*
X117799D01*
X118799Y-124567D01*
Y-123567D01*
X117799Y-122568D01*
X114800D01*
X117799D01*
X118799Y-121568D01*
Y-120568D01*
X117799Y-119569D01*
X114800D01*
X123797D02*
X121798D01*
X120798Y-120568D01*
Y-124567D01*
X121798Y-125567D01*
X123797D01*
X124797Y-124567D01*
Y-120568D01*
X123797Y-119569D01*
X126796Y-125567D02*
Y-121568D01*
X128796Y-119569D01*
X130795Y-121568D01*
Y-125567D01*
Y-122568D01*
X126796D01*
X132794Y-125567D02*
Y-119569D01*
X135793D01*
X136793Y-120568D01*
Y-122568D01*
X135793Y-123567D01*
X132794D01*
X134793D02*
X136793Y-125567D01*
X138792Y-119569D02*
Y-125567D01*
X141791D01*
X142791Y-124567D01*
Y-120568D01*
X141791Y-119569D01*
X138792D01*
X151788Y-125567D02*
Y-119569D01*
X153787D02*
Y-125567D01*
X150788Y-121568D02*
X153787D01*
X154787D01*
X150788Y-123567D02*
X154787D01*
X156786Y-121568D02*
X157786D01*
Y-122568D01*
X156786D01*
Y-121568D01*
Y-124567D02*
X157786D01*
Y-125567D01*
X156786D01*
Y-124567D01*
X169350Y-125567D02*
Y-119569D01*
X172349D01*
X173349Y-120568D01*
Y-122568D01*
X172349Y-123567D01*
X169350D01*
X175348Y-125567D02*
Y-119569D01*
X178347D01*
X179347Y-120568D01*
Y-122568D01*
X178347Y-123567D01*
X175348D01*
X177347D02*
X179347Y-125567D01*
X184345Y-119569D02*
X182346D01*
X181346Y-120568D01*
Y-124567D01*
X182346Y-125567D01*
X184345D01*
X185345Y-124567D01*
Y-120568D01*
X184345Y-119569D01*
X191343Y-120568D02*
X190343Y-119569D01*
X188344D01*
X187344Y-120568D01*
Y-124567D01*
X188344Y-125567D01*
X190343D01*
X191343Y-124567D01*
X193342Y-120568D02*
X194342Y-119569D01*
X196341D01*
X197341Y-120568D01*
Y-124567D01*
X196341Y-125567D01*
X194342D01*
X193342Y-124567D01*
Y-120568D01*
X199340Y-125567D02*
X201340D01*
X200340D01*
Y-119569D01*
X199340Y-120568D01*
X204339D02*
X205338Y-119569D01*
X207338D01*
X208337Y-120568D01*
Y-124567D01*
X207338Y-125567D01*
X205338D01*
X204339Y-124567D01*
Y-120568D01*
X282950Y-119569D02*
Y-125567D01*
X285949D01*
X286949Y-124567D01*
Y-123567D01*
X285949Y-122568D01*
X282950D01*
X285949D01*
X286949Y-121568D01*
Y-120568D01*
X285949Y-119569D01*
X282950D01*
X-132850Y-125567D02*
Y-121568D01*
X-130851Y-119569D01*
X-128851Y-121568D01*
Y-125567D01*
Y-122568D01*
X-132850D01*
X-126852Y-119569D02*
Y-125567D01*
X-122853D01*
X-120854Y-119569D02*
Y-125567D01*
X-116855D01*
X-108858D02*
Y-121568D01*
X-106858Y-119569D01*
X-104859Y-121568D01*
Y-125567D01*
Y-122568D01*
X-108858D01*
X-102860Y-125567D02*
Y-119569D01*
X-99861D01*
X-98861Y-120568D01*
Y-122568D01*
X-99861Y-123567D01*
X-102860D01*
X-100860D02*
X-98861Y-125567D01*
X-96862Y-119569D02*
X-92863D01*
X-94862D01*
Y-125567D01*
X-90864Y-119569D02*
Y-125567D01*
X-88864Y-123567D01*
X-86865Y-125567D01*
Y-119569D01*
X-81867D02*
X-83866D01*
X-84865Y-120568D01*
Y-124567D01*
X-83866Y-125567D01*
X-81867D01*
X-80867Y-124567D01*
Y-120568D01*
X-81867Y-119569D01*
X-78868Y-125567D02*
Y-119569D01*
X-75868D01*
X-74869Y-120568D01*
Y-122568D01*
X-75868Y-123567D01*
X-78868D01*
X-76868D02*
X-74869Y-125567D01*
X-72869Y-119569D02*
Y-125567D01*
Y-123567D01*
X-68871Y-119569D01*
X-71870Y-122568D01*
X-68871Y-125567D01*
X-60873Y-119569D02*
Y-123567D01*
X-58874Y-125567D01*
X-56875Y-123567D01*
Y-119569D01*
X-54875D02*
X-52876D01*
X-53875D01*
Y-125567D01*
X-54875D01*
X-52876D01*
X-45878Y-119569D02*
X-49877D01*
Y-125567D01*
X-45878D01*
X-49877Y-122568D02*
X-47877D01*
X-43879Y-119569D02*
Y-125567D01*
X-41879Y-123567D01*
X-39880Y-125567D01*
Y-119569D01*
X-33882D02*
X-37881D01*
Y-125567D01*
X-33882D01*
X-37881Y-122568D02*
X-35881D01*
X-31883Y-119569D02*
Y-125567D01*
X-28884D01*
X-27884Y-124567D01*
Y-120568D01*
X-28884Y-119569D01*
X-31883D01*
X-15888D02*
X-19886D01*
Y-122568D01*
X-17887D01*
X-19886D01*
Y-125567D01*
X-13889D02*
Y-119569D01*
X-10889D01*
X-9890Y-120568D01*
Y-122568D01*
X-10889Y-123567D01*
X-13889D01*
X-11889D02*
X-9890Y-125567D01*
X-4891Y-119569D02*
X-6891D01*
X-7890Y-120568D01*
Y-124567D01*
X-6891Y-125567D01*
X-4891D01*
X-3892Y-124567D01*
Y-120568D01*
X-4891Y-119569D01*
X-1892Y-125567D02*
Y-119569D01*
X107Y-121568D01*
X2106Y-119569D01*
Y-125567D01*
X10104Y-119569D02*
X14103D01*
X12103D01*
Y-125567D01*
X19101Y-119569D02*
X17101D01*
X16102Y-120568D01*
Y-124567D01*
X17101Y-125567D01*
X19101D01*
X20100Y-124567D01*
Y-120568D01*
X19101Y-119569D01*
X22100Y-125567D02*
Y-119569D01*
X25099D01*
X26099Y-120568D01*
Y-122568D01*
X25099Y-123567D01*
X22100D01*
X38095Y-120568D02*
X37095Y-119569D01*
X35096D01*
X34096Y-120568D01*
Y-121568D01*
X35096Y-122568D01*
X37095D01*
X38095Y-123567D01*
Y-124567D01*
X37095Y-125567D01*
X35096D01*
X34096Y-124567D01*
X40094Y-119569D02*
X42093D01*
X41094D01*
Y-125567D01*
X40094D01*
X42093D01*
X45092Y-119569D02*
Y-125567D01*
X48092D01*
X49091Y-124567D01*
Y-120568D01*
X48092Y-119569D01*
X45092D01*
X55089D02*
X51091D01*
Y-125567D01*
X55089D01*
X51091Y-122568D02*
X53090D01*
X118999Y-161435D02*
X117999Y-160435D01*
X116000D01*
X115000Y-161435D01*
Y-165434D01*
X116000Y-166434D01*
X117999D01*
X118999Y-165434D01*
Y-163435D01*
X116999D01*
X124997Y-160435D02*
X120998D01*
Y-166434D01*
X124997D01*
X120998Y-163435D02*
X122997D01*
X126996Y-166434D02*
Y-160435D01*
X130995Y-166434D01*
Y-160435D01*
X136993D02*
X132994D01*
Y-166434D01*
X136993D01*
X132994Y-163435D02*
X134994D01*
X138992Y-166434D02*
Y-160435D01*
X141991D01*
X142991Y-161435D01*
Y-163435D01*
X141991Y-164434D01*
X138992D01*
X140992D02*
X142991Y-166434D01*
X144990D02*
Y-162435D01*
X146990Y-160435D01*
X148989Y-162435D01*
Y-166434D01*
Y-163435D01*
X144990D01*
X150988Y-160435D02*
X154987D01*
X152988D01*
Y-166434D01*
X160985Y-160435D02*
X156986D01*
Y-166434D01*
X160985D01*
X156986Y-163435D02*
X158986D01*
X162985Y-160435D02*
Y-166434D01*
X165983D01*
X166983Y-165434D01*
Y-161435D01*
X165983Y-160435D01*
X162985D01*
X192975Y-162435D02*
X193974D01*
Y-163435D01*
X192975D01*
Y-162435D01*
Y-165434D02*
X193974D01*
Y-166434D01*
X192975D01*
Y-165434D01*
X201950D02*
X202950Y-166434D01*
X204949D01*
X205949Y-165434D01*
Y-161435D01*
X204949Y-160435D01*
X202950D01*
X201950Y-161435D01*
Y-162435D01*
X202950Y-163435D01*
X205949D01*
X207948Y-166434D02*
X211947Y-162435D01*
X216945Y-166434D02*
Y-160435D01*
X213946Y-163435D01*
X217945D01*
X219944Y-166434D02*
X223943Y-162435D01*
X229941Y-166434D02*
X225942D01*
X229941Y-162435D01*
Y-161435D01*
X228941Y-160435D01*
X226942D01*
X225942Y-161435D01*
X231940D02*
X232940Y-160435D01*
X234939D01*
X235939Y-161435D01*
Y-165434D01*
X234939Y-166434D01*
X232940D01*
X231940Y-165434D01*
Y-161435D01*
X237938Y-166434D02*
X239938D01*
X238938D01*
Y-160435D01*
X237938Y-161435D01*
X242937D02*
X243936Y-160435D01*
X245936D01*
X246935Y-161435D01*
Y-162435D01*
X245936Y-163435D01*
X246935Y-164434D01*
Y-165434D01*
X245936Y-166434D01*
X243936D01*
X242937Y-165434D01*
Y-164434D01*
X243936Y-163435D01*
X242937Y-162435D01*
Y-161435D01*
X243936Y-163435D02*
X245936D01*
X253800Y-125567D02*
Y-119569D01*
X256799D01*
X257799Y-120568D01*
Y-122568D01*
X256799Y-123567D01*
X253800D01*
X255799D02*
X257799Y-125567D01*
X263797Y-119569D02*
X259798D01*
Y-125567D01*
X263797D01*
X259798Y-122568D02*
X261797D01*
X265796Y-119569D02*
Y-123567D01*
X267795Y-125567D01*
X269795Y-123567D01*
Y-119569D01*
X271794Y-121568D02*
X272794D01*
Y-122568D01*
X271794D01*
Y-121568D01*
Y-124567D02*
X272794D01*
Y-125567D01*
X271794D01*
Y-124567D01*
X341599Y-120568D02*
X340599Y-119569D01*
X338600D01*
X337600Y-120568D01*
Y-121568D01*
X338600Y-122568D01*
X340599D01*
X341599Y-123567D01*
Y-124567D01*
X340599Y-125567D01*
X338600D01*
X337600Y-124567D01*
X343598Y-119569D02*
Y-123567D01*
X345597Y-125567D01*
X347597Y-123567D01*
Y-119569D01*
X349596Y-125567D02*
Y-119569D01*
X353595Y-125567D01*
Y-119569D01*
X361592Y-125567D02*
Y-119569D01*
X364591D01*
X365591Y-120568D01*
Y-122568D01*
X364591Y-123567D01*
X361592D01*
X363592D02*
X365591Y-125567D01*
X371589Y-119569D02*
X367590D01*
Y-125567D01*
X371589D01*
X367590Y-122568D02*
X369590D01*
X373588Y-119569D02*
Y-123567D01*
X375588Y-125567D01*
X377587Y-123567D01*
Y-119569D01*
X379586Y-121568D02*
X380586D01*
Y-122568D01*
X379586D01*
Y-121568D01*
Y-124567D02*
X380586D01*
Y-125567D01*
X379586D01*
Y-124567D01*
X388200Y-125567D02*
Y-119569D01*
X392199Y-125567D01*
Y-119569D01*
X395198Y-125567D02*
X397197D01*
X398197Y-124567D01*
Y-122568D01*
X397197Y-121568D01*
X395198D01*
X394198Y-122568D01*
Y-124567D01*
X395198Y-125567D01*
X401196Y-120568D02*
Y-121568D01*
X400196D01*
X402196D01*
X401196D01*
Y-124567D01*
X402196Y-125567D01*
X411193Y-119569D02*
X413192D01*
X412192D01*
Y-125567D01*
X411193D01*
X413192D01*
X416191D02*
Y-121568D01*
X419190D01*
X420190Y-122568D01*
Y-125567D01*
X428187Y-119569D02*
Y-123567D01*
X430186Y-125567D01*
X432186Y-123567D01*
Y-119569D01*
X437184Y-125567D02*
X435185D01*
X434185Y-124567D01*
Y-122568D01*
X435185Y-121568D01*
X437184D01*
X438184Y-122568D01*
Y-123567D01*
X434185D01*
X440183Y-121568D02*
Y-125567D01*
Y-123567D01*
X441183Y-122568D01*
X442182Y-121568D01*
X443182D01*
X446181Y-125567D02*
X449180D01*
X450180Y-124567D01*
X449180Y-123567D01*
X447181D01*
X446181Y-122568D01*
X447181Y-121568D01*
X450180D01*
X452179Y-125567D02*
X454179D01*
X453179D01*
Y-121568D01*
X452179D01*
X458177Y-125567D02*
X460177D01*
X461176Y-124567D01*
Y-122568D01*
X460177Y-121568D01*
X458177D01*
X457178Y-122568D01*
Y-124567D01*
X458177Y-125567D01*
X463176D02*
Y-121568D01*
X466175D01*
X467174Y-122568D01*
Y-125567D01*
X473173Y-120568D02*
X472173Y-119569D01*
X470174D01*
X469174Y-120568D01*
Y-124567D01*
X470174Y-125567D01*
X472173D01*
X473173Y-124567D01*
X476171Y-125567D02*
X478171D01*
X479171Y-124567D01*
Y-122568D01*
X478171Y-121568D01*
X476171D01*
X475172Y-122568D01*
Y-124567D01*
X476171Y-125567D01*
X481170D02*
Y-121568D01*
X484169D01*
X485169Y-122568D01*
Y-125567D01*
X488168Y-120568D02*
Y-121568D01*
X487168D01*
X489167D01*
X488168D01*
Y-124567D01*
X489167Y-125567D01*
X492166Y-121568D02*
Y-125567D01*
Y-123567D01*
X493166Y-122568D01*
X494166Y-121568D01*
X495165D01*
X499164Y-125567D02*
X501163D01*
X502163Y-124567D01*
Y-122568D01*
X501163Y-121568D01*
X499164D01*
X498164Y-122568D01*
Y-124567D01*
X499164Y-125567D01*
X504163D02*
X506162D01*
X505162D01*
Y-119569D01*
X504163D01*
G54D157*
X201822Y701051D02*
X205262Y704491D01*
X201822Y696051D02*
X210262Y704491D01*
X205262Y694491D02*
X215262Y704491D01*
X210262Y694491D02*
X220262Y704491D01*
X215262Y694491D02*
X225262Y704491D01*
X220262Y694491D02*
X230262Y704491D01*
X225262Y694491D02*
X235262Y704491D01*
X230262Y694491D02*
X240262Y704491D01*
X235262Y694491D02*
X245262Y704491D01*
X240262Y694491D02*
X250262Y704491D01*
X245262Y694491D02*
X255262Y704491D01*
X250262Y694491D02*
X260262Y704491D01*
X255262Y694491D02*
X265262Y704491D01*
X260262Y694491D02*
X270262Y704491D01*
X265262Y694491D02*
X275262Y704491D01*
X270262Y694491D02*
X280262Y704491D01*
X275262Y694491D02*
X285262Y704491D01*
X280262Y694491D02*
X290262Y704491D01*
X285262Y694491D02*
X295262Y704491D01*
X290262Y694491D02*
X295262Y699491D01*
X201822Y691051D02*
X205262Y694491D01*
X201822Y686051D02*
X210262Y694491D01*
X205262Y684491D02*
X215262Y694491D01*
X210262Y684491D02*
X220262Y694491D01*
X215262Y684491D02*
X225262Y694491D01*
X220262Y684491D02*
X230262Y694491D01*
X225262Y684491D02*
X235262Y694491D01*
X230262Y684491D02*
X240262Y694491D01*
X235262Y684491D02*
X245262Y694491D01*
X240262Y684491D02*
X250262Y694491D01*
X245262Y684491D02*
X255262Y694491D01*
X250262Y684491D02*
X260262Y694491D01*
X255262Y684491D02*
X265262Y694491D01*
X260262Y684491D02*
X270262Y694491D01*
X265262Y684491D02*
X275262Y694491D01*
X270262Y684491D02*
X280262Y694491D01*
X275262Y684491D02*
X285262Y694491D01*
X280262Y684491D02*
X290262Y694491D01*
X285262Y684491D02*
X295262Y694491D01*
X290262Y684491D02*
X295262Y689491D01*
X201822Y681051D02*
X205262Y684491D01*
X201822Y676051D02*
X210262Y684491D01*
X205262Y674491D02*
X215262Y684491D01*
X210262Y674491D02*
X220262Y684491D01*
X215262Y674491D02*
X225262Y684491D01*
X220262Y674491D02*
X230262Y684491D01*
X225262Y674491D02*
X235262Y684491D01*
X230262Y674491D02*
X240262Y684491D01*
X235262Y674491D02*
X245262Y684491D01*
X240262Y674491D02*
X250262Y684491D01*
X245262Y674491D02*
X255262Y684491D01*
X250262Y674491D02*
X260262Y684491D01*
X255262Y674491D02*
X265262Y684491D01*
X260262Y674491D02*
X270262Y684491D01*
X265262Y674491D02*
X275262Y684491D01*
X270262Y674491D02*
X280262Y684491D01*
X275262Y674491D02*
X285262Y684491D01*
X280262Y674491D02*
X290262Y684491D01*
X285262Y674491D02*
X295262Y684491D01*
X290262Y674491D02*
X295262Y679491D01*
X201822Y671051D02*
X205262Y674491D01*
X201822Y666051D02*
X210262Y674491D01*
X205262Y664491D02*
X215262Y674491D01*
X210262Y664491D02*
X220262Y674491D01*
X215262Y664491D02*
X225262Y674491D01*
X220262Y664491D02*
X230262Y674491D01*
X225262Y664491D02*
X235262Y674491D01*
X230262Y664491D02*
X240262Y674491D01*
X235262Y664491D02*
X245262Y674491D01*
X240262Y664491D02*
X250262Y674491D01*
X245262Y664491D02*
X255262Y674491D01*
X250262Y664491D02*
X260262Y674491D01*
X255262Y664491D02*
X265262Y674491D01*
X260262Y664491D02*
X270262Y674491D01*
X265262Y664491D02*
X275262Y674491D01*
X270262Y664491D02*
X280262Y674491D01*
X275262Y664491D02*
X285262Y674491D01*
X280262Y664491D02*
X290262Y674491D01*
X285262Y664491D02*
X295262Y674491D01*
X290262Y664491D02*
X295262Y669491D01*
X201822Y661051D02*
X205262Y664491D01*
X201822Y656051D02*
X210262Y664491D01*
X205262Y654491D02*
X215262Y664491D01*
X210262Y654491D02*
X220262Y664491D01*
X215262Y654491D02*
X225262Y664491D01*
X220262Y654491D02*
X230262Y664491D01*
X225262Y654491D02*
X235262Y664491D01*
X230262Y654491D02*
X240262Y664491D01*
X235262Y654491D02*
X245262Y664491D01*
X240262Y654491D02*
X250262Y664491D01*
X245262Y654491D02*
X255262Y664491D01*
X250262Y654491D02*
X260262Y664491D01*
X255262Y654491D02*
X265262Y664491D01*
X260262Y654491D02*
X270262Y664491D01*
X265262Y654491D02*
X275262Y664491D01*
X270262Y654491D02*
X280262Y664491D01*
X275262Y654491D02*
X285262Y664491D01*
X280262Y654491D02*
X290262Y664491D01*
X285262Y654491D02*
X295262Y664491D01*
X290262Y654491D02*
X295262Y659491D01*
X201822Y651051D02*
X205262Y654491D01*
X201822Y646051D02*
X210262Y654491D01*
X205262Y644491D02*
X215262Y654491D01*
X210262Y644491D02*
X220262Y654491D01*
X215262Y644491D02*
X225262Y654491D01*
X220262Y644491D02*
X230262Y654491D01*
X225262Y644491D02*
X235262Y654491D01*
X230262Y644491D02*
X240262Y654491D01*
X235262Y644491D02*
X245262Y654491D01*
X240262Y644491D02*
X250262Y654491D01*
X245262Y644491D02*
X255262Y654491D01*
X250262Y644491D02*
X260262Y654491D01*
X255262Y644491D02*
X265262Y654491D01*
X260262Y644491D02*
X270262Y654491D01*
X265262Y644491D02*
X275262Y654491D01*
X270262Y644491D02*
X280262Y654491D01*
X275262Y644491D02*
X285262Y654491D01*
X280262Y644491D02*
X290262Y654491D01*
X285262Y644491D02*
X295262Y654491D01*
X290262Y644491D02*
X295262Y649491D01*
X201822Y641051D02*
X205262Y644491D01*
X201822Y636051D02*
X210262Y644491D01*
X205262Y634491D02*
X215262Y644491D01*
X210262Y634491D02*
X220262Y644491D01*
X215262Y634491D02*
X225262Y644491D01*
X220262Y634491D02*
X230262Y644491D01*
X225262Y634491D02*
X235262Y644491D01*
X230262Y634491D02*
X240262Y644491D01*
X235262Y634491D02*
X245262Y644491D01*
X240262Y634491D02*
X250262Y644491D01*
X245262Y634491D02*
X255262Y644491D01*
X250262Y634491D02*
X260262Y644491D01*
X255262Y634491D02*
X265262Y644491D01*
X260262Y634491D02*
X270262Y644491D01*
X265262Y634491D02*
X275262Y644491D01*
X270262Y634491D02*
X280262Y644491D01*
X275262Y634491D02*
X285262Y644491D01*
X280262Y634491D02*
X290262Y644491D01*
X285262Y634491D02*
X295262Y644491D01*
X290262Y634491D02*
X295262Y639491D01*
X201822Y631051D02*
X205262Y634491D01*
X201822Y626051D02*
X210262Y634491D01*
X205262Y624491D02*
X215262Y634491D01*
X210262Y624491D02*
X220262Y634491D01*
X215262Y624491D02*
X225262Y634491D01*
X220262Y624491D02*
X230262Y634491D01*
X225262Y624491D02*
X235262Y634491D01*
X230262Y624491D02*
X240262Y634491D01*
X235262Y624491D02*
X245262Y634491D01*
X240262Y624491D02*
X250262Y634491D01*
X245262Y624491D02*
X255262Y634491D01*
X250262Y624491D02*
X260262Y634491D01*
X255262Y624491D02*
X265262Y634491D01*
X260262Y624491D02*
X270262Y634491D01*
X265262Y624491D02*
X275262Y634491D01*
X270262Y624491D02*
X280262Y634491D01*
X275262Y624491D02*
X285262Y634491D01*
X280262Y624491D02*
X290262Y634491D01*
X285262Y624491D02*
X295262Y634491D01*
X290262Y624491D02*
X295262Y629491D01*
X201822Y621051D02*
X205262Y624491D01*
X201822Y616051D02*
X210262Y624491D01*
X205262Y614491D02*
X215262Y624491D01*
X210262Y614491D02*
X220262Y624491D01*
X215262Y614491D02*
X225262Y624491D01*
X220262Y614491D02*
X230262Y624491D01*
X225262Y614491D02*
X235262Y624491D01*
X230262Y614491D02*
X240262Y624491D01*
X235262Y614491D02*
X245262Y624491D01*
X240262Y614491D02*
X250262Y624491D01*
X245262Y614491D02*
X255262Y624491D01*
X250262Y614491D02*
X260262Y624491D01*
X255262Y614491D02*
X265262Y624491D01*
X260262Y614491D02*
X270262Y624491D01*
X265262Y614491D02*
X275262Y624491D01*
X270262Y614491D02*
X280262Y624491D01*
X275262Y614491D02*
X285262Y624491D01*
X280262Y614491D02*
X290262Y624491D01*
X285262Y614491D02*
X295262Y624491D01*
X290262Y614491D02*
X295262Y619491D01*
X201822Y611051D02*
X205262Y614491D01*
X201822Y606051D02*
X210262Y614491D01*
X205262Y604491D02*
X215262Y614491D01*
X210262Y604491D02*
X220262Y614491D01*
X215262Y604491D02*
X225262Y614491D01*
X220262Y604491D02*
X230262Y614491D01*
X225262Y604491D02*
X235262Y614491D01*
X230262Y604491D02*
X240262Y614491D01*
X235262Y604491D02*
X245262Y614491D01*
X240262Y604491D02*
X250262Y614491D01*
X245262Y604491D02*
X255262Y614491D01*
X250262Y604491D02*
X260262Y614491D01*
X255262Y604491D02*
X265262Y614491D01*
X260262Y604491D02*
X270262Y614491D01*
X265262Y604491D02*
X275262Y614491D01*
X270262Y604491D02*
X280262Y614491D01*
X275262Y604491D02*
X285262Y614491D01*
X280262Y604491D02*
X290262Y614491D01*
X285262Y604491D02*
X295262Y614491D01*
X290262Y604491D02*
X295262Y609491D01*
X201822Y601051D02*
X205262Y604491D01*
X201822Y596051D02*
X210262Y604491D01*
X205262Y594491D02*
X215262Y604491D01*
X210262Y594491D02*
X220262Y604491D01*
X215262Y594491D02*
X225262Y604491D01*
X220262Y594491D02*
X230262Y604491D01*
X225262Y594491D02*
X235262Y604491D01*
X230262Y594491D02*
X240262Y604491D01*
X235262Y594491D02*
X245262Y604491D01*
X240262Y594491D02*
X250262Y604491D01*
X245262Y594491D02*
X255262Y604491D01*
X250262Y594491D02*
X260262Y604491D01*
X255262Y594491D02*
X265262Y604491D01*
X260262Y594491D02*
X270262Y604491D01*
X265262Y594491D02*
X275262Y604491D01*
X270262Y594491D02*
X280262Y604491D01*
X275262Y594491D02*
X285262Y604491D01*
X280262Y594491D02*
X290262Y604491D01*
X285262Y594491D02*
X295262Y604491D01*
X290262Y594491D02*
X295262Y599491D01*
X201822Y591051D02*
X205262Y594491D01*
X201822Y586051D02*
X210262Y594491D01*
X205262Y584491D02*
X215262Y594491D01*
X210262Y584491D02*
X220262Y594491D01*
X215262Y584491D02*
X225262Y594491D01*
X220262Y584491D02*
X230262Y594491D01*
X225262Y584491D02*
X235262Y594491D01*
X230262Y584491D02*
X240262Y594491D01*
X235262Y584491D02*
X245262Y594491D01*
X240262Y584491D02*
X250262Y594491D01*
X245262Y584491D02*
X255262Y594491D01*
X250262Y584491D02*
X260262Y594491D01*
X255262Y584491D02*
X265262Y594491D01*
X260262Y584491D02*
X270262Y594491D01*
X265262Y584491D02*
X275262Y594491D01*
X270262Y584491D02*
X280262Y594491D01*
X275262Y584491D02*
X285262Y594491D01*
X280262Y584491D02*
X290262Y594491D01*
X285262Y584491D02*
X295262Y594491D01*
X290262Y584491D02*
X295262Y589491D01*
X201822Y581051D02*
X205262Y584491D01*
X201822Y576051D02*
X210262Y584491D01*
X205262Y574491D02*
X215262Y584491D01*
X210262Y574491D02*
X220262Y584491D01*
X215262Y574491D02*
X225262Y584491D01*
X220262Y574491D02*
X230262Y584491D01*
X225262Y574491D02*
X235262Y584491D01*
X230262Y574491D02*
X240262Y584491D01*
X235262Y574491D02*
X245262Y584491D01*
X240262Y574491D02*
X250262Y584491D01*
X245262Y574491D02*
X255262Y584491D01*
X250262Y574491D02*
X260262Y584491D01*
X255262Y574491D02*
X265262Y584491D01*
X260262Y574491D02*
X270262Y584491D01*
X265262Y574491D02*
X275262Y584491D01*
X270262Y574491D02*
X280262Y584491D01*
X275262Y574491D02*
X285262Y584491D01*
X280262Y574491D02*
X290262Y584491D01*
X285262Y574491D02*
X295262Y584491D01*
X290262Y574491D02*
X295262Y579491D01*
X201822Y571051D02*
X205262Y574491D01*
X201822Y566051D02*
X210262Y574491D01*
X205262Y564491D02*
X215262Y574491D01*
X210262Y564491D02*
X220262Y574491D01*
X215262Y564491D02*
X225262Y574491D01*
X220262Y564491D02*
X230262Y574491D01*
X225262Y564491D02*
X235262Y574491D01*
X230262Y564491D02*
X240262Y574491D01*
X235262Y564491D02*
X245262Y574491D01*
X240262Y564491D02*
X250262Y574491D01*
X245262Y564491D02*
X255262Y574491D01*
X250262Y564491D02*
X260262Y574491D01*
X255262Y564491D02*
X265262Y574491D01*
X260262Y564491D02*
X270262Y574491D01*
X265262Y564491D02*
X275262Y574491D01*
X270262Y564491D02*
X280262Y574491D01*
X275262Y564491D02*
X285262Y574491D01*
X280262Y564491D02*
X290262Y574491D01*
X285262Y564491D02*
X295262Y574491D01*
X290262Y564491D02*
X295262Y569491D01*
X201822Y561051D02*
X205262Y564491D01*
X201822Y556051D02*
X210262Y564491D01*
X205262Y554491D02*
X215262Y564491D01*
X210262Y554491D02*
X220262Y564491D01*
X215262Y554491D02*
X225262Y564491D01*
X220262Y554491D02*
X230262Y564491D01*
X225262Y554491D02*
X235262Y564491D01*
X230262Y554491D02*
X240262Y564491D01*
X235262Y554491D02*
X245262Y564491D01*
X240262Y554491D02*
X250262Y564491D01*
X245262Y554491D02*
X255262Y564491D01*
X250262Y554491D02*
X260262Y564491D01*
X255262Y554491D02*
X265262Y564491D01*
X260262Y554491D02*
X270262Y564491D01*
X265262Y554491D02*
X275262Y564491D01*
X270262Y554491D02*
X280262Y564491D01*
X275262Y554491D02*
X285262Y564491D01*
X280262Y554491D02*
X290262Y564491D01*
X285262Y554491D02*
X295262Y564491D01*
X290262Y554491D02*
X295262Y559491D01*
X201822Y551051D02*
X205262Y554491D01*
X201822Y546051D02*
X210262Y554491D01*
X205262Y544491D02*
X215262Y554491D01*
X210262Y544491D02*
X220262Y554491D01*
X215262Y544491D02*
X225262Y554491D01*
X220262Y544491D02*
X230262Y554491D01*
X225262Y544491D02*
X235262Y554491D01*
X230262Y544491D02*
X240262Y554491D01*
X235262Y544491D02*
X245262Y554491D01*
X240262Y544491D02*
X250262Y554491D01*
X245262Y544491D02*
X255262Y554491D01*
X250262Y544491D02*
X260262Y554491D01*
X255262Y544491D02*
X265262Y554491D01*
X260262Y544491D02*
X270262Y554491D01*
X265262Y544491D02*
X275262Y554491D01*
X270262Y544491D02*
X280262Y554491D01*
X275262Y544491D02*
X285262Y554491D01*
X280262Y544491D02*
X290262Y554491D01*
X285262Y544491D02*
X295262Y554491D01*
X290262Y544491D02*
X295262Y549491D01*
X201822Y541051D02*
X205262Y544491D01*
X201822Y536051D02*
X210262Y544491D01*
X205262Y534491D02*
X215262Y544491D01*
X210262Y534491D02*
X220262Y544491D01*
X215262Y534491D02*
X225262Y544491D01*
X220262Y534491D02*
X230262Y544491D01*
X225262Y534491D02*
X235262Y544491D01*
X230262Y534491D02*
X240262Y544491D01*
X235262Y534491D02*
X245262Y544491D01*
X240262Y534491D02*
X250262Y544491D01*
X245262Y534491D02*
X255262Y544491D01*
X250262Y534491D02*
X260262Y544491D01*
X255262Y534491D02*
X265262Y544491D01*
X260262Y534491D02*
X270262Y544491D01*
X265262Y534491D02*
X275262Y544491D01*
X270262Y534491D02*
X280262Y544491D01*
X275262Y534491D02*
X285262Y544491D01*
X280262Y534491D02*
X290262Y544491D01*
X285262Y534491D02*
X295262Y544491D01*
X290262Y534491D02*
X295262Y539491D01*
M02*
