G04 Layer_Physical_Order=3*
G04 Layer_Color=16440176*
%FSLAX25Y25*%
%MOIN*%
G70*
G01*
G75*
%ADD59C,0.00400*%
%ADD60C,0.01500*%
%ADD61C,0.02000*%
%ADD63C,0.00500*%
%ADD65C,0.01000*%
%ADD69C,0.03500*%
%ADD70C,0.04000*%
%ADD72C,0.03000*%
%ADD73C,0.02500*%
%ADD74C,0.00900*%
%ADD80C,0.00800*%
%ADD82C,0.06496*%
G04:AMPARAMS|DCode=83|XSize=61.02mil|YSize=61.02mil|CornerRadius=15.26mil|HoleSize=0mil|Usage=FLASHONLY|Rotation=270.000|XOffset=0mil|YOffset=0mil|HoleType=Round|Shape=RoundedRectangle|*
%AMROUNDEDRECTD83*
21,1,0.06102,0.03051,0,0,270.0*
21,1,0.03051,0.06102,0,0,270.0*
1,1,0.03051,-0.01526,-0.01526*
1,1,0.03051,-0.01526,0.01526*
1,1,0.03051,0.01526,0.01526*
1,1,0.03051,0.01526,-0.01526*
%
%ADD83ROUNDEDRECTD83*%
%ADD84C,0.06102*%
%ADD85C,0.06693*%
%ADD87O,0.05905X0.17716*%
%ADD88O,0.17716X0.05905*%
%ADD95C,0.01968*%
%ADD96C,0.02240*%
G36*
X301074Y237235D02*
X301420Y237189D01*
X301760Y237114D01*
X302093Y237009D01*
X302415Y236875D01*
X302725Y236714D01*
X303019Y236527D01*
X303296Y236314D01*
X303553Y236078D01*
X303789Y235821D01*
X304002Y235544D01*
X304189Y235250D01*
X304350Y234941D01*
X304484Y234618D01*
X304589Y234285D01*
X304664Y233945D01*
X304710Y233599D01*
X304725Y233250D01*
Y231333D01*
X304724Y231298D01*
X304719Y231263D01*
X304711Y231229D01*
X304701Y231196D01*
X304688Y231164D01*
X304671Y231133D01*
X304653Y231104D01*
X304631Y231076D01*
X304608Y231050D01*
X304582Y231027D01*
X304554Y231005D01*
X304525Y230987D01*
X304494Y230971D01*
X304462Y230957D01*
X304429Y230947D01*
X304395Y230939D01*
X304360Y230935D01*
X304325Y230933D01*
X304290Y230935D01*
X304256Y230939D01*
X304222Y230947D01*
X304188Y230957D01*
X304156Y230971D01*
X304125Y230987D01*
X304096Y231005D01*
X304068Y231027D01*
X304051Y231041D01*
X304051Y231041D01*
X303412Y231589D01*
X302728Y232080D01*
X302004Y232509D01*
X301245Y232874D01*
X300457Y233171D01*
X299646Y233398D01*
X298819Y233554D01*
X297981Y233636D01*
X297139Y233646D01*
X296299Y233582D01*
X295469Y233445D01*
X294653Y233237D01*
X293859Y232958D01*
X293092Y232611D01*
X292358Y232198D01*
X291662Y231723D01*
X291011Y231189D01*
X290409Y230601D01*
X289861Y229962D01*
X289370Y229278D01*
X288941Y228554D01*
X288576Y227795D01*
X288279Y227007D01*
X288052Y226196D01*
X287896Y225369D01*
X287814Y224531D01*
X287804Y223689D01*
X287868Y222849D01*
X288005Y222019D01*
X288213Y221203D01*
X288492Y220409D01*
X288839Y219641D01*
X289252Y218908D01*
X289727Y218212D01*
X290261Y217561D01*
X290849Y216959D01*
X291488Y216411D01*
X292172Y215920D01*
X292896Y215491D01*
X293655Y215126D01*
X294443Y214829D01*
X295254Y214602D01*
X296081Y214446D01*
X296919Y214364D01*
X297761Y214354D01*
X298601Y214418D01*
X299431Y214555D01*
X300247Y214763D01*
X301042Y215042D01*
X301809Y215389D01*
X302542Y215802D01*
X303238Y216277D01*
X303889Y216811D01*
X304051Y216959D01*
X304051Y216959D01*
X304078Y216981D01*
X304106Y217002D01*
X304136Y217020D01*
X304168Y217035D01*
X304200Y217047D01*
X304234Y217056D01*
X304268Y217063D01*
X304303Y217066D01*
X304338Y217067D01*
X304373Y217064D01*
X304407Y217058D01*
X304441Y217050D01*
X304474Y217038D01*
X304505Y217024D01*
X304536Y217007D01*
X304565Y216987D01*
X304592Y216965D01*
X304617Y216941D01*
X304639Y216914D01*
X304660Y216886D01*
X304678Y216856D01*
X304693Y216824D01*
X304705Y216792D01*
X304714Y216758D01*
X304721Y216724D01*
X304724Y216689D01*
X304725Y216667D01*
Y7333D01*
X304724Y7298D01*
X304719Y7264D01*
X304711Y7230D01*
X304701Y7196D01*
X304688Y7164D01*
X304671Y7133D01*
X304653Y7104D01*
X304631Y7076D01*
X304608Y7050D01*
X304582Y7027D01*
X304554Y7005D01*
X304525Y6987D01*
X304494Y6971D01*
X304462Y6957D01*
X304429Y6947D01*
X304395Y6939D01*
X304360Y6934D01*
X304325Y6933D01*
X304290Y6934D01*
X304256Y6939D01*
X304222Y6947D01*
X304188Y6957D01*
X304156Y6971D01*
X304125Y6987D01*
X304096Y7005D01*
X304068Y7027D01*
X304051Y7041D01*
X304051Y7041D01*
X303412Y7589D01*
X302728Y8080D01*
X302004Y8509D01*
X301245Y8874D01*
X300457Y9171D01*
X299646Y9398D01*
X298819Y9554D01*
X297981Y9636D01*
X297139Y9646D01*
X296299Y9582D01*
X295469Y9445D01*
X294653Y9237D01*
X293859Y8958D01*
X293092Y8611D01*
X292358Y8198D01*
X291662Y7723D01*
X291011Y7189D01*
X290409Y6601D01*
X289861Y5962D01*
X289370Y5278D01*
X288941Y4554D01*
X288576Y3795D01*
X288279Y3007D01*
X288052Y2196D01*
X287896Y1369D01*
X287814Y531D01*
X287804Y-311D01*
X287868Y-1151D01*
X288005Y-1981D01*
X288213Y-2797D01*
X288492Y-3591D01*
X288839Y-4358D01*
X289252Y-5092D01*
X289727Y-5788D01*
X290261Y-6439D01*
X290849Y-7041D01*
X291488Y-7589D01*
X292172Y-8080D01*
X292896Y-8509D01*
X293655Y-8874D01*
X294443Y-9171D01*
X295254Y-9398D01*
X296081Y-9554D01*
X296919Y-9636D01*
X297761Y-9646D01*
X298601Y-9582D01*
X299431Y-9445D01*
X300247Y-9237D01*
X301042Y-8958D01*
X301809Y-8611D01*
X302542Y-8198D01*
X303238Y-7723D01*
X303889Y-7189D01*
X304051Y-7041D01*
X304051Y-7041D01*
X304078Y-7019D01*
X304106Y-6998D01*
X304136Y-6980D01*
X304168Y-6965D01*
X304200Y-6953D01*
X304234Y-6944D01*
X304268Y-6937D01*
X304303Y-6934D01*
X304338Y-6933D01*
X304373Y-6936D01*
X304407Y-6942D01*
X304441Y-6950D01*
X304474Y-6962D01*
X304505Y-6976D01*
X304536Y-6993D01*
X304565Y-7013D01*
X304592Y-7035D01*
X304617Y-7059D01*
X304639Y-7086D01*
X304660Y-7114D01*
X304678Y-7144D01*
X304693Y-7176D01*
X304705Y-7208D01*
X304714Y-7242D01*
X304721Y-7276D01*
X304724Y-7311D01*
X304725Y-7333D01*
Y-9250D01*
X304710Y-9599D01*
X304664Y-9945D01*
X304589Y-10285D01*
X304484Y-10618D01*
X304350Y-10941D01*
X304189Y-11250D01*
X304002Y-11544D01*
X303789Y-11821D01*
X303553Y-12078D01*
X303296Y-12314D01*
X303019Y-12527D01*
X302725Y-12714D01*
X302415Y-12875D01*
X302093Y-13009D01*
X301760Y-13114D01*
X301420Y-13189D01*
X301074Y-13235D01*
X300725Y-13250D01*
X211907D01*
X211559Y-12876D01*
X211548Y-12843D01*
X211535Y-12792D01*
X211621Y-12360D01*
X211649Y-11920D01*
Y-9164D01*
X211621Y-8724D01*
X211535Y-8292D01*
X211393Y-7875D01*
X211198Y-7479D01*
X210953Y-7113D01*
X210663Y-6781D01*
X210331Y-6491D01*
X209965Y-6246D01*
X209569Y-6051D01*
X209152Y-5909D01*
X208720Y-5823D01*
X208280Y-5795D01*
X207840Y-5823D01*
X207408Y-5909D01*
X206991Y-6051D01*
X206595Y-6246D01*
X206229Y-6491D01*
X205897Y-6781D01*
X205607Y-7113D01*
X205362Y-7479D01*
X205167Y-7875D01*
X205025Y-8292D01*
X204939Y-8724D01*
X204911Y-9164D01*
Y-11920D01*
X204939Y-12360D01*
X205025Y-12792D01*
X205012Y-12841D01*
X205001Y-12876D01*
X204653Y-13250D01*
X184348D01*
X184000Y-12875D01*
X183988Y-12841D01*
X183976Y-12792D01*
X184062Y-12360D01*
X184090Y-11920D01*
Y-9164D01*
X184062Y-8724D01*
X183976Y-8292D01*
X183834Y-7875D01*
X183639Y-7479D01*
X183394Y-7113D01*
X183104Y-6781D01*
X182772Y-6491D01*
X182406Y-6246D01*
X182010Y-6051D01*
X181593Y-5909D01*
X181161Y-5823D01*
X180721Y-5795D01*
X180281Y-5823D01*
X179849Y-5909D01*
X179431Y-6051D01*
X179036Y-6246D01*
X178670Y-6491D01*
X178338Y-6781D01*
X178048Y-7113D01*
X177803Y-7479D01*
X177608Y-7875D01*
X177466Y-8292D01*
X177380Y-8724D01*
X177351Y-9164D01*
Y-11920D01*
X177380Y-12360D01*
X177466Y-12792D01*
X177453Y-12843D01*
X177441Y-12876D01*
X177094Y-13250D01*
X-3275D01*
X-3624Y-13235D01*
X-3970Y-13189D01*
X-4310Y-13114D01*
X-4643Y-13009D01*
X-4966Y-12875D01*
X-5275Y-12714D01*
X-5569Y-12527D01*
X-5846Y-12314D01*
X-6103Y-12078D01*
X-6339Y-11821D01*
X-6552Y-11544D01*
X-6739Y-11250D01*
X-6900Y-10941D01*
X-7034Y-10618D01*
X-7139Y-10285D01*
X-7214Y-9945D01*
X-7260Y-9599D01*
X-7275Y-9250D01*
Y-7333D01*
X-7273Y-7298D01*
X-7269Y-7264D01*
X-7261Y-7230D01*
X-7251Y-7196D01*
X-7237Y-7164D01*
X-7221Y-7133D01*
X-7203Y-7104D01*
X-7181Y-7076D01*
X-7158Y-7050D01*
X-7132Y-7027D01*
X-7104Y-7005D01*
X-7075Y-6987D01*
X-7044Y-6971D01*
X-7012Y-6957D01*
X-6978Y-6947D01*
X-6944Y-6939D01*
X-6910Y-6934D01*
X-6875Y-6933D01*
X-6840Y-6934D01*
X-6805Y-6939D01*
X-6771Y-6947D01*
X-6738Y-6957D01*
X-6706Y-6971D01*
X-6675Y-6987D01*
X-6646Y-7005D01*
X-6618Y-7027D01*
X-6601Y-7041D01*
X-6601Y-7041D01*
X-5962Y-7589D01*
X-5278Y-8080D01*
X-4554Y-8509D01*
X-3795Y-8874D01*
X-3007Y-9171D01*
X-2196Y-9398D01*
X-1369Y-9554D01*
X-531Y-9636D01*
X311Y-9646D01*
X1151Y-9582D01*
X1981Y-9445D01*
X2797Y-9237D01*
X3591Y-8958D01*
X4358Y-8611D01*
X5092Y-8198D01*
X5788Y-7723D01*
X6439Y-7189D01*
X7041Y-6601D01*
X7589Y-5962D01*
X8080Y-5278D01*
X8509Y-4554D01*
X8874Y-3795D01*
X9171Y-3007D01*
X9398Y-2196D01*
X9554Y-1369D01*
X9636Y-531D01*
X9646Y311D01*
X9582Y1151D01*
X9445Y1981D01*
X9237Y2797D01*
X8958Y3591D01*
X8611Y4358D01*
X8198Y5092D01*
X7723Y5788D01*
X7189Y6439D01*
X6601Y7041D01*
X5962Y7589D01*
X5300Y8064D01*
X5292Y8123D01*
X5441Y8564D01*
X5559Y8564D01*
X11811D01*
Y16907D01*
X5134D01*
X5134Y8937D01*
Y8915D01*
Y8915D01*
X5134Y8746D01*
X4691Y8428D01*
X4554Y8509D01*
X3795Y8874D01*
X3007Y9171D01*
X2196Y9398D01*
X1369Y9554D01*
X531Y9636D01*
X-311Y9646D01*
X-1151Y9582D01*
X-1981Y9445D01*
X-2797Y9237D01*
X-3591Y8958D01*
X-4358Y8611D01*
X-5092Y8198D01*
X-5788Y7723D01*
X-6439Y7189D01*
X-6601Y7041D01*
X-6601Y7041D01*
X-6628Y7019D01*
X-6656Y6998D01*
X-6686Y6980D01*
X-6718Y6965D01*
X-6750Y6953D01*
X-6784Y6944D01*
X-6818Y6937D01*
X-6853Y6934D01*
X-6888Y6933D01*
X-6922Y6936D01*
X-6957Y6942D01*
X-6991Y6950D01*
X-7024Y6962D01*
X-7056Y6976D01*
X-7086Y6993D01*
X-7115Y7013D01*
X-7142Y7035D01*
X-7167Y7059D01*
X-7189Y7086D01*
X-7210Y7114D01*
X-7228Y7144D01*
X-7243Y7176D01*
X-7255Y7208D01*
X-7265Y7242D01*
X-7271Y7276D01*
X-7274Y7311D01*
X-7275Y7333D01*
Y216667D01*
X-7273Y216702D01*
X-7269Y216737D01*
X-7261Y216771D01*
X-7251Y216804D01*
X-7237Y216836D01*
X-7221Y216867D01*
X-7203Y216896D01*
X-7181Y216924D01*
X-7158Y216950D01*
X-7132Y216973D01*
X-7104Y216995D01*
X-7075Y217013D01*
X-7044Y217030D01*
X-7012Y217043D01*
X-6978Y217053D01*
X-6944Y217061D01*
X-6910Y217066D01*
X-6875Y217067D01*
X-6840Y217066D01*
X-6805Y217061D01*
X-6771Y217053D01*
X-6738Y217043D01*
X-6706Y217030D01*
X-6675Y217013D01*
X-6646Y216995D01*
X-6618Y216973D01*
X-6601Y216959D01*
X-6601Y216959D01*
X-5962Y216411D01*
X-5278Y215920D01*
X-4554Y215491D01*
X-3795Y215126D01*
X-3007Y214829D01*
X-2196Y214602D01*
X-1369Y214446D01*
X-531Y214364D01*
X311Y214354D01*
X1151Y214418D01*
X1981Y214555D01*
X2797Y214763D01*
X3591Y215042D01*
X4358Y215389D01*
X5092Y215802D01*
X5788Y216277D01*
X6439Y216811D01*
X7041Y217399D01*
X7589Y218038D01*
X8080Y218722D01*
X8509Y219446D01*
X8874Y220205D01*
X9171Y220993D01*
X9398Y221804D01*
X9554Y222631D01*
X9636Y223469D01*
X9646Y224311D01*
X9582Y225151D01*
X9445Y225981D01*
X9237Y226797D01*
X8958Y227591D01*
X8611Y228359D01*
X8198Y229092D01*
X7723Y229788D01*
X7189Y230439D01*
X6601Y231041D01*
X5962Y231589D01*
X5278Y232080D01*
X4554Y232509D01*
X3795Y232874D01*
X3007Y233171D01*
X2196Y233398D01*
X1369Y233554D01*
X531Y233636D01*
X-311Y233646D01*
X-1151Y233582D01*
X-1981Y233445D01*
X-2797Y233237D01*
X-3591Y232958D01*
X-4358Y232611D01*
X-5092Y232198D01*
X-5788Y231723D01*
X-6439Y231189D01*
X-6601Y231041D01*
X-6601Y231041D01*
X-6628Y231019D01*
X-6656Y230998D01*
X-6686Y230980D01*
X-6718Y230965D01*
X-6750Y230953D01*
X-6784Y230943D01*
X-6818Y230937D01*
X-6853Y230934D01*
X-6888Y230933D01*
X-6922Y230936D01*
X-6957Y230942D01*
X-6991Y230950D01*
X-7024Y230962D01*
X-7056Y230976D01*
X-7086Y230993D01*
X-7115Y231013D01*
X-7142Y231035D01*
X-7167Y231059D01*
X-7189Y231086D01*
X-7210Y231114D01*
X-7228Y231144D01*
X-7243Y231176D01*
X-7255Y231208D01*
X-7265Y231242D01*
X-7271Y231276D01*
X-7274Y231311D01*
X-7275Y231333D01*
Y233250D01*
X-7260Y233599D01*
X-7214Y233945D01*
X-7139Y234285D01*
X-7034Y234618D01*
X-6900Y234941D01*
X-6739Y235250D01*
X-6552Y235544D01*
X-6339Y235821D01*
X-6103Y236078D01*
X-5846Y236314D01*
X-5569Y236527D01*
X-5275Y236714D01*
X-4966Y236875D01*
X-4643Y237009D01*
X-4310Y237114D01*
X-3970Y237189D01*
X-3624Y237235D01*
X-3275Y237250D01*
X300725D01*
X301074Y237235D01*
D02*
G37*
%LPC*%
G36*
X-1133Y54950D02*
X-1484Y54915D01*
X-1822Y54813D01*
X-2133Y54646D01*
X-2406Y54423D01*
X-2629Y54150D01*
X-2796Y53839D01*
X-2898Y53501D01*
X-2933Y53150D01*
X-2898Y52799D01*
X-2796Y52461D01*
X-2629Y52150D01*
X-2406Y51877D01*
X-2133Y51654D01*
X-1822Y51487D01*
X-1484Y51385D01*
X-1133Y51350D01*
X-782Y51385D01*
X-444Y51487D01*
X-133Y51654D01*
X140Y51877D01*
X363Y52150D01*
X530Y52461D01*
X632Y52799D01*
X667Y53150D01*
X632Y53501D01*
X530Y53839D01*
X363Y54150D01*
X140Y54423D01*
X-133Y54646D01*
X-444Y54813D01*
X-782Y54915D01*
X-1133Y54950D01*
D02*
G37*
G36*
X12500Y70450D02*
X12149Y70415D01*
X11811Y70313D01*
X11500Y70146D01*
X11227Y69923D01*
X11004Y69650D01*
X10837Y69339D01*
X10735Y69001D01*
X10700Y68650D01*
X10735Y68299D01*
X10837Y67961D01*
X11004Y67650D01*
X11227Y67377D01*
X11500Y67154D01*
X11811Y66987D01*
X12149Y66885D01*
X12500Y66850D01*
X12851Y66885D01*
X13189Y66987D01*
X13500Y67154D01*
X13773Y67377D01*
X13996Y67650D01*
X14163Y67961D01*
X14265Y68299D01*
X14300Y68650D01*
X14265Y69001D01*
X14163Y69339D01*
X13996Y69650D01*
X13773Y69923D01*
X13500Y70146D01*
X13189Y70313D01*
X12851Y70415D01*
X12500Y70450D01*
D02*
G37*
G36*
X-4800Y73350D02*
X-5151Y73315D01*
X-5489Y73213D01*
X-5800Y73046D01*
X-6073Y72823D01*
X-6296Y72550D01*
X-6463Y72239D01*
X-6565Y71901D01*
X-6600Y71550D01*
X-6565Y71199D01*
X-6463Y70861D01*
X-6296Y70550D01*
X-6073Y70277D01*
X-5800Y70054D01*
X-5489Y69887D01*
X-5151Y69785D01*
X-4800Y69750D01*
X-4449Y69785D01*
X-4111Y69887D01*
X-3800Y70054D01*
X-3527Y70277D01*
X-3304Y70550D01*
X-3137Y70861D01*
X-3035Y71199D01*
X-3000Y71550D01*
X-3035Y71901D01*
X-3137Y72239D01*
X-3304Y72550D01*
X-3527Y72823D01*
X-3800Y73046D01*
X-4111Y73213D01*
X-4449Y73315D01*
X-4800Y73350D01*
D02*
G37*
G36*
X21400Y50750D02*
X21049Y50715D01*
X20711Y50613D01*
X20400Y50446D01*
X20127Y50223D01*
X19904Y49950D01*
X19737Y49639D01*
X19635Y49301D01*
X19600Y48950D01*
X19635Y48599D01*
X19737Y48261D01*
X19904Y47950D01*
X20127Y47677D01*
X20400Y47454D01*
X20711Y47287D01*
X21049Y47185D01*
X21400Y47150D01*
X21751Y47185D01*
X22089Y47287D01*
X22400Y47454D01*
X22673Y47677D01*
X22896Y47950D01*
X23063Y48261D01*
X23165Y48599D01*
X23200Y48950D01*
X23165Y49301D01*
X23063Y49639D01*
X22896Y49950D01*
X22673Y50223D01*
X22400Y50446D01*
X22089Y50613D01*
X21751Y50715D01*
X21400Y50750D01*
D02*
G37*
G36*
X-1112Y39150D02*
X-1463Y39115D01*
X-1801Y39013D01*
X-2112Y38846D01*
X-2385Y38623D01*
X-2608Y38350D01*
X-2775Y38039D01*
X-2877Y37701D01*
X-2912Y37350D01*
X-2877Y36999D01*
X-2775Y36661D01*
X-2608Y36350D01*
X-2385Y36077D01*
X-2112Y35854D01*
X-1801Y35687D01*
X-1463Y35585D01*
X-1112Y35550D01*
X-761Y35585D01*
X-423Y35687D01*
X-112Y35854D01*
X161Y36077D01*
X384Y36350D01*
X551Y36661D01*
X653Y36999D01*
X688Y37350D01*
X653Y37701D01*
X551Y38039D01*
X384Y38350D01*
X161Y38623D01*
X-112Y38846D01*
X-423Y39013D01*
X-761Y39115D01*
X-1112Y39150D01*
D02*
G37*
G36*
X31700Y46950D02*
X31349Y46915D01*
X31011Y46813D01*
X30700Y46646D01*
X30427Y46423D01*
X30204Y46150D01*
X30037Y45839D01*
X29935Y45501D01*
X29900Y45150D01*
X29935Y44799D01*
X30037Y44461D01*
X30204Y44150D01*
X30427Y43877D01*
X30700Y43654D01*
X31011Y43487D01*
X31349Y43385D01*
X31700Y43350D01*
X32051Y43385D01*
X32389Y43487D01*
X32700Y43654D01*
X32973Y43877D01*
X33196Y44150D01*
X33363Y44461D01*
X33465Y44799D01*
X33500Y45150D01*
X33465Y45501D01*
X33363Y45839D01*
X33196Y46150D01*
X32973Y46423D01*
X32700Y46646D01*
X32389Y46813D01*
X32051Y46915D01*
X31700Y46950D01*
D02*
G37*
G36*
X13600Y49646D02*
X13249Y49611D01*
X12911Y49509D01*
X12600Y49343D01*
X12327Y49119D01*
X12104Y48846D01*
X11937Y48535D01*
X11835Y48197D01*
X11800Y47846D01*
X11835Y47495D01*
X11937Y47158D01*
X12104Y46847D01*
X12327Y46574D01*
X12600Y46350D01*
X12911Y46184D01*
X13249Y46081D01*
X13600Y46047D01*
X13951Y46081D01*
X14289Y46184D01*
X14600Y46350D01*
X14873Y46574D01*
X15096Y46847D01*
X15263Y47158D01*
X15365Y47495D01*
X15400Y47846D01*
X15365Y48197D01*
X15263Y48535D01*
X15096Y48846D01*
X14873Y49119D01*
X14600Y49343D01*
X14289Y49509D01*
X13951Y49611D01*
X13600Y49646D01*
D02*
G37*
G36*
X241142Y80906D02*
X239559D01*
X238847Y80194D01*
X238847Y78764D01*
X239947Y77664D01*
X241142D01*
X242044Y78566D01*
Y80004D01*
X241142Y80906D01*
D02*
G37*
G36*
X75100Y100850D02*
X74749Y100815D01*
X74411Y100713D01*
X74100Y100546D01*
X73827Y100323D01*
X73604Y100050D01*
X73437Y99739D01*
X73335Y99401D01*
X73300Y99050D01*
X73335Y98699D01*
X73437Y98361D01*
X73604Y98050D01*
X73827Y97777D01*
X74100Y97554D01*
X74411Y97387D01*
X74749Y97285D01*
X75100Y97250D01*
X75451Y97285D01*
X75789Y97387D01*
X76100Y97554D01*
X76373Y97777D01*
X76596Y98050D01*
X76763Y98361D01*
X76865Y98699D01*
X76900Y99050D01*
X76865Y99401D01*
X76763Y99739D01*
X76596Y100050D01*
X76373Y100323D01*
X76100Y100546D01*
X75789Y100713D01*
X75451Y100815D01*
X75100Y100850D01*
D02*
G37*
G36*
X76400Y105750D02*
X76049Y105715D01*
X75711Y105613D01*
X75400Y105446D01*
X75127Y105223D01*
X74904Y104950D01*
X74737Y104639D01*
X74635Y104301D01*
X74600Y103950D01*
X74635Y103599D01*
X74737Y103261D01*
X74904Y102950D01*
X75127Y102677D01*
X75400Y102454D01*
X75711Y102287D01*
X76049Y102185D01*
X76400Y102150D01*
X76751Y102185D01*
X77089Y102287D01*
X77400Y102454D01*
X77673Y102677D01*
X77896Y102950D01*
X78063Y103261D01*
X78165Y103599D01*
X78200Y103950D01*
X78165Y104301D01*
X78063Y104639D01*
X77896Y104950D01*
X77673Y105223D01*
X77400Y105446D01*
X77089Y105613D01*
X76751Y105715D01*
X76400Y105750D01*
D02*
G37*
G36*
X46200Y129050D02*
X45849Y129015D01*
X45511Y128913D01*
X45200Y128746D01*
X44927Y128523D01*
X44704Y128250D01*
X44537Y127939D01*
X44435Y127601D01*
X44400Y127250D01*
X44435Y126899D01*
X44537Y126561D01*
X44704Y126250D01*
X44927Y125977D01*
X45200Y125754D01*
X45511Y125587D01*
X45849Y125485D01*
X46200Y125450D01*
X46551Y125485D01*
X46889Y125587D01*
X47200Y125754D01*
X47473Y125977D01*
X47696Y126250D01*
X47863Y126561D01*
X47965Y126899D01*
X48000Y127250D01*
X47965Y127601D01*
X47863Y127939D01*
X47696Y128250D01*
X47473Y128523D01*
X47200Y128746D01*
X46889Y128913D01*
X46551Y129015D01*
X46200Y129050D01*
D02*
G37*
G36*
X5500Y99150D02*
X5149Y99115D01*
X4811Y99013D01*
X4500Y98846D01*
X4227Y98623D01*
X4004Y98350D01*
X3837Y98039D01*
X3735Y97701D01*
X3700Y97350D01*
X3735Y96999D01*
X3837Y96661D01*
X4004Y96350D01*
X4227Y96077D01*
X4500Y95854D01*
X4811Y95687D01*
X5149Y95585D01*
X5500Y95550D01*
X5851Y95585D01*
X6189Y95687D01*
X6500Y95854D01*
X6773Y96077D01*
X6996Y96350D01*
X7163Y96661D01*
X7265Y96999D01*
X7300Y97350D01*
X7265Y97701D01*
X7163Y98039D01*
X6996Y98350D01*
X6773Y98623D01*
X6500Y98846D01*
X6189Y99013D01*
X5851Y99115D01*
X5500Y99150D01*
D02*
G37*
G36*
X-3200Y82550D02*
X-3551Y82515D01*
X-3889Y82413D01*
X-4200Y82246D01*
X-4473Y82023D01*
X-4696Y81750D01*
X-4863Y81439D01*
X-4965Y81101D01*
X-5000Y80750D01*
X-4965Y80399D01*
X-4863Y80061D01*
X-4696Y79750D01*
X-4473Y79477D01*
X-4200Y79254D01*
X-3889Y79087D01*
X-3551Y78985D01*
X-3200Y78950D01*
X-2849Y78985D01*
X-2511Y79087D01*
X-2200Y79254D01*
X-1927Y79477D01*
X-1704Y79750D01*
X-1537Y80061D01*
X-1435Y80399D01*
X-1400Y80750D01*
X-1435Y81101D01*
X-1537Y81439D01*
X-1704Y81750D01*
X-1927Y82023D01*
X-2200Y82246D01*
X-2511Y82413D01*
X-2849Y82515D01*
X-3200Y82550D01*
D02*
G37*
G36*
X66400Y86800D02*
X66049Y86765D01*
X65711Y86663D01*
X65400Y86496D01*
X65127Y86273D01*
X64904Y86000D01*
X64737Y85689D01*
X64635Y85351D01*
X64600Y85000D01*
X64635Y84649D01*
X64737Y84311D01*
X64904Y84000D01*
X65127Y83727D01*
X65400Y83504D01*
X65711Y83337D01*
X66049Y83235D01*
X66400Y83200D01*
X66751Y83235D01*
X67089Y83337D01*
X67400Y83504D01*
X67673Y83727D01*
X67896Y84000D01*
X68063Y84311D01*
X68165Y84649D01*
X68200Y85000D01*
X68165Y85351D01*
X68063Y85689D01*
X67896Y86000D01*
X67673Y86273D01*
X67400Y86496D01*
X67089Y86663D01*
X66751Y86765D01*
X66400Y86800D01*
D02*
G37*
G36*
X6300Y92450D02*
X5949Y92415D01*
X5611Y92313D01*
X5300Y92146D01*
X5027Y91923D01*
X4804Y91650D01*
X4637Y91339D01*
X4535Y91001D01*
X4500Y90650D01*
X4535Y90299D01*
X4637Y89961D01*
X4804Y89650D01*
X5027Y89377D01*
X5300Y89154D01*
X5611Y88987D01*
X5949Y88885D01*
X6300Y88850D01*
X6651Y88885D01*
X6989Y88987D01*
X7300Y89154D01*
X7573Y89377D01*
X7796Y89650D01*
X7963Y89961D01*
X8065Y90299D01*
X8100Y90650D01*
X8065Y91001D01*
X7963Y91339D01*
X7796Y91650D01*
X7573Y91923D01*
X7300Y92146D01*
X6989Y92313D01*
X6651Y92415D01*
X6300Y92450D01*
D02*
G37*
G36*
X75988Y22638D02*
X75637Y22603D01*
X75299Y22501D01*
X74988Y22334D01*
X74715Y22111D01*
X74492Y21838D01*
X74325Y21527D01*
X74223Y21189D01*
X74188Y20838D01*
X74223Y20487D01*
X74325Y20149D01*
X74492Y19838D01*
X74715Y19565D01*
X74988Y19342D01*
X75299Y19175D01*
X75637Y19073D01*
X75988Y19038D01*
X76136Y19053D01*
X86383D01*
X86667Y18967D01*
X87018Y18932D01*
X87369Y18967D01*
X87653Y19053D01*
X125273D01*
X126365Y17960D01*
X126158Y17460D01*
X109142D01*
X108753Y17430D01*
X108374Y17339D01*
X108014Y17190D01*
X107682Y16986D01*
X107385Y16733D01*
X107132Y16436D01*
X106928Y16104D01*
X106779Y15744D01*
X106688Y15365D01*
X106658Y14976D01*
Y12024D01*
X106688Y11635D01*
X106779Y11256D01*
X106928Y10896D01*
X107132Y10564D01*
X107385Y10267D01*
X107682Y10014D01*
X108014Y9810D01*
X108374Y9661D01*
X108753Y9570D01*
X109142Y9540D01*
X126858D01*
X127247Y9570D01*
X127626Y9661D01*
X127986Y9810D01*
X128318Y10014D01*
X128413Y10095D01*
X128959Y10053D01*
X129044Y10000D01*
X129227Y9777D01*
X129500Y9554D01*
X129811Y9387D01*
X130149Y9285D01*
X130500Y9250D01*
X130851Y9285D01*
X131189Y9387D01*
X131500Y9554D01*
X131773Y9777D01*
X131996Y10050D01*
X132163Y10361D01*
X132265Y10699D01*
X132300Y11050D01*
X132265Y11401D01*
X132179Y11685D01*
Y16200D01*
X132179Y16200D01*
X132147Y16528D01*
X132051Y16843D01*
X131896Y17133D01*
X131687Y17387D01*
X131687Y17387D01*
X127155Y21919D01*
X126901Y22128D01*
X126611Y22283D01*
X126296Y22379D01*
X125968Y22411D01*
X125968Y22411D01*
X87653D01*
X87369Y22497D01*
X87018Y22532D01*
X86667Y22497D01*
X86383Y22411D01*
X76844D01*
X76677Y22501D01*
X76339Y22603D01*
X75988Y22638D01*
D02*
G37*
G36*
X254395Y39144D02*
X253340Y39106D01*
X252290Y38993D01*
X251251Y38806D01*
X250229Y38545D01*
X249227Y38212D01*
X248252Y37808D01*
X247307Y37335D01*
X246399Y36796D01*
X245532Y36194D01*
X244710Y35532D01*
X243938Y34812D01*
X243218Y34040D01*
X242556Y33218D01*
X241954Y32351D01*
X241415Y31443D01*
X240943Y30498D01*
X240539Y29523D01*
X240205Y28521D01*
X239944Y27499D01*
X239757Y26460D01*
X239644Y25410D01*
X239606Y24355D01*
X239644Y23300D01*
X239757Y22250D01*
X239944Y21211D01*
X240205Y20188D01*
X240539Y19187D01*
X240943Y18212D01*
X241415Y17267D01*
X241954Y16360D01*
X242556Y15492D01*
X243218Y14670D01*
X243938Y13898D01*
X244710Y13178D01*
X245532Y12516D01*
X246399Y11914D01*
X247307Y11375D01*
X248252Y10903D01*
X249227Y10498D01*
X250229Y10165D01*
X251251Y9904D01*
X252290Y9717D01*
X253340Y9604D01*
X254395Y9566D01*
X255450Y9604D01*
X256500Y9717D01*
X257539Y9904D01*
X258561Y10165D01*
X259563Y10498D01*
X260539Y10903D01*
X261483Y11375D01*
X262390Y11914D01*
X263258Y12516D01*
X264080Y13178D01*
X264852Y13898D01*
X265572Y14670D01*
X266234Y15492D01*
X266836Y16360D01*
X267375Y17267D01*
X267847Y18212D01*
X268251Y19187D01*
X268585Y20188D01*
X268846Y21211D01*
X269033Y22250D01*
X269146Y23300D01*
X269184Y24355D01*
X269146Y25410D01*
X269033Y26460D01*
X268846Y27499D01*
X268585Y28521D01*
X268251Y29523D01*
X267847Y30498D01*
X267375Y31443D01*
X266836Y32351D01*
X266234Y33218D01*
X265572Y34040D01*
X264852Y34812D01*
X264080Y35532D01*
X263258Y36194D01*
X262390Y36796D01*
X261483Y37335D01*
X260539Y37808D01*
X259563Y38212D01*
X258561Y38545D01*
X257539Y38806D01*
X256500Y38993D01*
X255450Y39106D01*
X254395Y39144D01*
D02*
G37*
G36*
X72400Y14350D02*
X72049Y14315D01*
X71711Y14213D01*
X71400Y14046D01*
X71127Y13823D01*
X70904Y13550D01*
X70737Y13239D01*
X70635Y12901D01*
X70600Y12550D01*
X70635Y12199D01*
X70737Y11861D01*
X70904Y11550D01*
X71127Y11277D01*
X71400Y11054D01*
X71711Y10887D01*
X72049Y10785D01*
X72400Y10750D01*
X72751Y10785D01*
X73089Y10887D01*
X73400Y11054D01*
X73673Y11277D01*
X73896Y11550D01*
X74063Y11861D01*
X74165Y12199D01*
X74200Y12550D01*
X74165Y12901D01*
X74063Y13239D01*
X73896Y13550D01*
X73673Y13823D01*
X73400Y14046D01*
X73089Y14213D01*
X72751Y14315D01*
X72400Y14350D01*
D02*
G37*
G36*
X204343Y3951D02*
X203839Y3918D01*
X203343Y3819D01*
X202865Y3657D01*
X202412Y3433D01*
X201992Y3152D01*
X201612Y2819D01*
X201279Y2439D01*
X200998Y2019D01*
X200774Y1566D01*
X200612Y1088D01*
X200513Y592D01*
X200480Y88D01*
X200513Y-416D01*
X200612Y-912D01*
X200774Y-1390D01*
X200998Y-1843D01*
X201279Y-2263D01*
X201612Y-2643D01*
X201992Y-2976D01*
X202412Y-3257D01*
X202865Y-3481D01*
X203343Y-3643D01*
X203839Y-3742D01*
X204343Y-3775D01*
X204847Y-3742D01*
X205343Y-3643D01*
X205821Y-3481D01*
X206274Y-3257D01*
X206694Y-2976D01*
X207074Y-2643D01*
X207407Y-2263D01*
X207688Y-1843D01*
X207912Y-1390D01*
X208074Y-912D01*
X208173Y-416D01*
X208206Y88D01*
X208173Y592D01*
X208074Y1088D01*
X207912Y1566D01*
X207688Y2019D01*
X207407Y2439D01*
X207074Y2819D01*
X206694Y3152D01*
X206274Y3433D01*
X205821Y3657D01*
X205343Y3819D01*
X204847Y3918D01*
X204343Y3951D01*
D02*
G37*
G36*
X80839Y2222D02*
X80270Y2184D01*
X79712Y2073D01*
X79172Y1890D01*
X78661Y1638D01*
X78187Y1322D01*
X77759Y946D01*
X77383Y518D01*
X77067Y44D01*
X76815Y-467D01*
X76632Y-1007D01*
X76521Y-1565D01*
X76483Y-2134D01*
X76521Y-2702D01*
X76632Y-3261D01*
X76815Y-3801D01*
X77067Y-4312D01*
X77383Y-4786D01*
X77759Y-5214D01*
X78187Y-5590D01*
X78661Y-5906D01*
X79172Y-6158D01*
X79712Y-6341D01*
X80270Y-6453D01*
X80839Y-6490D01*
X81408Y-6453D01*
X81966Y-6341D01*
X82506Y-6158D01*
X83017Y-5906D01*
X83491Y-5590D01*
X83919Y-5214D01*
X84295Y-4786D01*
X84611Y-4312D01*
X84863Y-3801D01*
X85046Y-3261D01*
X85158Y-2702D01*
X85195Y-2134D01*
X85158Y-1565D01*
X85046Y-1007D01*
X84863Y-467D01*
X84611Y44D01*
X84295Y518D01*
X83919Y946D01*
X83491Y1322D01*
X83017Y1638D01*
X82506Y1890D01*
X81966Y2073D01*
X81408Y2184D01*
X80839Y2222D01*
D02*
G37*
G36*
X54953Y2221D02*
X51607D01*
X51187Y2188D01*
X50778Y2090D01*
X50389Y1929D01*
X50031Y1709D01*
X49711Y1435D01*
X49437Y1115D01*
X49218Y757D01*
X49057Y368D01*
X48958Y-41D01*
X48925Y-461D01*
Y-3807D01*
X48958Y-4227D01*
X49057Y-4636D01*
X49218Y-5025D01*
X49437Y-5383D01*
X49711Y-5703D01*
X50031Y-5977D01*
X50389Y-6196D01*
X50778Y-6357D01*
X51187Y-6456D01*
X51607Y-6489D01*
X54953D01*
X55373Y-6456D01*
X55782Y-6357D01*
X56171Y-6196D01*
X56529Y-5977D01*
X56849Y-5703D01*
X57123Y-5383D01*
X57342Y-5025D01*
X57503Y-4636D01*
X57602Y-4227D01*
X57635Y-3807D01*
Y-461D01*
X57602Y-41D01*
X57503Y368D01*
X57342Y757D01*
X57123Y1115D01*
X56849Y1435D01*
X56529Y1709D01*
X56171Y1929D01*
X55782Y2090D01*
X55373Y2188D01*
X54953Y2221D01*
D02*
G37*
G36*
X184658Y3951D02*
X184154Y3918D01*
X183658Y3819D01*
X183180Y3657D01*
X182727Y3433D01*
X182307Y3152D01*
X181927Y2819D01*
X181594Y2439D01*
X181313Y2019D01*
X181089Y1566D01*
X180927Y1088D01*
X180828Y592D01*
X180795Y88D01*
X180828Y-416D01*
X180927Y-912D01*
X181089Y-1390D01*
X181313Y-1843D01*
X181594Y-2263D01*
X181927Y-2643D01*
X182307Y-2976D01*
X182727Y-3257D01*
X183180Y-3481D01*
X183658Y-3643D01*
X184154Y-3742D01*
X184658Y-3775D01*
X185162Y-3742D01*
X185658Y-3643D01*
X186136Y-3481D01*
X186589Y-3257D01*
X187009Y-2976D01*
X187389Y-2643D01*
X187722Y-2263D01*
X188003Y-1843D01*
X188226Y-1390D01*
X188389Y-912D01*
X188488Y-416D01*
X188521Y88D01*
X188488Y592D01*
X188389Y1088D01*
X188226Y1566D01*
X188003Y2019D01*
X187722Y2439D01*
X187389Y2819D01*
X187009Y3152D01*
X186589Y3433D01*
X186136Y3657D01*
X185658Y3819D01*
X185162Y3918D01*
X184658Y3951D01*
D02*
G37*
G36*
X80800Y14650D02*
X80449Y14615D01*
X80111Y14513D01*
X79800Y14346D01*
X79527Y14123D01*
X79304Y13850D01*
X79137Y13539D01*
X79035Y13201D01*
X79000Y12850D01*
X79035Y12499D01*
X79137Y12161D01*
X79304Y11850D01*
X79527Y11577D01*
X79800Y11354D01*
X80111Y11187D01*
X80449Y11085D01*
X80800Y11050D01*
X81151Y11085D01*
X81489Y11187D01*
X81800Y11354D01*
X82073Y11577D01*
X82296Y11850D01*
X82463Y12161D01*
X82565Y12499D01*
X82600Y12850D01*
X82565Y13201D01*
X82463Y13539D01*
X82296Y13850D01*
X82073Y14123D01*
X81800Y14346D01*
X81489Y14513D01*
X81151Y14615D01*
X80800Y14650D01*
D02*
G37*
G36*
X45100Y29850D02*
X44749Y29815D01*
X44411Y29713D01*
X44100Y29546D01*
X43827Y29323D01*
X43604Y29050D01*
X43437Y28739D01*
X43335Y28401D01*
X43300Y28050D01*
X43335Y27699D01*
X43437Y27361D01*
X43604Y27050D01*
X43827Y26777D01*
X44100Y26554D01*
X44411Y26387D01*
X44749Y26285D01*
X45100Y26250D01*
X45451Y26285D01*
X45789Y26387D01*
X46100Y26554D01*
X46373Y26777D01*
X46596Y27050D01*
X46763Y27361D01*
X46865Y27699D01*
X46900Y28050D01*
X46865Y28401D01*
X46763Y28739D01*
X46596Y29050D01*
X46373Y29323D01*
X46100Y29546D01*
X45789Y29713D01*
X45451Y29815D01*
X45100Y29850D01*
D02*
G37*
G36*
X-1440Y33479D02*
X-1791Y33444D01*
X-2128Y33342D01*
X-2439Y33176D01*
X-2712Y32952D01*
X-2936Y32679D01*
X-3102Y32368D01*
X-3205Y32030D01*
X-3239Y31679D01*
X-3205Y31328D01*
X-3102Y30991D01*
X-2936Y30680D01*
X-2712Y30407D01*
X-2439Y30183D01*
X-2128Y30017D01*
X-1791Y29914D01*
X-1440Y29880D01*
X-1089Y29914D01*
X-751Y30017D01*
X-440Y30183D01*
X-167Y30407D01*
X57Y30680D01*
X223Y30991D01*
X326Y31328D01*
X360Y31679D01*
X326Y32030D01*
X223Y32368D01*
X57Y32679D01*
X-167Y32952D01*
X-440Y33176D01*
X-751Y33342D01*
X-1089Y33444D01*
X-1440Y33479D01*
D02*
G37*
G36*
X3345Y35251D02*
X2994Y35216D01*
X2656Y35114D01*
X2345Y34947D01*
X2072Y34723D01*
X1848Y34451D01*
X1682Y34140D01*
X1579Y33802D01*
X1545Y33451D01*
X1579Y33100D01*
X1682Y32762D01*
X1848Y32451D01*
X2072Y32178D01*
X2345Y31955D01*
X2656Y31788D01*
X2994Y31686D01*
X3345Y31651D01*
X3696Y31686D01*
X4033Y31788D01*
X4344Y31955D01*
X4617Y32178D01*
X4841Y32451D01*
X5007Y32762D01*
X5110Y33100D01*
X5144Y33451D01*
X5110Y33802D01*
X5007Y34140D01*
X4841Y34451D01*
X4617Y34723D01*
X4344Y34947D01*
X4033Y35114D01*
X3696Y35216D01*
X3345Y35251D01*
D02*
G37*
G36*
X47400Y25950D02*
X47049Y25915D01*
X46711Y25813D01*
X46400Y25646D01*
X46127Y25423D01*
X45904Y25150D01*
X45737Y24839D01*
X45635Y24501D01*
X45600Y24150D01*
X45635Y23799D01*
X45737Y23461D01*
X45904Y23150D01*
X46127Y22877D01*
X46400Y22654D01*
X46711Y22487D01*
X47049Y22385D01*
X47400Y22350D01*
X47751Y22385D01*
X48089Y22487D01*
X48400Y22654D01*
X48673Y22877D01*
X48896Y23150D01*
X49063Y23461D01*
X49165Y23799D01*
X49200Y24150D01*
X49165Y24501D01*
X49063Y24839D01*
X48896Y25150D01*
X48673Y25423D01*
X48400Y25646D01*
X48089Y25813D01*
X47751Y25915D01*
X47400Y25950D01*
D02*
G37*
G36*
X191600Y16350D02*
X191249Y16315D01*
X190911Y16213D01*
X190600Y16046D01*
X190327Y15823D01*
X190104Y15550D01*
X189937Y15239D01*
X189835Y14901D01*
X189800Y14550D01*
X189835Y14199D01*
X189937Y13861D01*
X190104Y13550D01*
X190327Y13277D01*
X190600Y13054D01*
X190911Y12887D01*
X191249Y12785D01*
X191600Y12750D01*
X191951Y12785D01*
X192289Y12887D01*
X192600Y13054D01*
X192873Y13277D01*
X193096Y13550D01*
X193263Y13861D01*
X193365Y14199D01*
X193400Y14550D01*
X193365Y14901D01*
X193263Y15239D01*
X193096Y15550D01*
X192873Y15823D01*
X192600Y16046D01*
X192289Y16213D01*
X191951Y16315D01*
X191600Y16350D01*
D02*
G37*
G36*
X56200Y23750D02*
X55849Y23715D01*
X55511Y23613D01*
X55200Y23446D01*
X54927Y23223D01*
X54704Y22950D01*
X54537Y22639D01*
X54435Y22301D01*
X54400Y21950D01*
X54435Y21599D01*
X54537Y21261D01*
X54704Y20950D01*
X54927Y20677D01*
X55200Y20454D01*
X55511Y20287D01*
X55849Y20185D01*
X56200Y20150D01*
X56551Y20185D01*
X56889Y20287D01*
X57200Y20454D01*
X57473Y20677D01*
X57696Y20950D01*
X57863Y21261D01*
X57965Y21599D01*
X58000Y21950D01*
X57965Y22301D01*
X57863Y22639D01*
X57696Y22950D01*
X57473Y23223D01*
X57200Y23446D01*
X56889Y23613D01*
X56551Y23715D01*
X56200Y23750D01*
D02*
G37*
G36*
X51000Y23950D02*
X50649Y23915D01*
X50311Y23813D01*
X50000Y23646D01*
X49727Y23423D01*
X49504Y23150D01*
X49337Y22839D01*
X49235Y22501D01*
X49200Y22150D01*
X49235Y21799D01*
X49337Y21461D01*
X49504Y21150D01*
X49727Y20877D01*
X50000Y20654D01*
X50311Y20487D01*
X50649Y20385D01*
X51000Y20350D01*
X51351Y20385D01*
X51689Y20487D01*
X52000Y20654D01*
X52273Y20877D01*
X52496Y21150D01*
X52663Y21461D01*
X52765Y21799D01*
X52800Y22150D01*
X52765Y22501D01*
X52663Y22839D01*
X52496Y23150D01*
X52273Y23423D01*
X52000Y23646D01*
X51689Y23813D01*
X51351Y23915D01*
X51000Y23950D01*
D02*
G37*
G36*
X57000Y210650D02*
X56649Y210615D01*
X56311Y210513D01*
X56000Y210346D01*
X55727Y210123D01*
X55504Y209850D01*
X55337Y209539D01*
X55235Y209201D01*
X55200Y208850D01*
X55235Y208499D01*
X55337Y208161D01*
X55504Y207850D01*
X55727Y207577D01*
X56000Y207354D01*
X56311Y207187D01*
X56649Y207085D01*
X57000Y207050D01*
X57351Y207085D01*
X57689Y207187D01*
X58000Y207354D01*
X58273Y207577D01*
X58496Y207850D01*
X58663Y208161D01*
X58765Y208499D01*
X58800Y208850D01*
X58765Y209201D01*
X58663Y209539D01*
X58496Y209850D01*
X58273Y210123D01*
X58000Y210346D01*
X57689Y210513D01*
X57351Y210615D01*
X57000Y210650D01*
D02*
G37*
G36*
X61100Y210550D02*
X60749Y210515D01*
X60411Y210413D01*
X60100Y210246D01*
X59827Y210023D01*
X59604Y209750D01*
X59437Y209439D01*
X59335Y209101D01*
X59300Y208750D01*
X59335Y208399D01*
X59437Y208061D01*
X59604Y207750D01*
X59827Y207477D01*
X60100Y207254D01*
X60411Y207087D01*
X60749Y206985D01*
X61100Y206950D01*
X61451Y206985D01*
X61789Y207087D01*
X62100Y207254D01*
X62373Y207477D01*
X62596Y207750D01*
X62763Y208061D01*
X62865Y208399D01*
X62900Y208750D01*
X62865Y209101D01*
X62763Y209439D01*
X62596Y209750D01*
X62373Y210023D01*
X62100Y210246D01*
X61789Y210413D01*
X61451Y210515D01*
X61100Y210550D01*
D02*
G37*
G36*
X254395Y229144D02*
X253340Y229106D01*
X252290Y228993D01*
X251251Y228806D01*
X250229Y228545D01*
X249227Y228211D01*
X248252Y227807D01*
X247307Y227335D01*
X246399Y226796D01*
X245532Y226194D01*
X244710Y225532D01*
X243938Y224812D01*
X243218Y224040D01*
X242556Y223218D01*
X241954Y222351D01*
X241415Y221443D01*
X240943Y220498D01*
X240539Y219523D01*
X240205Y218521D01*
X239944Y217499D01*
X239757Y216460D01*
X239644Y215410D01*
X239606Y214355D01*
X239644Y213300D01*
X239757Y212250D01*
X239944Y211211D01*
X240205Y210189D01*
X240539Y209187D01*
X240943Y208211D01*
X241415Y207267D01*
X241954Y206360D01*
X242556Y205492D01*
X243218Y204670D01*
X243938Y203898D01*
X244710Y203178D01*
X245532Y202516D01*
X246399Y201914D01*
X247307Y201375D01*
X248252Y200903D01*
X249227Y200499D01*
X250229Y200165D01*
X251251Y199904D01*
X252290Y199717D01*
X253340Y199604D01*
X254395Y199566D01*
X255450Y199604D01*
X256500Y199717D01*
X257539Y199904D01*
X258561Y200165D01*
X259563Y200499D01*
X260539Y200903D01*
X261483Y201375D01*
X262390Y201914D01*
X263258Y202516D01*
X264080Y203178D01*
X264852Y203898D01*
X265572Y204670D01*
X266234Y205492D01*
X266836Y206360D01*
X267375Y207267D01*
X267847Y208211D01*
X268251Y209187D01*
X268585Y210189D01*
X268846Y211211D01*
X269033Y212250D01*
X269146Y213300D01*
X269184Y214355D01*
X269146Y215410D01*
X269033Y216460D01*
X268846Y217499D01*
X268585Y218521D01*
X268251Y219523D01*
X267847Y220498D01*
X267375Y221443D01*
X266836Y222351D01*
X266234Y223218D01*
X265572Y224040D01*
X264852Y224812D01*
X264080Y225532D01*
X263258Y226194D01*
X262390Y226796D01*
X261483Y227335D01*
X260539Y227807D01*
X259563Y228211D01*
X258561Y228545D01*
X257539Y228806D01*
X256500Y228993D01*
X255450Y229106D01*
X254395Y229144D01*
D02*
G37*
G36*
X19694Y178333D02*
X19126Y178296D01*
X18567Y178184D01*
X18027Y178001D01*
X17516Y177749D01*
X17042Y177433D01*
X16614Y177057D01*
X16238Y176629D01*
X15922Y176155D01*
X15670Y175644D01*
X15487Y175104D01*
X15375Y174546D01*
X15338Y173977D01*
X15375Y173408D01*
X15487Y172850D01*
X15670Y172310D01*
X15922Y171799D01*
X16238Y171325D01*
X16614Y170897D01*
X17042Y170521D01*
X17516Y170205D01*
X18027Y169953D01*
X18567Y169770D01*
X19126Y169659D01*
X19694Y169621D01*
X20263Y169659D01*
X20821Y169770D01*
X21361Y169953D01*
X21872Y170205D01*
X22346Y170521D01*
X22774Y170897D01*
X23150Y171325D01*
X23466Y171799D01*
X23718Y172310D01*
X23901Y172850D01*
X24013Y173408D01*
X24050Y173977D01*
X24013Y174546D01*
X23901Y175104D01*
X23718Y175644D01*
X23466Y176155D01*
X23150Y176629D01*
X22774Y177057D01*
X22346Y177433D01*
X21872Y177749D01*
X21361Y178001D01*
X20821Y178184D01*
X20263Y178296D01*
X19694Y178333D01*
D02*
G37*
G36*
X73050Y236672D02*
X72810Y236641D01*
X72586Y236548D01*
X72394Y236400D01*
X58993Y223000D01*
X58846Y222808D01*
X58753Y222583D01*
X58721Y222343D01*
Y220653D01*
X49843Y211775D01*
X49696Y211583D01*
X49603Y211359D01*
X49571Y211119D01*
Y210584D01*
X49500Y210546D01*
X49227Y210323D01*
X49004Y210050D01*
X48837Y209739D01*
X48735Y209401D01*
X48700Y209050D01*
X48735Y208699D01*
X48837Y208361D01*
X49004Y208050D01*
X49227Y207777D01*
X49500Y207554D01*
X49811Y207387D01*
X50149Y207285D01*
X50500Y207250D01*
X50851Y207285D01*
X51189Y207387D01*
X51500Y207554D01*
X51773Y207777D01*
X51996Y208050D01*
X52163Y208361D01*
X52265Y208699D01*
X52300Y209050D01*
X52265Y209401D01*
X52163Y209739D01*
X51996Y210050D01*
X51773Y210323D01*
X51729Y210358D01*
X51675Y210946D01*
X51701Y211006D01*
X60307Y219612D01*
X60307Y219612D01*
X60454Y219804D01*
X60547Y220028D01*
X60579Y220269D01*
Y221958D01*
X61182Y222562D01*
X61644Y222370D01*
Y217887D01*
X61466Y217456D01*
X61156Y217376D01*
X61094Y217370D01*
X60756Y217268D01*
X60445Y217101D01*
X60172Y216878D01*
X59949Y216605D01*
X59782Y216294D01*
X59680Y215956D01*
X59645Y215605D01*
X59680Y215254D01*
X59782Y214916D01*
X59949Y214605D01*
X60172Y214332D01*
X60445Y214109D01*
X60756Y213942D01*
X61094Y213840D01*
X61445Y213805D01*
X61796Y213840D01*
X62134Y213942D01*
X62445Y214109D01*
X62718Y214332D01*
X62941Y214605D01*
X63108Y214916D01*
X63115Y214940D01*
X63680Y215081D01*
X65638Y213123D01*
X65638Y213123D01*
X65831Y212976D01*
X66055Y212883D01*
X66295Y212851D01*
X72357D01*
X72549Y212389D01*
X69135Y208975D01*
X68569Y209117D01*
X68563Y209139D01*
X68396Y209450D01*
X68173Y209723D01*
X67900Y209946D01*
X67589Y210113D01*
X67251Y210215D01*
X66900Y210250D01*
X66549Y210215D01*
X66211Y210113D01*
X65900Y209946D01*
X65627Y209723D01*
X65404Y209450D01*
X65237Y209139D01*
X65135Y208801D01*
X65100Y208450D01*
X65135Y208099D01*
X65237Y207761D01*
X65404Y207450D01*
X65627Y207177D01*
X65900Y206954D01*
X66211Y206787D01*
X66233Y206781D01*
X66375Y206215D01*
X64751Y204592D01*
X48656D01*
X48656Y204592D01*
X48416Y204560D01*
X48191Y204468D01*
X47999Y204320D01*
X47999Y204320D01*
X46658Y202979D01*
X45734D01*
X45696Y203050D01*
X45473Y203323D01*
X45200Y203546D01*
X44889Y203713D01*
X44551Y203815D01*
X44200Y203850D01*
X43849Y203815D01*
X43511Y203713D01*
X43200Y203546D01*
X42927Y203323D01*
X42704Y203050D01*
X42537Y202739D01*
X42435Y202401D01*
X42400Y202050D01*
X42435Y201699D01*
X42537Y201361D01*
X42704Y201050D01*
X42927Y200777D01*
X43200Y200554D01*
X43511Y200387D01*
X43849Y200285D01*
X44200Y200250D01*
X44551Y200285D01*
X44791Y200358D01*
X45032Y199908D01*
X44927Y199823D01*
X44704Y199550D01*
X44537Y199239D01*
X44435Y198901D01*
X44400Y198550D01*
X44435Y198199D01*
X44537Y197861D01*
X44098Y197623D01*
X41024Y200697D01*
Y206680D01*
X41524Y206916D01*
X41600Y206854D01*
X41911Y206687D01*
X42249Y206585D01*
X42600Y206550D01*
X42951Y206585D01*
X43289Y206687D01*
X43600Y206854D01*
X43873Y207077D01*
X44096Y207350D01*
X44263Y207661D01*
X44365Y207999D01*
X44400Y208350D01*
X44365Y208701D01*
X44263Y209039D01*
X44096Y209350D01*
X43873Y209623D01*
X43600Y209846D01*
X43289Y210013D01*
X42951Y210115D01*
X42600Y210150D01*
X42249Y210115D01*
X41911Y210013D01*
X41600Y209846D01*
X41524Y209784D01*
X41024Y210020D01*
Y217160D01*
X41672Y217808D01*
X41749Y217785D01*
X42100Y217750D01*
X42451Y217785D01*
X42789Y217887D01*
X43024Y218013D01*
X43224Y217894D01*
X43404Y217663D01*
X43337Y217539D01*
X43235Y217201D01*
X43200Y216850D01*
X43235Y216499D01*
X43337Y216161D01*
X43504Y215850D01*
X43727Y215577D01*
X44000Y215354D01*
X44311Y215187D01*
X44649Y215085D01*
X45000Y215050D01*
X45351Y215085D01*
X45689Y215187D01*
X46000Y215354D01*
X46273Y215577D01*
X46496Y215850D01*
X46663Y216161D01*
X46765Y216499D01*
X46800Y216850D01*
X46765Y217201D01*
X46663Y217539D01*
X46496Y217850D01*
X46273Y218123D01*
X46000Y218346D01*
X45689Y218513D01*
X45351Y218615D01*
X45000Y218650D01*
X44649Y218615D01*
X44311Y218513D01*
X44076Y218387D01*
X43876Y218506D01*
X43696Y218737D01*
X43763Y218861D01*
X43865Y219199D01*
X43900Y219550D01*
X43865Y219901D01*
X43763Y220239D01*
X43596Y220550D01*
X43373Y220823D01*
X43100Y221046D01*
X42789Y221213D01*
X42451Y221315D01*
X42100Y221350D01*
X41749Y221315D01*
X41411Y221213D01*
X41100Y221046D01*
X40827Y220823D01*
X40604Y220550D01*
X40437Y220239D01*
X40335Y219901D01*
X40300Y219550D01*
X40335Y219199D01*
X40358Y219122D01*
X39438Y218202D01*
X39290Y218009D01*
X39198Y217785D01*
X39166Y217545D01*
Y200312D01*
X39198Y200072D01*
X39290Y199847D01*
X39438Y199655D01*
X44478Y194615D01*
X44251Y194135D01*
X44100Y194150D01*
X43749Y194115D01*
X43411Y194013D01*
X43100Y193846D01*
X42827Y193623D01*
X42604Y193350D01*
X42437Y193039D01*
X42335Y192701D01*
X42300Y192350D01*
X42335Y191999D01*
X42437Y191661D01*
X42604Y191350D01*
X42827Y191077D01*
X43100Y190854D01*
X43411Y190687D01*
X43749Y190585D01*
X44100Y190550D01*
X44451Y190585D01*
X44789Y190687D01*
X45100Y190854D01*
X45373Y191077D01*
X45596Y191350D01*
X45763Y191661D01*
X45865Y191999D01*
X45900Y192350D01*
X45885Y192501D01*
X46365Y192728D01*
X47605Y191488D01*
X47798Y191340D01*
X48022Y191248D01*
X48262Y191216D01*
X52845D01*
X53052Y190716D01*
X48703Y186367D01*
X35897D01*
X28355Y193909D01*
X28163Y194056D01*
X27938Y194149D01*
X27698Y194181D01*
X7902D01*
X7662Y194149D01*
X7438Y194056D01*
X7245Y193909D01*
X6628Y193292D01*
X6551Y193315D01*
X6200Y193350D01*
X5849Y193315D01*
X5511Y193213D01*
X5200Y193046D01*
X4927Y192823D01*
X4704Y192550D01*
X4537Y192239D01*
X4435Y191901D01*
X4400Y191550D01*
X4435Y191199D01*
X4537Y190861D01*
X4704Y190550D01*
X4927Y190277D01*
X5200Y190054D01*
X5511Y189887D01*
X5849Y189785D01*
X6200Y189750D01*
X6551Y189785D01*
X6889Y189887D01*
X7200Y190054D01*
X7473Y190277D01*
X7696Y190550D01*
X7863Y190861D01*
X7965Y191199D01*
X8000Y191550D01*
X7965Y191901D01*
X7942Y191978D01*
X8287Y192323D01*
X22918D01*
X23044Y191823D01*
X22900Y191746D01*
X22627Y191523D01*
X22404Y191250D01*
X22237Y190939D01*
X22135Y190601D01*
X22100Y190250D01*
X22135Y189899D01*
X22237Y189561D01*
X22404Y189250D01*
X22627Y188977D01*
X22900Y188754D01*
X23211Y188587D01*
X23549Y188485D01*
X23900Y188450D01*
X24251Y188485D01*
X24383Y188525D01*
X25454Y187454D01*
Y172515D01*
X23561Y170622D01*
X23421Y170440D01*
X23333Y170228D01*
X23303Y170001D01*
Y164862D01*
X23112Y164712D01*
X22803Y164598D01*
X22589Y164713D01*
X22251Y164815D01*
X21900Y164850D01*
X21549Y164815D01*
X21211Y164713D01*
X20900Y164546D01*
X20627Y164323D01*
X20404Y164050D01*
X20366Y163979D01*
X15657D01*
X15417Y163947D01*
X15192Y163855D01*
X15000Y163707D01*
X15000Y163707D01*
X11040Y159747D01*
X11033Y159747D01*
X10540Y159917D01*
Y171022D01*
X10508Y171263D01*
X10415Y171487D01*
X10268Y171679D01*
X7033Y174913D01*
X7129Y175145D01*
X7222Y175531D01*
X7253Y175927D01*
Y178979D01*
X7222Y179375D01*
X7129Y179761D01*
X6977Y180129D01*
X6769Y180468D01*
X6511Y180770D01*
X6209Y181028D01*
X5870Y181236D01*
X5503Y181388D01*
X5116Y181481D01*
X4720Y181512D01*
X1669D01*
X1272Y181481D01*
X886Y181388D01*
X518Y181236D01*
X180Y181028D01*
X-123Y180770D01*
X-381Y180468D01*
X-589Y180129D01*
X-741Y179761D01*
X-834Y179375D01*
X-865Y178979D01*
Y175927D01*
X-834Y175531D01*
X-741Y175145D01*
X-589Y174777D01*
X-381Y174438D01*
X-123Y174136D01*
X180Y173878D01*
X518Y173670D01*
X886Y173518D01*
X1272Y173425D01*
X1669Y173394D01*
X4720D01*
X5116Y173425D01*
X5503Y173518D01*
X5714Y173605D01*
X8682Y170637D01*
Y153972D01*
X8182Y153765D01*
X6635Y155311D01*
X6710Y155423D01*
X6945Y155899D01*
X7116Y156402D01*
X7219Y156923D01*
X7254Y157453D01*
X7219Y157983D01*
X7116Y158504D01*
X6945Y159007D01*
X6710Y159483D01*
X6415Y159924D01*
X6065Y160324D01*
X5666Y160674D01*
X5224Y160969D01*
X4748Y161204D01*
X4245Y161374D01*
X3724Y161478D01*
X3194Y161513D01*
X2664Y161478D01*
X2143Y161374D01*
X1640Y161204D01*
X1164Y160969D01*
X723Y160674D01*
X323Y160324D01*
X-27Y159924D01*
X-322Y159483D01*
X-557Y159007D01*
X-727Y158504D01*
X-831Y157983D01*
X-866Y157453D01*
X-831Y156923D01*
X-727Y156402D01*
X-557Y155899D01*
X-322Y155423D01*
X-27Y154981D01*
X323Y154582D01*
X723Y154232D01*
X1164Y153937D01*
X1640Y153702D01*
X2143Y153531D01*
X2664Y153428D01*
X3194Y153393D01*
X3724Y153428D01*
X4245Y153531D01*
X4748Y153702D01*
X5224Y153937D01*
X5319Y154000D01*
X20349Y138970D01*
X20542Y138822D01*
X20766Y138729D01*
X21006Y138698D01*
X38123D01*
X39538Y137283D01*
X39730Y137136D01*
X39954Y137043D01*
X40195Y137011D01*
X66339D01*
X66546Y136511D01*
X65920Y135885D01*
X65780Y135703D01*
X65692Y135491D01*
X65662Y135264D01*
Y130696D01*
X65692Y130469D01*
X65780Y130257D01*
X65920Y130075D01*
X67177Y128818D01*
X67359Y128678D01*
X67571Y128591D01*
X67798Y128561D01*
X67798Y128561D01*
X86223D01*
X86298Y128061D01*
X86172Y128023D01*
X85861Y127856D01*
X85588Y127633D01*
X85365Y127360D01*
X85198Y127049D01*
X85096Y126711D01*
X85061Y126360D01*
X85096Y126009D01*
X85198Y125671D01*
X85365Y125360D01*
X85588Y125087D01*
X85737Y124966D01*
X85778Y124860D01*
X85793Y124556D01*
X85749Y124357D01*
X85646Y124273D01*
X85423Y124000D01*
X85256Y123689D01*
X85154Y123351D01*
X85119Y123000D01*
X85154Y122649D01*
X85256Y122311D01*
X85423Y122000D01*
X85646Y121727D01*
X85919Y121504D01*
X86230Y121337D01*
X86568Y121235D01*
X86919Y121200D01*
X87270Y121235D01*
X87608Y121337D01*
X87919Y121504D01*
X88192Y121727D01*
X88415Y122000D01*
X88582Y122311D01*
X88684Y122649D01*
X88719Y123000D01*
X88684Y123351D01*
X88582Y123689D01*
X88415Y124000D01*
X88192Y124273D01*
X88043Y124394D01*
X88002Y124500D01*
X87987Y124804D01*
X88031Y125003D01*
X88134Y125087D01*
X88357Y125360D01*
X88524Y125671D01*
X88626Y126009D01*
X88661Y126360D01*
X88626Y126711D01*
X88524Y127049D01*
X88357Y127360D01*
X88134Y127633D01*
X87861Y127856D01*
X87550Y128023D01*
X87424Y128061D01*
X87498Y128561D01*
X95655D01*
X95780Y128061D01*
X95707Y128022D01*
X95434Y127798D01*
X95210Y127525D01*
X95044Y127214D01*
X94942Y126876D01*
X94907Y126525D01*
X94942Y126174D01*
X95044Y125837D01*
X95210Y125525D01*
X95434Y125253D01*
X95707Y125029D01*
X96018Y124863D01*
X96356Y124760D01*
X96707Y124726D01*
X97058Y124760D01*
X97395Y124863D01*
X97707Y125029D01*
X97979Y125253D01*
X98203Y125525D01*
X98369Y125837D01*
X98472Y126174D01*
X98506Y126525D01*
X98472Y126876D01*
X98369Y127214D01*
X98203Y127525D01*
X97979Y127798D01*
X97707Y128022D01*
X97634Y128061D01*
X97759Y128561D01*
X103321D01*
X103395Y128061D01*
X103382Y128057D01*
X103070Y127890D01*
X102798Y127666D01*
X102574Y127394D01*
X102408Y127083D01*
X102305Y126745D01*
X102271Y126394D01*
X102305Y126043D01*
X102408Y125705D01*
X102574Y125394D01*
X102798Y125121D01*
X103070Y124897D01*
X103382Y124731D01*
X103719Y124629D01*
X104070Y124594D01*
X104421Y124629D01*
X104515Y124657D01*
X104839Y124325D01*
X104660Y123893D01*
X101457D01*
X101229Y123863D01*
X101017Y123775D01*
X100835Y123636D01*
X97958Y120759D01*
X97819Y120577D01*
X97731Y120365D01*
X97701Y120138D01*
Y116329D01*
X97731Y116101D01*
X97819Y115889D01*
X97958Y115707D01*
X100528Y113138D01*
X100710Y112998D01*
X100921Y112911D01*
X101149Y112881D01*
X104505D01*
X104732Y112911D01*
X104944Y112998D01*
X105126Y113138D01*
X105460Y113122D01*
X105477Y113101D01*
X105750Y112877D01*
X106061Y112710D01*
X106399Y112608D01*
X106750Y112573D01*
X107101Y112608D01*
X107439Y112710D01*
X107750Y112877D01*
X108023Y113101D01*
X108247Y113373D01*
X108413Y113684D01*
X108515Y114022D01*
X108550Y114373D01*
X108515Y114724D01*
X108413Y115062D01*
X108301Y115271D01*
X108421Y115590D01*
X108566Y115771D01*
X109230D01*
X109529Y115271D01*
X109516Y115246D01*
X109413Y114909D01*
X109379Y114558D01*
X109413Y114207D01*
X109516Y113869D01*
X109682Y113558D01*
X109906Y113285D01*
X110179Y113061D01*
X110490Y112895D01*
X110827Y112793D01*
X111179Y112758D01*
X111530Y112793D01*
X111867Y112895D01*
X112178Y113061D01*
X112451Y113285D01*
X112675Y113558D01*
X112841Y113869D01*
X112944Y114207D01*
X112978Y114558D01*
X112944Y114909D01*
X112841Y115246D01*
X112828Y115271D01*
X113127Y115771D01*
X134589D01*
X134654Y115650D01*
X134877Y115377D01*
X135150Y115154D01*
X135461Y114987D01*
X135799Y114885D01*
X135914Y114874D01*
X136101Y114353D01*
X134474Y112726D01*
X133911Y112870D01*
X133894Y112928D01*
X133728Y113239D01*
X133504Y113512D01*
X133231Y113735D01*
X132920Y113902D01*
X132582Y114004D01*
X132231Y114039D01*
X131880Y114004D01*
X131543Y113902D01*
X131231Y113735D01*
X130959Y113512D01*
X130735Y113239D01*
X130569Y112928D01*
X130466Y112590D01*
X130431Y112239D01*
X130466Y111888D01*
X130569Y111550D01*
X130594Y111502D01*
X130584Y111324D01*
X130436Y110928D01*
X130386Y110876D01*
X130272Y110815D01*
X130142Y110708D01*
X116553D01*
X116270Y110794D01*
X115919Y110829D01*
X115568Y110794D01*
X115230Y110692D01*
X114919Y110525D01*
X114646Y110302D01*
X114422Y110029D01*
X114256Y109718D01*
X114154Y109380D01*
X114119Y109029D01*
X114154Y108678D01*
X114256Y108340D01*
X114422Y108029D01*
X114423Y108028D01*
X114187Y107528D01*
X93783D01*
X93783Y107528D01*
X93543Y107496D01*
X93319Y107403D01*
X93126Y107256D01*
X92544Y106674D01*
X84330D01*
X82674Y108331D01*
X82481Y108478D01*
X82257Y108571D01*
X82017Y108603D01*
X74586D01*
X74346Y108571D01*
X74122Y108478D01*
X73929Y108331D01*
X70084Y104486D01*
X47759D01*
X47759Y104486D01*
X47519Y104454D01*
X47295Y104361D01*
X47102Y104214D01*
X43518Y100629D01*
X32134D01*
X32096Y100700D01*
X31873Y100973D01*
X31600Y101196D01*
X31289Y101363D01*
X30951Y101465D01*
X30600Y101500D01*
X30249Y101465D01*
X29911Y101363D01*
X29600Y101196D01*
X29327Y100973D01*
X29104Y100700D01*
X28937Y100389D01*
X28835Y100051D01*
X28800Y99700D01*
X28835Y99349D01*
X28937Y99011D01*
X29104Y98700D01*
X29327Y98427D01*
X29600Y98204D01*
X29911Y98037D01*
X30249Y97935D01*
X30600Y97900D01*
X30951Y97935D01*
X31289Y98037D01*
X31600Y98204D01*
X31873Y98427D01*
X32096Y98700D01*
X32134Y98771D01*
X43903D01*
X44143Y98803D01*
X44367Y98896D01*
X44559Y99043D01*
X48144Y102628D01*
X70469D01*
X70709Y102659D01*
X70933Y102752D01*
X71126Y102900D01*
X74971Y106745D01*
X81632D01*
X82778Y105599D01*
X82797Y105555D01*
X82808Y105315D01*
X82727Y104942D01*
X77899Y100113D01*
X77751Y99921D01*
X77658Y99697D01*
X77627Y99457D01*
Y96539D01*
X74216Y93129D01*
X34600D01*
X34360Y93097D01*
X34135Y93005D01*
X33943Y92857D01*
X32728Y91642D01*
X32651Y91665D01*
X32300Y91700D01*
X31949Y91665D01*
X31611Y91563D01*
X31300Y91396D01*
X31027Y91173D01*
X30804Y90900D01*
X30637Y90589D01*
X30535Y90251D01*
X30500Y89900D01*
X30535Y89549D01*
X30637Y89211D01*
X30804Y88900D01*
X31027Y88627D01*
X31300Y88404D01*
X31611Y88237D01*
X31949Y88135D01*
X32300Y88100D01*
X32651Y88135D01*
X32989Y88237D01*
X33300Y88404D01*
X33573Y88627D01*
X33796Y88900D01*
X33963Y89211D01*
X34065Y89549D01*
X34100Y89900D01*
X34065Y90251D01*
X34042Y90328D01*
X34985Y91271D01*
X74189D01*
X74397Y90771D01*
X72461Y88836D01*
X72200Y88696D01*
X71927Y88473D01*
X71704Y88200D01*
X71537Y87889D01*
X71435Y87551D01*
X71400Y87200D01*
X71435Y86849D01*
X71537Y86511D01*
X71704Y86200D01*
X71927Y85927D01*
X72200Y85704D01*
X72511Y85537D01*
X72849Y85435D01*
X73200Y85400D01*
X73551Y85435D01*
X73889Y85537D01*
X74200Y85704D01*
X74473Y85927D01*
X74696Y86200D01*
X74836Y86461D01*
X82208Y93834D01*
X82208Y93834D01*
X82417Y94088D01*
X82572Y94378D01*
X82668Y94693D01*
X82700Y95021D01*
Y98125D01*
X85325Y100751D01*
X98983D01*
X105233Y94501D01*
X105146Y93881D01*
X104857Y93687D01*
X104476Y93118D01*
X104414Y92807D01*
X103872Y92642D01*
X99888Y96627D01*
X99900Y96750D01*
X99865Y97101D01*
X99763Y97439D01*
X99596Y97750D01*
X99373Y98023D01*
X99100Y98246D01*
X98789Y98413D01*
X98451Y98515D01*
X98100Y98550D01*
X97749Y98515D01*
X97411Y98413D01*
X97100Y98246D01*
X96827Y98023D01*
X96604Y97750D01*
X96437Y97439D01*
X96335Y97101D01*
X96300Y96750D01*
X96335Y96399D01*
X96437Y96061D01*
X96478Y95985D01*
X96403Y95878D01*
X96095Y95642D01*
X95950Y95719D01*
X95682Y95801D01*
X95404Y95828D01*
X91983D01*
X91900Y95896D01*
X91589Y96063D01*
X91251Y96165D01*
X90900Y96200D01*
X90549Y96165D01*
X90211Y96063D01*
X89900Y95896D01*
X89627Y95673D01*
X89404Y95400D01*
X89237Y95089D01*
X89135Y94751D01*
X89100Y94400D01*
X89135Y94049D01*
X89237Y93711D01*
X89404Y93400D01*
X89627Y93127D01*
X89769Y93011D01*
X89602Y92511D01*
X87204D01*
X86824Y92481D01*
X86454Y92392D01*
X86102Y92247D01*
X85777Y92048D01*
X85487Y91800D01*
X80127Y86440D01*
X79879Y86150D01*
X79680Y85825D01*
X79534Y85473D01*
X79445Y85102D01*
X79416Y84723D01*
Y80361D01*
X79252Y80252D01*
X78834Y79885D01*
X78544Y79554D01*
X77622D01*
X76576Y80599D01*
X76257Y80873D01*
X75898Y81092D01*
X75510Y81253D01*
X75101Y81351D01*
X74682Y81384D01*
X62974D01*
X62555Y81351D01*
X62146Y81253D01*
X61940Y81168D01*
X61800Y81196D01*
X61244Y81232D01*
X60688Y81196D01*
X60142Y81087D01*
X59615Y80908D01*
X59115Y80662D01*
X58652Y80352D01*
X58234Y79985D01*
X57943Y79654D01*
X44172D01*
X43910Y79952D01*
X43492Y80319D01*
X43029Y80629D01*
X42529Y80875D01*
X42002Y81054D01*
X41456Y81163D01*
X40900Y81199D01*
X40344Y81163D01*
X39798Y81054D01*
X39271Y80875D01*
X38771Y80629D01*
X38308Y80319D01*
X37890Y79952D01*
X37600Y79621D01*
X27128D01*
Y81391D01*
X27098Y81770D01*
X27009Y82141D01*
X26863Y82493D01*
X26664Y82818D01*
X26417Y83108D01*
X25918Y83606D01*
Y85975D01*
X25889Y86355D01*
X25800Y86725D01*
X25654Y87077D01*
X25455Y87402D01*
X25207Y87692D01*
X24479Y88420D01*
Y102898D01*
X24450Y103278D01*
X24361Y103648D01*
X24215Y104000D01*
X24016Y104325D01*
X23768Y104615D01*
X15816Y112567D01*
X15526Y112815D01*
X15202Y113014D01*
X14849Y113160D01*
X14479Y113249D01*
X14099Y113278D01*
X9246D01*
X5703Y116821D01*
Y125950D01*
X5674Y126330D01*
X5585Y126700D01*
X5439Y127052D01*
X5240Y127377D01*
X4992Y127667D01*
X4702Y127915D01*
X4377Y128114D01*
X4025Y128260D01*
X3655Y128349D01*
X3275Y128378D01*
X2895Y128349D01*
X2525Y128260D01*
X2173Y128114D01*
X1848Y127915D01*
X1558Y127667D01*
X1310Y127377D01*
X1111Y127052D01*
X965Y126700D01*
X876Y126330D01*
X847Y125950D01*
Y115815D01*
X876Y115435D01*
X965Y115065D01*
X1111Y114713D01*
X1310Y114388D01*
X1558Y114098D01*
X6523Y109133D01*
X6813Y108885D01*
X7138Y108686D01*
X7490Y108540D01*
X7860Y108451D01*
X8240Y108422D01*
X13093D01*
X19623Y101892D01*
Y88048D01*
X19465Y87956D01*
X19123Y87890D01*
X18973Y88073D01*
X18700Y88296D01*
X18389Y88463D01*
X18051Y88565D01*
X17700Y88600D01*
X17349Y88565D01*
X17011Y88463D01*
X16700Y88296D01*
X16427Y88073D01*
X16204Y87800D01*
X16037Y87489D01*
X15935Y87151D01*
X15900Y86800D01*
X15935Y86449D01*
X16037Y86111D01*
X16204Y85800D01*
X16427Y85527D01*
X16609Y85378D01*
X16617Y85352D01*
X16609Y85032D01*
X16539Y84823D01*
X16398Y84764D01*
X16073Y84565D01*
X15783Y84317D01*
X13183Y81717D01*
X12935Y81427D01*
X12736Y81103D01*
X12590Y80751D01*
X12501Y80380D01*
X12472Y80000D01*
X12501Y79620D01*
X12590Y79250D01*
X12736Y78898D01*
X12935Y78573D01*
X13183Y78283D01*
X13473Y78035D01*
X13798Y77836D01*
X14150Y77690D01*
X14520Y77601D01*
X14900Y77571D01*
X15280Y77601D01*
X15651Y77690D01*
X16003Y77836D01*
X16327Y78035D01*
X16617Y78283D01*
X17979Y79645D01*
X18367Y79326D01*
X18298Y79222D01*
X18164Y78550D01*
X18298Y77878D01*
X18678Y77308D01*
X19248Y76928D01*
X19920Y76794D01*
X20230Y76856D01*
X20590Y76419D01*
X20501Y76049D01*
X20471Y75669D01*
X20501Y75289D01*
X20590Y74919D01*
X20736Y74567D01*
X20935Y74242D01*
X21183Y73952D01*
X21473Y73704D01*
X21798Y73505D01*
X22150Y73359D01*
X22520Y73270D01*
X22900Y73241D01*
X23280Y73270D01*
X23651Y73359D01*
X23912Y73449D01*
X24208Y73072D01*
X24181Y73045D01*
X15428Y64292D01*
X15351Y64315D01*
X15000Y64350D01*
X14649Y64315D01*
X14311Y64213D01*
X14000Y64046D01*
X13727Y63823D01*
X13504Y63550D01*
X13337Y63239D01*
X13235Y62901D01*
X13200Y62550D01*
X13235Y62199D01*
X13337Y61861D01*
X13504Y61550D01*
X13727Y61277D01*
X14000Y61054D01*
X14311Y60887D01*
X14649Y60785D01*
X15000Y60750D01*
X15351Y60785D01*
X15689Y60887D01*
X16000Y61054D01*
X16273Y61277D01*
X16496Y61550D01*
X16663Y61861D01*
X16765Y62199D01*
X16800Y62550D01*
X16765Y62901D01*
X16742Y62978D01*
X25250Y71486D01*
X38162D01*
X38262Y70986D01*
X38081Y70911D01*
X37729Y70696D01*
X37415Y70427D01*
X37147Y70113D01*
X36931Y69761D01*
X36773Y69379D01*
X36676Y68978D01*
X36644Y68566D01*
Y65318D01*
X36676Y64906D01*
X36773Y64505D01*
X36931Y64123D01*
X37093Y63858D01*
X36999Y63571D01*
X36841Y63358D01*
X31078D01*
X30785Y63320D01*
X30512Y63207D01*
X30278Y63027D01*
X29683Y62432D01*
X29500Y62450D01*
X29149Y62415D01*
X28811Y62313D01*
X28500Y62146D01*
X28227Y61923D01*
X28004Y61650D01*
X27837Y61339D01*
X27735Y61001D01*
X27700Y60650D01*
X27735Y60299D01*
X27837Y59961D01*
X28004Y59650D01*
X28227Y59377D01*
X28500Y59154D01*
X28811Y58987D01*
X29054Y58914D01*
X28980Y58414D01*
X11715D01*
X10492Y59637D01*
X10237Y59846D01*
X9947Y60001D01*
X9632Y60097D01*
X9304Y60129D01*
X9304Y60129D01*
X-1665D01*
X-1949Y60215D01*
X-2300Y60250D01*
X-2651Y60215D01*
X-2989Y60113D01*
X-3300Y59946D01*
X-3573Y59723D01*
X-3796Y59450D01*
X-3963Y59139D01*
X-4065Y58801D01*
X-4100Y58450D01*
X-4065Y58099D01*
X-3963Y57761D01*
X-3796Y57450D01*
X-3573Y57177D01*
X-3300Y56954D01*
X-2989Y56787D01*
X-2651Y56685D01*
X-2300Y56650D01*
X-1949Y56685D01*
X-1665Y56771D01*
X8609D01*
X9833Y55547D01*
X9833Y55547D01*
X10087Y55338D01*
X10377Y55183D01*
X10692Y55088D01*
X11020Y55055D01*
X30188D01*
X30189Y55055D01*
X30516Y55088D01*
X30831Y55183D01*
X31121Y55338D01*
X31376Y55547D01*
X34480Y58651D01*
X39735D01*
X39823Y58550D01*
Y48550D01*
X39846Y48375D01*
X39914Y48212D01*
X40021Y48071D01*
X64221Y23871D01*
X64362Y23764D01*
X64525Y23696D01*
X64700Y23673D01*
X134228D01*
X134343Y23519D01*
X134446Y23173D01*
X134304Y23000D01*
X134137Y22689D01*
X134035Y22351D01*
X134000Y22000D01*
X134035Y21649D01*
X134137Y21311D01*
X134304Y21000D01*
X134527Y20727D01*
X134800Y20504D01*
X135111Y20337D01*
X135449Y20235D01*
X135800Y20200D01*
X136151Y20235D01*
X136489Y20337D01*
X136800Y20504D01*
X137073Y20727D01*
X137296Y21000D01*
X137334Y21071D01*
X140915D01*
X146969Y15017D01*
X146950Y14801D01*
X146805Y14474D01*
X146586Y14407D01*
X146275Y14241D01*
X146002Y14017D01*
X145778Y13745D01*
X145612Y13433D01*
X145509Y13096D01*
X145475Y12745D01*
X145509Y12394D01*
X145597Y12104D01*
X145577Y12008D01*
X145287Y11604D01*
X142610D01*
X133342Y20872D01*
X133365Y20949D01*
X133400Y21300D01*
X133365Y21651D01*
X133263Y21989D01*
X133096Y22300D01*
X132873Y22573D01*
X132600Y22796D01*
X132289Y22963D01*
X131951Y23065D01*
X131600Y23100D01*
X131249Y23065D01*
X130911Y22963D01*
X130600Y22796D01*
X130327Y22573D01*
X130104Y22300D01*
X129937Y21989D01*
X129835Y21651D01*
X129800Y21300D01*
X129835Y20949D01*
X129937Y20611D01*
X130104Y20300D01*
X130327Y20027D01*
X130600Y19804D01*
X130911Y19637D01*
X131249Y19535D01*
X131600Y19500D01*
X131951Y19535D01*
X132028Y19558D01*
X141568Y10018D01*
X141568Y10018D01*
X141761Y9870D01*
X141985Y9777D01*
X142225Y9746D01*
X181002D01*
X181243Y9777D01*
X181467Y9870D01*
X181659Y10018D01*
X190104Y18463D01*
X202948D01*
X203188Y18494D01*
X203412Y18587D01*
X203605Y18735D01*
X218007Y33137D01*
X218155Y33330D01*
X218248Y33554D01*
X218279Y33794D01*
Y68634D01*
X221647Y72001D01*
X222147Y71794D01*
X222147Y70623D01*
X223108Y69662D01*
X224563Y69662D01*
X225344Y70443D01*
X225344Y72446D01*
X224584Y73206D01*
X223559D01*
X223352Y73706D01*
X234131Y84485D01*
X234798D01*
X235038Y84517D01*
X235131Y84555D01*
X235262Y84610D01*
X235455Y84757D01*
X243349Y92651D01*
X257070D01*
X257311Y92683D01*
X257535Y92776D01*
X257727Y92924D01*
X273074Y108270D01*
X273074Y108270D01*
X273221Y108462D01*
X273314Y108686D01*
X273346Y108927D01*
X273346Y108927D01*
Y181633D01*
X273314Y181874D01*
X273221Y182098D01*
X273074Y182290D01*
X273074Y182290D01*
X263442Y191922D01*
X263465Y191999D01*
X263500Y192350D01*
X263465Y192701D01*
X263363Y193039D01*
X263196Y193350D01*
X262973Y193623D01*
X262700Y193846D01*
X262389Y194013D01*
X262051Y194115D01*
X261700Y194150D01*
X261349Y194115D01*
X261011Y194013D01*
X260700Y193846D01*
X260427Y193623D01*
X260204Y193350D01*
X260037Y193039D01*
X259935Y192701D01*
X259900Y192350D01*
X259935Y191999D01*
X260037Y191661D01*
X260204Y191350D01*
X260427Y191077D01*
X260700Y190854D01*
X261011Y190687D01*
X261349Y190585D01*
X261700Y190550D01*
X261711Y190533D01*
X261615Y190228D01*
X261467Y189990D01*
X261211Y189913D01*
X260900Y189746D01*
X260627Y189523D01*
X260589Y189476D01*
X260319Y189415D01*
X260012Y189429D01*
X259948Y189459D01*
X250956Y198451D01*
X250764Y198598D01*
X250540Y198691D01*
X250299Y198723D01*
X248036D01*
X210359Y236400D01*
X210166Y236548D01*
X209942Y236641D01*
X209702Y236672D01*
X73051D01*
X73050Y236672D01*
D02*
G37*
%LPD*%
G36*
X118332Y183004D02*
X118525Y182857D01*
X118749Y182764D01*
X118989Y182732D01*
X146474D01*
X146485Y182720D01*
X146706Y182258D01*
X135913Y171464D01*
X135704Y171210D01*
X135549Y170919D01*
X135453Y170604D01*
X135421Y170277D01*
X135421Y170276D01*
Y165085D01*
X135335Y164801D01*
X135300Y164450D01*
X135335Y164099D01*
X135437Y163761D01*
X135604Y163450D01*
X135827Y163177D01*
X136100Y162954D01*
X136411Y162787D01*
X136749Y162685D01*
X137100Y162650D01*
X137451Y162685D01*
X137789Y162787D01*
X138100Y162954D01*
X138373Y163177D01*
X138596Y163450D01*
X138763Y163761D01*
X138865Y164099D01*
X138900Y164450D01*
X138865Y164801D01*
X138779Y165085D01*
Y169581D01*
X155055Y185857D01*
X155055Y185857D01*
X155220Y186058D01*
X155504Y186069D01*
X155772Y186001D01*
X155911Y185741D01*
X156135Y185468D01*
X156407Y185244D01*
X156719Y185078D01*
X157056Y184975D01*
X157407Y184941D01*
X157758Y184975D01*
X158096Y185078D01*
X158407Y185244D01*
X158680Y185468D01*
X158904Y185741D01*
X159070Y186052D01*
X159172Y186389D01*
X159207Y186740D01*
X159172Y187092D01*
X159070Y187429D01*
X158904Y187740D01*
X159142Y188238D01*
X163835D01*
X163938Y188137D01*
X164114Y187738D01*
X164027Y187575D01*
X163924Y187238D01*
X163890Y186887D01*
X163924Y186536D01*
X164027Y186198D01*
X164193Y185887D01*
X164417Y185614D01*
X164690Y185390D01*
X165001Y185224D01*
X165338Y185122D01*
X165690Y185087D01*
X166041Y185122D01*
X166378Y185224D01*
X166689Y185390D01*
X166962Y185614D01*
X167186Y185887D01*
X167352Y186198D01*
X167455Y186536D01*
X167489Y186887D01*
X167455Y187238D01*
X167352Y187575D01*
X167265Y187738D01*
X167441Y188137D01*
X167544Y188238D01*
X168065D01*
X177456Y178847D01*
X177440Y178771D01*
X177035Y178372D01*
X176684Y178407D01*
X176333Y178372D01*
X175996Y178270D01*
X175684Y178103D01*
X175527Y177974D01*
X175370Y178103D01*
X175058Y178270D01*
X174721Y178372D01*
X174370Y178407D01*
X174019Y178372D01*
X173681Y178270D01*
X173370Y178103D01*
X173200Y177964D01*
X173030Y178103D01*
X172719Y178270D01*
X172381Y178372D01*
X172030Y178407D01*
X171679Y178372D01*
X171341Y178270D01*
X171030Y178103D01*
X170757Y177879D01*
X170534Y177607D01*
X170367Y177295D01*
X170265Y176958D01*
X170230Y176607D01*
X170265Y176256D01*
X170367Y175918D01*
X170534Y175607D01*
X170757Y175334D01*
X171030Y175110D01*
X171341Y174944D01*
X171679Y174842D01*
X172030Y174807D01*
X172381Y174842D01*
X172719Y174944D01*
X173030Y175110D01*
X173200Y175250D01*
X173370Y175110D01*
X173681Y174944D01*
X174019Y174842D01*
X174370Y174807D01*
X174721Y174842D01*
X175058Y174944D01*
X175370Y175110D01*
X175527Y175240D01*
X175684Y175110D01*
X175996Y174944D01*
X176333Y174842D01*
X176684Y174807D01*
X177035Y174842D01*
X177373Y174944D01*
X177684Y175110D01*
X177957Y175334D01*
X178181Y175607D01*
X178347Y175918D01*
X178449Y176256D01*
X178484Y176607D01*
X178449Y176958D01*
X178849Y177363D01*
X178924Y177379D01*
X182596Y173707D01*
X182596Y173707D01*
X182788Y173560D01*
X183012Y173467D01*
X183253Y173435D01*
X199723D01*
X200023Y172935D01*
X200012Y172914D01*
X199909Y172577D01*
X199875Y172226D01*
X199909Y171874D01*
X200004Y171564D01*
X199996Y171562D01*
X199684Y171396D01*
X199412Y171172D01*
X199188Y170899D01*
X199021Y170588D01*
X198919Y170250D01*
X198884Y169899D01*
X198919Y169548D01*
X199021Y169211D01*
X199188Y168900D01*
X199412Y168627D01*
X199684Y168403D01*
X199996Y168237D01*
X200333Y168134D01*
X200684Y168100D01*
X201035Y168134D01*
X201373Y168237D01*
X201684Y168403D01*
X201957Y168627D01*
X202181Y168900D01*
X202347Y169211D01*
X202449Y169548D01*
X202484Y169899D01*
X202449Y170250D01*
X202355Y170561D01*
X202363Y170563D01*
X202674Y170729D01*
X202947Y170953D01*
X203171Y171226D01*
X203337Y171537D01*
X203440Y171874D01*
X203474Y172226D01*
X203440Y172577D01*
X203791Y173090D01*
X204018Y173118D01*
X207161Y169975D01*
X207354Y169827D01*
X207578Y169735D01*
X207818Y169703D01*
X228592D01*
X228833Y169735D01*
X229057Y169827D01*
X229249Y169975D01*
X233995Y174721D01*
X236930D01*
X237004Y174221D01*
X236811Y174163D01*
X236500Y173996D01*
X236227Y173773D01*
X236004Y173500D01*
X235837Y173189D01*
X235735Y172851D01*
X235700Y172500D01*
X235735Y172149D01*
X235837Y171811D01*
X236004Y171500D01*
X236227Y171227D01*
X236500Y171004D01*
X236811Y170837D01*
X237149Y170735D01*
X237500Y170700D01*
X237851Y170735D01*
X237983Y170775D01*
X241239Y167518D01*
Y164305D01*
X241269Y164078D01*
X241357Y163866D01*
X241496Y163684D01*
X247439Y157742D01*
Y139681D01*
X245271Y137513D01*
X245205Y137505D01*
X244715Y137665D01*
X244678Y137789D01*
X244511Y138100D01*
X244288Y138373D01*
X244015Y138596D01*
X243704Y138763D01*
X243366Y138865D01*
X243015Y138900D01*
X242664Y138865D01*
X242326Y138763D01*
X242015Y138596D01*
X241888Y138492D01*
X241323Y138393D01*
X241050Y138617D01*
X240739Y138783D01*
X240401Y138885D01*
X240050Y138920D01*
X239699Y138885D01*
X239361Y138783D01*
X239050Y138617D01*
X238777Y138393D01*
X238554Y138120D01*
X238387Y137809D01*
X238285Y137471D01*
X238250Y137120D01*
X238285Y136769D01*
X238387Y136432D01*
X238554Y136120D01*
X238777Y135848D01*
X239050Y135624D01*
X239361Y135458D01*
X239699Y135355D01*
X240050Y135320D01*
X240401Y135355D01*
X240739Y135458D01*
X241050Y135624D01*
X241177Y135728D01*
X241742Y135827D01*
X242015Y135604D01*
X242326Y135437D01*
X242450Y135400D01*
X242610Y134910D01*
X242602Y134844D01*
X240476Y132719D01*
X223931D01*
X223752Y133219D01*
X223793Y133252D01*
X224016Y133525D01*
X224183Y133836D01*
X224285Y134174D01*
X224320Y134525D01*
X224285Y134876D01*
X224183Y135214D01*
X224016Y135525D01*
X223793Y135798D01*
X223520Y136021D01*
X223209Y136188D01*
X222871Y136290D01*
X222520Y136325D01*
X222196Y136293D01*
X222145Y136336D01*
X221961Y136684D01*
X221954Y136747D01*
X222161Y137000D01*
X222328Y137311D01*
X222430Y137649D01*
X222465Y138000D01*
X222430Y138351D01*
X222328Y138689D01*
X222161Y139000D01*
X221938Y139273D01*
X221665Y139496D01*
X221354Y139663D01*
X221016Y139765D01*
X220665Y139800D01*
X220314Y139765D01*
X219976Y139663D01*
X219665Y139496D01*
X219392Y139273D01*
X219169Y139000D01*
X219002Y138689D01*
X218900Y138351D01*
X218865Y138000D01*
X218900Y137649D01*
X219002Y137311D01*
X219169Y137000D01*
X219343Y136787D01*
X219284Y136599D01*
X219072Y136347D01*
X218946Y136385D01*
X218595Y136420D01*
X218244Y136385D01*
X217906Y136283D01*
X217595Y136116D01*
X217322Y135893D01*
X217099Y135620D01*
X217061Y135549D01*
X215217D01*
X215092Y136049D01*
X215101Y136054D01*
X215374Y136277D01*
X215597Y136550D01*
X215764Y136861D01*
X215866Y137199D01*
X215901Y137550D01*
X215866Y137901D01*
X215764Y138239D01*
X215597Y138550D01*
X215374Y138823D01*
X215101Y139046D01*
X214790Y139213D01*
X214452Y139315D01*
X214101Y139350D01*
X213750Y139315D01*
X213673Y139292D01*
X209154Y143811D01*
X209176Y143987D01*
X209337Y144311D01*
X216786D01*
X216962Y144051D01*
X217042Y143811D01*
X216912Y143569D01*
X216810Y143231D01*
X216775Y142880D01*
X216810Y142529D01*
X216912Y142191D01*
X217079Y141880D01*
X217302Y141607D01*
X217575Y141384D01*
X217886Y141217D01*
X218224Y141115D01*
X218575Y141080D01*
X218926Y141115D01*
X219264Y141217D01*
X219575Y141384D01*
X219848Y141607D01*
X220071Y141880D01*
X220238Y142191D01*
X220340Y142529D01*
X220375Y142880D01*
X220340Y143231D01*
X220238Y143569D01*
X220246Y143602D01*
X220565Y144017D01*
X220757Y143999D01*
X220782Y143967D01*
X221055Y143744D01*
X221366Y143577D01*
X221704Y143475D01*
X222055Y143440D01*
X222406Y143475D01*
X222744Y143577D01*
X223055Y143744D01*
X223328Y143967D01*
X223551Y144240D01*
X223718Y144551D01*
X223820Y144889D01*
X223855Y145240D01*
X223820Y145591D01*
X223718Y145929D01*
X223551Y146240D01*
X223328Y146513D01*
X223055Y146736D01*
X222744Y146903D01*
X222406Y147005D01*
X222055Y147040D01*
X221704Y147005D01*
X221366Y146903D01*
X221055Y146736D01*
X220782Y146513D01*
X220661Y146530D01*
X220599Y146571D01*
X220326Y147083D01*
X220344Y147144D01*
X220379Y147495D01*
X220344Y147846D01*
X220242Y148184D01*
X220075Y148495D01*
X219852Y148768D01*
X219579Y148991D01*
X219645Y149523D01*
X219721Y149616D01*
X220525D01*
X220563Y149545D01*
X220786Y149272D01*
X221059Y149049D01*
X221370Y148882D01*
X221708Y148780D01*
X222059Y148745D01*
X222410Y148780D01*
X222748Y148882D01*
X223059Y149049D01*
X223332Y149272D01*
X223555Y149545D01*
X223722Y149856D01*
X223824Y150194D01*
X223859Y150545D01*
X223824Y150896D01*
X223722Y151234D01*
X223555Y151545D01*
X223332Y151818D01*
X223059Y152041D01*
X222748Y152208D01*
X222410Y152310D01*
X222059Y152345D01*
X221708Y152310D01*
X221370Y152208D01*
X221059Y152041D01*
X220786Y151818D01*
X220664Y151669D01*
X220257Y151920D01*
X220251Y151974D01*
X220340Y152269D01*
X220375Y152620D01*
X220340Y152971D01*
X220238Y153309D01*
X220209Y153362D01*
X220599Y153689D01*
X220910Y153522D01*
X221248Y153420D01*
X221599Y153385D01*
X221950Y153420D01*
X222288Y153522D01*
X222599Y153689D01*
X222872Y153912D01*
X223095Y154185D01*
X223262Y154496D01*
X223364Y154834D01*
X223399Y155185D01*
X223364Y155536D01*
X223262Y155874D01*
X223095Y156185D01*
X222872Y156458D01*
X222716Y156585D01*
X222915Y157068D01*
X222995Y157060D01*
X223346Y157095D01*
X223684Y157197D01*
X223995Y157364D01*
X224071Y157426D01*
X224571Y157190D01*
Y156339D01*
X224603Y156099D01*
X224695Y155875D01*
X224843Y155682D01*
X224977Y155548D01*
X224954Y155471D01*
X224919Y155120D01*
X224954Y154769D01*
X225056Y154431D01*
X225223Y154120D01*
X225446Y153847D01*
X225719Y153624D01*
X226030Y153457D01*
X226368Y153355D01*
X226719Y153320D01*
X227070Y153355D01*
X227408Y153457D01*
X227719Y153624D01*
X227992Y153847D01*
X228215Y154120D01*
X228382Y154431D01*
X228484Y154769D01*
X228519Y155120D01*
X228484Y155471D01*
X228382Y155809D01*
X228215Y156120D01*
X227992Y156393D01*
X227849Y156509D01*
X228049Y156992D01*
X228119Y156985D01*
X228470Y157020D01*
X228808Y157122D01*
X229119Y157289D01*
X229392Y157512D01*
X229571Y157731D01*
X229763Y157718D01*
X230071Y157577D01*
Y156045D01*
X230103Y155805D01*
X230195Y155580D01*
X230231Y155534D01*
X230200Y155431D01*
X230165Y155080D01*
X230200Y154729D01*
X230302Y154391D01*
X230469Y154080D01*
X230692Y153807D01*
X230965Y153584D01*
X231276Y153417D01*
X231614Y153315D01*
X231965Y153280D01*
X232316Y153315D01*
X232654Y153417D01*
X232965Y153584D01*
X233238Y153807D01*
X233461Y154080D01*
X233628Y154391D01*
X233730Y154729D01*
X233765Y155080D01*
X233730Y155431D01*
X233628Y155769D01*
X233461Y156080D01*
X233295Y156283D01*
X233402Y156571D01*
X233555Y156739D01*
X233845Y156710D01*
X234196Y156745D01*
X234534Y156847D01*
X234845Y157014D01*
X235118Y157237D01*
X235341Y157510D01*
X235508Y157821D01*
X235610Y158159D01*
X235645Y158510D01*
X235610Y158861D01*
X235508Y159199D01*
X235341Y159510D01*
X235118Y159783D01*
X234845Y160006D01*
X234534Y160173D01*
X234196Y160275D01*
X233845Y160310D01*
X233494Y160275D01*
X233156Y160173D01*
X232845Y160006D01*
X232572Y159783D01*
X232349Y159510D01*
X232327Y159469D01*
X232003Y159442D01*
X231764Y159477D01*
X231657Y159617D01*
X231657Y159617D01*
X228211Y163062D01*
X228019Y163210D01*
X227795Y163303D01*
X227554Y163334D01*
X214136D01*
X213895Y163303D01*
X213671Y163210D01*
X213479Y163062D01*
X213479Y163062D01*
X207684Y157267D01*
X186446D01*
X186206Y157236D01*
X185982Y157143D01*
X185790Y156995D01*
X179460Y150666D01*
X176760D01*
X176685Y151166D01*
X176851Y151216D01*
X177162Y151382D01*
X177435Y151606D01*
X177658Y151879D01*
X177825Y152190D01*
X177927Y152528D01*
X177962Y152879D01*
X178243Y153160D01*
X178594Y153194D01*
X178931Y153297D01*
X179243Y153463D01*
X179515Y153687D01*
X179739Y153960D01*
X179905Y154271D01*
X180008Y154608D01*
X180043Y154959D01*
X180008Y155311D01*
X179905Y155648D01*
X179739Y155959D01*
X179515Y156232D01*
X179243Y156456D01*
X178931Y156622D01*
X178594Y156725D01*
X178243Y156759D01*
X177892Y156725D01*
X177554Y156622D01*
X177243Y156456D01*
X176970Y156232D01*
X176746Y155959D01*
X176580Y155648D01*
X176478Y155311D01*
X176443Y154959D01*
X176162Y154678D01*
X175811Y154644D01*
X175473Y154541D01*
X175162Y154375D01*
X174889Y154151D01*
X174666Y153878D01*
X174499Y153567D01*
X174397Y153230D01*
X174362Y152879D01*
X174397Y152528D01*
X174499Y152190D01*
X174666Y151879D01*
X174889Y151606D01*
X175162Y151382D01*
X175473Y151216D01*
X175639Y151166D01*
X175565Y150666D01*
X145717D01*
X123129Y173253D01*
X122937Y173401D01*
X122713Y173494D01*
X122473Y173525D01*
X111308D01*
X110487Y174346D01*
X110295Y174494D01*
X110071Y174586D01*
X109830Y174618D01*
X99912D01*
X99912Y174618D01*
X99671Y174586D01*
X99447Y174494D01*
X99255Y174346D01*
X97934Y173025D01*
X97454Y172979D01*
X97187Y173245D01*
X97012Y173245D01*
X97012Y173245D01*
X92965Y173245D01*
X92025Y172305D01*
X92025Y170069D01*
X93041Y169052D01*
Y168577D01*
X93441Y168975D01*
X93636Y168909D01*
X93889Y168717D01*
X93871Y168577D01*
Y167125D01*
X93371Y166888D01*
X93300Y166946D01*
X92989Y167113D01*
X92651Y167215D01*
X92300Y167250D01*
X91949Y167215D01*
X91611Y167113D01*
X91300Y166946D01*
X91027Y166723D01*
X90804Y166450D01*
X90637Y166139D01*
X90535Y165801D01*
X90500Y165450D01*
X90535Y165099D01*
X90637Y164761D01*
X90804Y164450D01*
X91027Y164177D01*
X91300Y163954D01*
X91371Y163916D01*
Y163213D01*
X91403Y162972D01*
X91496Y162748D01*
X91643Y162556D01*
X92120Y162079D01*
X91913Y161579D01*
X33434D01*
X33396Y161650D01*
X33173Y161923D01*
X32900Y162146D01*
X32589Y162313D01*
X32251Y162415D01*
X31900Y162450D01*
X31549Y162415D01*
X31211Y162313D01*
X30900Y162146D01*
X30627Y161923D01*
X30404Y161650D01*
X30237Y161339D01*
X30135Y161001D01*
X30100Y160650D01*
X30135Y160299D01*
X30237Y159961D01*
X30404Y159650D01*
X30627Y159377D01*
X30900Y159154D01*
X31211Y158987D01*
X31549Y158885D01*
X31900Y158850D01*
X32251Y158885D01*
X32589Y158987D01*
X32900Y159154D01*
X33173Y159377D01*
X33396Y159650D01*
X33434Y159721D01*
X91981D01*
X92752Y158950D01*
X92545Y158450D01*
X35171D01*
X35171Y158450D01*
X34931Y158419D01*
X34707Y158326D01*
X34514Y158178D01*
X34514Y158178D01*
X28628Y152292D01*
X28551Y152315D01*
X28200Y152350D01*
X27849Y152315D01*
X27511Y152213D01*
X27200Y152046D01*
X26927Y151823D01*
X26704Y151550D01*
X26537Y151239D01*
X26435Y150901D01*
X26400Y150550D01*
X26435Y150199D01*
X26537Y149861D01*
X26704Y149550D01*
X26927Y149277D01*
X26934Y149272D01*
X26756Y148772D01*
X21062D01*
X20607Y149226D01*
X20794Y149747D01*
X20834Y149751D01*
X21171Y149853D01*
X21482Y150020D01*
X21755Y150243D01*
X21979Y150516D01*
X22145Y150827D01*
X22248Y151165D01*
X22282Y151516D01*
X22248Y151867D01*
X22208Y151999D01*
X24803Y154594D01*
X24942Y154776D01*
X25030Y154988D01*
X25060Y155215D01*
Y166450D01*
X25126Y166509D01*
X25560Y166668D01*
X25700Y166554D01*
X26011Y166387D01*
X26349Y166285D01*
X26700Y166250D01*
X27051Y166285D01*
X27389Y166387D01*
X27700Y166554D01*
X27973Y166777D01*
X28196Y167050D01*
X28363Y167361D01*
X28465Y167699D01*
X28500Y168050D01*
X28996Y168096D01*
X29037Y167961D01*
X29204Y167650D01*
X29427Y167377D01*
X29700Y167154D01*
X30011Y166987D01*
X30349Y166885D01*
X30700Y166850D01*
X31051Y166885D01*
X31389Y166987D01*
X31700Y167154D01*
X31973Y167377D01*
X32196Y167650D01*
X32363Y167961D01*
X32465Y168299D01*
X32500Y168650D01*
X32465Y169001D01*
X32363Y169339D01*
X32196Y169650D01*
X31973Y169923D01*
X31700Y170146D01*
X31389Y170313D01*
X31051Y170415D01*
X30700Y170450D01*
X30349Y170415D01*
X30011Y170313D01*
X29700Y170146D01*
X29427Y169923D01*
X29204Y169650D01*
X29037Y169339D01*
X28935Y169001D01*
X28900Y168650D01*
X28404Y168604D01*
X28363Y168739D01*
X28196Y169050D01*
X27973Y169323D01*
X27700Y169546D01*
X27389Y169713D01*
X27051Y169815D01*
X26700Y169850D01*
X26349Y169815D01*
X26011Y169713D01*
X25700Y169546D01*
X25571Y169440D01*
X25235Y169811D01*
X26953Y171530D01*
X26953Y171530D01*
X27093Y171712D01*
X27181Y171924D01*
X27211Y172151D01*
Y187818D01*
X27181Y188045D01*
X27093Y188257D01*
X26953Y188439D01*
X25625Y189767D01*
X25665Y189899D01*
X25700Y190250D01*
X25665Y190601D01*
X25563Y190939D01*
X25396Y191250D01*
X25173Y191523D01*
X24900Y191746D01*
X24756Y191823D01*
X24882Y192323D01*
X27313D01*
X34855Y184781D01*
X34855Y184781D01*
X35047Y184634D01*
X35271Y184541D01*
X35512Y184509D01*
X49088D01*
X49329Y184541D01*
X49553Y184634D01*
X49745Y184781D01*
X58490Y193526D01*
X97930D01*
X98166Y193026D01*
X98104Y192950D01*
X97937Y192639D01*
X97835Y192301D01*
X97800Y191950D01*
X97835Y191599D01*
X97937Y191261D01*
X98104Y190950D01*
X98327Y190677D01*
X98600Y190454D01*
X98911Y190287D01*
X99249Y190185D01*
X99600Y190150D01*
X99951Y190185D01*
X100289Y190287D01*
X100600Y190454D01*
X100873Y190677D01*
X101096Y190950D01*
X101263Y191261D01*
X101365Y191599D01*
X101400Y191950D01*
X101365Y192301D01*
X101263Y192639D01*
X101096Y192950D01*
X101034Y193026D01*
X101270Y193526D01*
X107810D01*
X118332Y183004D01*
D02*
G37*
G36*
X87539Y36457D02*
X114673D01*
X114909Y35957D01*
X114904Y35950D01*
X114737Y35639D01*
X114635Y35301D01*
X114600Y34950D01*
X114635Y34599D01*
X114737Y34261D01*
X114904Y33950D01*
X115127Y33677D01*
X115400Y33454D01*
X115711Y33287D01*
X116049Y33185D01*
X116400Y33150D01*
X116751Y33185D01*
X117089Y33287D01*
X117400Y33454D01*
X117673Y33677D01*
X117896Y33950D01*
X118063Y34261D01*
X118165Y34599D01*
X118200Y34950D01*
X118165Y35301D01*
X118063Y35639D01*
X117896Y35950D01*
X117891Y35957D01*
X118127Y36457D01*
X135484D01*
X135959Y36932D01*
X157773D01*
X158027Y36453D01*
X157861Y36142D01*
X157758Y35804D01*
X157724Y35453D01*
X157758Y35102D01*
X157861Y34764D01*
X158027Y34453D01*
X158251Y34180D01*
X158523Y33957D01*
X158835Y33790D01*
X159172Y33688D01*
X159523Y33653D01*
X159874Y33688D01*
X160212Y33790D01*
X160523Y33957D01*
X160727Y34124D01*
X160796Y34180D01*
X161255Y34199D01*
X161528Y33976D01*
X161839Y33809D01*
X162176Y33707D01*
X162527Y33672D01*
X162878Y33707D01*
X163216Y33809D01*
X163527Y33976D01*
X163800Y34199D01*
X164024Y34472D01*
X164190Y34783D01*
X164292Y35121D01*
X164327Y35472D01*
X164292Y35823D01*
X164190Y36161D01*
X164024Y36472D01*
X163800Y36745D01*
X163527Y36968D01*
X163216Y37135D01*
X162878Y37237D01*
X162527Y37272D01*
X162176Y37237D01*
X161839Y37135D01*
X161528Y36968D01*
X161323Y36801D01*
X161255Y36745D01*
X160796Y36726D01*
X160700Y36804D01*
X160679Y36832D01*
X160614Y37322D01*
X160646Y37451D01*
X167762Y44567D01*
X168349D01*
X171186Y47404D01*
X180013Y47404D01*
X186312Y41104D01*
Y30511D01*
X186344Y30270D01*
X186436Y30046D01*
X186584Y29854D01*
X186622Y29816D01*
Y24138D01*
X178003Y15519D01*
X149376D01*
X140546Y24350D01*
X64700D01*
X40500Y48550D01*
Y58550D01*
X40601Y58651D01*
X60690D01*
X61010Y58151D01*
X60985Y58069D01*
X60950Y57718D01*
X60985Y57367D01*
X61087Y57029D01*
X61254Y56718D01*
X61477Y56446D01*
X61750Y56222D01*
X62061Y56055D01*
X62399Y55953D01*
X62750Y55919D01*
X63101Y55953D01*
X63439Y56055D01*
X63750Y56222D01*
X64023Y56446D01*
X64246Y56718D01*
X64413Y57029D01*
X64515Y57367D01*
X64550Y57718D01*
X64515Y58069D01*
X64490Y58151D01*
X64810Y58651D01*
X65344D01*
X87539Y36457D01*
D02*
G37*
G36*
X244254Y194674D02*
X244231Y194597D01*
X244197Y194246D01*
X244231Y193895D01*
X244334Y193557D01*
X244500Y193246D01*
X244724Y192973D01*
X244997Y192749D01*
X245308Y192583D01*
X245645Y192481D01*
X245996Y192446D01*
X246347Y192481D01*
X246685Y192583D01*
X246996Y192749D01*
X247269Y192973D01*
X247493Y193246D01*
X247659Y193557D01*
X247761Y193895D01*
X247796Y194246D01*
X247761Y194597D01*
X247687Y194842D01*
X247894Y195039D01*
X248104Y195133D01*
X248558Y194678D01*
X248535Y194601D01*
X248500Y194250D01*
X248535Y193899D01*
X248637Y193561D01*
X248804Y193250D01*
X249027Y192977D01*
X249300Y192754D01*
X249611Y192587D01*
X249949Y192485D01*
X250300Y192450D01*
X250651Y192485D01*
X250989Y192587D01*
X251300Y192754D01*
X251573Y192977D01*
X251796Y193250D01*
X251963Y193561D01*
X252065Y193899D01*
X252075Y193997D01*
X252596Y194184D01*
X258466Y188313D01*
Y186455D01*
X258482Y186337D01*
X258230Y186016D01*
X258159Y185964D01*
X258078Y185922D01*
X257800Y185950D01*
X257449Y185915D01*
X257111Y185813D01*
X256800Y185646D01*
X256527Y185423D01*
X256304Y185150D01*
X256137Y184839D01*
X256035Y184501D01*
X256000Y184150D01*
X256035Y183799D01*
X256137Y183461D01*
X256304Y183150D01*
X256527Y182877D01*
X256800Y182654D01*
X256871Y182616D01*
Y181297D01*
X256761Y181187D01*
X256613Y180995D01*
X256520Y180771D01*
X256488Y180530D01*
Y175026D01*
X255996Y174809D01*
X255936Y174859D01*
X255768Y175032D01*
X255800Y175350D01*
X255765Y175701D01*
X255663Y176039D01*
X255496Y176350D01*
X255273Y176623D01*
X255000Y176846D01*
X254689Y177013D01*
X254351Y177115D01*
X254000Y177150D01*
X253649Y177115D01*
X253311Y177013D01*
X253000Y176846D01*
X252727Y176623D01*
X252504Y176350D01*
X252337Y176039D01*
X252235Y175701D01*
X252200Y175350D01*
X252235Y174999D01*
X252337Y174661D01*
X252504Y174350D01*
X252727Y174077D01*
X253000Y173854D01*
X253311Y173687D01*
X253649Y173585D01*
X254000Y173550D01*
X254351Y173585D01*
X254428Y173608D01*
X264610Y163427D01*
Y150412D01*
X264109Y150205D01*
X250968Y163347D01*
X251094Y163652D01*
X251094D01*
X251094Y170784D01*
X250855D01*
X250647Y171284D01*
X251406Y172043D01*
X251554Y172235D01*
X251647Y172459D01*
X251678Y172699D01*
Y181615D01*
X252722Y182658D01*
X252799Y182635D01*
X253150Y182600D01*
X253501Y182635D01*
X253839Y182737D01*
X254150Y182904D01*
X254423Y183127D01*
X254646Y183400D01*
X254813Y183711D01*
X254915Y184049D01*
X254950Y184400D01*
X254915Y184751D01*
X254813Y185089D01*
X254646Y185400D01*
X254423Y185673D01*
X254150Y185896D01*
X253839Y186063D01*
X253891Y186569D01*
X254051Y186585D01*
X254389Y186687D01*
X254700Y186854D01*
X254973Y187077D01*
X255196Y187350D01*
X255363Y187661D01*
X255465Y187999D01*
X255500Y188350D01*
X255465Y188701D01*
X255363Y189039D01*
X255196Y189350D01*
X254973Y189623D01*
X254700Y189846D01*
X254389Y190013D01*
X254051Y190115D01*
X253700Y190150D01*
X253349Y190115D01*
X253011Y190013D01*
X252700Y189846D01*
X252427Y189623D01*
X252204Y189350D01*
X252037Y189039D01*
X251935Y188701D01*
X251900Y188350D01*
X251935Y187999D01*
X251958Y187922D01*
X248944Y184907D01*
X248444Y185115D01*
Y186392D01*
X248414Y186619D01*
X248326Y186831D01*
X248186Y187013D01*
X248186Y187013D01*
X241625Y193574D01*
X241443Y193713D01*
X241232Y193801D01*
X241004Y193831D01*
X239079D01*
X238731Y194179D01*
X238549Y194319D01*
X238337Y194407D01*
X238110Y194437D01*
X237799D01*
X237734Y194558D01*
X237510Y194831D01*
X237238Y195054D01*
X236927Y195221D01*
X236589Y195323D01*
X236238Y195358D01*
X235887Y195323D01*
X235549Y195221D01*
X235238Y195054D01*
X234965Y194831D01*
X234741Y194558D01*
X234695Y194471D01*
X234451Y194440D01*
X234143Y194499D01*
X234026Y194717D01*
X233802Y194990D01*
X233529Y195214D01*
X233459Y195252D01*
Y198756D01*
X233427Y198996D01*
X233334Y199220D01*
X233187Y199413D01*
X233186Y199413D01*
X225465Y207134D01*
X225458Y207247D01*
X225617Y207689D01*
X225771Y207736D01*
X226082Y207902D01*
X226355Y208126D01*
X226578Y208399D01*
X226745Y208710D01*
X226847Y209047D01*
X226882Y209398D01*
X226847Y209750D01*
X226745Y210087D01*
X226578Y210398D01*
X226355Y210671D01*
X226082Y210895D01*
X225771Y211061D01*
X225433Y211163D01*
X225082Y211198D01*
X224731Y211163D01*
X224393Y211061D01*
X224082Y210895D01*
X223809Y210671D01*
X223586Y210398D01*
X223419Y210087D01*
X223373Y209933D01*
X222931Y209774D01*
X222818Y209782D01*
X201191Y231408D01*
X201398Y231908D01*
X207020D01*
X244254Y194674D01*
D02*
G37*
G36*
X179894Y50184D02*
X179686Y49684D01*
X170636D01*
X170636Y49684D01*
X170396Y49652D01*
X170172Y49560D01*
X169980Y49412D01*
X169980Y49412D01*
X159357Y38790D01*
X121438D01*
X121231Y39290D01*
X125031Y43090D01*
X125512Y42863D01*
X125500Y42750D01*
X125535Y42399D01*
X125637Y42061D01*
X125804Y41750D01*
X126027Y41477D01*
X126300Y41254D01*
X126611Y41087D01*
X126949Y40985D01*
X127300Y40950D01*
X127651Y40985D01*
X127989Y41087D01*
X128300Y41254D01*
X128573Y41477D01*
X128796Y41750D01*
X128963Y42061D01*
X129065Y42399D01*
X129100Y42750D01*
X129065Y43101D01*
X128963Y43439D01*
X128796Y43750D01*
X128573Y44023D01*
X128300Y44246D01*
X127989Y44413D01*
X127651Y44515D01*
X127300Y44550D01*
X127187Y44539D01*
X126960Y45019D01*
X133801Y51860D01*
X178218D01*
X179894Y50184D01*
D02*
G37*
G36*
X111005Y76779D02*
X111222Y76601D01*
X111469Y76469D01*
X111737Y76388D01*
X112015Y76361D01*
X122595D01*
X127278Y71678D01*
X127495Y71500D01*
X127741Y71368D01*
X128009Y71287D01*
X128288Y71259D01*
X180742D01*
X180879Y71156D01*
X180891Y70919D01*
X180811Y70613D01*
X180500Y70446D01*
X180227Y70223D01*
X180004Y69950D01*
X179837Y69639D01*
X179735Y69301D01*
X179700Y68950D01*
X179735Y68599D01*
X179837Y68261D01*
X180004Y67950D01*
X180227Y67677D01*
X180465Y67482D01*
X180500Y67454D01*
X180581Y67370D01*
X180403Y66939D01*
X180151Y67015D01*
X179800Y67050D01*
X179449Y67015D01*
X179111Y66913D01*
X178800Y66746D01*
X178527Y66523D01*
X178304Y66250D01*
X178137Y65939D01*
X178035Y65601D01*
X178000Y65250D01*
X178035Y64899D01*
X178137Y64561D01*
X178304Y64250D01*
X178527Y63977D01*
X178800Y63754D01*
X179111Y63587D01*
X179449Y63485D01*
X179800Y63450D01*
X180151Y63485D01*
X180489Y63587D01*
X180800Y63754D01*
X181073Y63977D01*
X181296Y64250D01*
X181463Y64561D01*
X181565Y64899D01*
X181600Y65250D01*
X181565Y65601D01*
X181463Y65939D01*
X181296Y66250D01*
X181073Y66523D01*
X180835Y66718D01*
X180800Y66746D01*
X180719Y66830D01*
X180897Y67261D01*
X181149Y67185D01*
X181500Y67150D01*
X181851Y67185D01*
X182189Y67287D01*
X182500Y67454D01*
X182773Y67677D01*
X182996Y67950D01*
X183163Y68261D01*
X183242Y68522D01*
X183473Y68638D01*
X183777Y68694D01*
X187681Y64790D01*
Y51309D01*
X187641Y51271D01*
X187241Y51089D01*
X187199Y51084D01*
X180601Y57682D01*
X180409Y57830D01*
X180185Y57922D01*
X179944Y57954D01*
X126158D01*
X125918Y57922D01*
X125694Y57830D01*
X125501Y57682D01*
X125501Y57682D01*
X118766Y50946D01*
X118277Y51143D01*
X118258Y51187D01*
X118343Y51467D01*
X118378Y51818D01*
X118343Y52169D01*
X118241Y52507D01*
X118074Y52818D01*
X117850Y53091D01*
X117578Y53314D01*
X117316Y53454D01*
X114983Y55787D01*
X114729Y55996D01*
X114438Y56151D01*
X114123Y56247D01*
X113796Y56279D01*
X113796Y56279D01*
X108385D01*
X108178Y56779D01*
X110613Y59214D01*
X110657Y59213D01*
X111119Y59013D01*
X111135Y58849D01*
X111237Y58511D01*
X111404Y58200D01*
X111627Y57927D01*
X111900Y57704D01*
X112211Y57537D01*
X112549Y57435D01*
X112900Y57400D01*
X113251Y57435D01*
X113589Y57537D01*
X113900Y57704D01*
X114173Y57927D01*
X114396Y58200D01*
X114563Y58511D01*
X114665Y58849D01*
X114700Y59200D01*
X114665Y59551D01*
X114563Y59889D01*
X114396Y60200D01*
X114173Y60473D01*
X113900Y60696D01*
X113589Y60863D01*
X113251Y60965D01*
X113087Y60981D01*
X112887Y61443D01*
X112886Y61487D01*
X117317Y65918D01*
X132041D01*
X132157Y65776D01*
X132430Y65553D01*
X132741Y65386D01*
X133079Y65284D01*
X133430Y65249D01*
X133781Y65284D01*
X134118Y65386D01*
X134430Y65553D01*
X134702Y65776D01*
X134926Y66049D01*
X135092Y66360D01*
X135195Y66698D01*
X135229Y67049D01*
X135195Y67400D01*
X135092Y67738D01*
X134926Y68049D01*
X134702Y68322D01*
X134430Y68545D01*
X134118Y68712D01*
X133781Y68814D01*
X133430Y68849D01*
X133079Y68814D01*
X132741Y68712D01*
X132430Y68545D01*
X132157Y68322D01*
X132041Y68180D01*
X116849D01*
X116556Y68141D01*
X116284Y68028D01*
X116050Y67848D01*
X107973Y59772D01*
X107875Y59777D01*
X107464Y59970D01*
X107451Y60141D01*
X107371Y60473D01*
X107240Y60789D01*
X107062Y61080D01*
X106840Y61340D01*
X100078Y68102D01*
Y69931D01*
X100051Y70271D01*
X99971Y70604D01*
X99840Y70920D01*
X99662Y71211D01*
X99440Y71471D01*
X92496Y78415D01*
X92236Y78637D01*
X91944Y78815D01*
X91629Y78946D01*
X91296Y79026D01*
X90956Y79053D01*
X85498D01*
X85221Y79467D01*
X84854Y79885D01*
X84436Y80252D01*
X84272Y80361D01*
Y83717D01*
X88210Y87654D01*
X92159D01*
X95683Y84131D01*
X95973Y83883D01*
X96298Y83684D01*
X96649Y83539D01*
X97020Y83450D01*
X97400Y83420D01*
X97780Y83450D01*
X98150Y83539D01*
X98502Y83684D01*
X98827Y83883D01*
X99117Y84131D01*
X99365Y84421D01*
X99564Y84746D01*
X99710Y85098D01*
X99799Y85468D01*
X99828Y85848D01*
X99799Y86228D01*
X99710Y86599D01*
X99564Y86951D01*
X99365Y87275D01*
X99117Y87565D01*
X94883Y91800D01*
X94593Y92048D01*
X94268Y92247D01*
X93916Y92392D01*
X93545Y92481D01*
X93600Y92972D01*
X94812D01*
X111005Y76779D01*
D02*
G37*
G36*
X211582Y184611D02*
X211561Y184191D01*
X211337Y183919D01*
X211171Y183607D01*
X211069Y183270D01*
X211034Y182919D01*
X211069Y182568D01*
X211171Y182230D01*
X211337Y181919D01*
X211561Y181646D01*
X211834Y181422D01*
X212145Y181256D01*
X212483Y181154D01*
X212834Y181119D01*
X213185Y181154D01*
X213522Y181256D01*
X213833Y181422D01*
X214106Y181646D01*
X214330Y181919D01*
X214496Y182230D01*
X214599Y182568D01*
X214633Y182919D01*
X214599Y183270D01*
X214496Y183607D01*
X214382Y183821D01*
X214497Y184131D01*
X214647Y184321D01*
X216166D01*
X216204Y184250D01*
X216427Y183977D01*
X216700Y183754D01*
X217011Y183587D01*
X217349Y183485D01*
X217700Y183450D01*
X218051Y183485D01*
X218389Y183587D01*
X218700Y183754D01*
X218973Y183977D01*
X219096Y184128D01*
X219596Y183976D01*
Y179149D01*
X219525Y179111D01*
X219252Y178887D01*
X219029Y178614D01*
X218862Y178303D01*
X218760Y177966D01*
X218725Y177615D01*
X218760Y177263D01*
X218839Y177004D01*
X218728Y176759D01*
X218521Y176503D01*
X209278D01*
X208979Y177004D01*
X208986Y177017D01*
X209088Y177354D01*
X209123Y177706D01*
X209088Y178057D01*
X208986Y178394D01*
X208819Y178705D01*
X208596Y178978D01*
X208323Y179202D01*
X208012Y179368D01*
X207674Y179471D01*
X207323Y179505D01*
X206972Y179471D01*
X206634Y179368D01*
X206323Y179202D01*
X206050Y178978D01*
X205827Y178705D01*
X205789Y178634D01*
X185988D01*
X170065Y194558D01*
X170256Y195020D01*
X173065D01*
X173306Y195051D01*
X173530Y195144D01*
X173722Y195292D01*
X180774Y202344D01*
X193849D01*
X211582Y184611D01*
D02*
G37*
G36*
X123153Y203216D02*
X123393Y203185D01*
X123393Y203185D01*
X157126D01*
X157340Y202684D01*
X157065Y202273D01*
X156931Y201601D01*
X157065Y200929D01*
X157446Y200359D01*
X158015Y199979D01*
X158687Y199845D01*
X159359Y199979D01*
X159929Y200359D01*
X160309Y200929D01*
X160443Y201601D01*
X160309Y202273D01*
X160034Y202684D01*
X160248Y203185D01*
X161441D01*
X161568Y203001D01*
X161655Y202684D01*
X161504Y202500D01*
X161337Y202189D01*
X161235Y201851D01*
X161200Y201500D01*
X161235Y201149D01*
X161337Y200811D01*
X161504Y200500D01*
X161727Y200227D01*
X162000Y200004D01*
X162261Y199864D01*
X163663Y198462D01*
X163472Y198001D01*
X158998D01*
X155882Y201117D01*
X155689Y201264D01*
X155465Y201357D01*
X155225Y201389D01*
X149560D01*
X149320Y201357D01*
X149096Y201264D01*
X148904Y201117D01*
X148654Y200867D01*
X148596Y200859D01*
X148099Y201019D01*
X148063Y201139D01*
X147896Y201450D01*
X147673Y201723D01*
X147400Y201946D01*
X147089Y202113D01*
X146751Y202215D01*
X146400Y202250D01*
X146049Y202215D01*
X145711Y202113D01*
X145400Y201946D01*
X145127Y201723D01*
X144904Y201450D01*
X144737Y201139D01*
X144635Y200801D01*
X144600Y200450D01*
X144635Y200099D01*
X144737Y199761D01*
X144904Y199450D01*
X145127Y199177D01*
X145400Y198954D01*
X145711Y198787D01*
X145749Y198776D01*
X145757Y198280D01*
X145757Y198279D01*
X145517Y198247D01*
X145292Y198154D01*
X145100Y198007D01*
X142330Y195237D01*
X142200Y195250D01*
X141849Y195215D01*
X141511Y195113D01*
X141200Y194946D01*
X140927Y194723D01*
X140503Y194993D01*
X140565Y195199D01*
X140600Y195550D01*
X140565Y195901D01*
X140463Y196239D01*
X140296Y196550D01*
X140073Y196823D01*
X139800Y197046D01*
X139489Y197213D01*
X139151Y197315D01*
X138800Y197350D01*
X138449Y197315D01*
X138111Y197213D01*
X138095Y197204D01*
X137771Y197598D01*
X137896Y197750D01*
X138063Y198061D01*
X138165Y198399D01*
X138200Y198750D01*
X138165Y199101D01*
X138063Y199439D01*
X137896Y199750D01*
X137673Y200023D01*
X137400Y200246D01*
X137089Y200413D01*
X136751Y200515D01*
X136400Y200550D01*
X136049Y200515D01*
X135711Y200413D01*
X135400Y200246D01*
X135127Y200023D01*
X134904Y199750D01*
X134737Y199439D01*
X134635Y199101D01*
X134600Y198750D01*
X134635Y198399D01*
X134737Y198061D01*
X134904Y197750D01*
X135127Y197477D01*
X135400Y197254D01*
X135711Y197087D01*
X136049Y196985D01*
X136400Y196950D01*
X136751Y196985D01*
X137089Y197087D01*
X137105Y197096D01*
X137428Y196702D01*
X137304Y196550D01*
X137137Y196239D01*
X137035Y195901D01*
X137000Y195550D01*
X137035Y195199D01*
X137137Y194861D01*
X137220Y194706D01*
X136814Y194405D01*
X129710Y201509D01*
X129518Y201657D01*
X129294Y201750D01*
X129053Y201782D01*
X123820D01*
X122767Y202835D01*
X123050Y203259D01*
X123153Y203216D01*
D02*
G37*
G36*
X95245Y154139D02*
X95081Y153726D01*
X95024Y153652D01*
X94701Y153621D01*
X94364Y153518D01*
X94052Y153352D01*
X93780Y153128D01*
X93556Y152855D01*
X93390Y152544D01*
X93287Y152207D01*
X93253Y151855D01*
X93287Y151504D01*
X93390Y151167D01*
X93556Y150856D01*
X93780Y150583D01*
X93784Y150501D01*
X92362Y149079D01*
X79639D01*
X73345Y155373D01*
X73153Y155520D01*
X72929Y155613D01*
X72688Y155645D01*
X36466D01*
X36225Y155613D01*
X36001Y155520D01*
X35809Y155373D01*
X32528Y152092D01*
X32451Y152115D01*
X32100Y152150D01*
X31790Y152119D01*
X31748Y152161D01*
X31627Y152664D01*
X35556Y156592D01*
X92791D01*
X95245Y154139D01*
D02*
G37*
G36*
X261076Y148705D02*
Y113740D01*
X252478Y105141D01*
X232509D01*
X232269Y105110D01*
X232044Y105017D01*
X231852Y104869D01*
X207328Y80345D01*
X207180Y80152D01*
X207087Y79928D01*
X207055Y79688D01*
Y35576D01*
X205888Y34409D01*
X205324Y34548D01*
X205157Y34859D01*
X204934Y35132D01*
X204661Y35355D01*
X204350Y35522D01*
X204012Y35624D01*
X203661Y35659D01*
X203650Y35658D01*
X203400Y36135D01*
X203496Y36252D01*
X203662Y36563D01*
X203765Y36901D01*
X203799Y37252D01*
X203765Y37603D01*
X203662Y37940D01*
X203496Y38252D01*
X203272Y38524D01*
X202999Y38748D01*
X202688Y38914D01*
X202351Y39017D01*
X201999Y39051D01*
X201648Y39017D01*
X201311Y38914D01*
X201000Y38748D01*
X200727Y38524D01*
X200503Y38252D01*
X200337Y37940D01*
X200234Y37603D01*
X200200Y37252D01*
X200234Y36901D01*
X200337Y36563D01*
X200503Y36252D01*
X200727Y35979D01*
X200961Y35787D01*
X200959Y35652D01*
X200816Y35287D01*
X198686D01*
X195062Y38911D01*
Y46632D01*
X195381Y46816D01*
X195556Y46844D01*
X199012Y43389D01*
Y42562D01*
X198916Y42484D01*
X198692Y42211D01*
X198526Y41900D01*
X198424Y41562D01*
X198389Y41211D01*
X198424Y40860D01*
X198526Y40522D01*
X198692Y40211D01*
X198916Y39938D01*
X199189Y39715D01*
X199500Y39548D01*
X199838Y39446D01*
X200189Y39411D01*
X200540Y39446D01*
X200877Y39548D01*
X201188Y39715D01*
X201461Y39938D01*
X201685Y40211D01*
X201851Y40522D01*
X201954Y40860D01*
X201988Y41211D01*
X201954Y41562D01*
X201851Y41900D01*
X201685Y42211D01*
X201461Y42484D01*
X201365Y42562D01*
Y43876D01*
X201343Y44105D01*
X201276Y44326D01*
X201167Y44530D01*
X201076Y44641D01*
X201113Y44897D01*
X201254Y45182D01*
X201489Y45253D01*
X201800Y45420D01*
X202073Y45643D01*
X202296Y45916D01*
X202463Y46227D01*
X202565Y46565D01*
X202600Y46916D01*
X202565Y47267D01*
X202463Y47605D01*
X202296Y47916D01*
X202073Y48189D01*
X201800Y48412D01*
X201489Y48579D01*
X201151Y48681D01*
X200800Y48716D01*
X200552Y48691D01*
X199794Y49450D01*
Y93489D01*
X203164Y96859D01*
X203164Y96859D01*
X203335Y97083D01*
X203443Y97343D01*
X203480Y97623D01*
X203480Y97623D01*
Y111020D01*
X203673Y111177D01*
X203896Y111450D01*
X204063Y111761D01*
X204165Y112099D01*
X204200Y112450D01*
X204165Y112801D01*
X204063Y113139D01*
X203896Y113450D01*
X203673Y113723D01*
X203400Y113946D01*
X203089Y114113D01*
X202751Y114215D01*
X202400Y114250D01*
X202049Y114215D01*
X201711Y114113D01*
X201400Y113946D01*
X201127Y113723D01*
X200904Y113450D01*
X200737Y113139D01*
X200635Y112801D01*
X200600Y112450D01*
X200635Y112099D01*
X200737Y111761D01*
X200904Y111450D01*
X201127Y111177D01*
X201320Y111020D01*
Y98071D01*
X197950Y94700D01*
X197778Y94476D01*
X197670Y94216D01*
X197633Y93936D01*
X197633Y93936D01*
Y49003D01*
X197633Y49003D01*
X197663Y48772D01*
X197625Y48733D01*
X197081Y48647D01*
X194156Y51573D01*
Y67435D01*
X194133Y67664D01*
X194067Y67885D01*
X193958Y68089D01*
X193811Y68267D01*
X183869Y78209D01*
X183691Y78356D01*
X183487Y78464D01*
X183266Y78531D01*
X183037Y78554D01*
X129700D01*
X125412Y82841D01*
X125234Y82987D01*
X125031Y83096D01*
X124810Y83163D01*
X124580Y83186D01*
X113328D01*
X106466Y90048D01*
X106632Y90580D01*
X106936Y90634D01*
X107101Y90444D01*
X107222Y90217D01*
X107431Y89963D01*
X110091Y87303D01*
X110345Y87094D01*
X110636Y86939D01*
X110951Y86843D01*
X111278Y86811D01*
X111278Y86811D01*
X126390D01*
X126390Y86811D01*
X126718Y86843D01*
X127033Y86939D01*
X127323Y87094D01*
X127577Y87303D01*
X137295Y97021D01*
X143000D01*
X143328Y97053D01*
X143643Y97149D01*
X143933Y97304D01*
X144187Y97513D01*
X144396Y97767D01*
X144551Y98057D01*
X144647Y98372D01*
X144679Y98700D01*
X144647Y99028D01*
X144551Y99343D01*
X144396Y99633D01*
X144187Y99887D01*
X143933Y100096D01*
X143643Y100251D01*
X143328Y100347D01*
X143000Y100379D01*
X141334D01*
X141001Y100879D01*
X141018Y100935D01*
X141053Y101286D01*
X141018Y101637D01*
X140916Y101975D01*
X140750Y102286D01*
X140526Y102559D01*
X140253Y102783D01*
X139942Y102949D01*
X139604Y103051D01*
X139253Y103086D01*
X138902Y103051D01*
X138565Y102949D01*
X138253Y102783D01*
X137981Y102559D01*
X137757Y102286D01*
X137591Y101975D01*
X137488Y101637D01*
X137454Y101286D01*
X137488Y100935D01*
X137505Y100879D01*
X137172Y100379D01*
X136600D01*
X136600Y100379D01*
X136272Y100347D01*
X135957Y100251D01*
X135667Y100096D01*
X135413Y99887D01*
X135413Y99887D01*
X125695Y90169D01*
X112253D01*
X112135Y90359D01*
X112154Y90546D01*
X112322Y90959D01*
X112500Y91054D01*
X112773Y91277D01*
X112996Y91550D01*
X113163Y91861D01*
X113265Y92199D01*
X113300Y92550D01*
X113265Y92901D01*
X113163Y93239D01*
X112996Y93550D01*
X112773Y93823D01*
X112500Y94046D01*
X112199Y94207D01*
X112189Y94241D01*
X112203Y94731D01*
X112389Y94787D01*
X112700Y94954D01*
X112973Y95177D01*
X113196Y95450D01*
X113363Y95761D01*
X113465Y96099D01*
X113500Y96450D01*
X113465Y96801D01*
X113363Y97139D01*
X113196Y97450D01*
X112973Y97723D01*
X112700Y97946D01*
X112389Y98113D01*
X112051Y98215D01*
X111700Y98250D01*
X111349Y98215D01*
X111272Y98192D01*
X104427Y105037D01*
X104253Y105170D01*
X104249Y105220D01*
X104392Y105670D01*
X130839D01*
X130877Y105599D01*
X131101Y105326D01*
X131374Y105103D01*
X131685Y104936D01*
X132022Y104834D01*
X132373Y104799D01*
X132724Y104834D01*
X133062Y104936D01*
X133373Y105103D01*
X133646Y105326D01*
X133870Y105599D01*
X134036Y105910D01*
X134139Y106248D01*
X134173Y106599D01*
X134139Y106950D01*
X134036Y107288D01*
X134030Y107299D01*
X134164Y107793D01*
X134227Y107882D01*
X134259Y107908D01*
X134474Y108023D01*
X134729Y108232D01*
X138765Y112268D01*
X139245Y112041D01*
X139236Y111951D01*
X139271Y111600D01*
X139373Y111263D01*
X139540Y110951D01*
X139763Y110679D01*
X140036Y110455D01*
X140347Y110289D01*
X140685Y110186D01*
X141036Y110152D01*
X141387Y110186D01*
X141725Y110289D01*
X142036Y110455D01*
X142309Y110679D01*
X142532Y110951D01*
X142699Y111263D01*
X142742Y111406D01*
X143271Y111508D01*
X143275Y111507D01*
X143509Y111159D01*
X144078Y110778D01*
X144750Y110644D01*
X145422Y110778D01*
X145992Y111159D01*
X146372Y111728D01*
X146506Y112400D01*
X146372Y113072D01*
X145992Y113642D01*
X145603Y113901D01*
X145755Y114401D01*
X156235D01*
X160674Y109961D01*
Y106513D01*
X160703Y106219D01*
X160789Y105936D01*
X160928Y105675D01*
X161116Y105447D01*
X164296Y102267D01*
X164323Y102177D01*
X164478Y101887D01*
X164687Y101632D01*
X164942Y101424D01*
X165232Y101268D01*
X165547Y101173D01*
X165875Y101141D01*
X185090D01*
X189921Y96310D01*
Y95585D01*
X189835Y95301D01*
X189800Y94950D01*
X189835Y94599D01*
X189937Y94261D01*
X190104Y93950D01*
X190327Y93677D01*
X190600Y93454D01*
X190911Y93287D01*
X191249Y93185D01*
X191600Y93150D01*
X191951Y93185D01*
X192289Y93287D01*
X192600Y93454D01*
X192873Y93677D01*
X193096Y93950D01*
X193263Y94261D01*
X193365Y94599D01*
X193400Y94950D01*
X193365Y95301D01*
X193279Y95585D01*
Y97005D01*
X193279Y97006D01*
X193247Y97333D01*
X193151Y97648D01*
X192996Y97939D01*
X192787Y98193D01*
X186973Y104007D01*
X186719Y104216D01*
X186428Y104371D01*
X186114Y104466D01*
X185786Y104499D01*
X185786Y104499D01*
X166327D01*
X163689Y107137D01*
Y110585D01*
X163660Y110879D01*
X163574Y111162D01*
X163435Y111423D01*
X163247Y111651D01*
X158265Y116633D01*
X158238Y116723D01*
X158083Y117013D01*
X157874Y117267D01*
X157620Y117476D01*
X157330Y117631D01*
X157015Y117727D01*
X156687Y117759D01*
X141773D01*
X141445Y117727D01*
X141137Y118018D01*
X141034Y118356D01*
X140868Y118667D01*
X140644Y118940D01*
X140371Y119163D01*
X140060Y119330D01*
X139723Y119432D01*
X139372Y119467D01*
X139021Y119432D01*
X138683Y119330D01*
X138372Y119163D01*
X138099Y118940D01*
X137875Y118667D01*
X137709Y118356D01*
X137704Y118339D01*
X137150Y118146D01*
X136839Y118313D01*
X136501Y118415D01*
X136150Y118450D01*
X135799Y118415D01*
X135461Y118313D01*
X135150Y118146D01*
X134877Y117923D01*
X134654Y117650D01*
X134589Y117528D01*
X119812D01*
X119787Y118028D01*
X119908Y118040D01*
X120270Y118150D01*
X120604Y118329D01*
X120896Y118569D01*
X126812Y124485D01*
X127052Y124777D01*
X127231Y125111D01*
X127340Y125473D01*
X127377Y125849D01*
X127340Y126226D01*
X127231Y126588D01*
X127052Y126922D01*
X126812Y127214D01*
X126520Y127454D01*
X126186Y127633D01*
X125824Y127743D01*
X125447Y127780D01*
X125071Y127743D01*
X124708Y127633D01*
X124375Y127454D01*
X124082Y127214D01*
X120375Y123507D01*
X120218Y123509D01*
X119826Y123665D01*
X119770Y123850D01*
X119604Y124161D01*
X119380Y124434D01*
X119107Y124658D01*
X118796Y124824D01*
X118458Y124926D01*
X118107Y124961D01*
X117769Y124928D01*
X117743Y124949D01*
X117507Y125373D01*
X124911Y132777D01*
X197645D01*
X202365Y128057D01*
X202547Y127918D01*
X202759Y127830D01*
X202986Y127800D01*
X241628D01*
X241855Y127830D01*
X242067Y127918D01*
X242249Y128057D01*
X253001Y138810D01*
X253141Y138992D01*
X253229Y139204D01*
X253259Y139431D01*
Y155869D01*
X253721Y156060D01*
X261076Y148705D01*
D02*
G37*
G36*
X111960Y210086D02*
X112008Y209928D01*
X112175Y209617D01*
X112399Y209344D01*
X112671Y209120D01*
X112982Y208954D01*
X113320Y208852D01*
X113637Y208821D01*
X113689Y208804D01*
X113763Y208751D01*
X113775Y208671D01*
X113762Y208580D01*
X113552Y208128D01*
X113400Y208046D01*
X113127Y207823D01*
X112904Y207550D01*
X112737Y207239D01*
X112635Y206901D01*
X112600Y206550D01*
X112635Y206199D01*
X112737Y205861D01*
X112904Y205550D01*
X113127Y205277D01*
X113400Y205054D01*
X113711Y204887D01*
X114049Y204785D01*
X114400Y204750D01*
X114751Y204785D01*
X115089Y204887D01*
X115400Y205054D01*
X115673Y205277D01*
X115896Y205550D01*
X116063Y205861D01*
X116143Y206125D01*
X116368Y206238D01*
X116677Y206297D01*
X122778Y200196D01*
X122778Y200196D01*
X122971Y200048D01*
X123195Y199955D01*
X123435Y199924D01*
X123435Y199924D01*
X128668D01*
X138304Y190288D01*
X138496Y190140D01*
X138720Y190048D01*
X138961Y190016D01*
X141663D01*
X141855Y189554D01*
X139816Y187516D01*
X121004D01*
X109868Y198652D01*
X109676Y198800D01*
X109452Y198892D01*
X109211Y198924D01*
X90740D01*
X82842Y206822D01*
X82865Y206899D01*
X82900Y207250D01*
X82865Y207601D01*
X82777Y207891D01*
X82797Y207987D01*
X83088Y208391D01*
X85732D01*
X85911Y207891D01*
X85827Y207823D01*
X85604Y207550D01*
X85437Y207239D01*
X85335Y206901D01*
X85300Y206550D01*
X85335Y206199D01*
X85437Y205861D01*
X85604Y205550D01*
X85827Y205277D01*
X86100Y205054D01*
X86411Y204887D01*
X86749Y204785D01*
X87100Y204750D01*
X87451Y204785D01*
X87789Y204887D01*
X88100Y205054D01*
X88373Y205277D01*
X88596Y205550D01*
X88763Y205861D01*
X88865Y206199D01*
X88900Y206550D01*
X88865Y206901D01*
X88763Y207239D01*
X88596Y207550D01*
X88373Y207823D01*
X88289Y207891D01*
X88468Y208391D01*
X89444D01*
X91947Y205888D01*
X91947Y205888D01*
X92140Y205740D01*
X92364Y205648D01*
X92604Y205616D01*
X97695D01*
X97935Y205648D01*
X98159Y205740D01*
X98352Y205888D01*
X99572Y207108D01*
X99649Y207085D01*
X100000Y207050D01*
X100351Y207085D01*
X100689Y207187D01*
X101000Y207354D01*
X101273Y207577D01*
X101496Y207850D01*
X101663Y208161D01*
X101765Y208499D01*
X101800Y208850D01*
X101766Y209192D01*
X101765Y209202D01*
X102134Y209692D01*
X110474D01*
X110714Y209724D01*
X110939Y209817D01*
X111131Y209964D01*
X111406Y210239D01*
X111526Y210246D01*
X111960Y210086D01*
D02*
G37*
G36*
X137406Y142876D02*
X137241Y142334D01*
X137228Y142331D01*
X136590Y142969D01*
X136398Y143116D01*
X136173Y143209D01*
X135933Y143241D01*
X42152D01*
X40523Y144870D01*
X40331Y145017D01*
X40107Y145110D01*
X39867Y145142D01*
X21496D01*
X20719Y145918D01*
X20926Y146418D01*
X36545D01*
X36775Y146441D01*
X36995Y146508D01*
X37199Y146617D01*
X37377Y146763D01*
X39176Y148563D01*
X39300Y148550D01*
X39651Y148585D01*
X39989Y148687D01*
X40300Y148854D01*
X40573Y149077D01*
X40796Y149350D01*
X40963Y149661D01*
X41065Y149999D01*
X41100Y150350D01*
X41065Y150701D01*
X40963Y151039D01*
X40796Y151350D01*
X40573Y151623D01*
X40300Y151846D01*
X39989Y152013D01*
X39651Y152115D01*
X39300Y152150D01*
X38949Y152115D01*
X38611Y152013D01*
X38300Y151846D01*
X38027Y151623D01*
X37804Y151350D01*
X37637Y151039D01*
X37535Y150701D01*
X37500Y150350D01*
X37512Y150226D01*
X36058Y148772D01*
X33768D01*
X33532Y149272D01*
X33596Y149350D01*
X33763Y149661D01*
X33865Y149999D01*
X33900Y150350D01*
X33865Y150701D01*
X33842Y150778D01*
X36851Y153787D01*
X72303D01*
X78597Y147493D01*
X78789Y147345D01*
X79013Y147253D01*
X79254Y147221D01*
X92747D01*
X92987Y147253D01*
X93212Y147345D01*
X93404Y147493D01*
X95709Y149798D01*
X95709Y149798D01*
X95857Y149991D01*
X95950Y150215D01*
X95962Y150311D01*
X96052Y150359D01*
X96325Y150583D01*
X96549Y150856D01*
X96678Y151097D01*
X96947Y151135D01*
X97216Y151097D01*
X97346Y150856D01*
X97569Y150583D01*
X97842Y150359D01*
X98153Y150193D01*
X98491Y150090D01*
X98842Y150056D01*
X99193Y150090D01*
X99531Y150193D01*
X99842Y150359D01*
X100115Y150583D01*
X100338Y150856D01*
X100468Y151097D01*
X100737Y151135D01*
X101006Y151097D01*
X101135Y150856D01*
X101359Y150583D01*
X101632Y150359D01*
X101943Y150193D01*
X102281Y150090D01*
X102632Y150056D01*
X102983Y150090D01*
X103320Y150193D01*
X103631Y150359D01*
X103904Y150583D01*
X104388D01*
X104661Y150359D01*
X104972Y150193D01*
X105310Y150090D01*
X105661Y150056D01*
X106012Y150090D01*
X106349Y150193D01*
X106660Y150359D01*
X106933Y150583D01*
X107157Y150856D01*
X107323Y151167D01*
X107426Y151504D01*
X107460Y151855D01*
X107426Y152207D01*
X107323Y152544D01*
X107157Y152855D01*
X106933Y153128D01*
X106660Y153352D01*
X106349Y153518D01*
X106012Y153621D01*
X105661Y153655D01*
X105310Y153621D01*
X104972Y153518D01*
X104661Y153352D01*
X104388Y153128D01*
X103904D01*
X103631Y153352D01*
X103320Y153518D01*
X102983Y153621D01*
X102632Y153655D01*
X102281Y153621D01*
X102204Y153597D01*
X101249Y154552D01*
X101456Y155052D01*
X113804D01*
X113857Y155011D01*
X114089Y154552D01*
X114028Y154437D01*
X113926Y154100D01*
X113891Y153749D01*
X113926Y153398D01*
X114028Y153060D01*
X114195Y152749D01*
X114418Y152476D01*
X114691Y152252D01*
X115002Y152086D01*
X115340Y151984D01*
X115691Y151949D01*
X116042Y151984D01*
X116380Y152086D01*
X116691Y152252D01*
X116964Y152476D01*
X117187Y152749D01*
X117354Y153060D01*
X117456Y153398D01*
X117491Y153749D01*
X117456Y154100D01*
X117354Y154437D01*
X117292Y154552D01*
X117525Y155011D01*
X117578Y155052D01*
X125230D01*
X137406Y142876D01*
D02*
G37*
G36*
X221308Y201290D02*
Y198624D01*
X220808Y198417D01*
X206183Y213042D01*
X206390Y213542D01*
X209055D01*
X221308Y201290D01*
D02*
G37*
%LPC*%
G36*
X167715Y183918D02*
X167364Y183883D01*
X167026Y183781D01*
X166715Y183614D01*
X166442Y183390D01*
X166218Y183118D01*
X166052Y182807D01*
X165949Y182469D01*
X165915Y182118D01*
X165949Y181767D01*
X166052Y181429D01*
X166218Y181118D01*
X166442Y180845D01*
X166715Y180622D01*
X167026Y180455D01*
X167364Y180353D01*
X167715Y180318D01*
X168066Y180353D01*
X168403Y180455D01*
X168714Y180622D01*
X168987Y180845D01*
X169211Y181118D01*
X169377Y181429D01*
X169480Y181767D01*
X169514Y182118D01*
X169480Y182469D01*
X169377Y182807D01*
X169211Y183118D01*
X168987Y183390D01*
X168714Y183614D01*
X168403Y183781D01*
X168066Y183883D01*
X167715Y183918D01*
D02*
G37*
G36*
X79881Y185582D02*
X79530Y185547D01*
X79192Y185445D01*
X78881Y185278D01*
X78608Y185055D01*
X78384Y184782D01*
X78218Y184471D01*
X78115Y184133D01*
X78081Y183782D01*
X78115Y183431D01*
X78218Y183093D01*
X78384Y182782D01*
X78608Y182510D01*
X78881Y182286D01*
X79192Y182119D01*
X79530Y182017D01*
X79881Y181982D01*
X80232Y182017D01*
X80569Y182119D01*
X80880Y182286D01*
X81153Y182510D01*
X81377Y182782D01*
X81543Y183093D01*
X81646Y183431D01*
X81680Y183782D01*
X81646Y184133D01*
X81543Y184471D01*
X81377Y184782D01*
X81153Y185055D01*
X80880Y185278D01*
X80569Y185445D01*
X80232Y185547D01*
X79881Y185582D01*
D02*
G37*
G36*
X34900Y183650D02*
X34549Y183615D01*
X34211Y183513D01*
X33900Y183346D01*
X33627Y183123D01*
X33404Y182850D01*
X33237Y182539D01*
X33135Y182201D01*
X33100Y181850D01*
X33135Y181499D01*
X33237Y181161D01*
X33404Y180850D01*
X33627Y180577D01*
X33900Y180354D01*
X34211Y180187D01*
X34549Y180085D01*
X34900Y180050D01*
X35251Y180085D01*
X35589Y180187D01*
X35900Y180354D01*
X36173Y180577D01*
X36396Y180850D01*
X36563Y181161D01*
X36665Y181499D01*
X36700Y181850D01*
X36665Y182201D01*
X36563Y182539D01*
X36396Y182850D01*
X36173Y183123D01*
X35900Y183346D01*
X35589Y183513D01*
X35251Y183615D01*
X34900Y183650D01*
D02*
G37*
G36*
X84942Y187444D02*
X84590Y187410D01*
X84253Y187308D01*
X83942Y187141D01*
X83669Y186917D01*
X83445Y186645D01*
X83279Y186334D01*
X83176Y185996D01*
X83142Y185645D01*
X83176Y185294D01*
X83279Y184956D01*
X83445Y184645D01*
X83669Y184372D01*
X83942Y184148D01*
X84253Y183982D01*
X84590Y183880D01*
X84942Y183845D01*
X85293Y183880D01*
X85630Y183982D01*
X85941Y184148D01*
X86214Y184372D01*
X86438Y184645D01*
X86604Y184956D01*
X86707Y185294D01*
X86741Y185645D01*
X86707Y185996D01*
X86604Y186334D01*
X86438Y186645D01*
X86214Y186917D01*
X85941Y187141D01*
X85630Y187308D01*
X85293Y187410D01*
X84942Y187444D01*
D02*
G37*
G36*
X102402Y186065D02*
X102051Y186031D01*
X101714Y185928D01*
X101402Y185762D01*
X101130Y185538D01*
X100906Y185266D01*
X100740Y184954D01*
X100637Y184617D01*
X100602Y184266D01*
X100637Y183915D01*
X100740Y183577D01*
X100906Y183266D01*
X101130Y182993D01*
X101402Y182769D01*
X101714Y182603D01*
X102051Y182501D01*
X102402Y182466D01*
X102753Y182501D01*
X103091Y182603D01*
X103402Y182769D01*
X103675Y182993D01*
X103899Y183266D01*
X104065Y183577D01*
X104167Y183915D01*
X104202Y184266D01*
X104167Y184617D01*
X104065Y184954D01*
X103899Y185266D01*
X103675Y185538D01*
X103402Y185762D01*
X103091Y185928D01*
X102753Y186031D01*
X102402Y186065D01*
D02*
G37*
G36*
X72708Y186355D02*
X72357Y186320D01*
X72019Y186218D01*
X71708Y186052D01*
X71435Y185828D01*
X71212Y185555D01*
X71045Y185244D01*
X70943Y184906D01*
X70908Y184555D01*
X70943Y184204D01*
X71045Y183867D01*
X71212Y183556D01*
X71435Y183283D01*
X71708Y183059D01*
X72019Y182893D01*
X72357Y182790D01*
X72708Y182756D01*
X73059Y182790D01*
X73397Y182893D01*
X73708Y183059D01*
X73981Y183283D01*
X74204Y183556D01*
X74371Y183867D01*
X74473Y184204D01*
X74508Y184555D01*
X74473Y184906D01*
X74371Y185244D01*
X74204Y185555D01*
X73981Y185828D01*
X73708Y186052D01*
X73397Y186218D01*
X73059Y186320D01*
X72708Y186355D01*
D02*
G37*
G36*
X239662Y152130D02*
X238912Y151980D01*
X238276Y151556D01*
X237852Y150920D01*
X237702Y150170D01*
X237852Y149420D01*
X238276Y148784D01*
X238912Y148360D01*
X239662Y148210D01*
X240412Y148360D01*
X241048Y148784D01*
X241473Y149420D01*
X241622Y150170D01*
X241473Y150920D01*
X241048Y151556D01*
X240412Y151980D01*
X239662Y152130D01*
D02*
G37*
G36*
X239005Y147280D02*
X238654Y147245D01*
X238316Y147143D01*
X238005Y146976D01*
X237732Y146753D01*
X237509Y146480D01*
X237342Y146169D01*
X237240Y145831D01*
X237205Y145480D01*
X237240Y145129D01*
X237342Y144791D01*
X237509Y144480D01*
X237732Y144207D01*
X238005Y143984D01*
X238316Y143817D01*
X238337Y143811D01*
Y143289D01*
X238186Y143243D01*
X237875Y143076D01*
X237602Y142853D01*
X237379Y142580D01*
X237212Y142269D01*
X237110Y141931D01*
X237075Y141580D01*
X237110Y141229D01*
X237212Y140891D01*
X237379Y140580D01*
X237602Y140307D01*
X237875Y140084D01*
X238186Y139917D01*
X238524Y139815D01*
X238875Y139780D01*
X239226Y139815D01*
X239564Y139917D01*
X239875Y140084D01*
X240148Y140307D01*
X240371Y140580D01*
X240538Y140891D01*
X240640Y141229D01*
X240675Y141580D01*
X240640Y141931D01*
X240538Y142269D01*
X240371Y142580D01*
X240148Y142853D01*
X239875Y143076D01*
X239564Y143243D01*
X239543Y143249D01*
Y143772D01*
X239694Y143817D01*
X240005Y143984D01*
X240278Y144207D01*
X240501Y144480D01*
X240668Y144791D01*
X240770Y145129D01*
X240805Y145480D01*
X240770Y145831D01*
X240668Y146169D01*
X240501Y146480D01*
X240278Y146753D01*
X240005Y146976D01*
X239694Y147143D01*
X239356Y147245D01*
X239005Y147280D01*
D02*
G37*
G36*
X239234Y160540D02*
X238883Y160505D01*
X238545Y160403D01*
X238234Y160236D01*
X237961Y160013D01*
X237738Y159740D01*
X237571Y159429D01*
X237469Y159091D01*
X237434Y158740D01*
X237469Y158389D01*
X237571Y158051D01*
X237738Y157740D01*
X237961Y157467D01*
X238234Y157244D01*
X238545Y157077D01*
X238883Y156975D01*
X239234Y156940D01*
X239585Y156975D01*
X239923Y157077D01*
X240234Y157244D01*
X240507Y157467D01*
X240730Y157740D01*
X240897Y158051D01*
X240999Y158389D01*
X241034Y158740D01*
X240999Y159091D01*
X240897Y159429D01*
X240730Y159740D01*
X240507Y160013D01*
X240234Y160236D01*
X239923Y160403D01*
X239585Y160505D01*
X239234Y160540D01*
D02*
G37*
G36*
X239650Y156340D02*
X239299Y156305D01*
X238961Y156203D01*
X238650Y156036D01*
X238377Y155813D01*
X238154Y155540D01*
X237987Y155229D01*
X237885Y154891D01*
X237850Y154540D01*
X237885Y154189D01*
X237987Y153851D01*
X238154Y153540D01*
X238377Y153267D01*
X238650Y153044D01*
X238961Y152877D01*
X239299Y152775D01*
X239650Y152740D01*
X240001Y152775D01*
X240339Y152877D01*
X240650Y153044D01*
X240923Y153267D01*
X241146Y153540D01*
X241313Y153851D01*
X241415Y154189D01*
X241450Y154540D01*
X241415Y154891D01*
X241313Y155229D01*
X241146Y155540D01*
X240923Y155813D01*
X240650Y156036D01*
X240339Y156203D01*
X240001Y156305D01*
X239650Y156340D01*
D02*
G37*
G36*
X157796Y162947D02*
X157445Y162912D01*
X157108Y162810D01*
X156797Y162643D01*
X156524Y162420D01*
X156300Y162147D01*
X156134Y161836D01*
X156031Y161498D01*
X155997Y161147D01*
X156031Y160796D01*
X156134Y160458D01*
X156300Y160147D01*
X156524Y159874D01*
X156797Y159651D01*
X157108Y159484D01*
X157445Y159382D01*
X157796Y159347D01*
X158147Y159382D01*
X158485Y159484D01*
X158796Y159651D01*
X159069Y159874D01*
X159293Y160147D01*
X159459Y160458D01*
X159561Y160796D01*
X159596Y161147D01*
X159561Y161498D01*
X159459Y161836D01*
X159293Y162147D01*
X159069Y162420D01*
X158796Y162643D01*
X158485Y162810D01*
X158147Y162912D01*
X157796Y162947D01*
D02*
G37*
G36*
X146198Y174132D02*
X145847Y174097D01*
X145510Y173995D01*
X145198Y173828D01*
X144926Y173605D01*
X144702Y173332D01*
X144536Y173021D01*
X144433Y172683D01*
X144398Y172332D01*
X144433Y171981D01*
X144536Y171643D01*
X144702Y171332D01*
X144926Y171059D01*
X145198Y170836D01*
X145510Y170669D01*
X145847Y170567D01*
X145929Y170559D01*
X145907Y170331D01*
X145941Y169980D01*
X146044Y169642D01*
X146210Y169331D01*
X146434Y169058D01*
X146707Y168834D01*
X147018Y168668D01*
X147355Y168566D01*
X147707Y168531D01*
X148058Y168566D01*
X148395Y168668D01*
X148706Y168834D01*
X148979Y169058D01*
X149203Y169331D01*
X149369Y169642D01*
X149472Y169980D01*
X149506Y170331D01*
X149484Y170558D01*
X149814Y170659D01*
X150125Y170825D01*
X150398Y171049D01*
X150622Y171321D01*
X150788Y171633D01*
X150890Y171970D01*
X150925Y172321D01*
X150890Y172672D01*
X150788Y173010D01*
X150622Y173321D01*
X150398Y173594D01*
X150125Y173818D01*
X149814Y173984D01*
X149476Y174086D01*
X149125Y174121D01*
X148774Y174086D01*
X148436Y173984D01*
X148125Y173818D01*
X147941Y173666D01*
X147471Y173605D01*
X147198Y173828D01*
X146887Y173995D01*
X146549Y174097D01*
X146198Y174132D01*
D02*
G37*
G36*
X31500Y179450D02*
X31149Y179415D01*
X30811Y179313D01*
X30500Y179146D01*
X30227Y178923D01*
X30004Y178650D01*
X29837Y178339D01*
X29735Y178001D01*
X29700Y177650D01*
X29735Y177299D01*
X29837Y176961D01*
X30004Y176650D01*
X30227Y176377D01*
X30500Y176154D01*
X30811Y175987D01*
X31149Y175885D01*
X31500Y175850D01*
X31851Y175885D01*
X32189Y175987D01*
X32500Y176154D01*
X32773Y176377D01*
X32996Y176650D01*
X33163Y176961D01*
X33265Y177299D01*
X33300Y177650D01*
X33265Y178001D01*
X33163Y178339D01*
X32996Y178650D01*
X32773Y178923D01*
X32500Y179146D01*
X32189Y179313D01*
X31851Y179415D01*
X31500Y179450D01*
D02*
G37*
G36*
X41779Y181131D02*
X41307Y181094D01*
X40847Y180984D01*
X40409Y180803D01*
X40006Y180555D01*
X39646Y180248D01*
X39338Y179888D01*
X39091Y179484D01*
X38910Y179047D01*
X38799Y178586D01*
X38762Y178114D01*
X38799Y177642D01*
X38910Y177182D01*
X39091Y176744D01*
X39338Y176341D01*
X39646Y175981D01*
X40006Y175673D01*
X40409Y175426D01*
X40847Y175245D01*
X41307Y175134D01*
X41779Y175097D01*
X42251Y175134D01*
X42711Y175245D01*
X43149Y175426D01*
X43553Y175673D01*
X43913Y175981D01*
X44220Y176341D01*
X44467Y176744D01*
X44649Y177182D01*
X44759Y177642D01*
X44796Y178114D01*
X44759Y178586D01*
X44649Y179047D01*
X44467Y179484D01*
X44220Y179888D01*
X43913Y180248D01*
X43553Y180555D01*
X43149Y180803D01*
X42711Y180984D01*
X42251Y181094D01*
X41779Y181131D01*
D02*
G37*
G36*
X121031D02*
X120559Y181094D01*
X120099Y180984D01*
X119661Y180803D01*
X119257Y180555D01*
X118897Y180248D01*
X118590Y179888D01*
X118343Y179484D01*
X118161Y179047D01*
X118051Y178586D01*
X118014Y178114D01*
X118051Y177642D01*
X118161Y177182D01*
X118343Y176744D01*
X118590Y176341D01*
X118897Y175981D01*
X119257Y175673D01*
X119661Y175426D01*
X120099Y175245D01*
X120559Y175134D01*
X121031Y175097D01*
X121503Y175134D01*
X121963Y175245D01*
X122401Y175426D01*
X122804Y175673D01*
X123164Y175981D01*
X123472Y176341D01*
X123719Y176744D01*
X123900Y177182D01*
X124011Y177642D01*
X124048Y178114D01*
X124011Y178586D01*
X123900Y179047D01*
X123719Y179484D01*
X123472Y179888D01*
X123164Y180248D01*
X122804Y180555D01*
X122401Y180803D01*
X121963Y180984D01*
X121503Y181094D01*
X121031Y181131D01*
D02*
G37*
G36*
X175115Y166567D02*
X174764Y166533D01*
X174426Y166430D01*
X174115Y166264D01*
X173843Y166040D01*
X173800Y165989D01*
X173465Y165818D01*
X173137Y165927D01*
X173071Y165981D01*
X172760Y166147D01*
X172422Y166249D01*
X172071Y166284D01*
X171720Y166249D01*
X171383Y166147D01*
X171072Y165981D01*
X170799Y165757D01*
X170575Y165484D01*
X170409Y165173D01*
X170306Y164835D01*
X170272Y164484D01*
X170306Y164133D01*
X170409Y163796D01*
X170575Y163485D01*
X170799Y163212D01*
X171072Y162988D01*
X171383Y162822D01*
X171720Y162719D01*
X171957Y162696D01*
X171968Y162587D01*
X172070Y162249D01*
X172237Y161938D01*
X172460Y161665D01*
X172733Y161442D01*
X173044Y161275D01*
X173382Y161173D01*
X173733Y161138D01*
X174084Y161173D01*
X174422Y161275D01*
X174733Y161442D01*
X175006Y161665D01*
X175229Y161938D01*
X175396Y162249D01*
X175498Y162587D01*
X175533Y162938D01*
X175525Y163020D01*
X175804Y163105D01*
X176115Y163271D01*
X176388Y163495D01*
X176612Y163768D01*
X176778Y164079D01*
X176880Y164417D01*
X176915Y164768D01*
X176880Y165119D01*
X176778Y165456D01*
X176612Y165768D01*
X176388Y166040D01*
X176115Y166264D01*
X175804Y166430D01*
X175466Y166533D01*
X175115Y166567D01*
D02*
G37*
G36*
X167047Y164126D02*
X166696Y164091D01*
X166358Y163989D01*
X166047Y163822D01*
X165774Y163599D01*
X165551Y163326D01*
X165384Y163015D01*
X165282Y162677D01*
X165247Y162326D01*
X165282Y161975D01*
X165384Y161637D01*
X165551Y161326D01*
X165774Y161053D01*
X166047Y160830D01*
X166358Y160663D01*
X166696Y160561D01*
X167047Y160526D01*
X167398Y160561D01*
X167736Y160663D01*
X168047Y160830D01*
X168320Y161053D01*
X168543Y161326D01*
X168710Y161637D01*
X168812Y161975D01*
X168847Y162326D01*
X168812Y162677D01*
X168710Y163015D01*
X168543Y163326D01*
X168320Y163599D01*
X168047Y163822D01*
X167736Y163989D01*
X167398Y164091D01*
X167047Y164126D01*
D02*
G37*
G36*
X162129Y164033D02*
X161778Y163998D01*
X161440Y163896D01*
X161129Y163730D01*
X160857Y163506D01*
X160633Y163233D01*
X160466Y162922D01*
X160364Y162584D01*
X160329Y162233D01*
X160364Y161882D01*
X160466Y161545D01*
X160633Y161234D01*
X160857Y160961D01*
X161129Y160737D01*
X161440Y160571D01*
X161778Y160468D01*
X162129Y160434D01*
X162480Y160468D01*
X162818Y160571D01*
X163129Y160737D01*
X163402Y160961D01*
X163626Y161234D01*
X163792Y161545D01*
X163894Y161882D01*
X163929Y162233D01*
X163894Y162584D01*
X163792Y162922D01*
X163626Y163233D01*
X163402Y163506D01*
X163129Y163730D01*
X162818Y163896D01*
X162480Y163998D01*
X162129Y164033D01*
D02*
G37*
G36*
X142181Y165569D02*
X141830Y165534D01*
X141492Y165432D01*
X141181Y165265D01*
X140908Y165042D01*
X140685Y164769D01*
X140518Y164458D01*
X140416Y164120D01*
X140381Y163769D01*
X140416Y163418D01*
X140518Y163080D01*
X140685Y162769D01*
X140908Y162496D01*
X141181Y162273D01*
X141492Y162106D01*
X141830Y162004D01*
X142181Y161969D01*
X142532Y162004D01*
X142870Y162106D01*
X143181Y162273D01*
X143454Y162496D01*
X143677Y162769D01*
X143844Y163080D01*
X143946Y163418D01*
X143981Y163769D01*
X143946Y164120D01*
X143844Y164458D01*
X143677Y164769D01*
X143454Y165042D01*
X143181Y165265D01*
X142870Y165432D01*
X142532Y165534D01*
X142181Y165569D01*
D02*
G37*
G36*
X69220Y50350D02*
X68869Y50315D01*
X68531Y50213D01*
X68220Y50046D01*
X67947Y49823D01*
X67724Y49550D01*
X67557Y49239D01*
X67455Y48901D01*
X67420Y48550D01*
X67455Y48199D01*
X67557Y47861D01*
X67724Y47550D01*
X67947Y47277D01*
X68220Y47054D01*
X68531Y46887D01*
X68869Y46785D01*
X69220Y46750D01*
X69571Y46785D01*
X69909Y46887D01*
X70220Y47054D01*
X70493Y47277D01*
X70716Y47550D01*
X70883Y47861D01*
X70985Y48199D01*
X71020Y48550D01*
X70985Y48901D01*
X70883Y49239D01*
X70716Y49550D01*
X70493Y49823D01*
X70220Y50046D01*
X69909Y50213D01*
X69571Y50315D01*
X69220Y50350D01*
D02*
G37*
G36*
X57920Y55050D02*
X57569Y55015D01*
X57231Y54913D01*
X56920Y54746D01*
X56647Y54523D01*
X56424Y54250D01*
X56257Y53939D01*
X56155Y53601D01*
X56120Y53250D01*
X56155Y52899D01*
X56257Y52561D01*
X56424Y52250D01*
X56647Y51977D01*
X56920Y51754D01*
X57231Y51587D01*
X57569Y51485D01*
X57920Y51450D01*
X58271Y51485D01*
X58609Y51587D01*
X58920Y51754D01*
X59193Y51977D01*
X59416Y52250D01*
X59583Y52561D01*
X59685Y52899D01*
X59720Y53250D01*
X59685Y53601D01*
X59583Y53939D01*
X59416Y54250D01*
X59193Y54523D01*
X58920Y54746D01*
X58609Y54913D01*
X58271Y55015D01*
X57920Y55050D01*
D02*
G37*
G36*
X176297Y28704D02*
X175946Y28670D01*
X175608Y28567D01*
X175297Y28401D01*
X175024Y28177D01*
X174800Y27904D01*
X174634Y27593D01*
X174532Y27255D01*
X174497Y26904D01*
X174532Y26553D01*
X174634Y26216D01*
X174800Y25905D01*
X175024Y25632D01*
X175297Y25408D01*
X175608Y25242D01*
X175946Y25139D01*
X176297Y25105D01*
X176648Y25139D01*
X176986Y25242D01*
X177297Y25408D01*
X177569Y25632D01*
X177793Y25905D01*
X177960Y26216D01*
X178062Y26553D01*
X178096Y26904D01*
X178062Y27255D01*
X177960Y27593D01*
X177793Y27904D01*
X177569Y28177D01*
X177297Y28401D01*
X176986Y28567D01*
X176648Y28670D01*
X176297Y28704D01*
D02*
G37*
G36*
X168978Y31936D02*
X168627Y31901D01*
X168289Y31799D01*
X167978Y31632D01*
X167705Y31409D01*
X167482Y31136D01*
X167315Y30825D01*
X167213Y30487D01*
X167178Y30136D01*
X167213Y29785D01*
X167315Y29447D01*
X167482Y29136D01*
X167705Y28863D01*
X167978Y28640D01*
X167991Y28633D01*
X168029Y28255D01*
X168002Y28060D01*
X167773Y27872D01*
X167549Y27599D01*
X167383Y27288D01*
X167280Y26950D01*
X167246Y26599D01*
X167280Y26248D01*
X167337Y26060D01*
X167236Y25867D01*
X167122Y25743D01*
X166960Y25640D01*
X166556Y25721D01*
X166000Y25757D01*
X165444Y25721D01*
X164898Y25612D01*
X164371Y25433D01*
X163871Y25187D01*
X163408Y24877D01*
X162990Y24510D01*
X162623Y24092D01*
X162313Y23629D01*
X162067Y23129D01*
X161888Y22602D01*
X161779Y22056D01*
X161743Y21500D01*
X161779Y20944D01*
X161888Y20398D01*
X162067Y19871D01*
X162313Y19371D01*
X162623Y18908D01*
X162990Y18490D01*
X163408Y18123D01*
X163871Y17813D01*
X164371Y17567D01*
X164898Y17388D01*
X165444Y17279D01*
X166000Y17243D01*
X166556Y17279D01*
X167102Y17388D01*
X167629Y17567D01*
X168129Y17813D01*
X168592Y18123D01*
X169010Y18490D01*
X169377Y18908D01*
X169687Y19371D01*
X169933Y19871D01*
X170112Y20398D01*
X170221Y20944D01*
X170257Y21500D01*
X170221Y22056D01*
X170112Y22602D01*
X169933Y23129D01*
X169687Y23629D01*
X169377Y24092D01*
X169185Y24311D01*
X169392Y24834D01*
X169397Y24834D01*
X169734Y24937D01*
X170045Y25103D01*
X170318Y25327D01*
X170542Y25599D01*
X170708Y25910D01*
X170811Y26248D01*
X170845Y26599D01*
X170811Y26950D01*
X170708Y27288D01*
X170542Y27599D01*
X170318Y27872D01*
X170045Y28096D01*
X170033Y28102D01*
X169994Y28480D01*
X170021Y28675D01*
X170250Y28863D01*
X170474Y29136D01*
X170641Y29447D01*
X170743Y29785D01*
X170778Y30136D01*
X170743Y30487D01*
X170641Y30825D01*
X170474Y31136D01*
X170250Y31409D01*
X169978Y31632D01*
X169667Y31799D01*
X169329Y31901D01*
X168978Y31936D01*
D02*
G37*
G36*
X157624Y25756D02*
X154376D01*
X153964Y25724D01*
X153563Y25627D01*
X153181Y25469D01*
X152829Y25253D01*
X152515Y24985D01*
X152247Y24671D01*
X152031Y24319D01*
X151873Y23937D01*
X151776Y23536D01*
X151744Y23124D01*
Y19876D01*
X151776Y19464D01*
X151873Y19063D01*
X152031Y18681D01*
X152247Y18329D01*
X152515Y18015D01*
X152829Y17747D01*
X153181Y17531D01*
X153563Y17373D01*
X153964Y17276D01*
X154376Y17244D01*
X157624D01*
X158036Y17276D01*
X158437Y17373D01*
X158819Y17531D01*
X159171Y17747D01*
X159485Y18015D01*
X159753Y18329D01*
X159969Y18681D01*
X160127Y19063D01*
X160224Y19464D01*
X160256Y19876D01*
Y23124D01*
X160224Y23536D01*
X160127Y23937D01*
X159969Y24319D01*
X159753Y24671D01*
X159485Y24985D01*
X159171Y25253D01*
X158819Y25469D01*
X158437Y25627D01*
X158036Y25724D01*
X157624Y25756D01*
D02*
G37*
G36*
X173000Y44950D02*
X172649Y44915D01*
X172311Y44813D01*
X172000Y44646D01*
X171727Y44423D01*
X171504Y44150D01*
X171337Y43839D01*
X171235Y43501D01*
X171200Y43150D01*
X171235Y42799D01*
X171337Y42461D01*
X171504Y42150D01*
X171727Y41877D01*
X172000Y41654D01*
X172311Y41487D01*
X172469Y41439D01*
X172609Y40984D01*
X172599Y40888D01*
X172404Y40650D01*
X172237Y40339D01*
X172135Y40001D01*
X172100Y39650D01*
X172135Y39299D01*
X172237Y38961D01*
X172404Y38650D01*
X172627Y38377D01*
X172900Y38154D01*
X173211Y37987D01*
X173549Y37885D01*
X173557Y37884D01*
X173653Y37593D01*
X173638Y37374D01*
X173400Y37246D01*
X173127Y37023D01*
X172904Y36750D01*
X172737Y36439D01*
X172635Y36101D01*
X172600Y35750D01*
X172635Y35399D01*
X172737Y35061D01*
X172904Y34750D01*
X173127Y34477D01*
X173400Y34254D01*
X173711Y34087D01*
X174049Y33985D01*
X174400Y33950D01*
X174751Y33985D01*
X175089Y34087D01*
X175400Y34254D01*
X175673Y34477D01*
X175896Y34750D01*
X176063Y35061D01*
X176165Y35399D01*
X176200Y35750D01*
X176165Y36101D01*
X176063Y36439D01*
X175896Y36750D01*
X175673Y37023D01*
X175400Y37246D01*
X175089Y37413D01*
X174751Y37515D01*
X174742Y37516D01*
X174647Y37808D01*
X174662Y38026D01*
X174900Y38154D01*
X175173Y38377D01*
X175396Y38650D01*
X175563Y38961D01*
X175665Y39299D01*
X175700Y39650D01*
X175665Y40001D01*
X175563Y40339D01*
X175396Y40650D01*
X175173Y40923D01*
X174900Y41146D01*
X174589Y41313D01*
X174431Y41361D01*
X174291Y41816D01*
X174301Y41912D01*
X174496Y42150D01*
X174663Y42461D01*
X174765Y42799D01*
X174800Y43150D01*
X174765Y43501D01*
X174663Y43839D01*
X174496Y44150D01*
X174273Y44423D01*
X174000Y44646D01*
X173689Y44813D01*
X173351Y44915D01*
X173000Y44950D01*
D02*
G37*
G36*
X71300Y40050D02*
X70949Y40015D01*
X70611Y39913D01*
X70300Y39746D01*
X70027Y39523D01*
X69804Y39250D01*
X69637Y38939D01*
X69535Y38601D01*
X69500Y38250D01*
X69535Y37899D01*
X69637Y37561D01*
X69804Y37250D01*
X70027Y36977D01*
X70300Y36754D01*
X70611Y36587D01*
X70949Y36485D01*
X71300Y36450D01*
X71651Y36485D01*
X71989Y36587D01*
X72300Y36754D01*
X72573Y36977D01*
X72796Y37250D01*
X72963Y37561D01*
X73065Y37899D01*
X73100Y38250D01*
X73065Y38601D01*
X72963Y38939D01*
X72796Y39250D01*
X72573Y39523D01*
X72300Y39746D01*
X71989Y39913D01*
X71651Y40015D01*
X71300Y40050D01*
D02*
G37*
G36*
X176467Y33063D02*
X176115Y33029D01*
X175778Y32926D01*
X175467Y32760D01*
X175194Y32536D01*
X174970Y32263D01*
X174804Y31952D01*
X174701Y31615D01*
X174667Y31264D01*
X174701Y30913D01*
X174804Y30575D01*
X174970Y30264D01*
X175194Y29991D01*
X175467Y29767D01*
X175778Y29601D01*
X176115Y29498D01*
X176467Y29464D01*
X176818Y29498D01*
X177155Y29601D01*
X177466Y29767D01*
X177739Y29991D01*
X177963Y30264D01*
X178129Y30575D01*
X178232Y30913D01*
X178266Y31264D01*
X178232Y31615D01*
X178129Y31952D01*
X177963Y32263D01*
X177739Y32536D01*
X177466Y32760D01*
X177155Y32926D01*
X176818Y33029D01*
X176467Y33063D01*
D02*
G37*
G36*
X136800Y47600D02*
X136449Y47565D01*
X136111Y47463D01*
X135800Y47296D01*
X135527Y47073D01*
X135304Y46800D01*
X135137Y46489D01*
X135035Y46151D01*
X135000Y45800D01*
X135035Y45449D01*
X135137Y45111D01*
X135304Y44800D01*
X135527Y44527D01*
X135800Y44304D01*
X136111Y44137D01*
X136449Y44035D01*
X136800Y44000D01*
X137151Y44035D01*
X137489Y44137D01*
X137800Y44304D01*
X138073Y44527D01*
X138296Y44800D01*
X138463Y45111D01*
X138565Y45449D01*
X138600Y45800D01*
X138565Y46151D01*
X138463Y46489D01*
X138296Y46800D01*
X138073Y47073D01*
X137800Y47296D01*
X137489Y47463D01*
X137151Y47565D01*
X136800Y47600D01*
D02*
G37*
G36*
X132750Y46900D02*
X132399Y46865D01*
X132061Y46763D01*
X131750Y46596D01*
X131477Y46373D01*
X131254Y46100D01*
X131087Y45789D01*
X130985Y45451D01*
X130950Y45100D01*
X130985Y44749D01*
X131087Y44411D01*
X131254Y44100D01*
X131477Y43827D01*
X131750Y43604D01*
X132061Y43437D01*
X132399Y43335D01*
X132750Y43300D01*
X133101Y43335D01*
X133439Y43437D01*
X133750Y43604D01*
X134023Y43827D01*
X134246Y44100D01*
X134413Y44411D01*
X134515Y44749D01*
X134550Y45100D01*
X134515Y45451D01*
X134413Y45789D01*
X134246Y46100D01*
X134023Y46373D01*
X133750Y46596D01*
X133439Y46763D01*
X133101Y46865D01*
X132750Y46900D01*
D02*
G37*
G36*
X176800Y70350D02*
X176449Y70315D01*
X176111Y70213D01*
X175800Y70046D01*
X175527Y69823D01*
X175304Y69550D01*
X175137Y69239D01*
X175035Y68901D01*
X175000Y68550D01*
X175035Y68199D01*
X175137Y67861D01*
X175304Y67550D01*
X175527Y67277D01*
X175572Y67241D01*
X175406Y66730D01*
X175249Y66715D01*
X174911Y66613D01*
X174600Y66446D01*
X174327Y66223D01*
X174104Y65950D01*
X173937Y65639D01*
X173835Y65301D01*
X173800Y64950D01*
X173835Y64599D01*
X173937Y64261D01*
X174104Y63950D01*
X174327Y63677D01*
X174600Y63454D01*
X174911Y63287D01*
X175249Y63185D01*
X175600Y63150D01*
X175951Y63185D01*
X176289Y63287D01*
X176600Y63454D01*
X176873Y63677D01*
X177096Y63950D01*
X177263Y64261D01*
X177365Y64599D01*
X177400Y64950D01*
X177365Y65301D01*
X177263Y65639D01*
X177096Y65950D01*
X176873Y66223D01*
X176828Y66259D01*
X176994Y66769D01*
X177151Y66785D01*
X177489Y66887D01*
X177800Y67054D01*
X178073Y67277D01*
X178296Y67550D01*
X178463Y67861D01*
X178565Y68199D01*
X178600Y68550D01*
X178565Y68901D01*
X178463Y69239D01*
X178296Y69550D01*
X178073Y69823D01*
X177800Y70046D01*
X177489Y70213D01*
X177151Y70315D01*
X176800Y70350D01*
D02*
G37*
G36*
X137005Y64715D02*
X136654Y64680D01*
X136317Y64578D01*
X136005Y64412D01*
X135733Y64188D01*
X135563Y63981D01*
X135375Y63927D01*
X134969Y63965D01*
X134847Y64113D01*
X134574Y64337D01*
X134263Y64504D01*
X133925Y64606D01*
X133574Y64640D01*
X133223Y64606D01*
X132886Y64504D01*
X132574Y64337D01*
X132302Y64113D01*
X132078Y63841D01*
X131912Y63529D01*
X131809Y63192D01*
X131774Y62841D01*
X131809Y62490D01*
X131912Y62152D01*
X132078Y61841D01*
X132302Y61568D01*
X132574Y61344D01*
X132886Y61178D01*
X133223Y61076D01*
X133574Y61041D01*
X133925Y61076D01*
X134263Y61178D01*
X134574Y61344D01*
X134847Y61568D01*
X135017Y61775D01*
X135204Y61829D01*
X135611Y61791D01*
X135733Y61643D01*
X136005Y61419D01*
X136317Y61252D01*
X136654Y61150D01*
X137005Y61115D01*
X137356Y61150D01*
X137694Y61252D01*
X138005Y61419D01*
X138278Y61643D01*
X138502Y61915D01*
X138668Y62226D01*
X138770Y62564D01*
X138805Y62915D01*
X138770Y63266D01*
X138668Y63604D01*
X138502Y63915D01*
X138278Y64188D01*
X138005Y64412D01*
X137694Y64578D01*
X137356Y64680D01*
X137005Y64715D01*
D02*
G37*
G36*
X100318Y81704D02*
X99967Y81670D01*
X99629Y81567D01*
X99318Y81401D01*
X99045Y81177D01*
X98821Y80905D01*
X98655Y80593D01*
X98553Y80256D01*
X98518Y79905D01*
X98553Y79554D01*
X98655Y79216D01*
X98821Y78905D01*
X99045Y78632D01*
X99318Y78408D01*
X99629Y78242D01*
X99967Y78140D01*
X100318Y78105D01*
X100669Y78140D01*
X101006Y78242D01*
X101318Y78408D01*
X101590Y78632D01*
X101814Y78905D01*
X101980Y79216D01*
X102083Y79554D01*
X102117Y79905D01*
X102083Y80256D01*
X101980Y80593D01*
X101814Y80905D01*
X101590Y81177D01*
X101318Y81401D01*
X101006Y81567D01*
X100669Y81670D01*
X100318Y81704D01*
D02*
G37*
G36*
X104200Y69050D02*
X103849Y69015D01*
X103511Y68913D01*
X103200Y68746D01*
X102927Y68523D01*
X102704Y68250D01*
X102537Y67939D01*
X102435Y67601D01*
X102400Y67250D01*
X102435Y66899D01*
X102537Y66561D01*
X102704Y66250D01*
X102927Y65977D01*
X103200Y65754D01*
X103511Y65587D01*
X103849Y65485D01*
X104200Y65450D01*
X104551Y65485D01*
X104889Y65587D01*
X105200Y65754D01*
X105473Y65977D01*
X105696Y66250D01*
X105863Y66561D01*
X105965Y66899D01*
X106000Y67250D01*
X105965Y67601D01*
X105863Y67939D01*
X105696Y68250D01*
X105473Y68523D01*
X105200Y68746D01*
X104889Y68913D01*
X104551Y69015D01*
X104200Y69050D01*
D02*
G37*
G36*
X207300Y187250D02*
X206949Y187215D01*
X206611Y187113D01*
X206300Y186946D01*
X206027Y186723D01*
X205804Y186450D01*
X205637Y186139D01*
X205535Y185801D01*
X205500Y185450D01*
X205535Y185099D01*
X205637Y184761D01*
X205804Y184450D01*
X206027Y184177D01*
X206300Y183954D01*
X206611Y183787D01*
X206949Y183685D01*
X207300Y183650D01*
X207651Y183685D01*
X207989Y183787D01*
X208300Y183954D01*
X208573Y184177D01*
X208796Y184450D01*
X208963Y184761D01*
X209065Y185099D01*
X209100Y185450D01*
X209065Y185801D01*
X208963Y186139D01*
X208796Y186450D01*
X208573Y186723D01*
X208300Y186946D01*
X207989Y187113D01*
X207651Y187215D01*
X207300Y187250D01*
D02*
G37*
G36*
X188700Y115150D02*
X188349Y115115D01*
X188011Y115013D01*
X187700Y114846D01*
X187427Y114623D01*
X187204Y114350D01*
X187037Y114039D01*
X186935Y113701D01*
X186900Y113350D01*
X186935Y112999D01*
X187037Y112661D01*
X187204Y112350D01*
X187427Y112077D01*
X187700Y111854D01*
X188011Y111687D01*
X188349Y111585D01*
X188700Y111550D01*
X189051Y111585D01*
X189389Y111687D01*
X189700Y111854D01*
X189973Y112077D01*
X190196Y112350D01*
X190363Y112661D01*
X190465Y112999D01*
X190500Y113350D01*
X190465Y113701D01*
X190363Y114039D01*
X190196Y114350D01*
X189973Y114623D01*
X189700Y114846D01*
X189389Y115013D01*
X189051Y115115D01*
X188700Y115150D01*
D02*
G37*
G36*
X180300Y112000D02*
X179949Y111965D01*
X179611Y111863D01*
X179300Y111696D01*
X179027Y111473D01*
X178804Y111200D01*
X178637Y110889D01*
X178535Y110551D01*
X178500Y110200D01*
X178535Y109849D01*
X178637Y109511D01*
X178804Y109200D01*
X179027Y108927D01*
X179300Y108704D01*
X179611Y108537D01*
X179949Y108435D01*
X180300Y108400D01*
X180651Y108435D01*
X180989Y108537D01*
X181300Y108704D01*
X181573Y108927D01*
X181796Y109200D01*
X181963Y109511D01*
X182065Y109849D01*
X182100Y110200D01*
X182065Y110551D01*
X181963Y110889D01*
X181796Y111200D01*
X181573Y111473D01*
X181300Y111696D01*
X180989Y111863D01*
X180651Y111965D01*
X180300Y112000D01*
D02*
G37*
G36*
X181365Y121600D02*
X181014Y121565D01*
X180677Y121463D01*
X180366Y121296D01*
X180093Y121073D01*
X179869Y120800D01*
X179703Y120489D01*
X179600Y120151D01*
X179566Y119800D01*
X179600Y119449D01*
X179703Y119111D01*
X179869Y118800D01*
X180093Y118527D01*
X180366Y118304D01*
X180677Y118137D01*
X181014Y118035D01*
X181365Y118000D01*
X181717Y118035D01*
X182054Y118137D01*
X182365Y118304D01*
X182638Y118527D01*
X182862Y118800D01*
X183028Y119111D01*
X183131Y119449D01*
X183165Y119800D01*
X183131Y120151D01*
X183028Y120489D01*
X182862Y120800D01*
X182638Y121073D01*
X182365Y121296D01*
X182054Y121463D01*
X181717Y121565D01*
X181365Y121600D01*
D02*
G37*
G36*
X252800Y121500D02*
X252449Y121465D01*
X252111Y121363D01*
X251800Y121196D01*
X251527Y120973D01*
X251304Y120700D01*
X251137Y120389D01*
X251035Y120051D01*
X251000Y119700D01*
X251035Y119349D01*
X251137Y119011D01*
X251304Y118700D01*
X251354Y118639D01*
X251392Y118196D01*
X251271Y117991D01*
X251127Y117873D01*
X250904Y117600D01*
X250737Y117289D01*
X250635Y116951D01*
X250600Y116600D01*
X250635Y116249D01*
X250737Y115911D01*
X250904Y115600D01*
X251127Y115327D01*
X251400Y115104D01*
X251711Y114937D01*
X252049Y114835D01*
X252400Y114800D01*
X252751Y114835D01*
X253089Y114937D01*
X253400Y115104D01*
X253673Y115327D01*
X253896Y115600D01*
X254063Y115911D01*
X254165Y116249D01*
X254200Y116600D01*
X254165Y116951D01*
X254063Y117289D01*
X253896Y117600D01*
X253846Y117661D01*
X253808Y118104D01*
X253929Y118309D01*
X254073Y118427D01*
X254296Y118700D01*
X254463Y119011D01*
X254565Y119349D01*
X254600Y119700D01*
X254565Y120051D01*
X254463Y120389D01*
X254296Y120700D01*
X254073Y120973D01*
X253800Y121196D01*
X253489Y121363D01*
X253151Y121465D01*
X252800Y121500D01*
D02*
G37*
G36*
X140800Y108300D02*
X140449Y108265D01*
X140111Y108163D01*
X139800Y107996D01*
X139527Y107773D01*
X139304Y107500D01*
X139137Y107189D01*
X139035Y106851D01*
X139000Y106500D01*
X139035Y106149D01*
X139137Y105811D01*
X139304Y105500D01*
X139527Y105227D01*
X139800Y105004D01*
X140111Y104837D01*
X140449Y104735D01*
X140800Y104700D01*
X141151Y104735D01*
X141489Y104837D01*
X141800Y105004D01*
X142073Y105227D01*
X142296Y105500D01*
X142463Y105811D01*
X142565Y106149D01*
X142600Y106500D01*
X142565Y106851D01*
X142463Y107189D01*
X142296Y107500D01*
X142073Y107773D01*
X141800Y107996D01*
X141489Y108163D01*
X141151Y108265D01*
X140800Y108300D01*
D02*
G37*
G36*
X216881Y104938D02*
X216530Y104903D01*
X216193Y104801D01*
X215881Y104635D01*
X215609Y104411D01*
X215385Y104138D01*
X215219Y103827D01*
X215116Y103489D01*
X214615Y103501D01*
X214542Y103743D01*
X214375Y104054D01*
X214152Y104327D01*
X213879Y104551D01*
X213568Y104717D01*
X213230Y104819D01*
X212879Y104854D01*
X212528Y104819D01*
X212190Y104717D01*
X211879Y104551D01*
X211606Y104327D01*
X211383Y104054D01*
X211216Y103743D01*
X211114Y103405D01*
X211079Y103054D01*
X211114Y102703D01*
X211216Y102366D01*
X211383Y102055D01*
X211606Y101782D01*
X211879Y101558D01*
X212190Y101392D01*
X212528Y101289D01*
X212879Y101255D01*
X213230Y101289D01*
X213568Y101392D01*
X213879Y101558D01*
X214152Y101782D01*
X214375Y102055D01*
X214542Y102366D01*
X214644Y102703D01*
X215145Y102691D01*
X215219Y102450D01*
X215385Y102139D01*
X215609Y101866D01*
X215881Y101642D01*
X216193Y101476D01*
X216530Y101373D01*
X216881Y101339D01*
X217232Y101373D01*
X217570Y101476D01*
X217881Y101642D01*
X218154Y101866D01*
X218378Y102139D01*
X218544Y102450D01*
X218646Y102787D01*
X218681Y103138D01*
X218646Y103489D01*
X218544Y103827D01*
X218378Y104138D01*
X218154Y104411D01*
X217881Y104635D01*
X217570Y104801D01*
X217232Y104903D01*
X216881Y104938D01*
D02*
G37*
G36*
X171642Y111407D02*
X171291Y111373D01*
X170953Y111270D01*
X170642Y111104D01*
X170370Y110880D01*
X170146Y110608D01*
X169979Y110296D01*
X169877Y109959D01*
X169842Y109608D01*
X169877Y109257D01*
X169979Y108919D01*
X170146Y108608D01*
X170370Y108335D01*
X170642Y108111D01*
X170953Y107945D01*
X171291Y107843D01*
X171642Y107808D01*
X171993Y107843D01*
X172331Y107945D01*
X172642Y108111D01*
X172915Y108335D01*
X173138Y108608D01*
X173305Y108919D01*
X173407Y109257D01*
X173442Y109608D01*
X173407Y109959D01*
X173305Y110296D01*
X173138Y110608D01*
X172915Y110880D01*
X172642Y111104D01*
X172331Y111270D01*
X171993Y111373D01*
X171642Y111407D01*
D02*
G37*
G36*
X211568Y109918D02*
X211217Y109883D01*
X210880Y109781D01*
X210568Y109615D01*
X210296Y109391D01*
X210072Y109118D01*
X209906Y108807D01*
X209803Y108469D01*
X209769Y108118D01*
X209803Y107767D01*
X209906Y107430D01*
X210072Y107118D01*
X210296Y106846D01*
X210568Y106622D01*
X210880Y106456D01*
X211217Y106353D01*
X211568Y106318D01*
X211919Y106353D01*
X212257Y106456D01*
X212568Y106622D01*
X212841Y106846D01*
X213065Y107118D01*
X213231Y107430D01*
X213333Y107767D01*
X213368Y108118D01*
X213333Y108469D01*
X213231Y108807D01*
X213065Y109118D01*
X212841Y109391D01*
X212568Y109615D01*
X212257Y109781D01*
X211919Y109883D01*
X211568Y109918D01*
D02*
G37*
G36*
X145300Y125000D02*
X144949Y124965D01*
X144611Y124863D01*
X144300Y124696D01*
X144027Y124473D01*
X143804Y124200D01*
X143637Y123889D01*
X143535Y123551D01*
X143500Y123200D01*
X143535Y122849D01*
X143551Y122796D01*
X143554Y122748D01*
X143295Y122219D01*
X143277Y122204D01*
X142996Y122054D01*
X142749Y121851D01*
X142546Y121604D01*
X142396Y121323D01*
X142303Y121018D01*
X142272Y120700D01*
X142303Y120382D01*
X142396Y120077D01*
X142546Y119796D01*
X142749Y119549D01*
X142996Y119346D01*
X143277Y119196D01*
X143582Y119103D01*
X143900Y119072D01*
X144218Y119103D01*
X144523Y119196D01*
X144804Y119346D01*
X145051Y119549D01*
X145217Y119751D01*
X145269Y119781D01*
X145317Y119795D01*
X145817Y119788D01*
X145849Y119749D01*
X146096Y119546D01*
X146377Y119396D01*
X146682Y119303D01*
X147000Y119272D01*
X147318Y119303D01*
X147623Y119396D01*
X147904Y119546D01*
X148151Y119749D01*
X148354Y119996D01*
X148504Y120277D01*
X148597Y120582D01*
X148628Y120900D01*
X148597Y121218D01*
X148504Y121523D01*
X148354Y121804D01*
X148151Y122051D01*
X147904Y122254D01*
X147623Y122404D01*
X147467Y122451D01*
X147065Y122849D01*
X147100Y123200D01*
X147065Y123551D01*
X146963Y123889D01*
X146796Y124200D01*
X146573Y124473D01*
X146300Y124696D01*
X145989Y124863D01*
X145651Y124965D01*
X145300Y125000D01*
D02*
G37*
G36*
X165289Y124297D02*
X164971Y124266D01*
X164666Y124173D01*
X164384Y124023D01*
X164138Y123820D01*
X163935Y123574D01*
X163785Y123292D01*
X163692Y122987D01*
X163661Y122669D01*
X163692Y122352D01*
X163785Y122046D01*
X163814Y121991D01*
X163556Y121633D01*
X163475Y121565D01*
X163187Y121593D01*
X162870Y121562D01*
X162565Y121470D01*
X162283Y121319D01*
X162036Y121117D01*
X161834Y120870D01*
X161683Y120589D01*
X161591Y120283D01*
X161560Y119966D01*
X161591Y119648D01*
X161683Y119343D01*
X161834Y119061D01*
X162036Y118815D01*
X162283Y118612D01*
X162565Y118462D01*
X162870Y118369D01*
X163187Y118338D01*
X163505Y118369D01*
X163810Y118462D01*
X164092Y118612D01*
X164339Y118815D01*
X164394Y118882D01*
X164421Y118898D01*
X164917Y118926D01*
X165016Y118890D01*
X165020Y118885D01*
X165267Y118682D01*
X165548Y118532D01*
X165854Y118439D01*
X166171Y118408D01*
X166489Y118439D01*
X166794Y118532D01*
X167076Y118682D01*
X167322Y118885D01*
X167525Y119131D01*
X167675Y119413D01*
X167768Y119718D01*
X167799Y120036D01*
X168072Y120427D01*
X168243Y120468D01*
X168408Y120484D01*
X168713Y120577D01*
X168995Y120728D01*
X169241Y120930D01*
X169444Y121177D01*
X169594Y121458D01*
X169687Y121763D01*
X169718Y122081D01*
X169687Y122399D01*
X169594Y122704D01*
X169444Y122985D01*
X169241Y123232D01*
X168995Y123434D01*
X168713Y123585D01*
X168408Y123678D01*
X168090Y123709D01*
X167773Y123678D01*
X167467Y123585D01*
X167247Y123467D01*
X167172Y123438D01*
X166643Y123574D01*
X166629Y123590D01*
X166440Y123820D01*
X166193Y124023D01*
X165912Y124173D01*
X165606Y124266D01*
X165289Y124297D01*
D02*
G37*
G36*
X140385Y124846D02*
X140034Y124811D01*
X139696Y124708D01*
X139385Y124542D01*
X139112Y124318D01*
X138889Y124046D01*
X138722Y123734D01*
X138620Y123397D01*
X138585Y123046D01*
X138620Y122695D01*
X138722Y122357D01*
X138889Y122046D01*
X139112Y121773D01*
X139385Y121549D01*
X139696Y121383D01*
X140034Y121281D01*
X140385Y121246D01*
X140736Y121281D01*
X141074Y121383D01*
X141385Y121549D01*
X141658Y121773D01*
X141882Y122046D01*
X142048Y122357D01*
X142150Y122695D01*
X142185Y123046D01*
X142150Y123397D01*
X142048Y123734D01*
X141882Y124046D01*
X141658Y124318D01*
X141385Y124542D01*
X141074Y124708D01*
X140736Y124811D01*
X140385Y124846D01*
D02*
G37*
G36*
X175887Y126796D02*
X175536Y126762D01*
X175199Y126659D01*
X174888Y126493D01*
X174615Y126269D01*
X174391Y125996D01*
X174225Y125685D01*
X174122Y125348D01*
X174088Y124996D01*
X174122Y124645D01*
X174225Y124308D01*
X174391Y123997D01*
X174615Y123724D01*
X174888Y123500D01*
X175199Y123334D01*
X175536Y123231D01*
X175887Y123197D01*
X176238Y123231D01*
X176576Y123334D01*
X176887Y123500D01*
X177160Y123724D01*
X177384Y123997D01*
X177550Y124308D01*
X177652Y124645D01*
X177687Y124996D01*
X177652Y125348D01*
X177550Y125685D01*
X177384Y125996D01*
X177160Y126269D01*
X176887Y126493D01*
X176576Y126659D01*
X176238Y126762D01*
X175887Y126796D01*
D02*
G37*
G36*
X175927Y90303D02*
X175576Y90269D01*
X175239Y90166D01*
X174928Y90000D01*
X174655Y89776D01*
X174431Y89503D01*
X174265Y89192D01*
X174162Y88855D01*
X174128Y88503D01*
X174162Y88152D01*
X174265Y87815D01*
X174431Y87504D01*
X174655Y87231D01*
X174928Y87007D01*
X175239Y86841D01*
X175576Y86738D01*
X175927Y86704D01*
X176279Y86738D01*
X176616Y86841D01*
X176927Y87007D01*
X177200Y87231D01*
X177424Y87504D01*
X177590Y87815D01*
X177693Y88152D01*
X177727Y88503D01*
X177693Y88855D01*
X177590Y89192D01*
X177424Y89503D01*
X177200Y89776D01*
X176927Y90000D01*
X176616Y90166D01*
X176279Y90269D01*
X175927Y90303D01*
D02*
G37*
G36*
X165600Y92900D02*
X165249Y92865D01*
X164911Y92763D01*
X164600Y92596D01*
X164327Y92373D01*
X164104Y92100D01*
X163937Y91789D01*
X163835Y91451D01*
X163800Y91100D01*
X163835Y90749D01*
X163937Y90411D01*
X164104Y90100D01*
X164327Y89827D01*
X164600Y89604D01*
X164911Y89437D01*
X165249Y89335D01*
X165600Y89300D01*
X165951Y89335D01*
X166289Y89437D01*
X166600Y89604D01*
X166614Y89615D01*
X166805Y89614D01*
X167209Y89477D01*
X167304Y89300D01*
X167527Y89027D01*
X167800Y88804D01*
X168111Y88637D01*
X168242Y88075D01*
X168235Y88051D01*
X168200Y87700D01*
X168235Y87349D01*
X168251Y87297D01*
X168211Y86763D01*
X167900Y86596D01*
X167627Y86373D01*
X167404Y86100D01*
X167237Y85789D01*
X167135Y85451D01*
X167100Y85100D01*
X167135Y84749D01*
X167237Y84411D01*
X167404Y84100D01*
X167627Y83827D01*
X167900Y83604D01*
X168211Y83437D01*
X168549Y83335D01*
X168900Y83300D01*
X169251Y83335D01*
X169589Y83437D01*
X169900Y83604D01*
X170173Y83827D01*
X170396Y84100D01*
X170563Y84411D01*
X170665Y84749D01*
X170700Y85100D01*
X170665Y85451D01*
X170649Y85503D01*
X170689Y86037D01*
X171000Y86204D01*
X171273Y86427D01*
X171496Y86700D01*
X171663Y87011D01*
X171765Y87349D01*
X171800Y87700D01*
X171765Y88051D01*
X171663Y88389D01*
X171496Y88700D01*
X171273Y88973D01*
X171000Y89196D01*
X170689Y89363D01*
X170558Y89925D01*
X170565Y89949D01*
X170600Y90300D01*
X170565Y90651D01*
X170463Y90989D01*
X170296Y91300D01*
X170073Y91573D01*
X169800Y91796D01*
X169489Y91963D01*
X169151Y92065D01*
X168800Y92100D01*
X168449Y92065D01*
X168111Y91963D01*
X167800Y91796D01*
X167786Y91785D01*
X167595Y91786D01*
X167191Y91923D01*
X167096Y92100D01*
X166873Y92373D01*
X166600Y92596D01*
X166289Y92763D01*
X165951Y92865D01*
X165600Y92900D01*
D02*
G37*
G36*
X196500Y101304D02*
X196149Y101269D01*
X195811Y101167D01*
X195500Y101001D01*
X195227Y100777D01*
X195004Y100504D01*
X194837Y100193D01*
X194735Y99856D01*
X194700Y99504D01*
X194735Y99153D01*
X194837Y98816D01*
X195004Y98505D01*
X195227Y98232D01*
X195500Y98008D01*
X195811Y97842D01*
X196149Y97739D01*
X196500Y97705D01*
X196851Y97739D01*
X197189Y97842D01*
X197500Y98008D01*
X197773Y98232D01*
X197996Y98505D01*
X198163Y98816D01*
X198265Y99153D01*
X198300Y99504D01*
X198265Y99856D01*
X198163Y100193D01*
X197996Y100504D01*
X197773Y100777D01*
X197500Y101001D01*
X197189Y101167D01*
X196851Y101269D01*
X196500Y101304D01*
D02*
G37*
G36*
X144150Y105078D02*
X143832Y105047D01*
X143527Y104954D01*
X143246Y104804D01*
X142999Y104601D01*
X142797Y104354D01*
X142646Y104073D01*
X142553Y103768D01*
X142522Y103450D01*
X142553Y103132D01*
X142646Y102827D01*
X142797Y102546D01*
X142999Y102299D01*
X143246Y102096D01*
X143527Y101946D01*
X143832Y101853D01*
X144150Y101822D01*
X144468Y101853D01*
X144773Y101946D01*
X145054Y102096D01*
X145301Y102299D01*
X145503Y102546D01*
X145654Y102827D01*
X145747Y103132D01*
X145778Y103450D01*
X145747Y103768D01*
X145654Y104073D01*
X145503Y104354D01*
X145301Y104601D01*
X145054Y104804D01*
X144773Y104954D01*
X144468Y105047D01*
X144150Y105078D01*
D02*
G37*
G36*
X186400Y97050D02*
X186049Y97015D01*
X185711Y96913D01*
X185400Y96746D01*
X185127Y96523D01*
X184904Y96250D01*
X184737Y95939D01*
X184635Y95601D01*
X184600Y95250D01*
X184635Y94899D01*
X184737Y94561D01*
X184904Y94250D01*
X185127Y93977D01*
X185400Y93754D01*
X185711Y93587D01*
X186049Y93485D01*
X186400Y93450D01*
X186751Y93485D01*
X187089Y93587D01*
X187400Y93754D01*
X187673Y93977D01*
X187896Y94250D01*
X188063Y94561D01*
X188165Y94899D01*
X188200Y95250D01*
X188165Y95601D01*
X188063Y95939D01*
X187896Y96250D01*
X187673Y96523D01*
X187400Y96746D01*
X187089Y96913D01*
X186751Y97015D01*
X186400Y97050D01*
D02*
G37*
G36*
X145500Y93628D02*
X145182Y93597D01*
X144877Y93504D01*
X144596Y93353D01*
X144349Y93151D01*
X144147Y92904D01*
X143996Y92623D01*
X143466Y92600D01*
X143251Y92665D01*
X142900Y92700D01*
X142549Y92665D01*
X142211Y92563D01*
X141900Y92396D01*
X141627Y92173D01*
X141100Y92196D01*
X140789Y92363D01*
X140451Y92465D01*
X140100Y92500D01*
X139749Y92465D01*
X139411Y92363D01*
X139100Y92196D01*
X138827Y91973D01*
X138604Y91700D01*
X138590Y91674D01*
X138100Y91800D01*
X138065Y92151D01*
X137963Y92489D01*
X137796Y92800D01*
X137573Y93073D01*
X137300Y93296D01*
X136989Y93463D01*
X136651Y93565D01*
X136300Y93600D01*
X135949Y93565D01*
X135611Y93463D01*
X135300Y93296D01*
X135027Y93073D01*
X134804Y92800D01*
X134637Y92489D01*
X134535Y92151D01*
X134500Y91800D01*
X134535Y91449D01*
X134637Y91111D01*
X134804Y90800D01*
X135027Y90527D01*
X135300Y90304D01*
X135611Y90137D01*
X135949Y90035D01*
X136300Y90000D01*
X136651Y90035D01*
X136989Y90137D01*
X137300Y90304D01*
X137573Y90527D01*
X137796Y90800D01*
X137810Y90826D01*
X138300Y90700D01*
X138335Y90349D01*
X138437Y90011D01*
X138604Y89700D01*
X138827Y89427D01*
X139100Y89204D01*
X139111Y89198D01*
X139401Y88977D01*
X139337Y88589D01*
X139235Y88251D01*
X139200Y87900D01*
X139235Y87549D01*
X139337Y87211D01*
X139504Y86900D01*
X139727Y86627D01*
Y86373D01*
X139504Y86100D01*
X139337Y85789D01*
X139235Y85451D01*
X139200Y85100D01*
X139235Y84749D01*
X139337Y84411D01*
X139504Y84100D01*
X139727Y83827D01*
X140000Y83604D01*
X140311Y83437D01*
X140649Y83335D01*
X141000Y83300D01*
X141351Y83335D01*
X141689Y83437D01*
X142000Y83604D01*
X142273Y83827D01*
X142496Y84100D01*
X142663Y84411D01*
X142765Y84749D01*
X142800Y85100D01*
X142765Y85451D01*
X142663Y85789D01*
X142496Y86100D01*
X142273Y86373D01*
Y86627D01*
X142496Y86900D01*
X142663Y87211D01*
X142765Y87549D01*
X142800Y87900D01*
X142765Y88251D01*
X142663Y88589D01*
X142644Y88623D01*
X142827Y88965D01*
X142953Y89106D01*
X143251Y89135D01*
X143589Y89237D01*
X143900Y89404D01*
X144173Y89627D01*
X144396Y89900D01*
X144515Y90122D01*
X144872Y90491D01*
X145121Y90422D01*
X145182Y90403D01*
X145500Y90372D01*
X145818Y90403D01*
X146123Y90496D01*
X146404Y90646D01*
X146651Y90849D01*
X146853Y91096D01*
X147004Y91377D01*
X147097Y91682D01*
X147128Y92000D01*
X147097Y92318D01*
X147004Y92623D01*
X146853Y92904D01*
X146651Y93151D01*
X146404Y93353D01*
X146123Y93504D01*
X145818Y93597D01*
X145500Y93628D01*
D02*
G37*
G36*
X211800Y98850D02*
X211449Y98815D01*
X211111Y98713D01*
X210800Y98546D01*
X210527Y98323D01*
X210304Y98050D01*
X210137Y97739D01*
X210035Y97401D01*
X210000Y97050D01*
X210035Y96699D01*
X210137Y96361D01*
X210304Y96050D01*
X210527Y95777D01*
X210800Y95554D01*
X211111Y95387D01*
X211449Y95285D01*
X211800Y95250D01*
X212151Y95285D01*
X212489Y95387D01*
X212800Y95554D01*
X213073Y95777D01*
X213296Y96050D01*
X213463Y96361D01*
X213565Y96699D01*
X213600Y97050D01*
X213565Y97401D01*
X213463Y97739D01*
X213296Y98050D01*
X213073Y98323D01*
X212800Y98546D01*
X212489Y98713D01*
X212151Y98815D01*
X211800Y98850D01*
D02*
G37*
G36*
X128922Y198150D02*
X128571Y198115D01*
X128233Y198013D01*
X127922Y197846D01*
X127649Y197623D01*
X127426Y197350D01*
X127259Y197039D01*
X127157Y196701D01*
X127122Y196350D01*
X127157Y195999D01*
X127259Y195661D01*
X127426Y195350D01*
X127649Y195077D01*
X127922Y194854D01*
X128233Y194687D01*
X128571Y194585D01*
X128922Y194550D01*
X129273Y194585D01*
X129611Y194687D01*
X129922Y194854D01*
X130195Y195077D01*
X130419Y195350D01*
X130585Y195661D01*
X130687Y195999D01*
X130722Y196350D01*
X130687Y196701D01*
X130585Y197039D01*
X130419Y197350D01*
X130195Y197623D01*
X129922Y197846D01*
X129611Y198013D01*
X129273Y198115D01*
X128922Y198150D01*
D02*
G37*
G36*
X107562Y208326D02*
X107210Y208291D01*
X106873Y208189D01*
X106562Y208022D01*
X106289Y207799D01*
X106065Y207526D01*
X105899Y207215D01*
X105796Y206877D01*
X105762Y206526D01*
X105796Y206175D01*
X105899Y205837D01*
X106065Y205526D01*
X106289Y205254D01*
X106562Y205030D01*
X106873Y204863D01*
X107210Y204761D01*
X107562Y204726D01*
X107913Y204761D01*
X108250Y204863D01*
X108561Y205030D01*
X108834Y205254D01*
X109058Y205526D01*
X109224Y205837D01*
X109327Y206175D01*
X109361Y206526D01*
X109327Y206877D01*
X109224Y207215D01*
X109058Y207526D01*
X108834Y207799D01*
X108561Y208022D01*
X108250Y208189D01*
X107913Y208291D01*
X107562Y208326D01*
D02*
G37*
G36*
X103300Y208150D02*
X102949Y208115D01*
X102611Y208013D01*
X102300Y207846D01*
X102027Y207623D01*
X101804Y207350D01*
X101637Y207039D01*
X101535Y206701D01*
X101500Y206350D01*
X101535Y205999D01*
X101637Y205661D01*
X101804Y205350D01*
X102027Y205077D01*
X102300Y204854D01*
X102611Y204687D01*
X102949Y204585D01*
X103300Y204550D01*
X103651Y204585D01*
X103989Y204687D01*
X104300Y204854D01*
X104573Y205077D01*
X104796Y205350D01*
X104963Y205661D01*
X105065Y205999D01*
X105100Y206350D01*
X105065Y206701D01*
X104963Y207039D01*
X104796Y207350D01*
X104573Y207623D01*
X104300Y207846D01*
X103989Y208013D01*
X103651Y208115D01*
X103300Y208150D01*
D02*
G37*
%LPD*%
G54D59*
X24182Y155215D02*
Y170001D01*
X20482Y151516D02*
X24182Y155215D01*
X107469Y129439D02*
X110357Y126552D01*
X67798Y129439D02*
X107469D01*
X67928Y134346D02*
X68633Y135051D01*
X67928Y131368D02*
Y134346D01*
Y131368D02*
X68678Y130618D01*
X111676D01*
X68633Y135051D02*
X199194D01*
X112259Y124590D02*
Y130034D01*
X111676Y130618D02*
X112259Y130034D01*
X106169Y124295D02*
X111965D01*
X104070Y126394D02*
X106169Y124295D01*
X23900Y190250D02*
X26332Y187818D01*
Y172151D02*
Y187818D01*
X101256Y119934D02*
X103714D01*
X106998Y116650D02*
X136150D01*
X103714Y119934D02*
X106998Y116650D01*
X98580Y116329D02*
X101149Y113759D01*
X24182Y170001D02*
X26332Y172151D01*
X209746Y136832D02*
X214738Y131840D01*
X230472Y187490D02*
X234611Y183351D01*
X98580Y116329D02*
Y120138D01*
X101457Y123015D01*
X210554Y133181D02*
X213632Y130102D01*
X199194Y135051D02*
X201064Y133181D01*
X210554D01*
X214738Y131840D02*
X240840D01*
X213632Y130102D02*
X241106D01*
X101149Y113759D02*
X104505D01*
X105119Y114373D01*
X106750D01*
X207278Y136832D02*
X209746D01*
X101457Y123015D02*
X113906D01*
X124547Y133656D01*
X198009D01*
X206820Y136374D02*
X207278Y136832D01*
X198009Y133656D02*
X202986Y128679D01*
X241628D01*
X67651Y136374D02*
X206820D01*
X66541Y130696D02*
X67798Y129439D01*
X66541Y130696D02*
Y135264D01*
X67651Y136374D01*
X111965Y124295D02*
X112259Y124590D01*
X241106Y130102D02*
X250693Y139690D01*
Y157214D01*
X244754Y164763D02*
Y170730D01*
X243410Y164497D02*
X250693Y157214D01*
X243410Y164497D02*
Y171117D01*
X242118Y164305D02*
Y167882D01*
X237500Y172500D02*
X242118Y167882D01*
X243410Y171117D02*
X246594Y174302D01*
X244754Y170730D02*
X247565Y173541D01*
Y186392D01*
X240840Y131840D02*
X248317Y139317D01*
Y158106D01*
X242118Y164305D02*
X248317Y158106D01*
X241628Y128679D02*
X252380Y139431D01*
Y157137D01*
X244754Y164763D02*
X252380Y157137D01*
X234611Y183351D02*
X244733D01*
X246594Y181490D01*
Y174302D02*
Y181490D01*
X236238Y193558D02*
X238110D01*
X238715Y192953D01*
X241004D01*
X247565Y186392D01*
G54D60*
X198095Y33859D02*
X203661D01*
X193634Y38320D02*
X198095Y33859D01*
X90900Y94400D02*
X95404D01*
X189109Y51290D02*
X193634Y46765D01*
Y38320D02*
Y46765D01*
X181803Y72687D02*
X189109Y65381D01*
Y51290D02*
Y65381D01*
X128288Y72687D02*
X181803D01*
X95404Y94400D02*
X112015Y77789D01*
X123187D01*
X128288Y72687D01*
G54D61*
X92283Y220186D02*
X101713D01*
X87946Y215850D02*
X92283Y220186D01*
X81100Y215850D02*
X87946D01*
X167034Y210677D02*
Y217880D01*
X157513Y227400D02*
X167034Y217880D01*
X140700Y227400D02*
X157513D01*
X130500Y11050D02*
Y16200D01*
X75988Y20838D02*
X76094Y20732D01*
X87018D01*
X138100Y224800D02*
X140700Y227400D01*
X185786Y102820D02*
X191600Y97006D01*
Y94950D02*
Y97006D01*
X140540Y114847D02*
X141773Y116080D01*
X136600Y98700D02*
X143000D01*
X131205Y109419D02*
X133542D01*
X141773Y116080D02*
X156687D01*
X133542Y109419D02*
X138970Y114847D01*
X140540D01*
X91754Y54600D02*
X113796D01*
X116578Y51818D01*
X87018Y20732D02*
X125968D01*
X130500Y16200D01*
X-2300Y58450D02*
X9304D01*
X73200Y87200D02*
X81021Y95021D01*
Y98821D01*
X84630Y102430D01*
X204736Y207034D02*
X208000Y203770D01*
X179754Y207034D02*
X204736D01*
X208000Y203770D02*
X213900Y197870D01*
Y188448D02*
Y197870D01*
X153868Y187045D02*
Y189650D01*
X137100Y170277D02*
X153868Y187045D01*
X137100Y164450D02*
Y170277D01*
X163000Y201500D02*
X165619Y198881D01*
X171600D01*
X179754Y207034D01*
X106327Y224800D02*
X138100D01*
X101713Y220186D02*
X106327Y224800D01*
X69873Y58127D02*
X88226D01*
X91754Y54600D01*
X108618Y91150D02*
Y93490D01*
X84630Y102430D02*
X99678D01*
X108618Y93490D01*
X126390Y88490D02*
X136600Y98700D01*
X108618Y91150D02*
X111278Y88490D01*
X126390D01*
X115919Y109029D02*
X130815D01*
X131205Y109419D01*
X165875Y102820D02*
X185786D01*
X162182Y106513D02*
X165875Y102820D01*
X162182Y106513D02*
Y110585D01*
X156687Y116080D02*
X162182Y110585D01*
X33784Y60330D02*
X67671D01*
X69873Y58127D01*
X9304Y58450D02*
X11020Y56735D01*
X30189D01*
X33784Y60330D01*
G54D63*
X209588Y35087D02*
Y78734D01*
X202817Y28316D02*
X209588Y35087D01*
X194421Y28316D02*
X202817D01*
X217350Y33794D02*
Y69019D01*
X202948Y19392D02*
X217350Y33794D01*
X189719Y19392D02*
X202948D01*
X215833Y34181D02*
Y71956D01*
X203348Y21697D02*
X215833Y34181D01*
X189202Y21697D02*
X203348D01*
X214260Y34263D02*
Y72718D01*
X207984Y35192D02*
Y79688D01*
X211237Y34884D02*
Y74308D01*
X212697Y34589D02*
Y73523D01*
X168791Y194518D02*
X185603Y177706D01*
X149396Y194518D02*
X168791D01*
X147557Y192680D02*
X149396Y194518D01*
X168450Y189167D02*
X183253Y174364D01*
X158283Y189167D02*
X168450D01*
X155596Y191855D02*
X158283Y189167D01*
X170057Y190404D02*
X184452Y176009D01*
X159081Y190404D02*
X170057D01*
X156330Y193155D02*
X159081Y190404D01*
X148635Y191358D02*
X150432Y193155D01*
X144972Y191358D02*
X148635D01*
X140201Y186587D02*
X144972Y191358D01*
X167509Y200709D02*
X170754D01*
X164105Y204114D02*
X167509Y200709D01*
X123393Y204114D02*
X164105D01*
X169001Y202712D02*
Y205668D01*
X177805Y214471D01*
X146480Y183661D02*
X149921Y187102D01*
X118989Y183661D02*
X146480D01*
X92747Y148150D02*
X95052Y150455D01*
Y151855D01*
X93176Y157521D02*
X98842Y151855D01*
X35171Y157521D02*
X93176D01*
X98855Y154161D02*
X100326D01*
X102632Y151855D01*
X79254Y148150D02*
X92747D01*
X92366Y160650D02*
X98855Y154161D01*
X31900Y160650D02*
X92366D01*
X125615Y155981D02*
X139085Y142510D01*
X99532Y155981D02*
X125615D01*
X92300Y163213D02*
X99532Y155981D01*
X28200Y150550D02*
X35171Y157521D01*
X208620Y234308D02*
X246613Y196316D01*
X94586Y234308D02*
X208620D01*
X86803Y226526D02*
X94586Y234308D01*
X99973Y231227D02*
X200058D01*
X88809Y220063D02*
X99973Y231227D01*
X81770Y220063D02*
X88809D01*
X78252Y216545D02*
X81770Y220063D01*
X65136Y203663D02*
X73699Y212226D01*
X48656Y203663D02*
X65136D01*
X78665Y210734D02*
X94435D01*
X68794Y200864D02*
X78665Y210734D01*
X48513Y200864D02*
X68794D01*
X101689Y212891D02*
X102354Y212226D01*
X100464Y211272D02*
X101116Y210621D01*
X257417Y180530D02*
X257800Y180913D01*
X257417Y173725D02*
Y180530D01*
Y173725D02*
X267200Y163942D01*
X245996Y169998D02*
X249258Y173260D01*
X245996Y165098D02*
Y169998D01*
Y165098D02*
X262005Y149090D01*
X247285Y169235D02*
X250749Y172699D01*
X247285Y165716D02*
X263875Y149126D01*
X247285Y165716D02*
Y169235D01*
X249258Y183908D02*
X253700Y188350D01*
X249258Y173260D02*
Y183908D01*
X250749Y181999D02*
X253150Y184400D01*
X250749Y172699D02*
Y181999D01*
X49088Y185438D02*
X58105Y194455D01*
X7902Y193252D02*
X27698D01*
X35512Y185438D01*
X49088D01*
X109211Y197995D02*
X120620Y186587D01*
X90355Y197995D02*
X109211D01*
X228307Y182757D02*
X230100Y184550D01*
X223280Y182757D02*
X228307D01*
X222237Y183800D02*
X223280Y182757D01*
X172493Y206873D02*
X178420Y212800D01*
X172493Y202447D02*
Y206873D01*
X170754Y200709D02*
X172493Y202447D01*
X177805Y214471D02*
X209440D01*
X207818Y170632D02*
X228592D01*
X204086Y174364D02*
X207818Y170632D01*
X228592D02*
X233610Y175650D01*
X268990Y110038D02*
Y165098D01*
X259565Y174524D02*
X268990Y165098D01*
X267200Y110792D02*
Y163942D01*
X257800Y180913D02*
Y184150D01*
X212834Y182919D02*
Y184673D01*
X15657Y163050D02*
X21900D01*
X44200Y202050D02*
X47043D01*
X135800Y22000D02*
X141300D01*
X259395Y186455D02*
Y188698D01*
X48262Y192145D02*
X53395D01*
X40095Y200312D02*
X48262Y192145D01*
X40095Y200312D02*
Y217545D01*
X42100Y219550D01*
X225500Y156339D02*
X226719Y155120D01*
X86400Y55350D02*
X88905Y52845D01*
X6200Y191550D02*
X7902Y193252D01*
X58105Y194455D02*
X108195D01*
X100400Y158050D02*
X106057D01*
X94800Y166707D02*
Y168577D01*
Y166707D02*
X98251Y163256D01*
X99594D01*
X142200Y193793D02*
X145757Y197350D01*
X142200Y193450D02*
Y193793D01*
X233610Y175650D02*
X244500D01*
X59650Y220269D02*
Y222343D01*
X50500Y211119D02*
X59650Y220269D01*
X214078Y185250D02*
X217700D01*
X11695Y159088D02*
X15657Y163050D01*
X213939Y134620D02*
X218595D01*
X259395Y186455D02*
X261520Y184330D01*
X248234Y196316D02*
X250300Y194250D01*
X250299Y197794D02*
X259395Y188698D01*
X144406Y192680D02*
X147557D01*
X142671Y190945D02*
X144406Y192680D01*
X50500Y209050D02*
Y211119D01*
X97176Y214371D02*
X108538D01*
X95206Y216341D02*
X97176Y214371D01*
X131600Y21300D02*
X142225Y10675D01*
X32300Y89900D02*
X34600Y92200D01*
X74601D01*
X78556Y99457D02*
X83479Y104380D01*
X74601Y92200D02*
X78556Y96154D01*
Y99457D01*
X255276Y98868D02*
X267200Y110792D01*
X270686Y109483D02*
Y179464D01*
X232509Y104212D02*
X252862D01*
X262005Y113355D01*
X256632Y95429D02*
X270686Y109483D01*
X211237Y74308D02*
X237547Y100618D01*
X238042Y98868D02*
X255276D01*
X212697Y73523D02*
X238042Y98868D01*
X202673Y29880D02*
X207984Y35192D01*
X142225Y10675D02*
X181002D01*
X147274Y12745D02*
X180250D01*
X170636Y48755D02*
X179989D01*
X187241Y41503D01*
X32100Y150350D02*
X36466Y154716D01*
X53395Y192145D02*
X57390Y196140D01*
X108772D01*
X108195Y194455D02*
X118989Y183661D01*
X108772Y196140D02*
X119762Y185150D01*
X141143D01*
X145948Y189955D01*
X120620Y186587D02*
X140201D01*
X145948Y189955D02*
X149423D01*
X151323Y191855D01*
X261900Y188250D02*
X270686Y179464D01*
X11695Y153629D02*
Y159088D01*
X9611Y153291D02*
Y171022D01*
X178420Y212800D02*
X205111D01*
X173065Y195949D02*
X180390Y203273D01*
X208453Y143198D02*
X214101Y137550D01*
X217386Y150545D02*
X222059D01*
X215947Y149106D02*
X217386Y150545D01*
X239305Y95429D02*
X256632D01*
X238620Y97078D02*
X256031D01*
X232920Y102066D02*
X253453D01*
X237547Y100618D02*
X254511D01*
X231000Y156045D02*
X231965Y155080D01*
X36466Y154716D02*
X72688D01*
X79254Y148150D01*
X141300Y22000D02*
X148710Y14590D01*
X179711D01*
X214260Y72718D02*
X238620Y97078D01*
X215833Y71956D02*
X239305Y95429D01*
X254511Y100618D02*
X265539Y111646D01*
X253453Y102066D02*
X263875Y112488D01*
X256031Y97078D02*
X268990Y110038D01*
X257070Y93581D02*
X272417Y108927D01*
Y181633D01*
X261700Y192350D02*
X272417Y181633D01*
X118350Y165950D02*
X140555Y143745D01*
X106057Y158050D02*
X115980Y167973D01*
X119206D01*
X142017Y145162D01*
X97100Y167950D02*
X100847Y171697D01*
X94800Y168577D02*
X99912Y173689D01*
X92300Y163213D02*
Y165450D01*
X41767Y142312D02*
X135933D01*
X40828Y140224D02*
X135722D01*
X180371Y204746D02*
X194582D01*
X214078Y185250D01*
X180390Y203273D02*
X194234D01*
X212834Y184673D01*
X151323Y191855D02*
X155596D01*
X150432Y193155D02*
X156330D01*
X183253Y174364D02*
X204086D01*
X185603Y177706D02*
X207323D01*
X205408Y176009D02*
X205842Y175575D01*
X230614D01*
X232700Y177661D01*
X240158D01*
X243781Y181283D01*
X88905Y47046D02*
Y52845D01*
Y47046D02*
X96359Y39592D01*
X120219D01*
X76400Y51150D02*
X82816D01*
X96106Y37861D01*
X217350Y69019D02*
X233746Y85414D01*
X265539Y111646D02*
Y163812D01*
X254000Y175350D02*
X265539Y163812D01*
X231000Y156045D02*
Y158960D01*
X225500Y156339D02*
Y159265D01*
X155225Y200460D02*
X158613Y197072D01*
X172696D01*
X180371Y204746D01*
X145757Y197350D02*
X146451D01*
X149560Y200460D01*
X155225D01*
X146700Y194750D02*
X150694Y198743D01*
X154366D01*
X157160Y195949D01*
X173065D01*
X192415Y143198D02*
X208453D01*
X145332Y149737D02*
X179845D01*
X186446Y156339D01*
X208069D01*
X144123Y148240D02*
X181168D01*
X187435Y154507D01*
X142716Y146827D02*
X182577D01*
X188583Y152834D01*
X142017Y145162D02*
X183573D01*
X189237Y150826D01*
X140555Y143745D02*
X184897D01*
X190258Y149106D01*
X215947D01*
X139085Y142510D02*
X186404D01*
X191389Y147495D01*
X218579D01*
X191875Y145240D02*
X222055D01*
X74586Y107674D02*
X82017D01*
X30600Y99700D02*
X43903D01*
X82017Y107674D02*
X83946Y105745D01*
X122473Y172596D02*
X145332Y149737D01*
X100847Y171697D02*
X107845D01*
X99912Y173689D02*
X109830D01*
X110923Y172596D01*
X122473D01*
X108700Y166250D02*
X111767Y169317D01*
X120226D01*
X142716Y146827D01*
X107845Y171697D02*
X108573Y170970D01*
X121392D01*
X144123Y148240D01*
X48775Y194765D02*
X52188Y198179D01*
X46200Y198550D02*
X48513Y200864D01*
X47043Y202050D02*
X48656Y203663D01*
X76700Y219050D02*
X79836Y222186D01*
X88932D01*
X88798Y213780D02*
X91359Y216341D01*
X95206D01*
X232530Y193718D02*
Y198756D01*
X247651Y197794D02*
X250299D01*
X246613Y196316D02*
X248234D01*
X70035Y70245D02*
X75280D01*
X77385Y72350D01*
X90400D01*
X83479Y104380D02*
X103770D01*
X111700Y96450D01*
X83946Y105745D02*
X92929D01*
X93783Y106599D01*
X132373D01*
X189237Y150826D02*
X213854D01*
X218214Y155185D01*
X221599D01*
X188583Y152834D02*
X213438D01*
X218579Y157975D01*
X187435Y154507D02*
X211472D01*
X217875Y160910D01*
X223856D01*
X225500Y159265D01*
X227554Y162406D02*
X231000Y158960D01*
X208069Y156339D02*
X214136Y162406D01*
X227554D01*
X181002Y10675D02*
X189719Y19392D01*
X180250Y12745D02*
X189202Y21697D01*
X179711Y14590D02*
X188352Y23231D01*
X203228D01*
X214260Y34263D01*
X203292Y25184D02*
X212697Y34589D01*
X203095Y26742D02*
X211237Y34884D01*
X187241Y30511D02*
Y41503D01*
Y30511D02*
X192567Y25184D01*
X203292D01*
X188811Y31563D02*
X193631Y26742D01*
X203095D01*
X190368Y32369D02*
X194421Y28316D01*
X191736Y33150D02*
X195006Y29880D01*
X202673D01*
X96106Y37861D02*
X159742D01*
X170636Y48755D01*
X120219Y39592D02*
X133416Y52789D01*
X126158Y57025D02*
X179944D01*
X191736Y45233D01*
Y33150D02*
Y45233D01*
X179267Y54871D02*
X190368Y43769D01*
Y32369D02*
Y43769D01*
X133416Y52789D02*
X178602D01*
X188811Y42580D01*
Y31563D02*
Y42580D01*
X43903Y99700D02*
X47759Y103557D01*
X70469D01*
X74586Y107674D01*
X99174Y43016D02*
X106811D01*
X98111Y44079D02*
X99174Y43016D01*
X95686Y44079D02*
X98111D01*
X106811Y43016D02*
X112253Y48458D01*
X106722Y47000D02*
X109481Y49758D01*
X118892D01*
X126158Y57025D01*
X112253Y48458D02*
X120035D01*
X126448Y54871D01*
X179267D01*
X67865Y72415D02*
X70035Y70245D01*
X15000Y62550D02*
X24865Y72415D01*
X67865D01*
X68400Y217350D02*
X70806D01*
X71611Y216545D01*
X78252D01*
X66295Y213780D02*
X88798D01*
X62573Y217502D02*
X66295Y213780D01*
X62573Y217502D02*
Y223510D01*
X65364Y226300D01*
X67150D01*
X200058Y231227D02*
X232530Y198756D01*
X59650Y222343D02*
X73050Y235743D01*
X209702D01*
X247651Y197794D01*
X88932Y222186D02*
X99582Y232837D01*
X207405D01*
X245996Y194246D01*
X86803Y224325D02*
Y226526D01*
X262005Y113355D02*
Y149090D01*
X263875Y112488D02*
Y149126D01*
X40195Y137940D02*
X210619D01*
X213939Y134620D01*
X135933Y142312D02*
X137177Y141069D01*
X187703D01*
X191875Y145240D01*
X135722Y140224D02*
X136611Y139335D01*
X188552D01*
X192415Y143198D01*
X21006Y139627D02*
X38508D01*
X40195Y137940D01*
X9611Y153291D02*
X20926Y141976D01*
X39075D01*
X40828Y140224D01*
X11695Y153629D02*
X21111Y144213D01*
X39867D01*
X41767Y142312D01*
X138961Y190945D02*
X142671D01*
X184452Y176009D02*
X205408D01*
X222237Y183800D02*
Y201675D01*
X209440Y214471D02*
X222237Y201675D01*
X220525Y177615D02*
Y197386D01*
X205111Y212800D02*
X220525Y197386D01*
X81100Y207250D02*
X90355Y197995D01*
X89829Y209320D02*
X92604Y206545D01*
X94435Y210734D02*
X94973Y211272D01*
X100464D01*
X207984Y79688D02*
X232509Y104212D01*
X209588Y78734D02*
X232920Y102066D01*
X233746Y85414D02*
X234798D01*
X242964Y93581D01*
X257070D01*
X166977Y207545D02*
X177694Y218262D01*
X178066Y216698D02*
X210040D01*
X225202Y201537D01*
X177694Y218262D02*
X210748D01*
X228252Y200758D01*
X239742Y191248D02*
X245113Y185876D01*
X228252Y194435D02*
Y200758D01*
Y194435D02*
X231439Y191248D01*
X239742D01*
X225202Y195879D02*
Y201537D01*
Y195879D02*
X231805Y189276D01*
X235820D01*
X129053Y200853D02*
X138961Y190945D01*
X113671Y210617D02*
X123435Y200853D01*
X129053D01*
X166906Y205538D02*
X178066Y216698D01*
X102354Y212226D02*
X109951D01*
X114635Y212871D02*
X123393Y204114D01*
X142344Y207545D02*
X166977D01*
X111912Y214187D02*
X120666D01*
X109951Y212226D02*
X111912Y214187D01*
X101116Y210621D02*
X110474D01*
X112724Y212871D01*
X114635D01*
X131410Y215090D02*
X140962Y205538D01*
X166906D01*
X120666Y214187D02*
X126996D01*
X92604Y206545D02*
X97695D01*
X100000Y208850D01*
X73699Y212226D02*
X94238D01*
X94903Y212891D01*
X101689D01*
X52188Y198179D02*
X68405D01*
X79546Y209320D01*
X89829D01*
X126996Y214187D02*
X130019Y217210D01*
X132680D01*
X142344Y207545D01*
X3127Y177506D02*
X9611Y171022D01*
X3127Y157506D02*
X21006Y139627D01*
G54D65*
X36545Y147595D02*
X39300Y150350D01*
X192979Y51085D02*
X200189Y43876D01*
Y41211D02*
Y43876D01*
X183037Y77377D02*
X192979Y67435D01*
Y51085D02*
Y67435D01*
X129212Y77377D02*
X183037D01*
X98100Y96750D02*
X112841Y82009D01*
X124580D01*
X129212Y77377D01*
X14126Y154043D02*
Y155568D01*
Y154043D02*
X20574Y147595D01*
X36545D01*
X6806Y14402D02*
X7639Y15235D01*
X9306D01*
X10139Y14402D01*
Y13569D01*
X9306Y12736D01*
X8472D01*
X9306D01*
X10139Y11902D01*
Y11069D01*
X9306Y10236D01*
X7639D01*
X6806Y11069D01*
X380200Y-174000D02*
Y-153717D01*
X261300Y-173350D02*
X521000D01*
Y-112350D01*
X107300Y-173350D02*
Y-112350D01*
X-139200Y-173350D02*
Y-112350D01*
X-139150Y-173350D02*
X18400D01*
X-139150D02*
Y-112350D01*
Y-112350D02*
X521000D01*
X-139200Y-173350D02*
X261300D01*
X-139200Y-153017D02*
X520800D01*
X-139200Y-132683D02*
X521000D01*
X234000D02*
Y-112350D01*
X318000Y-132683D02*
Y-112350D01*
G54D69*
X24173Y76942D02*
X24700Y77469D01*
X22900Y75669D02*
X24173Y76942D01*
X81844Y76875D02*
Y84723D01*
X14900Y80000D02*
X17500Y82600D01*
X23490D01*
X14099Y110850D02*
X22051Y102898D01*
Y87414D02*
Y102898D01*
Y87414D02*
X23490Y85975D01*
Y82600D02*
Y85975D01*
Y82600D02*
X24700Y81391D01*
Y77469D02*
Y81391D01*
X81844Y84723D02*
X87204Y90083D01*
X93165D01*
X97400Y85848D01*
X3275Y115815D02*
Y125950D01*
Y115815D02*
X8240Y110850D01*
X14099D01*
G54D70*
X40900Y76942D02*
X40933Y76975D01*
X61244D01*
X62974Y78705D01*
X74682D02*
X76512Y76875D01*
X81844D01*
X62974Y78705D02*
X74682D01*
X24173Y76942D02*
X40900D01*
G54D72*
X97900Y67200D02*
X105300Y59800D01*
X81844Y76875D02*
X90956D01*
X97900Y69931D01*
Y67200D02*
Y69931D01*
G54D73*
X116657Y119934D02*
X119531D01*
X125447Y125849D01*
G54D74*
X116849Y67049D02*
X133430D01*
X106895Y57095D02*
X116849Y67049D01*
X92905Y57095D02*
X106895D01*
X69143Y61475D02*
X88525D01*
X92905Y57095D01*
X29500Y60650D02*
X31078Y62227D01*
X68390D01*
X69143Y61475D01*
G54D80*
X198713Y49003D02*
X200800Y46916D01*
X198713Y49003D02*
Y93936D01*
X202400Y97623D01*
Y112450D01*
X-52300Y-139851D02*
Y-145849D01*
X-48301D01*
X-46302Y-140851D02*
X-45302Y-139851D01*
X-43303D01*
X-42303Y-140851D01*
Y-141851D01*
X-43303Y-142850D01*
X-44303D01*
X-43303D01*
X-42303Y-143850D01*
Y-144850D01*
X-43303Y-145849D01*
X-45302D01*
X-46302Y-144850D01*
X169350Y-145900D02*
Y-139902D01*
X173349Y-145900D01*
Y-139902D01*
X175348Y-145900D02*
X179347Y-141901D01*
X181346Y-145900D02*
Y-141901D01*
X183345Y-139902D01*
X185345Y-141901D01*
Y-145900D01*
Y-142901D01*
X181346D01*
X114800Y-139902D02*
X118799D01*
X116799D01*
Y-145900D01*
X120798Y-139902D02*
X122797D01*
X121798D01*
Y-145900D01*
X120798D01*
X122797D01*
X125796Y-139902D02*
Y-145900D01*
X128796D01*
X129795Y-144900D01*
Y-140902D01*
X128796Y-139902D01*
X125796D01*
X138792Y-145900D02*
Y-139902D01*
X140792D02*
Y-145900D01*
X137793Y-141901D02*
X140792D01*
X141791D01*
X137793Y-143901D02*
X141791D01*
X143791Y-141901D02*
X144790D01*
Y-142901D01*
X143791D01*
Y-141901D01*
Y-144900D02*
X144790D01*
Y-145900D01*
X143791D01*
Y-144900D01*
X401300Y-160435D02*
X405299D01*
X403299D01*
Y-166434D01*
X411297Y-160435D02*
X407298D01*
Y-166434D01*
X411297D01*
X407298Y-163435D02*
X409297D01*
X413296Y-160435D02*
X417295Y-166434D01*
Y-160435D02*
X413296Y-166434D01*
X419294D02*
Y-162435D01*
X421293Y-160435D01*
X423293Y-162435D01*
Y-166434D01*
Y-163435D01*
X419294D01*
X429291Y-161435D02*
X428291Y-160435D01*
X426292D01*
X425292Y-161435D01*
Y-162435D01*
X426292Y-163435D01*
X428291D01*
X429291Y-164434D01*
Y-165434D01*
X428291Y-166434D01*
X426292D01*
X425292Y-165434D01*
X437288Y-160435D02*
X439288D01*
X438288D01*
Y-166434D01*
X437288D01*
X439288D01*
X442287D02*
Y-160435D01*
X446285Y-166434D01*
Y-160435D01*
X452283Y-161435D02*
X451284Y-160435D01*
X449285D01*
X448285Y-161435D01*
Y-162435D01*
X449285Y-163435D01*
X451284D01*
X452283Y-164434D01*
Y-165434D01*
X451284Y-166434D01*
X449285D01*
X448285Y-165434D01*
X454283Y-160435D02*
X458282D01*
X456282D01*
Y-166434D01*
X460281D02*
Y-160435D01*
X463280D01*
X464280Y-161435D01*
Y-163435D01*
X463280Y-164434D01*
X460281D01*
X462280D02*
X464280Y-166434D01*
X466279Y-160435D02*
Y-165434D01*
X467279Y-166434D01*
X469278D01*
X470278Y-165434D01*
Y-160435D01*
X472277Y-166434D02*
Y-160435D01*
X474276Y-162435D01*
X476276Y-160435D01*
Y-166434D01*
X482274Y-160435D02*
X478275D01*
Y-166434D01*
X482274D01*
X478275Y-163435D02*
X480274D01*
X484273Y-166434D02*
Y-160435D01*
X488272Y-166434D01*
Y-160435D01*
X490271D02*
X494270D01*
X492271D01*
Y-166434D01*
X500268Y-161435D02*
X499268Y-160435D01*
X497269D01*
X496269Y-161435D01*
Y-162435D01*
X497269Y-163435D01*
X499268D01*
X500268Y-164434D01*
Y-165434D01*
X499268Y-166434D01*
X497269D01*
X496269Y-165434D01*
X274850Y-166434D02*
X276849D01*
X275850D01*
Y-160435D01*
X274850Y-161435D01*
X279848Y-162435D02*
X280848D01*
Y-163435D01*
X279848D01*
Y-162435D01*
Y-165434D02*
X280848D01*
Y-166434D01*
X279848D01*
Y-165434D01*
X284847Y-161435D02*
X285846Y-160435D01*
X287846D01*
X288845Y-161435D01*
Y-162435D01*
X287846Y-163435D01*
X286846D01*
X287846D01*
X288845Y-164434D01*
Y-165434D01*
X287846Y-166434D01*
X285846D01*
X284847Y-165434D01*
X290845Y-161435D02*
X291845Y-160435D01*
X293844D01*
X294844Y-161435D01*
Y-162435D01*
X293844Y-163435D01*
X294844Y-164434D01*
Y-165434D01*
X293844Y-166434D01*
X291845D01*
X290845Y-165434D01*
Y-164434D01*
X291845Y-163435D01*
X290845Y-162435D01*
Y-161435D01*
X291845Y-163435D02*
X293844D01*
X296843Y-162435D02*
X297843D01*
Y-163435D01*
X296843D01*
Y-162435D01*
Y-165434D02*
X297843D01*
Y-166434D01*
X296843D01*
Y-165434D01*
X301841Y-161435D02*
X302841Y-160435D01*
X304840D01*
X305840Y-161435D01*
Y-162435D01*
X304840Y-163435D01*
X303841D01*
X304840D01*
X305840Y-164434D01*
Y-165434D01*
X304840Y-166434D01*
X302841D01*
X301841Y-165434D01*
X307839D02*
X308839Y-166434D01*
X310838D01*
X311838Y-165434D01*
Y-161435D01*
X310838Y-160435D01*
X308839D01*
X307839Y-161435D01*
Y-162435D01*
X308839Y-163435D01*
X311838D01*
X319835Y-166434D02*
Y-160435D01*
X322834D01*
X323834Y-161435D01*
Y-163435D01*
X322834Y-164434D01*
X319835D01*
X325834Y-166434D02*
Y-160435D01*
X327833Y-162435D01*
X329832Y-160435D01*
Y-166434D01*
X-132850Y-139851D02*
Y-145849D01*
X-128851D01*
X-126852D02*
Y-141851D01*
X-124853Y-139851D01*
X-122853Y-141851D01*
Y-145849D01*
Y-142850D01*
X-126852D01*
X-120854Y-139851D02*
Y-140851D01*
X-118854Y-142850D01*
X-116855Y-140851D01*
Y-139851D01*
X-118854Y-142850D02*
Y-145849D01*
X-110857Y-139851D02*
X-114856D01*
Y-145849D01*
X-110857D01*
X-114856Y-142850D02*
X-112856D01*
X-108858Y-145849D02*
Y-139851D01*
X-105859D01*
X-104859Y-140851D01*
Y-142850D01*
X-105859Y-143850D01*
X-108858D01*
X-106858D02*
X-104859Y-145849D01*
X-96862D02*
Y-139851D01*
X-92863Y-145849D01*
Y-139851D01*
X-90864Y-145849D02*
Y-141851D01*
X-88864Y-139851D01*
X-86865Y-141851D01*
Y-145849D01*
Y-142850D01*
X-90864D01*
X-84865Y-145849D02*
Y-139851D01*
X-82866Y-141851D01*
X-80867Y-139851D01*
Y-145849D01*
X-74869Y-139851D02*
X-78868D01*
Y-145849D01*
X-74869D01*
X-78868Y-142850D02*
X-76868D01*
X-66871Y-143850D02*
X-62873D01*
X-66871Y-141851D02*
X-62873D01*
X114800Y-119569D02*
Y-125567D01*
X117799D01*
X118799Y-124567D01*
Y-123567D01*
X117799Y-122568D01*
X114800D01*
X117799D01*
X118799Y-121568D01*
Y-120568D01*
X117799Y-119569D01*
X114800D01*
X123797D02*
X121798D01*
X120798Y-120568D01*
Y-124567D01*
X121798Y-125567D01*
X123797D01*
X124797Y-124567D01*
Y-120568D01*
X123797Y-119569D01*
X126796Y-125567D02*
Y-121568D01*
X128796Y-119569D01*
X130795Y-121568D01*
Y-125567D01*
Y-122568D01*
X126796D01*
X132794Y-125567D02*
Y-119569D01*
X135793D01*
X136793Y-120568D01*
Y-122568D01*
X135793Y-123567D01*
X132794D01*
X134793D02*
X136793Y-125567D01*
X138792Y-119569D02*
Y-125567D01*
X141791D01*
X142791Y-124567D01*
Y-120568D01*
X141791Y-119569D01*
X138792D01*
X151788Y-125567D02*
Y-119569D01*
X153787D02*
Y-125567D01*
X150788Y-121568D02*
X153787D01*
X154787D01*
X150788Y-123567D02*
X154787D01*
X156786Y-121568D02*
X157786D01*
Y-122568D01*
X156786D01*
Y-121568D01*
Y-124567D02*
X157786D01*
Y-125567D01*
X156786D01*
Y-124567D01*
X169350Y-125567D02*
Y-119569D01*
X172349D01*
X173349Y-120568D01*
Y-122568D01*
X172349Y-123567D01*
X169350D01*
X175348Y-125567D02*
Y-119569D01*
X178347D01*
X179347Y-120568D01*
Y-122568D01*
X178347Y-123567D01*
X175348D01*
X177347D02*
X179347Y-125567D01*
X184345Y-119569D02*
X182346D01*
X181346Y-120568D01*
Y-124567D01*
X182346Y-125567D01*
X184345D01*
X185345Y-124567D01*
Y-120568D01*
X184345Y-119569D01*
X191343Y-120568D02*
X190343Y-119569D01*
X188344D01*
X187344Y-120568D01*
Y-124567D01*
X188344Y-125567D01*
X190343D01*
X191343Y-124567D01*
X193342Y-120568D02*
X194342Y-119569D01*
X196341D01*
X197341Y-120568D01*
Y-124567D01*
X196341Y-125567D01*
X194342D01*
X193342Y-124567D01*
Y-120568D01*
X199340Y-125567D02*
X201340D01*
X200340D01*
Y-119569D01*
X199340Y-120568D01*
X204339D02*
X205338Y-119569D01*
X207338D01*
X208337Y-120568D01*
Y-124567D01*
X207338Y-125567D01*
X205338D01*
X204339Y-124567D01*
Y-120568D01*
X282950Y-119569D02*
Y-125567D01*
X285949D01*
X286949Y-124567D01*
Y-123567D01*
X285949Y-122568D01*
X282950D01*
X285949D01*
X286949Y-121568D01*
Y-120568D01*
X285949Y-119569D01*
X282950D01*
X-132850Y-125567D02*
Y-121568D01*
X-130851Y-119569D01*
X-128851Y-121568D01*
Y-125567D01*
Y-122568D01*
X-132850D01*
X-126852Y-119569D02*
Y-125567D01*
X-122853D01*
X-120854Y-119569D02*
Y-125567D01*
X-116855D01*
X-108858D02*
Y-121568D01*
X-106858Y-119569D01*
X-104859Y-121568D01*
Y-125567D01*
Y-122568D01*
X-108858D01*
X-102860Y-125567D02*
Y-119569D01*
X-99861D01*
X-98861Y-120568D01*
Y-122568D01*
X-99861Y-123567D01*
X-102860D01*
X-100860D02*
X-98861Y-125567D01*
X-96862Y-119569D02*
X-92863D01*
X-94862D01*
Y-125567D01*
X-90864Y-119569D02*
Y-125567D01*
X-88864Y-123567D01*
X-86865Y-125567D01*
Y-119569D01*
X-81867D02*
X-83866D01*
X-84865Y-120568D01*
Y-124567D01*
X-83866Y-125567D01*
X-81867D01*
X-80867Y-124567D01*
Y-120568D01*
X-81867Y-119569D01*
X-78868Y-125567D02*
Y-119569D01*
X-75868D01*
X-74869Y-120568D01*
Y-122568D01*
X-75868Y-123567D01*
X-78868D01*
X-76868D02*
X-74869Y-125567D01*
X-72869Y-119569D02*
Y-125567D01*
Y-123567D01*
X-68871Y-119569D01*
X-71870Y-122568D01*
X-68871Y-125567D01*
X-60873Y-119569D02*
Y-123567D01*
X-58874Y-125567D01*
X-56875Y-123567D01*
Y-119569D01*
X-54875D02*
X-52876D01*
X-53875D01*
Y-125567D01*
X-54875D01*
X-52876D01*
X-45878Y-119569D02*
X-49877D01*
Y-125567D01*
X-45878D01*
X-49877Y-122568D02*
X-47877D01*
X-43879Y-119569D02*
Y-125567D01*
X-41879Y-123567D01*
X-39880Y-125567D01*
Y-119569D01*
X-33882D02*
X-37881D01*
Y-125567D01*
X-33882D01*
X-37881Y-122568D02*
X-35881D01*
X-31883Y-119569D02*
Y-125567D01*
X-28884D01*
X-27884Y-124567D01*
Y-120568D01*
X-28884Y-119569D01*
X-31883D01*
X-15888D02*
X-19886D01*
Y-122568D01*
X-17887D01*
X-19886D01*
Y-125567D01*
X-13889D02*
Y-119569D01*
X-10889D01*
X-9890Y-120568D01*
Y-122568D01*
X-10889Y-123567D01*
X-13889D01*
X-11889D02*
X-9890Y-125567D01*
X-4891Y-119569D02*
X-6891D01*
X-7890Y-120568D01*
Y-124567D01*
X-6891Y-125567D01*
X-4891D01*
X-3892Y-124567D01*
Y-120568D01*
X-4891Y-119569D01*
X-1892Y-125567D02*
Y-119569D01*
X107Y-121568D01*
X2106Y-119569D01*
Y-125567D01*
X10104Y-119569D02*
X14103D01*
X12103D01*
Y-125567D01*
X19101Y-119569D02*
X17101D01*
X16102Y-120568D01*
Y-124567D01*
X17101Y-125567D01*
X19101D01*
X20100Y-124567D01*
Y-120568D01*
X19101Y-119569D01*
X22100Y-125567D02*
Y-119569D01*
X25099D01*
X26099Y-120568D01*
Y-122568D01*
X25099Y-123567D01*
X22100D01*
X38095Y-120568D02*
X37095Y-119569D01*
X35096D01*
X34096Y-120568D01*
Y-121568D01*
X35096Y-122568D01*
X37095D01*
X38095Y-123567D01*
Y-124567D01*
X37095Y-125567D01*
X35096D01*
X34096Y-124567D01*
X40094Y-119569D02*
X42093D01*
X41094D01*
Y-125567D01*
X40094D01*
X42093D01*
X45092Y-119569D02*
Y-125567D01*
X48092D01*
X49091Y-124567D01*
Y-120568D01*
X48092Y-119569D01*
X45092D01*
X55089D02*
X51091D01*
Y-125567D01*
X55089D01*
X51091Y-122568D02*
X53090D01*
X118999Y-161435D02*
X117999Y-160435D01*
X116000D01*
X115000Y-161435D01*
Y-165434D01*
X116000Y-166434D01*
X117999D01*
X118999Y-165434D01*
Y-163435D01*
X116999D01*
X124997Y-160435D02*
X120998D01*
Y-166434D01*
X124997D01*
X120998Y-163435D02*
X122997D01*
X126996Y-166434D02*
Y-160435D01*
X130995Y-166434D01*
Y-160435D01*
X136993D02*
X132994D01*
Y-166434D01*
X136993D01*
X132994Y-163435D02*
X134994D01*
X138992Y-166434D02*
Y-160435D01*
X141991D01*
X142991Y-161435D01*
Y-163435D01*
X141991Y-164434D01*
X138992D01*
X140992D02*
X142991Y-166434D01*
X144990D02*
Y-162435D01*
X146990Y-160435D01*
X148989Y-162435D01*
Y-166434D01*
Y-163435D01*
X144990D01*
X150988Y-160435D02*
X154987D01*
X152988D01*
Y-166434D01*
X160985Y-160435D02*
X156986D01*
Y-166434D01*
X160985D01*
X156986Y-163435D02*
X158986D01*
X162985Y-160435D02*
Y-166434D01*
X165983D01*
X166983Y-165434D01*
Y-161435D01*
X165983Y-160435D01*
X162985D01*
X192975Y-162435D02*
X193974D01*
Y-163435D01*
X192975D01*
Y-162435D01*
Y-165434D02*
X193974D01*
Y-166434D01*
X192975D01*
Y-165434D01*
X201950D02*
X202950Y-166434D01*
X204949D01*
X205949Y-165434D01*
Y-161435D01*
X204949Y-160435D01*
X202950D01*
X201950Y-161435D01*
Y-162435D01*
X202950Y-163435D01*
X205949D01*
X207948Y-166434D02*
X211947Y-162435D01*
X216945Y-166434D02*
Y-160435D01*
X213946Y-163435D01*
X217945D01*
X219944Y-166434D02*
X223943Y-162435D01*
X229941Y-166434D02*
X225942D01*
X229941Y-162435D01*
Y-161435D01*
X228941Y-160435D01*
X226942D01*
X225942Y-161435D01*
X231940D02*
X232940Y-160435D01*
X234939D01*
X235939Y-161435D01*
Y-165434D01*
X234939Y-166434D01*
X232940D01*
X231940Y-165434D01*
Y-161435D01*
X237938Y-166434D02*
X239938D01*
X238938D01*
Y-160435D01*
X237938Y-161435D01*
X242937D02*
X243936Y-160435D01*
X245936D01*
X246935Y-161435D01*
Y-162435D01*
X245936Y-163435D01*
X246935Y-164434D01*
Y-165434D01*
X245936Y-166434D01*
X243936D01*
X242937Y-165434D01*
Y-164434D01*
X243936Y-163435D01*
X242937Y-162435D01*
Y-161435D01*
X243936Y-163435D02*
X245936D01*
X253800Y-125567D02*
Y-119569D01*
X256799D01*
X257799Y-120568D01*
Y-122568D01*
X256799Y-123567D01*
X253800D01*
X255799D02*
X257799Y-125567D01*
X263797Y-119569D02*
X259798D01*
Y-125567D01*
X263797D01*
X259798Y-122568D02*
X261797D01*
X265796Y-119569D02*
Y-123567D01*
X267795Y-125567D01*
X269795Y-123567D01*
Y-119569D01*
X271794Y-121568D02*
X272794D01*
Y-122568D01*
X271794D01*
Y-121568D01*
Y-124567D02*
X272794D01*
Y-125567D01*
X271794D01*
Y-124567D01*
X341599Y-120568D02*
X340599Y-119569D01*
X338600D01*
X337600Y-120568D01*
Y-121568D01*
X338600Y-122568D01*
X340599D01*
X341599Y-123567D01*
Y-124567D01*
X340599Y-125567D01*
X338600D01*
X337600Y-124567D01*
X343598Y-119569D02*
Y-123567D01*
X345597Y-125567D01*
X347597Y-123567D01*
Y-119569D01*
X349596Y-125567D02*
Y-119569D01*
X353595Y-125567D01*
Y-119569D01*
X361592Y-125567D02*
Y-119569D01*
X364591D01*
X365591Y-120568D01*
Y-122568D01*
X364591Y-123567D01*
X361592D01*
X363592D02*
X365591Y-125567D01*
X371589Y-119569D02*
X367590D01*
Y-125567D01*
X371589D01*
X367590Y-122568D02*
X369590D01*
X373588Y-119569D02*
Y-123567D01*
X375588Y-125567D01*
X377587Y-123567D01*
Y-119569D01*
X379586Y-121568D02*
X380586D01*
Y-122568D01*
X379586D01*
Y-121568D01*
Y-124567D02*
X380586D01*
Y-125567D01*
X379586D01*
Y-124567D01*
X388200Y-125567D02*
Y-119569D01*
X392199Y-125567D01*
Y-119569D01*
X395198Y-125567D02*
X397197D01*
X398197Y-124567D01*
Y-122568D01*
X397197Y-121568D01*
X395198D01*
X394198Y-122568D01*
Y-124567D01*
X395198Y-125567D01*
X401196Y-120568D02*
Y-121568D01*
X400196D01*
X402196D01*
X401196D01*
Y-124567D01*
X402196Y-125567D01*
X411193Y-119569D02*
X413192D01*
X412192D01*
Y-125567D01*
X411193D01*
X413192D01*
X416191D02*
Y-121568D01*
X419190D01*
X420190Y-122568D01*
Y-125567D01*
X428187Y-119569D02*
Y-123567D01*
X430186Y-125567D01*
X432186Y-123567D01*
Y-119569D01*
X437184Y-125567D02*
X435185D01*
X434185Y-124567D01*
Y-122568D01*
X435185Y-121568D01*
X437184D01*
X438184Y-122568D01*
Y-123567D01*
X434185D01*
X440183Y-121568D02*
Y-125567D01*
Y-123567D01*
X441183Y-122568D01*
X442182Y-121568D01*
X443182D01*
X446181Y-125567D02*
X449180D01*
X450180Y-124567D01*
X449180Y-123567D01*
X447181D01*
X446181Y-122568D01*
X447181Y-121568D01*
X450180D01*
X452179Y-125567D02*
X454179D01*
X453179D01*
Y-121568D01*
X452179D01*
X458177Y-125567D02*
X460177D01*
X461176Y-124567D01*
Y-122568D01*
X460177Y-121568D01*
X458177D01*
X457178Y-122568D01*
Y-124567D01*
X458177Y-125567D01*
X463176D02*
Y-121568D01*
X466175D01*
X467174Y-122568D01*
Y-125567D01*
X473173Y-120568D02*
X472173Y-119569D01*
X470174D01*
X469174Y-120568D01*
Y-124567D01*
X470174Y-125567D01*
X472173D01*
X473173Y-124567D01*
X476171Y-125567D02*
X478171D01*
X479171Y-124567D01*
Y-122568D01*
X478171Y-121568D01*
X476171D01*
X475172Y-122568D01*
Y-124567D01*
X476171Y-125567D01*
X481170D02*
Y-121568D01*
X484169D01*
X485169Y-122568D01*
Y-125567D01*
X488168Y-120568D02*
Y-121568D01*
X487168D01*
X489167D01*
X488168D01*
Y-124567D01*
X489167Y-125567D01*
X492166Y-121568D02*
Y-125567D01*
Y-123567D01*
X493166Y-122568D01*
X494166Y-121568D01*
X495165D01*
X499164Y-125567D02*
X501163D01*
X502163Y-124567D01*
Y-122568D01*
X501163Y-121568D01*
X499164D01*
X498164Y-122568D01*
Y-124567D01*
X499164Y-125567D01*
X504163D02*
X506162D01*
X505162D01*
Y-119569D01*
X504163D01*
G54D82*
X81844Y76875D02*
D03*
X40900Y76942D02*
D03*
X61244Y76975D02*
D03*
G54D83*
X3194Y177453D02*
D03*
G54D84*
Y167453D02*
D03*
Y157453D02*
D03*
G54D85*
X19500Y184000D02*
D03*
X67059Y-2134D02*
D03*
G54D87*
X136504Y1689D02*
D03*
G54D88*
X118000Y-10122D02*
D03*
G54D95*
X156042Y173650D02*
D03*
X162240Y175757D02*
D03*
X156042Y168818D02*
D03*
X151675Y108050D02*
D03*
X155100D02*
D03*
X158526D02*
D03*
X6284Y75896D02*
D03*
Y71368D02*
D03*
X2900Y73600D02*
D03*
X9600D02*
D03*
X202849Y89324D02*
D03*
Y93261D02*
D03*
X206786D02*
D03*
Y89324D02*
D03*
X159603Y175757D02*
D03*
G54D96*
X153560Y178957D02*
D03*
X159704Y199344D02*
D03*
X153606Y159305D02*
D03*
X20482Y151516D02*
D03*
X144700Y107779D02*
D03*
X169001Y202712D02*
D03*
X149921Y187102D02*
D03*
X110357Y126552D02*
D03*
X251700Y111300D02*
D03*
X94142Y80597D02*
D03*
X223249Y103300D02*
D03*
X99051Y124373D02*
D03*
X259565Y174524D02*
D03*
X143000Y98700D02*
D03*
X212834Y182919D02*
D03*
X91404Y151440D02*
D03*
X14126Y155568D02*
D03*
X146451Y163067D02*
D03*
X135645Y189535D02*
D03*
X90100Y85600D02*
D03*
X114237Y100236D02*
D03*
X26805Y89335D02*
D03*
X76688Y124050D02*
D03*
X105300Y59800D02*
D03*
X137100Y164450D02*
D03*
X14900Y80000D02*
D03*
X3275Y125950D02*
D03*
X22900Y75669D02*
D03*
X87018Y20732D02*
D03*
X75988Y20838D02*
D03*
X208000Y203770D02*
D03*
X130500Y11050D02*
D03*
X251700Y108100D02*
D03*
X189744Y186927D02*
D03*
X183244D02*
D03*
X186544D02*
D03*
X178400Y106650D02*
D03*
X64400Y119150D02*
D03*
X72400D02*
D03*
X64400Y107150D02*
D03*
X56400D02*
D03*
X27200Y106300D02*
D03*
X52400Y115150D02*
D03*
X278743Y204807D02*
D03*
X284400Y199150D02*
D03*
X290057Y193493D02*
D03*
X273086Y210464D02*
D03*
X226743Y61493D02*
D03*
X232400Y67150D02*
D03*
X40400Y103150D02*
D03*
X238057Y72807D02*
D03*
X284400Y-8850D02*
D03*
X240400Y43150D02*
D03*
X56400Y127150D02*
D03*
X236400Y31150D02*
D03*
Y39150D02*
D03*
Y15150D02*
D03*
Y23150D02*
D03*
X268400Y7150D02*
D03*
X276400D02*
D03*
X244400D02*
D03*
X252400D02*
D03*
X260400D02*
D03*
X228400D02*
D03*
X236400D02*
D03*
X268400Y-850D02*
D03*
X276400D02*
D03*
X244400D02*
D03*
X252400D02*
D03*
X260400D02*
D03*
X228400D02*
D03*
X236400D02*
D03*
X268400Y-8850D02*
D03*
X276400D02*
D03*
X244400D02*
D03*
X252400D02*
D03*
X260400D02*
D03*
X228400D02*
D03*
X236400D02*
D03*
X292400Y43150D02*
D03*
X300400D02*
D03*
X268400D02*
D03*
X276400D02*
D03*
X284400D02*
D03*
X252400D02*
D03*
X260400D02*
D03*
X292400Y51150D02*
D03*
X300400D02*
D03*
X268400D02*
D03*
X276400D02*
D03*
X284400D02*
D03*
X252400D02*
D03*
X260400D02*
D03*
X300400Y59150D02*
D03*
X292400D02*
D03*
X284400D02*
D03*
X276400D02*
D03*
X268400D02*
D03*
X260400D02*
D03*
X252400D02*
D03*
X8400Y31150D02*
D03*
X16400D02*
D03*
X24400D02*
D03*
X-3600Y147150D02*
D03*
Y187150D02*
D03*
Y155150D02*
D03*
X299600Y191550D02*
D03*
Y201950D02*
D03*
X290800Y207550D02*
D03*
X-3600Y179150D02*
D03*
X281600Y212750D02*
D03*
X277600Y221550D02*
D03*
X284800Y233550D02*
D03*
X274400D02*
D03*
X263200D02*
D03*
X251200D02*
D03*
X276400Y35150D02*
D03*
X284400D02*
D03*
X292400D02*
D03*
X300400D02*
D03*
X-3600Y163150D02*
D03*
X40400Y-8850D02*
D03*
X88400D02*
D03*
X96400D02*
D03*
X104400D02*
D03*
X276400Y19150D02*
D03*
X284400D02*
D03*
X292400D02*
D03*
X300400D02*
D03*
X276400Y27150D02*
D03*
X284400D02*
D03*
X292400D02*
D03*
X300400D02*
D03*
X228400Y15150D02*
D03*
Y23150D02*
D03*
X39200Y227150D02*
D03*
X244400Y51150D02*
D03*
X284400Y7150D02*
D03*
Y-850D02*
D03*
X-3600Y171150D02*
D03*
X228400Y31150D02*
D03*
X241600Y233750D02*
D03*
X86100Y98050D02*
D03*
X248400Y79150D02*
D03*
X197200Y40350D02*
D03*
X232400Y79150D02*
D03*
X104000Y73850D02*
D03*
X234600Y152150D02*
D03*
X50500Y100450D02*
D03*
X27000Y64337D02*
D03*
X15150Y168700D02*
D03*
X11800Y42689D02*
D03*
X52750Y228350D02*
D03*
X48200Y223950D02*
D03*
X56500Y222072D02*
D03*
X236400Y83150D02*
D03*
X191700Y116550D02*
D03*
X16300Y117150D02*
D03*
X30425Y106950D02*
D03*
X7500Y63950D02*
D03*
X33665Y135350D02*
D03*
X33535Y112650D02*
D03*
X26100Y135850D02*
D03*
X5500Y45977D02*
D03*
X-1540Y90550D02*
D03*
X2200Y90850D02*
D03*
X5800Y54250D02*
D03*
X13800Y87750D02*
D03*
X52498Y171153D02*
D03*
X40952Y38550D02*
D03*
X88295Y183643D02*
D03*
X42900Y188626D02*
D03*
X105800Y189950D02*
D03*
X173550Y-100D02*
D03*
X64353Y171197D02*
D03*
X57676Y188626D02*
D03*
X9700Y115950D02*
D03*
X58700Y184450D02*
D03*
X8000Y100550D02*
D03*
X82061Y171189D02*
D03*
X-700Y113950D02*
D03*
X210064Y23250D02*
D03*
X221678Y22950D02*
D03*
X10900Y126950D02*
D03*
X10795Y105950D02*
D03*
X17700Y38750D02*
D03*
X36200Y167850D02*
D03*
X10800Y145950D02*
D03*
X56000Y167950D02*
D03*
X48800Y167650D02*
D03*
X59000Y150550D02*
D03*
X257100Y167550D02*
D03*
X212300Y208899D02*
D03*
X189200Y79027D02*
D03*
X76800Y168050D02*
D03*
X53100Y150050D02*
D03*
X28400Y113250D02*
D03*
X223700Y67650D02*
D03*
X77900Y154250D02*
D03*
X64900Y149150D02*
D03*
X179600Y195850D02*
D03*
X187600Y200350D02*
D03*
X258300Y126550D02*
D03*
X258000Y123750D02*
D03*
X182900Y195850D02*
D03*
X189200D02*
D03*
X181400Y200250D02*
D03*
X254100Y135750D02*
D03*
X76900Y145950D02*
D03*
X203400Y160050D02*
D03*
X82800Y188626D02*
D03*
X181001Y157767D02*
D03*
X199900Y159950D02*
D03*
X26600Y128450D02*
D03*
X199800Y162950D02*
D03*
X44300Y85650D02*
D03*
X131020Y189550D02*
D03*
X249500Y126850D02*
D03*
X237210Y122740D02*
D03*
X227160Y123490D02*
D03*
X232040Y122739D02*
D03*
X184520Y200255D02*
D03*
X210100Y112230D02*
D03*
X153355Y123180D02*
D03*
X153555Y90880D02*
D03*
X156855Y123180D02*
D03*
X156655Y90880D02*
D03*
X153155Y81880D02*
D03*
X150155D02*
D03*
X159455D02*
D03*
X156455D02*
D03*
X155123Y126157D02*
D03*
X221955Y112880D02*
D03*
X224755D02*
D03*
X179400Y188000D02*
D03*
X186100Y195850D02*
D03*
X224635Y142270D02*
D03*
X217828Y116007D02*
D03*
X227675Y137700D02*
D03*
X224835D02*
D03*
X234875Y142290D02*
D03*
X235045Y148580D02*
D03*
X225005Y147940D02*
D03*
X226695Y145230D02*
D03*
X226445Y151080D02*
D03*
X229505Y148040D02*
D03*
Y141970D02*
D03*
X232015Y143270D02*
D03*
X226895Y140420D02*
D03*
X232015Y140270D02*
D03*
X230475Y137700D02*
D03*
X233275Y137680D02*
D03*
X236125Y138480D02*
D03*
X29500Y60650D02*
D03*
X21900Y163050D02*
D03*
X222055Y145240D02*
D03*
X191600Y94950D02*
D03*
X44200Y202050D02*
D03*
X67150Y226300D02*
D03*
X135800Y22000D02*
D03*
X23900Y190250D02*
D03*
X250300Y194250D02*
D03*
X76700Y219050D02*
D03*
X81100Y207250D02*
D03*
X90400Y72350D02*
D03*
X15000Y62550D02*
D03*
X231965Y155080D02*
D03*
X46200Y198550D02*
D03*
X200800Y46916D02*
D03*
X202400Y112450D02*
D03*
X146700Y194750D02*
D03*
X42100Y219550D02*
D03*
X30600Y99700D02*
D03*
X131600Y21300D02*
D03*
X261700Y192350D02*
D03*
X32300Y89900D02*
D03*
X111700Y96450D02*
D03*
X261900Y188250D02*
D03*
X97100Y167950D02*
D03*
X226719Y155120D02*
D03*
X218579Y157975D02*
D03*
Y147495D02*
D03*
X222059Y150545D02*
D03*
X221599Y155185D02*
D03*
X-2300Y58450D02*
D03*
X81100Y215850D02*
D03*
X98100Y96750D02*
D03*
X90900Y94400D02*
D03*
X28200Y150550D02*
D03*
X100000Y208850D02*
D03*
X32100Y150350D02*
D03*
X76400Y51150D02*
D03*
X257800Y184150D02*
D03*
X86400Y55350D02*
D03*
X254000Y175350D02*
D03*
X6200Y191550D02*
D03*
X184200Y37550D02*
D03*
X178900Y44950D02*
D03*
X179500Y37750D02*
D03*
X178500Y41250D02*
D03*
X56335Y56388D02*
D03*
X49100Y56700D02*
D03*
X44200Y56600D02*
D03*
X56800Y49350D02*
D03*
X253150Y184400D02*
D03*
X253700Y188350D02*
D03*
X73200Y87200D02*
D03*
X94350Y115830D02*
D03*
X237500Y172500D02*
D03*
X195984Y95474D02*
D03*
X113159Y68489D02*
D03*
X97400Y85848D02*
D03*
X94500Y119000D02*
D03*
X106187Y111299D02*
D03*
X118350Y165950D02*
D03*
X115919Y109029D02*
D03*
X194236Y108517D02*
D03*
X163000Y201500D02*
D03*
X100400Y158050D02*
D03*
X108700Y166250D02*
D03*
X95562Y121891D02*
D03*
X116657Y119934D02*
D03*
X101256D02*
D03*
X104070Y126394D02*
D03*
X99594Y163256D02*
D03*
X98842Y151855D02*
D03*
X102632D02*
D03*
X95052D02*
D03*
X92300Y165450D02*
D03*
X76484Y184550D02*
D03*
X68911Y184185D02*
D03*
X245996Y194246D02*
D03*
X106750Y114373D02*
D03*
X138200Y95300D02*
D03*
X218595Y134620D02*
D03*
X142200Y193450D02*
D03*
X232530Y193718D02*
D03*
X236238Y193558D02*
D03*
X235820Y189276D02*
D03*
X243781Y181283D02*
D03*
X245113Y185876D02*
D03*
X254500Y165120D02*
D03*
X244500Y175650D02*
D03*
X125447Y125849D02*
D03*
X126001Y120067D02*
D03*
X217700Y185250D02*
D03*
X213900Y188448D02*
D03*
X165900Y109350D02*
D03*
X177200Y99100D02*
D03*
X161732Y48548D02*
D03*
X158728D02*
D03*
X164714D02*
D03*
X167613Y66027D02*
D03*
X165158Y62804D02*
D03*
X261520Y184330D02*
D03*
X200189Y41211D02*
D03*
X203661Y33859D02*
D03*
X147274Y12745D02*
D03*
X187795Y89007D02*
D03*
X116649Y112627D02*
D03*
X155102Y129027D02*
D03*
X133430Y67049D02*
D03*
X135439Y126655D02*
D03*
X136150Y116650D02*
D03*
X132373Y106599D02*
D03*
X191350Y107172D02*
D03*
X207323Y177706D02*
D03*
X209800Y166280D02*
D03*
X214101Y137550D02*
D03*
X220525Y177615D02*
D03*
X230472Y187490D02*
D03*
X68200Y168350D02*
D03*
X88792Y108669D02*
D03*
X116578Y51818D02*
D03*
X106722Y47000D02*
D03*
X95686Y44079D02*
D03*
X7217Y94123D02*
D03*
X31900Y160650D02*
D03*
X39300Y150350D02*
D03*
X48775Y194765D02*
D03*
X86803Y224325D02*
D03*
X108538Y214371D02*
D03*
X50500Y209050D02*
D03*
X118327Y72091D02*
D03*
X153868Y189650D02*
D03*
X167034Y210677D02*
D03*
X230100Y184550D02*
D03*
X51551Y81623D02*
D03*
X35022Y81597D02*
D03*
X68400Y217350D02*
D03*
X113671Y210617D02*
D03*
X120666Y214187D02*
D03*
X131410Y215090D02*
D03*
M02*
