G04 Layer_Physical_Order=6*
G04 Layer_Color=16711680*
%FSLAX25Y25*%
%MOIN*%
G70*
G01*
G75*
G04:AMPARAMS|DCode=17|XSize=23.62mil|YSize=39.37mil|CornerRadius=5.91mil|HoleSize=0mil|Usage=FLASHONLY|Rotation=180.000|XOffset=0mil|YOffset=0mil|HoleType=Round|Shape=RoundedRectangle|*
%AMROUNDEDRECTD17*
21,1,0.02362,0.02756,0,0,180.0*
21,1,0.01181,0.03937,0,0,180.0*
1,1,0.01181,-0.00591,0.01378*
1,1,0.01181,0.00591,0.01378*
1,1,0.01181,0.00591,-0.01378*
1,1,0.01181,-0.00591,-0.01378*
%
%ADD17ROUNDEDRECTD17*%
%ADD32C,0.03937*%
G04:AMPARAMS|DCode=37|XSize=11.81mil|YSize=23.62mil|CornerRadius=1.95mil|HoleSize=0mil|Usage=FLASHONLY|Rotation=0.000|XOffset=0mil|YOffset=0mil|HoleType=Round|Shape=RoundedRectangle|*
%AMROUNDEDRECTD37*
21,1,0.01181,0.01972,0,0,0.0*
21,1,0.00791,0.02362,0,0,0.0*
1,1,0.00390,0.00396,-0.00986*
1,1,0.00390,-0.00396,-0.00986*
1,1,0.00390,-0.00396,0.00986*
1,1,0.00390,0.00396,0.00986*
%
%ADD37ROUNDEDRECTD37*%
%ADD44R,0.03740X0.03937*%
%ADD45R,0.01968X0.02362*%
%ADD46R,0.01654X0.01811*%
%ADD47R,0.01811X0.01654*%
%ADD48R,0.02362X0.01968*%
%ADD50R,0.03937X0.03740*%
%ADD55R,0.03150X0.02362*%
%ADD56R,0.06300X0.05000*%
%ADD57R,0.02362X0.03150*%
%ADD59C,0.00400*%
%ADD60C,0.01500*%
%ADD61C,0.02000*%
%ADD62C,0.01968*%
%ADD65C,0.01000*%
%ADD69C,0.03500*%
%ADD70C,0.04000*%
%ADD71C,0.00600*%
%ADD72C,0.03000*%
%ADD73C,0.02500*%
%ADD74C,0.00900*%
%ADD76C,0.01200*%
%ADD77C,0.02200*%
%ADD80C,0.00800*%
G04:AMPARAMS|DCode=81|XSize=64.96mil|YSize=64.96mil|CornerRadius=16.24mil|HoleSize=0mil|Usage=FLASHONLY|Rotation=90.000|XOffset=0mil|YOffset=0mil|HoleType=Round|Shape=RoundedRectangle|*
%AMROUNDEDRECTD81*
21,1,0.06496,0.03248,0,0,90.0*
21,1,0.03248,0.06496,0,0,90.0*
1,1,0.03248,0.01624,0.01624*
1,1,0.03248,0.01624,-0.01624*
1,1,0.03248,-0.01624,-0.01624*
1,1,0.03248,-0.01624,0.01624*
%
%ADD81ROUNDEDRECTD81*%
%ADD82C,0.06496*%
G04:AMPARAMS|DCode=83|XSize=61.02mil|YSize=61.02mil|CornerRadius=15.26mil|HoleSize=0mil|Usage=FLASHONLY|Rotation=270.000|XOffset=0mil|YOffset=0mil|HoleType=Round|Shape=RoundedRectangle|*
%AMROUNDEDRECTD83*
21,1,0.06102,0.03051,0,0,270.0*
21,1,0.03051,0.06102,0,0,270.0*
1,1,0.03051,-0.01526,-0.01526*
1,1,0.03051,-0.01526,0.01526*
1,1,0.03051,0.01526,0.01526*
1,1,0.03051,0.01526,-0.01526*
%
%ADD83ROUNDEDRECTD83*%
%ADD84C,0.06102*%
%ADD85C,0.06693*%
G04:AMPARAMS|DCode=86|XSize=66.93mil|YSize=66.93mil|CornerRadius=16.73mil|HoleSize=0mil|Usage=FLASHONLY|Rotation=0.000|XOffset=0mil|YOffset=0mil|HoleType=Round|Shape=RoundedRectangle|*
%AMROUNDEDRECTD86*
21,1,0.06693,0.03347,0,0,0.0*
21,1,0.03347,0.06693,0,0,0.0*
1,1,0.03346,0.01673,-0.01673*
1,1,0.03346,-0.01673,-0.01673*
1,1,0.03346,-0.01673,0.01673*
1,1,0.03346,0.01673,0.01673*
%
%ADD86ROUNDEDRECTD86*%
%ADD87O,0.05905X0.17716*%
%ADD88O,0.17716X0.05905*%
G04:AMPARAMS|DCode=89|XSize=59.05mil|YSize=206.69mil|CornerRadius=14.76mil|HoleSize=0mil|Usage=FLASHONLY|Rotation=270.000|XOffset=0mil|YOffset=0mil|HoleType=Round|Shape=RoundedRectangle|*
%AMROUNDEDRECTD89*
21,1,0.05905,0.17716,0,0,270.0*
21,1,0.02953,0.20669,0,0,270.0*
1,1,0.02953,-0.08858,-0.01476*
1,1,0.02953,-0.08858,0.01476*
1,1,0.02953,0.08858,0.01476*
1,1,0.02953,0.08858,-0.01476*
%
%ADD89ROUNDEDRECTD89*%
%ADD90C,0.05709*%
%ADD91O,0.04724X0.07480*%
G04:AMPARAMS|DCode=92|XSize=64.96mil|YSize=64.96mil|CornerRadius=16.24mil|HoleSize=0mil|Usage=FLASHONLY|Rotation=0.000|XOffset=0mil|YOffset=0mil|HoleType=Round|Shape=RoundedRectangle|*
%AMROUNDEDRECTD92*
21,1,0.06496,0.03248,0,0,0.0*
21,1,0.03248,0.06496,0,0,0.0*
1,1,0.03248,0.01624,-0.01624*
1,1,0.03248,-0.01624,-0.01624*
1,1,0.03248,-0.01624,0.01624*
1,1,0.03248,0.01624,0.01624*
%
%ADD92ROUNDEDRECTD92*%
%ADD93C,0.16000*%
%ADD94C,0.27559*%
%ADD95C,0.01968*%
%ADD96C,0.02240*%
G04:AMPARAMS|DCode=99|XSize=40.16mil|YSize=87.4mil|CornerRadius=2.01mil|HoleSize=0mil|Usage=FLASHONLY|Rotation=0.000|XOffset=0mil|YOffset=0mil|HoleType=Round|Shape=RoundedRectangle|*
%AMROUNDEDRECTD99*
21,1,0.04016,0.08339,0,0,0.0*
21,1,0.03614,0.08740,0,0,0.0*
1,1,0.00402,0.01807,-0.04169*
1,1,0.00402,-0.01807,-0.04169*
1,1,0.00402,-0.01807,0.04169*
1,1,0.00402,0.01807,0.04169*
%
%ADD99ROUNDEDRECTD99*%
G04:AMPARAMS|DCode=100|XSize=40.16mil|YSize=75mil|CornerRadius=2.01mil|HoleSize=0mil|Usage=FLASHONLY|Rotation=0.000|XOffset=0mil|YOffset=0mil|HoleType=Round|Shape=RoundedRectangle|*
%AMROUNDEDRECTD100*
21,1,0.04016,0.07098,0,0,0.0*
21,1,0.03614,0.07500,0,0,0.0*
1,1,0.00402,0.01807,-0.03549*
1,1,0.00402,-0.01807,-0.03549*
1,1,0.00402,-0.01807,0.03549*
1,1,0.00402,0.01807,0.03549*
%
%ADD100ROUNDEDRECTD100*%
G04:AMPARAMS|DCode=101|XSize=9.84mil|YSize=71.65mil|CornerRadius=1.97mil|HoleSize=0mil|Usage=FLASHONLY|Rotation=0.000|XOffset=0mil|YOffset=0mil|HoleType=Round|Shape=RoundedRectangle|*
%AMROUNDEDRECTD101*
21,1,0.00984,0.06772,0,0,0.0*
21,1,0.00591,0.07165,0,0,0.0*
1,1,0.00394,0.00295,-0.03386*
1,1,0.00394,-0.00295,-0.03386*
1,1,0.00394,-0.00295,0.03386*
1,1,0.00394,0.00295,0.03386*
%
%ADD101ROUNDEDRECTD101*%
G04:AMPARAMS|DCode=102|XSize=88.19mil|YSize=25.98mil|CornerRadius=1.95mil|HoleSize=0mil|Usage=FLASHONLY|Rotation=0.000|XOffset=0mil|YOffset=0mil|HoleType=Round|Shape=RoundedRectangle|*
%AMROUNDEDRECTD102*
21,1,0.08819,0.02209,0,0,0.0*
21,1,0.08429,0.02598,0,0,0.0*
1,1,0.00390,0.04215,-0.01104*
1,1,0.00390,-0.04215,-0.01104*
1,1,0.00390,-0.04215,0.01104*
1,1,0.00390,0.04215,0.01104*
%
%ADD102ROUNDEDRECTD102*%
G04:AMPARAMS|DCode=103|XSize=23.62mil|YSize=15.75mil|CornerRadius=1.97mil|HoleSize=0mil|Usage=FLASHONLY|Rotation=180.000|XOffset=0mil|YOffset=0mil|HoleType=Round|Shape=RoundedRectangle|*
%AMROUNDEDRECTD103*
21,1,0.02362,0.01181,0,0,180.0*
21,1,0.01968,0.01575,0,0,180.0*
1,1,0.00394,-0.00984,0.00591*
1,1,0.00394,0.00984,0.00591*
1,1,0.00394,0.00984,-0.00591*
1,1,0.00394,-0.00984,-0.00591*
%
%ADD103ROUNDEDRECTD103*%
G04:AMPARAMS|DCode=104|XSize=23.62mil|YSize=9.84mil|CornerRadius=1.97mil|HoleSize=0mil|Usage=FLASHONLY|Rotation=180.000|XOffset=0mil|YOffset=0mil|HoleType=Round|Shape=RoundedRectangle|*
%AMROUNDEDRECTD104*
21,1,0.02362,0.00591,0,0,180.0*
21,1,0.01968,0.00984,0,0,180.0*
1,1,0.00394,-0.00984,0.00295*
1,1,0.00394,0.00984,0.00295*
1,1,0.00394,0.00984,-0.00295*
1,1,0.00394,-0.00984,-0.00295*
%
%ADD104ROUNDEDRECTD104*%
%ADD105O,0.00787X0.05512*%
%ADD106O,0.05512X0.00787*%
%ADD107R,0.04724X0.07874*%
%ADD108R,0.05512X0.04724*%
G04:AMPARAMS|DCode=109|XSize=64.96mil|YSize=94.49mil|CornerRadius=1.95mil|HoleSize=0mil|Usage=FLASHONLY|Rotation=270.000|XOffset=0mil|YOffset=0mil|HoleType=Round|Shape=RoundedRectangle|*
%AMROUNDEDRECTD109*
21,1,0.06496,0.09059,0,0,270.0*
21,1,0.06106,0.09449,0,0,270.0*
1,1,0.00390,-0.04530,-0.03053*
1,1,0.00390,-0.04530,0.03053*
1,1,0.00390,0.04530,0.03053*
1,1,0.00390,0.04530,-0.03053*
%
%ADD109ROUNDEDRECTD109*%
%ADD110R,0.07874X0.03543*%
G04:AMPARAMS|DCode=111|XSize=23.62mil|YSize=39.37mil|CornerRadius=2.01mil|HoleSize=0mil|Usage=FLASHONLY|Rotation=90.000|XOffset=0mil|YOffset=0mil|HoleType=Round|Shape=RoundedRectangle|*
%AMROUNDEDRECTD111*
21,1,0.02362,0.03535,0,0,90.0*
21,1,0.01961,0.03937,0,0,90.0*
1,1,0.00402,0.01768,0.00980*
1,1,0.00402,0.01768,-0.00980*
1,1,0.00402,-0.01768,-0.00980*
1,1,0.00402,-0.01768,0.00980*
%
%ADD111ROUNDEDRECTD111*%
%ADD112R,0.05905X0.07480*%
%ADD113R,0.01575X0.05315*%
%ADD114R,0.06299X0.04331*%
G04:AMPARAMS|DCode=115|XSize=39.37mil|YSize=49.21mil|CornerRadius=1.97mil|HoleSize=0mil|Usage=FLASHONLY|Rotation=0.000|XOffset=0mil|YOffset=0mil|HoleType=Round|Shape=RoundedRectangle|*
%AMROUNDEDRECTD115*
21,1,0.03937,0.04528,0,0,0.0*
21,1,0.03543,0.04921,0,0,0.0*
1,1,0.00394,0.01772,-0.02264*
1,1,0.00394,-0.01772,-0.02264*
1,1,0.00394,-0.01772,0.02264*
1,1,0.00394,0.01772,0.02264*
%
%ADD115ROUNDEDRECTD115*%
%ADD116R,0.05905X0.05118*%
G04:AMPARAMS|DCode=117|XSize=39.37mil|YSize=49.21mil|CornerRadius=1.97mil|HoleSize=0mil|Usage=FLASHONLY|Rotation=90.000|XOffset=0mil|YOffset=0mil|HoleType=Round|Shape=RoundedRectangle|*
%AMROUNDEDRECTD117*
21,1,0.03937,0.04528,0,0,90.0*
21,1,0.03543,0.04921,0,0,90.0*
1,1,0.00394,0.02264,0.01772*
1,1,0.00394,0.02264,-0.01772*
1,1,0.00394,-0.02264,-0.01772*
1,1,0.00394,-0.02264,0.01772*
%
%ADD117ROUNDEDRECTD117*%
%ADD118C,0.01700*%
%ADD119C,0.00840*%
%ADD120C,0.00984*%
%ADD121C,0.01140*%
%ADD122R,0.04724X0.07480*%
G36*
X146427Y129963D02*
Y123780D01*
X146434Y123709D01*
Y123096D01*
X146869Y122661D01*
X146913Y122608D01*
X148993Y120528D01*
X149042Y120487D01*
X149481Y120048D01*
X150104D01*
X150165Y120042D01*
X150226Y120048D01*
X151062D01*
X151655Y119455D01*
Y110500D01*
X150600D01*
Y118400D01*
X150410D01*
Y118596D01*
X147230D01*
Y118400D01*
X143597D01*
X142200Y119797D01*
Y122415D01*
X142277Y122669D01*
X142314Y123046D01*
X142277Y123422D01*
X142269Y123449D01*
Y127262D01*
Y130885D01*
X145506D01*
X146427Y129963D01*
D02*
G37*
G36*
X163415Y135097D02*
X163397Y134635D01*
X163331Y134469D01*
X163279Y134297D01*
X163279Y134297D01*
X163250Y134161D01*
X163239Y134099D01*
X160544Y131404D01*
Y129994D01*
X160537Y129923D01*
Y124530D01*
X159805D01*
X159154Y123879D01*
X158800Y123575D01*
X158659Y123544D01*
X158522Y123500D01*
X158522Y123500D01*
X158389Y123444D01*
X158389Y123444D01*
X158348Y123422D01*
X158262Y123377D01*
X158141Y123298D01*
X158027Y123210D01*
X157921Y123112D01*
X157824Y123005D01*
X157737Y122891D01*
X157660Y122769D01*
X157594Y122641D01*
X157540Y122507D01*
X157497Y122370D01*
X157470Y122245D01*
X157459Y122184D01*
X155855Y120580D01*
Y120551D01*
X155768Y120463D01*
Y118597D01*
X155676D01*
Y110500D01*
X154524D01*
Y118597D01*
X154432D01*
Y120359D01*
X154255Y120537D01*
Y120580D01*
X153177Y121658D01*
X152874Y122011D01*
X152840Y122151D01*
X152795Y122288D01*
X152795Y122288D01*
X152738Y122420D01*
X152738Y122420D01*
X152716Y122461D01*
X152669Y122547D01*
X152590Y122668D01*
X152500Y122781D01*
X152402Y122885D01*
X152294Y122981D01*
X152178Y123067D01*
X152056Y123143D01*
X151927Y123207D01*
X151793Y123261D01*
X151655Y123302D01*
X151562Y123322D01*
X151501Y123334D01*
X150555Y124280D01*
X149930D01*
X149743Y124467D01*
Y130650D01*
X149736Y130721D01*
Y131334D01*
X149302Y131768D01*
X149257Y131822D01*
X147011Y134069D01*
X147002Y134155D01*
X146962Y134288D01*
X146960Y134295D01*
X146950Y134326D01*
X146885Y134541D01*
X146695Y134897D01*
X146614Y134996D01*
X146605Y135008D01*
Y138350D01*
X163415D01*
Y135097D01*
D02*
G37*
G36*
X149405Y117665D02*
X149460Y117610D01*
X149490Y117538D01*
Y117499D01*
Y114644D01*
Y114605D01*
X149460Y114533D01*
X149405Y114477D01*
X149332Y114447D01*
X148270D01*
X148197Y114477D01*
X148142Y114533D01*
X148112Y114605D01*
Y114644D01*
Y117499D01*
Y117538D01*
X148142Y117610D01*
X148197Y117665D01*
X148270Y117695D01*
X149332D01*
X149405Y117665D01*
D02*
G37*
G36*
Y101622D02*
X149460Y101567D01*
X149490Y101494D01*
Y101455D01*
Y98601D01*
Y98562D01*
X149460Y98489D01*
X149405Y98434D01*
X149332Y98404D01*
X148270D01*
X148197Y98434D01*
X148142Y98489D01*
X148112Y98562D01*
Y98601D01*
Y101455D01*
Y101494D01*
X148142Y101567D01*
X148197Y101622D01*
X148270Y101652D01*
X149332D01*
X149405Y101622D01*
D02*
G37*
G36*
X200000Y191050D02*
Y181073D01*
X198577Y179650D01*
X178453Y179650D01*
X178356Y179748D01*
X178356Y184773D01*
X177906Y185222D01*
Y191056D01*
X179500Y192650D01*
X198400D01*
X200000Y191050D01*
D02*
G37*
G36*
X268652Y174936D02*
X268652Y151605D01*
X263869Y146821D01*
X256784Y146821D01*
X253965Y149641D01*
X242391Y149641D01*
X240500Y147750D01*
Y145350D01*
X239627Y144477D01*
X239538Y144450D01*
X238300D01*
X237800Y144950D01*
Y150550D01*
X238800Y151550D01*
X240100D01*
X243100Y154550D01*
Y156292D01*
X243558Y156750D01*
X245500D01*
Y153450D01*
X245800Y153150D01*
X256400D01*
X258200Y154950D01*
Y160750D01*
X259400Y161950D01*
X259400Y168368D01*
X257916Y169852D01*
X248712Y169852D01*
X244309Y165450D01*
X212082Y165450D01*
X212013Y165456D01*
X211950Y165473D01*
X211692Y165903D01*
X211692Y165904D01*
X211706Y166046D01*
X211713Y166090D01*
X211715Y166137D01*
X211729Y166280D01*
X211717Y166402D01*
X211717Y166425D01*
X211708Y166496D01*
X211692Y166656D01*
X211662Y166754D01*
X211662Y166756D01*
X211614Y166916D01*
X211613Y166919D01*
X211582Y167018D01*
X211507Y167159D01*
X211476Y167221D01*
X211463Y167242D01*
X211404Y167352D01*
X211314Y167462D01*
X211287Y167498D01*
X211256Y167533D01*
X211164Y167644D01*
X211069Y167722D01*
X211053Y167738D01*
X210996Y167782D01*
X210872Y167884D01*
X210781Y167932D01*
X210781Y167933D01*
X210633Y168012D01*
X210630Y168013D01*
X210538Y168062D01*
X210385Y168109D01*
X210319Y168131D01*
X210296Y168136D01*
X210176Y168172D01*
X210034Y168186D01*
X209990Y168193D01*
X209943Y168195D01*
X209800Y168209D01*
X209678Y168197D01*
X209655Y168196D01*
X209584Y168188D01*
X209424Y168172D01*
X209326Y168142D01*
X209324Y168142D01*
X209164Y168094D01*
X209161Y168093D01*
X209062Y168062D01*
X208921Y167987D01*
X208859Y167956D01*
X208838Y167943D01*
X208728Y167884D01*
X208618Y167794D01*
X208582Y167767D01*
X208547Y167736D01*
X208436Y167644D01*
X208358Y167549D01*
X208342Y167533D01*
X208298Y167476D01*
X208196Y167352D01*
X208148Y167261D01*
X208147Y167261D01*
X208068Y167113D01*
X208067Y167110D01*
X208018Y167018D01*
X207971Y166865D01*
X207949Y166799D01*
X207944Y166776D01*
X207908Y166656D01*
X207894Y166515D01*
X207887Y166470D01*
X207885Y166423D01*
X207871Y166280D01*
X207883Y166158D01*
X207884Y166135D01*
X207892Y166064D01*
X207908Y165904D01*
X207916Y165876D01*
X207917Y165820D01*
X207906Y165751D01*
X207882Y165685D01*
X207848Y165624D01*
X207804Y165570D01*
X207751Y165525D01*
X207691Y165489D01*
X207626Y165465D01*
X207558Y165452D01*
X177200Y165450D01*
X176100Y164350D01*
Y159176D01*
X173605D01*
Y159956D01*
X172987Y160574D01*
Y162062D01*
X171498D01*
X170924Y162636D01*
Y164922D01*
X170924Y173380D01*
X171466Y173921D01*
X176625Y173921D01*
X177202Y173345D01*
X177202Y171555D01*
X177816Y170940D01*
X198552Y170940D01*
X198842Y170440D01*
X198792Y170276D01*
X198755Y169899D01*
X198792Y169523D01*
X198902Y169161D01*
X199080Y168827D01*
X199320Y168535D01*
X199612Y168295D01*
X199946Y168117D01*
X200308Y168007D01*
X200684Y167970D01*
X201061Y168007D01*
X201423Y168117D01*
X201756Y168295D01*
X202048Y168535D01*
X202288Y168827D01*
X202424Y169081D01*
X202954Y169611D01*
X203179Y169885D01*
X203346Y170198D01*
X203449Y170537D01*
X203483Y170890D01*
Y171574D01*
X203567Y171849D01*
X203604Y172226D01*
X203580Y172470D01*
X204576Y173466D01*
X206275D01*
X206471Y173250D01*
X206508Y172874D01*
X206618Y172512D01*
X206796Y172178D01*
X207036Y171886D01*
X207328Y171646D01*
X207662Y171468D01*
X208024Y171358D01*
X208400Y171321D01*
X208776Y171358D01*
X209138Y171468D01*
X209472Y171646D01*
X209764Y171886D01*
X210004Y172178D01*
X210182Y172512D01*
X210292Y172874D01*
X210329Y173250D01*
X210525Y173466D01*
X217303D01*
X217519Y173259D01*
X217697Y172966D01*
X217671Y172702D01*
X217708Y172326D01*
X217818Y171964D01*
X217996Y171630D01*
X218236Y171338D01*
X218528Y171098D01*
X218862Y170920D01*
X219224Y170810D01*
X219600Y170773D01*
X219976Y170810D01*
X220338Y170920D01*
X220672Y171098D01*
X220964Y171338D01*
X221204Y171630D01*
X221382Y171964D01*
X221492Y172326D01*
X221529Y172702D01*
X221503Y172966D01*
X221681Y173259D01*
X221897Y173466D01*
X230643D01*
X235487Y178260D01*
X235824Y178158D01*
X236200Y178121D01*
X236576Y178158D01*
X236938Y178268D01*
X237272Y178446D01*
X237564Y178686D01*
X237584Y178710D01*
X264873Y178715D01*
X268652Y174936D01*
D02*
G37*
G36*
X166345Y183475D02*
X166110Y183190D01*
X165932Y182856D01*
X165822Y182494D01*
X165785Y182118D01*
X165822Y181741D01*
X165932Y181380D01*
X166110Y181046D01*
X166350Y180754D01*
X166643Y180514D01*
X166976Y180335D01*
X167338Y180226D01*
X167715Y180189D01*
X168091Y180226D01*
X168453Y180335D01*
X168656Y180444D01*
X169028Y180290D01*
X169156Y180171D01*
X169156Y174535D01*
X169156Y163514D01*
X168656Y163388D01*
X168651Y163398D01*
X168411Y163690D01*
X168119Y163930D01*
X167785Y164108D01*
X167423Y164218D01*
X167047Y164255D01*
X166671Y164218D01*
X166309Y164108D01*
X165975Y163930D01*
X165683Y163690D01*
X165443Y163398D01*
X165265Y163064D01*
X165155Y162702D01*
X165118Y162326D01*
X165155Y161950D01*
X165238Y161674D01*
Y158536D01*
X161029D01*
Y158461D01*
X155855D01*
X155505Y158919D01*
X155501Y158961D01*
X155535Y159305D01*
X155498Y159681D01*
X155388Y160043D01*
X155210Y160377D01*
X154970Y160669D01*
X154678Y160909D01*
X154344Y161087D01*
X153982Y161197D01*
X153606Y161234D01*
X153230Y161197D01*
X152954Y161113D01*
X152359D01*
X152327Y161351D01*
X152217Y161618D01*
X152041Y161847D01*
X151812Y162023D01*
X151545Y162133D01*
X151259Y162171D01*
X149068D01*
X148369Y162954D01*
X148380Y163067D01*
X148343Y163443D01*
X148233Y163805D01*
X148055Y164139D01*
X147815Y164431D01*
X147523Y164671D01*
X147189Y164849D01*
X146827Y164959D01*
X146451Y164996D01*
X146075Y164959D01*
X145713Y164849D01*
X145379Y164671D01*
X145353Y164650D01*
X144576D01*
X144460Y164930D01*
X144250Y165272D01*
X143990Y165578D01*
X143684Y165838D01*
X143342Y166048D01*
X142971Y166202D01*
X142581Y166295D01*
X142181Y166327D01*
X141781Y166295D01*
X141391Y166202D01*
X141020Y166048D01*
X140677Y165838D01*
X140372Y165578D01*
X140112Y165272D01*
X139902Y164930D01*
X139786Y164650D01*
X139140D01*
X139120Y164852D01*
X139003Y165238D01*
X138813Y165594D01*
X138557Y165907D01*
X138244Y166163D01*
X137888Y166353D01*
X137502Y166470D01*
X137100Y166510D01*
X136698Y166470D01*
X136312Y166353D01*
X135956Y166163D01*
X135643Y165907D01*
X134424Y164688D01*
X134168Y164375D01*
X133978Y164019D01*
X133861Y163633D01*
X133821Y163231D01*
Y162641D01*
X133013D01*
Y157101D01*
X133412D01*
Y155675D01*
X132851D01*
Y150135D01*
X134216D01*
X134221Y139611D01*
X133721Y139112D01*
X133496Y138838D01*
X133329Y138525D01*
X133226Y138186D01*
X133191Y137833D01*
Y131200D01*
X133226Y130847D01*
X133329Y130508D01*
X133496Y130195D01*
X133721Y129921D01*
X134226Y129416D01*
X134226Y128143D01*
X134075Y128019D01*
X133835Y127726D01*
X133657Y127393D01*
X133547Y127031D01*
X133510Y126655D01*
X133547Y126278D01*
X133657Y125916D01*
X133835Y125583D01*
X133894Y125511D01*
Y122083D01*
Y118146D01*
X134231D01*
X134232Y116762D01*
X134221Y116650D01*
X134232Y116537D01*
X134233Y113591D01*
X133733Y113435D01*
X133595Y113603D01*
X133303Y113843D01*
X132969Y114021D01*
X132608Y114131D01*
X132231Y114168D01*
X131855Y114131D01*
X131493Y114021D01*
X131159Y113843D01*
X130867Y113603D01*
X130627Y113311D01*
X130449Y112977D01*
X130339Y112615D01*
X130302Y112239D01*
X130339Y111863D01*
X130449Y111501D01*
X130627Y111167D01*
X130867Y110875D01*
X131159Y110635D01*
X131493Y110457D01*
X131855Y110347D01*
X132231Y110310D01*
X132608Y110347D01*
X132679Y110368D01*
X133256Y109791D01*
X133465Y109631D01*
X133708Y109530D01*
X133773Y109522D01*
Y108581D01*
X133701Y108497D01*
X133273Y108295D01*
X133112Y108381D01*
X132750Y108491D01*
X132373Y108528D01*
X131997Y108491D01*
X131635Y108381D01*
X131301Y108203D01*
X131009Y107963D01*
X130769Y107671D01*
X130591Y107337D01*
X130481Y106975D01*
X130444Y106599D01*
X130481Y106222D01*
X130591Y105861D01*
X130769Y105527D01*
X131009Y105235D01*
X131301Y104995D01*
X131635Y104816D01*
X131997Y104707D01*
X132373Y104670D01*
X132750Y104707D01*
X133112Y104816D01*
X133287Y104910D01*
X133737Y104940D01*
X133913Y104916D01*
X134237Y104855D01*
X134238Y103826D01*
X135573D01*
X137448Y101950D01*
X137361Y101663D01*
X137324Y101286D01*
X137361Y100910D01*
X137471Y100548D01*
X137649Y100214D01*
X137889Y99922D01*
X138092Y99756D01*
Y98023D01*
X136091Y96021D01*
Y93709D01*
X135924Y93692D01*
X135562Y93582D01*
X135228Y93404D01*
X134936Y93164D01*
X134696Y92872D01*
X134518Y92538D01*
X134408Y92176D01*
X134371Y91800D01*
X134408Y91424D01*
X134518Y91062D01*
X134581Y90943D01*
Y88625D01*
X134606Y88372D01*
Y86622D01*
Y82685D01*
X134681D01*
Y82117D01*
X134716Y81764D01*
X134819Y81425D01*
X134986Y81112D01*
X135211Y80838D01*
X135318Y80731D01*
Y77642D01*
X136091D01*
Y77640D01*
X142797Y77640D01*
X145013Y75424D01*
X145017Y75386D01*
X145103Y75103D01*
X145242Y74843D01*
X145429Y74614D01*
X145658Y74427D01*
X145918Y74287D01*
X146201Y74202D01*
X146239Y74198D01*
X153706Y66731D01*
X153706Y62724D01*
X153177Y62195D01*
X139235Y62190D01*
X138912Y62690D01*
X138935Y62915D01*
X138898Y63292D01*
X138788Y63653D01*
X138609Y63987D01*
X138370Y64279D01*
X138077Y64519D01*
X137744Y64698D01*
X137382Y64807D01*
X137005Y64845D01*
X136629Y64807D01*
X136560Y64787D01*
X135773Y65574D01*
X135564Y65734D01*
X135488Y65766D01*
X135225Y66260D01*
X135225Y66352D01*
X135322Y66673D01*
X135359Y67049D01*
X135322Y67425D01*
X135212Y67787D01*
X135034Y68121D01*
X134794Y68413D01*
X134502Y68653D01*
X134168Y68831D01*
X133806Y68941D01*
X133430Y68978D01*
X133053Y68941D01*
X132691Y68831D01*
X132358Y68653D01*
X132065Y68413D01*
X131825Y68121D01*
X131647Y67787D01*
X131537Y67425D01*
X131500Y67049D01*
X131537Y66673D01*
X131568Y66573D01*
X131257Y66095D01*
X130892Y66073D01*
X123515Y73450D01*
Y106806D01*
X124140Y107432D01*
X124301Y107641D01*
X124401Y107884D01*
X124436Y108145D01*
Y118221D01*
X124929Y118463D01*
X125262Y118285D01*
X125624Y118175D01*
X126001Y118138D01*
X126377Y118175D01*
X126739Y118285D01*
X127073Y118463D01*
X127365Y118703D01*
X127605Y118995D01*
X127783Y119329D01*
X127893Y119691D01*
X127930Y120067D01*
X127893Y120443D01*
X127783Y120805D01*
X127605Y121139D01*
X127365Y121431D01*
X127073Y121671D01*
X126739Y121850D01*
X126377Y121959D01*
X126001Y121996D01*
X125624Y121959D01*
X125262Y121850D01*
X124929Y121671D01*
X124436Y121914D01*
Y123694D01*
X124936Y123998D01*
X125071Y123957D01*
X125447Y123920D01*
X125823Y123957D01*
X126185Y124067D01*
X126519Y124245D01*
X126811Y124485D01*
X127051Y124777D01*
X127229Y125111D01*
X127339Y125473D01*
X127376Y125849D01*
X127339Y126226D01*
X127229Y126588D01*
X127051Y126921D01*
X126811Y127214D01*
X126519Y127453D01*
X126185Y127632D01*
X125823Y127742D01*
X125447Y127779D01*
X125071Y127742D01*
X124709Y127632D01*
X124375Y127453D01*
X124083Y127214D01*
X123994Y127105D01*
X123386Y127006D01*
X122989Y127403D01*
Y136291D01*
X122955Y136552D01*
X122854Y136795D01*
X122694Y137004D01*
X120603Y139094D01*
Y160047D01*
X120569Y160308D01*
X120468Y160552D01*
X120308Y160761D01*
X119858Y161210D01*
Y164761D01*
X119954Y164878D01*
X120132Y165212D01*
X120242Y165574D01*
X120279Y165950D01*
X120242Y166326D01*
X120132Y166688D01*
X119954Y167022D01*
X119858Y167139D01*
Y171756D01*
X124152Y176050D01*
X143069Y176050D01*
X145640Y178621D01*
X151663D01*
X151667Y178581D01*
X151777Y178219D01*
X151955Y177885D01*
X152196Y177593D01*
X152488Y177353D01*
X152821Y177175D01*
X153183Y177065D01*
X153560Y177028D01*
X153936Y177065D01*
X154298Y177175D01*
X154632Y177353D01*
X154924Y177593D01*
X155164Y177885D01*
X155342Y178219D01*
X155452Y178581D01*
X155489Y178957D01*
X155452Y179333D01*
X155342Y179695D01*
X155164Y180029D01*
X154924Y180321D01*
X154632Y180561D01*
X154298Y180739D01*
X153936Y180849D01*
X153590Y180883D01*
Y183501D01*
X153685Y183596D01*
X157583Y183596D01*
X158542Y184555D01*
Y185188D01*
X158771Y185376D01*
X159011Y185669D01*
X159190Y186002D01*
X159299Y186364D01*
X159327Y186640D01*
X163180Y186640D01*
X166345Y183475D01*
D02*
G37*
G36*
X154000Y152960D02*
X154000Y145650D01*
X148404Y140054D01*
X136825Y140054D01*
Y146925D01*
X139657Y149757D01*
X139657Y154900D01*
X146222Y154900D01*
X152060D01*
X154000Y152960D01*
D02*
G37*
G36*
X252700Y147627D02*
Y143350D01*
X245300D01*
X245000Y143050D01*
X242400D01*
Y146550D01*
X243498Y147648D01*
X252678D01*
X252700Y147627D01*
D02*
G37*
G36*
X179859Y155110D02*
X180074Y154933D01*
X180087Y154923D01*
D01*
X180087Y154923D01*
X180260Y154830D01*
X180348Y154783D01*
X180348Y154783D01*
X180348Y154783D01*
X180452Y154752D01*
X180630Y154698D01*
X180630D01*
X180630Y154698D01*
X180690Y154692D01*
X180924Y154669D01*
X181813D01*
X183575Y152907D01*
Y145317D01*
X182915Y144658D01*
X176736D01*
X174643Y146751D01*
X174643Y153780D01*
X175219Y154357D01*
X175625Y154768D01*
X176900D01*
Y156061D01*
X177065Y156229D01*
X178740Y156229D01*
X179859Y155110D01*
D02*
G37*
G36*
X247000Y140850D02*
X258800D01*
Y135352D01*
X248122D01*
X245902Y137572D01*
Y137972D01*
X244122Y139752D01*
X240509D01*
X240302Y140252D01*
X240952Y140902D01*
X241075D01*
X241428Y140937D01*
X241767Y141040D01*
X242080Y141207D01*
X242354Y141432D01*
X242465Y141543D01*
X245000D01*
X245053Y141548D01*
X245622D01*
X245707Y141634D01*
X246216Y141634D01*
X247000Y140850D01*
D02*
G37*
G36*
X265300Y118550D02*
X262000Y115250D01*
X244100D01*
X243700Y115650D01*
Y120050D01*
X244300Y120650D01*
X258900D01*
X260900Y122650D01*
Y126450D01*
X265300D01*
Y118550D01*
D02*
G37*
G36*
X171068Y121493D02*
X167975Y118400D01*
X162970D01*
Y118596D01*
X160276D01*
X159600Y117920D01*
Y110500D01*
X158500D01*
Y113300D01*
X158505Y119519D01*
X159284Y120298D01*
X160544D01*
X160605Y120292D01*
X160666Y120298D01*
X161289D01*
X161728Y120737D01*
X161777Y120778D01*
X163367Y122368D01*
X163411Y122421D01*
X163846Y122856D01*
Y123469D01*
X163853Y123540D01*
Y129236D01*
X164184Y129568D01*
X164568Y129824D01*
Y129824D01*
X164568Y129824D01*
X171068D01*
Y121493D01*
D02*
G37*
G36*
X170352Y152293D02*
X170352Y145686D01*
X172922Y143117D01*
X179528Y143117D01*
X185666Y136979D01*
Y125006D01*
X183298Y122638D01*
X182285D01*
Y122031D01*
X181785Y121679D01*
X181742Y121692D01*
X181365Y121729D01*
X180989Y121692D01*
X180627Y121582D01*
X180294Y121404D01*
X180001Y121164D01*
X179761Y120872D01*
X179583Y120538D01*
X179473Y120176D01*
X179436Y119800D01*
X179427Y119790D01*
X175681D01*
X175420Y119756D01*
X175177Y119655D01*
X174968Y119494D01*
X170814Y115341D01*
X166882D01*
X166621Y115306D01*
X166378Y115206D01*
X166169Y115045D01*
X166009Y114837D01*
X165908Y114593D01*
X165876Y114353D01*
X164193D01*
X163774Y113934D01*
X163747Y113945D01*
X163565Y113969D01*
X161596D01*
X161194Y114242D01*
X161107Y114359D01*
Y114447D01*
X160868D01*
X160796Y114477D01*
X160740Y114533D01*
X160711Y114605D01*
Y114644D01*
Y117499D01*
Y117538D01*
X160740Y117610D01*
X160796Y117665D01*
X160868Y117695D01*
X161931D01*
X162003Y117665D01*
X162058Y117610D01*
X162089Y117538D01*
Y117499D01*
Y117089D01*
X162241D01*
X162393Y117008D01*
X162676Y116922D01*
X162970Y116893D01*
X167975D01*
X168269Y116922D01*
X168552Y117008D01*
X168812Y117147D01*
X169041Y117334D01*
X172134Y120427D01*
X172321Y120656D01*
X172460Y120916D01*
X172546Y121199D01*
X172575Y121493D01*
Y122715D01*
X175364D01*
Y122715D01*
X175864Y123070D01*
X175887Y123067D01*
X176264Y123104D01*
X176626Y123214D01*
X176959Y123392D01*
X177252Y123632D01*
X177491Y123925D01*
X177670Y124258D01*
X177779Y124620D01*
X177817Y124996D01*
X177779Y125373D01*
X177670Y125735D01*
X177491Y126068D01*
X177252Y126361D01*
X176959Y126601D01*
X176626Y126779D01*
X176264Y126889D01*
X175887Y126926D01*
X175864Y126924D01*
X175364Y127334D01*
Y130815D01*
X175289D01*
Y130823D01*
X175254Y131176D01*
X175151Y131515D01*
X175007Y131785D01*
Y135855D01*
X173684Y137179D01*
X164922Y137179D01*
Y138350D01*
X164893Y138644D01*
X164807Y138927D01*
X164668Y139187D01*
X164481Y139416D01*
X164252Y139603D01*
X163992Y139743D01*
X163709Y139828D01*
X163415Y139857D01*
X159810D01*
X155342Y144325D01*
Y144979D01*
X155393Y145073D01*
X155478Y145356D01*
X155507Y145650D01*
X155507Y151285D01*
X156948Y152727D01*
X169919D01*
X170352Y152293D01*
D02*
G37*
G36*
X57700Y59100D02*
Y56100D01*
X56000Y54400D01*
Y53344D01*
X55991Y53250D01*
X56000Y53156D01*
Y52400D01*
X58400Y50000D01*
Y46700D01*
X58100Y46400D01*
X44600D01*
X41500Y49500D01*
Y59200D01*
X42000Y59700D01*
X57100D01*
X57700Y59100D01*
D02*
G37*
G36*
X238449Y198469D02*
X241312Y195606D01*
X244016D01*
X244279Y195106D01*
X244214Y194984D01*
X244104Y194622D01*
X244067Y194246D01*
X244104Y193869D01*
X244214Y193507D01*
X244392Y193174D01*
X244632Y192882D01*
X244924Y192642D01*
X245258Y192463D01*
X245620Y192353D01*
X245996Y192316D01*
X246373Y192353D01*
X246735Y192463D01*
X247068Y192642D01*
X247360Y192882D01*
X247601Y193174D01*
X247779Y193507D01*
X247888Y193869D01*
X247897Y193957D01*
X248400D01*
X248408Y193874D01*
X248518Y193512D01*
X248696Y193178D01*
X248936Y192886D01*
X249228Y192646D01*
X249562Y192468D01*
X249924Y192358D01*
X250300Y192321D01*
X250676Y192358D01*
X251038Y192468D01*
X251372Y192646D01*
X251664Y192886D01*
X251904Y193178D01*
X252082Y193512D01*
X252192Y193874D01*
X252229Y194250D01*
X252192Y194626D01*
X252082Y194988D01*
X252020Y195106D01*
X252286Y195606D01*
X274001Y195606D01*
X280234Y189373D01*
X280234Y139703D01*
X269420Y128888D01*
X247901Y128888D01*
Y128908D01*
X243739D01*
Y128888D01*
X242873D01*
X237670Y134091D01*
X237670Y136721D01*
X239013Y138063D01*
X239762D01*
X240031Y138090D01*
X240122Y138118D01*
X240146Y138120D01*
X240404Y138198D01*
X240494Y138246D01*
X240509Y138245D01*
X241446D01*
Y137821D01*
X243921D01*
X244400Y137342D01*
Y136950D01*
X244801Y136548D01*
X244836Y136506D01*
X245765Y135577D01*
Y134740D01*
X246602D01*
X247056Y134286D01*
X247098Y134251D01*
X247500Y133850D01*
X248069D01*
X248122Y133845D01*
X253319D01*
X253698Y133730D01*
X254100Y133690D01*
X254502Y133730D01*
X254881Y133845D01*
X258800D01*
X258847Y133849D01*
X258859D01*
X258861Y133851D01*
X259094Y133874D01*
X259377Y133959D01*
X259637Y134099D01*
X259866Y134286D01*
X260053Y134515D01*
X260192Y134775D01*
X260278Y135058D01*
X260301Y135291D01*
X271281Y146271D01*
X271281Y174927D01*
X266087Y180121D01*
X265404D01*
X265166Y180193D01*
X265166Y180193D01*
X265166Y180193D01*
X265076Y180202D01*
X264872Y180222D01*
X245893Y180219D01*
X245616Y180719D01*
X245673Y180907D01*
X245710Y181283D01*
X245673Y181660D01*
X245563Y182022D01*
X245385Y182355D01*
X245145Y182648D01*
X244853Y182887D01*
X244519Y183066D01*
X244157Y183176D01*
X243781Y183213D01*
X243404Y183176D01*
X243042Y183066D01*
X242709Y182887D01*
X242417Y182648D01*
X242177Y182355D01*
X241998Y182022D01*
X241889Y181660D01*
X241851Y181283D01*
X241889Y180907D01*
X241946Y180718D01*
X241669Y180218D01*
X238113Y180218D01*
X238092Y180426D01*
X237982Y180788D01*
X237804Y181122D01*
X237564Y181414D01*
X237272Y181654D01*
X236938Y181832D01*
X236576Y181942D01*
X236200Y181979D01*
X235824Y181942D01*
X235462Y181832D01*
X235128Y181654D01*
X234836Y181414D01*
X234596Y181122D01*
X234418Y180788D01*
X234308Y180426D01*
X234271Y180050D01*
X234308Y179674D01*
X234415Y179320D01*
X230023Y174973D01*
X221897D01*
X221766Y174960D01*
X221636Y174950D01*
X221620Y174946D01*
X221603Y174944D01*
X221478Y174906D01*
X221351Y174871D01*
X221336Y174863D01*
X221320Y174858D01*
X221205Y174797D01*
X221088Y174737D01*
X221074Y174727D01*
X221060Y174719D01*
X220958Y174636D01*
X220855Y174555D01*
X220638Y174348D01*
X220625Y174331D01*
X220338Y174484D01*
X219976Y174594D01*
X219600Y174631D01*
X219224Y174594D01*
X218862Y174484D01*
X218575Y174331D01*
X218562Y174348D01*
X218345Y174555D01*
X218242Y174636D01*
X218140Y174719D01*
X218126Y174727D01*
X218112Y174737D01*
X217995Y174796D01*
X217880Y174858D01*
X217864Y174863D01*
X217849Y174871D01*
X217723Y174906D01*
X217597Y174944D01*
X217580Y174946D01*
X217564Y174950D01*
X217434Y174960D01*
X217303Y174973D01*
X210525D01*
X210488Y174969D01*
X210451Y174971D01*
X210341Y174955D01*
X210231Y174944D01*
X210195Y174933D01*
X210159Y174928D01*
X210054Y174891D01*
X209948Y174858D01*
X209915Y174841D01*
X209880Y174828D01*
X209785Y174771D01*
X209688Y174719D01*
X209662Y174698D01*
X209472Y174854D01*
X209138Y175032D01*
X208776Y175142D01*
X208400Y175179D01*
X208024Y175142D01*
X207662Y175032D01*
X207328Y174854D01*
X207138Y174698D01*
X207112Y174719D01*
X207015Y174771D01*
X206920Y174828D01*
X206885Y174841D01*
X206852Y174858D01*
X206746Y174891D01*
X206641Y174928D01*
X206605Y174933D01*
X206569Y174944D01*
X206459Y174955D01*
X206349Y174971D01*
X206312Y174969D01*
X206275Y174973D01*
X204576D01*
X204282Y174944D01*
X203999Y174858D01*
X203738Y174719D01*
X203510Y174532D01*
X202780Y173802D01*
X202747Y173830D01*
X202413Y174008D01*
X202051Y174118D01*
X201675Y174155D01*
X201298Y174118D01*
X200936Y174008D01*
X200603Y173830D01*
X200310Y173590D01*
X200237Y173501D01*
X199978D01*
X198884Y172407D01*
X198846Y172418D01*
X198747Y172428D01*
X198649Y172444D01*
X198600Y172442D01*
X198552Y172447D01*
X179062Y172447D01*
X178709Y172801D01*
Y173345D01*
X178680Y173639D01*
X178680Y173639D01*
X178594Y173922D01*
X178455Y174182D01*
X178268Y174411D01*
X177691Y174987D01*
X177463Y175175D01*
X177463Y175175D01*
X177202Y175314D01*
X177079Y175351D01*
X176919Y175400D01*
X176625Y175429D01*
X171466Y175429D01*
X171401Y175422D01*
X170812Y176011D01*
Y184884D01*
X174005Y188077D01*
X174005Y193913D01*
X176405D01*
Y191120D01*
X176399Y191056D01*
Y185222D01*
X176399Y185221D01*
X176399Y185221D01*
X176405Y185158D01*
Y184600D01*
X176801Y184204D01*
X176840Y184156D01*
X176841Y184156D01*
X176841Y184155D01*
X176848Y184148D01*
X176848Y179748D01*
X176863Y179603D01*
X176876Y179459D01*
X176877Y179457D01*
X176877Y179454D01*
X176900Y179379D01*
Y179200D01*
X177003Y179097D01*
X177032Y179043D01*
X177100Y178915D01*
X177101Y178913D01*
X177102Y178911D01*
X177194Y178799D01*
X177287Y178686D01*
X177384Y178587D01*
X177386Y178586D01*
X177387Y178584D01*
X177499Y178493D01*
X177612Y178399D01*
X177614Y178398D01*
X177616Y178397D01*
X177745Y178328D01*
X177804Y178296D01*
X177900Y178200D01*
X178066D01*
X178155Y178173D01*
X178157Y178172D01*
X178159Y178172D01*
X178305Y178157D01*
X178449Y178143D01*
X178451Y178143D01*
X178453Y178143D01*
X198577Y178143D01*
X198871Y178172D01*
X198964Y178200D01*
X199250D01*
X199595Y178545D01*
X199643Y178584D01*
X201066Y180007D01*
X201105Y180055D01*
X205233Y184183D01*
X205297Y184210D01*
X205875Y184160D01*
X205936Y184086D01*
X206228Y183846D01*
X206562Y183668D01*
X206924Y183558D01*
X207300Y183521D01*
X207676Y183558D01*
X208038Y183668D01*
X208372Y183846D01*
X208664Y184086D01*
X208904Y184378D01*
X209082Y184712D01*
X209192Y185074D01*
X209229Y185450D01*
X209192Y185826D01*
X209082Y186188D01*
X208904Y186522D01*
X208664Y186814D01*
X208613Y186856D01*
X208537Y187487D01*
X209994Y188944D01*
X211548D01*
X211971Y188448D01*
X212008Y188072D01*
X212118Y187710D01*
X212296Y187376D01*
X212536Y187084D01*
X212828Y186844D01*
X213162Y186666D01*
X213524Y186556D01*
X213900Y186519D01*
X214276Y186556D01*
X214638Y186666D01*
X214972Y186844D01*
X215264Y187084D01*
X215504Y187376D01*
X215682Y187710D01*
X215792Y188072D01*
X215829Y188448D01*
X216252Y188944D01*
X222143Y188944D01*
X223105Y189906D01*
X223567Y189715D01*
Y187572D01*
X223504Y187538D01*
X223212Y187298D01*
X222972Y187006D01*
X222793Y186672D01*
X222684Y186310D01*
X222646Y185934D01*
X222684Y185557D01*
X222793Y185196D01*
X222972Y184862D01*
X223212Y184570D01*
X223504Y184330D01*
X223837Y184151D01*
X224199Y184042D01*
X224576Y184004D01*
X224952Y184042D01*
X225314Y184151D01*
X225648Y184330D01*
X225940Y184570D01*
X226180Y184862D01*
X226358Y185196D01*
X226468Y185557D01*
X226505Y185934D01*
X226468Y186310D01*
X226358Y186672D01*
X226180Y187006D01*
X225940Y187298D01*
X225648Y187538D01*
X225584Y187572D01*
Y195596D01*
X228457Y198469D01*
X238449Y198469D01*
D02*
G37*
G36*
X166508Y102416D02*
X168037Y100887D01*
X168246Y100726D01*
X168489Y100626D01*
X168750Y100591D01*
X172132D01*
X172537Y100187D01*
X172746Y100027D01*
X172989Y99926D01*
X173250Y99891D01*
X174911D01*
X175226Y99562D01*
X175299Y99391D01*
X175271Y99100D01*
X175308Y98724D01*
X175418Y98362D01*
X175596Y98028D01*
X175836Y97736D01*
X176128Y97496D01*
X176462Y97318D01*
X176824Y97208D01*
X177200Y97171D01*
X177576Y97208D01*
X177938Y97318D01*
X178272Y97496D01*
X178564Y97736D01*
X178804Y98028D01*
X178885Y98180D01*
X179168Y98297D01*
X179336Y98324D01*
X179489Y98308D01*
X179595Y98226D01*
X179838Y98126D01*
X180099Y98091D01*
X181490D01*
Y96165D01*
X183679D01*
X184482Y95363D01*
X184471Y95250D01*
X184508Y94874D01*
X184618Y94512D01*
X184796Y94178D01*
X185036Y93886D01*
X185328Y93646D01*
X185485Y93562D01*
Y64585D01*
X180240Y59340D01*
X156000D01*
X156000Y71803D01*
X158370Y74173D01*
X163155D01*
X163449Y74202D01*
X163732Y74287D01*
X163992Y74427D01*
X164221Y74614D01*
X164264Y74667D01*
X170075Y74680D01*
X173038Y77642D01*
X174192D01*
Y78797D01*
X175252Y79857D01*
Y81555D01*
X175334Y81825D01*
X175369Y82178D01*
Y82485D01*
X175444D01*
Y86137D01*
X175447Y86147D01*
X175850Y86550D01*
X175927Y86574D01*
X176304Y86611D01*
X176666Y86721D01*
X176999Y86899D01*
X177292Y87139D01*
X177532Y87432D01*
X177710Y87765D01*
X177820Y88127D01*
X177857Y88503D01*
X177820Y88880D01*
X177710Y89242D01*
X177532Y89575D01*
X177292Y89868D01*
X176999Y90108D01*
X176666Y90286D01*
X176304Y90396D01*
X175927Y90433D01*
X175444Y90585D01*
Y90585D01*
X173424D01*
X172619Y91389D01*
Y93338D01*
X172590Y93632D01*
X172504Y93915D01*
X172365Y94175D01*
X172178Y94404D01*
X168716Y97866D01*
X168487Y98053D01*
X168227Y98193D01*
X167944Y98278D01*
X167650Y98307D01*
X161107D01*
Y98404D01*
X160868D01*
X160796Y98434D01*
X160740Y98489D01*
X160711Y98562D01*
Y98601D01*
Y101455D01*
Y101494D01*
X160740Y101567D01*
X160796Y101622D01*
X160868Y101652D01*
X161107D01*
Y101740D01*
X161194Y101857D01*
X161596Y102130D01*
X163565D01*
X163747Y102154D01*
X163916Y102225D01*
X164062Y102336D01*
X164128Y102423D01*
X166502D01*
X166508Y102416D01*
D02*
G37*
G36*
X304150Y233150D02*
Y231894D01*
X304144Y231824D01*
X304126Y231757D01*
X304096Y231694D01*
X304056Y231637D01*
X304007Y231588D01*
X303950Y231548D01*
X303887Y231518D01*
X303819Y231500D01*
X303750Y231494D01*
X303680Y231500D01*
X303613Y231518D01*
X303550Y231548D01*
X303501Y231581D01*
X302818Y232080D01*
X302093Y232517D01*
X301333Y232889D01*
X300543Y233193D01*
X299730Y233428D01*
X298900Y233590D01*
X298059Y233680D01*
X297213Y233696D01*
X296369Y233638D01*
X295533Y233507D01*
X294711Y233304D01*
X293911Y233030D01*
X293138Y232686D01*
X292397Y232277D01*
X291695Y231805D01*
X291036Y231274D01*
X290427Y230687D01*
X289871Y230049D01*
X289372Y229365D01*
X288935Y228641D01*
X288563Y227881D01*
X288259Y227092D01*
X288024Y226278D01*
X287862Y225448D01*
X287772Y224607D01*
X287756Y223761D01*
X287814Y222917D01*
X287945Y222081D01*
X288148Y221259D01*
X288422Y220459D01*
X288766Y219686D01*
X289175Y218945D01*
X289647Y218243D01*
X290178Y217584D01*
X290765Y216975D01*
X291403Y216419D01*
X292087Y215920D01*
X292811Y215483D01*
X293571Y215111D01*
X294360Y214807D01*
X295174Y214572D01*
X296004Y214410D01*
X296845Y214320D01*
X297691Y214304D01*
X298535Y214362D01*
X299371Y214493D01*
X300192Y214696D01*
X300993Y214970D01*
X301766Y215314D01*
X302507Y215723D01*
X303209Y216195D01*
X303868Y216726D01*
X304053Y216894D01*
X304108Y216937D01*
X304170Y216969D01*
X304236Y216991D01*
X304305Y217001D01*
X304375Y216998D01*
X304443Y216983D01*
X304507Y216957D01*
X304566Y216920D01*
X304618Y216873D01*
X304661Y216818D01*
X304694Y216757D01*
X304715Y216690D01*
X304725Y216621D01*
X304725Y7399D01*
X304719Y7329D01*
X304701Y7262D01*
X304671Y7199D01*
X304631Y7142D01*
X304582Y7093D01*
X304525Y7053D01*
X304462Y7023D01*
X304395Y7005D01*
X304325Y6999D01*
X304256Y7005D01*
X304188Y7023D01*
X304125Y7053D01*
X304068Y7093D01*
X303408Y7654D01*
X302719Y8144D01*
X301989Y8573D01*
X301224Y8936D01*
X300431Y9230D01*
X299615Y9455D01*
X298783Y9608D01*
X297940Y9688D01*
X297094Y9693D01*
X296251Y9626D01*
X295416Y9484D01*
X294598Y9271D01*
X293800Y8987D01*
X293031Y8635D01*
X292295Y8217D01*
X291599Y7736D01*
X290947Y7197D01*
X290344Y6603D01*
X289796Y5958D01*
X289306Y5269D01*
X288877Y4539D01*
X288514Y3774D01*
X288219Y2981D01*
X287995Y2165D01*
X287842Y1333D01*
X287762Y490D01*
X287756Y-356D01*
X287824Y-1199D01*
X287965Y-2034D01*
X288179Y-2852D01*
X288463Y-3650D01*
X288815Y-4419D01*
X289233Y-5155D01*
X289714Y-5851D01*
X290253Y-6503D01*
X290847Y-7106D01*
X291492Y-7654D01*
X292181Y-8144D01*
X292911Y-8573D01*
X293676Y-8936D01*
X294469Y-9230D01*
X295285Y-9455D01*
X296117Y-9608D01*
X296959Y-9688D01*
X297806Y-9693D01*
X298649Y-9626D01*
X299483Y-9484D01*
X300302Y-9271D01*
X301100Y-8987D01*
X301869Y-8635D01*
X302605Y-8217D01*
X303301Y-7736D01*
X303532Y-7557D01*
X303590Y-7518D01*
X303653Y-7490D01*
X303721Y-7473D01*
X303791Y-7468D01*
X303860Y-7475D01*
X303927Y-7495D01*
X303990Y-7525D01*
X304046Y-7566D01*
X304094Y-7617D01*
X304133Y-7675D01*
X304161Y-7738D01*
X304178Y-7806D01*
X304183Y-7868D01*
Y-10242D01*
X301425Y-13000D01*
X287100D01*
Y-13145D01*
X233050D01*
X233048Y-13148D01*
X231895D01*
Y-13000D01*
X219200D01*
Y-1942D01*
X223362D01*
Y2100D01*
X223124D01*
Y2239D01*
X219356D01*
X219200Y2674D01*
Y14450D01*
X201157D01*
Y15555D01*
X205334Y19732D01*
X208770D01*
Y19928D01*
X208872D01*
Y25272D01*
X208770D01*
Y25469D01*
X204424D01*
Y26031D01*
X208770D01*
Y26228D01*
X208872D01*
Y31572D01*
X208770D01*
Y31768D01*
X207802D01*
Y32146D01*
X206291Y33657D01*
X205484Y34463D01*
X205443Y34597D01*
X205265Y34931D01*
X205025Y35223D01*
X204733Y35463D01*
X204399Y35641D01*
X204263Y35683D01*
X203660Y36285D01*
X203782Y36514D01*
X203892Y36875D01*
X203929Y37252D01*
X203892Y37628D01*
X203782Y37990D01*
X203604Y38324D01*
X203364Y38616D01*
X203071Y38856D01*
X202738Y39034D01*
X202376Y39144D01*
X201999Y39181D01*
X201623Y39144D01*
X201261Y39034D01*
X200928Y38856D01*
X200635Y38616D01*
X200589Y38559D01*
X197519D01*
X182703Y53376D01*
X182473Y53552D01*
X182444Y53564D01*
X180717Y55291D01*
Y57418D01*
X193600Y70301D01*
X193600Y96303D01*
X193736D01*
Y104127D01*
X193600D01*
Y119150D01*
X188100Y124650D01*
Y155950D01*
X186302D01*
Y156176D01*
X180924Y156176D01*
X177607Y159493D01*
Y163450D01*
X198700D01*
X199194Y163944D01*
X207558Y163945D01*
X207591Y163948D01*
X212029D01*
X212082Y163943D01*
X244309Y163943D01*
X244603Y163972D01*
X244886Y164057D01*
X245147Y164197D01*
X245375Y164384D01*
X249336Y168345D01*
X257292Y168345D01*
X257893Y167744D01*
X257893Y165643D01*
X255700Y163450D01*
Y154657D01*
X247007D01*
Y156750D01*
X247002Y156803D01*
Y158252D01*
X247000Y161150D01*
X246000Y162150D01*
X242200D01*
X240354Y160304D01*
X240306Y160344D01*
X240214Y160393D01*
X240212Y160394D01*
X240065Y160473D01*
X240063Y160474D01*
X239972Y160522D01*
X239819Y160569D01*
X239751Y160591D01*
X239728Y160597D01*
X239610Y160632D01*
X239467Y160646D01*
X239422Y160653D01*
X239376Y160655D01*
X239234Y160669D01*
X239111Y160657D01*
X239087Y160656D01*
X239017Y160648D01*
X238858Y160632D01*
X238758Y160602D01*
X238756Y160602D01*
X238596Y160553D01*
X238594Y160552D01*
X238496Y160522D01*
X238354Y160447D01*
X238291Y160415D01*
X238271Y160402D01*
X238162Y160344D01*
X238051Y160253D01*
X238014Y160225D01*
X237980Y160195D01*
X237870Y160104D01*
X237791Y160008D01*
X237775Y159991D01*
X237731Y159936D01*
X237630Y159812D01*
X237581Y159720D01*
X237580Y159718D01*
X237501Y159571D01*
X237500Y159569D01*
X237452Y159478D01*
X237405Y159325D01*
X237383Y159257D01*
X237378Y159234D01*
X237342Y159116D01*
X237328Y158973D01*
X237321Y158928D01*
X237319Y158882D01*
X237305Y158740D01*
X237317Y158617D01*
X237318Y158593D01*
X237326Y158523D01*
X237342Y158364D01*
X237372Y158264D01*
X237372Y158262D01*
X237421Y158102D01*
X237422Y158100D01*
X237452Y158002D01*
X237527Y157860D01*
X237560Y157797D01*
X237572Y157777D01*
X237630Y157668D01*
X237721Y157557D01*
X237749Y157520D01*
X237779Y157486D01*
X237870Y157376D01*
X237966Y157297D01*
X237983Y157281D01*
X238038Y157237D01*
X238162Y157136D01*
X238254Y157087D01*
X238256Y157086D01*
X238404Y157007D01*
X238405Y157006D01*
X238496Y156958D01*
X238649Y156911D01*
X238717Y156889D01*
X238740Y156884D01*
X238879Y156549D01*
X238894Y156342D01*
X238832Y156280D01*
X238786Y156255D01*
X238744Y156235D01*
X238705Y156212D01*
X238578Y156144D01*
X238483Y156066D01*
X238464Y156052D01*
X238410Y156006D01*
X238286Y155904D01*
X238220Y155824D01*
X238219Y155823D01*
X238113Y155694D01*
X238112Y155692D01*
X238046Y155612D01*
X237970Y155471D01*
X237936Y155409D01*
X237926Y155387D01*
X237868Y155278D01*
X237826Y155141D01*
X237811Y155098D01*
X237799Y155054D01*
X237758Y154916D01*
X237746Y154794D01*
X237742Y154771D01*
X237736Y154700D01*
X237721Y154540D01*
X237731Y154437D01*
X237731Y154436D01*
X237747Y154269D01*
X237748Y154267D01*
X237758Y154164D01*
X237804Y154010D01*
X237823Y153943D01*
X237832Y153920D01*
X237868Y153802D01*
X237935Y153675D01*
X237955Y153634D01*
X237978Y153595D01*
X238046Y153468D01*
X238124Y153373D01*
X238138Y153354D01*
X238184Y153300D01*
X238286Y153176D01*
X238286Y153161D01*
X237776Y152650D01*
X237734Y152616D01*
X236734Y151616D01*
X236700Y151574D01*
X236298Y151172D01*
Y150603D01*
X236293Y150550D01*
Y144950D01*
X236298Y144897D01*
Y144328D01*
X236700Y143927D01*
X236734Y143884D01*
X237234Y143384D01*
X237277Y143350D01*
X237461Y143165D01*
X237493Y143124D01*
X237513Y143076D01*
X237520Y143024D01*
X237513Y142972D01*
X237493Y142924D01*
X237358Y142760D01*
X237347Y142744D01*
X237271Y142652D01*
X237201Y142522D01*
X237176Y142479D01*
X237158Y142441D01*
X237093Y142318D01*
X237055Y142196D01*
X237046Y142170D01*
X237029Y142107D01*
X236983Y141956D01*
X236972Y141849D01*
X236971Y141843D01*
X236960Y141726D01*
X236946Y141580D01*
X236962Y141418D01*
X236968Y141341D01*
X236971Y141323D01*
X236983Y141204D01*
X237025Y141063D01*
X237038Y141014D01*
X237052Y140975D01*
X237093Y140842D01*
X237153Y140729D01*
X237164Y140704D01*
X237197Y140647D01*
X237271Y140508D01*
X237339Y140425D01*
X237343Y140420D01*
X237418Y140328D01*
X237511Y140216D01*
X237636Y140113D01*
X237695Y140063D01*
X237711Y140052D01*
X237803Y139976D01*
X237930Y139908D01*
X237976Y139881D01*
X238034Y139843D01*
X238086Y139795D01*
X238128Y139740D01*
X238159Y139678D01*
X238180Y139611D01*
X238189Y139542D01*
X238185Y139472D01*
X238170Y139404D01*
X238143Y139340D01*
X238105Y139282D01*
X237977Y139153D01*
X237948Y139129D01*
X236605Y137786D01*
X236417Y137558D01*
X236278Y137297D01*
X236192Y137015D01*
X236163Y136721D01*
X236163Y134091D01*
X236192Y133797D01*
X236278Y133514D01*
X236417Y133254D01*
X236605Y133025D01*
X241808Y127822D01*
X242036Y127635D01*
X242297Y127496D01*
X242579Y127410D01*
X242873Y127381D01*
X243739D01*
X243936Y127400D01*
X247704D01*
X247901Y127381D01*
X259398Y127381D01*
Y126503D01*
X259393Y126450D01*
Y123274D01*
X258276Y122157D01*
X244300D01*
X244247Y122152D01*
X243678D01*
X243277Y121750D01*
X243234Y121716D01*
X242634Y121116D01*
X242600Y121073D01*
X242198Y120672D01*
Y120103D01*
X242193Y120050D01*
Y115650D01*
X242198Y115597D01*
Y115028D01*
X242600Y114627D01*
X242634Y114584D01*
X243034Y114184D01*
X243076Y114149D01*
X243478Y113748D01*
X244047D01*
X244100Y113743D01*
X262000D01*
X262053Y113748D01*
X262622D01*
X263023Y114149D01*
X263066Y114184D01*
X266366Y117484D01*
X266401Y117526D01*
X266802Y117928D01*
Y118497D01*
X266807Y118550D01*
Y126450D01*
X266802Y126504D01*
Y127381D01*
X269420Y127381D01*
X269714Y127410D01*
X269996Y127496D01*
X270257Y127635D01*
X270273Y127648D01*
X271951D01*
X283105Y138802D01*
X283105Y193903D01*
X279901Y197108D01*
X274059D01*
X274001Y197113D01*
X252286Y197113D01*
X252227Y197108D01*
X244074Y197108D01*
X244016Y197113D01*
X241961D01*
X237600Y201474D01*
X237600Y234900D01*
X239300Y236600D01*
X300700D01*
X304150Y233150D01*
D02*
G37*
G36*
X189100Y42200D02*
Y35650D01*
X188200Y34750D01*
X178300D01*
X176600Y36450D01*
Y47550D01*
X177900Y48850D01*
X182450D01*
X189100Y42200D01*
D02*
G37*
G36*
X176645Y50177D02*
X176740Y49822D01*
X175534Y48616D01*
X175499Y48573D01*
X175098Y48172D01*
Y47603D01*
X175093Y47550D01*
Y44670D01*
X175092Y44664D01*
X175084Y44629D01*
X175074Y44596D01*
X175060Y44564D01*
X175044Y44533D01*
X175026Y44504D01*
X175004Y44476D01*
X174981Y44450D01*
X174955Y44427D01*
X174927Y44405D01*
X174898Y44387D01*
X174867Y44370D01*
X174835Y44357D01*
X174802Y44347D01*
X174767Y44339D01*
X174733Y44335D01*
X174698Y44333D01*
X174663Y44335D01*
X174628Y44339D01*
X174594Y44347D01*
X174561Y44357D01*
X174529Y44370D01*
X174498Y44387D01*
X174469Y44405D01*
X174441Y44427D01*
X174422Y44444D01*
X174364Y44514D01*
X174273Y44589D01*
X174157Y44684D01*
X174154Y44687D01*
X174072Y44754D01*
X173932Y44829D01*
X173873Y44862D01*
X173849Y44873D01*
X173738Y44932D01*
X173603Y44973D01*
X173563Y44988D01*
X173516Y45000D01*
X173376Y45042D01*
X173256Y45054D01*
X173235Y45058D01*
X173161Y45063D01*
X173000Y45079D01*
X172880Y45068D01*
X172733Y45053D01*
X172729Y45053D01*
X172624Y45042D01*
X172472Y44996D01*
X172407Y44978D01*
X172382Y44969D01*
X172262Y44932D01*
X172137Y44866D01*
X172098Y44847D01*
X172057Y44823D01*
X171928Y44754D01*
X171834Y44677D01*
X171817Y44665D01*
X171761Y44617D01*
X171636Y44514D01*
X171561Y44423D01*
X171466Y44307D01*
X171463Y44304D01*
X171396Y44222D01*
X171321Y44082D01*
X171288Y44023D01*
X171277Y43999D01*
X171218Y43888D01*
X171177Y43753D01*
X171162Y43713D01*
X171150Y43666D01*
X171108Y43526D01*
X171096Y43406D01*
X171092Y43385D01*
X171087Y43311D01*
X171071Y43150D01*
X171082Y43030D01*
X171097Y42883D01*
X171097Y42879D01*
X171108Y42774D01*
X171154Y42622D01*
X171172Y42557D01*
X171181Y42532D01*
X171218Y42412D01*
X171284Y42287D01*
X171303Y42248D01*
X171327Y42207D01*
X171396Y42078D01*
X171473Y41984D01*
X171485Y41967D01*
X171533Y41911D01*
X171636Y41786D01*
X171728Y41710D01*
X171843Y41616D01*
X171846Y41613D01*
X171928Y41546D01*
X172068Y41471D01*
X172127Y41438D01*
X172163Y41420D01*
X172262Y41368D01*
X172288Y41291D01*
X172358Y40798D01*
X172296Y40722D01*
X172219Y40579D01*
X172219Y40579D01*
X172183Y40513D01*
X172182Y40513D01*
X172174Y40494D01*
X172118Y40388D01*
X172075Y40248D01*
X172059Y40201D01*
X172048Y40161D01*
X172008Y40026D01*
X171995Y39900D01*
X171991Y39873D01*
X171986Y39807D01*
X171971Y39650D01*
X171981Y39544D01*
X171981Y39538D01*
X171994Y39412D01*
X172008Y39274D01*
X172055Y39118D01*
X172075Y39046D01*
X172083Y39027D01*
X172118Y38912D01*
X172187Y38783D01*
X172208Y38738D01*
X172230Y38702D01*
X172296Y38578D01*
X172376Y38480D01*
X172392Y38458D01*
X172436Y38408D01*
X172536Y38286D01*
X172618Y38218D01*
X172622Y38214D01*
X172720Y38134D01*
X172828Y38046D01*
X172971Y37969D01*
X173037Y37933D01*
X173064Y37920D01*
X173147Y37875D01*
X173153Y37871D01*
X173181Y37850D01*
X173207Y37827D01*
X173231Y37801D01*
X173252Y37773D01*
X173271Y37744D01*
X173287Y37713D01*
X173293Y37699D01*
X173179Y37234D01*
X173036Y37114D01*
X172957Y37018D01*
X172940Y37000D01*
X172940Y37000D01*
X172897Y36945D01*
X172897Y36945D01*
X172850Y36888D01*
X172796Y36822D01*
X172747Y36730D01*
X172745Y36727D01*
X172666Y36579D01*
X172666Y36578D01*
X172618Y36488D01*
X172571Y36334D01*
X172548Y36265D01*
X172543Y36244D01*
X172508Y36126D01*
X172494Y35983D01*
X172487Y35936D01*
X172485Y35892D01*
X172471Y35750D01*
X172483Y35626D01*
X172484Y35601D01*
X172492Y35533D01*
X172508Y35374D01*
X172538Y35274D01*
X172539Y35271D01*
X172588Y35110D01*
X172588Y35109D01*
X172618Y35012D01*
X172694Y34870D01*
X172726Y34805D01*
X172738Y34786D01*
X172796Y34678D01*
X172888Y34567D01*
X172916Y34529D01*
X172946Y34496D01*
X173036Y34386D01*
X173132Y34307D01*
X173150Y34290D01*
X173205Y34247D01*
X173328Y34146D01*
X173420Y34097D01*
X173423Y34095D01*
X173571Y34016D01*
X173572Y34016D01*
X173662Y33968D01*
X173816Y33921D01*
X173885Y33898D01*
X173906Y33893D01*
X174024Y33858D01*
X174167Y33844D01*
X174214Y33837D01*
X174258Y33835D01*
X174400Y33821D01*
X174524Y33833D01*
X174549Y33834D01*
X174617Y33842D01*
X174776Y33858D01*
X174876Y33888D01*
X174880Y33889D01*
X175040Y33938D01*
X175040Y33938D01*
X175138Y33968D01*
X175280Y34044D01*
X175345Y34076D01*
X175364Y34088D01*
X175472Y34146D01*
X175584Y34238D01*
X175584Y34238D01*
X175621Y34266D01*
X175621Y34266D01*
X175654Y34296D01*
X175764Y34386D01*
X175844Y34481D01*
X176311Y34580D01*
X176321Y34576D01*
X176352Y34559D01*
X176375Y34543D01*
X177234Y33684D01*
X177278Y33648D01*
X177678Y33248D01*
X178247D01*
X178300Y33243D01*
X188200D01*
X188253Y33248D01*
X188822D01*
X189224Y33650D01*
X189266Y33684D01*
X190166Y34584D01*
X190200Y34626D01*
X190602Y35028D01*
Y35597D01*
X190607Y35650D01*
Y39832D01*
X190608Y39838D01*
X190616Y39873D01*
X190626Y39906D01*
X190639Y39938D01*
X190656Y39969D01*
X190674Y39998D01*
X190696Y40026D01*
X190706Y40038D01*
X191212Y40088D01*
X195291Y36009D01*
Y33523D01*
X195211Y33458D01*
X195165Y33423D01*
X195139Y33399D01*
X195036Y33314D01*
X194951Y33211D01*
X194928Y33186D01*
X194893Y33140D01*
X194796Y33022D01*
X194743Y32922D01*
X194736Y32912D01*
X194694Y32832D01*
X194618Y32688D01*
X194570Y32532D01*
X194544Y32448D01*
X194541Y32435D01*
X194508Y32326D01*
X194493Y32175D01*
X194485Y32118D01*
X194484Y32083D01*
X194471Y31950D01*
X194484Y31817D01*
X194485Y31783D01*
X194493Y31725D01*
X194508Y31574D01*
X194541Y31465D01*
X194543Y31453D01*
X194570Y31368D01*
X194618Y31212D01*
X194695Y31068D01*
X194735Y30990D01*
X194742Y30979D01*
X194796Y30878D01*
X194892Y30760D01*
X194927Y30715D01*
X194951Y30689D01*
X195036Y30586D01*
X195139Y30501D01*
X195164Y30478D01*
X195210Y30443D01*
X195328Y30346D01*
X195428Y30292D01*
X195438Y30286D01*
X195518Y30244D01*
X195662Y30168D01*
X195818Y30120D01*
X195902Y30094D01*
X195915Y30091D01*
X196024Y30058D01*
X196175Y30043D01*
X196232Y30035D01*
X196267Y30034D01*
X196400Y30021D01*
X196533Y30034D01*
X196567Y30035D01*
X196625Y30043D01*
X196776Y30058D01*
X196885Y30091D01*
X196897Y30093D01*
X196982Y30120D01*
X197138Y30168D01*
X197282Y30245D01*
X197360Y30285D01*
X197371Y30292D01*
X197472Y30346D01*
X197590Y30442D01*
X197635Y30477D01*
X197661Y30501D01*
X197764Y30586D01*
X197849Y30689D01*
X197872Y30714D01*
X197907Y30760D01*
X198004Y30878D01*
X198057Y30978D01*
X198064Y30988D01*
X198106Y31068D01*
X198182Y31212D01*
X198230Y31368D01*
X198256Y31452D01*
X198259Y31465D01*
X198292Y31574D01*
X198307Y31725D01*
X198315Y31782D01*
X198316Y31817D01*
X198329Y31950D01*
X198316Y32083D01*
X198315Y32117D01*
X198307Y32190D01*
X198305Y32203D01*
X198529Y32415D01*
X198649Y32506D01*
X199091Y32311D01*
Y26291D01*
X195175Y22375D01*
X195053Y22216D01*
X194858Y22021D01*
Y21654D01*
X194850Y21590D01*
Y14450D01*
X194015D01*
X193529Y14550D01*
X193514Y14708D01*
X193505Y14808D01*
X193503Y14817D01*
X193492Y14926D01*
X193447Y15075D01*
X193431Y15135D01*
X193420Y15164D01*
X193382Y15288D01*
X193318Y15409D01*
X193301Y15444D01*
X193275Y15490D01*
X193204Y15622D01*
X193130Y15712D01*
X193121Y15726D01*
X193068Y15788D01*
X192964Y15914D01*
X192842Y16014D01*
X192764Y16079D01*
X192757Y16084D01*
X192672Y16154D01*
X192535Y16227D01*
X192481Y16258D01*
X192453Y16271D01*
X192338Y16332D01*
X192207Y16372D01*
X192171Y16385D01*
X192119Y16399D01*
X191976Y16442D01*
X191860Y16454D01*
X191844Y16456D01*
X191763Y16463D01*
X191600Y16479D01*
X191442Y16464D01*
X191342Y16455D01*
X191333Y16453D01*
X191224Y16442D01*
X191075Y16397D01*
X191015Y16381D01*
X190986Y16370D01*
X190862Y16332D01*
X190741Y16268D01*
X190706Y16251D01*
X190660Y16225D01*
X190528Y16154D01*
X190438Y16080D01*
X190424Y16070D01*
X190362Y16018D01*
X190236Y15914D01*
X190136Y15792D01*
X190071Y15714D01*
X190066Y15707D01*
X189996Y15622D01*
X189923Y15485D01*
X189892Y15431D01*
X189879Y15403D01*
X189818Y15288D01*
X189778Y15157D01*
X189765Y15121D01*
X189751Y15069D01*
X189708Y14926D01*
X189696Y14810D01*
X189693Y14794D01*
X189683Y14686D01*
X189680Y14647D01*
X189671Y14550D01*
X189173Y14500D01*
X178200D01*
X169959Y22741D01*
X169841Y23091D01*
X169600Y23578D01*
X169298Y24031D01*
X168939Y24439D01*
X168531Y24798D01*
X168078Y25100D01*
X167591Y25341D01*
X167241Y25459D01*
X157400Y35300D01*
Y50322D01*
X176541D01*
X176645Y50177D01*
D02*
G37*
G36*
X140859Y190557D02*
X141102Y190456D01*
X141363Y190421D01*
X143380D01*
X143641Y190456D01*
X143884Y190557D01*
X143946Y190604D01*
X145293Y189257D01*
X148913Y189257D01*
Y188741D01*
X148849Y188707D01*
X148557Y188467D01*
X148317Y188174D01*
X148139Y187841D01*
X148029Y187479D01*
X147992Y187102D01*
X148029Y186726D01*
X148139Y186364D01*
X148317Y186031D01*
X148557Y185738D01*
X148849Y185498D01*
X149183Y185320D01*
X149545Y185210D01*
X149921Y185173D01*
X150298Y185210D01*
X150660Y185320D01*
X150993Y185498D01*
X151285Y185738D01*
X151500Y186000D01*
X151545Y186034D01*
X151595Y186042D01*
X152083Y185675D01*
Y180384D01*
X151828Y180129D01*
X127430D01*
X126200Y181359D01*
Y189222D01*
X127657Y190678D01*
X140701D01*
X140859Y190557D01*
D02*
G37*
G36*
X151738Y105512D02*
Y97503D01*
X151800D01*
Y95109D01*
X151660Y94656D01*
X151524Y94607D01*
X151394Y94546D01*
X151394Y94546D01*
X151269Y94474D01*
X151269Y94474D01*
X151230Y94447D01*
X151151Y94392D01*
X151040Y94299D01*
X150987Y94248D01*
X150641Y93902D01*
X149862D01*
X149801Y93908D01*
X149740Y93902D01*
X149117D01*
X148677Y93462D01*
X148629Y93422D01*
X148256Y93050D01*
X148200D01*
X146655Y91505D01*
Y91440D01*
X146334Y91118D01*
Y90505D01*
X146327Y90434D01*
Y84197D01*
X146110Y83980D01*
X139005D01*
Y93380D01*
X139545Y93920D01*
X139564Y93936D01*
X139580Y93955D01*
X141375Y95750D01*
X141400D01*
X142450Y96800D01*
X150300D01*
X150600Y97100D01*
Y105500D01*
X150680Y105580D01*
X151669D01*
X151738Y105512D01*
D02*
G37*
G36*
X155610Y93525D02*
X155967Y93168D01*
Y93167D01*
X156100Y93035D01*
X159255Y89880D01*
X160207D01*
Y83470D01*
X160214Y83399D01*
Y82786D01*
X160649Y82351D01*
X160693Y82298D01*
X163155Y79835D01*
Y75680D01*
X146495D01*
Y79329D01*
X146495Y79329D01*
X146553Y79519D01*
X146564Y79554D01*
X146568Y79570D01*
X146612Y79715D01*
X146621Y79801D01*
X149157Y82338D01*
X149202Y82392D01*
X149636Y82826D01*
Y83439D01*
X149643Y83510D01*
Y89747D01*
X149676Y89780D01*
X150770D01*
X151588Y90598D01*
X152009D01*
X153323Y91912D01*
X153324Y91911D01*
X153421Y92018D01*
X153508Y92132D01*
X153509Y92132D01*
X153586Y92253D01*
X153586Y92254D01*
X153607Y92294D01*
X153653Y92382D01*
X153708Y92515D01*
X153751Y92652D01*
X153770Y92735D01*
X153782Y92792D01*
X154570Y93580D01*
Y105580D01*
X155610D01*
Y93525D01*
D02*
G37*
G36*
X159600Y97400D02*
X160200Y96800D01*
X167650D01*
X171112Y93338D01*
Y84100D01*
X170992Y83980D01*
X163700D01*
X163523Y84157D01*
Y91070D01*
X163516Y91141D01*
Y91754D01*
X163081Y92189D01*
X163037Y92242D01*
X161457Y93822D01*
X161408Y93863D01*
X160969Y94302D01*
X160346D01*
X160285Y94308D01*
X160224Y94302D01*
X159040D01*
X158405Y94937D01*
Y97503D01*
X158462D01*
Y105562D01*
X158500Y105600D01*
X159600D01*
Y97400D01*
D02*
G37*
%LPC*%
G36*
X259565Y176453D02*
X259188Y176416D01*
X258826Y176306D01*
X258493Y176128D01*
X258201Y175888D01*
X257961Y175596D01*
X257782Y175262D01*
X257673Y174900D01*
X257635Y174524D01*
X257673Y174147D01*
X257782Y173786D01*
X257961Y173452D01*
X258201Y173160D01*
X258493Y172920D01*
X258826Y172741D01*
X259188Y172632D01*
X259565Y172595D01*
X259941Y172632D01*
X260303Y172741D01*
X260637Y172920D01*
X260929Y173160D01*
X261169Y173452D01*
X261347Y173786D01*
X261457Y174147D01*
X261494Y174524D01*
X261457Y174900D01*
X261347Y175262D01*
X261169Y175596D01*
X260929Y175888D01*
X260637Y176128D01*
X260303Y176306D01*
X259941Y176416D01*
X259565Y176453D01*
D02*
G37*
G36*
X254000Y177310D02*
X253698Y177250D01*
X253624Y177242D01*
X253552Y177221D01*
X253250Y177161D01*
X252994Y176989D01*
X252928Y176954D01*
X252871Y176907D01*
X252614Y176736D01*
X252443Y176479D01*
X252396Y176422D01*
X252361Y176356D01*
X252189Y176100D01*
X252129Y175798D01*
X252108Y175726D01*
X252100Y175652D01*
X252040Y175350D01*
X252100Y175048D01*
X252108Y174974D01*
X252129Y174902D01*
X252189Y174600D01*
X252361Y174344D01*
X252396Y174278D01*
X252443Y174221D01*
X252614Y173964D01*
X252871Y173793D01*
X252928Y173746D01*
X252994Y173711D01*
X253250Y173539D01*
X253552Y173479D01*
X253624Y173458D01*
X253698Y173451D01*
X254000Y173390D01*
X254302Y173451D01*
X254376Y173458D01*
X254448Y173479D01*
X254750Y173539D01*
X255006Y173711D01*
X255072Y173746D01*
X255129Y173793D01*
X255386Y173964D01*
X255557Y174221D01*
X255604Y174278D01*
X255639Y174344D01*
X255810Y174600D01*
X255871Y174902D01*
X255892Y174974D01*
X255900Y175048D01*
X255960Y175350D01*
X255900Y175652D01*
X255892Y175726D01*
X255871Y175798D01*
X255810Y176100D01*
X255639Y176356D01*
X255604Y176422D01*
X255557Y176479D01*
X255386Y176736D01*
X255129Y176907D01*
X255072Y176954D01*
X255006Y176989D01*
X254750Y177161D01*
X254448Y177221D01*
X254376Y177242D01*
X254302Y177250D01*
X254000Y177310D01*
D02*
G37*
G36*
X244500Y177579D02*
X244124Y177542D01*
X243762Y177432D01*
X243428Y177254D01*
X243136Y177014D01*
X242896Y176722D01*
X242718Y176388D01*
X242608Y176026D01*
X242571Y175650D01*
X242608Y175274D01*
X242718Y174912D01*
X242896Y174578D01*
X243136Y174286D01*
X243428Y174046D01*
X243762Y173868D01*
X244124Y173758D01*
X244500Y173721D01*
X244876Y173758D01*
X245238Y173868D01*
X245572Y174046D01*
X245864Y174286D01*
X246104Y174578D01*
X246282Y174912D01*
X246392Y175274D01*
X246429Y175650D01*
X246392Y176026D01*
X246282Y176388D01*
X246104Y176722D01*
X245864Y177014D01*
X245572Y177254D01*
X245238Y177432D01*
X244876Y177542D01*
X244500Y177579D01*
D02*
G37*
G36*
X237500Y174429D02*
X237124Y174392D01*
X236762Y174282D01*
X236428Y174104D01*
X236136Y173864D01*
X235896Y173572D01*
X235718Y173238D01*
X235608Y172876D01*
X235571Y172500D01*
X235608Y172124D01*
X235718Y171762D01*
X235896Y171428D01*
X236136Y171136D01*
X236428Y170896D01*
X236762Y170718D01*
X237124Y170608D01*
X237500Y170571D01*
X237876Y170608D01*
X238238Y170718D01*
X238572Y170896D01*
X238864Y171136D01*
X239104Y171428D01*
X239282Y171762D01*
X239392Y172124D01*
X239429Y172500D01*
X239392Y172876D01*
X239282Y173238D01*
X239104Y173572D01*
X238864Y173864D01*
X238572Y174104D01*
X238238Y174282D01*
X237876Y174392D01*
X237500Y174429D01*
D02*
G37*
G36*
X162240Y177550D02*
X161890Y177515D01*
X161553Y177413D01*
X161243Y177248D01*
X160921Y177055D01*
X160599Y177248D01*
X160289Y177413D01*
X159953Y177515D01*
X159603Y177550D01*
X159253Y177515D01*
X158917Y177413D01*
X158607Y177248D01*
X158335Y177025D01*
X158112Y176753D01*
X157946Y176443D01*
X157844Y176107D01*
X157810Y175757D01*
X157844Y175407D01*
X157946Y175071D01*
X158112Y174761D01*
X158335Y174489D01*
X158607Y174266D01*
X158917Y174100D01*
X159253Y173998D01*
X159603Y173964D01*
X159953Y173998D01*
X160289Y174100D01*
X160599Y174266D01*
X160871Y174489D01*
X160972D01*
X161243Y174266D01*
X161553Y174100D01*
X161890Y173998D01*
X162240Y173964D01*
X162589Y173998D01*
X162926Y174100D01*
X163236Y174266D01*
X163507Y174489D01*
X163730Y174761D01*
X163896Y175071D01*
X163998Y175407D01*
X164032Y175757D01*
X163998Y176107D01*
X163896Y176443D01*
X163730Y176753D01*
X163507Y177025D01*
X163236Y177248D01*
X162926Y177413D01*
X162589Y177515D01*
X162240Y177550D01*
D02*
G37*
G36*
X156042Y170611D02*
X155692Y170577D01*
X155355Y170475D01*
X155045Y170309D01*
X154774Y170086D01*
X154551Y169814D01*
X154385Y169504D01*
X154283Y169168D01*
X154249Y168818D01*
X154283Y168468D01*
X154385Y168132D01*
X154551Y167822D01*
X154774Y167550D01*
X155045Y167327D01*
X155355Y167162D01*
X155692Y167060D01*
X156042Y167025D01*
X156391Y167060D01*
X156728Y167162D01*
X157038Y167327D01*
X157309Y167550D01*
X157532Y167822D01*
X157698Y168132D01*
X157800Y168468D01*
X157834Y168818D01*
X157800Y169168D01*
X157698Y169504D01*
X157532Y169814D01*
X157309Y170086D01*
X157038Y170309D01*
X156728Y170475D01*
X156391Y170577D01*
X156042Y170611D01*
D02*
G37*
G36*
X162129Y164163D02*
X161753Y164126D01*
X161391Y164016D01*
X161057Y163838D01*
X160765Y163598D01*
X160525Y163305D01*
X160347Y162972D01*
X160237Y162610D01*
X160200Y162233D01*
X160237Y161857D01*
X160347Y161495D01*
X160525Y161162D01*
X160765Y160869D01*
X161057Y160629D01*
X161391Y160451D01*
X161753Y160341D01*
X162129Y160304D01*
X162505Y160341D01*
X162867Y160451D01*
X163201Y160629D01*
X163493Y160869D01*
X163733Y161162D01*
X163912Y161495D01*
X164021Y161857D01*
X164058Y162233D01*
X164021Y162610D01*
X163912Y162972D01*
X163733Y163305D01*
X163493Y163598D01*
X163201Y163838D01*
X162867Y164016D01*
X162505Y164126D01*
X162129Y164163D01*
D02*
G37*
G36*
X157796Y163076D02*
X157420Y163039D01*
X157058Y162929D01*
X156724Y162751D01*
X156432Y162511D01*
X156192Y162219D01*
X156014Y161885D01*
X155904Y161523D01*
X155867Y161147D01*
X155904Y160771D01*
X156014Y160409D01*
X156192Y160075D01*
X156432Y159783D01*
X156724Y159543D01*
X157058Y159365D01*
X157420Y159255D01*
X157796Y159218D01*
X158173Y159255D01*
X158535Y159365D01*
X158868Y159543D01*
X159160Y159783D01*
X159400Y160075D01*
X159579Y160409D01*
X159688Y160771D01*
X159726Y161147D01*
X159688Y161523D01*
X159579Y161885D01*
X159400Y162219D01*
X159160Y162511D01*
X158868Y162751D01*
X158535Y162929D01*
X158173Y163039D01*
X157796Y163076D01*
D02*
G37*
G36*
X156042Y175443D02*
X155692Y175408D01*
X155355Y175306D01*
X155045Y175141D01*
X154774Y174918D01*
X154551Y174646D01*
X154385Y174336D01*
X154283Y174000D01*
X154249Y173650D01*
X154283Y173300D01*
X154385Y172964D01*
X154551Y172654D01*
X154774Y172382D01*
X155045Y172159D01*
X155355Y171994D01*
X155692Y171892D01*
X156042Y171857D01*
X156391Y171892D01*
X156728Y171994D01*
X157038Y172159D01*
X157309Y172382D01*
X157532Y172654D01*
X157698Y172964D01*
X157800Y173300D01*
X157834Y173650D01*
X157800Y174000D01*
X157698Y174336D01*
X157532Y174646D01*
X157309Y174918D01*
X157038Y175141D01*
X156728Y175306D01*
X156391Y175408D01*
X156042Y175443D01*
D02*
G37*
G36*
X253700Y190279D02*
X253324Y190242D01*
X252962Y190132D01*
X252628Y189954D01*
X252336Y189714D01*
X252096Y189422D01*
X251918Y189088D01*
X251808Y188726D01*
X251771Y188350D01*
X251808Y187974D01*
X251918Y187612D01*
X252096Y187278D01*
X252336Y186986D01*
X252606Y186764D01*
X252615Y186664D01*
X252546Y186223D01*
X252412Y186182D01*
X252078Y186004D01*
X251786Y185764D01*
X251546Y185472D01*
X251368Y185138D01*
X251258Y184776D01*
X251221Y184400D01*
X251258Y184024D01*
X251368Y183662D01*
X251546Y183328D01*
X251786Y183036D01*
X252078Y182796D01*
X252412Y182618D01*
X252774Y182508D01*
X253150Y182471D01*
X253526Y182508D01*
X253888Y182618D01*
X254222Y182796D01*
X254514Y183036D01*
X254754Y183328D01*
X254932Y183662D01*
X255042Y184024D01*
X255079Y184400D01*
X255042Y184776D01*
X254932Y185138D01*
X254754Y185472D01*
X254514Y185764D01*
X254244Y185986D01*
X254235Y186085D01*
X254304Y186527D01*
X254438Y186568D01*
X254772Y186746D01*
X255064Y186986D01*
X255304Y187278D01*
X255482Y187612D01*
X255592Y187974D01*
X255629Y188350D01*
X255592Y188726D01*
X255482Y189088D01*
X255304Y189422D01*
X255064Y189714D01*
X254772Y189954D01*
X254438Y190132D01*
X254076Y190242D01*
X253700Y190279D01*
D02*
G37*
G36*
X230472Y189419D02*
X230096Y189382D01*
X229734Y189272D01*
X229400Y189094D01*
X229108Y188854D01*
X228868Y188562D01*
X228690Y188228D01*
X228580Y187866D01*
X228543Y187490D01*
X228580Y187114D01*
X228690Y186752D01*
X228868Y186418D01*
X228893Y186388D01*
X229028Y186154D01*
X228736Y185914D01*
X228496Y185622D01*
X228318Y185288D01*
X228208Y184926D01*
X228171Y184550D01*
X228208Y184174D01*
X228318Y183812D01*
X228496Y183478D01*
X228736Y183186D01*
X229028Y182946D01*
X229362Y182768D01*
X229724Y182658D01*
X230100Y182621D01*
X230476Y182658D01*
X230838Y182768D01*
X231172Y182946D01*
X231464Y183186D01*
X231704Y183478D01*
X231882Y183812D01*
X231992Y184174D01*
X232029Y184550D01*
X231992Y184926D01*
X231882Y185288D01*
X231704Y185622D01*
X231679Y185652D01*
X231544Y185886D01*
X231836Y186126D01*
X232076Y186418D01*
X232254Y186752D01*
X232364Y187114D01*
X232401Y187490D01*
X232364Y187866D01*
X232254Y188228D01*
X232076Y188562D01*
X231836Y188854D01*
X231544Y189094D01*
X231210Y189272D01*
X230848Y189382D01*
X230472Y189419D01*
D02*
G37*
G36*
X217700Y187179D02*
X217324Y187142D01*
X216962Y187032D01*
X216628Y186854D01*
X216336Y186614D01*
X216096Y186322D01*
X215918Y185988D01*
X215808Y185626D01*
X215771Y185250D01*
X215808Y184874D01*
X215918Y184512D01*
X216096Y184178D01*
X216336Y183886D01*
X216628Y183646D01*
X216962Y183468D01*
X217324Y183358D01*
X217700Y183321D01*
X218076Y183358D01*
X218438Y183468D01*
X218772Y183646D01*
X219064Y183886D01*
X219304Y184178D01*
X219482Y184512D01*
X219592Y184874D01*
X219629Y185250D01*
X219592Y185626D01*
X219482Y185988D01*
X219304Y186322D01*
X219064Y186614D01*
X218772Y186854D01*
X218438Y187032D01*
X218076Y187142D01*
X217700Y187179D01*
D02*
G37*
G36*
X207323Y179635D02*
X206947Y179598D01*
X206585Y179488D01*
X206251Y179310D01*
X205959Y179070D01*
X205719Y178777D01*
X205541Y178444D01*
X205431Y178082D01*
X205394Y177706D01*
X205431Y177329D01*
X205541Y176967D01*
X205719Y176634D01*
X205959Y176341D01*
X206251Y176101D01*
X206585Y175923D01*
X206947Y175813D01*
X207323Y175776D01*
X207699Y175813D01*
X208061Y175923D01*
X208395Y176101D01*
X208687Y176341D01*
X208927Y176634D01*
X209105Y176967D01*
X209215Y177329D01*
X209252Y177706D01*
X209215Y178082D01*
X209105Y178444D01*
X208927Y178777D01*
X208687Y179070D01*
X208395Y179310D01*
X208061Y179488D01*
X207699Y179598D01*
X207323Y179635D01*
D02*
G37*
G36*
X212834Y184848D02*
X212457Y184811D01*
X212095Y184701D01*
X211762Y184523D01*
X211470Y184283D01*
X211230Y183991D01*
X211051Y183657D01*
X210942Y183295D01*
X210904Y182919D01*
X210942Y182542D01*
X211051Y182181D01*
X211230Y181847D01*
X211470Y181555D01*
X211762Y181315D01*
X212095Y181136D01*
X212457Y181027D01*
X212834Y180990D01*
X213210Y181027D01*
X213572Y181136D01*
X213906Y181315D01*
X214198Y181555D01*
X214438Y181847D01*
X214616Y182181D01*
X214726Y182542D01*
X214763Y182919D01*
X214726Y183295D01*
X214616Y183657D01*
X214438Y183991D01*
X214198Y184283D01*
X213906Y184523D01*
X213572Y184701D01*
X213210Y184811D01*
X212834Y184848D01*
D02*
G37*
G36*
X245113Y187805D02*
X244737Y187768D01*
X244375Y187659D01*
X244041Y187480D01*
X243749Y187240D01*
X243509Y186948D01*
X243331Y186615D01*
X243221Y186253D01*
X243184Y185876D01*
X243221Y185500D01*
X243331Y185138D01*
X243509Y184804D01*
X243749Y184512D01*
X244041Y184272D01*
X244375Y184094D01*
X244737Y183984D01*
X245113Y183947D01*
X245490Y183984D01*
X245852Y184094D01*
X246185Y184272D01*
X246478Y184512D01*
X246718Y184804D01*
X246896Y185138D01*
X247006Y185500D01*
X247043Y185876D01*
X247006Y186253D01*
X246896Y186615D01*
X246718Y186948D01*
X246478Y187240D01*
X246185Y187480D01*
X245852Y187659D01*
X245490Y187768D01*
X245113Y187805D01*
D02*
G37*
G36*
X261700Y194279D02*
X261324Y194242D01*
X260962Y194132D01*
X260628Y193954D01*
X260336Y193714D01*
X260096Y193422D01*
X259918Y193088D01*
X259808Y192726D01*
X259771Y192350D01*
X259808Y191974D01*
X259918Y191612D01*
X260096Y191278D01*
X260336Y190986D01*
X260628Y190746D01*
X260962Y190568D01*
X261083Y190531D01*
X261136Y190193D01*
X261104Y190002D01*
X260828Y189854D01*
X260536Y189614D01*
X260296Y189322D01*
X260118Y188988D01*
X260008Y188626D01*
X259971Y188250D01*
X260008Y187874D01*
X260118Y187512D01*
X260296Y187178D01*
X260536Y186886D01*
X260828Y186646D01*
X260782Y186112D01*
X260448Y185934D01*
X260156Y185694D01*
X259916Y185402D01*
X259898Y185369D01*
X259795Y185321D01*
X259689Y185294D01*
X259599Y185290D01*
X259316Y185340D01*
X259186Y185536D01*
X258929Y185707D01*
X258872Y185754D01*
X258806Y185789D01*
X258550Y185960D01*
X258248Y186021D01*
X258176Y186042D01*
X258102Y186049D01*
X257800Y186110D01*
X257498Y186049D01*
X257424Y186042D01*
X257352Y186021D01*
X257050Y185960D01*
X256794Y185789D01*
X256728Y185754D01*
X256671Y185707D01*
X256414Y185536D01*
X256243Y185279D01*
X256196Y185222D01*
X256161Y185156D01*
X255990Y184900D01*
X255929Y184598D01*
X255908Y184526D01*
X255901Y184452D01*
X255840Y184150D01*
X255901Y183848D01*
X255908Y183774D01*
X255929Y183702D01*
X255990Y183400D01*
X256161Y183144D01*
X256196Y183078D01*
X256243Y183021D01*
X256414Y182764D01*
X256671Y182593D01*
X256728Y182546D01*
X256794Y182511D01*
X257050Y182340D01*
X257352Y182279D01*
X257424Y182258D01*
X257498Y182250D01*
X257800Y182190D01*
X258102Y182250D01*
X258176Y182258D01*
X258248Y182279D01*
X258550Y182340D01*
X258806Y182511D01*
X258872Y182546D01*
X258929Y182593D01*
X259186Y182764D01*
X259357Y183021D01*
X259404Y183078D01*
X259425Y183116D01*
X259582Y183162D01*
X260026Y183123D01*
X260156Y182966D01*
X260448Y182726D01*
X260782Y182548D01*
X261144Y182438D01*
X261520Y182401D01*
X261896Y182438D01*
X262258Y182548D01*
X262592Y182726D01*
X262884Y182966D01*
X263124Y183258D01*
X263302Y183592D01*
X263412Y183954D01*
X263449Y184330D01*
X263412Y184706D01*
X263302Y185068D01*
X263124Y185402D01*
X262884Y185694D01*
X262592Y185934D01*
X262638Y186468D01*
X262972Y186646D01*
X263264Y186886D01*
X263504Y187178D01*
X263682Y187512D01*
X263792Y187874D01*
X263829Y188250D01*
X263792Y188626D01*
X263682Y188988D01*
X263504Y189322D01*
X263264Y189614D01*
X262972Y189854D01*
X262638Y190032D01*
X262517Y190069D01*
X262464Y190407D01*
X262496Y190598D01*
X262772Y190746D01*
X263064Y190986D01*
X263304Y191278D01*
X263482Y191612D01*
X263592Y191974D01*
X263629Y192350D01*
X263592Y192726D01*
X263482Y193088D01*
X263304Y193422D01*
X263064Y193714D01*
X262772Y193954D01*
X262438Y194132D01*
X262076Y194242D01*
X261700Y194279D01*
D02*
G37*
G36*
X232530Y195647D02*
X232153Y195610D01*
X231791Y195500D01*
X231458Y195322D01*
X231165Y195082D01*
X230925Y194790D01*
X230747Y194456D01*
X230637Y194094D01*
X230600Y193718D01*
X230637Y193341D01*
X230747Y192979D01*
X230925Y192646D01*
X231165Y192353D01*
X231458Y192113D01*
X231791Y191935D01*
X232153Y191825D01*
X232530Y191788D01*
X232906Y191825D01*
X233268Y191935D01*
X233601Y192113D01*
X233894Y192353D01*
X234042Y192533D01*
X234443Y192556D01*
X234625Y192503D01*
X234634Y192486D01*
X234874Y192194D01*
X235166Y191954D01*
X235500Y191776D01*
X235748Y191700D01*
X235698Y191193D01*
X235443Y191168D01*
X235081Y191058D01*
X234748Y190880D01*
X234455Y190640D01*
X234215Y190347D01*
X234037Y190014D01*
X233927Y189652D01*
X233890Y189276D01*
X233927Y188899D01*
X234037Y188537D01*
X234215Y188204D01*
X234455Y187911D01*
X234748Y187671D01*
X235081Y187493D01*
X235443Y187383D01*
X235820Y187346D01*
X236196Y187383D01*
X236558Y187493D01*
X236891Y187671D01*
X237184Y187911D01*
X237424Y188204D01*
X237602Y188537D01*
X237712Y188899D01*
X237749Y189276D01*
X237712Y189652D01*
X237602Y190014D01*
X237424Y190347D01*
X237184Y190640D01*
X236891Y190880D01*
X236558Y191058D01*
X236309Y191133D01*
X236359Y191641D01*
X236614Y191666D01*
X236976Y191776D01*
X237310Y191954D01*
X237602Y192194D01*
X237842Y192486D01*
X238020Y192820D01*
X238130Y193182D01*
X238167Y193558D01*
X238130Y193935D01*
X238020Y194296D01*
X237842Y194630D01*
X237602Y194922D01*
X237310Y195162D01*
X236976Y195341D01*
X236614Y195450D01*
X236238Y195487D01*
X235861Y195450D01*
X235500Y195341D01*
X235166Y195162D01*
X234874Y194922D01*
X234726Y194742D01*
X234325Y194720D01*
X234143Y194772D01*
X234134Y194790D01*
X233894Y195082D01*
X233601Y195322D01*
X233268Y195500D01*
X232906Y195610D01*
X232530Y195647D01*
D02*
G37*
G36*
X220525Y179544D02*
X220149Y179507D01*
X219787Y179397D01*
X219453Y179219D01*
X219161Y178979D01*
X218921Y178686D01*
X218743Y178353D01*
X218633Y177991D01*
X218596Y177615D01*
X218633Y177238D01*
X218743Y176876D01*
X218921Y176543D01*
X219161Y176250D01*
X219453Y176010D01*
X219787Y175832D01*
X220149Y175722D01*
X220525Y175685D01*
X220901Y175722D01*
X221263Y175832D01*
X221597Y176010D01*
X221889Y176250D01*
X222129Y176543D01*
X222307Y176876D01*
X222417Y177238D01*
X222454Y177615D01*
X222417Y177991D01*
X222307Y178353D01*
X222129Y178686D01*
X221889Y178979D01*
X221597Y179219D01*
X221263Y179397D01*
X220901Y179507D01*
X220525Y179544D01*
D02*
G37*
G36*
X167613Y67957D02*
X167236Y67919D01*
X166875Y67810D01*
X166541Y67631D01*
X166249Y67391D01*
X166009Y67099D01*
X165830Y66765D01*
X165721Y66404D01*
X165683Y66027D01*
X165721Y65651D01*
X165830Y65289D01*
X165933Y65098D01*
X165662Y64709D01*
X165612Y64673D01*
X165534Y64696D01*
X165158Y64733D01*
X164782Y64696D01*
X164420Y64586D01*
X164086Y64408D01*
X163794Y64168D01*
X163554Y63876D01*
X163376Y63542D01*
X163266Y63180D01*
X163229Y62804D01*
X163266Y62428D01*
X163376Y62066D01*
X163554Y61732D01*
X163794Y61440D01*
X164086Y61200D01*
X164420Y61022D01*
X164782Y60912D01*
X165158Y60875D01*
X165534Y60912D01*
X165896Y61022D01*
X166230Y61200D01*
X166522Y61440D01*
X166762Y61732D01*
X166940Y62066D01*
X167050Y62428D01*
X167087Y62804D01*
X167050Y63180D01*
X166940Y63542D01*
X166838Y63733D01*
X167109Y64123D01*
X167159Y64158D01*
X167236Y64135D01*
X167613Y64098D01*
X167989Y64135D01*
X168351Y64245D01*
X168685Y64423D01*
X168977Y64663D01*
X169217Y64955D01*
X169395Y65289D01*
X169505Y65651D01*
X169542Y66027D01*
X169505Y66404D01*
X169395Y66765D01*
X169217Y67099D01*
X168977Y67391D01*
X168685Y67631D01*
X168351Y67810D01*
X167989Y67919D01*
X167613Y67957D01*
D02*
G37*
G36*
X233845Y160439D02*
X233469Y160402D01*
X233107Y160292D01*
X232773Y160114D01*
X232481Y159874D01*
X232241Y159582D01*
X232063Y159248D01*
X231953Y158886D01*
X231916Y158510D01*
X231953Y158134D01*
X232063Y157772D01*
X232215Y157487D01*
X232146Y157291D01*
X232019Y157094D01*
X231947Y157008D01*
X231589Y156972D01*
X231227Y156862D01*
X230893Y156684D01*
X230601Y156444D01*
X230361Y156152D01*
X230183Y155818D01*
X230073Y155456D01*
X230036Y155080D01*
X230073Y154704D01*
X230183Y154342D01*
X230361Y154008D01*
X230601Y153716D01*
X230893Y153476D01*
X231227Y153298D01*
X231589Y153188D01*
X231965Y153151D01*
X232341Y153188D01*
X232703Y153298D01*
X233037Y153476D01*
X233329Y153716D01*
X233569Y154008D01*
X233747Y154342D01*
X233857Y154704D01*
X233894Y155080D01*
X233857Y155456D01*
X233747Y155818D01*
X233595Y156103D01*
X233664Y156299D01*
X233790Y156496D01*
X233863Y156582D01*
X234221Y156618D01*
X234583Y156728D01*
X234917Y156906D01*
X235209Y157146D01*
X235449Y157438D01*
X235627Y157772D01*
X235737Y158134D01*
X235774Y158510D01*
X235737Y158886D01*
X235627Y159248D01*
X235449Y159582D01*
X235209Y159874D01*
X234917Y160114D01*
X234583Y160292D01*
X234221Y160402D01*
X233845Y160439D01*
D02*
G37*
G36*
X254395Y39081D02*
X253522Y39013D01*
X253347Y39006D01*
X253087Y38978D01*
X252091Y38900D01*
X251350Y38722D01*
X251273Y38708D01*
X250968Y38631D01*
X249844Y38361D01*
X247709Y37476D01*
X246724Y36872D01*
X246454Y36712D01*
X246389Y36667D01*
X245739Y36269D01*
X244980Y35620D01*
X244776Y35456D01*
X244648Y35337D01*
X243982Y34768D01*
X243413Y34102D01*
X243294Y33974D01*
X243129Y33770D01*
X242481Y33011D01*
X242083Y32361D01*
X242038Y32296D01*
X241878Y32026D01*
X241274Y31041D01*
X240389Y28906D01*
X240120Y27782D01*
X240042Y27477D01*
X240028Y27400D01*
X239850Y26659D01*
X239772Y25663D01*
X239744Y25403D01*
X239737Y25228D01*
X239669Y24355D01*
X239737Y23482D01*
X239744Y23307D01*
X239772Y23047D01*
X239850Y22051D01*
X240028Y21310D01*
X240042Y21233D01*
X240120Y20928D01*
X240389Y19804D01*
X241274Y17669D01*
X241878Y16684D01*
X242038Y16414D01*
X242083Y16349D01*
X242481Y15699D01*
X243129Y14940D01*
X243294Y14736D01*
X243413Y14608D01*
X243982Y13942D01*
X244648Y13373D01*
X244776Y13254D01*
X244980Y13090D01*
X245739Y12441D01*
X246389Y12043D01*
X246454Y11998D01*
X246724Y11838D01*
X247709Y11234D01*
X249844Y10349D01*
X250968Y10080D01*
X251273Y10002D01*
X251350Y9988D01*
X252091Y9810D01*
X253087Y9732D01*
X253347Y9704D01*
X253522Y9697D01*
X254395Y9629D01*
X255268Y9697D01*
X255443Y9704D01*
X255703Y9732D01*
X256699Y9810D01*
X257440Y9988D01*
X257517Y10002D01*
X257822Y10080D01*
X258946Y10349D01*
X261081Y11234D01*
X262066Y11838D01*
X262336Y11998D01*
X262401Y12043D01*
X263051Y12441D01*
X263810Y13090D01*
X264014Y13254D01*
X264142Y13373D01*
X264808Y13942D01*
X265377Y14608D01*
X265496Y14736D01*
X265661Y14940D01*
X266309Y15699D01*
X266707Y16349D01*
X266752Y16414D01*
X266912Y16684D01*
X267516Y17669D01*
X268401Y19804D01*
X268671Y20928D01*
X268748Y21233D01*
X268762Y21310D01*
X268940Y22051D01*
X269018Y23047D01*
X269046Y23307D01*
X269053Y23482D01*
X269121Y24355D01*
X269053Y25228D01*
X269046Y25403D01*
X269018Y25663D01*
X268940Y26659D01*
X268762Y27400D01*
X268748Y27477D01*
X268671Y27782D01*
X268401Y28906D01*
X267516Y31041D01*
X266912Y32026D01*
X266752Y32296D01*
X266707Y32361D01*
X266309Y33011D01*
X265661Y33770D01*
X265496Y33974D01*
X265377Y34102D01*
X264808Y34768D01*
X264142Y35337D01*
X264014Y35456D01*
X263810Y35620D01*
X263051Y36269D01*
X262401Y36667D01*
X262336Y36712D01*
X262066Y36872D01*
X261081Y37476D01*
X258946Y38361D01*
X257822Y38631D01*
X257517Y38708D01*
X257440Y38722D01*
X256699Y38900D01*
X255703Y38978D01*
X255443Y39006D01*
X255268Y39013D01*
X254395Y39081D01*
D02*
G37*
G36*
X200800Y48876D02*
X200498Y48816D01*
X200424Y48808D01*
X200352Y48787D01*
X200050Y48726D01*
X199794Y48555D01*
X199728Y48520D01*
X199671Y48473D01*
X199414Y48302D01*
X199243Y48045D01*
X199196Y47988D01*
X199161Y47922D01*
X198989Y47666D01*
X198929Y47364D01*
X198908Y47292D01*
X198900Y47218D01*
X198840Y46916D01*
X198900Y46614D01*
X198908Y46540D01*
X198929Y46468D01*
X198989Y46166D01*
X199161Y45910D01*
X199196Y45844D01*
X199243Y45787D01*
X199414Y45530D01*
X199671Y45359D01*
X199728Y45312D01*
X199794Y45277D01*
X200050Y45105D01*
X200352Y45045D01*
X200424Y45024D01*
X200498Y45017D01*
X200800Y44956D01*
X201102Y45017D01*
X201176Y45024D01*
X201248Y45045D01*
X201550Y45105D01*
X201806Y45277D01*
X201872Y45312D01*
X201929Y45359D01*
X202186Y45530D01*
X202357Y45787D01*
X202404Y45844D01*
X202439Y45910D01*
X202610Y46166D01*
X202671Y46468D01*
X202692Y46540D01*
X202699Y46614D01*
X202760Y46916D01*
X202699Y47218D01*
X202692Y47292D01*
X202671Y47364D01*
X202610Y47666D01*
X202439Y47922D01*
X202404Y47988D01*
X202357Y48045D01*
X202186Y48302D01*
X201929Y48473D01*
X201872Y48520D01*
X201806Y48555D01*
X201550Y48726D01*
X201248Y48787D01*
X201176Y48808D01*
X201102Y48816D01*
X200800Y48876D01*
D02*
G37*
G36*
X200189Y43140D02*
X199812Y43103D01*
X199450Y42993D01*
X199117Y42815D01*
X198825Y42575D01*
X198584Y42283D01*
X198406Y41949D01*
X198296Y41587D01*
X198259Y41211D01*
X198296Y40835D01*
X198406Y40473D01*
X198584Y40139D01*
X198825Y39847D01*
X199117Y39607D01*
X199450Y39429D01*
X199812Y39319D01*
X200189Y39282D01*
X200565Y39319D01*
X200927Y39429D01*
X201261Y39607D01*
X201553Y39847D01*
X201793Y40139D01*
X201971Y40473D01*
X202081Y40835D01*
X202118Y41211D01*
X202081Y41587D01*
X201971Y41949D01*
X201793Y42283D01*
X201553Y42575D01*
X201261Y42815D01*
X200927Y42993D01*
X200565Y43103D01*
X200189Y43140D01*
D02*
G37*
G36*
X196500Y101434D02*
X196124Y101397D01*
X195762Y101287D01*
X195428Y101109D01*
X195136Y100869D01*
X194896Y100576D01*
X194718Y100243D01*
X194608Y99881D01*
X194571Y99504D01*
X194608Y99128D01*
X194718Y98766D01*
X194896Y98432D01*
X195136Y98140D01*
X195428Y97900D01*
X195762Y97722D01*
X196124Y97612D01*
X196500Y97575D01*
X196876Y97612D01*
X197238Y97722D01*
X197572Y97900D01*
X197864Y98140D01*
X198104Y98432D01*
X198282Y98766D01*
X198392Y99128D01*
X198429Y99504D01*
X198392Y99881D01*
X198282Y100243D01*
X198104Y100576D01*
X197864Y100869D01*
X197572Y101109D01*
X197238Y101287D01*
X196876Y101397D01*
X196500Y101434D01*
D02*
G37*
G36*
X292500Y205895D02*
X291930Y205863D01*
X291366Y205767D01*
X290817Y205609D01*
X290289Y205391D01*
X289789Y205114D01*
X289323Y204783D01*
X288897Y204403D01*
X288517Y203977D01*
X288186Y203511D01*
X287910Y203011D01*
X287691Y202483D01*
X287533Y201934D01*
X287437Y201371D01*
X287405Y200800D01*
X287437Y200230D01*
X287533Y199666D01*
X287691Y199117D01*
X287910Y198589D01*
X288186Y198089D01*
X288517Y197623D01*
X288897Y197197D01*
X289323Y196817D01*
X289789Y196486D01*
X290289Y196210D01*
X290817Y195991D01*
X291366Y195833D01*
X291930Y195737D01*
X292500Y195705D01*
X293071Y195737D01*
X293634Y195833D01*
X294183Y195991D01*
X294711Y196210D01*
X295211Y196486D01*
X295677Y196817D01*
X296103Y197197D01*
X296483Y197623D01*
X296814Y198089D01*
X297091Y198589D01*
X297309Y199117D01*
X297467Y199666D01*
X297563Y200230D01*
X297595Y200800D01*
X297563Y201371D01*
X297467Y201934D01*
X297309Y202483D01*
X297091Y203011D01*
X296814Y203511D01*
X296483Y203977D01*
X296103Y204403D01*
X295677Y204783D01*
X295211Y205114D01*
X294711Y205391D01*
X294183Y205609D01*
X293634Y205767D01*
X293071Y205863D01*
X292500Y205895D01*
D02*
G37*
G36*
X284400Y201110D02*
X283650Y200960D01*
X283014Y200536D01*
X282590Y199900D01*
X282440Y199150D01*
X282590Y198400D01*
X283014Y197764D01*
X283650Y197339D01*
X284400Y197190D01*
X285150Y197339D01*
X285786Y197764D01*
X286210Y198400D01*
X286360Y199150D01*
X286210Y199900D01*
X285786Y200536D01*
X285150Y200960D01*
X284400Y201110D01*
D02*
G37*
G36*
X254395Y229081D02*
X253522Y229013D01*
X253347Y229006D01*
X253087Y228978D01*
X252091Y228900D01*
X251350Y228722D01*
X251273Y228708D01*
X250968Y228630D01*
X249844Y228361D01*
X247709Y227476D01*
X246724Y226872D01*
X246454Y226712D01*
X246389Y226667D01*
X245739Y226269D01*
X244980Y225621D01*
X244776Y225456D01*
X244648Y225337D01*
X243982Y224768D01*
X243413Y224102D01*
X243294Y223974D01*
X243129Y223770D01*
X242481Y223011D01*
X242083Y222361D01*
X242038Y222296D01*
X241878Y222026D01*
X241274Y221041D01*
X240389Y218906D01*
X240120Y217782D01*
X240042Y217477D01*
X240028Y217400D01*
X239850Y216659D01*
X239772Y215663D01*
X239744Y215403D01*
X239737Y215228D01*
X239669Y214355D01*
X239737Y213482D01*
X239744Y213307D01*
X239772Y213047D01*
X239850Y212051D01*
X240028Y211310D01*
X240042Y211233D01*
X240120Y210928D01*
X240389Y209804D01*
X241274Y207669D01*
X241878Y206684D01*
X242038Y206414D01*
X242083Y206349D01*
X242481Y205699D01*
X243129Y204940D01*
X243294Y204736D01*
X243413Y204608D01*
X243982Y203942D01*
X244648Y203373D01*
X244776Y203254D01*
X244980Y203089D01*
X245739Y202441D01*
X246389Y202043D01*
X246454Y201998D01*
X246724Y201838D01*
X247709Y201234D01*
X249844Y200349D01*
X250968Y200079D01*
X251273Y200002D01*
X251350Y199988D01*
X252091Y199810D01*
X253087Y199732D01*
X253347Y199704D01*
X253522Y199697D01*
X254395Y199629D01*
X255268Y199697D01*
X255443Y199704D01*
X255703Y199732D01*
X256699Y199810D01*
X257440Y199988D01*
X257517Y200002D01*
X257822Y200079D01*
X258946Y200349D01*
X261081Y201234D01*
X262066Y201838D01*
X262336Y201998D01*
X262401Y202043D01*
X263051Y202441D01*
X263810Y203089D01*
X264014Y203254D01*
X264142Y203373D01*
X264808Y203942D01*
X265377Y204608D01*
X265496Y204736D01*
X265661Y204940D01*
X266309Y205699D01*
X266707Y206349D01*
X266752Y206414D01*
X266912Y206684D01*
X267516Y207669D01*
X268401Y209804D01*
X268671Y210928D01*
X268748Y211233D01*
X268762Y211310D01*
X268940Y212051D01*
X269018Y213047D01*
X269046Y213307D01*
X269053Y213482D01*
X269121Y214355D01*
X269053Y215228D01*
X269046Y215403D01*
X269018Y215663D01*
X268940Y216659D01*
X268762Y217400D01*
X268748Y217477D01*
X268671Y217782D01*
X268401Y218906D01*
X267516Y221041D01*
X266912Y222026D01*
X266752Y222296D01*
X266707Y222361D01*
X266309Y223011D01*
X265661Y223770D01*
X265496Y223974D01*
X265377Y224102D01*
X264808Y224768D01*
X264142Y225337D01*
X264014Y225456D01*
X263810Y225621D01*
X263051Y226269D01*
X262401Y226667D01*
X262336Y226712D01*
X262066Y226872D01*
X261081Y227476D01*
X258946Y228361D01*
X257822Y228630D01*
X257517Y228708D01*
X257440Y228722D01*
X256699Y228900D01*
X255703Y228978D01*
X255443Y229006D01*
X255268Y229013D01*
X254395Y229081D01*
D02*
G37*
G36*
X290057Y195453D02*
X289307Y195303D01*
X288671Y194879D01*
X288246Y194243D01*
X288097Y193493D01*
X288246Y192743D01*
X288671Y192107D01*
X289307Y191683D01*
X290057Y191533D01*
X290807Y191683D01*
X291443Y192107D01*
X291867Y192743D01*
X292017Y193493D01*
X291867Y194243D01*
X291443Y194879D01*
X290807Y195303D01*
X290057Y195453D01*
D02*
G37*
G36*
X228119Y160714D02*
X227743Y160677D01*
X227381Y160567D01*
X227047Y160389D01*
X226755Y160149D01*
X226515Y159857D01*
X226337Y159523D01*
X226227Y159161D01*
X226190Y158785D01*
X226227Y158409D01*
X226337Y158047D01*
X226515Y157713D01*
X226653Y157545D01*
X226539Y157138D01*
X226451Y157023D01*
X226343Y157012D01*
X225981Y156902D01*
X225647Y156724D01*
X225355Y156484D01*
X225115Y156192D01*
X224937Y155858D01*
X224827Y155496D01*
X224790Y155120D01*
X224827Y154744D01*
X224937Y154382D01*
X225115Y154048D01*
X225355Y153756D01*
X225647Y153516D01*
X225981Y153338D01*
X226343Y153228D01*
X226719Y153191D01*
X227095Y153228D01*
X227457Y153338D01*
X227791Y153516D01*
X228083Y153756D01*
X228323Y154048D01*
X228501Y154382D01*
X228611Y154744D01*
X228648Y155120D01*
X228611Y155496D01*
X228501Y155858D01*
X228323Y156192D01*
X228185Y156360D01*
X228299Y156767D01*
X228387Y156882D01*
X228495Y156893D01*
X228857Y157003D01*
X229191Y157181D01*
X229483Y157421D01*
X229723Y157713D01*
X229901Y158047D01*
X230011Y158409D01*
X230048Y158785D01*
X230011Y159161D01*
X229901Y159523D01*
X229723Y159857D01*
X229483Y160149D01*
X229191Y160389D01*
X228857Y160567D01*
X228495Y160677D01*
X228119Y160714D01*
D02*
G37*
G36*
X222995Y160789D02*
X222619Y160752D01*
X222257Y160642D01*
X221923Y160464D01*
X221631Y160224D01*
X221391Y159932D01*
X221213Y159598D01*
X221103Y159236D01*
X221066Y158860D01*
X221103Y158484D01*
X221213Y158122D01*
X221391Y157788D01*
X221537Y157611D01*
X221434Y157222D01*
X221339Y157089D01*
X221223Y157077D01*
X220861Y156967D01*
X220754Y156910D01*
X220435Y157176D01*
X220373Y157273D01*
X220471Y157599D01*
X220508Y157975D01*
X220471Y158351D01*
X220361Y158713D01*
X220183Y159047D01*
X219943Y159339D01*
X219651Y159579D01*
X219317Y159757D01*
X218955Y159867D01*
X218579Y159904D01*
X218203Y159867D01*
X217841Y159757D01*
X217507Y159579D01*
X217215Y159339D01*
X216975Y159047D01*
X216797Y158713D01*
X216687Y158351D01*
X216650Y157975D01*
X216687Y157599D01*
X216730Y157457D01*
X216428Y156957D01*
X210500D01*
X210206Y156928D01*
X209923Y156843D01*
X209663Y156703D01*
X209434Y156516D01*
X208876Y155957D01*
X201600D01*
X201306Y155928D01*
X201023Y155842D01*
X200763Y155703D01*
X200534Y155516D01*
X196934Y151916D01*
X196747Y151687D01*
X196607Y151427D01*
X196522Y151144D01*
X196493Y150850D01*
Y124250D01*
X196522Y123956D01*
X196607Y123673D01*
X196747Y123413D01*
X196934Y123184D01*
X202993Y117126D01*
Y114750D01*
X202493Y114370D01*
X202400Y114379D01*
X202024Y114342D01*
X201662Y114232D01*
X201328Y114054D01*
X201036Y113814D01*
X200796Y113522D01*
X200618Y113188D01*
X200508Y112826D01*
X200471Y112450D01*
X200508Y112074D01*
X200618Y111712D01*
X200796Y111378D01*
X201036Y111086D01*
X201328Y110846D01*
X201662Y110668D01*
X202024Y110558D01*
X202400Y110521D01*
X202493Y110530D01*
X202993Y110150D01*
Y101950D01*
X203022Y101656D01*
X203108Y101373D01*
X203247Y101113D01*
X203434Y100884D01*
X209773Y94545D01*
X210002Y94357D01*
X210262Y94218D01*
X210545Y94132D01*
X210839Y94103D01*
X213334Y94103D01*
X213628Y94132D01*
X213911Y94218D01*
X214171Y94358D01*
X214400Y94545D01*
X219356Y99501D01*
X219357Y99502D01*
X219358Y99503D01*
X219451Y99618D01*
X219544Y99730D01*
X219544Y99731D01*
X219545Y99732D01*
X219614Y99861D01*
X219683Y99990D01*
X219683Y99992D01*
X219684Y99993D01*
X219726Y100132D01*
X219769Y100273D01*
X219769Y100275D01*
X219769Y100276D01*
X219784Y100425D01*
X219798Y100567D01*
X219797Y100568D01*
X219798Y100570D01*
X219790Y104651D01*
X219776Y104795D01*
X219761Y104943D01*
X219761Y104944D01*
X219761Y104945D01*
X219719Y105082D01*
X219675Y105226D01*
X219675Y105227D01*
X219674Y105228D01*
X219605Y105356D01*
X219536Y105486D01*
X219535Y105487D01*
X219534Y105488D01*
X219442Y105600D01*
X219348Y105715D01*
X213144Y111916D01*
X213012Y112024D01*
X212916Y112103D01*
X212916Y112103D01*
X212916Y112103D01*
X212768Y112182D01*
X212655Y112242D01*
X212655Y112242D01*
X212655Y112242D01*
X212516Y112284D01*
X212373Y112328D01*
X212372Y112328D01*
X212372Y112328D01*
X212254Y112339D01*
X212079Y112357D01*
X212017D01*
X211509Y112865D01*
Y113377D01*
X211579Y113453D01*
X211670Y113546D01*
X211680Y113561D01*
X211692Y113574D01*
X211761Y113685D01*
X211831Y113793D01*
X211838Y113810D01*
X211848Y113826D01*
X211893Y113947D01*
X211942Y114067D01*
X211945Y114085D01*
X211951Y114102D01*
X211972Y114230D01*
X211976Y114249D01*
X211978Y114258D01*
X211979Y114269D01*
X211996Y114358D01*
X212001Y114420D01*
X212001Y114486D01*
X212007Y114552D01*
Y125676D01*
X213735Y127406D01*
X213818Y127507D01*
X213903Y127606D01*
X213943Y127664D01*
X214007Y127778D01*
X214074Y127891D01*
X214104Y127954D01*
X214148Y128078D01*
X214194Y128201D01*
X214212Y128269D01*
X214233Y128398D01*
X214257Y128527D01*
X214264Y128597D01*
X214263Y128637D01*
X214775Y129149D01*
X215170D01*
X215270Y129249D01*
X220220D01*
Y129767D01*
X220330Y129826D01*
X220604Y130051D01*
X223338Y132785D01*
X223592Y132921D01*
X223884Y133161D01*
X224124Y133453D01*
X224302Y133787D01*
X224412Y134149D01*
X224449Y134525D01*
X224412Y134901D01*
X224302Y135263D01*
X224124Y135597D01*
X223884Y135889D01*
X223592Y136129D01*
X223592Y136673D01*
X223593Y136674D01*
X223593Y136674D01*
X223635Y136812D01*
X223678Y136956D01*
X223678Y136957D01*
X223679Y136957D01*
X223694Y137111D01*
X223707Y137250D01*
X223707Y137251D01*
X223707Y137251D01*
X223702Y142862D01*
X223694Y142940D01*
X223694Y143019D01*
X223680Y143087D01*
X223673Y143156D01*
X223650Y143231D01*
X223634Y143308D01*
X223494Y143758D01*
X223439Y143890D01*
X223436Y143896D01*
X223659Y144168D01*
X223837Y144502D01*
X223947Y144864D01*
X223984Y145240D01*
X223947Y145616D01*
X223837Y145978D01*
X223659Y146312D01*
X223436Y146584D01*
X223490Y146708D01*
X223634Y147155D01*
X223653Y147243D01*
X223678Y147329D01*
X223684Y147387D01*
X223696Y147444D01*
X223698Y147534D01*
X223706Y147624D01*
X223702Y148477D01*
X223689Y148598D01*
X223681Y148720D01*
X223674Y148745D01*
X223672Y148771D01*
X223643Y148862D01*
X223643Y148865D01*
X223638Y148881D01*
X223636Y148887D01*
X223604Y149005D01*
X223585Y149054D01*
X223563Y149098D01*
X223547Y149145D01*
X223498Y149230D01*
X223485Y149256D01*
X223663Y149473D01*
X223841Y149807D01*
X223951Y150169D01*
X223988Y150545D01*
X223951Y150921D01*
X223841Y151283D01*
X223663Y151617D01*
X223423Y151909D01*
X223301Y152009D01*
X223403Y152212D01*
X223431Y152288D01*
X223467Y152360D01*
X223484Y152425D01*
X223508Y152488D01*
X223522Y152568D01*
X223542Y152646D01*
X223552Y152704D01*
X223553Y152735D01*
X223560Y152766D01*
X223563Y152882D01*
X223570Y152999D01*
X223566Y153030D01*
X223566Y153061D01*
X223546Y153176D01*
X223530Y153292D01*
X223520Y153321D01*
X223514Y153352D01*
X223472Y153461D01*
X223434Y153571D01*
X223418Y153598D01*
X223407Y153627D01*
X223282Y153873D01*
X223232Y153951D01*
X223187Y154033D01*
X223165Y154067D01*
X223203Y154113D01*
X223381Y154447D01*
X223491Y154809D01*
X223528Y155185D01*
X223491Y155561D01*
X223381Y155923D01*
X223203Y156257D01*
X223057Y156434D01*
X223160Y156823D01*
X223255Y156956D01*
X223371Y156968D01*
X223733Y157078D01*
X224067Y157256D01*
X224359Y157496D01*
X224599Y157788D01*
X224777Y158122D01*
X224887Y158484D01*
X224924Y158860D01*
X224887Y159236D01*
X224777Y159598D01*
X224599Y159932D01*
X224359Y160224D01*
X224067Y160464D01*
X223733Y160642D01*
X223371Y160752D01*
X222995Y160789D01*
D02*
G37*
%LPD*%
G36*
X219351Y155444D02*
X219418Y155426D01*
X219481Y155396D01*
X219538Y155356D01*
X219587Y155307D01*
X219627Y155250D01*
X219657Y155187D01*
X219675Y155120D01*
X219695Y154931D01*
X219707Y154809D01*
X219754Y154653D01*
X219775Y154580D01*
X219782Y154562D01*
X219817Y154447D01*
X219886Y154317D01*
X219907Y154273D01*
X219929Y154237D01*
X219995Y154113D01*
X220075Y154015D01*
X220092Y153993D01*
X220134Y153943D01*
X220235Y153821D01*
X220317Y153753D01*
X220321Y153749D01*
X220419Y153670D01*
X220527Y153581D01*
X220670Y153504D01*
X220737Y153467D01*
X220755Y153459D01*
X220861Y153403D01*
X221001Y153360D01*
X221048Y153344D01*
X221089Y153333D01*
X221223Y153293D01*
X221349Y153280D01*
X221376Y153276D01*
X221442Y153271D01*
X221599Y153256D01*
X221705Y153266D01*
X221711Y153266D01*
X221765Y153270D01*
X221835Y153270D01*
X221890Y153261D01*
X221938Y153189D01*
X222063Y152944D01*
X222054Y152886D01*
X221884Y152545D01*
X221820Y152451D01*
X221810Y152450D01*
X221683Y152437D01*
X221550Y152397D01*
X221511Y152387D01*
X221462Y152370D01*
X221321Y152327D01*
X221216Y152271D01*
X221199Y152264D01*
X221131Y152226D01*
X220987Y152149D01*
X220870Y152053D01*
X220783Y151983D01*
X220778Y151978D01*
X220695Y151909D01*
X220595Y151788D01*
X220553Y151739D01*
X220536Y151716D01*
X220455Y151617D01*
X220389Y151494D01*
X220369Y151460D01*
X220346Y151414D01*
X220277Y151283D01*
X220242Y151170D01*
X220235Y151152D01*
X220214Y151077D01*
X220167Y150921D01*
X220152Y150772D01*
X220140Y150660D01*
X220140Y150653D01*
X220130Y150545D01*
X220145Y150389D01*
X220150Y150325D01*
X220154Y150296D01*
X220167Y150169D01*
X220207Y150036D01*
X220217Y149996D01*
X220234Y149948D01*
X220277Y149807D01*
X220333Y149702D01*
X220340Y149685D01*
X220378Y149617D01*
X220455Y149473D01*
X220551Y149356D01*
X220621Y149269D01*
X220626Y149264D01*
X220695Y149181D01*
X220816Y149081D01*
X220865Y149039D01*
X220888Y149022D01*
X220987Y148941D01*
X221110Y148875D01*
X221144Y148855D01*
X221190Y148832D01*
X221321Y148763D01*
X221434Y148728D01*
X221452Y148722D01*
X221527Y148700D01*
X221683Y148653D01*
X221832Y148638D01*
X221944Y148626D01*
X221954Y148626D01*
X222053Y148616D01*
X222058Y148616D01*
X222105Y148594D01*
X222146Y148561D01*
X222176Y148519D01*
X222195Y148470D01*
X222199Y147616D01*
X222055Y147169D01*
X221968Y147161D01*
X221838Y147150D01*
X221808Y147145D01*
X221679Y147132D01*
X221547Y147092D01*
X221509Y147083D01*
X221459Y147066D01*
X221317Y147022D01*
X221213Y146967D01*
X221198Y146960D01*
X221089Y146901D01*
X221026Y146871D01*
X220958Y146853D01*
X220889Y146847D01*
X220820Y146853D01*
X220752Y146871D01*
X220689Y146900D01*
X220632Y146940D01*
X220582Y146989D01*
X220542Y147046D01*
X220513Y147109D01*
X220494Y147177D01*
X220488Y147246D01*
X220495Y147355D01*
X220508Y147495D01*
X220497Y147609D01*
X220497Y147625D01*
X220486Y147717D01*
X220471Y147871D01*
X220433Y147997D01*
X220398Y148117D01*
X220393Y148131D01*
X220361Y148233D01*
X220296Y148356D01*
X220263Y148423D01*
X220241Y148458D01*
X220183Y148567D01*
X220105Y148663D01*
X220076Y148702D01*
X220027Y148757D01*
X219943Y148859D01*
X219862Y148926D01*
X219844Y148943D01*
X219729Y149035D01*
X219651Y149099D01*
X219575Y149140D01*
X219573Y149141D01*
X219426Y149221D01*
X219406Y149230D01*
X219317Y149277D01*
X219199Y149313D01*
X219114Y149342D01*
X219065Y149354D01*
X218955Y149387D01*
X218840Y149399D01*
X218785Y149407D01*
X218701Y149412D01*
X218579Y149424D01*
X218478Y149414D01*
X218450Y149414D01*
X218287Y149396D01*
X218203Y149387D01*
X218122Y149363D01*
X218119Y149362D01*
X217958Y149315D01*
X217936Y149306D01*
X217841Y149277D01*
X217730Y149218D01*
X217652Y149179D01*
X217610Y149154D01*
X217507Y149099D01*
X217414Y149023D01*
X217373Y148993D01*
X217315Y148941D01*
X217215Y148859D01*
X217148Y148777D01*
X217132Y148761D01*
X217047Y148655D01*
X216975Y148567D01*
X216923Y148470D01*
X216854Y148343D01*
X216847Y148328D01*
X216797Y148233D01*
X216755Y148096D01*
X216733Y148031D01*
X216724Y147994D01*
X216687Y147871D01*
X216674Y147740D01*
X216668Y147702D01*
X216664Y147643D01*
X216650Y147495D01*
X216661Y147380D01*
X216661Y147367D01*
X216670Y147290D01*
X216687Y147119D01*
X216742Y146935D01*
X216760Y146875D01*
X216763Y146868D01*
X216797Y146757D01*
X216876Y146608D01*
X216896Y146569D01*
X216908Y146548D01*
X216975Y146423D01*
X217068Y146310D01*
X217082Y146290D01*
X217107Y146262D01*
X217215Y146131D01*
X217311Y146052D01*
X217314Y146049D01*
X217333Y146034D01*
X217507Y145891D01*
X217841Y145713D01*
X218017Y145659D01*
X218044Y145650D01*
X218060Y145646D01*
X218203Y145603D01*
X218356Y145588D01*
X218373Y145585D01*
X218400Y145583D01*
X218579Y145566D01*
X218707Y145578D01*
X218708Y145578D01*
X218714Y145579D01*
X218955Y145603D01*
X219317Y145713D01*
X219479Y145799D01*
X219506Y145812D01*
X219576Y145850D01*
X219641Y145874D01*
X219710Y145886D01*
X219780Y145887D01*
X219848Y145875D01*
X219914Y145851D01*
X219974Y145816D01*
X220028Y145772D01*
X220073Y145718D01*
X220108Y145658D01*
X220132Y145593D01*
X220144Y145524D01*
X220145Y145454D01*
X220141Y145390D01*
X220126Y145240D01*
X220137Y145124D01*
X220138Y145110D01*
X220146Y145035D01*
X220161Y144882D01*
X220162Y144869D01*
X220155Y144800D01*
X220136Y144733D01*
X220105Y144670D01*
X220064Y144614D01*
X220014Y144565D01*
X219956Y144526D01*
X219893Y144498D01*
X219825Y144481D01*
X219756Y144476D01*
X219686Y144483D01*
X219619Y144502D01*
X219560Y144530D01*
X219508Y144559D01*
X219409Y144611D01*
X219406Y144613D01*
X219313Y144662D01*
X219161Y144709D01*
X219096Y144730D01*
X219071Y144736D01*
X218951Y144772D01*
X218810Y144786D01*
X218767Y144792D01*
X218719Y144795D01*
X218575Y144809D01*
X218454Y144797D01*
X218432Y144797D01*
X218359Y144788D01*
X218199Y144772D01*
X218101Y144743D01*
X218101Y144743D01*
X217941Y144694D01*
X217937Y144693D01*
X217837Y144662D01*
X217696Y144587D01*
X217635Y144557D01*
X217614Y144543D01*
X217503Y144484D01*
X217394Y144394D01*
X217358Y144368D01*
X217323Y144336D01*
X217211Y144244D01*
X217133Y144150D01*
X217119Y144134D01*
X217073Y144077D01*
X216971Y143952D01*
X216923Y143862D01*
X216923Y143862D01*
X216844Y143714D01*
X216842Y143711D01*
X216793Y143618D01*
X216746Y143466D01*
X216725Y143401D01*
X216719Y143376D01*
X216683Y143256D01*
X216669Y143115D01*
X216663Y143072D01*
X216660Y143024D01*
X216646Y142880D01*
X216658Y142759D01*
X216658Y142737D01*
X216667Y142664D01*
X216683Y142504D01*
X216712Y142406D01*
X216712Y142406D01*
X216761Y142246D01*
X216762Y142242D01*
X216793Y142142D01*
X216868Y142001D01*
X216898Y141940D01*
X216912Y141919D01*
X216971Y141808D01*
X217061Y141699D01*
X217087Y141663D01*
X217119Y141628D01*
X217211Y141516D01*
X217305Y141438D01*
X217321Y141423D01*
X217378Y141378D01*
X217503Y141276D01*
X217593Y141228D01*
X217593Y141228D01*
X217741Y141149D01*
X217744Y141147D01*
X217837Y141098D01*
X217989Y141051D01*
X218054Y141030D01*
X218079Y141024D01*
X218199Y140988D01*
X218340Y140974D01*
X218383Y140968D01*
X218431Y140965D01*
X218575Y140951D01*
X218696Y140963D01*
X218718Y140963D01*
X218791Y140972D01*
X218951Y140988D01*
X219049Y141017D01*
X219049Y141017D01*
X219209Y141066D01*
X219213Y141067D01*
X219313Y141098D01*
X219454Y141173D01*
X219515Y141203D01*
X219536Y141217D01*
X219647Y141276D01*
X219756Y141366D01*
X219792Y141392D01*
X219827Y141424D01*
X219939Y141516D01*
X220017Y141610D01*
X220031Y141626D01*
X220077Y141683D01*
X220179Y141808D01*
X220227Y141898D01*
X220227Y141898D01*
X220306Y142046D01*
X220308Y142049D01*
X220357Y142142D01*
X220404Y142294D01*
X220425Y142359D01*
X220431Y142384D01*
X220467Y142504D01*
X220481Y142645D01*
X220487Y142688D01*
X220490Y142736D01*
X220504Y142880D01*
X220492Y143001D01*
X220492Y143023D01*
X220483Y143098D01*
X220469Y143241D01*
X220468Y143251D01*
X220475Y143320D01*
X220494Y143387D01*
X220525Y143450D01*
X220566Y143506D01*
X220616Y143555D01*
X220674Y143594D01*
X220737Y143622D01*
X220805Y143639D01*
X220875Y143644D01*
X220944Y143637D01*
X221011Y143618D01*
X221070Y143589D01*
X221122Y143561D01*
X221221Y143509D01*
X221224Y143507D01*
X221317Y143458D01*
X221469Y143411D01*
X221534Y143390D01*
X221559Y143384D01*
X221679Y143348D01*
X221820Y143334D01*
X221863Y143328D01*
X221916Y143324D01*
X222055Y143311D01*
X222195Y142861D01*
X222200Y137250D01*
X221600Y136650D01*
X219000D01*
X219000Y136650D01*
X218595Y136549D01*
X218446Y136535D01*
X218333Y136524D01*
X218326Y136523D01*
X218219Y136512D01*
X218069Y136467D01*
X218006Y136450D01*
X217979Y136440D01*
X217857Y136402D01*
X217734Y136337D01*
X217698Y136320D01*
X217653Y136294D01*
X217523Y136224D01*
X217431Y136149D01*
X217416Y136138D01*
X217356Y136087D01*
X217231Y135984D01*
X217136Y135868D01*
X217063Y135781D01*
X217059Y135775D01*
X216991Y135692D01*
X216917Y135553D01*
X216885Y135497D01*
X216873Y135471D01*
X216813Y135358D01*
X216772Y135225D01*
X216759Y135187D01*
X216746Y135138D01*
X216703Y134996D01*
X216691Y134878D01*
X216688Y134860D01*
X216682Y134782D01*
X216666Y134620D01*
X216680Y134471D01*
X216691Y134358D01*
X216692Y134351D01*
X216703Y134244D01*
X216741Y134116D01*
X216759Y134050D01*
X216774Y133982D01*
X216776Y133912D01*
X216767Y133843D01*
X216746Y133777D01*
X216713Y133715D01*
X216670Y133660D01*
X216619Y133613D01*
X216560Y133576D01*
X216495Y133550D01*
X216427Y133535D01*
X211843Y133532D01*
Y133411D01*
X210546D01*
X210393Y133848D01*
Y133929D01*
X210485Y134041D01*
X210664Y134374D01*
X210773Y134736D01*
X210810Y135113D01*
X210773Y135489D01*
X210664Y135851D01*
X210485Y136184D01*
X210245Y136477D01*
X209953Y136717D01*
X209619Y136895D01*
X209258Y137005D01*
X208881Y137042D01*
X208505Y137005D01*
X208143Y136895D01*
X207809Y136717D01*
X207517Y136477D01*
X207277Y136184D01*
X207099Y135851D01*
X206989Y135489D01*
X206952Y135113D01*
X206989Y134736D01*
X207099Y134374D01*
X207277Y134041D01*
X207517Y133748D01*
X207728Y133575D01*
Y132883D01*
X207689Y132838D01*
X207591Y132701D01*
X207506Y132557D01*
X207433Y132406D01*
X207374Y132249D01*
X207329Y132088D01*
X207297Y131923D01*
X207281Y131756D01*
X207279Y131588D01*
X207292Y131421D01*
X207300Y131370D01*
X207271Y131072D01*
X207308Y130696D01*
X207418Y130334D01*
X207596Y130001D01*
X207836Y129708D01*
X208128Y129468D01*
X208462Y129290D01*
X208824Y129180D01*
X209200Y129143D01*
X209576Y129180D01*
X209938Y129290D01*
X210046Y129348D01*
X210546Y129249D01*
Y129249D01*
X211843D01*
Y129128D01*
X212362D01*
X212432Y129122D01*
X212499Y129104D01*
X212562Y129074D01*
X212619Y129034D01*
X212668Y128985D01*
X212708Y128928D01*
X212738Y128865D01*
X212756Y128797D01*
X212762Y128728D01*
X212756Y128658D01*
X212738Y128591D01*
X212708Y128528D01*
X212668Y128471D01*
X210500Y126300D01*
Y114552D01*
X210494Y114489D01*
X210118Y114157D01*
X210100Y114159D01*
X209967Y114146D01*
X209932Y114145D01*
X209875Y114137D01*
X209724Y114122D01*
X209615Y114089D01*
X209603Y114086D01*
X209518Y114060D01*
X209362Y114012D01*
X209218Y113935D01*
X209139Y113894D01*
X209128Y113888D01*
X209028Y113834D01*
X208910Y113737D01*
X208865Y113702D01*
X208839Y113679D01*
X208736Y113594D01*
X208651Y113491D01*
X208628Y113465D01*
X208593Y113420D01*
X208496Y113302D01*
X208442Y113202D01*
X208436Y113191D01*
X208395Y113112D01*
X208318Y112968D01*
X208270Y112812D01*
X208243Y112727D01*
X208241Y112715D01*
X208208Y112606D01*
X208193Y112455D01*
X208185Y112398D01*
X208184Y112363D01*
X208171Y112230D01*
X208184Y112097D01*
X208185Y112063D01*
X208193Y112005D01*
X208208Y111854D01*
X208241Y111745D01*
X208243Y111732D01*
X208270Y111648D01*
X208318Y111492D01*
X208395Y111348D01*
X208436Y111269D01*
X208442Y111258D01*
X208496Y111158D01*
X208593Y111040D01*
X208628Y110995D01*
X208651Y110969D01*
X208736Y110866D01*
X208839Y110781D01*
X208865Y110758D01*
X208910Y110723D01*
X209028Y110626D01*
X209128Y110572D01*
X209139Y110565D01*
X209218Y110525D01*
X209362Y110448D01*
X209518Y110400D01*
X209603Y110373D01*
X209615Y110371D01*
X209724Y110338D01*
X209875Y110323D01*
X209932Y110315D01*
X209967Y110314D01*
X210100Y110301D01*
X210233Y110314D01*
X210267Y110315D01*
X210325Y110323D01*
X210476Y110338D01*
X210585Y110371D01*
X210597Y110373D01*
X210682Y110400D01*
X210838Y110448D01*
X210982Y110525D01*
X211061Y110565D01*
X211072Y110572D01*
X211172Y110626D01*
X211290Y110723D01*
X211335Y110758D01*
X211361Y110781D01*
X211444Y110849D01*
X212079D01*
X218283Y104648D01*
X218290Y100567D01*
X213334Y95611D01*
X210839Y95611D01*
X204500Y101950D01*
Y117750D01*
X198000Y124250D01*
Y150850D01*
X201600Y154450D01*
X209500D01*
X210500Y155450D01*
X219281D01*
X219351Y155444D01*
D02*
G37*
%LPC*%
G36*
X214101Y139479D02*
X213725Y139442D01*
X213363Y139332D01*
X213029Y139154D01*
X212737Y138914D01*
X212497Y138622D01*
X212319Y138288D01*
X212209Y137926D01*
X212172Y137550D01*
X212209Y137174D01*
X212319Y136812D01*
X212497Y136478D01*
X212737Y136186D01*
X213029Y135946D01*
X213363Y135768D01*
X213725Y135658D01*
X214101Y135621D01*
X214477Y135658D01*
X214839Y135768D01*
X215173Y135946D01*
X215465Y136186D01*
X215705Y136478D01*
X215883Y136812D01*
X215993Y137174D01*
X216030Y137550D01*
X215993Y137926D01*
X215883Y138288D01*
X215705Y138622D01*
X215465Y138914D01*
X215173Y139154D01*
X214839Y139332D01*
X214477Y139442D01*
X214101Y139479D01*
D02*
G37*
G36*
X209448Y143481D02*
X204498D01*
Y143209D01*
X202850D01*
X202497Y143174D01*
X202158Y143071D01*
X201938Y142954D01*
X201824Y142942D01*
X201462Y142832D01*
X201128Y142654D01*
X200836Y142414D01*
X200596Y142122D01*
X200418Y141788D01*
X200308Y141426D01*
X200271Y141050D01*
X200308Y140674D01*
X200418Y140312D01*
X200596Y139978D01*
X200836Y139686D01*
X201128Y139446D01*
X201462Y139268D01*
X201824Y139158D01*
X202200Y139121D01*
X202576Y139158D01*
X202938Y139268D01*
X203087Y139347D01*
X203192Y139379D01*
X203505Y139546D01*
X203560Y139591D01*
X204498D01*
Y139319D01*
X209448D01*
Y143481D01*
D02*
G37*
%LPD*%
G54D17*
X15802Y42493D02*
D03*
X8322D02*
D03*
X12062Y51941D02*
D03*
G54D32*
X22500Y220000D02*
D03*
X20000Y7000D02*
D03*
X292500Y200800D02*
D03*
X214000Y8000D02*
D03*
G54D37*
X2445Y68120D02*
D03*
X5004D02*
D03*
X7563D02*
D03*
X10122D02*
D03*
Y79144D02*
D03*
X7563D02*
D03*
X5004D02*
D03*
X2445D02*
D03*
G54D44*
X262857Y124669D02*
D03*
Y130969D02*
D03*
X167100Y9200D02*
D03*
Y2900D02*
D03*
X206000Y28900D02*
D03*
Y22600D02*
D03*
X180253Y167435D02*
D03*
Y161135D02*
D03*
X180260Y175413D02*
D03*
Y181712D02*
D03*
G54D45*
X-1540Y83881D02*
D03*
Y87818D02*
D03*
X97100Y174559D02*
D03*
Y170623D02*
D03*
X19920Y75854D02*
D03*
Y71917D02*
D03*
X221240Y-3779D02*
D03*
Y158D02*
D03*
X173560Y88503D02*
D03*
Y84566D02*
D03*
X136490Y88704D02*
D03*
Y84767D02*
D03*
X173480Y124796D02*
D03*
Y128734D02*
D03*
X140385Y125406D02*
D03*
Y129343D02*
D03*
X187500Y98282D02*
D03*
Y102218D02*
D03*
X183344Y109984D02*
D03*
Y106046D02*
D03*
X191614Y102183D02*
D03*
Y98247D02*
D03*
X183374Y102183D02*
D03*
Y98247D02*
D03*
X15803Y71951D02*
D03*
Y75888D02*
D03*
X2443Y57003D02*
D03*
Y60940D02*
D03*
X28700Y164819D02*
D03*
Y160881D02*
D03*
X24650Y164854D02*
D03*
Y160916D02*
D03*
X157796Y193582D02*
D03*
Y189645D02*
D03*
X69278Y84146D02*
D03*
Y88083D02*
D03*
X67752Y165154D02*
D03*
Y161216D02*
D03*
X59812Y165154D02*
D03*
Y161216D02*
D03*
X71768Y161247D02*
D03*
Y165183D02*
D03*
X63772Y165154D02*
D03*
Y161216D02*
D03*
X75728Y161247D02*
D03*
Y165183D02*
D03*
X6568Y57016D02*
D03*
Y60953D02*
D03*
X135778Y124164D02*
D03*
Y120228D02*
D03*
X87018Y14146D02*
D03*
Y18083D02*
D03*
X75988Y14146D02*
D03*
Y18083D02*
D03*
X154663Y186147D02*
D03*
Y182211D02*
D03*
X10782Y83947D02*
D03*
Y87884D02*
D03*
X51560Y88183D02*
D03*
Y84246D02*
D03*
X55830Y165154D02*
D03*
Y161216D02*
D03*
X47268Y84246D02*
D03*
Y88183D02*
D03*
X2562Y87853D02*
D03*
Y83916D02*
D03*
X36192Y84216D02*
D03*
Y88153D02*
D03*
X51822Y165154D02*
D03*
Y161216D02*
D03*
X36252Y164953D02*
D03*
Y161016D02*
D03*
X6710Y87884D02*
D03*
Y83947D02*
D03*
X97500Y119953D02*
D03*
Y116016D02*
D03*
G54D46*
X90407Y127347D02*
D03*
Y124748D02*
D03*
X147025Y18527D02*
D03*
Y15929D02*
D03*
X139025Y18471D02*
D03*
Y15873D02*
D03*
X135275Y18471D02*
D03*
Y15873D02*
D03*
X94193Y127347D02*
D03*
Y124748D02*
D03*
X93275Y18271D02*
D03*
Y15673D02*
D03*
X83275Y18227D02*
D03*
Y15629D02*
D03*
X79913Y18227D02*
D03*
Y15629D02*
D03*
X71963Y18227D02*
D03*
Y15629D02*
D03*
X68513Y18227D02*
D03*
Y15629D02*
D03*
G54D47*
X14777Y133429D02*
D03*
X12179D02*
D03*
X14777Y136619D02*
D03*
X12179D02*
D03*
X135579Y109919D02*
D03*
X138177D02*
D03*
Y106669D02*
D03*
X135579D02*
D03*
G54D48*
X143309Y115401D02*
D03*
X139372D02*
D03*
X-1199Y41591D02*
D03*
X2739D02*
D03*
X188303Y120754D02*
D03*
X184367D02*
D03*
X188303Y116704D02*
D03*
X184367D02*
D03*
X175432Y102750D02*
D03*
X179368D02*
D03*
X176666Y116650D02*
D03*
X180604D02*
D03*
X87497Y144060D02*
D03*
X91434D02*
D03*
X10796Y119952D02*
D03*
X14733D02*
D03*
X10796Y91774D02*
D03*
X14733D02*
D03*
X14733Y96104D02*
D03*
X10796D02*
D03*
X163110Y156652D02*
D03*
X167047D02*
D03*
X163233Y189362D02*
D03*
X167170D02*
D03*
X170905Y160178D02*
D03*
X174843D02*
D03*
X171314Y189362D02*
D03*
X175251D02*
D03*
X10757Y108880D02*
D03*
X14694D02*
D03*
X175914Y106700D02*
D03*
X171976D02*
D03*
X10796Y100356D02*
D03*
X14733D02*
D03*
X10796Y124006D02*
D03*
X14733D02*
D03*
X91434Y115830D02*
D03*
X87497D02*
D03*
X10696Y142940D02*
D03*
X14634D02*
D03*
X10751Y113010D02*
D03*
X14687D02*
D03*
X106098Y99436D02*
D03*
X102161D02*
D03*
X91404Y148190D02*
D03*
X87467D02*
D03*
X170881Y156652D02*
D03*
X174819D02*
D03*
X171314Y192764D02*
D03*
X175251D02*
D03*
X244531Y155500D02*
D03*
X248468D02*
D03*
X244531Y159500D02*
D03*
X248468D02*
D03*
X91434Y120150D02*
D03*
X87497D02*
D03*
G54D50*
X135881Y159871D02*
D03*
X142181D02*
D03*
X135719Y152905D02*
D03*
X142019D02*
D03*
G54D55*
X217745Y131330D02*
D03*
X213021D02*
D03*
X211697Y141400D02*
D03*
X206973D02*
D03*
G54D56*
X247660Y117995D02*
D03*
Y109995D02*
D03*
X187500Y183000D02*
D03*
Y175000D02*
D03*
Y160081D02*
D03*
Y168080D02*
D03*
X195500Y183000D02*
D03*
Y175000D02*
D03*
Y160081D02*
D03*
Y168080D02*
D03*
X249815Y146140D02*
D03*
Y138140D02*
D03*
G54D57*
X131537Y14023D02*
D03*
Y18747D02*
D03*
X142802Y14023D02*
D03*
Y18747D02*
D03*
X207755Y152908D02*
D03*
Y157632D02*
D03*
X245820Y131157D02*
D03*
Y126433D02*
D03*
X243527Y145021D02*
D03*
Y140296D02*
D03*
G54D59*
X146912Y15929D02*
Y15929D01*
X142802Y18275D02*
X142974D01*
X75988Y14225D02*
X78509D01*
X24650Y164775D02*
X26121D01*
X105964Y165615D02*
X113512Y158067D01*
Y137811D02*
Y158067D01*
X106480Y161191D02*
X111712Y155959D01*
X106308Y163256D02*
X112612Y156952D01*
Y136038D02*
Y156952D01*
X157407Y189075D02*
X157887Y189555D01*
X154663Y186147D02*
X155256Y186740D01*
X157407D01*
Y189075D01*
X111668Y181661D02*
X112337Y180992D01*
X109161Y181661D02*
X111668D01*
X107647Y180148D02*
X109161Y181661D01*
X108252Y229760D02*
X108810Y230318D01*
X108252Y227203D02*
Y229760D01*
Y227203D02*
X108706Y226748D01*
X110436D01*
X108810Y230318D02*
X111557D01*
X71855Y230195D02*
X73005Y229045D01*
X67229Y230195D02*
X71855D01*
X66950Y229916D02*
X67229Y230195D01*
X84679Y14225D02*
X87018D01*
X77429Y232421D02*
X79000Y230850D01*
X38300Y222449D02*
X48272Y232421D01*
X77429D01*
X74329Y231522D02*
X77200Y228650D01*
X49172Y231522D02*
X74329D01*
X39300Y221650D02*
X49172Y231522D01*
X146292Y109549D02*
X146807Y109034D01*
X143349Y109549D02*
X146292D01*
X142700Y108900D02*
X143349Y109549D01*
X96554Y124148D02*
X99315Y121387D01*
Y118875D02*
Y121387D01*
Y118875D02*
X101258Y116933D01*
X116316Y125464D02*
Y129475D01*
X113537Y122686D02*
X116316Y125464D01*
X113537Y117040D02*
Y122686D01*
X114637Y122506D02*
X117480Y125348D01*
X114637Y117496D02*
Y122506D01*
X117480Y125348D02*
Y131170D01*
X-4800Y45271D02*
X-1120Y41591D01*
X136900Y217250D02*
X149921Y204229D01*
Y187102D02*
Y204229D01*
X109912Y130280D02*
X112264Y127929D01*
X110812Y132245D02*
X114269Y128787D01*
X111712Y134079D02*
X116316Y129475D01*
X111712Y134079D02*
Y155959D01*
X110812Y132245D02*
Y154965D01*
X109912Y130280D02*
Y153986D01*
X113512Y137811D02*
X118532Y132791D01*
X108848Y139469D02*
X109012Y139306D01*
Y137279D02*
Y139306D01*
X108806Y137073D02*
X109012Y137279D01*
X107867Y156030D02*
X109912Y153986D01*
X105582Y160194D02*
X110812Y154965D01*
X98802Y161191D02*
X106480D01*
X94869Y165124D02*
X98802Y161191D01*
X94464Y160194D02*
X105582D01*
X89276Y165382D02*
X94464Y160194D01*
X106308Y154037D02*
X107984Y152361D01*
Y148550D02*
Y152361D01*
X102085Y142652D02*
X107984Y148550D01*
X107011Y155102D02*
X108884Y153229D01*
Y143100D02*
Y153229D01*
X108236Y142452D02*
X108884Y143100D01*
X112612Y136038D02*
X117480Y131170D01*
X107132Y126552D02*
Y133741D01*
X106716Y134157D02*
X107132Y133741D01*
X28700Y164819D02*
Y166650D01*
Y164740D02*
Y164819D01*
X131537Y18747D02*
Y21237D01*
Y18275D02*
Y18747D01*
X142802D02*
Y22273D01*
Y18275D02*
Y18747D01*
X75988Y14146D02*
Y14225D01*
Y12127D02*
Y14146D01*
X86861Y126360D02*
X89420D01*
X90407Y127347D01*
X94193D02*
X95015Y126525D01*
X96707D01*
X94794Y124148D02*
X96554D01*
X94193Y124748D02*
X94794Y124148D01*
X114269Y126266D02*
Y128787D01*
X102085Y123669D02*
Y142652D01*
Y123669D02*
X106990Y118765D01*
X92819Y154037D02*
X106308D01*
X115092Y162693D02*
X118639Y159146D01*
Y137579D02*
Y159146D01*
Y137579D02*
X120880Y135338D01*
X113811Y161845D02*
X117701Y157955D01*
Y136577D02*
Y157955D01*
Y136577D02*
X119780Y134498D01*
X115691Y153749D02*
Y157712D01*
X112337Y161066D02*
X115691Y157712D01*
X112337Y161066D02*
Y180992D01*
X100822Y147017D02*
X105661Y151855D01*
X100822Y123187D02*
Y147017D01*
X84438Y162418D02*
X92819Y154037D01*
X94632Y155102D02*
X107011D01*
X86102Y163632D02*
X94632Y155102D01*
X77362Y197498D02*
X90781Y184079D01*
Y169772D02*
Y184079D01*
Y169772D02*
X94869Y165685D01*
X74789Y192009D02*
X87719Y179079D01*
Y164721D02*
Y179079D01*
Y164721D02*
X96410Y156030D01*
X79881Y183782D02*
X86102Y177561D01*
Y163632D02*
Y177561D01*
X115092Y182281D02*
X126261Y193450D01*
X115092Y162693D02*
Y182281D01*
X113811Y183650D02*
X119400Y189239D01*
X113811Y161845D02*
Y183650D01*
X118532Y125766D02*
Y132791D01*
Y125766D02*
X120127Y124171D01*
X112264Y116758D02*
Y127929D01*
X104085Y142452D02*
X108236D01*
X84438Y162418D02*
Y172826D01*
X106990Y118747D02*
X111179Y114558D01*
X106990Y118747D02*
Y118765D01*
X72708Y184555D02*
X84438Y172826D01*
X115394Y33944D02*
X116400Y34950D01*
X114491Y33944D02*
X115394D01*
X112750Y32204D02*
X114491Y33944D01*
X112750Y29828D02*
Y32204D01*
X127467Y192130D02*
X140663D01*
X116351Y181014D02*
X127467Y192130D01*
X116351Y163291D02*
Y181014D01*
X126261Y193450D02*
X142200D01*
X116351Y163291D02*
X119595Y160047D01*
X100822Y123187D02*
X109148Y114861D01*
Y112205D02*
Y114861D01*
X102938Y211150D02*
X107562Y206526D01*
X98200Y211150D02*
X102938D01*
X102750Y199828D02*
X103300Y200378D01*
Y206350D01*
X-6867Y43105D02*
X-1112Y37350D01*
X-6867Y43105D02*
Y178783D01*
X135060Y64861D02*
X137005Y62915D01*
X130678Y64861D02*
X135060D01*
X29156Y176094D02*
X34054Y171196D01*
Y159597D02*
Y171196D01*
Y159597D02*
X34644Y159007D01*
X26700Y165354D02*
Y168050D01*
X26121Y164775D02*
X26700Y165354D01*
X123695Y228098D02*
X125652D01*
X122750Y227153D02*
X123695Y228098D01*
X122750Y222072D02*
Y227153D01*
X175681Y118781D02*
X180278D01*
X171232Y114332D02*
X175681Y118781D01*
X46833Y215017D02*
X58466D01*
X45000Y216850D02*
X46833Y215017D01*
X7500Y138108D02*
X12179Y133429D01*
X7500Y138108D02*
Y178078D01*
X8500Y140298D02*
X12179Y136619D01*
X29156Y176094D02*
Y178805D01*
X157796Y189645D02*
X157887Y189555D01*
X90407Y124748D02*
X94193D01*
X24650Y160995D02*
X26770Y158875D01*
X81483Y141350D02*
X81494Y141339D01*
X76505Y141350D02*
X81483D01*
X68905Y133750D02*
X76505Y141350D01*
X53280Y-2134D02*
X59643Y-8497D01*
X46200Y127250D02*
X52700Y133750D01*
X68905D01*
X180099Y99100D02*
X182599D01*
X183374Y98325D01*
X130299Y24800D02*
X133000D01*
X135800Y22000D01*
X137000Y20800D01*
X77200Y228650D02*
X83800D01*
X104600Y179250D02*
X117220Y191870D01*
X104600Y169550D02*
Y179250D01*
X83275Y15629D02*
X84679Y14225D01*
X28700Y166650D02*
X30700Y168650D01*
X71963Y12987D02*
Y15629D01*
Y12987D02*
X72400Y12550D01*
X80800Y13154D02*
X83275Y15629D01*
X80800Y12850D02*
Y13154D01*
X78509Y14225D02*
X79913Y15629D01*
X42100Y214350D02*
X50200Y206250D01*
X42100Y214350D02*
Y219550D01*
X137600Y14300D02*
X139025Y15725D01*
Y15873D01*
X131537Y21237D02*
X131600Y21300D01*
X120150Y43050D02*
X123550Y39650D01*
X142974Y18275D02*
X145320Y15929D01*
X81600Y45950D02*
Y46050D01*
Y45950D02*
X88400Y39150D01*
Y22851D02*
Y39150D01*
X145321Y112971D02*
X147620D01*
X188225Y116704D02*
X188700Y116229D01*
Y113350D02*
Y116229D01*
X122750Y46050D02*
Y52072D01*
X71963Y18227D02*
X72750Y19014D01*
Y29828D01*
X68513Y18227D02*
X71963D01*
X79913D02*
X83150D01*
X82750Y18627D02*
Y29828D01*
Y18627D02*
X83150Y18227D01*
X83275D01*
X133716Y20030D02*
X135275Y18471D01*
X52750Y199828D02*
Y202100D01*
X46500Y208350D02*
X52750Y202100D01*
X42600Y208350D02*
X46500D01*
X72750Y199828D02*
Y208100D01*
X92750Y199828D02*
Y202300D01*
X88500Y206550D02*
X92750Y202300D01*
X87100Y206550D02*
X88500D01*
X79100Y223050D02*
Y225450D01*
Y223050D02*
X80078Y222072D01*
X82750D01*
X92750D02*
Y229000D01*
X102750Y222072D02*
Y228190D01*
X102955Y228395D01*
X132750Y222072D02*
Y228090D01*
X132955Y228295D01*
X26770Y155119D02*
Y158875D01*
X28344Y160604D02*
X28700Y160960D01*
X28344Y155119D02*
Y160604D01*
X67714Y161257D02*
X67752Y161295D01*
X67714Y155119D02*
Y161257D01*
X67275Y84225D02*
X69278D01*
X66500Y85000D02*
X67275Y84225D01*
X66400Y85000D02*
X66500D01*
X63772Y165075D02*
Y167122D01*
X79400Y152150D02*
X80900Y153650D01*
X77500Y152150D02*
X79400D01*
X76400Y151050D02*
X77500Y152150D01*
X71300Y151050D02*
X76400D01*
X70900Y151450D02*
X71300Y151050D01*
X70900Y151450D02*
Y155083D01*
X70864Y155119D02*
X70900Y155083D01*
X74014Y159611D02*
X75728Y161325D01*
X74014Y155119D02*
Y159611D01*
X191600Y14550D02*
X191941Y14209D01*
Y88D02*
Y14209D01*
X28200Y150550D02*
X29919Y152269D01*
Y155119D01*
X34644D02*
Y159007D01*
X31494Y150956D02*
X32100Y150350D01*
X31494Y150956D02*
Y155119D01*
X72101Y48550D02*
X72750Y49199D01*
Y52072D01*
X82750D02*
X85478D01*
X86400Y51150D01*
X102750Y48700D02*
Y52072D01*
Y48700D02*
X103100Y48350D01*
Y46100D02*
Y48350D01*
X5900Y191550D02*
X6200D01*
X142750Y49750D02*
Y52072D01*
X138800Y45800D02*
X142750Y49750D01*
X136800Y45800D02*
X138800D01*
X187500Y96350D02*
Y98360D01*
X186400Y95250D02*
X187500Y96350D01*
X144471Y103129D02*
X147620D01*
X14777Y133429D02*
Y136619D01*
X16208Y138050D01*
X20724D01*
X20864Y138190D01*
X132750Y199828D02*
X135322D01*
X136400Y198750D01*
X122750Y199828D02*
Y202300D01*
X112750Y202401D02*
X114400Y204051D01*
X112750Y199828D02*
Y202401D01*
X114400Y204051D02*
Y206550D01*
X81494Y112993D02*
X81637Y112850D01*
X102161Y99436D02*
Y105000D01*
X81494Y111418D02*
X83817D01*
X85500Y109735D01*
Y106500D02*
Y109735D01*
X81637Y112850D02*
X91949D01*
X93500Y111299D01*
X93799D01*
X96500Y114000D02*
Y115016D01*
X97500Y116016D01*
X93799Y111299D02*
X96500Y114000D01*
X92564Y99436D02*
X102161D01*
X85500Y106500D02*
X92564Y99436D01*
X97100Y167950D02*
Y170623D01*
X80900Y153650D02*
Y166832D01*
X109680Y94370D02*
X111500Y92550D01*
X141363Y191430D02*
X143380D01*
X146700Y194750D01*
X90400Y72350D02*
X95620D01*
X90800Y68450D02*
X93749D01*
X142750Y199828D02*
X143372Y200450D01*
X146400D01*
X59000Y195294D02*
X62285Y192009D01*
X59000Y195294D02*
Y206850D01*
X91847Y170346D02*
Y190839D01*
X84942Y183921D02*
Y185645D01*
Y183921D02*
X89276Y179586D01*
Y165382D02*
Y179586D01*
X62285Y192009D02*
X74789D01*
X135579Y106669D02*
X137348Y104900D01*
X100318Y79905D02*
X108580Y88167D01*
X109680Y94370D02*
Y110187D01*
X108580Y111637D02*
X109148Y112205D01*
X108580Y88167D02*
Y111637D01*
X140663Y192130D02*
X141363Y191430D01*
X111700Y96450D02*
Y110652D01*
X-4800Y45271D02*
Y71550D01*
X121980Y126985D02*
Y136291D01*
X180300Y110200D02*
X183049D01*
X183344Y109905D01*
X178299Y100900D02*
X180099Y99100D01*
X162580Y112971D02*
X165521D01*
X172550Y101600D02*
X173250Y100900D01*
X178299D01*
X162580Y103129D02*
X167221D01*
X168750Y101600D01*
X172550D01*
X166882Y114332D02*
X171232D01*
X181365Y119800D02*
Y119869D01*
X165521Y112971D02*
X166882Y114332D01*
X180278Y118781D02*
X181365Y119869D01*
X121980Y126985D02*
X123427Y125538D01*
X120880Y126529D02*
X122327Y125083D01*
X119780Y126074D02*
X121227Y124627D01*
X123427Y108145D02*
Y125538D01*
X122327Y108600D02*
Y125083D01*
X121227Y109528D02*
Y124627D01*
X132443Y106669D02*
X135579D01*
X138177D02*
X140408Y108900D01*
X132373Y106599D02*
X132443Y106669D01*
X140700Y106500D02*
X140800D01*
X144150Y103450D02*
X144471Y103129D01*
X95620Y72350D02*
X118054Y94784D01*
X93749Y68450D02*
X119206Y93907D01*
Y109133D01*
X118054Y94784D02*
Y109869D01*
X118669Y110483D01*
Y113464D01*
X114637Y117496D02*
X118669Y113464D01*
X90700Y63650D02*
X120306Y93256D01*
Y108607D01*
X122506Y73032D02*
Y107224D01*
Y73032D02*
X130678Y64861D01*
X121406Y71686D02*
Y107680D01*
Y71686D02*
X130251Y62841D01*
X133574D01*
X140408Y108900D02*
X142700D01*
X144750Y112400D02*
X145321Y112971D01*
X138177Y109919D02*
X142319D01*
X132750Y45100D02*
Y52072D01*
X109213Y41662D02*
X113972D01*
X105800Y43143D02*
X108742Y46085D01*
X106900Y42221D02*
X109842Y45164D01*
X108742Y46085D02*
Y49358D01*
X106800Y51300D02*
X108742Y49358D01*
X92750Y18796D02*
Y29828D01*
Y18796D02*
X93275Y18271D01*
X103000Y46000D02*
X103100Y46100D01*
X92750Y46289D02*
X93068Y45971D01*
X92750Y46289D02*
Y52072D01*
X69220Y48550D02*
X72101D01*
X-6867Y178783D02*
X5900Y191550D01*
X33069Y155119D02*
Y159281D01*
X31900Y160450D02*
X33069Y159281D01*
X31900Y160450D02*
Y160650D01*
X21700Y179550D02*
X44200Y202050D01*
X48775Y190525D02*
Y194765D01*
X86803Y224325D02*
Y225647D01*
X86100Y223950D02*
X86475Y224325D01*
X86803D01*
X83800Y228650D02*
X86803Y225647D01*
X96320Y209270D02*
X98200Y211150D01*
X96100Y209270D02*
X96320D01*
X57000Y208850D02*
X59000Y206850D01*
X50500Y209050D02*
X52600D01*
X139100Y104900D02*
X140700Y106500D01*
X137348Y104900D02*
X139100D01*
X135579Y109919D02*
X137611Y111951D01*
X141036D01*
X224576Y185934D02*
Y195736D01*
X223397Y196915D02*
X224576Y195736D01*
X204275Y185450D02*
X207300D01*
X203439Y186286D02*
X204275Y185450D01*
X203439Y186286D02*
Y190071D01*
X204276Y190908D01*
X219868D01*
X220697Y191738D01*
Y192999D01*
X220013Y193683D02*
X220697Y192999D01*
X139025Y18471D02*
Y21742D01*
X132750Y27403D02*
Y29828D01*
Y27403D02*
X135972Y24180D01*
X136587D01*
X139025Y21742D01*
X133716Y20030D02*
Y22161D01*
X132434Y23443D02*
X133716Y22161D01*
X122750Y27470D02*
Y29828D01*
Y27470D02*
X126777Y23443D01*
X132434D01*
X126644Y28455D02*
X130299Y24800D01*
X116200Y42400D02*
X120585Y38015D01*
X132142D01*
X113972Y41662D02*
X119540Y36094D01*
X59643Y-8497D02*
X81588D01*
X106900Y16815D01*
Y42221D01*
X80839Y-2134D02*
X86919Y3946D01*
X89763D01*
X105800Y19983D01*
Y43143D01*
X132142Y38015D02*
X136695Y33462D01*
X123550Y39650D02*
X132832D01*
X138018Y34464D01*
X91368Y17580D02*
X93275Y15673D01*
X91368Y17580D02*
Y19883D01*
X88400Y22851D02*
X91368Y19883D01*
X68513Y12682D02*
Y15629D01*
Y12682D02*
X70605Y10590D01*
X74450D01*
X75988Y12127D01*
X75852Y23803D02*
Y37550D01*
X78378Y17164D02*
X79913Y15629D01*
X78378Y17164D02*
Y56246D01*
X73800Y60823D02*
X78378Y56246D01*
X67055Y46347D02*
X75852Y37550D01*
X71963Y15629D02*
X73969Y17635D01*
Y21920D01*
X75852Y23803D01*
X67055Y46347D02*
Y71505D01*
X70000Y74450D01*
X73800Y60823D02*
Y72750D01*
X8500Y140298D02*
Y169618D01*
X18432Y179550D01*
X7500Y178078D02*
X38300Y208878D01*
Y222449D01*
X23900Y190250D02*
X39300Y205650D01*
Y221650D01*
X18432Y179550D02*
X21700D01*
X24800Y179651D02*
X43699Y198550D01*
X46200D01*
X31500Y177650D02*
X33663D01*
X39563Y183550D01*
X45816D01*
X50200Y206250D02*
X53797D01*
X55861Y195466D02*
Y204186D01*
X53797Y206250D02*
X55861Y204186D01*
X45816Y183550D02*
X57152Y194886D01*
Y204498D01*
X52600Y209050D02*
X57152Y204498D01*
X62750Y199828D02*
Y202101D01*
X66900Y206251D01*
Y208450D01*
X61100Y208750D02*
X62820Y210470D01*
X86916Y195770D02*
X91847Y190839D01*
X84852Y205572D02*
Y206474D01*
Y205572D02*
X86916Y203508D01*
Y195770D02*
Y203508D01*
X62820Y210470D02*
X73471D01*
X77362Y206578D01*
Y197498D02*
Y206578D01*
X119595Y138676D02*
X121980Y136291D01*
X120880Y126529D02*
Y135338D01*
X119780Y126074D02*
Y134498D01*
X119540Y36094D02*
X123859D01*
X126644Y33309D01*
Y28455D02*
Y33309D01*
X142750Y27560D02*
Y29828D01*
Y27560D02*
X147025Y23285D01*
Y18527D02*
Y23285D01*
X138018Y27057D02*
Y34464D01*
Y27057D02*
X142802Y22273D01*
X136695Y26393D02*
Y33462D01*
Y26393D02*
X140600Y22488D01*
X139025Y15873D02*
X140600Y17448D01*
Y22488D01*
X135275Y15873D02*
X137000Y17598D01*
Y20800D01*
X145320Y15929D02*
X146912D01*
X147025Y15929D02*
X147274Y15679D01*
Y12745D02*
Y15679D01*
X111142Y59200D02*
X112900D01*
X109842Y45164D02*
Y57901D01*
X111142Y59200D01*
X96410Y156030D02*
X107867D01*
X119595Y138676D02*
Y160047D01*
X29156Y178805D02*
X36597Y186246D01*
X44496D01*
X48775Y190525D01*
X34900Y181850D02*
X38103Y185053D01*
X45448D01*
X55861Y195466D01*
X122506Y107224D02*
X123427Y108145D01*
X121406Y107680D02*
X122327Y108600D01*
X120306Y108607D02*
X121227Y109528D01*
X119206Y109133D02*
X120127Y110054D01*
Y124171D01*
X131537Y18275D02*
X133500Y16312D01*
X134201Y14300D02*
X137600D01*
X133500Y15001D02*
X134201Y14300D01*
X133500Y15001D02*
Y16312D01*
X142319Y109919D02*
X142783Y110383D01*
X146194D01*
X146813Y111003D01*
X147620D01*
X146807Y109034D02*
X147620D01*
X133969Y110505D02*
X134993D01*
X135579Y109919D01*
X132235Y112239D02*
X133969Y110505D01*
X111700Y110652D02*
X114196Y113148D01*
Y116381D01*
X113537Y117040D02*
X114196Y116381D01*
X109680Y110187D02*
X113200Y113707D01*
Y115822D01*
X112264Y116758D02*
X113200Y115822D01*
X63772Y167122D02*
X67502Y170852D01*
X76880D01*
X80900Y166832D01*
X15700Y159550D02*
Y163474D01*
X24800Y172574D01*
Y179651D01*
X207190Y196048D02*
X208058Y196915D01*
X223397D01*
X207190Y194481D02*
Y196048D01*
Y194481D02*
X207988Y193683D01*
X220013D01*
X103698Y137073D02*
X108806D01*
X104107Y139469D02*
X108848D01*
X103705Y134157D02*
X106716D01*
X103295Y136670D02*
X103698Y137073D01*
X103295Y134567D02*
X103705Y134157D01*
X103295Y134567D02*
Y136670D01*
X103478Y140099D02*
X104107Y139469D01*
X103478Y140099D02*
Y141845D01*
X104085Y142452D01*
X93064Y179167D02*
X93641Y178590D01*
X93064Y179167D02*
Y180400D01*
X93672Y181008D01*
X98911D01*
X99600Y181697D01*
X105961Y167405D02*
X107647Y169091D01*
Y180148D01*
X99013Y184019D02*
X99600Y183432D01*
X93911Y184019D02*
X99013D01*
X93182Y184748D02*
X93911Y184019D01*
X93182Y184748D02*
Y186053D01*
X93892Y186762D01*
X99215D01*
X99600Y187147D01*
Y181697D02*
Y183432D01*
X98938Y189171D02*
X99600Y188509D01*
X94174Y189171D02*
X98938D01*
X93468Y189877D02*
X94174Y189171D01*
X99600Y187147D02*
Y188509D01*
Y191583D02*
Y191950D01*
X93468Y189877D02*
Y191350D01*
X94068Y191950D01*
X99600D01*
X99557Y175383D02*
X100152Y175977D01*
X102196D01*
X102666Y176448D01*
Y177916D01*
X101992Y178590D02*
X102666Y177916D01*
X93641Y178590D02*
X101992D01*
X97100Y167950D02*
X99435Y165615D01*
X99557Y170534D02*
Y175383D01*
Y170534D02*
X102687Y167405D01*
X105961D01*
X102402Y184266D02*
Y190087D01*
X112750Y222072D02*
Y224434D01*
X110436Y226748D02*
X112750Y224434D01*
X111557Y230318D02*
X112741Y229134D01*
X72750Y222072D02*
Y224644D01*
X68953Y228441D02*
X72750Y224644D01*
X67317Y228441D02*
X68953D01*
X66950Y228808D02*
X67317Y228441D01*
X66950Y228808D02*
Y229916D01*
X91847Y170346D02*
X96296Y165897D01*
X96953D01*
X99594Y163256D01*
X94869Y165124D02*
Y165685D01*
X99435Y165615D02*
X105964D01*
X99594Y163256D02*
X106308D01*
X102402Y190087D02*
X109738Y197423D01*
X58466Y215017D02*
X61316Y212166D01*
X79160D01*
X84852Y206474D01*
X119400Y189239D02*
Y204603D01*
X117220Y191870D02*
Y205974D01*
X119400Y204603D02*
X123088Y208291D01*
X117220Y205974D02*
X122575Y211329D01*
X122750Y202300D02*
X125537Y205087D01*
Y206571D01*
X127357Y208391D01*
X122575Y211329D02*
X127649D01*
X131410Y215090D01*
X109738Y197423D02*
Y210343D01*
X116802Y217407D01*
Y228166D01*
G54D60*
X2527Y83920D02*
X2562Y83955D01*
X2444Y83837D02*
X2527Y83920D01*
X199600Y16200D02*
X206000Y22600D01*
X199600Y106D02*
Y16200D01*
X189382Y88D02*
Y4382D01*
X189364Y70D02*
X189382Y88D01*
G54D61*
X140802Y12300D02*
X142802Y14300D01*
X-931Y57081D02*
X2443D01*
X165690Y186887D02*
X167170Y188368D01*
Y189362D01*
X163233D02*
Y191607D01*
X164006Y192379D01*
X157796Y197436D02*
X159704Y199344D01*
X157796Y193582D02*
Y197436D01*
X154425Y156652D02*
X163110D01*
X153606Y157471D02*
X154425Y156652D01*
X153606Y157471D02*
Y159305D01*
X169405Y132996D02*
X171307D01*
X167170Y189362D02*
X171314D01*
Y192764D01*
X174819Y156652D02*
X174843Y156676D01*
Y160178D01*
X167047Y156652D02*
X170881D01*
Y159678D01*
X167047Y156652D02*
Y162326D01*
X173480Y128855D02*
Y130823D01*
X240006Y142711D02*
X241075D01*
X243385Y145021D01*
X243527D01*
X91355Y142405D02*
Y144060D01*
X55870Y161295D02*
X63772D01*
X51822Y161255D02*
X55830D01*
X63021Y88005D02*
X69278D01*
X72395D01*
X36452Y161255D02*
X51822D01*
X14706Y124017D02*
X17133D01*
X14621Y142914D02*
X17136D01*
X14595Y142940D02*
X14621Y142914D01*
X14595Y141355D02*
Y142940D01*
X14655Y119952D02*
Y123966D01*
X36218Y88141D02*
Y90732D01*
X36192Y88115D02*
X36218Y88141D01*
X36192Y88115D02*
X37735D01*
X34716D02*
X36192D01*
X6710Y83985D02*
X10882D01*
X14591Y75809D02*
X15803D01*
Y72029D02*
X19886D01*
X12500Y68650D02*
X15803Y71953D01*
X6710Y87884D02*
Y90340D01*
Y87845D02*
Y87884D01*
X9629Y97350D02*
X10875Y96104D01*
X39900Y120950D02*
Y125396D01*
X34546Y130750D02*
X39900Y125396D01*
X30100Y130750D02*
X34546D01*
X39900Y110314D02*
Y120950D01*
X36218Y106632D02*
X39900Y110314D01*
X30100Y130750D02*
Y138050D01*
Y125550D02*
Y130750D01*
X36218Y104218D02*
Y106632D01*
X34900Y102900D02*
X36218Y104218D01*
X29200Y102900D02*
X34900D01*
X131537Y14023D02*
Y14416D01*
Y13563D02*
Y14023D01*
X206000Y28900D02*
Y30327D01*
X203661Y32666D02*
X206000Y30327D01*
X203661Y32666D02*
Y33859D01*
X18714Y163864D02*
X26900Y172050D01*
X91404Y148190D02*
Y151440D01*
X201675Y170890D02*
Y172226D01*
X200684Y169899D02*
X201675Y170890D01*
X204343Y88D02*
X221231D01*
X142802Y14300D02*
Y14416D01*
X87018Y18083D02*
Y20732D01*
X75988Y18083D02*
Y20838D01*
X211697Y141400D02*
X213207D01*
X211265D02*
X211697D01*
X206973D02*
X207405D01*
X202850D02*
X206973D01*
X67752Y165154D02*
Y167902D01*
Y165075D02*
Y165154D01*
X71768Y165183D02*
Y165918D01*
Y165105D02*
Y165183D01*
X55830Y165154D02*
Y167780D01*
Y165115D02*
Y165154D01*
X188303Y120754D02*
X188496D01*
X188225D02*
X188303D01*
X10796Y100356D02*
X10835D01*
X10694D02*
X10796D01*
Y91774D02*
X10875D01*
X10576D02*
X10796D01*
X19920Y75775D02*
Y75854D01*
X2562Y87853D02*
Y90488D01*
Y87815D02*
Y87853D01*
X-1540Y87818D02*
Y90550D01*
Y87780D02*
Y87818D01*
X6568Y57016D02*
Y57095D01*
X64016Y127166D02*
X76116D01*
X131750Y12300D02*
X132800D01*
X130500Y11050D02*
X131750Y12300D01*
X202500Y141050D02*
X202850Y141400D01*
X202200Y141050D02*
X202500D01*
X76800Y166177D02*
Y168050D01*
X188496Y120754D02*
X191700Y117550D01*
Y116550D02*
Y117550D01*
X10500Y100550D02*
X10694Y100356D01*
X8000Y100550D02*
X10500D01*
X10735Y145950D02*
X10800D01*
X10835Y126950D02*
X10900D01*
X36173Y167823D02*
X36200Y167850D01*
X36173Y164994D02*
Y167823D01*
X8322Y42689D02*
X11800D01*
X13400Y87750D02*
X13800D01*
X55830Y167780D02*
X56000Y167950D01*
X48800Y167650D02*
X51335Y165115D01*
X9700Y115950D02*
X10789Y114861D01*
X2200Y90850D02*
X2562Y90488D01*
X44300Y85650D02*
X45665Y84285D01*
X71768Y165918D02*
X73900Y168050D01*
X76800D01*
X146000Y185100D02*
X148060Y183040D01*
X184445Y113355D02*
Y116704D01*
Y113355D02*
X186300Y111500D01*
Y107850D02*
Y111500D01*
X184700Y106250D02*
X186300Y107850D01*
X184200Y106250D02*
X184700D01*
X184075Y106125D02*
X184200Y106250D01*
X183344Y106125D02*
X184075D01*
X184445Y116704D02*
Y120754D01*
X180791Y116650D02*
X184445Y116704D01*
X183344Y106125D02*
X183374Y106095D01*
Y102105D02*
Y106095D01*
X191579Y102140D02*
X191614Y102105D01*
X187500Y102140D02*
X191579D01*
X187465Y102105D02*
X187500Y102140D01*
X183374Y102105D02*
X187465D01*
X179290Y102750D02*
X179935Y102105D01*
X183374D01*
X6554Y60861D02*
X6568Y60875D01*
X2443Y60861D02*
X6554D01*
X191600Y94950D02*
X191614Y94964D01*
X21400Y48950D02*
Y50150D01*
X-1133Y53148D02*
X1673Y50350D01*
X-1133Y53148D02*
Y53150D01*
X239650Y154540D02*
X241100Y155990D01*
Y156850D01*
X243780Y159530D01*
X244275D01*
X217745Y131330D02*
X219325D01*
X-2300Y58450D02*
X-931Y57081D01*
X6400Y90650D02*
X6710Y90340D01*
X6300Y90650D02*
X6400D01*
X15803Y71953D02*
Y72029D01*
X19886D02*
X19920Y71995D01*
X87505Y148190D02*
X87575Y148120D01*
Y144060D02*
Y148120D01*
X10875Y118675D02*
Y119952D01*
Y118675D02*
X14649Y114901D01*
Y113010D02*
Y114901D01*
Y108886D02*
X14655Y108880D01*
X14649Y108886D02*
Y113010D01*
X5336Y121449D02*
X8972D01*
X10469Y119952D01*
X10875D01*
X14649Y113010D02*
X14666Y112993D01*
X17157D01*
X14655Y91774D02*
Y96104D01*
X14695Y96144D01*
Y100356D01*
X14734Y100395D01*
X16855D01*
X46965Y101085D02*
Y103915D01*
X57618Y114568D01*
X77182D01*
X47268Y88145D02*
X51560D01*
X47242Y88171D02*
X47268Y88145D01*
X47242Y88171D02*
Y90508D01*
X5500Y97350D02*
X9629D01*
X174660Y103600D02*
X175510Y102750D01*
X2660Y38590D02*
Y41591D01*
Y38590D02*
X4075Y37175D01*
X11125D01*
X15802Y41852D01*
Y42689D01*
X-3200Y82260D02*
X-1540Y83920D01*
X2527D01*
X32401Y85800D02*
X34716Y88115D01*
X72395Y88005D02*
X73200Y87200D01*
X30100Y138050D02*
X32100Y140050D01*
X55100D01*
X58000Y142950D01*
X75700D01*
X28567Y124017D02*
X30100Y125550D01*
X25233Y124017D02*
X28567D01*
X39900Y120950D02*
X57800D01*
X64016Y127166D01*
X28385Y139765D02*
X30100Y138050D01*
X25485Y139765D02*
X28385D01*
X67500Y101250D02*
X69289Y99461D01*
X55500Y101250D02*
X67500D01*
X53400Y99150D02*
X55500Y101250D01*
X73800Y109850D02*
X76700D01*
X71400Y107450D02*
X73800Y109850D01*
X71400Y101572D02*
Y107450D01*
X69289Y99461D02*
X71400Y101572D01*
X26425Y109843D02*
X33007D01*
X36218Y106632D01*
X14655Y123966D02*
X14706Y124017D01*
X90449Y141499D02*
X91355Y142405D01*
X89334Y141499D02*
X90449D01*
X25336Y142914D02*
X30964D01*
X35800Y147750D01*
Y150450D01*
X36252Y161055D02*
X36452Y161255D01*
X55830D02*
X55870Y161295D01*
X14595Y141355D02*
X16185Y139765D01*
X10882Y83985D02*
X14885D01*
X17700Y86800D02*
Y91400D01*
X29200Y102900D01*
X12700Y77700D02*
X14591Y75809D01*
X171307Y132996D02*
X173480Y130823D01*
X138490Y80117D02*
X140155D01*
X136490Y82117D02*
X138490Y80117D01*
X136490Y82117D02*
Y84845D01*
X169355Y80117D02*
X171499D01*
X173560Y82178D01*
Y84645D01*
X167082Y9182D02*
X187382D01*
X189382Y7182D01*
Y4382D02*
Y7182D01*
X12062Y49384D02*
Y51941D01*
Y49384D02*
X13600Y47846D01*
X91792Y105000D02*
X93500D01*
X86500Y114568D02*
X87497Y115565D01*
Y115830D01*
X85418Y114568D02*
X86500D01*
X87497Y115830D02*
Y120120D01*
X91434Y115830D02*
X94350D01*
X91434Y120150D02*
X93350D01*
X191614Y94964D02*
Y98247D01*
Y98325D01*
X93350Y120150D02*
X94500Y119000D01*
X102161Y111299D02*
X106187D01*
X146000Y185100D02*
Y187080D01*
X140385Y133156D02*
X140785Y133556D01*
X140385Y129343D02*
Y133156D01*
X135778Y120228D02*
X136811D01*
X138991Y141824D02*
X140785D01*
X135000Y137833D02*
X138991Y141824D01*
X135000Y131200D02*
Y137833D01*
X93867Y173060D02*
X95366Y174559D01*
X97100D01*
X95562Y121891D02*
X97500Y119953D01*
X93867Y171184D02*
Y173060D01*
X219325Y131330D02*
X222520Y134525D01*
X101670Y59800D02*
X105300D01*
X19920Y75854D02*
Y78550D01*
X238875Y141580D02*
X240006Y142711D01*
X178350Y106700D02*
X178400Y106650D01*
X175914Y106700D02*
X178350D01*
X167982Y112432D02*
X172527D01*
X176745Y116650D01*
X209200Y131072D02*
X209457Y131330D01*
X213021D01*
X140385Y123046D02*
Y125406D01*
X135000Y131200D02*
X137647Y128553D01*
X135439Y126655D02*
X135778Y126315D01*
Y124164D02*
Y126315D01*
X136811Y120228D02*
X139372Y117667D01*
Y115401D02*
Y117667D01*
X67752Y167902D02*
X68200Y168350D01*
X88792Y108000D02*
X91792Y105000D01*
X88792Y108000D02*
Y108669D01*
X112750Y49369D02*
X115735Y46383D01*
X112750Y49369D02*
Y52072D01*
X87018Y18083D02*
X87651D01*
X97015Y55145D02*
X101670Y59800D01*
X97015Y47267D02*
Y55145D01*
X47220Y78630D02*
X53646D01*
X63021Y88005D01*
X1673Y50350D02*
X7125D01*
X9181Y52406D01*
X5800Y54250D02*
Y56248D01*
X6568Y57016D01*
X9181Y52406D02*
Y54766D01*
X8227Y94123D02*
X10576Y91774D01*
X7217Y94123D02*
X8227D01*
X26900Y172050D02*
Y179251D01*
X106098Y92446D02*
Y99436D01*
X91744Y13067D02*
X94806D01*
X87651Y18083D02*
X89411Y16323D01*
Y15401D02*
Y16323D01*
Y15401D02*
X91744Y13067D01*
X26900Y179251D02*
X39999Y192350D01*
X44100D01*
X9181Y54766D02*
X10405Y55990D01*
X15560D01*
X21400Y50150D01*
X131537Y13563D02*
X132800Y12300D01*
X140802D01*
X97015Y47267D02*
X99020Y45262D01*
X94806Y13067D02*
X99020Y17281D01*
Y45262D01*
X18714Y160091D02*
Y163864D01*
Y160091D02*
X21600Y157205D01*
X37735Y88115D02*
X47220Y78630D01*
X36192Y82767D02*
Y84216D01*
X35022Y81597D02*
X36192Y82767D01*
X51551Y84237D02*
X51560Y84246D01*
X51551Y81623D02*
Y84237D01*
X170881Y159678D02*
X170984D01*
X170881D02*
Y160178D01*
X211265Y139298D02*
Y141400D01*
Y143502D01*
X10782Y87845D02*
X13400D01*
Y87750D02*
Y87845D01*
X45665Y84285D02*
X47268D01*
X10789Y113010D02*
Y114861D01*
X10795Y105950D02*
Y108880D01*
X-700Y113969D02*
X5336D01*
X10835Y124006D02*
Y126950D01*
X10735Y142940D02*
Y145950D01*
X36173Y164994D02*
X36252Y164915D01*
X51335Y165115D02*
X51822D01*
X148995Y159305D02*
X153606D01*
X75728Y165105D02*
X76800Y166177D01*
X148060Y183040D02*
X148795D01*
G54D62*
X173680Y124996D02*
X175887D01*
X173480Y124796D02*
X173680Y124996D01*
X173482Y88503D02*
X175927D01*
G54D65*
X144700Y107779D02*
X145509D01*
X146222Y107066D01*
X147620D01*
X159037Y118319D02*
X159605Y118886D01*
X159037Y114113D02*
Y118319D01*
X146559Y118906D02*
X150327D01*
X151163Y118069D01*
Y114113D02*
Y118069D01*
X143309Y115401D02*
Y116841D01*
X159530Y95534D02*
X160308D01*
X159037Y96027D02*
X159530Y95534D01*
X159037Y96027D02*
Y101987D01*
X149857Y95117D02*
X150390D01*
X151163Y95890D01*
Y101987D01*
X59812Y165075D02*
X60600Y165863D01*
X162580Y109034D02*
X165584D01*
X78200Y150650D02*
X81400D01*
X76900Y149350D02*
X78200Y150650D01*
X70800Y149350D02*
X76900D01*
X69289Y150861D02*
X70800Y149350D01*
X162580Y105097D02*
X168053D01*
X153131Y114113D02*
Y119820D01*
X151251Y121700D02*
X153131Y119820D01*
X157069Y114113D02*
Y119924D01*
X159095Y121950D01*
X152155Y93080D02*
X153131Y94056D01*
Y101987D01*
X157069Y94432D02*
Y101987D01*
Y94432D02*
X158851Y92650D01*
X199600Y106D02*
X199618Y88D01*
X82580Y151830D02*
Y167131D01*
X81400Y150650D02*
X82580Y151830D01*
X143309Y115401D02*
X143474Y115235D01*
X162580Y107066D02*
X166516D01*
X166900Y107450D01*
X162580Y111003D02*
X163753D01*
X164300Y111550D01*
X165584Y109034D02*
X165900Y109350D01*
X164300Y111550D02*
X167100D01*
X170032Y106700D02*
X171976D01*
X169282Y107450D02*
X170032Y106700D01*
X166900Y107450D02*
X169282D01*
X167100Y111550D02*
X167982Y112432D01*
X171642Y107034D02*
X171976Y106700D01*
X171642Y107034D02*
Y109608D01*
X137647Y128553D02*
X138065Y128135D01*
Y122085D02*
Y128135D01*
Y122085D02*
X143309Y116841D01*
X60600Y165863D02*
Y170443D01*
X143474Y115235D02*
X147620D01*
X147353Y101131D02*
X147620Y100865D01*
X142237Y101131D02*
X147353D01*
X136872Y98788D02*
X139893D01*
X142237Y101131D01*
X60600Y170443D02*
X64395Y174238D01*
X75473D01*
X82580Y167131D01*
X147620Y115215D02*
X148820D01*
X147620Y100788D02*
X148882D01*
X159605Y118886D02*
X164974D01*
X6806Y15235D02*
X8472Y14402D01*
X10139Y12736D01*
Y11069D01*
X9306Y10236D01*
X7639D01*
X6806Y11069D01*
Y11902D01*
X7639Y12736D01*
X10139D01*
X380200Y-174000D02*
Y-153717D01*
X261300Y-173350D02*
X521000D01*
Y-112350D01*
X107300Y-173350D02*
Y-112350D01*
X-139200Y-173350D02*
Y-112350D01*
X-139150Y-173350D02*
X18400D01*
X-139150D02*
Y-112350D01*
Y-112350D02*
X521000D01*
X-139200Y-173350D02*
X261300D01*
X-139200Y-153017D02*
X520800D01*
X-139200Y-132683D02*
X521000D01*
X234000D02*
Y-112350D01*
X318000Y-132683D02*
Y-112350D01*
G54D69*
X17700Y86800D02*
X18700Y85800D01*
X157369Y206507D02*
X160285D01*
X153251Y202390D02*
X157369Y206507D01*
X153251Y196539D02*
Y202390D01*
X162217Y208439D02*
Y212942D01*
X160285Y206507D02*
X162217Y208439D01*
X172223Y222948D02*
X182750D01*
X162217Y212942D02*
X172223Y222948D01*
X157202D02*
X162750D01*
X172750Y208952D02*
X177300D01*
X142181Y159871D02*
Y163769D01*
X14885Y83985D02*
X17700Y86800D01*
X18700Y85800D02*
X32401D01*
G54D70*
X52750Y223950D02*
Y228350D01*
Y222072D02*
Y223950D01*
Y222072D02*
X56500D01*
X52750Y29828D02*
Y35421D01*
X55579Y38250D01*
X71300D01*
X55472Y49350D02*
X56800D01*
X52750Y52072D02*
X55472Y49350D01*
X52750Y52072D02*
Y52850D01*
X49100Y56500D02*
X52750Y52850D01*
X49100Y56500D02*
Y56700D01*
X48200Y223950D02*
X52750D01*
G54D71*
X201360Y33581D02*
Y36650D01*
Y33581D02*
X201360Y33580D01*
Y25350D02*
Y33580D01*
X199300Y34000D02*
X200200Y33100D01*
Y25831D02*
Y33100D01*
X197119Y21110D02*
X201360Y25350D01*
X195959Y21590D02*
X200200Y25831D01*
X195959Y3686D02*
Y21590D01*
X197119Y3206D02*
Y21110D01*
X197118Y3205D02*
X197119Y3206D01*
X197118Y88D02*
Y3205D01*
X194500Y2227D02*
X195959Y3686D01*
X194500Y88D02*
Y2227D01*
X84103Y103778D02*
X84607D01*
X83869Y103544D02*
X84103Y103778D01*
X81494Y103544D02*
X83869D01*
X84080Y104938D02*
X85087D01*
X83899Y105119D02*
X84080Y104938D01*
X81554Y105119D02*
X83899D01*
X145430Y58510D02*
X152509Y51431D01*
X118940Y58510D02*
X145430D01*
X145910Y59670D02*
X152989Y52591D01*
X119420Y59670D02*
X145910D01*
X115391Y63700D02*
X119420Y59670D01*
X198450Y34000D02*
X199300D01*
X196400Y31950D02*
X198450Y34000D01*
X201959Y37450D02*
X202060Y37350D01*
X197060Y37450D02*
X201959D01*
X201360Y36650D02*
X202060Y37350D01*
X71768Y161325D02*
X72439Y160654D01*
Y155119D02*
Y160654D01*
X196400Y31950D02*
Y36469D01*
X96640Y58390D02*
X100790Y62540D01*
X90560Y59550D02*
X96159D01*
X100310Y63700D01*
X89399Y59070D02*
Y59095D01*
Y59070D02*
X90079Y58390D01*
X96640D01*
X87660Y62475D02*
X90560Y59575D01*
Y59550D02*
Y59575D01*
X86500Y94905D02*
X88300Y96705D01*
X86500Y61994D02*
X89399Y59095D01*
X87660Y94424D02*
X89460Y96224D01*
X88300Y96706D02*
Y100085D01*
Y96706D02*
X88300Y96705D01*
X181918Y52591D02*
X197060Y37450D01*
X152509Y51431D02*
X181438D01*
X196400Y36469D01*
X152989Y52591D02*
X181918D01*
X84607Y103778D02*
X88300Y100085D01*
X89460Y96224D02*
Y100565D01*
X85087Y104938D02*
X89460Y100565D01*
X86500Y61994D02*
Y94905D01*
X87660Y62475D02*
Y94424D01*
X100310Y63700D02*
X115391D01*
X100790Y62540D02*
X114910D01*
X118940Y58510D01*
G54D72*
X208280Y-10542D02*
Y-3849D01*
X204343Y88D02*
X208280Y-3849D01*
X135719Y152905D02*
Y159709D01*
X135881Y159871D01*
X21400Y48950D02*
X25200Y45150D01*
X31700D01*
X45100Y28050D02*
Y28350D01*
X35100Y38350D02*
X45100Y28350D01*
X35100Y38350D02*
Y41750D01*
X31700Y45150D02*
X35100Y41750D01*
X180721Y-10542D02*
Y-3849D01*
X184658Y88D01*
G54D73*
X165268Y132996D02*
X169405D01*
X135881Y163231D02*
X137100Y164450D01*
X135881Y159871D02*
Y163231D01*
X167100Y2900D02*
X170550D01*
X173550Y-100D01*
X251250Y138600D02*
X254100Y135750D01*
X168053Y105097D02*
X169550Y103600D01*
X174660D01*
X-3200Y80750D02*
Y82260D01*
X140155Y80117D02*
X144592D01*
X165268Y80251D02*
X165402Y80117D01*
X169355D01*
X140785Y133753D02*
X144982D01*
X62750Y52072D02*
Y57718D01*
X249815Y138600D02*
X251250D01*
G54D74*
X143312Y105759D02*
X145585D01*
X146247Y105097D01*
X139253Y101286D02*
X139486D01*
X141600Y103400D01*
X146247Y105097D02*
X147620D01*
X141600Y103400D02*
Y104048D01*
X143312Y105759D01*
G54D76*
X10122Y83225D02*
X10882Y83985D01*
X6710D02*
X7563Y83132D01*
X10122Y67332D02*
X11182D01*
X7500Y63950D02*
X7563D01*
X2443Y60861D02*
Y67331D01*
X2444Y67332D01*
X11182D02*
X12500Y68650D01*
X2444Y79144D02*
X5003D01*
X2444D02*
Y83837D01*
X7563Y79144D02*
Y83132D01*
X10122Y79144D02*
Y83225D01*
Y79144D02*
X11256D01*
X12700Y77700D01*
X236125Y138480D02*
X236875D01*
X7563Y63950D02*
Y67332D01*
G54D77*
X136490Y88625D02*
Y91610D01*
X136300Y91800D02*
X136490Y91610D01*
G54D80*
X75736Y142914D02*
X85037D01*
X55830Y161255D02*
X56691Y160394D01*
X55116Y160541D02*
X55830Y161255D01*
X51803Y161236D02*
X51822Y161255D01*
X69289Y88016D02*
Y99461D01*
X36218Y150868D02*
Y161021D01*
X17136Y142914D02*
X25336D01*
X16185Y139765D02*
X25485D01*
X17133Y124017D02*
X25233D01*
X36218Y90732D02*
Y94489D01*
X78229Y125591D02*
X81494D01*
X76688Y124050D02*
X78229Y125591D01*
X76116Y127166D02*
X81494D01*
X86511Y141440D02*
X89275D01*
X27082Y114568D02*
X28400Y113250D01*
X20864Y114568D02*
X27082D01*
X20864Y125591D02*
X23741D01*
X26600Y128450D01*
X48817Y98767D02*
X50500Y100450D01*
X48817Y94489D02*
Y98767D01*
X76900Y145950D02*
X78589Y147639D01*
X81494D01*
X77031Y155119D02*
X77900Y154250D01*
X75588Y155119D02*
X77031D01*
X66140Y150390D02*
Y155119D01*
X64900Y149150D02*
X66140Y150390D01*
X59000Y150550D02*
X60100D01*
X61415Y151865D01*
Y155119D01*
X50392Y152059D02*
Y155119D01*
Y152059D02*
X52401Y150050D01*
X53100D01*
X81494Y144489D02*
X87146D01*
X87575Y144060D01*
X17157Y112993D02*
X20864D01*
X76445Y100395D02*
X81494D01*
X75100Y99050D02*
X76445Y100395D01*
X69289Y150861D02*
Y155119D01*
X78381Y101969D02*
X81494D01*
X76400Y103950D02*
X78381Y101969D01*
X16855Y100395D02*
X20864D01*
X47242Y90508D02*
Y100808D01*
X46965Y101085D02*
X47242Y100808D01*
X37793Y151857D02*
Y155119D01*
X75700Y142950D02*
X75736Y142914D01*
X26425Y109843D02*
Y110125D01*
X25132Y111418D02*
X26425Y110125D01*
X20864Y111418D02*
X25132D01*
X20864Y109843D02*
X23807D01*
X24200Y109450D01*
X26032D01*
X26425Y109843D01*
X52086Y99150D02*
X53400D01*
X50392Y97456D02*
X52086Y99150D01*
X50392Y94489D02*
Y97456D01*
X81487Y109850D02*
X81494Y109843D01*
X76700Y109850D02*
X81487D01*
X85037Y142914D02*
X86511Y141440D01*
X55116Y155119D02*
Y160541D01*
X56691Y155119D02*
Y160394D01*
X77182Y114568D02*
X85418D01*
X37793Y151857D02*
X39300Y150350D01*
X48817Y155119D02*
Y158250D01*
X51822Y159662D02*
Y161216D01*
X48817Y158250D02*
X49515Y158948D01*
X51107D01*
X51822Y159662D01*
X-52300Y-139851D02*
Y-145849D01*
X-49301D01*
X-48301Y-144850D01*
Y-143850D01*
X-49301Y-142850D01*
X-52300D01*
X-49301D01*
X-48301Y-141851D01*
Y-140851D01*
X-49301Y-139851D01*
X-52300D01*
X-43303D02*
X-45302D01*
X-46302Y-140851D01*
Y-144850D01*
X-45302Y-145849D01*
X-43303D01*
X-42303Y-144850D01*
Y-140851D01*
X-43303Y-139851D01*
X-40304D02*
X-36305D01*
X-38304D01*
Y-145849D01*
X-34306Y-139851D02*
X-30307D01*
X-32307D01*
Y-145849D01*
X-25309Y-139851D02*
X-27308D01*
X-28308Y-140851D01*
Y-144850D01*
X-27308Y-145849D01*
X-25309D01*
X-24309Y-144850D01*
Y-140851D01*
X-25309Y-139851D01*
X-22310Y-145849D02*
Y-139851D01*
X-20310Y-141851D01*
X-18311Y-139851D01*
Y-145849D01*
X169350Y-145900D02*
Y-139902D01*
X173349Y-145900D01*
Y-139902D01*
X175348Y-145900D02*
X179347Y-141901D01*
X181346Y-145900D02*
Y-141901D01*
X183345Y-139902D01*
X185345Y-141901D01*
Y-145900D01*
Y-142901D01*
X181346D01*
X114800Y-139902D02*
X118799D01*
X116799D01*
Y-145900D01*
X120798Y-139902D02*
X122797D01*
X121798D01*
Y-145900D01*
X120798D01*
X122797D01*
X125796Y-139902D02*
Y-145900D01*
X128796D01*
X129795Y-144900D01*
Y-140902D01*
X128796Y-139902D01*
X125796D01*
X138792Y-145900D02*
Y-139902D01*
X140792D02*
Y-145900D01*
X137793Y-141901D02*
X140792D01*
X141791D01*
X137793Y-143901D02*
X141791D01*
X143791Y-141901D02*
X144790D01*
Y-142901D01*
X143791D01*
Y-141901D01*
Y-144900D02*
X144790D01*
Y-145900D01*
X143791D01*
Y-144900D01*
X401300Y-160435D02*
X405299D01*
X403299D01*
Y-166434D01*
X411297Y-160435D02*
X407298D01*
Y-166434D01*
X411297D01*
X407298Y-163435D02*
X409297D01*
X413296Y-160435D02*
X417295Y-166434D01*
Y-160435D02*
X413296Y-166434D01*
X419294D02*
Y-162435D01*
X421293Y-160435D01*
X423293Y-162435D01*
Y-166434D01*
Y-163435D01*
X419294D01*
X429291Y-161435D02*
X428291Y-160435D01*
X426292D01*
X425292Y-161435D01*
Y-162435D01*
X426292Y-163435D01*
X428291D01*
X429291Y-164434D01*
Y-165434D01*
X428291Y-166434D01*
X426292D01*
X425292Y-165434D01*
X437288Y-160435D02*
X439288D01*
X438288D01*
Y-166434D01*
X437288D01*
X439288D01*
X442287D02*
Y-160435D01*
X446285Y-166434D01*
Y-160435D01*
X452283Y-161435D02*
X451284Y-160435D01*
X449285D01*
X448285Y-161435D01*
Y-162435D01*
X449285Y-163435D01*
X451284D01*
X452283Y-164434D01*
Y-165434D01*
X451284Y-166434D01*
X449285D01*
X448285Y-165434D01*
X454283Y-160435D02*
X458282D01*
X456282D01*
Y-166434D01*
X460281D02*
Y-160435D01*
X463280D01*
X464280Y-161435D01*
Y-163435D01*
X463280Y-164434D01*
X460281D01*
X462280D02*
X464280Y-166434D01*
X466279Y-160435D02*
Y-165434D01*
X467279Y-166434D01*
X469278D01*
X470278Y-165434D01*
Y-160435D01*
X472277Y-166434D02*
Y-160435D01*
X474276Y-162435D01*
X476276Y-160435D01*
Y-166434D01*
X482274Y-160435D02*
X478275D01*
Y-166434D01*
X482274D01*
X478275Y-163435D02*
X480274D01*
X484273Y-166434D02*
Y-160435D01*
X488272Y-166434D01*
Y-160435D01*
X490271D02*
X494270D01*
X492271D01*
Y-166434D01*
X500268Y-161435D02*
X499268Y-160435D01*
X497269D01*
X496269Y-161435D01*
Y-162435D01*
X497269Y-163435D01*
X499268D01*
X500268Y-164434D01*
Y-165434D01*
X499268Y-166434D01*
X497269D01*
X496269Y-165434D01*
X274850Y-166434D02*
X276849D01*
X275850D01*
Y-160435D01*
X274850Y-161435D01*
X279848Y-162435D02*
X280848D01*
Y-163435D01*
X279848D01*
Y-162435D01*
Y-165434D02*
X280848D01*
Y-166434D01*
X279848D01*
Y-165434D01*
X284847Y-161435D02*
X285846Y-160435D01*
X287846D01*
X288845Y-161435D01*
Y-162435D01*
X287846Y-163435D01*
X286846D01*
X287846D01*
X288845Y-164434D01*
Y-165434D01*
X287846Y-166434D01*
X285846D01*
X284847Y-165434D01*
X290845Y-161435D02*
X291845Y-160435D01*
X293844D01*
X294844Y-161435D01*
Y-162435D01*
X293844Y-163435D01*
X294844Y-164434D01*
Y-165434D01*
X293844Y-166434D01*
X291845D01*
X290845Y-165434D01*
Y-164434D01*
X291845Y-163435D01*
X290845Y-162435D01*
Y-161435D01*
X291845Y-163435D02*
X293844D01*
X296843Y-162435D02*
X297843D01*
Y-163435D01*
X296843D01*
Y-162435D01*
Y-165434D02*
X297843D01*
Y-166434D01*
X296843D01*
Y-165434D01*
X304840Y-166434D02*
Y-160435D01*
X301841Y-163435D01*
X305840D01*
X307839Y-166434D02*
X309839D01*
X308839D01*
Y-160435D01*
X307839Y-161435D01*
X318836Y-166434D02*
Y-160435D01*
X321835D01*
X322834Y-161435D01*
Y-163435D01*
X321835Y-164434D01*
X318836D01*
X324834Y-166434D02*
Y-160435D01*
X326833Y-162435D01*
X328833Y-160435D01*
Y-166434D01*
X-132850Y-139851D02*
Y-145849D01*
X-128851D01*
X-126852D02*
Y-141851D01*
X-124853Y-139851D01*
X-122853Y-141851D01*
Y-145849D01*
Y-142850D01*
X-126852D01*
X-120854Y-139851D02*
Y-140851D01*
X-118854Y-142850D01*
X-116855Y-140851D01*
Y-139851D01*
X-118854Y-142850D02*
Y-145849D01*
X-110857Y-139851D02*
X-114856D01*
Y-145849D01*
X-110857D01*
X-114856Y-142850D02*
X-112856D01*
X-108858Y-145849D02*
Y-139851D01*
X-105859D01*
X-104859Y-140851D01*
Y-142850D01*
X-105859Y-143850D01*
X-108858D01*
X-106858D02*
X-104859Y-145849D01*
X-96862D02*
Y-139851D01*
X-92863Y-145849D01*
Y-139851D01*
X-90864Y-145849D02*
Y-141851D01*
X-88864Y-139851D01*
X-86865Y-141851D01*
Y-145849D01*
Y-142850D01*
X-90864D01*
X-84865Y-145849D02*
Y-139851D01*
X-82866Y-141851D01*
X-80867Y-139851D01*
Y-145849D01*
X-74869Y-139851D02*
X-78868D01*
Y-145849D01*
X-74869D01*
X-78868Y-142850D02*
X-76868D01*
X-66871Y-143850D02*
X-62873D01*
X-66871Y-141851D02*
X-62873D01*
X114800Y-119569D02*
Y-125567D01*
X117799D01*
X118799Y-124567D01*
Y-123567D01*
X117799Y-122568D01*
X114800D01*
X117799D01*
X118799Y-121568D01*
Y-120568D01*
X117799Y-119569D01*
X114800D01*
X123797D02*
X121798D01*
X120798Y-120568D01*
Y-124567D01*
X121798Y-125567D01*
X123797D01*
X124797Y-124567D01*
Y-120568D01*
X123797Y-119569D01*
X126796Y-125567D02*
Y-121568D01*
X128796Y-119569D01*
X130795Y-121568D01*
Y-125567D01*
Y-122568D01*
X126796D01*
X132794Y-125567D02*
Y-119569D01*
X135793D01*
X136793Y-120568D01*
Y-122568D01*
X135793Y-123567D01*
X132794D01*
X134793D02*
X136793Y-125567D01*
X138792Y-119569D02*
Y-125567D01*
X141791D01*
X142791Y-124567D01*
Y-120568D01*
X141791Y-119569D01*
X138792D01*
X151788Y-125567D02*
Y-119569D01*
X153787D02*
Y-125567D01*
X150788Y-121568D02*
X153787D01*
X154787D01*
X150788Y-123567D02*
X154787D01*
X156786Y-121568D02*
X157786D01*
Y-122568D01*
X156786D01*
Y-121568D01*
Y-124567D02*
X157786D01*
Y-125567D01*
X156786D01*
Y-124567D01*
X169350Y-125567D02*
Y-119569D01*
X172349D01*
X173349Y-120568D01*
Y-122568D01*
X172349Y-123567D01*
X169350D01*
X175348Y-125567D02*
Y-119569D01*
X178347D01*
X179347Y-120568D01*
Y-122568D01*
X178347Y-123567D01*
X175348D01*
X177347D02*
X179347Y-125567D01*
X184345Y-119569D02*
X182346D01*
X181346Y-120568D01*
Y-124567D01*
X182346Y-125567D01*
X184345D01*
X185345Y-124567D01*
Y-120568D01*
X184345Y-119569D01*
X191343Y-120568D02*
X190343Y-119569D01*
X188344D01*
X187344Y-120568D01*
Y-124567D01*
X188344Y-125567D01*
X190343D01*
X191343Y-124567D01*
X193342Y-120568D02*
X194342Y-119569D01*
X196341D01*
X197341Y-120568D01*
Y-124567D01*
X196341Y-125567D01*
X194342D01*
X193342Y-124567D01*
Y-120568D01*
X199340Y-125567D02*
X201340D01*
X200340D01*
Y-119569D01*
X199340Y-120568D01*
X204339D02*
X205338Y-119569D01*
X207338D01*
X208337Y-120568D01*
Y-124567D01*
X207338Y-125567D01*
X205338D01*
X204339Y-124567D01*
Y-120568D01*
X282950Y-119569D02*
Y-125567D01*
X285949D01*
X286949Y-124567D01*
Y-123567D01*
X285949Y-122568D01*
X282950D01*
X285949D01*
X286949Y-121568D01*
Y-120568D01*
X285949Y-119569D01*
X282950D01*
X-132850Y-125567D02*
Y-121568D01*
X-130851Y-119569D01*
X-128851Y-121568D01*
Y-125567D01*
Y-122568D01*
X-132850D01*
X-126852Y-119569D02*
Y-125567D01*
X-122853D01*
X-120854Y-119569D02*
Y-125567D01*
X-116855D01*
X-108858D02*
Y-121568D01*
X-106858Y-119569D01*
X-104859Y-121568D01*
Y-125567D01*
Y-122568D01*
X-108858D01*
X-102860Y-125567D02*
Y-119569D01*
X-99861D01*
X-98861Y-120568D01*
Y-122568D01*
X-99861Y-123567D01*
X-102860D01*
X-100860D02*
X-98861Y-125567D01*
X-96862Y-119569D02*
X-92863D01*
X-94862D01*
Y-125567D01*
X-90864Y-119569D02*
Y-125567D01*
X-88864Y-123567D01*
X-86865Y-125567D01*
Y-119569D01*
X-81867D02*
X-83866D01*
X-84865Y-120568D01*
Y-124567D01*
X-83866Y-125567D01*
X-81867D01*
X-80867Y-124567D01*
Y-120568D01*
X-81867Y-119569D01*
X-78868Y-125567D02*
Y-119569D01*
X-75868D01*
X-74869Y-120568D01*
Y-122568D01*
X-75868Y-123567D01*
X-78868D01*
X-76868D02*
X-74869Y-125567D01*
X-72869Y-119569D02*
Y-125567D01*
Y-123567D01*
X-68871Y-119569D01*
X-71870Y-122568D01*
X-68871Y-125567D01*
X-60873Y-119569D02*
Y-123567D01*
X-58874Y-125567D01*
X-56875Y-123567D01*
Y-119569D01*
X-54875D02*
X-52876D01*
X-53875D01*
Y-125567D01*
X-54875D01*
X-52876D01*
X-45878Y-119569D02*
X-49877D01*
Y-125567D01*
X-45878D01*
X-49877Y-122568D02*
X-47877D01*
X-43879Y-119569D02*
Y-125567D01*
X-41879Y-123567D01*
X-39880Y-125567D01*
Y-119569D01*
X-33882D02*
X-37881D01*
Y-125567D01*
X-33882D01*
X-37881Y-122568D02*
X-35881D01*
X-31883Y-119569D02*
Y-125567D01*
X-28884D01*
X-27884Y-124567D01*
Y-120568D01*
X-28884Y-119569D01*
X-31883D01*
X-15888D02*
X-19886D01*
Y-122568D01*
X-17887D01*
X-19886D01*
Y-125567D01*
X-13889D02*
Y-119569D01*
X-10889D01*
X-9890Y-120568D01*
Y-122568D01*
X-10889Y-123567D01*
X-13889D01*
X-11889D02*
X-9890Y-125567D01*
X-4891Y-119569D02*
X-6891D01*
X-7890Y-120568D01*
Y-124567D01*
X-6891Y-125567D01*
X-4891D01*
X-3892Y-124567D01*
Y-120568D01*
X-4891Y-119569D01*
X-1892Y-125567D02*
Y-119569D01*
X107Y-121568D01*
X2106Y-119569D01*
Y-125567D01*
X10104Y-119569D02*
X14103D01*
X12103D01*
Y-125567D01*
X19101Y-119569D02*
X17101D01*
X16102Y-120568D01*
Y-124567D01*
X17101Y-125567D01*
X19101D01*
X20100Y-124567D01*
Y-120568D01*
X19101Y-119569D01*
X22100Y-125567D02*
Y-119569D01*
X25099D01*
X26099Y-120568D01*
Y-122568D01*
X25099Y-123567D01*
X22100D01*
X38095Y-120568D02*
X37095Y-119569D01*
X35096D01*
X34096Y-120568D01*
Y-121568D01*
X35096Y-122568D01*
X37095D01*
X38095Y-123567D01*
Y-124567D01*
X37095Y-125567D01*
X35096D01*
X34096Y-124567D01*
X40094Y-119569D02*
X42093D01*
X41094D01*
Y-125567D01*
X40094D01*
X42093D01*
X45092Y-119569D02*
Y-125567D01*
X48092D01*
X49091Y-124567D01*
Y-120568D01*
X48092Y-119569D01*
X45092D01*
X55089D02*
X51091D01*
Y-125567D01*
X55089D01*
X51091Y-122568D02*
X53090D01*
X118999Y-161435D02*
X117999Y-160435D01*
X116000D01*
X115000Y-161435D01*
Y-165434D01*
X116000Y-166434D01*
X117999D01*
X118999Y-165434D01*
Y-163435D01*
X116999D01*
X124997Y-160435D02*
X120998D01*
Y-166434D01*
X124997D01*
X120998Y-163435D02*
X122997D01*
X126996Y-166434D02*
Y-160435D01*
X130995Y-166434D01*
Y-160435D01*
X136993D02*
X132994D01*
Y-166434D01*
X136993D01*
X132994Y-163435D02*
X134994D01*
X138992Y-166434D02*
Y-160435D01*
X141991D01*
X142991Y-161435D01*
Y-163435D01*
X141991Y-164434D01*
X138992D01*
X140992D02*
X142991Y-166434D01*
X144990D02*
Y-162435D01*
X146990Y-160435D01*
X148989Y-162435D01*
Y-166434D01*
Y-163435D01*
X144990D01*
X150988Y-160435D02*
X154987D01*
X152988D01*
Y-166434D01*
X160985Y-160435D02*
X156986D01*
Y-166434D01*
X160985D01*
X156986Y-163435D02*
X158986D01*
X162985Y-160435D02*
Y-166434D01*
X165983D01*
X166983Y-165434D01*
Y-161435D01*
X165983Y-160435D01*
X162985D01*
X192975Y-162435D02*
X193974D01*
Y-163435D01*
X192975D01*
Y-162435D01*
Y-165434D02*
X193974D01*
Y-166434D01*
X192975D01*
Y-165434D01*
X201950D02*
X202950Y-166434D01*
X204949D01*
X205949Y-165434D01*
Y-161435D01*
X204949Y-160435D01*
X202950D01*
X201950Y-161435D01*
Y-162435D01*
X202950Y-163435D01*
X205949D01*
X207948Y-166434D02*
X211947Y-162435D01*
X216945Y-166434D02*
Y-160435D01*
X213946Y-163435D01*
X217945D01*
X219944Y-166434D02*
X223943Y-162435D01*
X229941Y-166434D02*
X225942D01*
X229941Y-162435D01*
Y-161435D01*
X228941Y-160435D01*
X226942D01*
X225942Y-161435D01*
X231940D02*
X232940Y-160435D01*
X234939D01*
X235939Y-161435D01*
Y-165434D01*
X234939Y-166434D01*
X232940D01*
X231940Y-165434D01*
Y-161435D01*
X237938Y-166434D02*
X239938D01*
X238938D01*
Y-160435D01*
X237938Y-161435D01*
X242937D02*
X243936Y-160435D01*
X245936D01*
X246935Y-161435D01*
Y-162435D01*
X245936Y-163435D01*
X246935Y-164434D01*
Y-165434D01*
X245936Y-166434D01*
X243936D01*
X242937Y-165434D01*
Y-164434D01*
X243936Y-163435D01*
X242937Y-162435D01*
Y-161435D01*
X243936Y-163435D02*
X245936D01*
X253800Y-125567D02*
Y-119569D01*
X256799D01*
X257799Y-120568D01*
Y-122568D01*
X256799Y-123567D01*
X253800D01*
X255799D02*
X257799Y-125567D01*
X263797Y-119569D02*
X259798D01*
Y-125567D01*
X263797D01*
X259798Y-122568D02*
X261797D01*
X265796Y-119569D02*
Y-123567D01*
X267795Y-125567D01*
X269795Y-123567D01*
Y-119569D01*
X271794Y-121568D02*
X272794D01*
Y-122568D01*
X271794D01*
Y-121568D01*
Y-124567D02*
X272794D01*
Y-125567D01*
X271794D01*
Y-124567D01*
X341599Y-120568D02*
X340599Y-119569D01*
X338600D01*
X337600Y-120568D01*
Y-121568D01*
X338600Y-122568D01*
X340599D01*
X341599Y-123567D01*
Y-124567D01*
X340599Y-125567D01*
X338600D01*
X337600Y-124567D01*
X343598Y-119569D02*
Y-123567D01*
X345597Y-125567D01*
X347597Y-123567D01*
Y-119569D01*
X349596Y-125567D02*
Y-119569D01*
X353595Y-125567D01*
Y-119569D01*
X361592Y-125567D02*
Y-119569D01*
X364591D01*
X365591Y-120568D01*
Y-122568D01*
X364591Y-123567D01*
X361592D01*
X363592D02*
X365591Y-125567D01*
X371589Y-119569D02*
X367590D01*
Y-125567D01*
X371589D01*
X367590Y-122568D02*
X369590D01*
X373588Y-119569D02*
Y-123567D01*
X375588Y-125567D01*
X377587Y-123567D01*
Y-119569D01*
X379586Y-121568D02*
X380586D01*
Y-122568D01*
X379586D01*
Y-121568D01*
Y-124567D02*
X380586D01*
Y-125567D01*
X379586D01*
Y-124567D01*
X388200Y-125567D02*
Y-119569D01*
X392199Y-125567D01*
Y-119569D01*
X395198Y-125567D02*
X397197D01*
X398197Y-124567D01*
Y-122568D01*
X397197Y-121568D01*
X395198D01*
X394198Y-122568D01*
Y-124567D01*
X395198Y-125567D01*
X401196Y-120568D02*
Y-121568D01*
X400196D01*
X402196D01*
X401196D01*
Y-124567D01*
X402196Y-125567D01*
X411193Y-119569D02*
X413192D01*
X412192D01*
Y-125567D01*
X411193D01*
X413192D01*
X416191D02*
Y-121568D01*
X419190D01*
X420190Y-122568D01*
Y-125567D01*
X428187Y-119569D02*
Y-123567D01*
X430186Y-125567D01*
X432186Y-123567D01*
Y-119569D01*
X437184Y-125567D02*
X435185D01*
X434185Y-124567D01*
Y-122568D01*
X435185Y-121568D01*
X437184D01*
X438184Y-122568D01*
Y-123567D01*
X434185D01*
X440183Y-121568D02*
Y-125567D01*
Y-123567D01*
X441183Y-122568D01*
X442182Y-121568D01*
X443182D01*
X446181Y-125567D02*
X449180D01*
X450180Y-124567D01*
X449180Y-123567D01*
X447181D01*
X446181Y-122568D01*
X447181Y-121568D01*
X450180D01*
X452179Y-125567D02*
X454179D01*
X453179D01*
Y-121568D01*
X452179D01*
X458177Y-125567D02*
X460177D01*
X461176Y-124567D01*
Y-122568D01*
X460177Y-121568D01*
X458177D01*
X457178Y-122568D01*
Y-124567D01*
X458177Y-125567D01*
X463176D02*
Y-121568D01*
X466175D01*
X467174Y-122568D01*
Y-125567D01*
X473173Y-120568D02*
X472173Y-119569D01*
X470174D01*
X469174Y-120568D01*
Y-124567D01*
X470174Y-125567D01*
X472173D01*
X473173Y-124567D01*
X476171Y-125567D02*
X478171D01*
X479171Y-124567D01*
Y-122568D01*
X478171Y-121568D01*
X476171D01*
X475172Y-122568D01*
Y-124567D01*
X476171Y-125567D01*
X481170D02*
Y-121568D01*
X484169D01*
X485169Y-122568D01*
Y-125567D01*
X488168Y-120568D02*
Y-121568D01*
X487168D01*
X489167D01*
X488168D01*
Y-124567D01*
X489167Y-125567D01*
X492166Y-121568D02*
Y-125567D01*
Y-123567D01*
X493166Y-122568D01*
X494166Y-121568D01*
X495165D01*
X499164Y-125567D02*
X501163D01*
X502163Y-124567D01*
Y-122568D01*
X501163Y-121568D01*
X499164D01*
X498164Y-122568D01*
Y-124567D01*
X499164Y-125567D01*
X504163D02*
X506162D01*
X505162D01*
Y-119569D01*
X504163D01*
G54D81*
X81844Y66875D02*
D03*
X40900Y66942D02*
D03*
X61244Y66975D02*
D03*
G54D82*
X81844Y76875D02*
D03*
X40900Y76942D02*
D03*
X61244Y76975D02*
D03*
X166000Y21500D02*
D03*
G54D83*
X3194Y177453D02*
D03*
G54D84*
Y167453D02*
D03*
Y157453D02*
D03*
G54D85*
X19500Y184000D02*
D03*
X80839Y-2134D02*
D03*
X67059D02*
D03*
X19694Y173977D02*
D03*
G54D86*
X53280Y-2134D02*
D03*
G54D87*
X136504Y1689D02*
D03*
G54D88*
X118000Y-10122D02*
D03*
G54D89*
Y13500D02*
D03*
G54D90*
X204343Y88D02*
D03*
X184658D02*
D03*
G54D91*
X180721Y-10542D02*
D03*
X208280D02*
D03*
G54D92*
X156000Y21500D02*
D03*
G54D93*
X0Y224000D02*
D03*
X297450D02*
D03*
Y0D02*
D03*
X0D02*
D03*
G54D94*
X254395Y24355D02*
D03*
Y214355D02*
D03*
G54D95*
X156042Y173650D02*
D03*
X162240Y175757D02*
D03*
X156042Y168818D02*
D03*
X151675Y108050D02*
D03*
X155100D02*
D03*
X158526D02*
D03*
X6284Y75896D02*
D03*
Y71368D02*
D03*
X2900Y73600D02*
D03*
X9600D02*
D03*
X202849Y89324D02*
D03*
Y93261D02*
D03*
X206786D02*
D03*
Y89324D02*
D03*
X159603Y175757D02*
D03*
G54D96*
X153560Y178957D02*
D03*
X164006Y192379D02*
D03*
X159704Y199344D02*
D03*
X176162Y152879D02*
D03*
X172030Y176607D02*
D03*
X174370D02*
D03*
X157407Y186740D02*
D03*
X176684Y176607D02*
D03*
X175115Y164768D02*
D03*
X173733Y162938D02*
D03*
X172071Y164484D02*
D03*
X165690Y186887D02*
D03*
X153606Y159305D02*
D03*
X20482Y151516D02*
D03*
X144700Y107779D02*
D03*
X169001Y202712D02*
D03*
X149921Y187102D02*
D03*
X109114Y218400D02*
D03*
X106386Y220417D02*
D03*
X107132Y126552D02*
D03*
X110357D02*
D03*
X251700Y111300D02*
D03*
X94142Y80597D02*
D03*
X223249Y103300D02*
D03*
X86861Y126360D02*
D03*
X96707Y126525D02*
D03*
X99051Y124373D02*
D03*
X114269Y126266D02*
D03*
X86919Y123000D02*
D03*
X115691Y153749D02*
D03*
X259565Y174524D02*
D03*
X107562Y206526D02*
D03*
X163187Y119966D02*
D03*
X139253Y101286D02*
D03*
X143000Y98700D02*
D03*
X212834Y182919D02*
D03*
X91404Y151440D02*
D03*
X14126Y155568D02*
D03*
X147707Y170331D02*
D03*
X146198Y172332D02*
D03*
X149125Y172321D02*
D03*
X146451Y163067D02*
D03*
X167047Y162326D02*
D03*
X162129Y162233D02*
D03*
X135645Y189535D02*
D03*
X201675Y172226D02*
D03*
X200684Y169899D02*
D03*
X90100Y85600D02*
D03*
X114237Y100236D02*
D03*
X26805Y89335D02*
D03*
X76688Y124050D02*
D03*
X201999Y37252D02*
D03*
X196400Y31950D02*
D03*
X125652Y228098D02*
D03*
X46200Y127250D02*
D03*
X44100Y192350D02*
D03*
X105300Y59800D02*
D03*
X137100Y164450D02*
D03*
X66800Y221150D02*
D03*
X14900Y80000D02*
D03*
X3275Y125950D02*
D03*
X22900Y75669D02*
D03*
X87018Y20732D02*
D03*
X75988Y20838D02*
D03*
X208000Y203770D02*
D03*
X130500Y11050D02*
D03*
X61445Y215605D02*
D03*
X21600Y157205D02*
D03*
X251700Y108100D02*
D03*
X189744Y186927D02*
D03*
X183244D02*
D03*
X186544D02*
D03*
X178400Y106650D02*
D03*
X64400Y119150D02*
D03*
X72400D02*
D03*
X64400Y107150D02*
D03*
X56400D02*
D03*
X27200Y106300D02*
D03*
X52400Y115150D02*
D03*
X278743Y204807D02*
D03*
X284400Y199150D02*
D03*
X290057Y193493D02*
D03*
X273086Y210464D02*
D03*
X226743Y61493D02*
D03*
X232400Y67150D02*
D03*
X40400Y103150D02*
D03*
X238057Y72807D02*
D03*
X284400Y-8850D02*
D03*
X240400Y43150D02*
D03*
X56400Y127150D02*
D03*
X236400Y31150D02*
D03*
Y39150D02*
D03*
Y15150D02*
D03*
Y23150D02*
D03*
X268400Y7150D02*
D03*
X276400D02*
D03*
X244400D02*
D03*
X252400D02*
D03*
X260400D02*
D03*
X228400D02*
D03*
X236400D02*
D03*
X268400Y-850D02*
D03*
X276400D02*
D03*
X244400D02*
D03*
X252400D02*
D03*
X260400D02*
D03*
X228400D02*
D03*
X236400D02*
D03*
X268400Y-8850D02*
D03*
X276400D02*
D03*
X244400D02*
D03*
X252400D02*
D03*
X260400D02*
D03*
X228400D02*
D03*
X236400D02*
D03*
X292400Y43150D02*
D03*
X300400D02*
D03*
X268400D02*
D03*
X276400D02*
D03*
X284400D02*
D03*
X252400D02*
D03*
X260400D02*
D03*
X292400Y51150D02*
D03*
X300400D02*
D03*
X268400D02*
D03*
X276400D02*
D03*
X284400D02*
D03*
X252400D02*
D03*
X260400D02*
D03*
X300400Y59150D02*
D03*
X292400D02*
D03*
X284400D02*
D03*
X276400D02*
D03*
X268400D02*
D03*
X260400D02*
D03*
X252400D02*
D03*
X8400Y31150D02*
D03*
X16400D02*
D03*
X24400D02*
D03*
X-3600Y147150D02*
D03*
Y187150D02*
D03*
Y155150D02*
D03*
X299600Y191550D02*
D03*
Y201950D02*
D03*
X290800Y207550D02*
D03*
X-3600Y179150D02*
D03*
X281600Y212750D02*
D03*
X277600Y221550D02*
D03*
X284800Y233550D02*
D03*
X274400D02*
D03*
X263200D02*
D03*
X251200D02*
D03*
X276400Y35150D02*
D03*
X284400D02*
D03*
X292400D02*
D03*
X300400D02*
D03*
X-3600Y163150D02*
D03*
X40400Y-8850D02*
D03*
X88400D02*
D03*
X96400D02*
D03*
X104400D02*
D03*
X276400Y19150D02*
D03*
X284400D02*
D03*
X292400D02*
D03*
X300400D02*
D03*
X276400Y27150D02*
D03*
X284400D02*
D03*
X292400D02*
D03*
X300400D02*
D03*
X228400Y15150D02*
D03*
Y23150D02*
D03*
X39200Y227150D02*
D03*
X244400Y51150D02*
D03*
X284400Y7150D02*
D03*
Y-850D02*
D03*
X-3600Y171150D02*
D03*
X228400Y31150D02*
D03*
X241600Y233750D02*
D03*
X86100Y98050D02*
D03*
X248400Y79150D02*
D03*
X197200Y40350D02*
D03*
X240400Y79150D02*
D03*
X57920Y53250D02*
D03*
X232400Y79150D02*
D03*
X104000Y73850D02*
D03*
X234600Y152150D02*
D03*
X50500Y100450D02*
D03*
X27000Y64337D02*
D03*
X15150Y168700D02*
D03*
X11800Y42689D02*
D03*
X52750Y228350D02*
D03*
X48200Y223950D02*
D03*
X56500Y222072D02*
D03*
X236400Y83150D02*
D03*
X234065Y87184D02*
D03*
X191700Y116550D02*
D03*
X16300Y117150D02*
D03*
X30425Y106950D02*
D03*
X7500Y63950D02*
D03*
X33665Y135350D02*
D03*
X33535Y112650D02*
D03*
X26100Y135850D02*
D03*
X157202Y222948D02*
D03*
X5500Y45977D02*
D03*
X-1540Y90550D02*
D03*
X2200Y90850D02*
D03*
X5800Y54250D02*
D03*
X13800Y87750D02*
D03*
X52498Y171153D02*
D03*
X40952Y38550D02*
D03*
X88295Y183643D02*
D03*
X42900Y188626D02*
D03*
X105800Y189950D02*
D03*
X173550Y-100D02*
D03*
X202200Y141050D02*
D03*
X64353Y171197D02*
D03*
X57676Y188626D02*
D03*
X9700Y115950D02*
D03*
X58700Y184450D02*
D03*
X8000Y100550D02*
D03*
X82061Y171189D02*
D03*
X-700Y113950D02*
D03*
X210064Y23250D02*
D03*
X221678Y22950D02*
D03*
X10900Y126950D02*
D03*
X10795Y105950D02*
D03*
X17700Y38750D02*
D03*
X36200Y167850D02*
D03*
X10800Y145950D02*
D03*
X56000Y167950D02*
D03*
X48800Y167650D02*
D03*
X59000Y150550D02*
D03*
X223700Y71450D02*
D03*
X257100Y167550D02*
D03*
X212300Y208899D02*
D03*
X189200Y79027D02*
D03*
X76800Y168050D02*
D03*
X53100Y150050D02*
D03*
X28400Y113250D02*
D03*
X223700Y67650D02*
D03*
X177300Y208952D02*
D03*
X77900Y154250D02*
D03*
X64900Y149150D02*
D03*
X179600Y195850D02*
D03*
X187600Y200350D02*
D03*
X258300Y126550D02*
D03*
X258000Y123750D02*
D03*
X182900Y195850D02*
D03*
X189200D02*
D03*
X181400Y200250D02*
D03*
X254100Y135750D02*
D03*
X76900Y145950D02*
D03*
X203400Y160050D02*
D03*
X82800Y188626D02*
D03*
X181001Y157767D02*
D03*
X199900Y159950D02*
D03*
X26600Y128450D02*
D03*
X199800Y162950D02*
D03*
X44300Y85650D02*
D03*
X131020Y189550D02*
D03*
X249500Y126850D02*
D03*
X237210Y122740D02*
D03*
X227160Y123490D02*
D03*
X232040Y122739D02*
D03*
X184520Y200255D02*
D03*
X210100Y112230D02*
D03*
X153355Y123180D02*
D03*
X153555Y90880D02*
D03*
X156855Y123180D02*
D03*
X156655Y90880D02*
D03*
X153155Y81880D02*
D03*
X150155D02*
D03*
X159455D02*
D03*
X156455D02*
D03*
X155123Y126157D02*
D03*
X221955Y112880D02*
D03*
X224755D02*
D03*
X179400Y188000D02*
D03*
X207800Y199526D02*
D03*
X186100Y195850D02*
D03*
X224635Y142270D02*
D03*
X217828Y116007D02*
D03*
X227675Y137700D02*
D03*
X224835D02*
D03*
X234875Y142290D02*
D03*
X235045Y148580D02*
D03*
X225005Y147940D02*
D03*
X226695Y145230D02*
D03*
X226445Y151080D02*
D03*
X229505Y148040D02*
D03*
Y141970D02*
D03*
X232015Y143270D02*
D03*
X226895Y140420D02*
D03*
X232015Y140270D02*
D03*
X230475Y137700D02*
D03*
X233275Y137680D02*
D03*
X236125Y138480D02*
D03*
X141000Y85100D02*
D03*
X173900Y39650D02*
D03*
X173000Y43150D02*
D03*
X174400Y35750D02*
D03*
X166171Y120036D02*
D03*
X168090Y122081D02*
D03*
X165289Y122669D02*
D03*
X168900Y85100D02*
D03*
X170000Y87700D02*
D03*
X168800Y90300D02*
D03*
X165600Y91100D02*
D03*
X145500Y92000D02*
D03*
X142900Y90900D02*
D03*
X141000Y87900D02*
D03*
X145300Y123200D02*
D03*
X140100Y90700D02*
D03*
X29500Y60650D02*
D03*
X21900Y163050D02*
D03*
X222055Y145240D02*
D03*
X157796Y161147D02*
D03*
X156100Y214150D02*
D03*
X47400Y24150D02*
D03*
X31700Y45150D02*
D03*
X157900Y210950D02*
D03*
X152000Y215650D02*
D03*
X51000Y22150D02*
D03*
X56200Y21950D02*
D03*
X-1133Y53150D02*
D03*
X45100Y28050D02*
D03*
X158300Y217450D02*
D03*
X154400Y218450D02*
D03*
X191600Y94950D02*
D03*
X21400Y48950D02*
D03*
X211800Y97050D02*
D03*
X212879Y103054D02*
D03*
X239650Y154540D02*
D03*
X218575Y152620D02*
D03*
X220665Y138000D02*
D03*
X216881Y103138D02*
D03*
X44200Y202050D02*
D03*
X67150Y226300D02*
D03*
X218575Y142880D02*
D03*
X222995Y158860D02*
D03*
X208400Y173250D02*
D03*
X135800Y22000D02*
D03*
X239234Y158740D02*
D03*
X23900Y190250D02*
D03*
X250300Y194250D02*
D03*
X233845Y158510D02*
D03*
X104600Y169550D02*
D03*
X228119Y158785D02*
D03*
X76700Y219050D02*
D03*
X79000Y230850D02*
D03*
X81100Y207250D02*
D03*
X90400Y72350D02*
D03*
X15000Y62550D02*
D03*
X45000Y216850D02*
D03*
X231965Y155080D02*
D03*
X-4800Y71550D02*
D03*
X15700Y159550D02*
D03*
X46200Y198550D02*
D03*
X200800Y46916D02*
D03*
X202400Y112450D02*
D03*
X146700Y194750D02*
D03*
X80800Y12850D02*
D03*
X72400Y12550D02*
D03*
X70000Y74450D02*
D03*
X31500Y177650D02*
D03*
X30700Y168650D02*
D03*
X26700Y168050D02*
D03*
X34900Y181850D02*
D03*
X42100Y219550D02*
D03*
X73800Y72750D02*
D03*
X30600Y99700D02*
D03*
X131600Y21300D02*
D03*
X111500Y92550D02*
D03*
X261700Y192350D02*
D03*
X32300Y89900D02*
D03*
X120150Y43050D02*
D03*
X111700Y96450D02*
D03*
X261900Y188250D02*
D03*
X90800Y68450D02*
D03*
X81600Y46050D02*
D03*
X97100Y167950D02*
D03*
X226719Y155120D02*
D03*
X218579Y157975D02*
D03*
Y147495D02*
D03*
X222059Y150545D02*
D03*
X221599Y155185D02*
D03*
X252400Y116600D02*
D03*
X252800Y119700D02*
D03*
X71300Y38250D02*
D03*
X127300Y42750D02*
D03*
X142181Y163769D02*
D03*
X104200Y67250D02*
D03*
X138800Y195550D02*
D03*
X94500Y62650D02*
D03*
X90700Y63650D02*
D03*
X-2300Y58450D02*
D03*
X81100Y215850D02*
D03*
X188700Y113350D02*
D03*
X122750Y46050D02*
D03*
X42600Y208350D02*
D03*
X66900Y208450D02*
D03*
X72750Y208100D02*
D03*
X87100Y206550D02*
D03*
X103300Y206350D02*
D03*
X79100Y225450D02*
D03*
X92750Y229000D02*
D03*
X73005Y229045D02*
D03*
X102955Y228395D02*
D03*
X132955Y228295D02*
D03*
X6300Y90650D02*
D03*
X12500Y68650D02*
D03*
X75100Y99050D02*
D03*
X66400Y85000D02*
D03*
X76400Y103950D02*
D03*
X191600Y14550D02*
D03*
X98100Y96750D02*
D03*
X90900Y94400D02*
D03*
X5500Y97350D02*
D03*
X28200Y150550D02*
D03*
X100000Y208850D02*
D03*
X32100Y150350D02*
D03*
X76400Y51150D02*
D03*
X257800Y184150D02*
D03*
X86400Y55350D02*
D03*
X254000Y175350D02*
D03*
X86400Y51150D02*
D03*
X99600Y191950D02*
D03*
X-1112Y37350D02*
D03*
X6200Y191550D02*
D03*
X136900Y217250D02*
D03*
X184200Y37550D02*
D03*
X178900Y44950D02*
D03*
X179500Y37750D02*
D03*
X178500Y41250D02*
D03*
X56335Y56388D02*
D03*
X49100Y56700D02*
D03*
X44200Y56600D02*
D03*
X56800Y49350D02*
D03*
X253150Y184400D02*
D03*
X253700Y188350D02*
D03*
X136800Y45800D02*
D03*
X175600Y64950D02*
D03*
X176800Y68550D02*
D03*
X179800Y65250D02*
D03*
X181500Y68950D02*
D03*
X186400Y95250D02*
D03*
X180300Y110200D02*
D03*
X-3200Y80750D02*
D03*
X17700Y86800D02*
D03*
X73200Y87200D02*
D03*
X239662Y150170D02*
D03*
X243015Y137100D02*
D03*
X136300Y91800D02*
D03*
X146400Y200450D02*
D03*
X136400Y198750D02*
D03*
X114400Y206550D02*
D03*
X13600Y47846D02*
D03*
X102402Y184266D02*
D03*
X116802Y228166D02*
D03*
X240050Y137120D02*
D03*
X94350Y115830D02*
D03*
X237500Y172500D02*
D03*
X195984Y95474D02*
D03*
X196500Y99504D02*
D03*
X211568Y108118D02*
D03*
X92214Y214271D02*
D03*
X113159Y68489D02*
D03*
X97400Y85848D02*
D03*
X94500Y119000D02*
D03*
X106187Y111299D02*
D03*
X146000Y187080D02*
D03*
X118350Y165950D02*
D03*
X128922Y196350D02*
D03*
X100318Y79905D02*
D03*
X106800Y51300D02*
D03*
X115919Y109029D02*
D03*
X194236Y108517D02*
D03*
X163000Y201500D02*
D03*
X100400Y158050D02*
D03*
X108700Y166250D02*
D03*
X95562Y121891D02*
D03*
X101258Y116933D02*
D03*
X116657Y119934D02*
D03*
X101256D02*
D03*
X108398Y120995D02*
D03*
X104070Y126394D02*
D03*
X99594Y163256D02*
D03*
X98842Y151855D02*
D03*
X102632D02*
D03*
X95052D02*
D03*
X105661D02*
D03*
X92300Y165450D02*
D03*
X93867Y171184D02*
D03*
X84942Y185645D02*
D03*
X79881Y183782D02*
D03*
X76484Y184550D02*
D03*
X68911Y184185D02*
D03*
X72708Y184555D02*
D03*
X245996Y194246D02*
D03*
X106750Y114373D02*
D03*
X116400Y34950D02*
D03*
X116200Y42400D02*
D03*
X112900Y59200D02*
D03*
X137005Y62915D02*
D03*
X133574Y62841D02*
D03*
X138200Y95300D02*
D03*
X222520Y134525D02*
D03*
X218595Y134620D02*
D03*
X208881Y135113D02*
D03*
X104198Y115978D02*
D03*
X142200Y193450D02*
D03*
X19920Y78550D02*
D03*
X232530Y193718D02*
D03*
X236238Y193558D02*
D03*
X235820Y189276D02*
D03*
X243781Y181283D02*
D03*
X245113Y185876D02*
D03*
X254500Y165120D02*
D03*
X249055Y166590D02*
D03*
X244500Y175650D02*
D03*
X236200Y180050D02*
D03*
X238875Y141580D02*
D03*
X239005Y145480D02*
D03*
X175887Y124996D02*
D03*
X225082Y209398D02*
D03*
X175927Y88503D02*
D03*
X125447Y125849D02*
D03*
X126001Y120067D02*
D03*
X120800Y228150D02*
D03*
X217700Y185250D02*
D03*
X207300Y185450D02*
D03*
X213900Y188448D02*
D03*
X165900Y109350D02*
D03*
X177200Y99100D02*
D03*
X171642Y109608D02*
D03*
X181365Y119800D02*
D03*
X209200Y131072D02*
D03*
X161732Y48548D02*
D03*
X176297Y26904D02*
D03*
X176467Y31264D02*
D03*
X158728Y48548D02*
D03*
X164714D02*
D03*
X159523Y35453D02*
D03*
X169045Y26599D02*
D03*
X167613Y66027D02*
D03*
X165158Y62804D02*
D03*
X261520Y184330D02*
D03*
X200189Y41211D02*
D03*
X203661Y33859D02*
D03*
X162527Y35472D02*
D03*
X147274Y12745D02*
D03*
X168978Y30136D02*
D03*
X187795Y89007D02*
D03*
X118107Y123161D02*
D03*
X116649Y112627D02*
D03*
X111179Y114558D02*
D03*
X143900Y120700D02*
D03*
X155102Y129027D02*
D03*
X147000Y120900D02*
D03*
X133430Y67049D02*
D03*
X140385Y123046D02*
D03*
X135439Y126655D02*
D03*
X139372Y117667D02*
D03*
X136150Y116650D02*
D03*
X132373Y106599D02*
D03*
X140800Y106500D02*
D03*
X144150Y103450D02*
D03*
X191350Y107172D02*
D03*
X207323Y177706D02*
D03*
X209800Y166280D02*
D03*
X214101Y137550D02*
D03*
X219600Y172702D02*
D03*
X220525Y177615D02*
D03*
X230472Y187490D02*
D03*
X224576Y185934D02*
D03*
X68200Y168350D02*
D03*
X88792Y108669D02*
D03*
X144750Y112400D02*
D03*
X141036Y111951D02*
D03*
X132750Y45100D02*
D03*
X109213Y41662D02*
D03*
X115735Y46383D02*
D03*
X116578Y51818D02*
D03*
X106722Y47000D02*
D03*
X103000Y46000D02*
D03*
X93068Y45971D02*
D03*
X95686Y44079D02*
D03*
X69220Y48550D02*
D03*
X7217Y94123D02*
D03*
X31900Y160650D02*
D03*
X39300Y150350D02*
D03*
X48775Y194765D02*
D03*
X86803Y224325D02*
D03*
X96100Y209270D02*
D03*
X108538Y214371D02*
D03*
X61100Y208750D02*
D03*
X57000Y208850D02*
D03*
X50500Y209050D02*
D03*
X118327Y72091D02*
D03*
X153251Y196539D02*
D03*
X153868Y189650D02*
D03*
X167034Y210677D02*
D03*
X106098Y92446D02*
D03*
X230100Y184550D02*
D03*
X132231Y112239D02*
D03*
X62750Y57718D02*
D03*
X51551Y81623D02*
D03*
X35022Y81597D02*
D03*
X68400Y217350D02*
D03*
X97957Y216842D02*
D03*
X112741Y229134D02*
D03*
X228477Y94656D02*
D03*
X178243Y154959D02*
D03*
X113671Y210617D02*
D03*
X120666Y214187D02*
D03*
X127357Y208391D02*
D03*
X123088Y208291D02*
D03*
X131410Y215090D02*
D03*
X-1440Y31679D02*
D03*
X3345Y33451D02*
D03*
X167715Y182118D02*
D03*
G54D99*
X52750Y199828D02*
D03*
X62750D02*
D03*
X72750D02*
D03*
X82750D02*
D03*
X122750D02*
D03*
X112750D02*
D03*
X102750D02*
D03*
X92750D02*
D03*
X132750D02*
D03*
X142750D02*
D03*
Y222072D02*
D03*
X132750D02*
D03*
X92750D02*
D03*
X102750D02*
D03*
X112750D02*
D03*
X122750D02*
D03*
X82750D02*
D03*
X72750D02*
D03*
X62750D02*
D03*
X52750D02*
D03*
Y29828D02*
D03*
X62750D02*
D03*
X72750D02*
D03*
X82750D02*
D03*
X122750D02*
D03*
X112750D02*
D03*
X102750D02*
D03*
X92750D02*
D03*
X132750D02*
D03*
X142750D02*
D03*
Y52072D02*
D03*
X132750D02*
D03*
X92750D02*
D03*
X102750D02*
D03*
X112750D02*
D03*
X122750D02*
D03*
X82750D02*
D03*
X72750D02*
D03*
X62750D02*
D03*
X52750D02*
D03*
G54D100*
X172750Y208952D02*
D03*
X162750Y222948D02*
D03*
X182750D02*
D03*
X172750Y28952D02*
D03*
X162750Y42948D02*
D03*
X182750D02*
D03*
G54D101*
X159037Y114113D02*
D03*
X157069D02*
D03*
X155100D02*
D03*
X153132D02*
D03*
X151163D02*
D03*
X159037Y101987D02*
D03*
X157069D02*
D03*
X155100D02*
D03*
X153132D02*
D03*
X151163D02*
D03*
G54D102*
X155100Y108050D02*
D03*
G54D103*
X162581Y100865D02*
D03*
Y115235D02*
D03*
X147620D02*
D03*
Y100865D02*
D03*
G54D104*
X162581Y103129D02*
D03*
Y105097D02*
D03*
Y107065D02*
D03*
Y109034D02*
D03*
Y111003D02*
D03*
Y112971D02*
D03*
X147620Y112971D02*
D03*
Y111003D02*
D03*
Y109034D02*
D03*
Y107065D02*
D03*
Y105097D02*
D03*
Y103129D02*
D03*
G54D105*
X26770Y94489D02*
D03*
X28344D02*
D03*
X29919D02*
D03*
X31494D02*
D03*
X33069D02*
D03*
X34644D02*
D03*
X36218D02*
D03*
X37793D02*
D03*
X39368D02*
D03*
X40943D02*
D03*
X42518D02*
D03*
X44092D02*
D03*
X45667D02*
D03*
X47242D02*
D03*
X48817D02*
D03*
X50392D02*
D03*
X51966D02*
D03*
X53541D02*
D03*
X55116D02*
D03*
X56691D02*
D03*
X58266D02*
D03*
X59840D02*
D03*
X61415D02*
D03*
X62990D02*
D03*
X64565D02*
D03*
X66140D02*
D03*
X67714D02*
D03*
X69289D02*
D03*
X70864D02*
D03*
X72439D02*
D03*
X74014D02*
D03*
X75589D02*
D03*
Y155119D02*
D03*
X74014D02*
D03*
X72439D02*
D03*
X70864D02*
D03*
X69289D02*
D03*
X67714D02*
D03*
X66140D02*
D03*
X64565D02*
D03*
X62990D02*
D03*
X61415D02*
D03*
X59840D02*
D03*
X58266D02*
D03*
X56691D02*
D03*
X55116D02*
D03*
X53541D02*
D03*
X51966D02*
D03*
X50392D02*
D03*
X48817D02*
D03*
X47242D02*
D03*
X45667D02*
D03*
X44092D02*
D03*
X42518D02*
D03*
X40943D02*
D03*
X39368D02*
D03*
X37793D02*
D03*
X36218D02*
D03*
X34644D02*
D03*
X33069D02*
D03*
X31494D02*
D03*
X29919D02*
D03*
X28344D02*
D03*
X26770D02*
D03*
G54D106*
X81494Y100395D02*
D03*
Y101969D02*
D03*
Y103544D02*
D03*
Y105119D02*
D03*
Y106694D02*
D03*
Y108269D02*
D03*
Y109843D02*
D03*
Y111418D02*
D03*
Y112993D02*
D03*
Y114568D02*
D03*
Y116143D02*
D03*
Y117717D02*
D03*
Y119292D02*
D03*
Y120867D02*
D03*
Y122442D02*
D03*
Y124017D02*
D03*
Y125591D02*
D03*
Y127166D02*
D03*
Y128741D02*
D03*
Y130316D02*
D03*
Y131891D02*
D03*
Y133465D02*
D03*
Y135040D02*
D03*
Y136615D02*
D03*
Y138190D02*
D03*
Y139765D02*
D03*
Y141339D02*
D03*
Y142914D02*
D03*
Y144489D02*
D03*
Y146064D02*
D03*
Y147639D02*
D03*
Y149213D02*
D03*
X20864D02*
D03*
Y147639D02*
D03*
Y146064D02*
D03*
Y144489D02*
D03*
Y142914D02*
D03*
Y141339D02*
D03*
Y139765D02*
D03*
Y138190D02*
D03*
Y136615D02*
D03*
Y135040D02*
D03*
Y133465D02*
D03*
Y131891D02*
D03*
Y130316D02*
D03*
Y128741D02*
D03*
Y127166D02*
D03*
Y125591D02*
D03*
Y124017D02*
D03*
Y122442D02*
D03*
Y120867D02*
D03*
Y119292D02*
D03*
Y117717D02*
D03*
Y116143D02*
D03*
Y114568D02*
D03*
Y112993D02*
D03*
Y111418D02*
D03*
Y109843D02*
D03*
Y108269D02*
D03*
Y106694D02*
D03*
Y105119D02*
D03*
Y103544D02*
D03*
Y101969D02*
D03*
Y100395D02*
D03*
G54D107*
X174039Y169974D02*
D03*
X161441D02*
D03*
X180312Y148707D02*
D03*
X167714D02*
D03*
X174039Y181743D02*
D03*
X161441D02*
D03*
G54D108*
X93500Y111299D02*
D03*
X102161D02*
D03*
X93500Y105000D02*
D03*
X102161D02*
D03*
G54D109*
X6284Y73632D02*
D03*
G54D110*
X140785Y133556D02*
D03*
Y141824D02*
D03*
X169355Y80314D02*
D03*
Y72046D02*
D03*
X169405Y132496D02*
D03*
Y140764D02*
D03*
X140155Y80314D02*
D03*
Y72046D02*
D03*
G54D111*
X5532Y121449D02*
D03*
Y113969D02*
D03*
X-3916Y117709D02*
D03*
G54D112*
X190563Y-10542D02*
D03*
X198438D02*
D03*
G54D113*
X189382Y88D02*
D03*
X191941D02*
D03*
X194501D02*
D03*
X197060D02*
D03*
X199619D02*
D03*
G54D114*
X150618Y149655D02*
D03*
Y136269D02*
D03*
X140200Y172957D02*
D03*
Y186343D02*
D03*
X131020Y172932D02*
D03*
Y186318D02*
D03*
X149996Y64450D02*
D03*
Y77836D02*
D03*
X159769Y64482D02*
D03*
Y77868D02*
D03*
X159283Y149552D02*
D03*
Y136166D02*
D03*
G54D115*
X165802Y86870D02*
D03*
X157928D02*
D03*
X253563Y157000D02*
D03*
X261437D02*
D03*
X144148Y127215D02*
D03*
X152022D02*
D03*
X166132Y127130D02*
D03*
X158258D02*
D03*
X144048Y86870D02*
D03*
X151922D02*
D03*
G54D116*
X254118Y131477D02*
D03*
Y124784D02*
D03*
X148795Y182846D02*
D03*
Y176154D02*
D03*
G54D117*
X148995Y167167D02*
D03*
Y159293D02*
D03*
G54D118*
X162195Y123540D02*
Y129923D01*
X150165Y121700D02*
X151251D01*
X144982Y133753D02*
X148085Y130650D01*
X159095Y121950D02*
X160605D01*
X144592Y80117D02*
X147985Y83510D01*
Y90434D01*
X149801Y92250D01*
X151325D01*
X152155Y93080D01*
X158851Y92650D02*
X160285D01*
X165084Y80251D02*
X165268D01*
X162195Y129923D02*
X165268Y132996D01*
X160605Y121950D02*
X162195Y123540D01*
X160285Y92650D02*
X161865Y91070D01*
Y83470D02*
X165084Y80251D01*
X161865Y83470D02*
Y91070D01*
X148085Y123780D02*
Y130650D01*
Y123780D02*
X150165Y121700D01*
G54D119*
X36218Y161021D02*
X36252Y161055D01*
X89275Y141440D02*
X89334Y141499D01*
X69278Y88005D02*
X69289Y88016D01*
X35800Y150450D02*
X36218Y150868D01*
G54D120*
X155100Y108050D02*
Y114113D01*
Y101987D02*
Y108050D01*
G54D121*
X237958Y139470D02*
X237988Y139440D01*
X239762D01*
X239792Y139470D01*
X239877D01*
X240767Y140360D01*
X237865Y139470D02*
X237958D01*
X236875Y138480D02*
X237865Y139470D01*
X240767Y140360D02*
X243715D01*
G54D122*
X183084Y-10542D02*
D03*
X205917D02*
D03*
M02*
