G04 Layer_Color=16711935*
%FSLAX25Y25*%
%MOIN*%
G70*
G01*
G75*
%ADD65C,0.01000*%
%ADD80C,0.00800*%
G54D65*
X300725Y-16250D02*
G03*
X307725Y-9250I0J7000D01*
G01*
X-10275D02*
G03*
X-3275Y-16250I7000J0D01*
G01*
Y240250D02*
G03*
X-10275Y233250I0J-7000D01*
G01*
X307725D02*
G03*
X300725Y240250I-7000J0D01*
G01*
X-3275Y-16250D02*
X300725D01*
X-10275Y-9250D02*
Y233250D01*
X-3275Y240250D02*
X300725D01*
X307725Y-9250D02*
Y233250D01*
X380200Y-174000D02*
Y-153717D01*
X261300Y-173350D02*
X521000D01*
Y-112350D01*
X107300Y-173350D02*
Y-112350D01*
X-139200Y-173350D02*
Y-112350D01*
X-139150Y-173350D02*
X18400D01*
X-139150D02*
Y-112350D01*
Y-112350D02*
X521000D01*
X-139200Y-173350D02*
X261300D01*
X-139200Y-153017D02*
X520800D01*
X-139200Y-132683D02*
X521000D01*
X234000D02*
Y-112350D01*
X318000Y-132683D02*
Y-112350D01*
G54D80*
X169350Y-145900D02*
Y-139902D01*
X173349Y-145900D01*
Y-139902D01*
X175348Y-145900D02*
X179347Y-141901D01*
X181346Y-145900D02*
Y-141901D01*
X183345Y-139902D01*
X185345Y-141901D01*
Y-145900D01*
Y-142901D01*
X181346D01*
X114800Y-139902D02*
X118799D01*
X116799D01*
Y-145900D01*
X120798Y-139902D02*
X122797D01*
X121798D01*
Y-145900D01*
X120798D01*
X122797D01*
X125796Y-139902D02*
Y-145900D01*
X128796D01*
X129795Y-144900D01*
Y-140902D01*
X128796Y-139902D01*
X125796D01*
X138792Y-145900D02*
Y-139902D01*
X140792D02*
Y-145900D01*
X137793Y-141901D02*
X140792D01*
X141791D01*
X137793Y-143901D02*
X141791D01*
X143791Y-141901D02*
X144790D01*
Y-142901D01*
X143791D01*
Y-141901D01*
Y-144900D02*
X144790D01*
Y-145900D01*
X143791D01*
Y-144900D01*
X401300Y-160435D02*
X405299D01*
X403299D01*
Y-166434D01*
X411297Y-160435D02*
X407298D01*
Y-166434D01*
X411297D01*
X407298Y-163435D02*
X409297D01*
X413296Y-160435D02*
X417295Y-166434D01*
Y-160435D02*
X413296Y-166434D01*
X419294D02*
Y-162435D01*
X421293Y-160435D01*
X423293Y-162435D01*
Y-166434D01*
Y-163435D01*
X419294D01*
X429291Y-161435D02*
X428291Y-160435D01*
X426292D01*
X425292Y-161435D01*
Y-162435D01*
X426292Y-163435D01*
X428291D01*
X429291Y-164434D01*
Y-165434D01*
X428291Y-166434D01*
X426292D01*
X425292Y-165434D01*
X437288Y-160435D02*
X439288D01*
X438288D01*
Y-166434D01*
X437288D01*
X439288D01*
X442287D02*
Y-160435D01*
X446285Y-166434D01*
Y-160435D01*
X452283Y-161435D02*
X451284Y-160435D01*
X449285D01*
X448285Y-161435D01*
Y-162435D01*
X449285Y-163435D01*
X451284D01*
X452283Y-164434D01*
Y-165434D01*
X451284Y-166434D01*
X449285D01*
X448285Y-165434D01*
X454283Y-160435D02*
X458282D01*
X456282D01*
Y-166434D01*
X460281D02*
Y-160435D01*
X463280D01*
X464280Y-161435D01*
Y-163435D01*
X463280Y-164434D01*
X460281D01*
X462280D02*
X464280Y-166434D01*
X466279Y-160435D02*
Y-165434D01*
X467279Y-166434D01*
X469278D01*
X470278Y-165434D01*
Y-160435D01*
X472277Y-166434D02*
Y-160435D01*
X474276Y-162435D01*
X476276Y-160435D01*
Y-166434D01*
X482274Y-160435D02*
X478275D01*
Y-166434D01*
X482274D01*
X478275Y-163435D02*
X480274D01*
X484273Y-166434D02*
Y-160435D01*
X488272Y-166434D01*
Y-160435D01*
X490271D02*
X494270D01*
X492271D01*
Y-166434D01*
X500268Y-161435D02*
X499268Y-160435D01*
X497269D01*
X496269Y-161435D01*
Y-162435D01*
X497269Y-163435D01*
X499268D01*
X500268Y-164434D01*
Y-165434D01*
X499268Y-166434D01*
X497269D01*
X496269Y-165434D01*
X274850Y-166434D02*
X276849D01*
X275850D01*
Y-160435D01*
X274850Y-161435D01*
X279848Y-162435D02*
X280848D01*
Y-163435D01*
X279848D01*
Y-162435D01*
Y-165434D02*
X280848D01*
Y-166434D01*
X279848D01*
Y-165434D01*
X284847Y-161435D02*
X285846Y-160435D01*
X287846D01*
X288845Y-161435D01*
Y-162435D01*
X287846Y-163435D01*
X286846D01*
X287846D01*
X288845Y-164434D01*
Y-165434D01*
X287846Y-166434D01*
X285846D01*
X284847Y-165434D01*
X290845Y-161435D02*
X291845Y-160435D01*
X293844D01*
X294844Y-161435D01*
Y-162435D01*
X293844Y-163435D01*
X294844Y-164434D01*
Y-165434D01*
X293844Y-166434D01*
X291845D01*
X290845Y-165434D01*
Y-164434D01*
X291845Y-163435D01*
X290845Y-162435D01*
Y-161435D01*
X291845Y-163435D02*
X293844D01*
X296843Y-162435D02*
X297843D01*
Y-163435D01*
X296843D01*
Y-162435D01*
Y-165434D02*
X297843D01*
Y-166434D01*
X296843D01*
Y-165434D01*
X304840Y-166434D02*
Y-160435D01*
X301841Y-163435D01*
X305840D01*
X310838Y-166434D02*
Y-160435D01*
X307839Y-163435D01*
X311838D01*
X319835Y-166434D02*
Y-160435D01*
X322834D01*
X323834Y-161435D01*
Y-163435D01*
X322834Y-164434D01*
X319835D01*
X325834Y-166434D02*
Y-160435D01*
X327833Y-162435D01*
X329832Y-160435D01*
Y-166434D01*
X-132850Y-139851D02*
Y-145849D01*
X-128851D01*
X-126852D02*
Y-141851D01*
X-124853Y-139851D01*
X-122853Y-141851D01*
Y-145849D01*
Y-142850D01*
X-126852D01*
X-120854Y-139851D02*
Y-140851D01*
X-118854Y-142850D01*
X-116855Y-140851D01*
Y-139851D01*
X-118854Y-142850D02*
Y-145849D01*
X-110857Y-139851D02*
X-114856D01*
Y-145849D01*
X-110857D01*
X-114856Y-142850D02*
X-112856D01*
X-108858Y-145849D02*
Y-139851D01*
X-105859D01*
X-104859Y-140851D01*
Y-142850D01*
X-105859Y-143850D01*
X-108858D01*
X-106858D02*
X-104859Y-145849D01*
X-96862D02*
Y-139851D01*
X-92863Y-145849D01*
Y-139851D01*
X-90864Y-145849D02*
Y-141851D01*
X-88864Y-139851D01*
X-86865Y-141851D01*
Y-145849D01*
Y-142850D01*
X-90864D01*
X-84865Y-145849D02*
Y-139851D01*
X-82866Y-141851D01*
X-80867Y-139851D01*
Y-145849D01*
X-74869Y-139851D02*
X-78868D01*
Y-145849D01*
X-74869D01*
X-78868Y-142850D02*
X-76868D01*
X-66871Y-143850D02*
X-62873D01*
X-66871Y-141851D02*
X-62873D01*
X114800Y-119569D02*
Y-125567D01*
X117799D01*
X118799Y-124567D01*
Y-123567D01*
X117799Y-122568D01*
X114800D01*
X117799D01*
X118799Y-121568D01*
Y-120568D01*
X117799Y-119569D01*
X114800D01*
X123797D02*
X121798D01*
X120798Y-120568D01*
Y-124567D01*
X121798Y-125567D01*
X123797D01*
X124797Y-124567D01*
Y-120568D01*
X123797Y-119569D01*
X126796Y-125567D02*
Y-121568D01*
X128796Y-119569D01*
X130795Y-121568D01*
Y-125567D01*
Y-122568D01*
X126796D01*
X132794Y-125567D02*
Y-119569D01*
X135793D01*
X136793Y-120568D01*
Y-122568D01*
X135793Y-123567D01*
X132794D01*
X134793D02*
X136793Y-125567D01*
X138792Y-119569D02*
Y-125567D01*
X141791D01*
X142791Y-124567D01*
Y-120568D01*
X141791Y-119569D01*
X138792D01*
X151788Y-125567D02*
Y-119569D01*
X153787D02*
Y-125567D01*
X150788Y-121568D02*
X153787D01*
X154787D01*
X150788Y-123567D02*
X154787D01*
X156786Y-121568D02*
X157786D01*
Y-122568D01*
X156786D01*
Y-121568D01*
Y-124567D02*
X157786D01*
Y-125567D01*
X156786D01*
Y-124567D01*
X169350Y-125567D02*
Y-119569D01*
X172349D01*
X173349Y-120568D01*
Y-122568D01*
X172349Y-123567D01*
X169350D01*
X175348Y-125567D02*
Y-119569D01*
X178347D01*
X179347Y-120568D01*
Y-122568D01*
X178347Y-123567D01*
X175348D01*
X177347D02*
X179347Y-125567D01*
X184345Y-119569D02*
X182346D01*
X181346Y-120568D01*
Y-124567D01*
X182346Y-125567D01*
X184345D01*
X185345Y-124567D01*
Y-120568D01*
X184345Y-119569D01*
X191343Y-120568D02*
X190343Y-119569D01*
X188344D01*
X187344Y-120568D01*
Y-124567D01*
X188344Y-125567D01*
X190343D01*
X191343Y-124567D01*
X193342Y-120568D02*
X194342Y-119569D01*
X196341D01*
X197341Y-120568D01*
Y-124567D01*
X196341Y-125567D01*
X194342D01*
X193342Y-124567D01*
Y-120568D01*
X199340Y-125567D02*
X201340D01*
X200340D01*
Y-119569D01*
X199340Y-120568D01*
X204339D02*
X205338Y-119569D01*
X207338D01*
X208337Y-120568D01*
Y-124567D01*
X207338Y-125567D01*
X205338D01*
X204339Y-124567D01*
Y-120568D01*
X282950Y-119569D02*
Y-125567D01*
X285949D01*
X286949Y-124567D01*
Y-123567D01*
X285949Y-122568D01*
X282950D01*
X285949D01*
X286949Y-121568D01*
Y-120568D01*
X285949Y-119569D01*
X282950D01*
X-132850Y-125567D02*
Y-121568D01*
X-130851Y-119569D01*
X-128851Y-121568D01*
Y-125567D01*
Y-122568D01*
X-132850D01*
X-126852Y-119569D02*
Y-125567D01*
X-122853D01*
X-120854Y-119569D02*
Y-125567D01*
X-116855D01*
X-108858D02*
Y-121568D01*
X-106858Y-119569D01*
X-104859Y-121568D01*
Y-125567D01*
Y-122568D01*
X-108858D01*
X-102860Y-125567D02*
Y-119569D01*
X-99861D01*
X-98861Y-120568D01*
Y-122568D01*
X-99861Y-123567D01*
X-102860D01*
X-100860D02*
X-98861Y-125567D01*
X-96862Y-119569D02*
X-92863D01*
X-94862D01*
Y-125567D01*
X-90864Y-119569D02*
Y-125567D01*
X-88864Y-123567D01*
X-86865Y-125567D01*
Y-119569D01*
X-81867D02*
X-83866D01*
X-84865Y-120568D01*
Y-124567D01*
X-83866Y-125567D01*
X-81867D01*
X-80867Y-124567D01*
Y-120568D01*
X-81867Y-119569D01*
X-78868Y-125567D02*
Y-119569D01*
X-75868D01*
X-74869Y-120568D01*
Y-122568D01*
X-75868Y-123567D01*
X-78868D01*
X-76868D02*
X-74869Y-125567D01*
X-72869Y-119569D02*
Y-125567D01*
Y-123567D01*
X-68871Y-119569D01*
X-71870Y-122568D01*
X-68871Y-125567D01*
X-60873Y-119569D02*
Y-123567D01*
X-58874Y-125567D01*
X-56875Y-123567D01*
Y-119569D01*
X-54875D02*
X-52876D01*
X-53875D01*
Y-125567D01*
X-54875D01*
X-52876D01*
X-45878Y-119569D02*
X-49877D01*
Y-125567D01*
X-45878D01*
X-49877Y-122568D02*
X-47877D01*
X-43879Y-119569D02*
Y-125567D01*
X-41879Y-123567D01*
X-39880Y-125567D01*
Y-119569D01*
X-33882D02*
X-37881D01*
Y-125567D01*
X-33882D01*
X-37881Y-122568D02*
X-35881D01*
X-31883Y-119569D02*
Y-125567D01*
X-28884D01*
X-27884Y-124567D01*
Y-120568D01*
X-28884Y-119569D01*
X-31883D01*
X-15888D02*
X-19886D01*
Y-122568D01*
X-17887D01*
X-19886D01*
Y-125567D01*
X-13889D02*
Y-119569D01*
X-10889D01*
X-9890Y-120568D01*
Y-122568D01*
X-10889Y-123567D01*
X-13889D01*
X-11889D02*
X-9890Y-125567D01*
X-4891Y-119569D02*
X-6891D01*
X-7890Y-120568D01*
Y-124567D01*
X-6891Y-125567D01*
X-4891D01*
X-3892Y-124567D01*
Y-120568D01*
X-4891Y-119569D01*
X-1892Y-125567D02*
Y-119569D01*
X107Y-121568D01*
X2106Y-119569D01*
Y-125567D01*
X10104Y-119569D02*
X14103D01*
X12103D01*
Y-125567D01*
X19101Y-119569D02*
X17101D01*
X16102Y-120568D01*
Y-124567D01*
X17101Y-125567D01*
X19101D01*
X20100Y-124567D01*
Y-120568D01*
X19101Y-119569D01*
X22100Y-125567D02*
Y-119569D01*
X25099D01*
X26099Y-120568D01*
Y-122568D01*
X25099Y-123567D01*
X22100D01*
X38095Y-120568D02*
X37095Y-119569D01*
X35096D01*
X34096Y-120568D01*
Y-121568D01*
X35096Y-122568D01*
X37095D01*
X38095Y-123567D01*
Y-124567D01*
X37095Y-125567D01*
X35096D01*
X34096Y-124567D01*
X40094Y-119569D02*
X42093D01*
X41094D01*
Y-125567D01*
X40094D01*
X42093D01*
X45092Y-119569D02*
Y-125567D01*
X48092D01*
X49091Y-124567D01*
Y-120568D01*
X48092Y-119569D01*
X45092D01*
X55089D02*
X51091D01*
Y-125567D01*
X55089D01*
X51091Y-122568D02*
X53090D01*
X118999Y-161435D02*
X117999Y-160435D01*
X116000D01*
X115000Y-161435D01*
Y-165434D01*
X116000Y-166434D01*
X117999D01*
X118999Y-165434D01*
Y-163435D01*
X116999D01*
X124997Y-160435D02*
X120998D01*
Y-166434D01*
X124997D01*
X120998Y-163435D02*
X122997D01*
X126996Y-166434D02*
Y-160435D01*
X130995Y-166434D01*
Y-160435D01*
X136993D02*
X132994D01*
Y-166434D01*
X136993D01*
X132994Y-163435D02*
X134994D01*
X138992Y-166434D02*
Y-160435D01*
X141991D01*
X142991Y-161435D01*
Y-163435D01*
X141991Y-164434D01*
X138992D01*
X140992D02*
X142991Y-166434D01*
X144990D02*
Y-162435D01*
X146990Y-160435D01*
X148989Y-162435D01*
Y-166434D01*
Y-163435D01*
X144990D01*
X150988Y-160435D02*
X154987D01*
X152988D01*
Y-166434D01*
X160985Y-160435D02*
X156986D01*
Y-166434D01*
X160985D01*
X156986Y-163435D02*
X158986D01*
X162985Y-160435D02*
Y-166434D01*
X165983D01*
X166983Y-165434D01*
Y-161435D01*
X165983Y-160435D01*
X162985D01*
X192975Y-162435D02*
X193974D01*
Y-163435D01*
X192975D01*
Y-162435D01*
Y-165434D02*
X193974D01*
Y-166434D01*
X192975D01*
Y-165434D01*
X201950D02*
X202950Y-166434D01*
X204949D01*
X205949Y-165434D01*
Y-161435D01*
X204949Y-160435D01*
X202950D01*
X201950Y-161435D01*
Y-162435D01*
X202950Y-163435D01*
X205949D01*
X207948Y-166434D02*
X211947Y-162435D01*
X216945Y-166434D02*
Y-160435D01*
X213946Y-163435D01*
X217945D01*
X219944Y-166434D02*
X223943Y-162435D01*
X229941Y-166434D02*
X225942D01*
X229941Y-162435D01*
Y-161435D01*
X228941Y-160435D01*
X226942D01*
X225942Y-161435D01*
X231940D02*
X232940Y-160435D01*
X234939D01*
X235939Y-161435D01*
Y-165434D01*
X234939Y-166434D01*
X232940D01*
X231940Y-165434D01*
Y-161435D01*
X237938Y-166434D02*
X239938D01*
X238938D01*
Y-160435D01*
X237938Y-161435D01*
X242937D02*
X243936Y-160435D01*
X245936D01*
X246935Y-161435D01*
Y-162435D01*
X245936Y-163435D01*
X246935Y-164434D01*
Y-165434D01*
X245936Y-166434D01*
X243936D01*
X242937Y-165434D01*
Y-164434D01*
X243936Y-163435D01*
X242937Y-162435D01*
Y-161435D01*
X243936Y-163435D02*
X245936D01*
X253800Y-125567D02*
Y-119569D01*
X256799D01*
X257799Y-120568D01*
Y-122568D01*
X256799Y-123567D01*
X253800D01*
X255799D02*
X257799Y-125567D01*
X263797Y-119569D02*
X259798D01*
Y-125567D01*
X263797D01*
X259798Y-122568D02*
X261797D01*
X265796Y-119569D02*
Y-123567D01*
X267795Y-125567D01*
X269795Y-123567D01*
Y-119569D01*
X271794Y-121568D02*
X272794D01*
Y-122568D01*
X271794D01*
Y-121568D01*
Y-124567D02*
X272794D01*
Y-125567D01*
X271794D01*
Y-124567D01*
X341599Y-120568D02*
X340599Y-119569D01*
X338600D01*
X337600Y-120568D01*
Y-121568D01*
X338600Y-122568D01*
X340599D01*
X341599Y-123567D01*
Y-124567D01*
X340599Y-125567D01*
X338600D01*
X337600Y-124567D01*
X343598Y-119569D02*
Y-123567D01*
X345597Y-125567D01*
X347597Y-123567D01*
Y-119569D01*
X349596Y-125567D02*
Y-119569D01*
X353595Y-125567D01*
Y-119569D01*
X361592Y-125567D02*
Y-119569D01*
X364591D01*
X365591Y-120568D01*
Y-122568D01*
X364591Y-123567D01*
X361592D01*
X363592D02*
X365591Y-125567D01*
X371589Y-119569D02*
X367590D01*
Y-125567D01*
X371589D01*
X367590Y-122568D02*
X369590D01*
X373588Y-119569D02*
Y-123567D01*
X375588Y-125567D01*
X377587Y-123567D01*
Y-119569D01*
X379586Y-121568D02*
X380586D01*
Y-122568D01*
X379586D01*
Y-121568D01*
Y-124567D02*
X380586D01*
Y-125567D01*
X379586D01*
Y-124567D01*
X388200Y-125567D02*
Y-119569D01*
X392199Y-125567D01*
Y-119569D01*
X395198Y-125567D02*
X397197D01*
X398197Y-124567D01*
Y-122568D01*
X397197Y-121568D01*
X395198D01*
X394198Y-122568D01*
Y-124567D01*
X395198Y-125567D01*
X401196Y-120568D02*
Y-121568D01*
X400196D01*
X402196D01*
X401196D01*
Y-124567D01*
X402196Y-125567D01*
X411193Y-119569D02*
X413192D01*
X412192D01*
Y-125567D01*
X411193D01*
X413192D01*
X416191D02*
Y-121568D01*
X419190D01*
X420190Y-122568D01*
Y-125567D01*
X428187Y-119569D02*
Y-123567D01*
X430186Y-125567D01*
X432186Y-123567D01*
Y-119569D01*
X437184Y-125567D02*
X435185D01*
X434185Y-124567D01*
Y-122568D01*
X435185Y-121568D01*
X437184D01*
X438184Y-122568D01*
Y-123567D01*
X434185D01*
X440183Y-121568D02*
Y-125567D01*
Y-123567D01*
X441183Y-122568D01*
X442182Y-121568D01*
X443182D01*
X446181Y-125567D02*
X449180D01*
X450180Y-124567D01*
X449180Y-123567D01*
X447181D01*
X446181Y-122568D01*
X447181Y-121568D01*
X450180D01*
X452179Y-125567D02*
X454179D01*
X453179D01*
Y-121568D01*
X452179D01*
X458177Y-125567D02*
X460177D01*
X461176Y-124567D01*
Y-122568D01*
X460177Y-121568D01*
X458177D01*
X457178Y-122568D01*
Y-124567D01*
X458177Y-125567D01*
X463176D02*
Y-121568D01*
X466175D01*
X467174Y-122568D01*
Y-125567D01*
X473173Y-120568D02*
X472173Y-119569D01*
X470174D01*
X469174Y-120568D01*
Y-124567D01*
X470174Y-125567D01*
X472173D01*
X473173Y-124567D01*
X476171Y-125567D02*
X478171D01*
X479171Y-124567D01*
Y-122568D01*
X478171Y-121568D01*
X476171D01*
X475172Y-122568D01*
Y-124567D01*
X476171Y-125567D01*
X481170D02*
Y-121568D01*
X484169D01*
X485169Y-122568D01*
Y-125567D01*
X488168Y-120568D02*
Y-121568D01*
X487168D01*
X489167D01*
X488168D01*
Y-124567D01*
X489167Y-125567D01*
X492166Y-121568D02*
Y-125567D01*
Y-123567D01*
X493166Y-122568D01*
X494166Y-121568D01*
X495165D01*
X499164Y-125567D02*
X501163D01*
X502163Y-124567D01*
Y-122568D01*
X501163Y-121568D01*
X499164D01*
X498164Y-122568D01*
Y-124567D01*
X499164Y-125567D01*
X504163D02*
X506162D01*
X505162D01*
Y-119569D01*
X504163D01*
M02*
