M48
;Layer_Color=9474304
;FILE_FORMAT=2:5
INCH
;TYPE=PLATED
T1F00S00C0.00590
;TYPE=NON_PLATED
%
T01
X0527261Y0293728
X0524373Y0296617
X0527261Y0299506
X0310525Y0360134
Y0362201
X0310502Y0363905
X0308002
X0308025Y0362201
Y0360134
X0305525
Y0362201
X0305502Y0363905
X0305388Y0365730
Y0367397
X0305372Y0369600
X0305115Y0371651
X0304360Y0373575
X0302934Y0375484
X0301243Y0376672
X0299248Y0377215
X0297150Y0377300
X0294950
X0292501Y0377240
X0290434
X0288367
X0286300
X0284233
X0282166
X0280099
X0278032
X0275965
X0273898
X0271831
X0269764
X0267697
X0265630
X0263563
X0261496
X0259429
X0257362
X0255295
X0253228
X0251161
X0249094
X0247038Y0377459
X0245099Y0378173
X0243393Y0379342
X0242018Y0380885
X0241034Y0382702
X0240489Y0384696
X0240414Y0386762
X0240811Y0388790
X0241661Y0390674
X0242918Y0392315
X0244379Y0393778
X0245840Y0395239
X0247302Y0396701
X0248764Y0398162
X0250225Y0399624
X0251687Y0401085
X0253149Y0402547
X0254610Y0404008
X0256072Y0405470
X0257498Y0406966
X0258858Y0408522
X0260149Y0410137
X0261368Y0411806
X0262513Y0413527
X0263581Y0415297
X0264572Y0417111
X0265482Y0418967
X0266310Y0420861
X0267055Y0422789
X0267715Y0424748
X0268289Y0426733
X0268775Y0428742
X0269174Y0430770
X0269483Y0432814
X0269703Y0434869
X0269833Y0436932
X0269873Y0438999
Y0441066
Y0443133
Y0445200
Y0447267
Y0449334
Y0451401
Y0453468
Y0455535
Y0457602
Y0459669
X0269866Y0461736
X0269623Y0463789
X0269041Y0465772
X0268134Y0467629
X0265256Y0466444
X0266202Y0464606
X0266716Y0462604
X0266805Y0460539
Y0458472
Y0456405
Y0454338
Y0452271
Y0450204
Y0448137
Y0446070
Y0444003
Y0441936
Y0439869
X0266792Y0437802
X0266694Y0435737
X0266499Y0433680
X0266208Y0431633
X0265823Y0429602
X0265343Y0427592
X0264769Y0425606
X0264104Y0423649
X0263347Y0421725
X0262502Y0419839
X0261570Y0417994
X0260553Y0416195
X0259452Y0414445
X0258272Y0412749
X0257013Y0411109
X0255679Y0409530
X0254273Y0408015
X0252814Y0406550
X0251353Y0405089
X0249891Y0403627
X0248429Y0402166
X0246968Y0400704
X0245506Y0399243
X0244044Y0397781
X0242583Y0396320
X0240853Y0394590
X0239522Y0393009
X0238480Y0391223
X0237759Y0389286
X0237378Y0387255
X0237349Y0385188
X0237674Y0383147
X0238342Y0381191
X0239334Y0379377
X0240621Y0377760
X0242170Y0376391
X0243940Y0375323
X0245873Y0374591
X0247906Y0374219
X0249972Y0374172
X0252039
X0254106
X0256173
X0258240
X0260307
X0262374
X0264441
X0266508
X0268575
X0270642
X0272709
X0274776
X0276843
X0278910
X0280977
X0283044
X0285111
X0287178
X0289245
X0291312
X0293379
X0295446
X0297513
X0299350Y0374000
X0300850Y0373100
X0301911Y0371594
X0302320Y0369584
Y0367517
X0302250Y0365800
X0302257Y0364088
X0302048Y0362201
Y0360134
X0299548
Y0362201
X0299757Y0364088
X0297257
X0297048Y0362201
Y0360134
X0294548
Y0362201
X0294757Y0364088
X0294538Y0382572
X0296605
X0298672
X0300738Y0382511
X0302778Y0382176
X0304750Y0381557
X0306615Y0380664
X0308334Y0379518
X0309876Y0378140
X0311271Y0376940
X0311902Y0380452
X0310359Y0381828
X0308666Y0383014
X0306846Y0383993
X0304924Y0384754
X0302926Y0385284
X0300880Y0385577
X0298814Y0385640
X0296747
X0294680
X0292613
X0290546
X0288479
X0286412Y0385667
X0284353Y0385845
X0282314Y0386188
X0280310Y0386692
X0278352Y0387356
X0276454Y0388174
X0274628Y0389142
X0272885Y0390253
X0271237Y0391501
X0269694Y0392876
X0268335Y0394434
X0267360Y0396256
X0266824Y0398253
X0266742Y0400318
X0266980Y0402371
X0267493Y0404374
X0268271Y0406289
X0269300Y0408081
X0270562Y0409719
X0272003Y0411201
X0273464Y0412662
X0274887Y0414162
X0276072Y0415855
X0276966Y0417719
X0277545Y0419703
X0277794Y0421755
X0277850Y0423900
Y0425800
X0277804Y0427956
Y0430023
Y0432090
Y0434157
Y0436224
Y0438291
Y0440358
Y0442425
Y0444492
Y0446559
Y0448626
Y0450693
Y0452760
Y0454827
Y0456894
Y0458961
Y0461028
Y0463095
Y0465162
X0277621Y0467221
X0274596Y0466679
X0274736Y0464617
Y0462550
Y0460483
Y0458416
Y0456349
Y0454282
Y0452215
Y0450148
Y0448081
Y0446014
Y0443947
Y0441880
Y0439813
Y0437746
Y0435679
Y0433612
Y0431545
Y0429478
Y0427411
Y0425344
Y0423277
X0274680Y0421210
X0274237Y0419191
X0273372Y0417314
X0272124Y0415666
X0270666Y0414202
X0269204Y0412740
X0267808Y0411215
X0266592Y0409544
X0265570Y0407747
X0264758Y0405847
X0264164Y0403867
X0263796Y0401833
X0263659Y0399770
X0263804Y0397709
X0264298Y0395701
X0265125Y0393807
X0266262Y0392081
X0267669Y0390567
X0269213Y0389193
X0270852Y0387933
X0272577Y0386794
X0274379Y0385781
X0276248Y0384900
X0278177Y0384155
X0280153Y0383550
X0282168Y0383088
X0284210Y0382772
X0286271Y0382603
X0288337Y0382572
X0290404
X0292471
X0310764Y0394972
X0309303Y0396433
X0307841Y0397895
X0306379Y0399357
X0304918Y0400818
X0303456Y0402280
X0301995Y0403741
X0300533Y0405203
X0299072Y0406664
X0297610Y0408126
X0296154Y0409594
X0294750Y0411110
X0293408Y0412682
X0292130Y0414307
X0290919Y0415982
X0289777Y0417705
X0288705Y0419472
X0287705Y0421281
X0286779Y0423129
X0285929Y0425013
X0285155Y0426930
X0284458Y0428876
X0283842Y0430849
X0283305Y0432845
X0282849Y0434861
X0282475Y0436894
X0282183Y0438940
X0281974Y0440997
X0281848Y0443060
X0281805Y0445126
Y0447193
Y0449260
Y0451327
Y0453394
Y0455461
Y0457528
Y0459595
X0281799Y0461662
X0281658Y0463724
X0281333Y0465766
X0280826Y0467770
X0284234Y0466863
X0284608Y0464830
X0284821Y0462774
X0284873Y0460708
Y0458641
Y0456574
Y0454507
Y0452440
Y0450373
Y0448306
Y0446239
X0284883Y0444172
X0284969Y0442106
X0285144Y0440047
X0285407Y0437997
X0285758Y0435960
X0286196Y0433939
X0286720Y0431940
X0287329Y0429965
X0288023Y0428018
X0288799Y0426102
X0289657Y0424222
X0290595Y0422380
X0291612Y0420580
X0292704Y0418825
X0293871Y0417119
X0295110Y0415464
X0296418Y0413864
X0297795Y0412322
X0299235Y0410839
X0300696Y0409378
X0302158Y0407916
X0303619Y0406455
X0305081Y0404993
X0306543Y0403531
X0308004Y0402070
X0309466Y0400608
X0310927Y0399147
X0312389Y0397685
X0312226Y0393510
X0273939Y0468639
X0263925Y0468025
X0233493Y0459055
Y0456496
X0230934Y0453937
X0228375
X0231959Y0451870
X0232195Y0449816
X0233117Y0447967
X0234285Y0446775
X0235874Y0449862
X0235027Y0451870
X0236053Y0453936
X0351330Y0453985
X0350160Y0455431
X0349266Y0457295
X0348865Y0459901
X0348959Y0461565
X0347934Y0463337
X0345375
X0353052
X0352027Y0461565
X0352250Y0459901
X0352395Y0458246
X0353190Y0456825
X0353036Y0452810
X0357480Y0451131
X0360368Y0454020
X0357480Y0456909
X0350493Y0465896
Y0468455
X0381150Y0468700
X0381550Y0466200
X0381750Y0464333
Y0461733
X0381730Y0459543
Y0457676
Y0455609
Y0453542
Y0451475
X0381723Y0449408
X0381560Y0447348
X0381186Y0445315
X0380605Y0443331
X0379822Y0441418
X0378846Y0439596
X0377687Y0437884
X0376358Y0436301
X0374906Y0434831
X0373444Y0433369
X0371983Y0431908
X0370517Y0430450
X0368998Y0429048
X0367414Y0427720
X0365770Y0426467
X0364068Y0425294
X0362313Y0424203
X0360508Y0423196
X0358657Y0422275
X0356765Y0421442
X0354836Y0420700
X0352874Y0420050
X0350883Y0419494
X0348869Y0419032
X0346834Y0418666
X0344785Y0418396
X0342725Y0418223
X0340659Y0418148
X0338592Y0418145
X0336525
X0334466Y0417964
X0332480Y0417393
X0330638Y0416454
X0329010Y0415180
X0327638Y0413635
X0326534Y0411888
X0325726Y0409985
X0325237Y0407977
X0325078Y0405916
X0325212Y0403853
X0325598Y0401822
X0326230Y0399855
X0327099Y0397979
X0328192Y0396225
X0329491Y0394617
X0330992Y0393196
X0332708Y0392044
X0334595Y0391198
X0336596Y0390683
X0338656Y0390514
X0340723
X0342790
X0344857
X0346924
X0348991
X0351058
X0353125
X0355192
X0357259
X0359326
X0361389Y0390377
X0363400Y0389900
X0365303Y0389093
X0367045Y0387980
X0368274Y0386904
X0369588Y0385309
X0370574Y0383492
X0371193Y0381520
X0371424Y0379466
X0371422Y0377228
Y0375161
X0371350Y0373500
X0371376Y0371768
X0371168Y0369881
Y0367814
X0368668
Y0369881
X0368877Y0371787
X0365499Y0372244
X0366223Y0370308
X0366664Y0368289
X0366812Y0366227
X0366950Y0364100
X0366965Y0362201
Y0360134
X0363488
Y0362201
X0360988
Y0360134
X0358488
Y0362201
X0355988
Y0360134
X0356197Y0364493
X0358697
X0361197
X0363697Y0364494
X0363726Y0366882
X0363420Y0368926
X0362749Y0370881
X0361736Y0372683
X0360656Y0373935
X0359351Y0375100
X0358051Y0376300
X0356617Y0377319
X0354824Y0378347
X0352943Y0379204
X0350991Y0379883
X0348984Y0380379
X0346940Y0380686
X0344876Y0380802
X0342809Y0380803
X0340742
X0338675
X0336608
X0334541Y0380807
X0332478Y0380932
X0330433Y0381233
X0328421Y0381706
X0326457Y0382349
X0324554Y0383157
X0322727Y0384125
X0320990Y0385244
X0319354Y0386507
X0317831Y0387905
X0316450Y0389200
X0315149Y0390587
X0313687Y0392049
X0316774Y0393300
X0318235Y0391839
X0319697Y0390377
X0321203Y0388961
X0322837Y0387695
X0324586Y0386594
X0326435Y0385670
X0328365Y0384929
X0330358Y0384381
X0332394Y0384029
X0334456Y0383877
X0336523Y0383871
X0338590
X0340657
X0342724
X0344791
X0346856Y0383775
X0348906Y0383512
X0350928Y0383083
X0352908Y0382490
X0354833Y0381737
X0356691Y0380831
X0358468Y0379775
X0360153Y0378579
X0361736Y0377249
X0363264Y0375709
X0364506Y0374057
X0374490Y0374010
Y0376077
X0374493Y0379298
X0374338Y0381359
X0373878Y0383374
X0373122Y0385298
X0372088Y0387088
X0370799Y0388704
X0368600Y0390646
X0366849Y0391746
X0364967Y0392600
X0362988Y0393195
X0360946Y0393519
X0358880Y0393582
X0356813
X0354746
X0352679
X0350612
X0348545
X0346478
X0344411
X0342344
X0340277
X0338210Y0393591
X0336169Y0393918
X0334254Y0394695
X0332563Y0395884
X0331151Y0397393
X0329986Y0399101
X0329090Y0400963
X0328484Y0402940
X0328146Y0405969
X0328366Y0408024
X0329017Y0409986
X0330070Y0411765
X0331480Y0413276
X0333228Y0414379
X0335206Y0414979
X0337271Y0415077
X0339338
X0341405
X0343650Y0415200
X0345550Y0415400
X0347555Y0415674
X0349588Y0416048
X0351603Y0416511
X0353594Y0417063
X0355560Y0417703
X0357496Y0418428
X0359397Y0419238
X0361261Y0420132
X0363084Y0421107
X0364862Y0422161
X0366591Y0423293
X0368269Y0424500
X0369892Y0425780
X0371457Y0427131
X0372960Y0428549
X0374423Y0430010
X0375884Y0431471
X0377346Y0432933
X0378789Y0434413
X0380110Y0436003
X0381284Y0437704
X0382300Y0439504
X0383152Y0441387
X0383832Y0443339
X0384334Y0445344
X0384655Y0447386
X0384793Y0449449
X0384798Y0451516
Y0453583
Y0455650
Y0457717
Y0459784
Y0461851
Y0463918
X0384950Y0466000
X0384650Y0467900
X0392405Y0468606
X0392605Y0466549
X0393197Y0464568
X0394160Y0462739
X0395457Y0461130
X0396994Y0459591
X0398456Y0458130
X0399917Y0456668
X0401379Y0455206
X0402840Y0453745
X0404302Y0452283
X0405763Y0450821
X0407225Y0449360
X0408686Y0447898
X0410148Y0446436
X0411609Y0444974
X0413071Y0443513
X0414532Y0442051
X0415994Y0440589
X0417455Y0439128
X0418917Y0437666
X0420378Y0436204
X0421840Y0434743
X0423301Y0433281
X0424763Y0431819
X0425850Y0430600
X0426648Y0428948
X0426143Y0426944
X0424678Y0426034
X0422611
X0420544
X0418477
X0416410
X0414343
X0412276
X0410209
X0408142
X0406075
X0404008
X0401941
X0399874
X0397807
X0395740
X0393673
X0391606
X0389539
X0387472
X0385286Y0425942
X0383237Y0425667
X0381221Y0425212
X0379253Y0424579
X0377350Y0423774
X0375525Y0422804
X0373793Y0421675
X0372169Y0420397
X0370900Y0419219
X0369438Y0417757
X0367977Y0416296
X0366246Y0414183
X0365457Y0412273
X0365190Y0410223
X0365465Y0408174
X0366261Y0406267
X0367504Y0404652
X0369154Y0403407
X0371082Y0402662
X0372783Y0402466
X0374550Y0402400
X0376351Y0402100
X0377806Y0401110
X0378650Y0399700
X0378950Y0398100
X0379050Y0396400
X0379056Y0394735
X0378848Y0392921
Y0390854
X0376348
Y0392921
X0376557Y0394808
X0374057
X0373848Y0392921
Y0390854
X0382325
Y0392921
X0382250Y0394600
X0382251Y0396300
Y0398100
X0381907Y0399914
X0381131Y0401830
X0379806Y0403574
X0378136Y0404792
X0376350Y0405500
X0374550Y0405600
X0372783Y0405534
X0371195Y0406010
X0369673Y0406822
X0368558Y0408562
X0368272Y0410610
X0368850Y0412300
X0369950Y0413900
X0371135Y0415116
X0373069Y0417050
X0374603Y0418435
X0376271Y0419656
X0378055Y0420700
X0379937Y0421556
X0381896Y0422215
X0383912Y0422671
X0385650Y0422800
X0387351Y0422966
X0389418
X0391485
X0393552
X0395619
X0397686
X0399753
X0401820
X0403887
X0405954
X0408021
X0410088
X0412155
X0414222
X0416289
X0418356
X0420423
X0422490
X0424678
X0426550Y0423200
X0427934Y0424315
X0429128Y0426002
X0429694Y0427990
X0429567Y0430053
X0429050Y0431700
X0427934Y0432986
X0426473Y0434448
X0425011Y0435909
X0423550Y0437371
X0422088Y0438833
X0420627Y0440294
X0419165Y0441756
X0417704Y0443218
X0416242Y0444679
X0414781Y0446141
X0413319Y0447603
X0411858Y0449065
X0410396Y0450526
X0408935Y0451988
X0407473Y0453450
X0406012Y0454911
X0404550Y0456373
X0403089Y0457835
X0401627Y0459296
X0400166Y0460758
X0399050Y0462100
X0397702Y0463222
X0396452Y0464868
X0395691Y0466790
X0395473Y0468606
X0405989Y0468468
X0406374Y0466437
X0406966Y0464457
X0407758Y0462548
X0408742Y0460730
X0409908Y0459023
X0411243Y0457446
X0412698Y0455977
X0414160Y0454515
X0415621Y0453054
X0417083Y0451592
X0418544Y0450131
X0420006Y0448669
X0421468Y0447207
X0422929Y0445746
X0424391Y0444284
X0425852Y0442823
X0427314Y0441361
X0428776Y0439899
X0430237Y0438438
X0431699Y0436976
X0433160Y0435515
X0434622Y0434053
X0436083Y0432592
X0437545Y0431130
X0439007Y0429668
X0440448Y0428186
X0441647Y0426503
X0442511Y0424625
X0443009Y0422619
X0443122Y0420555
X0442794Y0418514
X0442016Y0416599
X0440827Y0414908
X0439289Y0413527
X0437481Y0412527
X0435493Y0411959
X0433430Y0411834
X0431363
X0429296
X0427229
X0425162
X0423095
X0421028
X0418961
X0416894
X0414827
X0412760
X0410693
X0408626
X0406559
X0404450Y0411900
X0402350Y0412400
X0400925Y0413485
X0399700Y0414710
X0398449Y0415875
X0396988Y0417337
X0395865Y0418595
X0394295Y0419462
X0392269Y0419870
X0390240Y0419476
X0388514Y0418338
X0387308Y0416613
X0386799Y0414609
X0386778Y0412130
X0386737Y0410168
X0386528Y0408281
Y0406214
X0384028
Y0408281
X0384237Y0410168
X0381737
X0381528Y0408281
Y0406214
X0390005
Y0408281
X0390022Y0410168
X0389846Y0412402
X0389853Y0414204
X0390632Y0416119
X0392265Y0416695
X0393844Y0416143
X0395305Y0414681
X0396767Y0413220
X0397905Y0411915
X0399203Y0410783
X0400867Y0409557
X0403250Y0408800
X0405697Y0408766
X0407764
X0409831
X0411898
X0413965
X0416032
X0418099
X0420166
X0422233
X0424300
X0426367
X0428434
X0430501
X0432568
X0434635Y0408783
X0436682Y0409067
X0438652Y0409692
X0440489Y0410640
X0442139Y0411885
X0443556Y0413390
X0444699Y0415113
X0445534Y0417003
X0446039Y0419008
X0446199Y0421068
X0446034Y0423129
X0445569Y0425143
X0444815Y0427067
X0443787Y0428861
X0442508Y0430485
X0441057Y0431956
X0439595Y0433418
X0438134Y0434879
X0436672Y0436341
X0435210Y0437803
X0433749Y0439264
X0432287Y0440726
X0430826Y0442187
X0429364Y0443649
X0427902Y0445111
X0426441Y0446572
X0424979Y0448034
X0423518Y0449495
X0422056Y0450957
X0420595Y0452418
X0419133Y0453880
X0417671Y0455342
X0416210Y0456803
X0414748Y0458265
X0413300Y0459740
X0412004Y0461350
X0410914Y0463106
X0410044Y0464981
X0409409Y0466948
X0395022Y0410168
X0395005Y0408281
Y0406214
X0392505
Y0408281
X0392522Y0410168
X0400297Y0388484
X0398964Y0386904
X0397787Y0385205
X0396776Y0383402
X0395939Y0381512
X0395285Y0379552
X0394780Y0377641
X0394481Y0375495
X0394456Y0373611
Y0371544
Y0369477
Y0367610
Y0365843
X0394416Y0364094
X0394208Y0362201
Y0360134
X0397685
Y0362201
X0397702Y0363905
X0397524Y0366130
Y0368197
Y0370464
Y0372531
X0397665Y0374735
X0397870Y0376815
X0398224Y0378671
X0398888Y0380629
X0399764Y0382501
X0400839Y0384266
X0402102Y0385903
X0403536Y0387391
X0405111Y0388730
X0406808Y0389910
X0408611Y0390921
X0410503Y0391754
X0412466Y0392400
X0414483Y0392853
X0416534Y0393110
X0418600Y0393172
X0420667
X0422734
X0424801
X0426868
X0428935
X0431002
X0433069
X0435136
X0437203
X0439270
X0441337Y0393179
X0443402Y0393262
X0445462Y0393441
X0447510Y0393715
X0449544Y0394083
X0451559Y0394545
X0453550Y0395100
X0455513Y0395747
X0457445Y0396483
X0459340Y0397308
X0461195Y0398221
X0463005Y0399217
X0464768Y0400297
X0466479Y0401457
X0468134Y0402695
X0467970Y0406543
X0466382Y0405220
X0464730Y0403978
X0463018Y0402819
X0461251Y0401747
X0459433Y0400764
X0457568Y0399872
X0455661Y0399075
X0453717Y0398373
X0451740Y0397768
X0449736Y0397262
X0447709Y0396857
X0445665Y0396553
X0443608Y0396351
X0441543Y0396251
X0439476Y0396240
X0437409
X0435342
X0433275
X0431208
X0429141
X0427074
X0425007
X0422940
X0420873
X0418806
X0416740Y0396199
X0414683Y0395991
X0412651Y0395611
X0410659Y0395061
X0408720Y0394344
X0406849Y0393466
X0405058Y0392433
X0403361Y0391253
X0401770Y0389934
X0420551Y0385100
X0421866Y0386161
X0423639Y0387223
X0425599Y0387880
X0427351Y0388200
X0429018Y0388103
X0431085
X0433152
X0435219
X0436950Y0388100
X0438851Y0388200
X0440650
X0442442Y0388184
X0444504Y0388327
X0446560Y0388543
X0448607Y0388831
X0450643Y0389189
X0452664Y0389619
X0454670Y0390118
X0456657Y0390688
X0458623Y0391326
X0460565Y0392033
X0462482Y0392807
X0464370Y0393648
X0466228Y0394554
X0468053Y0395524
X0467262Y0391639
X0465399Y0390743
X0463507Y0389910
X0461589Y0389140
X0459646Y0388434
X0457681Y0387793
X0455696Y0387218
X0453693Y0386708
X0451674Y0386266
X0449641Y0385891
X0447597Y0385583
X0445544Y0385343
X0443484Y0385172
X0441420Y0385069
X0439650Y0385000
X0437751
X0435922Y0385035
X0433855
X0431788
X0429721
X0427654
X0425751Y0384700
X0423808Y0383733
X0422434Y0382221
X0421902Y0380386
X0422285Y0378616
X0422853Y0376967
X0424100Y0375318
X0425882Y0373536
X0427212Y0371783
X0427988Y0369867
X0428252Y0367817
X0428402Y0366072
Y0364005
X0428405Y0362201
Y0360134
X0430905
Y0362201
X0430902Y0364005
X0433402
X0433405Y0362201
Y0360134
X0424928
Y0362201
X0424952Y0363855
X0425168Y0365734
Y0367801
X0424843Y0369636
X0423393Y0371687
X0421420Y0373697
X0420225Y0375383
X0419379Y0377269
X0418877Y0379610
X0418955Y0381676
X0419638Y0383627
X0419952Y0363855
X0419928Y0362201
Y0360134
X0417428
Y0362201
X0417452Y0363855
X0422452
X0422428Y0362201
Y0360134
X0405185
Y0362201
X0405202Y0363905
X0402702
X0402685Y0362201
Y0360134
X0400185
Y0362201
X0400202Y0363905
X0374645Y0367814
Y0369881
X0374490Y0371943
X0343592Y0364830
X0341092
X0338592
X0338745Y0362201
Y0360134
X0341245
Y0362201
X0343745
Y0360134
X0336245
Y0362201
X0336100Y0364263
X0336092Y0366897
X0336100Y0368897
X0335825Y0371158
X0335043Y0373071
X0333708Y0374810
X0332044Y0376036
X0330091Y0376712
X0328405Y0376827
X0326774
X0324707
X0322640
X0320681Y0376826
X0318621Y0376998
X0316618Y0377508
X0314727Y0378343
X0313350Y0379300
X0312994Y0375798
X0314853Y0374896
X0316816Y0374248
X0318848Y0373868
X0320681Y0373759
X0322748
X0324815
X0326882
X0328841
X0330450Y0373300
X0331751Y0372200
X0332699Y0370870
X0333032Y0369100
Y0367033
X0332853Y0364830
X0330353
X0327853
X0325353
X0325268Y0362201
Y0360134
X0327768
Y0362201
X0330268
Y0360134
X0332768
Y0362201
X0313025
X0313002Y0363905
X0313025Y0360134
X0315312Y0394762
X0313851Y0396223
X0450934Y0381678
X0452694Y0382762
X0454350Y0383200
X0456150
X0458060Y0383140
X0460127
X0462194
X0464261
X0466328
X0468395
X0467263Y0380072
X0465196
X0463129
X0461062
X0458995
X0456793
X0454726
X0452720Y0378885
X0452785Y0376775
X0453943Y0375175
X0455404Y0373714
X0456866Y0372252
X0458195Y0370640
X0458886Y0368535
X0459105Y0366285
X0459122Y0364005
X0459125Y0362201
Y0360134
X0461625
Y0362201
X0461622Y0364005
X0464122
X0464125Y0362201
Y0360134
X0466625
Y0362201
X0466622Y0364005
X0455672Y0363855
X0455648Y0362201
Y0360134
X0453148
Y0362201
X0453172Y0363855
X0450672
X0450648Y0362201
Y0360134
X0448148
Y0362201
X0448172Y0363855
X0455736Y0366229
Y0368296
X0454695Y0369870
X0453589Y0371191
X0452128Y0372652
X0450666Y0374114
X0449602Y0375676
X0449181Y0377700
X0449582Y0379765
X0469330Y0380072
X0471397
X0473464Y0380073
X0475450Y0380100
X0477550Y0380637
X0479500Y0381324
X0481340Y0382265
X0483038Y0383444
X0484565Y0384836
X0486027Y0386298
X0487489Y0387760
X0488950Y0389221
X0490412Y0390683
X0491873Y0392144
X0493335Y0393606
X0494796Y0395068
X0496258Y0396529
X0497719Y0397991
X0499181Y0399453
X0500643Y0400914
X0502104Y0402376
X0503566Y0403837
X0505027Y0405299
X0506489Y0406761
X0507950Y0408222
X0509412Y0409684
X0510873Y0411146
X0512288Y0412653
X0513628Y0414227
X0514891Y0415863
X0516073Y0417559
X0517171Y0419310
X0518184Y0421112
X0519108Y0422961
X0519942Y0424852
X0520683Y0426782
X0521330Y0428745
X0521881Y0430737
X0522335Y0432754
X0522691Y0434790
X0522948Y0436841
X0523105Y0438902
X0523163Y0440968
Y0443035
Y0445102
Y0447169
Y0449236
Y0451303
Y0453370
Y0455437
Y0457504
Y0459571
Y0461638
Y0463705
Y0465772
Y0467839
X0520095Y0467590
Y0465523
Y0463456
Y0461389
Y0459322
Y0457255
Y0455188
Y0453121
Y0451054
Y0448987
Y0446920
Y0444853
Y0442786
X0520093Y0440719
X0520018Y0438654
X0519836Y0436595
X0519546Y0434548
X0519150Y0432519
X0518649Y0430514
X0518044Y0428538
X0517337Y0426595
X0516529Y0424693
X0515624Y0422834
X0514622Y0421026
X0513528Y0419272
X0512344Y0417578
X0511073Y0415948
X0509719Y0414386
X0508287Y0412897
X0506825Y0411435
X0505363Y0409973
X0503902Y0408512
X0502440Y0407050
X0500979Y0405589
X0499517Y0404127
X0498055Y0402665
X0496594Y0401204
X0495132Y0399742
X0493671Y0398281
X0492209Y0396819
X0490747Y0395357
X0489286Y0393896
X0487824Y0392434
X0486363Y0390973
X0484901Y0389511
X0483439Y0388049
X0481977Y0386589
X0480372Y0385286
X0478573Y0384269
X0476629Y0383566
X0474595Y0383197
X0472529Y0383140
X0470462
X0469094Y0392596
X0470894Y0393613
X0472658Y0394689
X0474386Y0395824
X0476076Y0397015
X0477724Y0398261
X0479331Y0399561
X0480894Y0400915
X0482250Y0402000
X0483387Y0403274
X0484849Y0404736
X0486310Y0406197
X0487772Y0407659
X0489233Y0409120
X0490695Y0410582
X0492157Y0412044
X0493618Y0413505
X0495080Y0414967
X0496541Y0416428
X0498003Y0417890
X0499464Y0419351
X0500926Y0420813
X0502350Y0422000
X0503452Y0423339
X0504869Y0424844
X0506194Y0426430
X0507422Y0428093
X0508548Y0429826
X0509568Y0431624
X0510480Y0433479
X0511278Y0435386
X0511962Y0437337
X0512527Y0439325
X0512973Y0441343
X0513297Y0443384
X0513499Y0445442
X0513578Y0447783
Y0449850
Y0451917
Y0453984
Y0456051
Y0458118
Y0460185
Y0462252
Y0464319
Y0466386
Y0468453
X0510510Y0468665
Y0466598
Y0464531
Y0462464
Y0460397
Y0458330
Y0456263
Y0454196
Y0452129
Y0450062
Y0447995
X0510442Y0445717
X0510239Y0443660
X0509901Y0441621
X0509431Y0439608
X0508829Y0437631
X0508099Y0435697
X0507244Y0433815
X0506267Y0431993
X0505173Y0430240
X0503966Y0428562
X0502652Y0426966
X0501283Y0425508
X0499821Y0424046
X0498360Y0422585
X0496898Y0421123
X0495437Y0419662
X0493975Y0418200
X0492513Y0416738
X0491052Y0415277
X0489590Y0413815
X0488129Y0412354
X0486667Y0410892
X0485206Y0409431
X0483744Y0407969
X0482282Y0406507
X0480950Y0405400
X0479731Y0404007
X0478195Y0402624
X0476611Y0401296
X0474983Y0400023
X0473310Y0398808
X0471597Y0397652
X0469844Y0396557
X0469730Y0404009
X0471264Y0405394
X0472737Y0406844
X0474199Y0408306
X0475660Y0409767
X0477122Y0411229
X0478583Y0412691
X0480045Y0414152
X0481506Y0415614
X0482968Y0417075
X0484430Y0418537
X0485891Y0419999
X0487353Y0421460
X0488814Y0422922
X0490276Y0424383
X0491737Y0425845
X0493199Y0427307
X0494660Y0428768
X0496457Y0430565
X0497873Y0432071
X0499193Y0433662
X0500412Y0435331
X0501526Y0437072
X0502530Y0438879
X0503420Y0440744
X0504194Y0442661
X0504847Y0444622
X0505378Y0446620
X0505785Y0448646
X0506066Y0450694
X0506219Y0452755
X0506251Y0454822
Y0456889
Y0458956
Y0461023
Y0463090
Y0465157
Y0467224
X0503183Y0467642
Y0465575
Y0463508
Y0461441
Y0459374
Y0457307
Y0455240
X0503165Y0453173
X0503025Y0451111
X0502744Y0449063
X0502325Y0447039
X0501769Y0445048
X0501078Y0443100
X0500257Y0441203
X0499309Y0439366
X0498238Y0437598
X0497049Y0435907
X0495748Y0434301
X0494341Y0432787
X0492879Y0431325
X0491418Y0429864
X0489956Y0428402
X0488495Y0426941
X0487033Y0425479
X0485572Y0424017
X0484110Y0422556
X0482649Y0421094
X0481187Y0419632
X0479725Y0418171
X0478264Y0416709
X0476802Y0415248
X0475341Y0413786
X0473879Y0412324
X0472418Y0410863
X0470956Y0409401
X0469491Y0407943
X0502740Y0394659
X0504244Y0396076
X0505960Y0397228
X0507855Y0398054
X0509867Y0398527
X0511931Y0398640
X0513998
X0516065
X0518132
X0520199
X0522266
X0524333
X0526400
X0528467
X0530534
X0532601
X0534668
X0536735
X0538802
X0540869
X0542936
X0545003Y0398683
X0547067Y0398796
X0549126Y0398979
X0551177Y0399232
X0553219Y0399555
X0555248Y0399946
X0557263Y0400407
X0559262Y0400935
X0561241Y0401532
X0563199Y0402195
X0565133Y0402924
X0567041Y0403719
X0568921Y0404577
X0570771Y0405500
X0572588Y0406484
X0574371Y0407530
X0576117Y0408636
X0577825Y0409800
X0579492Y0411022
X0581117Y0412300
X0582698Y0413632
X0584232Y0415017
X0585718Y0416454
X0586850Y0417800
X0588239Y0418976
X0589701Y0420437
X0591161Y0421900
X0592575Y0423408
X0593916Y0424981
X0595181Y0426616
X0596367Y0428308
X0597472Y0430055
X0598494Y0431852
X0599429Y0433695
X0600276Y0435581
X0601033Y0437504
X0601699Y0439461
X0602271Y0441447
X0602749Y0443458
X0603131Y0445490
X0603416Y0447537
X0603605Y0449595
X0603696Y0451660
X0603705Y0453727
Y0455794
Y0457861
Y0459928
Y0461995
X0603698Y0464062
X0603276Y0466086
X0602244Y0467877
X0606128Y0467217
X0606660Y0465220
X0606773Y0463156
Y0461089
Y0459022
Y0456955
Y0454888
Y0452821
X0606738Y0450754
X0606613Y0448691
X0606397Y0446635
X0606090Y0444591
X0605694Y0442562
X0605208Y0440553
X0604634Y0438568
X0603973Y0436609
X0603225Y0434682
X0602394Y0432790
X0601480Y0430936
X0600484Y0429124
X0599410Y0427358
X0598259Y0425642
X0597033Y0423977
X0595735Y0422369
X0594367Y0420819
X0592932Y0419331
X0591471Y0417870
X0590009Y0416408
X0588548Y0414946
X0587079Y0413492
X0585569Y0412080
X0584014Y0410719
X0582415Y0409408
X0580775Y0408150
X0579096Y0406946
X0577378Y0405796
X0575624Y0404703
X0573835Y0403667
X0572014Y0402689
X0570162Y0401771
X0568281Y0400913
X0566374Y0400116
X0564442Y0399382
X0562487Y0398710
X0560512Y0398102
X0558517Y0397559
X0556507Y0397080
X0554481Y0396666
X0552444Y0396318
X0550396Y0396036
X0548340Y0395821
X0546279Y0395672
X0544213Y0395590
X0542147Y0395572
X0540080
X0538013
X0535946
X0533879
X0531812
X0529745
X0527678
X0525611
X0523544
X0521477
X0519410
X0517343
X0515276
X0513209
X0511142Y0395565
X0509102Y0395230
X0507206Y0394408
X0505567Y0393148
X0504105Y0391686
X0502644Y0390225
X0501182Y0388763
X0499721Y0387302
X0498259Y0385840
X0496797Y0384378
X0495336Y0382917
X0493874Y0381455
X0492413Y0379994
X0491018Y0378468
X0489957Y0376317
X0489659Y0374272
X0489660Y0372531
Y0370464
Y0368397
Y0366330
X0489845Y0363855
Y0362201
Y0360134
X0492345
Y0362201
Y0363855
X0494845
Y0362201
Y0360134
X0497345
Y0362201
Y0363855
X0486368
Y0362201
Y0360134
X0483868
Y0362201
Y0363855
X0481368
Y0362201
Y0360134
X0478868
Y0362201
Y0363855
X0486592Y0366005
Y0368072
Y0370139
Y0372206
Y0374273
X0486754Y0376088
X0487325Y0378075
X0488282Y0379900
X0489585Y0381504
X0491047Y0382966
X0492509Y0384428
X0493970Y0385889
X0495432Y0387351
X0496893Y0388812
X0498355Y0390274
X0499816Y0391735
X0501278Y0393197
X0516968Y0386876
X0518669Y0388051
X0520601Y0388785
X0523170Y0389034
X0525650Y0389100
X0528124Y0389034
X0530191
X0532258
X0534325
X0536392
X0538459
X0540526
X0542593
X0544660
X0546727
X0548794Y0389040
X0550860Y0389108
X0552922Y0389252
X0554977Y0389471
X0557023Y0389765
X0559057Y0390135
X0561076Y0390578
X0563077Y0391096
X0565058Y0391686
X0567016Y0392349
X0568948Y0393083
X0570852Y0393887
X0572725Y0394761
X0574565Y0395703
X0576370Y0396711
X0578136Y0397786
X0579861Y0398924
X0581543Y0400125
X0583181Y0401386
X0584771Y0402707
X0586311Y0404085
X0587800Y0405519
X0589262Y0406981
X0590723Y0408442
X0592185Y0409904
X0593646Y0411365
X0595108Y0412827
X0596570Y0414289
X0598031Y0415750
X0599493Y0417212
X0600954Y0418673
X0602393Y0420157
X0603740Y0421725
X0604984Y0423376
X0606120Y0425103
X0607144Y0426898
X0608053Y0428755
X0608841Y0430666
X0609506Y0432623
X0610045Y0434618
X0610456Y0436644
X0610738Y0438692
X0610888Y0440753
X0610916Y0442820
Y0444887
Y0446954
Y0449021
Y0451088
Y0453155
Y0455222
Y0457289
Y0459356
Y0461423
Y0463490
Y0465557
Y0467624
X0613984Y0466796
Y0464729
Y0462662
Y0460595
Y0458528
Y0456461
Y0454394
Y0452327
Y0450260
Y0448193
Y0446126
Y0444059
Y0441992
X0613918Y0439926
X0613732Y0437868
X0613427Y0435823
X0613004Y0433800
X0612463Y0431805
X0611808Y0429845
X0611040Y0427926
X0610162Y0426055
X0609176Y0424238
X0608087Y0422481
X0606897Y0420791
X0605611Y0419173
X0604233Y0417632
X0602780Y0416161
X0601319Y0414700
X0599857Y0413238
X0598396Y0411777
X0596934Y0410315
X0595472Y0408853
X0594011Y0407392
X0592549Y0405930
X0591088Y0404469
X0589625Y0403009
X0588125Y0401586
X0586578Y0400215
X0584983Y0398900
X0583344Y0397641
X0581662Y0396439
X0579939Y0395297
X0578178Y0394216
X0576380Y0393196
X0574547Y0392240
X0572683Y0391348
X0570788Y0390521
X0568866Y0389760
X0566919Y0389067
X0564949Y0388442
X0562958Y0387886
X0560949Y0387400
X0558924Y0386984
X0556886Y0386638
X0554838Y0386364
X0552781Y0386161
X0550718Y0386029
X0548652Y0385970
X0546585Y0385966
X0544518
X0542451
X0540384
X0538317
X0536250
X0534183
X0532116
X0530049
X0527982
X0525720
X0523653
X0521216Y0385725
X0519375Y0384771
X0518050Y0383371
X0517251Y0381700
X0516954Y0379983
X0517051Y0378300
X0517451Y0376600
X0518411Y0375200
X0519460Y0373815
X0520076Y0372190
X0520371Y0370144
X0520450Y0368000
Y0365800
X0520552Y0363855
X0520565Y0362201
Y0360134
X0523065
Y0362201
X0523052Y0363855
X0525552
X0525565Y0362201
Y0360134
X0528065
Y0362201
X0528052Y0363855
X0517297Y0364136
X0517304Y0366011
Y0368078
X0517220Y0369700
X0517134Y0371323
X0516079Y0373100
X0514771Y0374780
X0514076Y0376565
X0513836Y0378605
X0513946Y0381032
X0514408Y0383047
X0515306Y0384908
X0514797Y0364136
X0514588Y0362201
Y0360134
X0512088
Y0362201
X0512297Y0364136
X0509797
X0509588Y0362201
Y0360134
X0517088
Y0362201
X0540308
Y0360134
X0542808
Y0362201
X0543017Y0364148
X0540517
X0545517
X0545308Y0362201
Y0360134
X0547808
Y0362201
X0548016Y0364112
Y0366014
X0547950Y0367900
Y0369600
X0548016Y0371248
X0548303Y0373376
X0549104Y0375281
X0550365Y0376919
X0551770Y0378025
X0553664Y0378851
X0555712Y0379134
X0558072
X0560139
X0562206
X0564273
X0566340
X0568407
X0570474
X0572541
X0574608
X0576675
X0578742
X0580809
X0582876
X0584943
X0587010
X0589077Y0379144
X0591085Y0379635
X0592788Y0380807
X0594249Y0382268
X0595711Y0383730
X0597173Y0385192
X0598634Y0386653
X0600096Y0388115
X0601557Y0389576
X0603019Y0391038
X0604481Y0392500
X0605942Y0393961
X0607404Y0395423
X0608865Y0396884
X0610327Y0398346
X0611789Y0399808
X0613250Y0401269
X0614712Y0402731
X0616173Y0404192
X0617635Y0405654
X0619027Y0407181
X0620239Y0408856
X0621253Y0410657
X0622057Y0412562
X0622640Y0414545
X0622994Y0416581
X0623116Y0418645
Y0420712
Y0422779
Y0424846
Y0426913
Y0428980
Y0431047
Y0433114
Y0435181
Y0437248
Y0439315
Y0441382
Y0443449
Y0445516
Y0447583
Y0449650
Y0451717
Y0453784
Y0455851
Y0457918
Y0459985
Y0462052
Y0464119
Y0466186
X0623050Y0468251
X0582293Y0459055
Y0456496
X0579734Y0453937
X0577175
X0581134Y0451098
X0582596Y0449636
X0584057Y0448175
X0585950Y0446150
X0588290Y0445051
X0590578Y0445568
X0591178Y0447940
X0590662Y0450228
X0586250Y0450700
X0584900Y0452050
X0584853Y0453936
X0584741Y0376066
X0586808
X0588875Y0376067
X0590924Y0376341
X0592852Y0377086
X0594554Y0378260
X0596028Y0379709
X0597489Y0381170
X0598951Y0382632
X0600412Y0384093
X0601874Y0385555
X0603336Y0387017
X0604797Y0388478
X0606259Y0389940
X0607720Y0391401
X0609182Y0392863
X0610644Y0394325
X0612105Y0395786
X0613567Y0397248
X0615028Y0398709
X0616490Y0400171
X0617952Y0401633
X0619413Y0403094
X0620846Y0404584
X0622138Y0406197
X0623267Y0407929
X0624224Y0409761
X0582674Y0376066
X0580607
X0578540
X0576473
X0574406
X0572339
X0570272
X0568205
X0566138
X0564071
X0562004
X0559937
X0557870
X0555712
X0553590Y0375495
X0552160Y0374105
X0551360Y0372441
X0551084Y0370464
Y0368397
Y0366330
X0551194Y0364048
X0551285Y0362201
Y0360134
X0553785
Y0362201
X0553694Y0364048
X0556194
X0556285Y0362201
Y0360134
X0558785
Y0362201
X0558694Y0364048
X0561194
X0561285Y0362201
Y0360134
X0494272Y0446012
X0492438
X0490638
X0488742Y0448175
X0486637Y0448158
X0484716Y0456547
X0488801Y0456548
X0488802Y0460633
X0484557Y0463337
X0481993Y0465896
Y0468455
X0479434Y0463337
X0476875
X0481400Y0460950
X0626184Y0461155
Y0459088
Y0457021
Y0454954
Y0452887
Y0450820
Y0448753
Y0446686
Y0444619
Y0442552
Y0440485
Y0438418
Y0436351
Y0434284
Y0432217
Y0430150
Y0428083
Y0426016
Y0423949
Y0421882
Y0419815
X0626163Y0417748
X0625972Y0415690
X0625583Y0413660
X0624998Y0411678
X0626184Y0463222
X0626250Y0465000
X0626184Y0466859
X0626064Y0468923
X0625705Y0470958
X0625114Y0472939
X0625045Y0509581
X0626525Y0511024
X0627932Y0512538
X0629174Y0514190
X0630233Y0515965
X0631098Y0517842
X0631759Y0519801
X0632209Y0521818
X0632442Y0523872
X0632459Y0525939
X0632287Y0527999
X0631931Y0530035
X0631396Y0532031
X0630685Y0533972
X0629803Y0535842
X0628759Y0537626
X0627560Y0539309
X0626216Y0540880
X0625718Y0536647
X0626823Y0534900
X0627743Y0533049
X0628468Y0531114
X0628990Y0529114
X0629305Y0527071
X0629408Y0525006
X0629274Y0522944
X0628882Y0520914
X0628237Y0518951
X0627350Y0517083
X0626236Y0515343
X0625021Y0526340
X0624942Y0524275
X0624509Y0522254
X0623732Y0520338
X0622636Y0518586
X0621258Y0517045
X0619718Y0515667
X0617982Y0514544
X0616091Y0513709
X0614093Y0513181
X0612036Y0512975
X0609969Y0512972
X0607902
X0605835
X0603768
X0601701
X0599634
X0597567
X0595500
X0593433
X0591366
X0589299
X0587232
X0585165
X0583098
X0581031
X0578964
X0576897
X0574831Y0512921
X0572838Y0512372
X0571092Y0511265
X0569734Y0509707
X0568842Y0507842
X0568480Y0505807
X0568473Y0503740
X0568550Y0501200
Y0499000
X0570523Y0499077
X0570623Y0500741
X0571136Y0502744
X0572064Y0504591
X0573363Y0506199
X0575002Y0507457
X0576909Y0508255
X0578957Y0508539
X0581024Y0508540
X0583091
X0585158
X0587225
X0589292
X0591359
X0593426
X0595493
X0597560
X0599627
X0601694
X0603761
X0605828
X0607895
X0609962
X0612029
X0614096
X0616158Y0508678
X0618174Y0509137
X0620092Y0509905
X0621867Y0510965
X0623453Y0512290
X0624911Y0513756
X0623417Y0508307
X0621640Y0507250
X0619744Y0506428
X0617850Y0505700
X0616050Y0505500
X0613657Y0505472
X0611590
X0609523
X0607456
X0605389
X0603322
X0601255
X0599188
X0597121
X0595054
X0592987
X0590920
X0588853
X0586786
X0584719
X0582652
X0580585
X0578518Y0505446
X0576551Y0504810
X0575005Y0503438
X0573997Y0501634
X0573596Y0499606
X0573591Y0497039
Y0494972
Y0493110
Y0491043
Y0488976
X0574615Y0487204
X0573593Y0485433
X0572057Y0484645
X0570522Y0485433
X0568475
X0566939Y0484645
X0565404Y0485433
X0563357
X0561821Y0484645
X0560286Y0485433
X0558239
X0556703Y0484645
X0555168Y0485433
X0554144Y0487204
X0555169Y0488976
Y0491043
Y0493110
Y0494915
Y0496782
X0554960Y0499038
X0554131Y0500932
X0552755Y0502474
X0550983Y0503539
X0548978Y0504039
X0546911Y0504072
X0544844
X0542777
X0540710
X0538643
X0536576
X0534509
X0532442
X0530375
X0528308
X0526241Y0504096
X0524246Y0504635
X0522553Y0505821
X0521300Y0507150
X0520425Y0508651
X0519734Y0510599
X0519605Y0512662
X0519699Y0514945
X0520276Y0516930
X0521341Y0518702
X0522805Y0520160
X0524518Y0521318
X0526410Y0522149
X0528422Y0522625
X0530486Y0522740
X0532553
X0534620
X0536687
X0539250Y0522800
X0541850
X0544263Y0523008
X0546271Y0523496
X0548206Y0524224
X0550038Y0525182
X0551740Y0526354
X0553784Y0528220
X0555246Y0529682
X0556707Y0531144
X0558169Y0532605
X0559630Y0534067
X0561092Y0535528
X0562553Y0536990
X0564015Y0538452
X0565476Y0539914
X0566845Y0541462
X0568041Y0543149
X0569048Y0544954
X0569856Y0546856
X0570455Y0548834
X0570839Y0550865
X0571002Y0552926
X0571008Y0554993
Y0557060
Y0559127
Y0561194
Y0563261
Y0565328
Y0567395
Y0569431
Y0571498
Y0573565
X0570808Y0575632
Y0577599
X0568687Y0577699
Y0575632
Y0573565
Y0571498
Y0569431
X0566398Y0568639
Y0566572
Y0564505
Y0562438
Y0560371
X0566331Y0558613
X0566084Y0556560
X0565656Y0554538
X0565051Y0552562
X0564274Y0550646
X0563330Y0548808
X0562227Y0547060
X0560973Y0545416
X0559579Y0543890
X0558450Y0542700
X0557150Y0541500
X0555750Y0540400
X0554406Y0539377
X0552728Y0538170
X0551000Y0537036
X0549225Y0535976
X0547407Y0534994
X0545548Y0534091
X0543652Y0533267
X0541722Y0532526
X0539763Y0531868
X0537777Y0531294
X0535768Y0530806
X0533741Y0530404
X0531698Y0530089
X0529643Y0529862
X0527581Y0529723
X0525515Y0529672
X0523448
X0521381
X0519314
X0517247
X0515180
X0513113
X0511046
X0508979
X0506912
X0504845
X0502778
X0500711
X0498644
X0496577
X0494510
X0492443
X0490376
X0488309Y0529660
X0486604Y0529446
X0484683Y0529081
X0483018Y0528448
X0480850Y0527400
X0478849Y0525975
X0477366Y0524535
X0476084Y0522913
X0475025Y0521138
X0474206Y0519240
X0473642Y0517251
X0473342Y0515206
X0473291Y0513140
Y0511073
Y0509006
Y0506939
Y0504872
X0475341Y0505069
Y0503002
Y0500935
X0473291Y0500443
Y0502510
X0470223
X0470150Y0504345
X0470223Y0506048
Y0508115
Y0510182
Y0512249
X0470227Y0514316
X0470381Y0516378
X0470560Y0518410
X0470859Y0520388
X0471113Y0522245
X0473185Y0524090
X0474390Y0525769
X0475771Y0527307
X0477313Y0528683
X0478999Y0529880
X0481150Y0531100
X0483350Y0531900
X0484950Y0532300
X0486735Y0532612
X0488798Y0532740
X0490865
X0492932
X0494999
X0497066
X0499133
X0501200
X0503267
X0505334
X0507401
X0509468
X0511535
X0513602
X0515669
X0517736
X0519803
X0521870
X0523937
X0526004Y0532745
X0528069Y0532821
X0530129Y0532992
X0532179Y0533256
X0534215Y0533614
X0536232Y0534065
X0538227Y0534607
X0540195Y0535240
X0542131Y0535962
X0544033Y0536771
X0545896Y0537667
X0547716Y0538647
X0549489Y0539709
X0551212Y0540851
X0552881Y0542070
X0554493Y0543365
X0555750Y0544500
X0557050Y0545700
X0558375Y0547096
X0559648Y0548725
X0560749Y0550474
X0561665Y0552327
X0562388Y0554264
X0562910Y0556264
X0563150Y0558000
X0563250Y0559700
Y0561500
X0563330Y0563230
Y0565297
Y0567364
Y0569431
Y0571498
Y0573565
X0563130Y0575632
Y0577599
X0561009Y0577699
Y0575632
Y0573565
Y0571498
Y0569431
X0558720Y0570052
Y0567985
Y0565918
Y0564290
X0558699Y0562329
X0558495Y0560272
X0558076Y0558248
X0557446Y0556279
X0556611Y0554388
X0555582Y0552596
X0554369Y0550922
X0552987Y0549385
X0551074Y0547565
X0549479Y0546250
X0547802Y0545041
X0546051Y0543943
X0544233Y0542959
X0542355Y0542095
X0540426Y0541353
X0538453Y0540737
X0536444Y0540250
X0534408Y0539892
X0532354Y0539667
X0530289Y0539575
X0528222Y0539572
X0526155
X0524088
X0522021
X0519954
X0517887
X0515820
X0513753
X0511686
X0509619
X0507552
X0505485
X0503418
X0501150Y0539500
X0499284Y0539572
X0497217
X0495150
X0493083
X0491016
X0488949
X0486882
X0484815Y0539535
X0483112Y0539288
X0480772Y0538715
X0478866Y0537915
X0477081Y0536873
X0475448Y0535606
X0474250Y0534300
X0472850Y0532700
X0471550Y0530900
X0470450Y0528800
X0469551Y0526601
X0469050Y0524900
X0468768Y0532238
X0469905Y0533964
X0470720Y0535381
X0471850Y0536600
X0473150Y0537800
X0474650Y0539000
X0476150Y0540000
X0477950Y0540900
X0479550Y0541600
X0481650Y0542200
X0483513Y0542488
X0485575Y0542637
X0487642Y0542640
X0489709
X0491776
X0493843
X0495910
X0497977
X0500044
X0502111
X0504178
X0506245
X0508312
X0510379
X0512446
X0514513
X0516580
X0518647
X0520714
X0522781
X0524848
X0526915
X0528982
X0531048Y0542663
X0533109Y0542820
X0535154Y0543122
X0537172Y0543570
X0539153Y0544160
X0541087Y0544889
X0542964Y0545755
X0544775Y0546752
X0546510Y0547875
X0548161Y0549119
X0549719Y0550477
X0551201Y0551950
X0552516Y0553545
X0553621Y0555292
X0554499Y0557163
X0555136Y0559129
X0555523Y0561160
X0555652Y0563223
Y0565297
Y0567364
Y0569431
Y0571498
Y0573565
X0555452Y0575632
Y0577599
X0553347Y0577699
Y0575632
Y0573565
Y0571498
Y0569431
X0551042Y0568500
Y0570536
Y0572603
Y0574270
X0551242Y0575905
Y0577605
X0547774Y0577599
Y0575632
X0545669
Y0573596
X0545636Y0571330
X0543330Y0571313
X0543364Y0573380
X0543564Y0575905
Y0577605
X0545669Y0577699
X0540096Y0577599
Y0575632
X0540296Y0573596
X0540269Y0571529
X0539941Y0569488
X0539247Y0567541
X0536731Y0567364
X0534183
Y0569431
Y0571498
X0534210Y0573565
X0537258
Y0575632
Y0577699
X0531162
Y0575632
Y0573565
X0531135Y0571498
Y0569431
Y0567364
X0528087
Y0569431
Y0571498
X0528114Y0573565
Y0575632
Y0577699
X0525066
Y0575632
Y0573565
X0525039Y0571498
Y0569431
Y0567364
X0525221Y0561240
X0523154
X0521087
X0519020
X0516953
X0514886
X0512819
X0510752
X0508685
X0506618
X0504551
X0502284
X0500417
X0498350
X0496283
X0494216
X0492149
X0490082
X0488015
X0485948
X0483881
X0481650Y0561300
X0479650
X0477680Y0561240
X0475613Y0561201
X0473559Y0560973
X0471537Y0560544
X0469567Y0559918
X0469170Y0556421
X0471084Y0557203
X0473074Y0557759
X0475116Y0558083
X0477181Y0558172
X0479248
X0481350Y0558100
X0483382Y0558172
X0485449
X0487516
X0489583
X0491650
X0493717
X0495784
X0497851
X0499918
X0501985
X0504052
X0506119
X0508186
X0510253
X0512320
X0514387
X0516454
X0518521
X0520588
X0522655
X0524722
X0526789
X0528856
X0531615Y0558220
X0533790Y0558770
X0535600Y0559495
X0537395Y0560550
X0539085Y0561980
X0540486Y0563663
X0541603Y0565402
X0542460Y0567283
X0543040Y0569267
X0547974Y0569462
Y0571498
Y0573565
Y0567395
X0547946Y0565328
X0547650Y0563283
X0547034Y0561309
X0546114Y0559458
X0544914Y0557775
X0543470Y0556297
X0541853Y0555009
X0540095Y0553923
X0538220Y0553052
X0536255Y0552410
X0534228Y0552005
X0532168Y0551843
X0530101Y0551840
X0528034
X0525967
X0523900
X0521833
X0519766
X0517699
X0515632
X0513565
X0511498
X0509431
X0507664
X0505797
X0503930
X0501363
X0499096
X0497029
X0494962
X0492895
X0490828
X0488761
X0486694
X0484627
X0482982Y0551812
X0480511Y0551486
X0478489Y0551058
X0476508Y0550467
X0474583Y0549715
X0472725Y0548808
X0470948Y0547753
X0469263Y0546556
X0469738Y0542932
X0471151Y0544086
X0472640Y0545194
X0474424Y0546237
X0476298Y0547110
X0478244Y0547805
X0480447Y0548316
X0482985Y0548646
X0484611Y0548700
X0486419Y0548772
X0488486
X0490553
X0492620
X0494687
X0496754
X0498821
X0501088
X0504055
X0505722
X0507589
X0509656
X0511423
X0513290
X0515357
X0517424
X0519491
X0521558
X0523625
X0525692
X0527759
X0529826
X0531893
X0533957Y0548882
X0535999Y0549200
X0537999Y0549721
X0539937Y0550442
X0541791Y0551354
X0543545Y0552449
X0545179Y0553715
X0546676Y0555140
X0547990Y0556735
X0549090Y0558485
X0549957Y0560362
X0550578Y0562334
X0550940Y0564368
X0551042Y0566433
X0558720Y0572119
Y0574186
X0558920Y0575905
Y0577605
X0566598
Y0575905
X0566398Y0572773
Y0570706
X0574076Y0570228
Y0568161
Y0566125
Y0564058
Y0561991
Y0559924
Y0557857
Y0555790
Y0553723
X0574007Y0551657
X0573749Y0549606
X0573302Y0547588
X0572670Y0545620
X0571859Y0543719
X0570875Y0541901
X0569727Y0540182
X0568425Y0538577
X0566990Y0537089
X0565529Y0535627
X0564067Y0534166
X0562605Y0532704
X0561144Y0531242
X0559682Y0529781
X0558221Y0528319
X0557050Y0527100
X0555750Y0525800
X0554350Y0524400
X0552888Y0523384
X0551144Y0522275
X0549295Y0521352
X0547361Y0520623
X0545050Y0519900
X0542550Y0519700
X0540237Y0519672
X0538170
X0536103
X0534036
X0531969
X0529902Y0519671
X0527856Y0519382
X0525942Y0518600
X0524279Y0517373
X0523081Y0515688
X0522673Y0513662
X0522802Y0511599
X0523493Y0509651
X0524723Y0507990
X0526550Y0507300
X0528448Y0507140
X0530515
X0532582
X0534649
X0536716
X0538783
X0540850
X0542917
X0544984
X0547051
X0549117Y0507106
X0551150Y0506728
X0553062Y0505944
X0554774Y0504785
X0556411Y0505564
X0556210Y0503299
X0557872Y0504103
X0559227Y0502541
X0559950Y0500800
X0560250Y0499000
X0558150Y0499100
X0558235Y0496839
X0558237Y0494972
Y0493110
X0560287
X0560286Y0494820
Y0496530
X0563354Y0496739
Y0495072
X0563355Y0493110
X0565405
Y0494820
Y0496583
Y0499050
Y0500717
Y0502784
Y0504851
X0565500Y0506916
X0565971Y0508929
X0566817Y0510814
X0568009Y0512503
X0569506Y0513929
X0571261Y0515021
X0573202Y0515732
X0575247Y0516031
X0577314Y0516040
X0579381
X0581448
X0583515
X0585582
X0587649
X0589716
X0591783
X0593850
X0595917
X0597984
X0600051
X0602118
X0604185
X0606252
X0608319
X0610386
X0612453Y0516064
X0614489Y0516418
X0616410Y0517182
X0618133Y0518324
X0619622Y0519757
X0620838Y0521429
X0621631Y0523338
X0621959Y0525379
X0621827Y0527441
X0621284Y0529436
X0620352Y0531281
X0619071Y0532903
X0617610Y0534365
X0616148Y0535827
X0614687Y0537288
X0613225Y0538750
X0611763Y0540211
X0610302Y0541673
X0608840Y0543134
X0607379Y0544596
X0605917Y0546058
X0604455Y0547519
X0602994Y0548981
X0601532Y0550442
X0600071Y0551904
X0598609Y0553365
X0597147Y0554827
X0595686Y0556289
X0594224Y0557750
X0592762Y0559212
X0591301Y0560673
X0589441Y0562533
X0588134Y0564134
X0587163Y0565959
X0586551Y0567600
X0586395Y0569431
X0586364Y0571498
Y0573565
X0586164Y0575632
Y0577599
X0584059Y0577699
Y0575632
Y0573565
Y0571498
Y0569431
X0581750Y0568600
X0581754Y0570431
Y0572498
X0581850Y0574169
X0581950Y0575869
X0581954Y0577605
X0578486Y0577599
Y0575632
X0576381
Y0577699
X0574276Y0577605
X0574250Y0575969
X0574150Y0574169
X0574076Y0572295
X0576381Y0571498
Y0569431
X0578686
Y0571498
Y0573565
X0576381
X0578687Y0567364
Y0565176
X0578927Y0563123
X0579634Y0561181
X0580769Y0559454
X0582050Y0558000
X0583576Y0556598
X0585038Y0555136
X0586499Y0553675
X0587961Y0552213
X0589422Y0550752
X0590884Y0549290
X0592346Y0547828
X0593807Y0546367
X0595269Y0544905
X0596730Y0543444
X0598192Y0541982
X0599654Y0540520
X0601115Y0539059
X0602577Y0537597
X0604038Y0536136
X0605500Y0534674
X0606854Y0533112
X0607797Y0531273
X0608260Y0529259
X0608157Y0527194
X0607263Y0525330
X0605700Y0523978
X0603726Y0523364
X0601660Y0523340
X0599593
X0597526
X0595459
X0593392
X0591325
X0589258
X0587191
X0585124
X0583057
X0580990
X0578923
X0576856
X0574789
X0572722
X0570655
X0568588
X0566521
X0564454Y0523338
X0562399Y0523115
X0560415Y0522534
X0558565Y0521612
X0556907Y0520378
X0555505Y0518859
X0554457Y0517077
X0553814Y0515113
X0553605Y0513057
X0553658Y0510990
X0554130Y0508978
X0555068Y0507136
X0558118Y0508204
X0557036Y0509965
X0556673Y0512000
X0556741Y0514066
X0557358Y0516038
X0558559Y0517720
X0560180Y0519004
X0562059Y0519864
X0564089Y0520252
X0566156Y0520272
X0568223
X0570290
X0572357
X0574424
X0576491
X0578558
X0580625
X0582692
X0584759
X0586826
X0588893
X0590960
X0593027
X0595094
X0597161
X0599228
X0601295
X0603362Y0520273
X0605408Y0520567
X0607314Y0521367
X0608957Y0522622
X0610230Y0524250
X0611052Y0526147
X0611369Y0528189
X0611222Y0530251
X0610705Y0532252
X0609836Y0534128
X0608644Y0535816
X0607209Y0537303
X0605747Y0538765
X0604285Y0540227
X0602824Y0541688
X0601362Y0543150
X0599901Y0544611
X0598439Y0546073
X0596977Y0547535
X0595516Y0548996
X0594054Y0550458
X0592593Y0551919
X0591131Y0553381
X0589669Y0554843
X0588208Y0556304
X0586746Y0557766
X0585285Y0559227
X0583464Y0561049
X0582284Y0562746
X0581770Y0564748
X0581755Y0566743
X0590386Y0566328
X0589636Y0568254
X0589432Y0570394
Y0572461
X0589450Y0574169
X0589750Y0575869
X0589632Y0577605
X0591737Y0577699
Y0575632
Y0573565
Y0571498
X0594056
X0594042Y0573565
X0593842Y0575632
Y0577599
X0597310Y0577605
X0597450Y0575869
X0597110Y0574038
Y0572002
X0597675Y0570335
X0598455Y0568659
X0600148Y0569462
Y0571529
Y0573565
Y0575632
Y0577699
X0606244
Y0575632
Y0573565
Y0571529
Y0569462
X0609292
Y0571529
Y0573565
Y0575632
Y0577699
X0603196Y0573565
Y0571529
Y0569462
X0601378Y0565735
X0602839Y0564274
X0604301Y0562812
X0605762Y0561351
X0607224Y0559889
X0608686Y0558427
X0610147Y0556966
X0611609Y0555504
X0613070Y0554043
X0614532Y0552581
X0615994Y0551119
X0617455Y0549658
X0618917Y0548196
X0620378Y0546735
X0621840Y0545273
X0623301Y0543812
X0624763Y0542350
X0623010Y0539765
X0621549Y0541226
X0620087Y0542688
X0618625Y0544150
X0617164Y0545611
X0615702Y0547073
X0614241Y0548534
X0612779Y0549996
X0611318Y0551457
X0609856Y0552919
X0608394Y0554381
X0606933Y0555842
X0605471Y0557304
X0604010Y0558765
X0602548Y0560227
X0601086Y0561689
X0599625Y0563150
X0598163Y0564612
X0596702Y0566073
X0595356Y0567642
X0594449Y0569500
X0593034Y0563278
X0591633Y0564679
X0594496Y0561816
X0595958Y0560354
X0597419Y0558893
X0598881Y0557431
X0600342Y0555970
X0601804Y0554508
X0603266Y0553047
X0604727Y0551585
X0606189Y0550124
X0607651Y0548662
X0609112Y0547200
X0610574Y0545739
X0612035Y0544277
X0613497Y0542816
X0614959Y0541354
X0616420Y0539893
X0617882Y0538431
X0619343Y0536969
X0620805Y0535508
X0622196Y0533979
X0623340Y0532258
X0624205Y0530380
X0624770Y0528392
X0624439Y0538271
X0599916Y0567197
X0538213Y0565752
X0536870Y0564180
X0535247Y0562900
X0533405Y0561962
X0531416Y0561402
X0529355Y0561240
X0527288
X0537231Y0569431
Y0571498
X0559575Y0506738
X0561017Y0505257
X0562189Y0503554
X0563150Y0501200
X0563350Y0499000
X0568473Y0496939
Y0495072
Y0493110
X0570523
Y0494820
Y0496610
Y0491043
X0568473
Y0488976
X0570523
X0569497Y0487204
X0564379
X0563355Y0488976
X0565405
Y0491043
X0563355
X0560287
X0558237
Y0488976
X0560287
X0559261Y0487204
X0557450Y0501300
X0583607Y0500343
X0587692Y0500342
X0587693Y0496257
X0583950Y0493900
X0583827Y0491535
X0584852Y0489763
X0579734
X0580759Y0491535
X0580650Y0494200
X0581550Y0496400
X0582293Y0484645
X0580522Y0483621
X0579734Y0482086
X0580522Y0480550
Y0478503
X0579734Y0476968
X0580522Y0475432
Y0473385
X0579734Y0471850
X0580522Y0470314
X0582293Y0469291
X0584065Y0470316
X0586132
X0588199
X0590561
X0592628
X0594695
X0596762
X0598817Y0470096
X0600707Y0469259
X0600375Y0472821
X0598365Y0473304
X0596300Y0473384
X0594233
X0592166
X0590099
X0588199
Y0475434
X0586132
Y0473384
X0584065
Y0475434
X0582293Y0474409
Y0479527
X0584065Y0478502
Y0480552
X0586132
Y0478502
X0588199
X0590019
X0592086
X0594153
X0596220
X0598287
X0600354
X0602421
X0604486Y0478422
X0606504Y0477975
X0608401Y0477153
X0610106Y0475985
X0611558Y0474514
X0612703Y0472793
X0613500Y0470886
X0613920Y0468862
X0610657Y0469675
X0609865Y0471584
X0608597Y0473216
X0606942Y0474454
X0605018Y0475211
X0602963Y0475434
X0600896
X0598829
X0596762
X0594695
X0592628
X0590561
Y0480552
X0592628
X0594695
X0596762
X0598829
X0600896
X0602963
X0605030
X0607097
X0609164
X0611231Y0480547
X0613283Y0480295
X0615253Y0479669
X0617074Y0478691
X0618683Y0477394
X0620056Y0475850
X0621199Y0474127
X0622090Y0472262
X0622711Y0470290
X0624296Y0474837
X0623264Y0476628
X0622032Y0478288
X0620614Y0479791
X0618650Y0481500
X0617050Y0482300
X0615310Y0482920
X0613304Y0483416
X0611250Y0483800
X0609179Y0483620
X0607112
X0605045
X0602978
X0600911
X0598844
X0596777
X0594710
X0592643
X0590576
X0588199
X0586132
X0584065
X0588199Y0480552
X0602236Y0471922
X0603862Y0470646
X0605180Y0469054
X0523163Y0469906
Y0471973
Y0474040
Y0476107
Y0478174
Y0480241
X0523005Y0482302
X0522446Y0484292
X0521504Y0486131
X0520216Y0487748
X0518724Y0489179
X0517073Y0490423
X0515275Y0491441
X0513359Y0492217
X0511358Y0492737
X0509307Y0492993
X0507240Y0493020
X0505173
X0503106
X0501039
X0498972
X0496905
X0494838
X0492550Y0493000
X0490250
X0487899Y0493020
X0485832
X0483765
X0481993Y0494045
X0480222Y0493021
X0479434Y0491486
X0480222Y0489950
Y0487903
X0479434Y0486368
X0480222Y0484832
Y0482785
X0479434Y0481250
X0480222Y0479714
X0481993Y0478691
X0483765Y0479716
X0485832
X0487899
X0490260
X0492327
X0494394
X0496461
X0498528Y0479705
X0500510Y0479117
X0502061Y0477752
X0502980Y0475900
X0503183Y0473843
Y0471776
Y0469709
X0506251Y0469291
Y0471358
Y0473425
X0506182Y0475491
X0505679Y0477496
X0504711Y0479322
X0503334Y0480863
X0501608Y0482002
X0499645Y0482649
X0497583Y0482784
X0495516
X0493449
X0491382
X0489650Y0482800
X0487899Y0482784
Y0484834
X0485832
Y0482784
X0483765
Y0484834
X0481993Y0483809
Y0488927
X0483765Y0489952
Y0487902
X0485832
Y0489952
X0487899
Y0487902
X0489629
X0491696
X0493763
X0495830
X0497897
X0499964
X0500595Y0489952
X0502662
X0504729
X0506796
X0508863Y0489943
X0510915Y0489698
X0512901Y0489125
X0514769Y0488240
X0516470Y0487065
X0517976Y0485650
X0519209Y0483990
X0519928Y0482053
X0520095Y0479992
Y0477925
Y0475858
Y0473791
Y0471724
Y0469657
X0513578Y0470520
Y0472587
Y0474866
X0513409Y0476926
X0512905Y0478931
X0512082Y0480827
X0510960Y0482563
X0509879Y0483794
X0508314Y0485144
X0506567Y0486249
X0504677Y0487086
X0502684Y0487635
X0502022Y0484639
X0500250Y0484700
X0498529Y0484834
X0496462
X0494395
X0492328
X0490261
X0490260Y0489952
X0492327
X0494394
X0496461
X0498528
X0504006Y0484061
X0505847Y0483120
X0507478Y0481850
X0509005Y0480014
X0509924Y0478162
X0510422Y0476156
X0510450Y0474500
X0510510Y0472799
Y0470732
X0484552Y0499163
X0483517Y0500935
Y0503002
X0483527Y0505327
Y0507394
Y0509461
X0480459
Y0507394
Y0505327
X0478409Y0505069
Y0503002
X0480469
Y0500935
X0478409
X0479434Y0499163
X0473291Y0498376
X0474315Y0496604
X0473293Y0494833
X0471757Y0494045
X0470222Y0494833
X0469197Y0496604
X0470223Y0498376
Y0500443
X0479104Y0513900
X0481993Y0516788
X0484882Y0513900
X0468173Y0513140
Y0515207
Y0516987
Y0519054
X0468268Y0521119
X0468552Y0523166
X0465346Y0522557
X0465146Y0520500
X0465105Y0518434
Y0516367
Y0514300
Y0512233
Y0510166
Y0508099
Y0506032
X0464975Y0504355
X0465105Y0502510
X0463055
Y0500443
X0465105
Y0498376
X0463055
X0464079Y0496604
X0463057Y0494833
X0465104
X0466639Y0494045
X0468175Y0494833
X0468173Y0498376
Y0500443
Y0502510
Y0504872
Y0506939
Y0509006
Y0511073
X0463054
Y0513140
Y0515207
Y0517274
Y0519341
Y0521408
Y0523475
Y0525542
Y0527843
X0463159Y0529907
X0463472Y0531951
X0463990Y0533952
X0464708Y0535890
X0465451Y0537401
X0466450Y0539000
X0467450Y0540400
X0468550Y0541700
X0465250Y0542700
X0464251Y0541401
X0463250Y0540100
X0462250Y0538300
X0461550Y0536500
X0461071Y0534897
X0460537Y0532900
X0460181Y0530864
X0460006Y0528804
X0459986Y0526737
Y0524670
Y0522603
Y0520536
Y0518469
Y0516402
Y0514335
Y0512268
Y0510201
Y0508134
Y0506067
X0459895Y0504390
X0459987Y0502510
X0457937
Y0500443
X0459987
Y0498376
X0457937
X0458961Y0496604
X0457939Y0494833
X0459986
X0461521Y0494045
X0456403
X0454868Y0494833
X0453844Y0496604
X0454869Y0498376
Y0500443
Y0502510
X0454850Y0504300
Y0506000
Y0507700
X0454869Y0509464
Y0511531
Y0513598
Y0515665
Y0517732
Y0519799
Y0521866
Y0523933
Y0526000
Y0528067
Y0530134
Y0532201
Y0534268
Y0536335
X0454878Y0538402
X0454950Y0540200
X0455150Y0541900
X0455450Y0543600
X0456050Y0545400
X0456637Y0547030
X0457418Y0548728
X0458388Y0550501
X0459389Y0551934
X0460654Y0553568
X0462053Y0555090
X0464156Y0556930
X0465859Y0558102
X0467668Y0559102
X0467360Y0555423
X0465676Y0554225
X0464141Y0552840
X0462760Y0551302
X0461743Y0549930
X0460804Y0548400
X0460045Y0546828
X0459150Y0544700
X0458373Y0542050
X0458056Y0540008
X0457938Y0537944
X0457937Y0535877
Y0533810
Y0531743
Y0529676
Y0527609
Y0525542
Y0523475
Y0521408
Y0519341
Y0517274
Y0515207
Y0513140
Y0511073
Y0509006
Y0506939
Y0504872
X0463054
Y0506939
Y0509006
X0465712Y0524592
X0466241Y0526590
X0466930Y0528539
X0467774Y0530426
X0467682Y0545225
X0466351Y0544001
X0444100Y0545754
X0441212Y0542865
Y0548643
X0435111Y0540567
Y0538940
X0435731Y0537298
Y0535321
Y0533321
Y0531321
X0435265Y0529377
X0433855Y0527958
X0432600Y0526701
X0428592
X0427336Y0527957
X0425926Y0529376
X0425461Y0531321
Y0533321
Y0535321
Y0537298
X0426085Y0538940
Y0540567
X0430598Y0542022
X0431798Y0543222
X0429398
X0429047Y0535507
Y0533507
Y0531507
X0432172
Y0533507
Y0535507
X0433485Y0519129
X0430596Y0516241
X0427707Y0519129
X0419980Y0542867
X0417092Y0545756
X0419980Y0548645
X0393364Y0550902
X0394619Y0552159
X0396029Y0553578
X0396495Y0555522
Y0557522
Y0559522
Y0561499
X0395875Y0563141
Y0564768
X0391362Y0566223
X0390162Y0567423
X0392562
X0392936Y0559708
Y0557708
Y0555708
X0389811
Y0557708
Y0559708
X0386225Y0559522
Y0561499
X0386849Y0563141
Y0564768
X0386225Y0557522
Y0555522
X0386690Y0553577
X0388100Y0552158
X0389356Y0550902
X0388471Y0543330
X0391360Y0540442
X0394249Y0543330
X0401976Y0567066
X0404864Y0569955
X0401976Y0572844
X0380744Y0572846
X0377856Y0569957
X0380744Y0567068
X0357394Y0555593
X0355698Y0556776
X0353806Y0557607
X0351788Y0558056
X0349723Y0558134
X0347656
X0345589
X0343522
X0341455
X0339388
X0337321
X0335254
X0333187
X0331120
X0329053
X0326986
X0324919
X0322852
X0320785
X0318718
X0316651
X0314584
X0312517
X0313006Y0555066
X0315073
X0317140
X0319207
X0321274
X0323341
X0325408
X0327475
X0329542
X0331609
X0333676
X0335743
X0337810
X0339877
X0341944
X0344011
X0346078
X0348145
X0350212
X0352268Y0554857
X0354193Y0554103
X0355840Y0552855
X0357164Y0551268
X0357950Y0549700
X0358650Y0548000
X0359050Y0546200
X0359150Y0543800
Y0541500
X0359216Y0539277
Y0537410
Y0535543
Y0533676
X0359220Y0531819
X0359050Y0529800
Y0528000
X0358250Y0526300
X0356750Y0524800
X0354850Y0524100
X0352850
X0350750
X0348950
X0346950
X0344950Y0523700
X0343093Y0522847
X0341959Y0521636
X0340698Y0519998
X0339727Y0518173
X0339073Y0516212
X0338754Y0514170
X0338723Y0512103
X0338744Y0510102
X0338723Y0508036
Y0505969
X0338650Y0504200
X0338723Y0502510
X0336673
Y0500443
X0338723
Y0498376
X0336673
X0337698Y0496604
X0336675Y0494833
X0338722
X0340257Y0494045
X0341793Y0494833
X0342816Y0496604
X0341791Y0498376
Y0500443
Y0502510
Y0504872
Y0506939
Y0509006
Y0511073
Y0513288
X0342020Y0515342
X0342697Y0517295
X0343787Y0519051
X0345150Y0520300
X0347050Y0520800
X0348850Y0520900
X0350650
X0352650
X0354950
X0356750Y0521300
X0358350Y0522000
X0360050Y0523300
X0361250Y0524900
X0362050Y0526700
X0362350Y0529100
Y0531400
X0362284Y0534257
Y0536324
Y0538391
Y0540458
Y0542525
Y0544592
X0362251Y0546400
X0361732Y0548679
X0361029Y0550623
X0360059Y0552448
X0358841Y0554118
X0346155Y0548563
X0347462Y0546962
X0348434Y0545138
X0349032Y0543159
X0349234Y0541102
X0349076Y0538131
X0348675Y0536103
X0348034Y0534138
X0347163Y0532263
X0346073Y0530507
X0344781Y0528893
X0343335Y0527416
X0341874Y0525955
X0340412Y0524493
X0339020Y0522965
X0337916Y0521218
X0337147Y0519299
X0336738Y0517273
X0336673Y0515207
Y0513140
Y0511073
Y0509006
Y0506939
Y0504872
X0333605Y0505061
Y0507128
Y0509195
Y0511262
X0331554Y0511073
Y0509006
Y0506939
Y0504872
X0331555Y0502510
X0333605
Y0500443
X0331555
Y0498376
X0333605
X0332580Y0496604
X0331557Y0494833
X0333604
X0335139Y0494045
X0330021
X0328486Y0494833
X0326439
X0324903Y0494045
X0323368Y0494833
X0322344Y0496604
X0323369Y0498376
Y0500443
Y0502510
X0323350Y0504200
X0323369Y0505952
Y0508019
Y0510086
Y0512153
Y0514229
Y0516296
X0323332Y0518362
X0322738Y0520342
X0321489Y0521989
X0319710Y0523041
X0317660Y0523303
X0315673Y0522732
X0314051Y0521451
X0313510Y0525011
X0315361Y0525932
X0317383Y0526359
X0319448Y0526266
X0321424Y0525658
X0323184Y0524574
X0324621Y0523089
X0325673Y0521310
X0326286Y0519335
X0326437Y0517274
Y0515207
Y0513140
Y0511073
Y0509006
Y0506939
Y0504872
Y0502510
X0328487
X0328450Y0504200
X0328486Y0505931
Y0507998
Y0510065
Y0512132
Y0514202
Y0516269
Y0518336
Y0520403
Y0522470
Y0524537
Y0526604
Y0528671
Y0530738
Y0532805
X0328299Y0534864
X0327237Y0536638
X0325556Y0537839
X0323553Y0538351
X0321501Y0538103
X0319678Y0537129
X0318193Y0535691
X0316731Y0534230
X0315269Y0532768
X0313796Y0531318
X0313137Y0534974
X0314599Y0536435
X0316060Y0537897
X0317540Y0539340
X0319258Y0540489
X0321199Y0541200
X0323253Y0541431
X0325303Y0541169
X0327234Y0540430
X0328934Y0539255
X0330306Y0537709
X0331205Y0535848
X0331550Y0533810
X0331554Y0531743
Y0529676
Y0527609
Y0525542
Y0523475
Y0521408
Y0519341
Y0517274
Y0515207
Y0513140
X0333605Y0514264
X0333608Y0516331
X0333795Y0518389
X0334275Y0520400
X0335038Y0522321
X0336068Y0524113
X0337344Y0525739
X0338794Y0527213
X0340255Y0528674
X0341717Y0530136
X0343109Y0531664
X0344270Y0533374
X0345169Y0535235
X0345788Y0537207
X0346114Y0539248
X0346163Y0541315
X0345821Y0543353
X0344936Y0545221
X0343574Y0546776
X0341812Y0547856
X0339803Y0548344
X0337736Y0548366
X0335669
X0333602
X0331535
X0329468
X0327401
X0325334
X0323267
X0321200Y0548349
X0319144Y0548133
X0317130Y0547670
X0315186Y0546966
X0313342Y0546033
X0314054Y0549819
X0315994Y0550531
X0317997Y0551041
X0320042Y0551343
X0322107Y0551434
X0324174
X0326241
X0328308
X0330375
X0332442
X0334509
X0336576
X0338643
X0340707Y0551325
X0342707Y0550801
X0344550Y0549866
X0348607Y0515944
X0352692Y0515943
X0352693Y0511858
X0351980Y0508710
X0350296Y0507511
X0349236Y0505737
X0347008Y0505099
X0346909Y0503002
X0348959
Y0500935
X0346909
X0347934Y0499163
X0353052
X0352027Y0500935
X0352227Y0503002
X0352550Y0505000
X0356750Y0504711
X0359638Y0507600
X0356750Y0510489
X0348341Y0509405
X0347278Y0507633
X0344280Y0508351
X0343841Y0506712
Y0505069
Y0503002
Y0500935
X0344741Y0510346
X0346430Y0511849
X0348722Y0493021
X0347934Y0491486
X0348722Y0489950
Y0487903
X0347934Y0486368
X0348722Y0484832
Y0482785
X0347934Y0481250
X0348722Y0479714
X0350493Y0478691
X0352265Y0479716
X0354332
X0356399
X0358760
X0360827
X0362894
X0364961
X0367028
X0369095
X0371162Y0479696
X0373188Y0479285
X0375040Y0478368
X0376602Y0477014
X0377940Y0475439
X0378850Y0474000
X0379650Y0472500
X0380350Y0471000
X0383751Y0471300
X0384250Y0469700
X0382511Y0473888
X0381494Y0475688
X0380314Y0477384
X0378979Y0478963
X0377851Y0480200
X0375746Y0481512
X0373835Y0482299
X0371811Y0482717
X0370145Y0482783
X0367678
X0365611
X0363544
X0361477
X0359410Y0482784
X0358761Y0484834
X0360828
X0362895
X0364962
X0367029
X0369296
X0371163
X0373230
X0375297
X0377164
X0379031
X0380898
X0383565
X0385632
X0387279
X0389289Y0484353
X0390550Y0483200
X0391650Y0481300
X0392405Y0478736
Y0476669
Y0474602
Y0472535
Y0470468
X0395473Y0470673
Y0472740
Y0474607
Y0476674
Y0478736
X0395271Y0480800
X0395050Y0482500
X0393650Y0484600
X0392451Y0485900
X0390937Y0486949
X0389011Y0487699
X0387280Y0487902
X0385613
X0383746
X0383764Y0489952
X0385631
X0387698
X0389765
X0391829Y0489847
X0393865Y0489490
X0395842Y0488887
X0397850Y0487900
X0399850Y0486700
X0401250Y0485500
X0402581Y0484234
X0403797Y0482563
X0404744Y0480726
X0405399Y0478766
X0405747Y0476728
X0405805Y0474662
Y0472595
X0405816Y0470528
X0408874Y0471040
X0408873Y0473107
Y0475174
X0408780Y0477239
X0408432Y0479276
X0407834Y0481255
X0406994Y0483143
X0405925Y0484912
X0404950Y0486300
X0403750Y0487500
X0402450Y0488600
X0400750Y0489900
X0399250Y0490700
X0397650Y0491500
X0395850Y0492100
X0394047Y0492594
X0392150Y0493000
X0389951Y0493020
X0387884
X0385817
X0383950
X0381683
X0379616
X0377549
X0375482
X0373415
X0371348
X0369281
X0366814
X0364947
X0363080
X0361013
X0358946
X0356399
X0354332
X0352265
X0350493Y0494045
Y0488927
X0352265Y0487902
Y0489952
X0354332
Y0487902
X0356399
X0358342
X0360409
X0362476
X0364543
X0366610
X0368677
X0370744
X0372811
X0374878
X0376945
X0379012
X0381079
X0381497Y0489952
X0379430
X0377363
X0375296
X0373229
X0371162
X0369095
X0366828
X0364961
X0362894
X0360827
X0358760
X0356399
Y0484834
Y0482784
X0354332
Y0484834
X0352265
Y0482784
X0350493Y0483809
X0327462Y0496604
X0328487Y0498376
X0326437
Y0500443
X0328487
X0409016Y0468978
X0283700Y0468860
X0283010Y0470808
X0282168Y0472696
X0281180Y0474511
X0280051Y0476242
X0278788Y0477879
X0277400Y0479411
X0275858Y0480786
X0274127Y0481916
X0272246Y0482774
X0270258Y0483340
X0268208Y0483602
X0266141Y0483620
X0264074
X0262007
X0259940
X0257873
X0255806
X0253739
X0251672
X0249605
X0247538
X0245471
X0243404
X0241337
X0239399
X0237332
X0235265
X0233493Y0484645
X0231722Y0483621
X0230934Y0482086
X0231722Y0480550
Y0478503
X0230934Y0476968
X0231722Y0475432
Y0473385
X0230934Y0471850
X0231722Y0470314
X0233493Y0469291
X0235265Y0470316
X0237332
X0239399
X0241761
X0243828
X0245895
X0247962
X0250029
X0252096
X0254163
X0256230
X0258297Y0470315
X0260344Y0470027
X0262258Y0469248
X0261864Y0472769
X0259856Y0473258
X0257792Y0473384
X0255725
X0253658
X0251591
X0249524
X0247457
X0245390
X0243323
X0241256
X0239399
Y0475434
X0237332
Y0473384
X0235265
Y0475434
X0233493Y0474409
Y0479527
X0235265Y0478502
Y0480552
X0237332
Y0478502
X0239399
Y0480552
X0241761
X0243828
X0245895
X0247962
X0250029
X0252096
X0254163
X0256230
X0258297
X0260364
X0262431
X0264498
X0266565
X0268631Y0480492
X0270656Y0480074
X0272562Y0479275
X0274279Y0478124
X0275760Y0476683
X0277086Y0475097
X0278264Y0473398
X0279285Y0471601
X0280142Y0469720
X0277017Y0469198
X0276172Y0471084
X0275098Y0472850
X0273813Y0474469
X0272323Y0475901
X0270608Y0477056
X0268716Y0477889
X0266707Y0478374
X0264644Y0478502
X0262577
X0260510
X0258443
X0256376
X0254309
X0252242
X0250175
X0248108
X0246041
X0243974
X0241907
X0241761Y0475434
X0243828
X0245895
X0247962
X0250029
X0252096
X0254163
X0256230
X0258297
X0260364
X0262431
X0264498
X0266560Y0475289
X0268531Y0474668
X0270297Y0473593
X0271772Y0472145
X0272990Y0470475
X0266929Y0469309
X0265458Y0470761
X0263752Y0471928
X0236052Y0489763
X0235027Y0491535
Y0493602
Y0495669
X0231959
X0230050Y0495700
X0229909Y0493602
X0231959
Y0491535
X0229909
X0230934Y0489763
X0226841Y0491535
Y0493602
Y0495669
Y0497736
X0224791Y0497539
Y0495472
Y0493110
Y0491043
Y0488976
X0225816Y0487204
X0224793Y0485433
X0223257Y0484645
X0221722Y0485433
X0219675
X0218139Y0484645
X0216604Y0485433
X0214557
X0213021Y0484645
X0211486Y0485433
X0209439
X0207903Y0484645
X0206368Y0485433
X0205344Y0487204
X0206369Y0488976
Y0491043
Y0493110
X0206350Y0495100
X0206369Y0496993
X0206287Y0499058
X0205742Y0501052
X0204717Y0502847
X0203315Y0504365
X0201853Y0505827
X0200392Y0507288
X0198930Y0508750
X0197468Y0510212
X0196007Y0511673
X0194465Y0513050
X0192744Y0514195
X0190877Y0515081
X0188902Y0515692
X0186860Y0516014
X0184794Y0516066
X0182727
X0180660
X0178593
X0176526
X0174459
X0172392
X0170325
X0168258
X0166191
X0164124
X0162059Y0516164
X0160069Y0516722
X0158271Y0517742
X0156767Y0519159
X0158820Y0521505
X0157857Y0523334
X0157487Y0525367
X0157484Y0527434
Y0529501
Y0531568
Y0533635
Y0535702
Y0537769
Y0539836
Y0541903
Y0543970
X0157515Y0546037
X0157786Y0548086
X0158333Y0550079
X0159145Y0551980
X0160208Y0553753
X0161502Y0555365
X0163020Y0556768
X0164769Y0557869
X0166692Y0558627
X0168722Y0559015
X0170789Y0559066
X0172856
X0174923
X0176990
X0179057
X0181124
X0183593Y0559327
X0185513Y0560093
X0187180Y0561315
X0188632Y0563074
X0189559Y0564921
X0190074Y0566923
X0190176Y0568805
Y0570605
Y0572472
X0190230Y0574200
X0190430Y0575900
X0190376Y0577605
X0192481Y0577599
Y0575632
Y0573632
Y0571632
Y0569632
X0194786Y0569431
Y0571498
Y0573565
X0194586Y0575632
Y0577599
X0198054Y0577605
X0198030Y0575900
X0197930Y0574200
X0197854Y0572483
Y0570416
Y0567524
Y0565457
Y0563390
Y0561323
Y0559256
X0197817Y0556381
X0197394Y0554357
X0196517Y0552486
X0195080Y0550715
X0193412Y0549493
X0191492Y0548727
X0189442Y0548466
X0187171
X0185104
X0183037
X0180970
X0178903
X0176836
X0174769
X0172702
X0170635
X0168568Y0548447
X0166595Y0547831
X0165043Y0546467
X0163977Y0544695
X0163440Y0542699
X0163384Y0540633
Y0538566
Y0536499
X0163431Y0534433
X0164053Y0532461
X0165324Y0530832
X0167045Y0529686
X0169027Y0529100
X0171093Y0529034
X0173160
X0175227
X0177294
X0179361
X0181428
X0183494Y0528967
X0185547Y0528727
X0187572Y0528315
X0189556Y0527734
X0191484Y0526988
X0193342Y0526082
X0195117Y0525023
X0196796Y0523819
X0198368Y0522477
X0199841Y0521027
X0201303Y0519565
X0202765Y0518103
X0204226Y0516642
X0205688Y0515180
X0207149Y0513719
X0208611Y0512257
X0210073Y0510795
X0211451Y0509255
X0212602Y0507538
X0213502Y0505677
X0214132Y0503709
X0214482Y0501672
X0214555Y0499606
Y0497539
Y0495472
Y0493110
X0216605
Y0494939
Y0497006
Y0499073
Y0501140
Y0503207
Y0505274
X0216369Y0507075
X0215747Y0508898
X0214871Y0510470
X0213702Y0511877
X0212240Y0513339
X0210779Y0514800
X0209317Y0516262
X0207856Y0517724
X0206394Y0519185
X0204933Y0520647
X0203471Y0522108
X0202010Y0523570
X0200548Y0525032
X0199087Y0526493
X0197625Y0527955
X0196464Y0529444
X0195651Y0531345
X0195373Y0533393
X0195889Y0535784
X0197150Y0537600
X0199050Y0538800
X0201150Y0539300
X0202950Y0539400
X0204850
X0206601Y0539335
X0208668
X0210735
X0212802
X0214869
X0216936
X0219003
X0221070
X0223137
X0225204
X0227271
X0228896Y0539706
X0230436Y0541085
X0230950Y0542700
X0230760Y0544562
X0229545Y0546429
X0227614Y0547166
X0225687
X0223620
X0221553
X0219486
X0217419
X0215352
X0213285
X0211350Y0547397
X0209378Y0548016
X0207560Y0549001
X0208134Y0552484
X0209620Y0551325
X0211520Y0550512
X0213285Y0550233
X0215212Y0550234
X0217279
X0219346
X0221413
X0223480
X0225547
X0227614
X0230142Y0549672
X0231834Y0548485
X0232979Y0547020
X0233796Y0545121
X0234075Y0543073
X0233661Y0540731
X0232663Y0538920
X0231169Y0537493
X0229314Y0536580
X0227271Y0536266
X0225609Y0536267
X0223947
X0221880
X0219813
X0217746
X0215679
X0213612
X0211545
X0209478
X0207411
X0205344
X0203599
X0201084Y0536236
X0199234Y0535315
X0198650Y0533700
X0198696Y0531875
X0199794Y0530124
X0201542Y0528376
X0203003Y0526915
X0204465Y0525453
X0205926Y0523991
X0207388Y0522530
X0208849Y0521068
X0210311Y0519607
X0211772Y0518145
X0213234Y0516683
X0214695Y0515222
X0215950Y0514000
X0217250Y0512600
X0218102Y0511209
X0218965Y0509331
X0219494Y0507332
X0219672Y0505273
X0219673Y0503500
Y0501673
Y0499606
Y0497539
Y0495472
Y0493110
X0221723
Y0491043
X0219673
Y0488976
X0221723
X0220698Y0487204
X0215580
X0214555Y0488976
X0216605
Y0491043
X0214555
X0211487
X0209437
Y0493110
X0211487
Y0495898
Y0497965
Y0500032
X0211333Y0502093
X0210820Y0504096
X0209962Y0505976
X0208785Y0507676
X0207359Y0509171
X0205897Y0510633
X0204435Y0512095
X0202974Y0513556
X0201512Y0515018
X0200051Y0516479
X0198589Y0517941
X0197128Y0519402
X0195621Y0520817
X0193987Y0522084
X0192239Y0523187
X0190393Y0524117
X0188466Y0524864
X0186476Y0525423
X0184441Y0525788
X0182381Y0525955
X0180314Y0525966
X0178247
X0176180
X0174113
X0172046
X0169979
X0167285Y0526336
X0165363Y0527096
X0163638Y0528236
X0162191Y0529712
X0161119Y0531479
X0160484Y0533446
X0160316Y0535506
Y0537573
Y0539640
Y0541707
X0160505Y0543766
X0161093Y0545747
X0162057Y0547576
X0163361Y0549180
X0164993Y0550448
X0166898Y0551251
X0168945Y0551534
X0171012
X0173079
X0175146
X0177213
X0179280
X0181347
X0183414
X0185481
X0187548
X0189442
X0191338Y0551898
X0193065Y0553034
X0194423Y0555154
X0194786Y0557189
Y0559096
Y0561163
Y0563230
Y0565297
Y0567364
X0200159Y0569632
Y0571632
Y0573632
Y0575632
Y0577599
X0202264
Y0575632
X0202464Y0573565
Y0571498
Y0569431
Y0567364
Y0565297
Y0563230
Y0561163
Y0559096
X0202643Y0556709
X0203173Y0554711
X0204040Y0552835
X0205217Y0551136
X0206852Y0554106
X0205980Y0555980
X0205532Y0558768
Y0560835
Y0562902
Y0564969
Y0567036
Y0569579
Y0571646
Y0573713
X0205830Y0575700
X0205732Y0577605
X0207837Y0577599
Y0575632
Y0573632
Y0571632
Y0569632
X0210142Y0569431
Y0571498
Y0573565
X0209942Y0575632
Y0577599
X0213410Y0577605
X0213430Y0575900
X0213330Y0574200
X0213210Y0572535
Y0570468
Y0568384
Y0566317
Y0564317
X0213320Y0562335
X0214334Y0560534
X0215711Y0559346
X0217579Y0558461
X0219624Y0558158
Y0555090
X0217912Y0555236
X0215921Y0555793
X0214086Y0556744
X0212482Y0558048
X0211351Y0559345
X0210451Y0561206
X0210142Y0563250
Y0565297
Y0567364
X0215515Y0569632
Y0571632
Y0573632
Y0575632
Y0577599
X0217620
Y0575632
Y0573632
X0219354
X0221088
Y0571632
X0219354
X0217620
Y0569632
X0219354
X0221088
X0223193
Y0571632
Y0573632
Y0575632
Y0577605
X0221088
Y0575632
X0229380Y0574394
X0231041Y0575623
X0232945Y0576430
X0234984Y0576768
X0237044Y0576600
X0238990Y0575902
X0240686Y0574721
X0242055Y0573172
X0243056Y0571364
X0243639Y0569381
X0243784Y0567319
Y0565252
Y0563185
Y0561118
Y0559051
Y0556984
Y0554917
Y0552850
Y0550783
Y0548716
Y0546649
Y0544582
Y0542515
Y0540448
Y0538381
Y0536314
X0243728Y0534248
X0243422Y0532203
X0242855Y0530216
X0242036Y0528318
X0240979Y0526541
X0239702Y0524916
X0238257Y0523438
X0236795Y0521976
X0235334Y0520515
X0233872Y0519053
X0232411Y0517592
X0230949Y0516130
X0229488Y0514669
X0228026Y0513207
X0226690Y0511629
X0225683Y0509824
X0225043Y0507859
X0224794Y0505807
X0224791Y0503740
Y0501673
Y0499606
X0221723Y0500068
Y0502135
Y0504202
X0221742Y0506269
X0222004Y0508319
X0222572Y0510306
X0223431Y0512186
X0224563Y0513916
X0225939Y0515458
X0227401Y0516920
X0228862Y0518381
X0230324Y0519843
X0231786Y0521305
X0233247Y0522766
X0234709Y0524228
X0236170Y0525689
X0237605Y0527177
X0238821Y0528849
X0239754Y0530693
X0240381Y0532663
X0240686Y0534707
X0240716Y0536774
Y0538841
Y0540908
Y0542975
Y0545042
Y0547109
Y0549176
Y0551243
Y0553310
Y0555377
Y0557444
Y0559511
Y0561578
Y0563645
Y0565712
Y0567779
X0240365Y0569816
X0239378Y0571632
X0237852Y0573026
X0235892Y0573682
X0233834Y0573493
X0231980Y0572577
X0230491Y0571144
X0229702Y0569234
X0229684Y0567367
Y0565567
X0229599Y0563846
X0229122Y0561835
X0228244Y0559964
X0227002Y0558311
X0225449Y0556948
X0223649Y0555930
X0221680Y0555302
X0222243Y0558667
X0224024Y0559716
X0225421Y0561240
X0226310Y0563106
X0226616Y0565150
Y0566967
X0226618Y0569034
X0226986Y0571068
X0227961Y0572890
X0259478Y0573632
Y0575632
Y0577599
X0261583
Y0575632
Y0573632
Y0571632
Y0569632
X0259478
Y0571632
X0263688
X0265422
X0267156
Y0573632
X0265422
X0263688
Y0575632
Y0577599
X0267156Y0577605
Y0575632
X0269261
Y0577605
X0271366Y0577599
Y0575632
X0271566Y0573565
Y0571498
Y0569431
Y0567664
X0271550Y0565700
X0271050Y0563500
X0270383Y0561318
X0269373Y0559514
X0268078Y0557903
X0266619Y0556438
X0265158Y0554977
X0263650Y0553700
X0262235Y0552054
X0260773Y0550592
X0259338Y0549104
X0258128Y0547428
X0257208Y0545577
X0256604Y0543600
X0256332Y0541551
X0256316Y0539485
Y0537418
Y0535351
Y0533284
X0256373Y0531217
X0256696Y0529176
X0257299Y0527199
X0258172Y0525325
X0259296Y0523591
X0260651Y0522029
X0262199Y0520659
X0263904Y0519491
X0265741Y0518544
X0267681Y0517831
X0269694Y0517363
X0271750Y0517149
X0273817Y0517134
X0275884
X0277951
X0280018
X0282085
X0284152
X0286219
X0288286
X0290353
X0292420
X0294487
X0296554
X0298621
X0300688
X0302755
X0304750Y0517200
X0306846Y0517574
X0308821Y0518184
X0310701Y0519044
X0312454Y0520139
X0311935Y0523672
X0310315Y0522388
X0308511Y0521379
X0306569Y0520671
X0304540Y0520280
X0302474Y0520202
X0300407
X0298340
X0296273
X0294206
X0292139
X0290072
X0288005
X0285938
X0283871
X0281804
X0279737
X0277670
X0275603
X0273536
X0271469Y0520237
X0269425Y0520542
X0267451Y0521154
X0265592Y0522057
X0263891Y0523232
X0262390Y0524653
X0261151Y0526308
X0260220Y0528153
X0259627Y0530133
X0259388Y0532186
X0259384Y0534253
Y0536320
Y0538387
Y0540454
X0259518Y0542517
X0260084Y0544505
X0261000Y0546150
X0262170Y0547651
X0263632Y0549113
X0265093Y0550574
X0266555Y0552036
X0268016Y0553497
X0269478Y0554959
X0270901Y0556458
X0272150Y0558000
X0273150Y0559800
X0273950Y0561700
X0274450Y0563900
X0274650Y0566100
X0274634Y0567995
Y0570062
Y0572129
Y0574196
X0274814Y0575900
X0274834Y0577605
X0276939
Y0575632
Y0573632
Y0571632
Y0569632
X0279244Y0569431
Y0571498
Y0573565
X0279044Y0575632
Y0577599
X0282512Y0577605
X0282514Y0575900
X0282312Y0574212
Y0572145
Y0570078
Y0568011
X0282350Y0566100
X0282450Y0564100
Y0562000
X0282350Y0559700
X0282080Y0557418
X0281656Y0555395
X0281022Y0553428
X0280185Y0551538
X0279153Y0549747
X0277940Y0548073
X0276557Y0546537
X0275250Y0545150
X0273819Y0543745
X0272692Y0542012
X0271991Y0540067
X0271754Y0538014
X0272150Y0536150
X0272680Y0534377
X0273906Y0532713
X0275518Y0531419
X0277394Y0530551
X0279424Y0530160
X0281491Y0530140
X0283558
X0285625
X0287692
X0289759
X0291826
X0293893
X0295960
X0298027
X0300094
X0302161
X0304226Y0530212
X0306259Y0530589
X0308207Y0531279
X0310023Y0532266
X0311663Y0533525
X0312184Y0530024
X0310421Y0528946
X0308535Y0528100
X0306557Y0527501
X0304550Y0527100
X0302466Y0527072
X0300399
X0298332
X0296265
X0294198
X0292131
X0290064
X0287997
X0285930
X0283863
X0281796
X0279729Y0527075
X0277675Y0527310
X0275696Y0527905
X0273853Y0528842
X0272207Y0530091
X0270814Y0531619
X0269742Y0533386
X0269030Y0535327
X0268706Y0537368
X0268769Y0539434
X0269187Y0541458
X0269946Y0543381
X0271022Y0545146
X0272926Y0547244
X0274812Y0549146
X0276122Y0550745
X0277222Y0552495
X0278096Y0554368
X0278731Y0556335
X0279115Y0558366
X0279250Y0560600
X0279150Y0562800
X0279244Y0565297
Y0567364
X0284617Y0569632
Y0571632
Y0573632
Y0575632
Y0577605
X0286722Y0577599
Y0575632
X0286922Y0573565
Y0571498
Y0569431
Y0567364
Y0565297
Y0563230
Y0561163
Y0559096
Y0557029
Y0554962
Y0552895
Y0550828
Y0548761
Y0546961
X0287119Y0545231
X0287705Y0543249
X0288656Y0541414
X0289650Y0540100
X0290850Y0538900
X0292179Y0537890
X0294053Y0537017
X0296077Y0536600
X0297950
X0299867Y0536871
X0301858Y0537424
X0303756Y0538244
X0305523Y0539316
X0307127Y0540620
X0308594Y0542075
X0310057Y0543536
X0311624Y0544884
X0310443Y0547818
X0312197Y0548911
X0308810Y0546551
X0307310Y0545129
X0305848Y0543667
X0304335Y0542258
X0302616Y0541112
X0300724Y0540277
X0298718Y0539780
X0296850Y0539634
X0294816Y0540000
X0292259Y0541809
X0291006Y0543453
X0290231Y0545369
X0289990Y0547289
Y0549356
Y0551423
Y0553490
Y0555557
Y0557624
Y0559691
Y0561758
Y0563825
X0291000Y0565200
X0293250Y0565300
X0294600Y0564286
X0294818Y0562231
X0295465Y0560267
X0296510Y0558484
X0297600Y0557150
X0299099Y0556124
X0301009Y0555334
X0303051Y0555066
X0304738
X0306805
X0308872
X0310939
X0310450Y0558134
X0308383
X0306516
X0304716
X0303051
X0301032Y0558575
X0299627Y0559553
X0298409Y0561223
X0297759Y0563185
X0297668Y0565188
Y0567388
Y0569055
X0297714Y0570800
Y0572500
Y0574200
X0297914Y0575900
X0297868Y0577605
X0299973
Y0575632
Y0573632
Y0571632
Y0569632
X0302078
X0303812
X0305546
Y0571632
X0303812
X0302078
Y0573632
X0303812
X0305546
Y0575632
Y0577605
X0307651
Y0575632
Y0573632
Y0571632
Y0569632
X0302078Y0575632
Y0577599
X0294400
Y0575632
X0292295
Y0577605
X0290190
X0290214Y0575800
X0289990Y0573354
Y0571287
Y0569220
Y0567353
X0292295Y0569632
Y0571632
Y0573632
X0294600Y0573565
Y0571498
Y0569431
Y0567564
X0269261Y0569632
Y0571632
Y0573632
X0267156Y0569632
X0265422
X0263688
X0187108Y0569798
Y0568124
X0186786Y0566282
X0185165Y0563634
X0183438Y0562497
X0181543Y0562134
X0179679
X0177812
X0175745
X0173678
X0171611
X0169544Y0562132
X0167485Y0561946
X0165476Y0561463
X0163558Y0560693
X0161772Y0559651
X0160157Y0558361
X0158733Y0556863
X0157490Y0555212
X0156441Y0553430
X0175230Y0571632
X0177230
X0179230
X0180964
X0182698
Y0573632
X0180964
X0179230
Y0575632
Y0577599
X0177230
Y0575632
Y0573632
X0175230
Y0575632
Y0577599
X0182698Y0577605
Y0575632
X0184808
Y0577599
X0186908
Y0575632
X0187108Y0573565
Y0571498
X0184808Y0571632
Y0573632
X0184937Y0519134
X0182870
X0180803
X0178736
X0176669
X0174602
X0172535
X0170468
X0168401
X0166334
X0164267
X0162204Y0519255
X0160301Y0520063
X0187004Y0519081
X0189051Y0518798
X0191051Y0518275
X0192975Y0517521
X0194797Y0516544
X0196491Y0515360
X0198034Y0513984
X0199495Y0512523
X0200957Y0511061
X0202419Y0509599
X0203880Y0508138
X0205342Y0506676
X0206774Y0505186
X0207957Y0503491
X0208811Y0501608
X0209308Y0499602
X0209437Y0497539
Y0495472
Y0488976
X0211487
X0210462Y0487204
X0221723Y0495934
Y0498001
X0228750Y0500600
X0230604Y0500100
X0233493Y0502988
X0236382Y0500100
X0155601Y0520866
X0154815Y0522778
X0154444Y0524812
X0154416Y0526878
Y0528945
Y0531012
Y0533079
Y0535146
Y0537213
Y0539280
Y0541347
Y0543414
X0154421Y0545481
X0154584Y0547542
X0154979Y0549571
X0155601Y0551542
M30
