G04*
G04 #@! TF.GenerationSoftware,Altium Limited,Altium Designer,19.1.6 (110)*
G04*
G04 Layer_Color=8388736*
%FSAX25Y25*%
%MOIN*%
G70*
G01*
G75*
%ADD16C,0.01000*%
%ADD18C,0.00800*%
%ADD22C,0.00600*%
G54D16*
X0094156Y0174771D02*
X0099872Y0172065D01*
X0094156Y0174771D02*
X0097106Y0169176D01*
X0100428Y0168764D02*
X0100490Y0160855D01*
X0100428Y0168764D02*
X0100490Y0160855D01*
X0100428Y0168764D02*
X0100490Y0160855D01*
X0100428Y0168764D02*
X0100490Y0160855D01*
X0094156Y0174771D02*
X0100428Y0168764D01*
X0100490Y0160855D01*
X0569450Y0049400D02*
Y0069683D01*
X0450550Y0050050D02*
X0710250D01*
Y0111050D01*
X0296550Y0050050D02*
Y0111050D01*
X0050050Y0050050D02*
Y0111050D01*
X0050100Y0050050D02*
X0207650D01*
X0050100D02*
Y0111050D01*
Y0111050D02*
X0710250D01*
X0050050Y0050050D02*
X0450550D01*
X0050050Y0070383D02*
X0710050D01*
X0050050Y0090717D02*
X0710250D01*
X0423250D02*
Y0111050D01*
X0507250Y0090717D02*
Y0111050D01*
G54D18*
X0136857Y0077492D02*
Y0083490D01*
X0138856Y0081491D01*
X0140856Y0083490D01*
Y0077492D01*
X0146854D02*
X0142855D01*
X0146854Y0081491D01*
Y0082490D01*
X0145854Y0083490D01*
X0143855D01*
X0142855Y0082490D01*
X0154851Y0083490D02*
Y0077492D01*
X0157850D01*
X0158850Y0078492D01*
Y0079491D01*
X0157850Y0080491D01*
X0154851D01*
X0157850D01*
X0158850Y0081491D01*
Y0082490D01*
X0157850Y0083490D01*
X0154851D01*
X0161849Y0077492D02*
X0163848D01*
X0164848Y0078492D01*
Y0080491D01*
X0163848Y0081491D01*
X0161849D01*
X0160849Y0080491D01*
Y0078492D01*
X0161849Y0077492D01*
X0167847Y0081491D02*
X0169846D01*
X0170846Y0080491D01*
Y0077492D01*
X0167847D01*
X0166847Y0078492D01*
X0167847Y0079491D01*
X0170846D01*
X0172845Y0081491D02*
Y0077492D01*
Y0079491D01*
X0173845Y0080491D01*
X0174845Y0081491D01*
X0175844D01*
X0182842Y0083490D02*
Y0077492D01*
X0179843D01*
X0178843Y0078492D01*
Y0080491D01*
X0179843Y0081491D01*
X0182842D01*
X0190839Y0083490D02*
Y0077492D01*
X0193838D01*
X0194838Y0078492D01*
Y0082490D01*
X0193838Y0083490D01*
X0190839D01*
X0196837Y0077492D02*
X0198837D01*
X0197837D01*
Y0081491D01*
X0196837D01*
X0201836Y0077492D02*
Y0081491D01*
X0202835D01*
X0203835Y0080491D01*
Y0077492D01*
Y0080491D01*
X0204835Y0081491D01*
X0205835Y0080491D01*
Y0077492D01*
X0210833D02*
X0208834D01*
X0207834Y0078492D01*
Y0080491D01*
X0208834Y0081491D01*
X0210833D01*
X0211833Y0080491D01*
Y0079491D01*
X0207834D01*
X0213832Y0077492D02*
Y0081491D01*
X0216831D01*
X0217831Y0080491D01*
Y0077492D01*
X0219830D02*
X0222829D01*
X0223829Y0078492D01*
X0222829Y0079491D01*
X0220830D01*
X0219830Y0080491D01*
X0220830Y0081491D01*
X0223829D01*
X0225828Y0077492D02*
X0227827D01*
X0226828D01*
Y0081491D01*
X0225828D01*
X0231826Y0077492D02*
X0233825D01*
X0234825Y0078492D01*
Y0080491D01*
X0233825Y0081491D01*
X0231826D01*
X0230826Y0080491D01*
Y0078492D01*
X0231826Y0077492D01*
X0236824D02*
Y0081491D01*
X0239824D01*
X0240823Y0080491D01*
Y0077492D01*
X0242823D02*
X0245822D01*
X0246821Y0078492D01*
X0245822Y0079491D01*
X0243822D01*
X0242823Y0080491D01*
X0243822Y0081491D01*
X0246821D01*
X0590550Y0062964D02*
X0594549D01*
X0592549D01*
Y0056966D01*
X0600547Y0062964D02*
X0596548D01*
Y0056966D01*
X0600547D01*
X0596548Y0059965D02*
X0598547D01*
X0602546Y0062964D02*
X0606545Y0056966D01*
Y0062964D02*
X0602546Y0056966D01*
X0608544D02*
Y0060965D01*
X0610543Y0062964D01*
X0612543Y0060965D01*
Y0056966D01*
Y0059965D01*
X0608544D01*
X0618541Y0061965D02*
X0617541Y0062964D01*
X0615542D01*
X0614542Y0061965D01*
Y0060965D01*
X0615542Y0059965D01*
X0617541D01*
X0618541Y0058966D01*
Y0057966D01*
X0617541Y0056966D01*
X0615542D01*
X0614542Y0057966D01*
X0626538Y0062964D02*
X0628538D01*
X0627538D01*
Y0056966D01*
X0626538D01*
X0628538D01*
X0631537D02*
Y0062964D01*
X0635535Y0056966D01*
Y0062964D01*
X0641534Y0061965D02*
X0640534Y0062964D01*
X0638534D01*
X0637535Y0061965D01*
Y0060965D01*
X0638534Y0059965D01*
X0640534D01*
X0641534Y0058966D01*
Y0057966D01*
X0640534Y0056966D01*
X0638534D01*
X0637535Y0057966D01*
X0643533Y0062964D02*
X0647532D01*
X0645532D01*
Y0056966D01*
X0649531D02*
Y0062964D01*
X0652530D01*
X0653530Y0061965D01*
Y0059965D01*
X0652530Y0058966D01*
X0649531D01*
X0651530D02*
X0653530Y0056966D01*
X0655529Y0062964D02*
Y0057966D01*
X0656529Y0056966D01*
X0658528D01*
X0659528Y0057966D01*
Y0062964D01*
X0661527Y0056966D02*
Y0062964D01*
X0663526Y0060965D01*
X0665526Y0062964D01*
Y0056966D01*
X0671524Y0062964D02*
X0667525D01*
Y0056966D01*
X0671524D01*
X0667525Y0059965D02*
X0669524D01*
X0673523Y0056966D02*
Y0062964D01*
X0677522Y0056966D01*
Y0062964D01*
X0679521D02*
X0683520D01*
X0681521D01*
Y0056966D01*
X0689518Y0061965D02*
X0688518Y0062964D01*
X0686519D01*
X0685519Y0061965D01*
Y0060965D01*
X0686519Y0059965D01*
X0688518D01*
X0689518Y0058966D01*
Y0057966D01*
X0688518Y0056966D01*
X0686519D01*
X0685519Y0057966D01*
X0468099Y0062964D02*
X0466099Y0061965D01*
X0464100Y0059965D01*
Y0057966D01*
X0465100Y0056966D01*
X0467099D01*
X0468099Y0057966D01*
Y0058966D01*
X0467099Y0059965D01*
X0464100D01*
X0470098Y0060965D02*
X0471098D01*
Y0059965D01*
X0470098D01*
Y0060965D01*
Y0057966D02*
X0471098D01*
Y0056966D01*
X0470098D01*
Y0057966D01*
X0475096Y0061965D02*
X0476096Y0062964D01*
X0478095D01*
X0479095Y0061965D01*
Y0057966D01*
X0478095Y0056966D01*
X0476096D01*
X0475096Y0057966D01*
Y0061965D01*
X0485093Y0062964D02*
X0483094Y0061965D01*
X0481095Y0059965D01*
Y0057966D01*
X0482094Y0056966D01*
X0484094D01*
X0485093Y0057966D01*
Y0058966D01*
X0484094Y0059965D01*
X0481095D01*
X0487093Y0060965D02*
X0488092D01*
Y0059965D01*
X0487093D01*
Y0060965D01*
Y0057966D02*
X0488092D01*
Y0056966D01*
X0487093D01*
Y0057966D01*
X0496090Y0056966D02*
X0492091D01*
X0496090Y0060965D01*
Y0061965D01*
X0495090Y0062964D01*
X0493091D01*
X0492091Y0061965D01*
X0498089Y0057966D02*
X0499089Y0056966D01*
X0501088D01*
X0502088Y0057966D01*
Y0061965D01*
X0501088Y0062964D01*
X0499089D01*
X0498089Y0061965D01*
Y0060965D01*
X0499089Y0059965D01*
X0502088D01*
X0510085Y0056966D02*
Y0062964D01*
X0513084D01*
X0514084Y0061965D01*
Y0059965D01*
X0513084Y0058966D01*
X0510085D01*
X0516083Y0056966D02*
Y0062964D01*
X0518083Y0060965D01*
X0520082Y0062964D01*
Y0056966D01*
X0056400Y0083549D02*
Y0077551D01*
X0060399D01*
X0062398D02*
Y0081549D01*
X0064397Y0083549D01*
X0066397Y0081549D01*
Y0077551D01*
Y0080550D01*
X0062398D01*
X0068396Y0083549D02*
Y0082549D01*
X0070395Y0080550D01*
X0072395Y0082549D01*
Y0083549D01*
X0070395Y0080550D02*
Y0077551D01*
X0078393Y0083549D02*
X0074394D01*
Y0077551D01*
X0078393D01*
X0074394Y0080550D02*
X0076394D01*
X0080392Y0077551D02*
Y0083549D01*
X0083391D01*
X0084391Y0082549D01*
Y0080550D01*
X0083391Y0079550D01*
X0080392D01*
X0082392D02*
X0084391Y0077551D01*
X0092388D02*
Y0083549D01*
X0096387Y0077551D01*
Y0083549D01*
X0098386Y0077551D02*
Y0081549D01*
X0100386Y0083549D01*
X0102385Y0081549D01*
Y0077551D01*
Y0080550D01*
X0098386D01*
X0104385Y0077551D02*
Y0083549D01*
X0106384Y0081549D01*
X0108383Y0083549D01*
Y0077551D01*
X0114381Y0083549D02*
X0110382D01*
Y0077551D01*
X0114381D01*
X0110382Y0080550D02*
X0112382D01*
X0122379Y0079550D02*
X0126377D01*
X0122379Y0081549D02*
X0126377D01*
X0304050Y0103831D02*
Y0097833D01*
X0307049D01*
X0308049Y0098833D01*
Y0099833D01*
X0307049Y0100832D01*
X0304050D01*
X0307049D01*
X0308049Y0101832D01*
Y0102832D01*
X0307049Y0103831D01*
X0304050D01*
X0313047D02*
X0311048D01*
X0310048Y0102832D01*
Y0098833D01*
X0311048Y0097833D01*
X0313047D01*
X0314047Y0098833D01*
Y0102832D01*
X0313047Y0103831D01*
X0316046Y0097833D02*
Y0101832D01*
X0318045Y0103831D01*
X0320045Y0101832D01*
Y0097833D01*
Y0100832D01*
X0316046D01*
X0322044Y0097833D02*
Y0103831D01*
X0325043D01*
X0326043Y0102832D01*
Y0100832D01*
X0325043Y0099833D01*
X0322044D01*
X0324043D02*
X0326043Y0097833D01*
X0328042Y0103831D02*
Y0097833D01*
X0331041D01*
X0332041Y0098833D01*
Y0102832D01*
X0331041Y0103831D01*
X0328042D01*
X0341038Y0097833D02*
Y0103831D01*
X0343037D02*
Y0097833D01*
X0340038Y0101832D02*
X0343037D01*
X0344037D01*
X0340038Y0099833D02*
X0344037D01*
X0346036Y0101832D02*
X0347036D01*
Y0100832D01*
X0346036D01*
Y0101832D01*
Y0098833D02*
X0347036D01*
Y0097833D01*
X0346036D01*
Y0098833D01*
X0358600Y0097833D02*
Y0103831D01*
X0361599D01*
X0362599Y0102832D01*
Y0100832D01*
X0361599Y0099833D01*
X0358600D01*
X0364598Y0097833D02*
Y0103831D01*
X0367597D01*
X0368597Y0102832D01*
Y0100832D01*
X0367597Y0099833D01*
X0364598D01*
X0366597D02*
X0368597Y0097833D01*
X0373595Y0103831D02*
X0371596D01*
X0370596Y0102832D01*
Y0098833D01*
X0371596Y0097833D01*
X0373595D01*
X0374595Y0098833D01*
Y0102832D01*
X0373595Y0103831D01*
X0380593Y0102832D02*
X0379593Y0103831D01*
X0377594D01*
X0376594Y0102832D01*
Y0098833D01*
X0377594Y0097833D01*
X0379593D01*
X0380593Y0098833D01*
X0382592Y0102832D02*
X0383592Y0103831D01*
X0385591D01*
X0386591Y0102832D01*
Y0098833D01*
X0385591Y0097833D01*
X0383592D01*
X0382592Y0098833D01*
Y0102832D01*
X0392589Y0103831D02*
X0388590D01*
Y0100832D01*
X0390590Y0101832D01*
X0391589D01*
X0392589Y0100832D01*
Y0098833D01*
X0391589Y0097833D01*
X0389590D01*
X0388590Y0098833D01*
X0397587Y0097833D02*
Y0103831D01*
X0394588Y0100832D01*
X0398587D01*
X0472200Y0103831D02*
Y0097833D01*
X0475199D01*
X0476199Y0098833D01*
Y0102832D01*
X0475199Y0103831D01*
X0472200D01*
X0056400Y0097833D02*
Y0101832D01*
X0058399Y0103831D01*
X0060399Y0101832D01*
Y0097833D01*
Y0100832D01*
X0056400D01*
X0062398Y0103831D02*
Y0097833D01*
X0066397D01*
X0068396Y0103831D02*
Y0097833D01*
X0072395D01*
X0080392D02*
Y0101832D01*
X0082392Y0103831D01*
X0084391Y0101832D01*
Y0097833D01*
Y0100832D01*
X0080392D01*
X0086390Y0097833D02*
Y0103831D01*
X0089389D01*
X0090389Y0102832D01*
Y0100832D01*
X0089389Y0099833D01*
X0086390D01*
X0088390D02*
X0090389Y0097833D01*
X0092388Y0103831D02*
X0096387D01*
X0094388D01*
Y0097833D01*
X0098386Y0103831D02*
Y0097833D01*
X0100386Y0099833D01*
X0102385Y0097833D01*
Y0103831D01*
X0107384D02*
X0105384D01*
X0104385Y0102832D01*
Y0098833D01*
X0105384Y0097833D01*
X0107384D01*
X0108383Y0098833D01*
Y0102832D01*
X0107384Y0103831D01*
X0110382Y0097833D02*
Y0103831D01*
X0113382D01*
X0114381Y0102832D01*
Y0100832D01*
X0113382Y0099833D01*
X0110382D01*
X0112382D02*
X0114381Y0097833D01*
X0116381Y0103831D02*
Y0097833D01*
Y0099833D01*
X0120379Y0103831D01*
X0117380Y0100832D01*
X0120379Y0097833D01*
X0128377Y0103831D02*
Y0099833D01*
X0130376Y0097833D01*
X0132375Y0099833D01*
Y0103831D01*
X0134375D02*
X0136374D01*
X0135374D01*
Y0097833D01*
X0134375D01*
X0136374D01*
X0143372Y0103831D02*
X0139373D01*
Y0097833D01*
X0143372D01*
X0139373Y0100832D02*
X0141373D01*
X0145371Y0103831D02*
Y0097833D01*
X0147371Y0099833D01*
X0149370Y0097833D01*
Y0103831D01*
X0155368D02*
X0151369D01*
Y0097833D01*
X0155368D01*
X0151369Y0100832D02*
X0153369D01*
X0157367Y0103831D02*
Y0097833D01*
X0160366D01*
X0161366Y0098833D01*
Y0102832D01*
X0160366Y0103831D01*
X0157367D01*
X0173362D02*
X0169363D01*
Y0100832D01*
X0171363D01*
X0169363D01*
Y0097833D01*
X0175362D02*
Y0103831D01*
X0178360D01*
X0179360Y0102832D01*
Y0100832D01*
X0178360Y0099833D01*
X0175362D01*
X0177361D02*
X0179360Y0097833D01*
X0184359Y0103831D02*
X0182359D01*
X0181360Y0102832D01*
Y0098833D01*
X0182359Y0097833D01*
X0184359D01*
X0185358Y0098833D01*
Y0102832D01*
X0184359Y0103831D01*
X0187358Y0097833D02*
Y0103831D01*
X0189357Y0101832D01*
X0191356Y0103831D01*
Y0097833D01*
X0199354Y0103831D02*
X0203352D01*
X0201353D01*
Y0097833D01*
X0208351Y0103831D02*
X0206351D01*
X0205352Y0102832D01*
Y0098833D01*
X0206351Y0097833D01*
X0208351D01*
X0209350Y0098833D01*
Y0102832D01*
X0208351Y0103831D01*
X0211350Y0097833D02*
Y0103831D01*
X0214349D01*
X0215349Y0102832D01*
Y0100832D01*
X0214349Y0099833D01*
X0211350D01*
X0227345Y0102832D02*
X0226345Y0103831D01*
X0224346D01*
X0223346Y0102832D01*
Y0101832D01*
X0224346Y0100832D01*
X0226345D01*
X0227345Y0099833D01*
Y0098833D01*
X0226345Y0097833D01*
X0224346D01*
X0223346Y0098833D01*
X0229344Y0103831D02*
X0231343D01*
X0230344D01*
Y0097833D01*
X0229344D01*
X0231343D01*
X0234342Y0103831D02*
Y0097833D01*
X0237341D01*
X0238341Y0098833D01*
Y0102832D01*
X0237341Y0103831D01*
X0234342D01*
X0244339D02*
X0240340D01*
Y0097833D01*
X0244339D01*
X0240340Y0100832D02*
X0242340D01*
X0308249Y0061965D02*
X0307249Y0062964D01*
X0305250D01*
X0304250Y0061965D01*
Y0057966D01*
X0305250Y0056966D01*
X0307249D01*
X0308249Y0057966D01*
Y0059965D01*
X0306249D01*
X0314247Y0062964D02*
X0310248D01*
Y0056966D01*
X0314247D01*
X0310248Y0059965D02*
X0312247D01*
X0316246Y0056966D02*
Y0062964D01*
X0320245Y0056966D01*
Y0062964D01*
X0326243D02*
X0322244D01*
Y0056966D01*
X0326243D01*
X0322244Y0059965D02*
X0324243D01*
X0328242Y0056966D02*
Y0062964D01*
X0331241D01*
X0332241Y0061965D01*
Y0059965D01*
X0331241Y0058966D01*
X0328242D01*
X0330242D02*
X0332241Y0056966D01*
X0334240D02*
Y0060965D01*
X0336240Y0062964D01*
X0338239Y0060965D01*
Y0056966D01*
Y0059965D01*
X0334240D01*
X0340238Y0062964D02*
X0344237D01*
X0342238D01*
Y0056966D01*
X0350235Y0062964D02*
X0346236D01*
Y0056966D01*
X0350235D01*
X0346236Y0059965D02*
X0348236D01*
X0352235Y0062964D02*
Y0056966D01*
X0355234D01*
X0356233Y0057966D01*
Y0061965D01*
X0355234Y0062964D01*
X0352235D01*
X0382225Y0060965D02*
X0383225D01*
Y0059965D01*
X0382225D01*
Y0060965D01*
Y0057966D02*
X0383225D01*
Y0056966D01*
X0382225D01*
Y0057966D01*
X0395199Y0056966D02*
X0391200D01*
X0395199Y0060965D01*
Y0061965D01*
X0394199Y0062964D01*
X0392200D01*
X0391200Y0061965D01*
X0397198Y0056966D02*
X0401197Y0060965D01*
X0403196Y0056966D02*
X0405196D01*
X0404196D01*
Y0062964D01*
X0403196Y0061965D01*
X0408194D02*
X0409194Y0062964D01*
X0411194D01*
X0412193Y0061965D01*
Y0057966D01*
X0411194Y0056966D01*
X0409194D01*
X0408194Y0057966D01*
Y0061965D01*
X0414193Y0056966D02*
X0418191Y0060965D01*
X0424189Y0056966D02*
X0420191D01*
X0424189Y0060965D01*
Y0061965D01*
X0423190Y0062964D01*
X0421190D01*
X0420191Y0061965D01*
X0426189D02*
X0427188Y0062964D01*
X0429188D01*
X0430187Y0061965D01*
Y0057966D01*
X0429188Y0056966D01*
X0427188D01*
X0426189Y0057966D01*
Y0061965D01*
X0436186Y0056966D02*
X0432187D01*
X0436186Y0060965D01*
Y0061965D01*
X0435186Y0062964D01*
X0433186D01*
X0432187Y0061965D01*
X0438185D02*
X0439185Y0062964D01*
X0441184D01*
X0442183Y0061965D01*
Y0057966D01*
X0441184Y0056966D01*
X0439185D01*
X0438185Y0057966D01*
Y0061965D01*
X0443050Y0097833D02*
Y0103831D01*
X0446049D01*
X0447049Y0102832D01*
Y0100832D01*
X0446049Y0099833D01*
X0443050D01*
X0445049D02*
X0447049Y0097833D01*
X0453047Y0103831D02*
X0449048D01*
Y0097833D01*
X0453047D01*
X0449048Y0100832D02*
X0451047D01*
X0455046Y0103831D02*
Y0099833D01*
X0457046Y0097833D01*
X0459045Y0099833D01*
Y0103831D01*
X0461044Y0101832D02*
X0462044D01*
Y0100832D01*
X0461044D01*
Y0101832D01*
Y0098833D02*
X0462044D01*
Y0097833D01*
X0461044D01*
Y0098833D01*
X0530849Y0102832D02*
X0529849Y0103831D01*
X0527850D01*
X0526850Y0102832D01*
Y0101832D01*
X0527850Y0100832D01*
X0529849D01*
X0530849Y0099833D01*
Y0098833D01*
X0529849Y0097833D01*
X0527850D01*
X0526850Y0098833D01*
X0532848Y0103831D02*
Y0099833D01*
X0534847Y0097833D01*
X0536847Y0099833D01*
Y0103831D01*
X0538846Y0097833D02*
Y0103831D01*
X0542845Y0097833D01*
Y0103831D01*
X0550842Y0097833D02*
Y0103831D01*
X0553841D01*
X0554841Y0102832D01*
Y0100832D01*
X0553841Y0099833D01*
X0550842D01*
X0552842D02*
X0554841Y0097833D01*
X0560839Y0103831D02*
X0556840D01*
Y0097833D01*
X0560839D01*
X0556840Y0100832D02*
X0558840D01*
X0562838Y0103831D02*
Y0099833D01*
X0564838Y0097833D01*
X0566837Y0099833D01*
Y0103831D01*
X0568836Y0101832D02*
X0569836D01*
Y0100832D01*
X0568836D01*
Y0101832D01*
Y0098833D02*
X0569836D01*
Y0097833D01*
X0568836D01*
Y0098833D01*
X0577450Y0097833D02*
X0579449D01*
X0578450D01*
Y0103831D01*
X0577450Y0102832D01*
X0586447Y0103831D02*
Y0097833D01*
X0583448D01*
X0582448Y0098833D01*
Y0100832D01*
X0583448Y0101832D01*
X0586447D01*
X0589446Y0097833D02*
Y0102832D01*
Y0100832D01*
X0588446D01*
X0590446D01*
X0589446D01*
Y0102832D01*
X0590446Y0103831D01*
X0593445Y0102832D02*
X0594445Y0103831D01*
X0596444D01*
X0597443Y0102832D01*
Y0101832D01*
X0596444Y0100832D01*
X0595444D01*
X0596444D01*
X0597443Y0099833D01*
Y0098833D01*
X0596444Y0097833D01*
X0594445D01*
X0593445Y0098833D01*
X0603442Y0097833D02*
X0599443D01*
X0603442Y0101832D01*
Y0102832D01*
X0602442Y0103831D01*
X0600443D01*
X0599443Y0102832D01*
X0606441Y0101832D02*
X0608440D01*
X0609440Y0100832D01*
Y0097833D01*
X0606441D01*
X0605441Y0098833D01*
X0606441Y0099833D01*
X0609440D01*
X0615438Y0097833D02*
X0611439D01*
X0615438Y0101832D01*
Y0102832D01*
X0614438Y0103831D01*
X0612439D01*
X0611439Y0102832D01*
X0617437Y0098833D02*
X0618437Y0097833D01*
X0620436D01*
X0621436Y0098833D01*
Y0102832D01*
X0620436Y0103831D01*
X0618437D01*
X0617437Y0102832D01*
Y0101832D01*
X0618437Y0100832D01*
X0621436D01*
X0626434Y0097833D02*
X0624435D01*
X0623435Y0098833D01*
Y0100832D01*
X0624435Y0101832D01*
X0626434D01*
X0627434Y0100832D01*
Y0099833D01*
X0623435D01*
X0629433Y0103831D02*
X0633432D01*
Y0102832D01*
X0629433Y0098833D01*
Y0097833D01*
X0639430Y0101832D02*
X0636431D01*
X0635431Y0100832D01*
Y0098833D01*
X0636431Y0097833D01*
X0639430D01*
X0645428Y0101832D02*
X0642429D01*
X0641429Y0100832D01*
Y0098833D01*
X0642429Y0097833D01*
X0645428D01*
X0647427Y0103831D02*
X0651426D01*
Y0102832D01*
X0647427Y0098833D01*
Y0097833D01*
X0654425D02*
Y0102832D01*
Y0100832D01*
X0653425D01*
X0655425D01*
X0654425D01*
Y0102832D01*
X0655425Y0103831D01*
X0659423Y0101832D02*
X0661423D01*
X0662423Y0100832D01*
Y0097833D01*
X0659423D01*
X0658424Y0098833D01*
X0659423Y0099833D01*
X0662423D01*
X0668421Y0097833D02*
X0664422D01*
X0668421Y0101832D01*
Y0102832D01*
X0667421Y0103831D01*
X0665421D01*
X0664422Y0102832D01*
X0671420Y0097833D02*
Y0102832D01*
Y0100832D01*
X0670420D01*
X0672419D01*
X0671420D01*
Y0102832D01*
X0672419Y0103831D01*
X0679417D02*
Y0097833D01*
X0676418D01*
X0675418Y0098833D01*
Y0100832D01*
X0676418Y0101832D01*
X0679417D01*
X0684415Y0097833D02*
X0682416D01*
X0681416Y0098833D01*
Y0100832D01*
X0682416Y0101832D01*
X0684415D01*
X0685415Y0100832D01*
Y0099833D01*
X0681416D01*
X0691413Y0103831D02*
X0689414Y0102832D01*
X0687414Y0100832D01*
Y0098833D01*
X0688414Y0097833D01*
X0690414D01*
X0691413Y0098833D01*
Y0099833D01*
X0690414Y0100832D01*
X0687414D01*
X0693412Y0098833D02*
X0694412Y0097833D01*
X0696412D01*
X0697411Y0098833D01*
Y0102832D01*
X0696412Y0103831D01*
X0694412D01*
X0693412Y0102832D01*
Y0101832D01*
X0694412Y0100832D01*
X0697411D01*
X0703409Y0097833D02*
X0699410D01*
X0703409Y0101832D01*
Y0102832D01*
X0702410Y0103831D01*
X0700410D01*
X0699410Y0102832D01*
X0705409D02*
X0706408Y0103831D01*
X0708408D01*
X0709407Y0102832D01*
Y0101832D01*
X0708408Y0100832D01*
X0709407Y0099833D01*
Y0098833D01*
X0708408Y0097833D01*
X0706408D01*
X0705409Y0098833D01*
Y0099833D01*
X0706408Y0100832D01*
X0705409Y0101832D01*
Y0102832D01*
X0706408Y0100832D02*
X0708408D01*
X0711407Y0097833D02*
X0713406D01*
X0712406D01*
Y0103831D01*
X0711407Y0102832D01*
X0717405Y0097833D02*
Y0102832D01*
Y0100832D01*
X0716405D01*
X0718404D01*
X0717405D01*
Y0102832D01*
X0718404Y0103831D01*
X0725402D02*
Y0097833D01*
X0722403D01*
X0721403Y0098833D01*
Y0100832D01*
X0722403Y0101832D01*
X0725402D01*
X0731400Y0097833D02*
X0727401D01*
X0731400Y0101832D01*
Y0102832D01*
X0730401Y0103831D01*
X0728401D01*
X0727401Y0102832D01*
X0733399Y0097833D02*
X0735399D01*
X0734399D01*
Y0103831D01*
X0733399Y0102832D01*
X0738398Y0103831D02*
Y0097833D01*
X0741397D01*
X0742397Y0098833D01*
Y0099833D01*
Y0100832D01*
X0741397Y0101832D01*
X0738398D01*
X0748395Y0103831D02*
Y0097833D01*
X0745396D01*
X0744396Y0098833D01*
Y0100832D01*
X0745396Y0101832D01*
X0748395D01*
X0753393Y0097833D02*
Y0103831D01*
X0750394Y0100832D01*
X0754393D01*
X0756392Y0097833D02*
X0758391D01*
X0757392D01*
Y0103831D01*
X0756392Y0102832D01*
X0761390Y0103831D02*
Y0097833D01*
X0764390D01*
X0765389Y0098833D01*
Y0099833D01*
Y0100832D01*
X0764390Y0101832D01*
X0761390D01*
X0771387Y0103831D02*
X0769388Y0102832D01*
X0767388Y0100832D01*
Y0098833D01*
X0768388Y0097833D01*
X0770388D01*
X0771387Y0098833D01*
Y0099833D01*
X0770388Y0100832D01*
X0767388D01*
X0773387Y0103831D02*
X0777385D01*
Y0102832D01*
X0773387Y0098833D01*
Y0097833D01*
X0782384D02*
X0780384D01*
X0779385Y0098833D01*
Y0100832D01*
X0780384Y0101832D01*
X0782384D01*
X0783383Y0100832D01*
Y0099833D01*
X0779385D01*
X0785383Y0102832D02*
X0786382Y0103831D01*
X0788382D01*
X0789381Y0102832D01*
Y0101832D01*
X0788382Y0100832D01*
X0787382D01*
X0788382D01*
X0789381Y0099833D01*
Y0098833D01*
X0788382Y0097833D01*
X0786382D01*
X0785383Y0098833D01*
X0791381Y0103831D02*
X0795379D01*
Y0102832D01*
X0791381Y0098833D01*
Y0097833D01*
X0800378D02*
X0798379D01*
X0797379Y0098833D01*
Y0100832D01*
X0798379Y0101832D01*
X0800378D01*
X0801377Y0100832D01*
Y0099833D01*
X0797379D01*
X0804377Y0101832D02*
X0806376D01*
X0807376Y0100832D01*
Y0097833D01*
X0804377D01*
X0803377Y0098833D01*
X0804377Y0099833D01*
X0807376D01*
X0817372Y0097833D02*
X0815373D01*
Y0103831D01*
X0817372D01*
X0820371D02*
Y0097833D01*
X0824370D01*
X0827369D02*
X0829368D01*
X0830368Y0098833D01*
Y0100832D01*
X0829368Y0101832D01*
X0827369D01*
X0826369Y0100832D01*
Y0098833D01*
X0827369Y0097833D01*
X0836366Y0101832D02*
X0833367D01*
X0832368Y0100832D01*
Y0098833D01*
X0833367Y0097833D01*
X0836366D01*
X0839365Y0101832D02*
X0841365D01*
X0842364Y0100832D01*
Y0097833D01*
X0839365D01*
X0838366Y0098833D01*
X0839365Y0099833D01*
X0842364D01*
X0844364Y0097833D02*
X0846363D01*
X0845363D01*
Y0103831D01*
X0844364D01*
X0849362Y0097833D02*
X0851361D01*
X0850362D01*
Y0103831D01*
X0849362D01*
X0854360Y0101832D02*
Y0098833D01*
X0855360Y0097833D01*
X0858359D01*
Y0096834D01*
X0857359Y0095834D01*
X0856360D01*
X0858359Y0097833D02*
Y0101832D01*
X0866356Y0097833D02*
Y0103831D01*
X0868356Y0101832D01*
X0870355Y0103831D01*
Y0097833D01*
X0873354D02*
X0875354D01*
X0876353Y0098833D01*
Y0100832D01*
X0875354Y0101832D01*
X0873354D01*
X0872355Y0100832D01*
Y0098833D01*
X0873354Y0097833D01*
X0882351Y0103831D02*
Y0097833D01*
X0879352D01*
X0878353Y0098833D01*
Y0100832D01*
X0879352Y0101832D01*
X0882351D01*
X0884351Y0097833D02*
X0886350D01*
X0885350D01*
Y0101832D01*
X0884351D01*
X0890349Y0097833D02*
Y0102832D01*
Y0100832D01*
X0889349D01*
X0891348D01*
X0890349D01*
Y0102832D01*
X0891348Y0103831D01*
X0894347Y0097833D02*
X0896347D01*
X0895347D01*
Y0101832D01*
X0894347D01*
X0902345Y0097833D02*
X0900346D01*
X0899346Y0098833D01*
Y0100832D01*
X0900346Y0101832D01*
X0902345D01*
X0903345Y0100832D01*
Y0099833D01*
X0899346D01*
X0909343Y0103831D02*
Y0097833D01*
X0906344D01*
X0905344Y0098833D01*
Y0100832D01*
X0906344Y0101832D01*
X0909343D01*
X0911342Y0097833D02*
X0913341D01*
Y0103831D01*
X0911342D01*
G54D22*
X0063619Y0182500D02*
X0065619Y0176500D01*
X0067619Y0182500D01*
X0065619Y0163400D02*
X0067619Y0157400D01*
X0063619D02*
X0065619Y0163400D01*
Y0176500D02*
Y0186500D01*
Y0153400D02*
Y0163400D01*
X0064619D02*
X0077750D01*
X0064619Y0176500D02*
X0081350D01*
X0092350Y0144041D02*
X0098350Y0146041D01*
X0092350Y0144041D02*
X0098350Y0142041D01*
X0073250D02*
X0079250Y0144041D01*
X0073250Y0146041D02*
X0079250Y0144041D01*
X0092350D02*
X0102350D01*
X0069250D02*
X0079250D01*
Y0143041D02*
Y0161900D01*
X0092350Y0143041D02*
Y0165500D01*
Y0149673D02*
X0098350Y0151673D01*
X0092350Y0149673D02*
X0098350Y0147673D01*
X0703171D02*
X0709171Y0149673D01*
X0703171Y0151673D02*
X0709171Y0149673D01*
X0092350D02*
X0371569D01*
X0426752D02*
X0709171D01*
X0092350Y0148673D02*
Y0165500D01*
X0709171Y0148673D02*
Y0161900D01*
X0069193Y0182500D02*
X0071193Y0176500D01*
X0073193Y0182500D01*
X0071193Y0700407D02*
X0073193Y0694407D01*
X0069193D02*
X0071193Y0700407D01*
Y0176500D02*
Y0408262D01*
Y0465445D02*
Y0700407D01*
X0070193Y0176500D02*
X0081350D01*
X0070193Y0700407D02*
X0077750D01*
X0058421Y0145357D02*
Y0147357D01*
Y0146357D01*
X0052422D01*
X0053422Y0145357D01*
Y0150356D02*
X0052422Y0151356D01*
Y0153355D01*
X0053422Y0154355D01*
X0054422D01*
X0055422Y0153355D01*
Y0152355D01*
Y0153355D01*
X0056421Y0154355D01*
X0057421D01*
X0058421Y0153355D01*
Y0151356D01*
X0057421Y0150356D01*
X0058421Y0156354D02*
Y0158353D01*
Y0157354D01*
X0052422D01*
X0053422Y0156354D01*
X0058421Y0161352D02*
X0057421D01*
Y0162352D01*
X0058421D01*
Y0161352D01*
X0053422Y0166351D02*
X0052422Y0167350D01*
Y0169350D01*
X0053422Y0170349D01*
X0057421D01*
X0058421Y0169350D01*
Y0167350D01*
X0057421Y0166351D01*
X0053422D01*
Y0172349D02*
X0052422Y0173348D01*
Y0175348D01*
X0053422Y0176347D01*
X0057421D01*
X0058421Y0175348D01*
Y0173348D01*
X0057421Y0172349D01*
X0053422D01*
X0058421Y0178347D02*
X0054422D01*
Y0179347D01*
X0055422Y0180346D01*
X0058421D01*
X0055422D01*
X0054422Y0181346D01*
X0055422Y0182345D01*
X0058421D01*
Y0184345D02*
Y0186344D01*
Y0185345D01*
X0054422D01*
Y0184345D01*
X0058421Y0189343D02*
Y0191343D01*
Y0190343D01*
X0052422D01*
Y0189343D01*
X0061207Y0129645D02*
X0063207D01*
X0062207D01*
Y0135643D01*
X0061207Y0134643D01*
X0066206D02*
X0067206Y0135643D01*
X0069205D01*
X0070205Y0134643D01*
Y0133644D01*
X0069205Y0132644D01*
X0068205D01*
X0069205D01*
X0070205Y0131644D01*
Y0130645D01*
X0069205Y0129645D01*
X0067206D01*
X0066206Y0130645D01*
X0072204Y0129645D02*
X0074203D01*
X0073204D01*
Y0135643D01*
X0072204Y0134643D01*
X0077202Y0129645D02*
Y0130645D01*
X0078202D01*
Y0129645D01*
X0077202D01*
X0082201Y0134643D02*
X0083200Y0135643D01*
X0085200D01*
X0086199Y0134643D01*
Y0130645D01*
X0085200Y0129645D01*
X0083200D01*
X0082201Y0130645D01*
Y0134643D01*
X0088199D02*
X0089198Y0135643D01*
X0091198D01*
X0092197Y0134643D01*
Y0130645D01*
X0091198Y0129645D01*
X0089198D01*
X0088199Y0130645D01*
Y0134643D01*
X0094197Y0129645D02*
Y0133644D01*
X0095196D01*
X0096196Y0132644D01*
Y0129645D01*
Y0132644D01*
X0097196Y0133644D01*
X0098195Y0132644D01*
Y0129645D01*
X0100195D02*
X0102194D01*
X0101195D01*
Y0133644D01*
X0100195D01*
X0105193Y0129645D02*
X0107193D01*
X0106193D01*
Y0135643D01*
X0105193D01*
X0377168Y0152072D02*
X0375168Y0151073D01*
X0373169Y0149073D01*
Y0147074D01*
X0374169Y0146074D01*
X0376168D01*
X0377168Y0147074D01*
Y0148073D01*
X0376168Y0149073D01*
X0373169D01*
X0379167Y0146074D02*
X0381166D01*
X0380167D01*
Y0152072D01*
X0379167Y0151073D01*
X0388164Y0152072D02*
X0386165Y0151073D01*
X0384165Y0149073D01*
Y0147074D01*
X0385165Y0146074D01*
X0387164D01*
X0388164Y0147074D01*
Y0148073D01*
X0387164Y0149073D01*
X0384165D01*
X0390163Y0151073D02*
X0391163Y0152072D01*
X0393162D01*
X0394162Y0151073D01*
Y0150073D01*
X0393162Y0149073D01*
X0394162Y0148073D01*
Y0147074D01*
X0393162Y0146074D01*
X0391163D01*
X0390163Y0147074D01*
Y0148073D01*
X0391163Y0149073D01*
X0390163Y0150073D01*
Y0151073D01*
X0391163Y0149073D02*
X0393162D01*
X0396162Y0146074D02*
Y0147074D01*
X0397161D01*
Y0146074D01*
X0396162D01*
X0405159D02*
X0401160D01*
X0405159Y0150073D01*
Y0151073D01*
X0404159Y0152072D01*
X0402160D01*
X0401160Y0151073D01*
X0407158Y0146074D02*
X0409157D01*
X0408158D01*
Y0152072D01*
X0407158Y0151073D01*
X0412156Y0146074D02*
Y0150073D01*
X0413156D01*
X0414156Y0149073D01*
Y0146074D01*
Y0149073D01*
X0415155Y0150073D01*
X0416155Y0149073D01*
Y0146074D01*
X0418154D02*
X0420154D01*
X0419154D01*
Y0150073D01*
X0418154D01*
X0423153Y0146074D02*
X0425152D01*
X0424152D01*
Y0152072D01*
X0423153D01*
X0068794Y0413861D02*
Y0409862D01*
X0071793D01*
X0070794Y0411862D01*
Y0412861D01*
X0071793Y0413861D01*
X0073793D01*
X0074792Y0412861D01*
Y0410862D01*
X0073793Y0409862D01*
X0074792Y0419859D02*
Y0415860D01*
X0070794Y0419859D01*
X0069794D01*
X0068794Y0418859D01*
Y0416860D01*
X0069794Y0415860D01*
Y0421858D02*
X0068794Y0422858D01*
Y0424857D01*
X0069794Y0425857D01*
X0070794D01*
X0071793Y0424857D01*
Y0423858D01*
Y0424857D01*
X0072793Y0425857D01*
X0073793D01*
X0074792Y0424857D01*
Y0422858D01*
X0073793Y0421858D01*
Y0427856D02*
X0074792Y0428856D01*
Y0430855D01*
X0073793Y0431855D01*
X0069794D01*
X0068794Y0430855D01*
Y0428856D01*
X0069794Y0427856D01*
X0070794D01*
X0071793Y0428856D01*
Y0431855D01*
X0074792Y0433854D02*
X0073793D01*
Y0434854D01*
X0074792D01*
Y0433854D01*
X0069794Y0438853D02*
X0068794Y0439853D01*
Y0441852D01*
X0069794Y0442852D01*
X0073793D01*
X0074792Y0441852D01*
Y0439853D01*
X0073793Y0438853D01*
X0069794D01*
X0068794Y0444851D02*
Y0448850D01*
X0069794D01*
X0073793Y0444851D01*
X0074792D01*
Y0450849D02*
X0070794D01*
Y0451849D01*
X0071793Y0452848D01*
X0074792D01*
X0071793D01*
X0070794Y0453848D01*
X0071793Y0454848D01*
X0074792D01*
Y0456847D02*
Y0458846D01*
Y0457847D01*
X0070794D01*
Y0456847D01*
X0074792Y0461845D02*
Y0463845D01*
Y0462845D01*
X0068794D01*
Y0461845D01*
X0096825Y0153197D02*
X0094825Y0155196D01*
Y0157196D01*
X0096825Y0159195D01*
X0099823Y0158195D02*
X0100823Y0159195D01*
X0102822D01*
X0103822Y0158195D01*
Y0154197D01*
X0102822Y0153197D01*
X0100823D01*
X0099823Y0154197D01*
Y0158195D01*
X0106821Y0152197D02*
X0107821Y0153197D01*
Y0154197D01*
X0106821D01*
Y0153197D01*
X0107821D01*
X0106821Y0152197D01*
X0105822Y0151198D01*
X0111820Y0158195D02*
X0112819Y0159195D01*
X0114819D01*
X0115818Y0158195D01*
Y0154197D01*
X0114819Y0153197D01*
X0112819D01*
X0111820Y0154197D01*
Y0158195D01*
X0117818Y0153197D02*
X0119817Y0155196D01*
Y0157196D01*
X0117818Y0159195D01*
M02*
