M48
;Layer_Color=9474304
;FILE_FORMAT=2:5
INCH
;TYPE=PLATED
T2F00S00C0.00787
T3F00S00C0.00800
T4F00S00C0.01200
T5F00S00C0.01220
T6F00S00C0.03937
T7F00S00C0.04000
T8F00S00C0.04724
T9F00S00C0.07087
T10F00S00C0.11811
T11F00S00C0.16000
;TYPE=NON_PLATED
T12F00S00C0.11811
%
T02
X0634351Y0274011
X0637776
X0641201
X0554883Y0287673
X0548945
X0543008
X0537070
Y0305485
X0543008
X0548945
X0554883
Y0299548
Y0293611
X0134031Y0252046
X0130094
Y0248109
X0134031
X0147279Y0352796
X0150704
X0154129
X0288057Y0392057
X0291057
Y0395057
X0294057
Y0398057
Y0401057
X0291057
Y0398057
X0288057
Y0395057
Y0401057
Y0404057
X0294057Y0392057
X0510110Y0392503
X0510149Y0389175
X0513658
X0513620Y0392503
X0517129
X0520638
X0520611Y0400888
X0517101
X0420846Y0504095
Y0508195
X0414946
Y0503595
Y0499595
X0409446
Y0503595
Y0508195
X0186661Y0553810
Y0556510
X0182161
Y0553810
X0177661
Y0556510
X0173161
Y0553810
Y0564910
X0177661
X0182161
T03
X0641996Y0184113
X0667038Y0184069
X0673317Y0215213
Y0217182
Y0219150
X0675285
Y0217182
Y0215213
X0677254
Y0217182
Y0219150
X0674180Y0229515
Y0231483
Y0233452
X0672212
Y0231483
Y0229515
X0670243
Y0231483
Y0233452
X0672608Y0251901
Y0253870
X0674577
X0676545
Y0251901
X0674577
X0662347Y0249156
X0660339
Y0247148
X0662347
X0653217Y0248282
X0651158
X0649100
X0647041Y0248242
X0644982
X0642923
X0640864Y0248203
X0638806
X0636747
X0634688
X0632629Y0248242
X0630570
X0628512
X0626453Y0248282
X0635218Y0252736
Y0254654
Y0256572
X0636477Y0258249
X0639075
X0640374Y0256572
Y0254654
Y0252736
X0637722Y0252451
X0637733Y0250278
X0637776Y0259935
X0637776Y0261838
Y0263771
X0650305Y0264119
X0652167
X0654030
X0652167Y0262218
X0650305
Y0260318
X0657990Y0262651
X0660031Y0262635
Y0260733
Y0258830
X0660531Y0256928
X0658371Y0285109
X0660960Y0287142
X0660962Y0289109
X0662863Y0289121
X0662862Y0291076
X0660964
X0660339Y0298865
Y0300873
X0662347
Y0298865
X0669174Y0299398
Y0297429
X0671143
Y0299398
Y0301366
X0669174
X0653217Y0299740
X0651158
X0649100
X0647041Y0299779
X0644982
X0642923
X0640864Y0299818
X0638806
X0636747
X0634688
X0632629Y0299779
X0630570
X0628512
X0626453Y0299740
X0635218Y0295285
Y0293367
Y0291449
X0636477Y0289773
X0639075
X0640374Y0291449
Y0293367
Y0295285
X0637722Y0295570
X0637733Y0297743
X0637776Y0288086
X0637776Y0286184
Y0284250
X0625248Y0283902
Y0285803
Y0287704
Y0264119
Y0262218
Y0260318
X0650305Y0283902
X0652167
X0654030
X0652167Y0285803
X0650305
Y0287704
X0700586Y0240909
X0700671Y0203629
X0581393Y0204485
Y0202517
X0579424
Y0204485
X0577456
Y0202517
X0568972Y0184317
X0592761Y0184233
X0545721Y0190581
X0503824Y0220827
Y0222796
Y0224764
Y0226732
X0501856
Y0224764
Y0222796
Y0220827
X0499887
Y0222796
Y0224764
Y0226732
X0497919
Y0224764
Y0222796
Y0220827
X0490688Y0224597
Y0226565
X0488719
Y0224597
X0486751
Y0226565
X0486796Y0238651
Y0240620
X0488764
Y0238651
X0490733
Y0240620
X0490112Y0283233
Y0285202
Y0287170
X0488144
Y0285202
Y0283233
X0486175
Y0285202
Y0287170
X0490394Y0294769
X0490424Y0305550
X0485492Y0311307
X0478739Y0294515
X0473169Y0299367
X0518164Y0306539
X0551056Y0312402
X0568380Y0307084
Y0305116
Y0303147
X0570349
Y0305116
Y0307084
X0572317
Y0305116
Y0303147
X0585769Y0311980
X0587737
X0589706
X0613206Y0300873
Y0298865
X0615214
Y0300873
X0622335Y0299740
X0624394
X0623385Y0285803
Y0283902
X0621522
X0617182Y0285109
X0614593Y0287142
X0614591Y0289109
X0612689Y0289121
X0612691Y0291076
X0614589
X0614593Y0260879
X0614591Y0258912
X0612689Y0258900
X0612691Y0256946
X0614589
X0615214Y0249156
X0613206
Y0247148
X0615214
X0622335Y0248282
X0624394
X0623385Y0262218
Y0264119
X0621522
X0617182Y0262913
X0411524Y0266678
X0409111Y0264786
X0406421Y0264000
X0403038Y0296828
X0389507Y0287347
X0421770Y0290909
X0421758Y0306171
X0431409Y0305849
X0371404Y0305301
Y0307269
X0369435
Y0309238
Y0311206
X0371404
Y0309238
X0369435Y0305301
X0346896Y0310865
X0328952Y0274127
X0328526Y0235670
X0326557
X0324589
Y0233701
X0326557
X0328526
X0330494
Y0231733
X0328526
X0326557
X0324589
Y0229765
X0326557
X0328526
X0330494
Y0235670
X0344023Y0227010
Y0225042
Y0223073
X0345991
Y0225042
Y0227010
X0347960
Y0225042
Y0223073
X0349928
Y0225042
Y0227010
X0329499Y0195912
X0265940Y0195846
X0236748Y0195871
X0209954Y0195920
X0236843Y0228987
X0243239Y0244380
Y0246348
Y0248317
X0245208
Y0246348
Y0244380
X0247176
Y0246348
Y0248317
X0236964Y0257662
X0276241Y0257825
X0276122Y0228987
X0289641Y0224805
X0307043Y0257825
X0309909Y0292919
X0294436Y0308543
X0276261Y0289123
X0237113Y0303999
X0209924Y0307630
Y0309598
Y0311567
X0207955
Y0309598
Y0307630
X0121694Y0292832
Y0290864
Y0288896
X0119725
Y0290864
Y0292832
X0117757
Y0290864
Y0288896
X0116862Y0243623
Y0241654
Y0239686
X0118831
Y0241654
Y0243623
X0114893
Y0241654
Y0239686
X0105711Y0195777
X0129315Y0195766
X0128141Y0325934
X0126134
Y0327942
X0128141
X0135263Y0327067
X0137321
X0139380
X0141439Y0327028
X0143498
X0145557
X0147616Y0326988
X0149674
X0151733
X0153792
X0155851Y0327028
X0153301Y0331522
Y0333440
Y0335357
X0152003Y0337034
X0149405
X0148146Y0335357
Y0333440
Y0331522
X0150649Y0331237
X0150661Y0329063
X0150704Y0338721
X0150704Y0340623
Y0342557
X0138175Y0342905
X0136313
X0134450
X0136313Y0341004
X0138175
Y0339103
X0130109Y0341698
X0127520Y0339665
X0127518Y0337698
X0125617Y0337686
X0125618Y0335731
X0127516
X0115224Y0328015
X0112533
X0107794Y0328058
X0104785
X0101520Y0327076
X0098872
X0099944Y0314571
X0101913
X0103881
X0105850
X0107818
Y0312602
X0105850
X0103881
X0101913
X0099944
X0127520Y0365928
X0127518Y0367895
X0125617Y0367907
X0125618Y0369861
X0127516
X0128141Y0377651
Y0379659
X0126134
Y0377651
X0135263Y0378525
X0137321
X0139380
X0141439Y0378565
X0143498
X0145557
X0147616Y0378604
X0149674
X0151733
X0153792
X0155851Y0378565
X0153301Y0374071
Y0372153
Y0370235
X0152003Y0368558
X0149405
X0148146Y0370235
Y0372153
Y0374071
X0150649Y0374355
X0150661Y0376529
X0150704Y0366871
X0150704Y0364969
Y0363036
X0138175Y0362687
X0136313
X0134450
X0136313Y0364588
X0138175
Y0366489
X0130109Y0363894
X0118712Y0381024
Y0382992
Y0384961
Y0386929
Y0388898
X0116743
Y0386929
Y0384961
Y0382992
Y0381024
X0117757Y0412760
Y0414728
Y0416697
X0119725
Y0414728
Y0412760
X0121694
Y0414728
Y0416697
X0124107Y0441128
X0126076
Y0443096
X0124107
Y0445065
X0126076
X0197127Y0419010
X0199135
X0199932Y0413196
X0197924
X0218110Y0398599
X0211416Y0375023
X0202897Y0379393
X0200889
X0196494Y0378788
X0194486
X0187923Y0376367
X0185915
X0175274Y0377651
Y0379659
X0173266
Y0377651
X0166145Y0378525
X0164086
X0162027
X0159968Y0378565
X0157910
X0163232Y0366489
Y0364588
X0165095
Y0362687
X0166958
X0163232
X0171298Y0363894
X0173887Y0365928
X0173889Y0367895
X0175791Y0367907
X0175789Y0369861
X0173891
X0172958Y0341421
Y0339518
Y0337616
X0173458Y0335714
X0173266Y0327942
X0175274
Y0325934
X0173266
X0166145Y0327067
X0164086
X0162027
X0159968Y0327028
X0157910
X0163232Y0339103
Y0341004
X0165095
Y0342905
X0163232
X0166958
X0170918Y0341437
X0207955Y0313535
X0209924
X0237099Y0356186
X0226470Y0375023
X0253257Y0390005
X0243684Y0404869
X0258184Y0441513
X0242034Y0455669
Y0463339
X0284550Y0366410
Y0342190
X0279267Y0324016
X0346846Y0326298
X0346888Y0343767
X0345474Y0373209
X0336777Y0387649
X0318794Y0411662
X0360398Y0413652
X0380215Y0416699
X0374519Y0399651
X0373944Y0440369
X0389691Y0434067
X0363034Y0465069
X0359034
X0341354Y0458810
X0381283Y0313157
X0389265
X0402993
X0473354Y0347710
X0502703Y0349450
X0502280Y0357449
X0536579Y0344792
X0531733Y0332775
X0535598Y0323784
X0527655Y0315750
X0508108Y0315765
X0565185Y0327103
X0562816Y0337558
X0578560Y0340627
X0574033Y0348508
X0567151Y0353634
X0579117Y0363596
X0579060Y0384210
X0579047Y0403539
X0579007Y0418519
X0575886Y0448732
X0592334Y0455669
X0596334Y0459743
X0594834Y0463339
X0590834
X0617229Y0465928
Y0467897
X0619198
Y0465928
X0500412Y0459824
X0499978Y0456663
X0500022Y0451458
X0492034Y0465069
X0585769Y0315917
Y0313948
X0587737
Y0315917
X0589706
Y0313948
X0686552Y0330047
X0686320Y0364397
X0666128Y0389464
X0649826Y0382304
Y0380336
Y0378367
X0647857
Y0380336
Y0382304
X0645889
Y0380336
Y0378367
X0638972Y0431010
X0653826Y0453756
X0674019Y0453988
X0674251Y0503657
X0653826Y0503890
X0653964Y0528473
X0625994Y0501552
X0638972Y0482536
X0632464Y0569027
Y0592365
X0635944Y0603285
X0668648Y0607017
X0689192
X0614580Y0567193
X0584540Y0546862
X0584562Y0531617
X0569988Y0528291
Y0526322
X0568019
Y0528291
X0566051
Y0526322
X0537024Y0516924
X0545575Y0500426
X0549493Y0500547
X0547437Y0498109
X0494534Y0472739
X0490534
X0496034Y0469143
X0617229Y0469865
Y0471833
X0619198
Y0469865
X0519002Y0604469
X0509561Y0613676
X0507593
X0505624
Y0615645
X0507593
X0509561
Y0617613
X0507593
X0505624
X0414862Y0578915
X0348317Y0583148
X0316323Y0572033
X0318401Y0600903
X0317501Y0520810
X0318603Y0519186
Y0517218
X0320571
Y0519186
X0316244Y0502592
Y0500584
X0354582Y0501530
X0356550
Y0499561
X0358519
Y0501530
X0373105Y0496890
X0375021Y0495675
X0367628Y0471292
X0363034Y0472739
X0359034
X0412899Y0473400
X0424283Y0516573
X0344785Y0516518
X0344108Y0514647
X0343971Y0512733
X0345976Y0518110
X0342165Y0541268
X0250493Y0494245
Y0491969
X0242113Y0585375
X0239687Y0600989
Y0616130
X0164805Y0577820
X0147924Y0562348
X0144671Y0594295
X0148788Y0616212
X0111751Y0608978
X0120974Y0522959
Y0480508
X0093181Y0478915
Y0476947
Y0474978
Y0473010
Y0471041
X0091212
Y0473010
Y0474978
Y0476947
Y0478915
X0135520Y0636880
X0148825Y0646739
X0148762Y0681542
X0159570Y0655008
X0161538
Y0653040
X0159570
Y0651071
X0161538
X0242566Y0671581
X0242415Y0693671
X0267551
X0267742Y0671560
X0291543
X0291311Y0693843
X0314532Y0675740
X0323790Y0656351
X0338332Y0661158
X0335736Y0644451
X0333768
X0331799
Y0642482
X0333768
X0335736
Y0640514
X0333768
X0331799
X0343121Y0640563
Y0642532
Y0644500
X0345089
Y0642532
Y0640563
X0347058
Y0642532
Y0644500
X0353074Y0648916
X0371140Y0630246
X0380597Y0636200
X0430363Y0633457
X0410305Y0671014
X0495991Y0663963
X0513496Y0664014
X0515911Y0638362
Y0636394
Y0634425
X0517879
Y0636394
Y0638362
X0519848
Y0636394
Y0634425
X0521816
Y0636394
Y0638362
X0552523Y0646699
X0592986Y0648728
X0622065Y0625470
X0642306Y0626697
X0644493Y0649767
X0625691Y0649802
X0629937Y0675298
X0630304Y0687556
Y0689525
X0632273
Y0687556
X0634241
Y0689525
X0652682Y0675370
T04
X0357480Y0454020
X0486740Y0458590
X0481993Y0513900
X0585650Y0498300
X0430596Y0519129
X0441212Y0545754
X0419980Y0545756
X0391360Y0543330
X0401976Y0569955
X0380744Y0569957
X0350650Y0513901
X0356750Y0507600
X0233493Y0500100
T05
X0629783Y0167669
X0636783
X0643783
X0650782
X0657782
X0664782
X0671782
X0678782
X0679913Y0200742
X0682644Y0200723
X0676193Y0199347
X0673198
X0668266Y0196953
X0665271
X0654779Y0202103
X0651013
X0647246
X0643479
X0639713
X0635946
X0632179
X0628413
Y0206253
X0632179
X0635946
X0639713
X0643479
X0647246
X0651013
X0654779
Y0210403
X0651013
X0647246
X0643479
X0639713
X0635946
X0632179
X0628413
X0652567Y0274995
X0682237Y0272538
X0682237Y0279040
Y0266036
X0698307Y0269177
X0703474Y0275566
X0700836Y0285542
X0695655Y0281692
X0678250Y0288398
X0621959Y0273026
X0595092Y0272189
X0594181Y0268457
X0590228Y0270632
X0583640Y0270632
Y0284906
X0590228Y0284906
X0594592Y0280893
X0595677Y0276535
X0592606Y0263437
X0596230Y0257698
X0594287Y0251589
X0591292
X0587688Y0250629
X0584693
X0577496Y0255212
X0562174
X0565291Y0261520
X0571325Y0273680
X0556002
X0540680
X0525357
X0524944Y0294224
X0527261Y0296617
X0525028Y0298884
X0529688Y0298800
Y0294224
X0534646Y0261520
X0531529Y0255212
X0546851
X0552954Y0235156
X0555908
X0552730Y0226648
X0539014Y0233479
X0525263Y0235156
X0522310
X0522085Y0226648
X0537113Y0213458
X0539205Y0202059
X0548798Y0202059
X0556954Y0193643
X0569850Y0202059
X0567758Y0213458
X0573074Y0230063
X0599666Y0251652
X0602662
X0605476Y0286937
X0604134Y0295500
X0601232
X0598500Y0295519
X0594925Y0296921
X0591930
X0587750Y0298788
X0584755
X0620880Y0210403
X0624646
Y0206253
X0620880
Y0202103
X0624646
X0623873Y0192968
Y0189973
X0624595Y0184061
X0621600
X0621034Y0180380
Y0177384
X0622783Y0167669
X0615783
X0608783
X0601783
X0594783
X0587784
X0580784
X0573784
X0566784
X0559784
X0552784
X0545785
X0538785
X0531785
X0524785
X0517785
X0510785
X0503785
X0496785
X0489786
X0482786
X0475786
X0468786
X0476732Y0187768
Y0197712
Y0207656
X0486676
Y0197712
Y0187768
X0526309Y0193643
X0518153Y0202059
X0470147Y0228549
X0469660Y0244500
X0473007Y0257200
X0477750Y0257300
X0473150Y0263500
X0473007Y0280102
X0478913
X0465520Y0280310
X0460950Y0280300
X0455291Y0280102
X0447417
X0437574
X0431669
X0424150Y0281700
X0419450Y0280300
X0420150Y0284200
X0413952Y0280102
X0408047
X0402141
X0396236
X0388362
X0382456
X0372614
X0366708
X0362702Y0282795
X0364550Y0263700
X0368250Y0264000
X0359950Y0264100
X0356750Y0266800
X0374582Y0268746
X0380487
X0390330
X0394650Y0262100
X0395350Y0257477
X0397835Y0259565
X0404260Y0256790
X0409750Y0257500
X0407291Y0260104
X0406078Y0268746
X0429700
X0431050Y0263840
X0435850Y0262700
X0439750Y0261800
X0438350Y0257700
X0443450Y0257200
X0445650Y0259600
X0449018Y0256967
X0451343Y0261567
X0459250Y0260500
X0459228Y0256600
X0462253Y0257532
X0464950Y0258800
X0467350Y0256400
X0465569Y0263247
X0467102Y0268746
X0453322
X0445448
X0439543
X0433550Y0258700
X0428550Y0259700
X0424043Y0260119
X0424050Y0256600
X0429850Y0243800
X0437750Y0244000
X0445650Y0245300
X0454965Y0244884
X0457259Y0242184
X0458550Y0229756
X0454450Y0229756
X0450350
X0446250
X0442150Y0229756
X0438050
X0433950Y0229756
X0429850
X0425750
X0421650Y0229756
X0412350
X0399050
X0390950
X0383271Y0230528
X0379171
X0375071Y0230528
X0370971Y0230528
X0366871
X0362771
X0369908Y0244000
X0374350Y0244100
X0383550Y0243669
X0386250Y0241500
X0388650Y0243700
X0393450Y0243600
X0390950Y0240700
X0402050Y0241100
X0399600Y0244150
X0408950Y0244600
X0413350Y0245000
X0416150Y0243300
X0407844Y0220918
X0404150Y0220212
X0407123Y0207656
X0397179
X0387235
X0377291
X0367347
X0357403
X0347459
Y0197712
Y0187768
X0357403
Y0197712
X0367347
X0377291
X0387235
X0397179
X0407123
X0417067
Y0207656
X0427011
X0436955
X0446900
X0456844
X0466788
Y0197712
X0456844
X0446900
X0436955
X0427011
Y0187768
X0417067
X0407123
X0397179
X0387235
X0377291
X0367347
X0370788Y0167669
X0363788
X0356788
X0349788
X0342789
X0335789
X0328789
X0321789
X0314789
X0314303Y0213441
X0372293Y0256689
X0375950Y0257540
X0378519Y0260600
X0383850Y0262100
X0382550Y0256400
X0384788Y0167669
X0391788
X0398787
X0405787
X0412787
X0419787
X0426787
X0433787
X0440787
X0447787
X0454786
X0461786
X0456844Y0187768
X0466788
X0446900
X0436955
X0462650Y0229756
X0466750
X0377788Y0167669
X0307789
X0300789
X0293790
X0286790
X0279790
X0280195Y0174238
X0290195
X0300195
X0310195
Y0213478
X0294303Y0213441
X0290195Y0213478
X0280195
X0276086Y0213515
X0300195Y0226533
X0301030Y0229649
X0272790Y0167669
X0265790
X0258790
X0251790
X0244791
X0237791
X0230791
X0223791
X0216791
X0209791
X0202791
X0195791
X0188792
X0181792
X0174792
X0167792
X0160792
X0161271Y0249971
Y0253304
Y0256637
X0166971
Y0253304
Y0249971
X0172241
Y0253304
Y0256637
X0177941
Y0253304
Y0249971
X0183211
Y0253304
Y0256637
X0208487Y0259427
X0214640Y0253273
X0208487Y0247120
X0220025Y0216466
X0200511Y0286545
X0197516
X0198029Y0292682
X0201024
X0201068Y0299236
X0201087Y0301968
X0167707Y0289188
X0163940
X0160174
X0156407
Y0285038
X0160174
X0163940
X0167707
Y0280888
X0163940
X0160174
X0156407
X0152640
X0148874
X0145107
X0141340
X0137574
X0133807
Y0285038
X0137574
X0141340
X0145107
X0148874
X0152640
Y0289188
X0148874
X0145107
X0141340
X0137574
X0133807
X0103814Y0287974
Y0284979
X0102488Y0291198
Y0294193
X0100340Y0297519
X0100321Y0300250
X0086324Y0302079
X0083519Y0300941
Y0293941
Y0286941
Y0279942
Y0272942
Y0265942
Y0258942
Y0251942
Y0244942
Y0237942
Y0230943
Y0223943
Y0216943
Y0209943
Y0202943
Y0195943
X0107205Y0211883
X0127206
X0124394Y0222854
X0113963Y0225493
X0100654Y0237928
X0128725Y0236523
X0132058
X0135391
X0150301Y0249971
Y0253304
Y0256637
X0156001
Y0253304
Y0249971
X0119054Y0255011
X0118793Y0167669
X0111793
X0125793
X0132793
X0139793
X0146792
X0153792
X0115820Y0332038
X0107108Y0335892
Y0340222
X0105534Y0345242
X0101578Y0346818
X0108019Y0350474
X0108605Y0354821
X0107519Y0359179
Y0363509
X0107519Y0367840
X0101578Y0374296
X0103867Y0380209
Y0383204
X0102470Y0385929
Y0388924
X0100321Y0392914
Y0395816
X0100340Y0398547
X0100321Y0402440
Y0405342
X0100340Y0408073
X0102488Y0411399
Y0414395
X0103814Y0417619
Y0420614
X0133807Y0420554
X0137574
X0141340
X0145107
X0148874
X0152640
Y0416404
X0148874
X0145107
X0141340
X0137574
X0133807
Y0424704
X0137574
X0141340
X0145107
X0148874
X0152640
X0125911Y0460213
X0125892Y0462944
X0123160Y0462925
X0120429Y0462906
X0120448Y0460175
X0123179Y0460194
X0116231Y0373422
X0134886Y0351812
X0165495Y0353780
X0186453Y0348315
X0186453Y0341813
X0195165Y0344822
X0195165Y0351323
X0195165Y0357825
X0195165Y0363327
X0210745
X0216822Y0358821
X0219971Y0357562
X0209170Y0338320
X0195165
X0195720Y0323473
X0198451Y0323454
X0202318Y0322059
X0205050Y0322040
X0189806Y0325836
X0187074Y0325855
X0193447Y0405195
X0200802Y0405244
X0205310Y0427400
X0205250Y0430700
X0208890
X0208950Y0427400
X0213010Y0426100
X0213050Y0429300
X0216690
X0216650Y0426100
X0226550Y0428200
X0230512
X0232488Y0424700
X0236450
X0234450Y0422159
X0227750Y0419600
X0228750Y0416300
X0222750Y0416100
X0223550Y0419700
X0228550Y0437610
Y0441572
X0228502Y0445108
X0224750Y0444038
Y0447678
X0237803Y0447149
X0244964Y0440305
X0242010Y0436986
X0253064Y0445608
X0256970Y0449428
Y0452271
X0251126Y0456408
X0248587Y0457706
Y0461302
X0251115Y0466732
X0260981Y0467408
X0231450Y0465400
X0231309Y0460990
X0228250Y0463060
X0228229Y0467230
X0223659Y0467030
X0218058Y0467092
X0215384Y0464454
X0213553Y0461214
X0218510Y0461469
X0223201Y0461572
X0229350Y0457000
X0210744Y0463994
X0207069Y0465390
X0207954Y0461250
X0193550Y0461000
X0185130Y0462700
X0185630Y0456500
X0186230Y0452400
X0187345Y0448001
X0191750Y0447000
X0190389Y0444533
X0192650Y0441100
X0199750Y0438658
X0202980Y0444573
X0202950Y0447950
X0197850Y0452000
X0194550Y0449500
X0190350Y0450500
X0172750Y0449000
X0171150Y0453300
X0170100Y0458349
X0170098Y0461634
X0168601Y0466682
X0172463Y0466687
X0177650Y0466000
X0167707Y0424704
X0163940
X0160174
X0156407
Y0420554
X0160174
X0163940
X0167707
Y0416404
X0163940
X0160174
X0156407
X0284359Y0412418
X0278045Y0390845
X0283359Y0380018
X0290938Y0368290
X0294563
X0308185Y0370185
X0312029Y0373354
X0309480Y0444158
X0307950Y0447188
X0309650Y0450500
X0306750Y0453188
X0308750Y0456399
X0307450Y0459300
X0311550Y0458900
X0303050Y0463500
X0302450Y0466700
X0298250Y0456888
X0297510Y0452930
X0299290Y0449278
X0300200Y0445898
X0296550Y0442688
X0300050Y0438200
X0293550Y0434800
X0293537Y0431441
X0259226Y0348315
X0256592Y0344132
X0314941Y0382013
X0312941Y0388864
X0348237Y0386918
X0351502
X0346325Y0428313
X0344028Y0430410
X0341760Y0431923
X0335950Y0436788
X0334850Y0440088
X0331350Y0439988
X0330550Y0436888
X0329746Y0432288
X0326106
X0325090Y0437088
X0321450
X0319050Y0434588
X0318512Y0439088
X0314550
X0313120Y0444158
X0316250Y0445588
X0320750Y0442388
X0319850Y0451200
X0319750Y0454500
X0320000Y0457250
X0314850Y0461400
X0341950Y0454068
Y0450288
X0340322Y0445894
X0336682
X0355192Y0451648
X0359768
X0359852Y0456308
X0355192Y0456392
X0354349Y0459001
X0346350Y0466400
X0359044Y0443319
X0362014
X0371089Y0448120
X0375164Y0448133
X0373342Y0452725
X0396074Y0430449
X0429041Y0449974
X0431326Y0452492
X0438795Y0453162
X0440250Y0456399
X0438850Y0459900
X0443050Y0458900
X0446350Y0461400
X0451650Y0457400
X0451350Y0454499
X0451250Y0451199
X0447750Y0445599
X0444620Y0444169
X0440980
X0441150Y0450499
X0446050Y0439099
X0450012
X0452570Y0437099
X0456590
X0457606Y0432299
X0461246
X0462050Y0435799
X0462850Y0439999
X0466350Y0440099
X0467750Y0448228
X0452250Y0442399
X0450150Y0434399
X0454750Y0430499
X0433850Y0461099
X0434350Y0465900
X0429350Y0458800
X0418745Y0461106
X0415879Y0463565
X0417914Y0466006
X0414491Y0466960
X0327650Y0427688
X0474892Y0431509
X0476359Y0434049
X0473424
X0471490Y0448228
X0473450Y0451299
Y0454679
X0473093Y0458325
X0483351Y0458566
X0486586Y0455330
X0489941Y0458566
X0486705Y0461920
X0477850Y0466400
X0526450Y0466000
X0526329Y0462053
X0534150Y0462699
X0534650Y0456500
X0535450Y0453299
X0536350Y0448800
X0539150Y0450500
X0540550Y0447000
X0543350Y0449500
X0546650Y0452000
X0552050Y0447700
X0551950Y0444930
X0551810Y0441800
X0548050Y0436200
X0544920Y0434770
X0541280
X0541450Y0441100
X0531642Y0437159
X0537150Y0430839
X0534350Y0425276
X0530984Y0421274
X0529360Y0416000
X0546350Y0429700
X0550312
X0553250Y0427700
X0556890
X0562350Y0427500
X0563150Y0430600
X0566650Y0430700
X0567750Y0427400
X0570250Y0429500
X0573890
X0573750Y0433900
Y0437980
X0576750Y0439200
Y0432600
X0576150Y0427000
X0561546Y0422900
X0557906
X0559790Y0418350
X0550950Y0425400
X0552550Y0433000
X0556754Y0461250
X0555869Y0465390
X0559544Y0463994
X0564184Y0464454
X0562353Y0461214
X0567310Y0460969
X0572001Y0461572
X0572459Y0467030
X0566858Y0467092
X0576729Y0463060
X0580150Y0460990
X0580250Y0465700
X0578150Y0457000
X0578432Y0451101
X0584339Y0444308
X0588291Y0447939
X0594627Y0445020
X0599780Y0446045
X0598748Y0466732
X0542750Y0460900
X0526802Y0448187
X0537864Y0384026
X0537464Y0376535
X0529267Y0374316
X0529290Y0371108
X0509031Y0368043
X0505732Y0368654
X0504014Y0372194
X0590886Y0341828
Y0338833
X0589561Y0335609
Y0332614
X0587412Y0329288
X0587393Y0326556
Y0323654
X0620880Y0337618
X0624646
Y0341769
X0620880
Y0345918
X0624646
X0628413
X0632179
X0635946
X0639713
X0643479
X0647246
X0651013
X0654779
Y0341769
X0651013
X0647246
X0643479
X0639713
X0635946
X0632179
X0628413
Y0337618
X0632179
X0635946
X0639713
X0643479
X0647246
X0651013
X0654779
X0648089Y0352968
X0648070Y0355699
Y0358602
X0649727Y0363327
Y0366322
X0651646Y0369766
Y0372761
X0704881Y0391939
Y0398939
Y0405939
Y0412939
Y0419939
Y0426939
Y0454938
Y0461938
Y0468938
Y0475938
Y0482937
Y0489937
Y0510937
Y0517937
Y0524937
Y0531937
Y0538936
Y0545936
X0701471Y0547513
X0704881Y0552936
Y0559936
X0701471Y0557513
Y0567513
X0704881Y0566936
Y0573936
X0701471Y0577513
X0704881Y0580935
Y0587935
X0701471Y0587513
Y0597513
X0704881Y0594935
Y0601935
Y0608935
Y0615935
X0701471Y0616595
X0704881Y0622935
X0654416Y0621871
Y0611870
X0641678Y0592789
X0638195Y0582789
X0628671Y0577006
X0654416Y0572789
X0654748Y0568305
X0654416Y0562789
Y0552789
Y0542789
X0679325Y0532254
X0681756Y0522461
X0598251Y0500700
X0598451Y0497400
X0588910Y0498127
X0585674Y0494892
X0587150Y0490965
X0585674Y0501482
X0582320Y0498246
X0577176Y0499469
X0577175Y0485215
X0576550Y0482600
X0577049Y0478470
Y0475670
X0577029Y0472870
Y0470070
X0574309Y0469290
X0572504Y0471625
X0574459Y0474410
X0572439Y0477270
X0573149Y0481270
X0569284Y0481883
X0564559Y0482057
X0560189Y0482045
X0556659Y0481675
X0556219Y0476240
X0559649Y0474360
X0559150Y0468900
X0555944Y0470514
X0564029Y0468922
X0566689Y0471900
X0566494Y0477181
X0569499Y0469090
X0543550Y0479100
X0541250Y0481600
X0538250Y0490000
X0537742Y0494422
X0537808Y0501770
X0543590Y0497376
X0549026Y0492200
X0552350Y0494236
X0528250Y0490900
X0524750Y0492400
X0525211Y0495933
X0527479Y0498141
X0524950Y0500800
X0518439Y0502425
X0514396
X0509672
X0505907Y0501181
X0506196Y0498014
X0498351Y0495930
X0498448Y0476131
X0499480Y0472026
X0508066Y0476828
X0512405Y0485736
X0521050Y0490412
X0517931Y0495083
X0518345Y0497965
X0525850Y0486800
X0526750Y0480400
X0527150Y0477200
X0526050Y0474200
X0526250Y0469800
X0479857Y0470438
X0479950Y0474900
X0476729Y0476630
Y0479470
Y0482270
X0476749Y0485070
Y0487870
X0476250Y0492000
X0476874Y0494465
X0472849Y0490670
X0468984Y0491283
X0472139Y0486670
X0474159Y0483810
X0472204Y0481025
X0474009Y0478690
X0472159Y0476430
X0471701Y0470972
X0476750Y0472460
X0476876Y0507400
X0479600Y0511473
X0484176
X0487951Y0510800
X0492051Y0514100
X0484260Y0516133
X0479600Y0516217
X0496053Y0521923
X0498784Y0523278
X0490243Y0568305
X0490256Y0571508
X0479050Y0583400
X0474976Y0583900
X0469070Y0583521
X0470211Y0578600
X0473950
X0478913Y0595200
X0472650Y0599700
X0469450Y0601100
X0471039Y0618500
X0477142Y0621729
X0514478Y0604476
X0516250Y0589500
Y0584267
Y0579033
Y0573800
X0617494Y0574615
X0621085Y0577496
X0607367Y0486730
X0604618
X0466194Y0486581
X0466389Y0481300
X0466558Y0476492
X0463729Y0478322
X0459309Y0478513
X0455644Y0479914
X0455569Y0474790
X0456454Y0470650
X0459244Y0473394
X0463884Y0473854
X0462053Y0470614
X0467010Y0470869
X0459349Y0483760
X0455919Y0485640
X0455949Y0490769
X0459889Y0491445
X0464259Y0491457
X0441050Y0491500
X0444458Y0487607
X0440450Y0499700
X0437530Y0497936
X0437174Y0506846
X0444450Y0507000
X0446250Y0510600
X0449007Y0508612
X0451650Y0510600
X0441650Y0511600
X0432884Y0516757
X0428308
X0428208Y0521501
X0427037Y0524529
X0424385Y0520624
X0432968Y0521417
X0434157Y0524529
X0437174Y0521214
X0439823Y0525205
X0443177Y0526551
X0450241Y0521853
X0448350Y0502900
X0427650Y0489000
X0424100Y0489250
X0420950Y0486571
X0417640Y0485460
X0413250
X0416137Y0481264
X0419150Y0480200
X0422450Y0480700
X0424050Y0477900
X0426150Y0475400
X0426950Y0484500
X0433850Y0472100
X0442050Y0470400
X0421350Y0511400
X0415969Y0527853
X0412961
X0406895Y0525924
X0404324
X0392343Y0516245
X0392685Y0508940
X0375234Y0512604
X0374812Y0516126
X0359122Y0509888
X0354462Y0509972
X0353945Y0513842
X0350709Y0510606
Y0517196
X0347355Y0513960
X0354462Y0505228
X0359038
X0369751Y0495930
X0368115Y0476131
X0370871Y0471421
X0348309Y0470390
X0348550Y0475100
X0345229Y0476630
Y0479470
Y0482270
X0345249Y0485070
Y0487870
X0344999Y0492198
X0345376Y0494614
X0341349Y0490670
X0337484Y0491283
X0332759Y0491457
X0328389Y0491445
X0324449Y0490769
X0324419Y0485640
X0327849Y0483760
X0327809Y0478514
X0332229Y0478322
X0332384Y0473854
X0330553Y0470614
X0335510Y0470869
X0340201Y0470972
X0340659Y0476430
X0342509Y0478690
X0340704Y0481025
X0342659Y0483810
X0340639Y0486670
X0334694Y0486581
X0334889Y0481300
X0335058Y0476492
X0327744Y0473394
X0324069Y0474790
X0324954Y0470650
X0324144Y0479914
X0345250Y0472460
X0318699Y0508767
X0315944Y0510684
X0314410Y0539364
X0333953Y0543470
X0336590Y0541961
X0339367Y0545831
X0334675Y0553378
X0324988Y0562327
X0320372Y0571595
X0314448Y0568531
X0365650Y0573157
Y0577000
X0369750Y0575650
Y0579493
X0368676Y0583521
X0362771Y0583521
X0374850Y0583200
X0380487Y0583521
X0386393Y0583521
X0385589Y0577800
X0381650
X0383032Y0572429
X0386644Y0571518
X0389698Y0569623
X0393022
X0396076Y0571516
X0399688Y0572427
X0404348Y0572243
X0404264Y0567583
X0399688Y0567483
X0397829Y0564986
X0397111Y0576400
X0401050
X0405311Y0579300
X0409250
X0410015Y0583521
X0412967Y0581819
X0416906
X0419858Y0583521
X0421826Y0595247
X0417889Y0595247
X0417496Y0600217
X0412794Y0599115
X0411984Y0595247
X0404110
X0400550Y0597800
X0396236Y0595247
X0392950Y0595300
X0388362Y0595247
X0387150Y0600000
X0391150Y0599300
X0394267Y0607512
X0399109Y0603664
X0404854Y0603514
X0408550Y0604000
X0411984Y0607512
X0416650Y0607000
X0423158Y0602364
X0422950Y0599200
X0426889
X0427732Y0595247
X0435606Y0595247
X0435889Y0599400
X0431650Y0599700
X0432550Y0607400
X0428050Y0607600
X0427750Y0618500
X0426250Y0621900
X0422850Y0622000
X0419858Y0618900
X0408684Y0621133
X0405401Y0619261
X0398204Y0619400
X0395009Y0619441
X0386393Y0618500
X0380487
X0372149Y0618700
X0363771Y0619000
X0361678Y0622760
X0362642Y0597500
X0367450Y0597800
X0371950Y0597700
X0376551Y0595247
X0381150Y0604800
X0404110Y0607512
X0402141Y0583521
X0394267Y0583521
X0393489Y0577900
X0389550
X0378372Y0572245
X0378456Y0567585
X0383032Y0567485
X0384891Y0564986
X0387801Y0548730
X0388972Y0545702
X0389072Y0540958
X0393648
X0393732Y0545618
X0394921Y0548730
X0417608Y0548044
X0417692Y0543384
X0422268Y0543284
X0424127Y0540785
X0425880Y0547317
X0422268Y0548228
X0428934Y0545422
X0432258
X0435312Y0547315
X0438924Y0548226
X0443584Y0548042
X0443500Y0543382
X0438924Y0543282
X0437065Y0540785
X0440311Y0579800
X0444250
X0445250Y0583400
X0451650Y0582800
X0454350Y0580300
X0458289
X0462350
X0466289
X0459750Y0583200
X0461196Y0595247
X0467050Y0594800
X0464750Y0601700
X0461250Y0602100
X0458099Y0602145
X0453550Y0607148
X0447350Y0602000
X0441511Y0598700
X0439543Y0594475
X0439543Y0607400
X0438350Y0618600
X0433050
X0445650Y0620000
X0450650Y0623120
X0459250Y0618800
X0453322Y0595247
X0450550Y0576500
X0446611
X0433637Y0583521
X0311929Y0541070
X0300743Y0551800
X0297872Y0552857
X0298035Y0532616
X0294916Y0532687
X0295250Y0509990
X0295200Y0506650
X0295550Y0501400
X0291600Y0502550
X0287453Y0502518
X0287815Y0507027
X0288324Y0495874
X0293150Y0497400
X0292850Y0492000
X0292750Y0488500
X0291388Y0484765
X0294750Y0485100
X0287897Y0483776
Y0472516
X0293425Y0477150
X0301760Y0472100
X0310750Y0470600
X0311050Y0488000
X0309450Y0490800
X0306450Y0499400
X0305631Y0504006
X0307050Y0508700
X0311750Y0507800
X0311759Y0511492
X0296050Y0493800
X0277529Y0500879
X0275257Y0502900
X0264897Y0501641
X0259208Y0502470
X0259195Y0505577
X0250450Y0505289
X0243350Y0505700
X0235865Y0502388
X0231205Y0502472
Y0497728
X0235781
X0237835Y0495550
X0228376Y0504600
X0225415Y0518731
X0228375Y0485215
X0227750Y0482600
X0228249Y0478470
Y0475670
X0228229Y0472870
Y0470070
X0225509Y0469290
X0223704Y0471625
X0225659Y0474410
X0223639Y0477270
X0224349Y0481270
X0220484Y0481883
X0215759Y0482057
X0211389Y0482045
X0207449Y0481369
X0207419Y0476240
X0210849Y0474360
X0210809Y0469114
X0215229Y0468922
X0217889Y0471900
X0217694Y0477181
X0220699Y0469090
X0207144Y0470514
X0194050Y0478600
X0192450Y0481700
X0189350Y0489800
X0188879Y0494596
X0191600Y0499350
X0196050Y0498000
X0198250Y0500400
X0199350Y0503400
X0200850Y0498500
X0199750Y0492500
X0178550Y0496090
X0175949Y0500100
X0171241Y0505310
X0168524Y0503093
X0171790Y0493568
X0174299Y0490830
X0176550Y0486010
X0172445Y0482854
X0173639Y0480127
X0178050Y0477400
X0177530Y0473910
X0170793Y0474578
X0168821Y0483465
X0169238Y0487553
X0166551Y0490400
X0160582Y0470396
X0187705Y0505606
X0187439Y0537406
X0180239
X0172550Y0535680
X0167976Y0533506
X0173869Y0544796
X0183828Y0544170
X0168937Y0574455
X0167435Y0583817
X0162312Y0580666
X0165204Y0611870
X0160171Y0616234
X0236209Y0595731
X0236222Y0592655
X0251526Y0602792
X0250857Y0606148
X0254145Y0574376
X0258464Y0563603
X0265595Y0562127
X0268100Y0564329
X0251371Y0559987
Y0556387
X0247827Y0556199
X0248854Y0550201
Y0541320
X0264992Y0542878
Y0539762
X0274874Y0538947
X0276527Y0542524
X0268371Y0494924
X0263981Y0488321
X0250251Y0487730
X0276022Y0484307
X0152397Y0546265
Y0549901
X0152468Y0554605
Y0558241
X0129984Y0552789
Y0542789
X0121886Y0562789
Y0572789
X0129984Y0582789
Y0592789
X0128617Y0603232
X0136074Y0606119
X0083519Y0608935
X0082929Y0616595
Y0597513
Y0587513
Y0577513
Y0567513
Y0557513
Y0547513
X0083519Y0538936
Y0531937
Y0524937
X0082929Y0626595
Y0636595
Y0646595
Y0656595
Y0666595
X0129984Y0661870
Y0651870
X0121886Y0641870
Y0631871
X0118793Y0696131
X0125793
X0132793
X0139793
X0146792
X0153792
X0111793
X0160792
X0329589Y0691946
X0332771Y0691162
X0335761Y0691652
X0337382Y0689139
X0344991Y0690971
X0352670Y0688020
X0358407Y0686075
X0361823Y0688356
X0365951Y0688334
X0369552Y0678090
Y0672972
Y0667854
X0381571Y0662736
X0378640Y0657950
X0378640Y0652304
X0383159Y0648632
X0393848
X0396180Y0656735
X0402407Y0654082
X0410238Y0651274
X0418259Y0651958
X0421323
X0424388
X0427452
X0438525Y0654246
X0442519Y0654232
X0445472
X0452192Y0651558
X0454750Y0636807
X0458850Y0636803
X0462950Y0636976
X0462926Y0640508
X0467050Y0636976
X0448636Y0637114
X0436123Y0636035
X0438350Y0633300
X0433750Y0633413
X0426950Y0634008
X0410767Y0635261
X0407250Y0634244
X0403150
X0399050Y0634244
X0394950Y0634244
X0390850Y0634244
X0386695Y0631808
X0382650Y0634244
X0378350
X0374250
X0373464Y0642130
X0369824Y0648523
X0358407Y0661825
X0345461Y0662570
Y0667465
Y0672361
X0329589Y0674734
X0316168Y0633797
X0318708Y0630768
X0410373Y0631121
X0410617Y0627941
X0454750Y0625092
X0452192Y0674863
X0445472Y0677536
X0442519
X0438525Y0677551
X0445361Y0668487
X0426275Y0669269
X0406000Y0670413
X0391823Y0672972
X0392247Y0684418
X0396180Y0686179
X0402407Y0688832
X0383045Y0678704
X0378412Y0681541
X0386556Y0659057
X0466501Y0666632
Y0689936
X0445361Y0691792
X0482315Y0688567
Y0674347
Y0665263
X0486207Y0655782
X0482315Y0651042
X0483450Y0636976
X0487550
X0491650Y0636976
X0479350Y0636976
X0475250Y0636976
X0471150Y0636976
X0495183Y0692313
X0498283
X0501383
Y0695413
X0498283
X0495183
X0504483
Y0692313
X0507583
Y0695413
X0510683
Y0692313
X0513783
Y0695413
X0620629Y0696131
X0627629
X0634629
X0641629
X0648628
X0655628
X0662628
X0669628
X0676628
X0704881Y0671934
Y0664934
X0701471Y0666595
Y0656595
X0704881Y0657934
Y0650934
Y0643934
X0701471Y0646595
Y0636595
X0704881Y0636934
Y0629935
X0701471Y0626595
X0654416Y0631871
Y0641870
T06
X0504503Y0257495
Y0267731
X0337180
Y0257495
X0504503Y0596077
Y0606313
X0337180
Y0596077
T07
X0579173Y0211727
X0210201Y0294110
X0211660Y0414016
X0695127Y0407791
X0093561Y0521763
X0132818Y0683630
X0304055Y0686549
X0659804Y0687300
T08
X0488755Y0247948
Y0277278
X0352928
Y0247948
X0488755Y0586530
Y0615860
X0352928
Y0586530
T09
X0156551Y0218124
X0173086
X0189622
Y0239778
X0173086
X0156551
T10
X0093550Y0441700
X0694871
Y0502200
X0093550
T11
X0696050Y0176500
X0092350
Y0687300
X0696050
T12
X0156551Y0189384
X0189622
M30
