G04*
G04 #@! TF.GenerationSoftware,Altium Limited,Altium Designer,19.1.6 (110)*
G04*
G04 Layer_Color=8421504*
%FSAX25Y25*%
%MOIN*%
G70*
G01*
G75*
%ADD16C,0.01000*%
%ADD18C,0.00800*%
G04:AMPARAMS|DCode=25|XSize=23.62mil|YSize=31.5mil|CornerRadius=2.01mil|HoleSize=0mil|Usage=FLASHONLY|Rotation=180.000|XOffset=0mil|YOffset=0mil|HoleType=Round|Shape=RoundedRectangle|*
%AMROUNDEDRECTD25*
21,1,0.02362,0.02748,0,0,180.0*
21,1,0.01961,0.03150,0,0,180.0*
1,1,0.00402,-0.00980,0.01374*
1,1,0.00402,0.00980,0.01374*
1,1,0.00402,0.00980,-0.01374*
1,1,0.00402,-0.00980,-0.01374*
%
%ADD25ROUNDEDRECTD25*%
G04:AMPARAMS|DCode=26|XSize=23.62mil|YSize=39.37mil|CornerRadius=5.91mil|HoleSize=0mil|Usage=FLASHONLY|Rotation=180.000|XOffset=0mil|YOffset=0mil|HoleType=Round|Shape=RoundedRectangle|*
%AMROUNDEDRECTD26*
21,1,0.02362,0.02756,0,0,180.0*
21,1,0.01181,0.03937,0,0,180.0*
1,1,0.01181,-0.00591,0.01378*
1,1,0.01181,0.00591,0.01378*
1,1,0.01181,0.00591,-0.01378*
1,1,0.01181,-0.00591,-0.01378*
%
%ADD26ROUNDEDRECTD26*%
%ADD27O,0.05512X0.01772*%
G04:AMPARAMS|DCode=28|XSize=41.34mil|YSize=57.09mil|CornerRadius=2.07mil|HoleSize=0mil|Usage=FLASHONLY|Rotation=0.000|XOffset=0mil|YOffset=0mil|HoleType=Round|Shape=RoundedRectangle|*
%AMROUNDEDRECTD28*
21,1,0.04134,0.05295,0,0,0.0*
21,1,0.03720,0.05709,0,0,0.0*
1,1,0.00413,0.01860,-0.02648*
1,1,0.00413,-0.01860,-0.02648*
1,1,0.00413,-0.01860,0.02648*
1,1,0.00413,0.01860,0.02648*
%
%ADD28ROUNDEDRECTD28*%
%ADD29C,0.03937*%
G04:AMPARAMS|DCode=30|XSize=23.62mil|YSize=39.37mil|CornerRadius=2.01mil|HoleSize=0mil|Usage=FLASHONLY|Rotation=180.000|XOffset=0mil|YOffset=0mil|HoleType=Round|Shape=RoundedRectangle|*
%AMROUNDEDRECTD30*
21,1,0.02362,0.03535,0,0,180.0*
21,1,0.01961,0.03937,0,0,180.0*
1,1,0.00402,-0.00980,0.01768*
1,1,0.00402,0.00980,0.01768*
1,1,0.00402,0.00980,-0.01768*
1,1,0.00402,-0.00980,-0.01768*
%
%ADD30ROUNDEDRECTD30*%
%ADD31C,0.01260*%
G04:AMPARAMS|DCode=32|XSize=87.8mil|YSize=70.87mil|CornerRadius=2.13mil|HoleSize=0mil|Usage=FLASHONLY|Rotation=90.000|XOffset=0mil|YOffset=0mil|HoleType=Round|Shape=RoundedRectangle|*
%AMROUNDEDRECTD32*
21,1,0.08780,0.06661,0,0,90.0*
21,1,0.08354,0.07087,0,0,90.0*
1,1,0.00425,0.03331,0.04177*
1,1,0.00425,0.03331,-0.04177*
1,1,0.00425,-0.03331,-0.04177*
1,1,0.00425,-0.03331,0.04177*
%
%ADD32ROUNDEDRECTD32*%
%ADD33R,0.06300X0.05000*%
%ADD34R,0.05906X0.05118*%
%ADD35R,0.02362X0.03150*%
G04:AMPARAMS|DCode=36|XSize=7.48mil|YSize=17.32mil|CornerRadius=1.98mil|HoleSize=0mil|Usage=FLASHONLY|Rotation=0.000|XOffset=0mil|YOffset=0mil|HoleType=Round|Shape=RoundedRectangle|*
%AMROUNDEDRECTD36*
21,1,0.00748,0.01336,0,0,0.0*
21,1,0.00352,0.01732,0,0,0.0*
1,1,0.00397,0.00176,-0.00668*
1,1,0.00397,-0.00176,-0.00668*
1,1,0.00397,-0.00176,0.00668*
1,1,0.00397,0.00176,0.00668*
%
%ADD36ROUNDEDRECTD36*%
%ADD37R,0.01654X0.01811*%
%ADD38R,0.01500X0.02400*%
%ADD39R,0.03150X0.02362*%
%ADD40R,0.02400X0.01500*%
G04:AMPARAMS|DCode=41|XSize=23.62mil|YSize=39.37mil|CornerRadius=2.01mil|HoleSize=0mil|Usage=FLASHONLY|Rotation=270.000|XOffset=0mil|YOffset=0mil|HoleType=Round|Shape=RoundedRectangle|*
%AMROUNDEDRECTD41*
21,1,0.02362,0.03535,0,0,270.0*
21,1,0.01961,0.03937,0,0,270.0*
1,1,0.00402,-0.01768,-0.00980*
1,1,0.00402,-0.01768,0.00980*
1,1,0.00402,0.01768,0.00980*
1,1,0.00402,0.01768,-0.00980*
%
%ADD41ROUNDEDRECTD41*%
%ADD42R,0.01811X0.01654*%
%ADD43R,0.03500X0.02000*%
%ADD44R,0.02000X0.03500*%
%ADD45R,0.04331X0.05512*%
%ADD46R,0.05512X0.04331*%
%ADD47R,0.03740X0.03937*%
G54D16*
X0569450Y0049400D02*
Y0069683D01*
X0450550Y0050050D02*
X0710250D01*
Y0111050D01*
X0296550Y0050050D02*
Y0111050D01*
X0050050Y0050050D02*
Y0111050D01*
X0050100Y0050050D02*
X0207650D01*
X0050100D02*
Y0111050D01*
Y0111050D02*
X0710250D01*
X0050050Y0050050D02*
X0450550D01*
X0050050Y0070383D02*
X0710050D01*
X0050050Y0090717D02*
X0710250D01*
X0423250D02*
Y0111050D01*
X0507250Y0090717D02*
Y0111050D01*
G54D18*
X0136950Y0083549D02*
X0140949D01*
X0138949D01*
Y0077551D01*
X0143948D02*
X0145947D01*
X0146947Y0078550D01*
Y0080550D01*
X0145947Y0081549D01*
X0143948D01*
X0142948Y0080550D01*
Y0078550D01*
X0143948Y0077551D01*
X0148946Y0075551D02*
Y0081549D01*
X0151945D01*
X0152945Y0080550D01*
Y0078550D01*
X0151945Y0077551D01*
X0148946D01*
X0160942D02*
Y0083549D01*
X0163941D01*
X0164941Y0082549D01*
Y0080550D01*
X0163941Y0079550D01*
X0160942D01*
X0167940Y0081549D02*
X0169939D01*
X0170939Y0080550D01*
Y0077551D01*
X0167940D01*
X0166940Y0078550D01*
X0167940Y0079550D01*
X0170939D01*
X0172938Y0077551D02*
X0175937D01*
X0176937Y0078550D01*
X0175937Y0079550D01*
X0173938D01*
X0172938Y0080550D01*
X0173938Y0081549D01*
X0176937D01*
X0179936Y0082549D02*
Y0081549D01*
X0178936D01*
X0180936D01*
X0179936D01*
Y0078550D01*
X0180936Y0077551D01*
X0186934D02*
X0184934D01*
X0183935Y0078550D01*
Y0080550D01*
X0184934Y0081549D01*
X0186934D01*
X0187934Y0080550D01*
Y0079550D01*
X0183935D01*
X0590550Y0062964D02*
X0594549D01*
X0592549D01*
Y0056966D01*
X0600547Y0062964D02*
X0596548D01*
Y0056966D01*
X0600547D01*
X0596548Y0059965D02*
X0598547D01*
X0602546Y0062964D02*
X0606545Y0056966D01*
Y0062964D02*
X0602546Y0056966D01*
X0608544D02*
Y0060965D01*
X0610543Y0062964D01*
X0612543Y0060965D01*
Y0056966D01*
Y0059965D01*
X0608544D01*
X0618541Y0061965D02*
X0617541Y0062964D01*
X0615542D01*
X0614542Y0061965D01*
Y0060965D01*
X0615542Y0059965D01*
X0617541D01*
X0618541Y0058966D01*
Y0057966D01*
X0617541Y0056966D01*
X0615542D01*
X0614542Y0057966D01*
X0626538Y0062964D02*
X0628538D01*
X0627538D01*
Y0056966D01*
X0626538D01*
X0628538D01*
X0631537D02*
Y0062964D01*
X0635535Y0056966D01*
Y0062964D01*
X0641534Y0061965D02*
X0640534Y0062964D01*
X0638534D01*
X0637535Y0061965D01*
Y0060965D01*
X0638534Y0059965D01*
X0640534D01*
X0641534Y0058966D01*
Y0057966D01*
X0640534Y0056966D01*
X0638534D01*
X0637535Y0057966D01*
X0643533Y0062964D02*
X0647532D01*
X0645532D01*
Y0056966D01*
X0649531D02*
Y0062964D01*
X0652530D01*
X0653530Y0061965D01*
Y0059965D01*
X0652530Y0058966D01*
X0649531D01*
X0651530D02*
X0653530Y0056966D01*
X0655529Y0062964D02*
Y0057966D01*
X0656529Y0056966D01*
X0658528D01*
X0659528Y0057966D01*
Y0062964D01*
X0661527Y0056966D02*
Y0062964D01*
X0663526Y0060965D01*
X0665526Y0062964D01*
Y0056966D01*
X0671524Y0062964D02*
X0667525D01*
Y0056966D01*
X0671524D01*
X0667525Y0059965D02*
X0669524D01*
X0673523Y0056966D02*
Y0062964D01*
X0677522Y0056966D01*
Y0062964D01*
X0679521D02*
X0683520D01*
X0681521D01*
Y0056966D01*
X0689518Y0061965D02*
X0688518Y0062964D01*
X0686519D01*
X0685519Y0061965D01*
Y0060965D01*
X0686519Y0059965D01*
X0688518D01*
X0689518Y0058966D01*
Y0057966D01*
X0688518Y0056966D01*
X0686519D01*
X0685519Y0057966D01*
X0468099Y0062964D02*
X0466099Y0061965D01*
X0464100Y0059965D01*
Y0057966D01*
X0465100Y0056966D01*
X0467099D01*
X0468099Y0057966D01*
Y0058966D01*
X0467099Y0059965D01*
X0464100D01*
X0470098Y0060965D02*
X0471098D01*
Y0059965D01*
X0470098D01*
Y0060965D01*
Y0057966D02*
X0471098D01*
Y0056966D01*
X0470098D01*
Y0057966D01*
X0475096Y0061965D02*
X0476096Y0062964D01*
X0478095D01*
X0479095Y0061965D01*
Y0057966D01*
X0478095Y0056966D01*
X0476096D01*
X0475096Y0057966D01*
Y0061965D01*
X0485093Y0062964D02*
X0483094Y0061965D01*
X0481095Y0059965D01*
Y0057966D01*
X0482094Y0056966D01*
X0484094D01*
X0485093Y0057966D01*
Y0058966D01*
X0484094Y0059965D01*
X0481095D01*
X0487093Y0060965D02*
X0488092D01*
Y0059965D01*
X0487093D01*
Y0060965D01*
Y0057966D02*
X0488092D01*
Y0056966D01*
X0487093D01*
Y0057966D01*
X0496090Y0056966D02*
X0492091D01*
X0496090Y0060965D01*
Y0061965D01*
X0495090Y0062964D01*
X0493091D01*
X0492091Y0061965D01*
X0498089D02*
X0499089Y0062964D01*
X0501088D01*
X0502088Y0061965D01*
Y0060965D01*
X0501088Y0059965D01*
X0502088Y0058966D01*
Y0057966D01*
X0501088Y0056966D01*
X0499089D01*
X0498089Y0057966D01*
Y0058966D01*
X0499089Y0059965D01*
X0498089Y0060965D01*
Y0061965D01*
X0499089Y0059965D02*
X0501088D01*
X0510085Y0056966D02*
Y0062964D01*
X0513084D01*
X0514084Y0061965D01*
Y0059965D01*
X0513084Y0058966D01*
X0510085D01*
X0516083Y0056966D02*
Y0062964D01*
X0518083Y0060965D01*
X0520082Y0062964D01*
Y0056966D01*
X0056400Y0083549D02*
Y0077551D01*
X0060399D01*
X0062398D02*
Y0081549D01*
X0064397Y0083549D01*
X0066397Y0081549D01*
Y0077551D01*
Y0080550D01*
X0062398D01*
X0068396Y0083549D02*
Y0082549D01*
X0070395Y0080550D01*
X0072395Y0082549D01*
Y0083549D01*
X0070395Y0080550D02*
Y0077551D01*
X0078393Y0083549D02*
X0074394D01*
Y0077551D01*
X0078393D01*
X0074394Y0080550D02*
X0076394D01*
X0080392Y0077551D02*
Y0083549D01*
X0083391D01*
X0084391Y0082549D01*
Y0080550D01*
X0083391Y0079550D01*
X0080392D01*
X0082392D02*
X0084391Y0077551D01*
X0092388D02*
Y0083549D01*
X0096387Y0077551D01*
Y0083549D01*
X0098386Y0077551D02*
Y0081549D01*
X0100386Y0083549D01*
X0102385Y0081549D01*
Y0077551D01*
Y0080550D01*
X0098386D01*
X0104385Y0077551D02*
Y0083549D01*
X0106384Y0081549D01*
X0108383Y0083549D01*
Y0077551D01*
X0114381Y0083549D02*
X0110382D01*
Y0077551D01*
X0114381D01*
X0110382Y0080550D02*
X0112382D01*
X0122379Y0079550D02*
X0126377D01*
X0122379Y0081549D02*
X0126377D01*
X0304050Y0103831D02*
Y0097833D01*
X0307049D01*
X0308049Y0098833D01*
Y0099833D01*
X0307049Y0100832D01*
X0304050D01*
X0307049D01*
X0308049Y0101832D01*
Y0102832D01*
X0307049Y0103831D01*
X0304050D01*
X0313047D02*
X0311048D01*
X0310048Y0102832D01*
Y0098833D01*
X0311048Y0097833D01*
X0313047D01*
X0314047Y0098833D01*
Y0102832D01*
X0313047Y0103831D01*
X0316046Y0097833D02*
Y0101832D01*
X0318045Y0103831D01*
X0320045Y0101832D01*
Y0097833D01*
Y0100832D01*
X0316046D01*
X0322044Y0097833D02*
Y0103831D01*
X0325043D01*
X0326043Y0102832D01*
Y0100832D01*
X0325043Y0099833D01*
X0322044D01*
X0324043D02*
X0326043Y0097833D01*
X0328042Y0103831D02*
Y0097833D01*
X0331041D01*
X0332041Y0098833D01*
Y0102832D01*
X0331041Y0103831D01*
X0328042D01*
X0341038Y0097833D02*
Y0103831D01*
X0343037D02*
Y0097833D01*
X0340038Y0101832D02*
X0343037D01*
X0344037D01*
X0340038Y0099833D02*
X0344037D01*
X0346036Y0101832D02*
X0347036D01*
Y0100832D01*
X0346036D01*
Y0101832D01*
Y0098833D02*
X0347036D01*
Y0097833D01*
X0346036D01*
Y0098833D01*
X0358600Y0097833D02*
Y0103831D01*
X0361599D01*
X0362599Y0102832D01*
Y0100832D01*
X0361599Y0099833D01*
X0358600D01*
X0364598Y0097833D02*
Y0103831D01*
X0367597D01*
X0368597Y0102832D01*
Y0100832D01*
X0367597Y0099833D01*
X0364598D01*
X0366597D02*
X0368597Y0097833D01*
X0373595Y0103831D02*
X0371596D01*
X0370596Y0102832D01*
Y0098833D01*
X0371596Y0097833D01*
X0373595D01*
X0374595Y0098833D01*
Y0102832D01*
X0373595Y0103831D01*
X0380593Y0102832D02*
X0379593Y0103831D01*
X0377594D01*
X0376594Y0102832D01*
Y0098833D01*
X0377594Y0097833D01*
X0379593D01*
X0380593Y0098833D01*
X0382592Y0102832D02*
X0383592Y0103831D01*
X0385591D01*
X0386591Y0102832D01*
Y0098833D01*
X0385591Y0097833D01*
X0383592D01*
X0382592Y0098833D01*
Y0102832D01*
X0392589Y0103831D02*
X0388590D01*
Y0100832D01*
X0390590Y0101832D01*
X0391589D01*
X0392589Y0100832D01*
Y0098833D01*
X0391589Y0097833D01*
X0389590D01*
X0388590Y0098833D01*
X0397587Y0097833D02*
Y0103831D01*
X0394588Y0100832D01*
X0398587D01*
X0472200Y0103831D02*
Y0097833D01*
X0475199D01*
X0476199Y0098833D01*
Y0102832D01*
X0475199Y0103831D01*
X0472200D01*
X0056400Y0097833D02*
Y0101832D01*
X0058399Y0103831D01*
X0060399Y0101832D01*
Y0097833D01*
Y0100832D01*
X0056400D01*
X0062398Y0103831D02*
Y0097833D01*
X0066397D01*
X0068396Y0103831D02*
Y0097833D01*
X0072395D01*
X0080392D02*
Y0101832D01*
X0082392Y0103831D01*
X0084391Y0101832D01*
Y0097833D01*
Y0100832D01*
X0080392D01*
X0086390Y0097833D02*
Y0103831D01*
X0089389D01*
X0090389Y0102832D01*
Y0100832D01*
X0089389Y0099833D01*
X0086390D01*
X0088390D02*
X0090389Y0097833D01*
X0092388Y0103831D02*
X0096387D01*
X0094388D01*
Y0097833D01*
X0098386Y0103831D02*
Y0097833D01*
X0100386Y0099833D01*
X0102385Y0097833D01*
Y0103831D01*
X0107384D02*
X0105384D01*
X0104385Y0102832D01*
Y0098833D01*
X0105384Y0097833D01*
X0107384D01*
X0108383Y0098833D01*
Y0102832D01*
X0107384Y0103831D01*
X0110382Y0097833D02*
Y0103831D01*
X0113382D01*
X0114381Y0102832D01*
Y0100832D01*
X0113382Y0099833D01*
X0110382D01*
X0112382D02*
X0114381Y0097833D01*
X0116381Y0103831D02*
Y0097833D01*
Y0099833D01*
X0120379Y0103831D01*
X0117380Y0100832D01*
X0120379Y0097833D01*
X0128377Y0103831D02*
Y0099833D01*
X0130376Y0097833D01*
X0132375Y0099833D01*
Y0103831D01*
X0134375D02*
X0136374D01*
X0135374D01*
Y0097833D01*
X0134375D01*
X0136374D01*
X0143372Y0103831D02*
X0139373D01*
Y0097833D01*
X0143372D01*
X0139373Y0100832D02*
X0141373D01*
X0145371Y0103831D02*
Y0097833D01*
X0147371Y0099833D01*
X0149370Y0097833D01*
Y0103831D01*
X0155368D02*
X0151369D01*
Y0097833D01*
X0155368D01*
X0151369Y0100832D02*
X0153369D01*
X0157367Y0103831D02*
Y0097833D01*
X0160366D01*
X0161366Y0098833D01*
Y0102832D01*
X0160366Y0103831D01*
X0157367D01*
X0173362D02*
X0169363D01*
Y0100832D01*
X0171363D01*
X0169363D01*
Y0097833D01*
X0175362D02*
Y0103831D01*
X0178360D01*
X0179360Y0102832D01*
Y0100832D01*
X0178360Y0099833D01*
X0175362D01*
X0177361D02*
X0179360Y0097833D01*
X0184359Y0103831D02*
X0182359D01*
X0181360Y0102832D01*
Y0098833D01*
X0182359Y0097833D01*
X0184359D01*
X0185358Y0098833D01*
Y0102832D01*
X0184359Y0103831D01*
X0187358Y0097833D02*
Y0103831D01*
X0189357Y0101832D01*
X0191356Y0103831D01*
Y0097833D01*
X0199354Y0103831D02*
X0203352D01*
X0201353D01*
Y0097833D01*
X0208351Y0103831D02*
X0206351D01*
X0205352Y0102832D01*
Y0098833D01*
X0206351Y0097833D01*
X0208351D01*
X0209350Y0098833D01*
Y0102832D01*
X0208351Y0103831D01*
X0211350Y0097833D02*
Y0103831D01*
X0214349D01*
X0215349Y0102832D01*
Y0100832D01*
X0214349Y0099833D01*
X0211350D01*
X0227345Y0102832D02*
X0226345Y0103831D01*
X0224346D01*
X0223346Y0102832D01*
Y0101832D01*
X0224346Y0100832D01*
X0226345D01*
X0227345Y0099833D01*
Y0098833D01*
X0226345Y0097833D01*
X0224346D01*
X0223346Y0098833D01*
X0229344Y0103831D02*
X0231343D01*
X0230344D01*
Y0097833D01*
X0229344D01*
X0231343D01*
X0234342Y0103831D02*
Y0097833D01*
X0237341D01*
X0238341Y0098833D01*
Y0102832D01*
X0237341Y0103831D01*
X0234342D01*
X0244339D02*
X0240340D01*
Y0097833D01*
X0244339D01*
X0240340Y0100832D02*
X0242340D01*
X0308249Y0061965D02*
X0307249Y0062964D01*
X0305250D01*
X0304250Y0061965D01*
Y0057966D01*
X0305250Y0056966D01*
X0307249D01*
X0308249Y0057966D01*
Y0059965D01*
X0306249D01*
X0314247Y0062964D02*
X0310248D01*
Y0056966D01*
X0314247D01*
X0310248Y0059965D02*
X0312247D01*
X0316246Y0056966D02*
Y0062964D01*
X0320245Y0056966D01*
Y0062964D01*
X0326243D02*
X0322244D01*
Y0056966D01*
X0326243D01*
X0322244Y0059965D02*
X0324243D01*
X0328242Y0056966D02*
Y0062964D01*
X0331241D01*
X0332241Y0061965D01*
Y0059965D01*
X0331241Y0058966D01*
X0328242D01*
X0330242D02*
X0332241Y0056966D01*
X0334240D02*
Y0060965D01*
X0336240Y0062964D01*
X0338239Y0060965D01*
Y0056966D01*
Y0059965D01*
X0334240D01*
X0340238Y0062964D02*
X0344237D01*
X0342238D01*
Y0056966D01*
X0350235Y0062964D02*
X0346236D01*
Y0056966D01*
X0350235D01*
X0346236Y0059965D02*
X0348236D01*
X0352235Y0062964D02*
Y0056966D01*
X0355234D01*
X0356233Y0057966D01*
Y0061965D01*
X0355234Y0062964D01*
X0352235D01*
X0382225Y0060965D02*
X0383225D01*
Y0059965D01*
X0382225D01*
Y0060965D01*
Y0057966D02*
X0383225D01*
Y0056966D01*
X0382225D01*
Y0057966D01*
X0395199Y0056966D02*
X0391200D01*
X0395199Y0060965D01*
Y0061965D01*
X0394199Y0062964D01*
X0392200D01*
X0391200Y0061965D01*
X0397198Y0056966D02*
X0401197Y0060965D01*
X0403196Y0056966D02*
X0405196D01*
X0404196D01*
Y0062964D01*
X0403196Y0061965D01*
X0408194D02*
X0409194Y0062964D01*
X0411194D01*
X0412193Y0061965D01*
Y0057966D01*
X0411194Y0056966D01*
X0409194D01*
X0408194Y0057966D01*
Y0061965D01*
X0414193Y0056966D02*
X0418191Y0060965D01*
X0424189Y0056966D02*
X0420191D01*
X0424189Y0060965D01*
Y0061965D01*
X0423190Y0062964D01*
X0421190D01*
X0420191Y0061965D01*
X0426189D02*
X0427188Y0062964D01*
X0429188D01*
X0430187Y0061965D01*
Y0057966D01*
X0429188Y0056966D01*
X0427188D01*
X0426189Y0057966D01*
Y0061965D01*
X0436186Y0056966D02*
X0432187D01*
X0436186Y0060965D01*
Y0061965D01*
X0435186Y0062964D01*
X0433186D01*
X0432187Y0061965D01*
X0438185D02*
X0439185Y0062964D01*
X0441184D01*
X0442183Y0061965D01*
Y0057966D01*
X0441184Y0056966D01*
X0439185D01*
X0438185Y0057966D01*
Y0061965D01*
X0443050Y0097833D02*
Y0103831D01*
X0446049D01*
X0447049Y0102832D01*
Y0100832D01*
X0446049Y0099833D01*
X0443050D01*
X0445049D02*
X0447049Y0097833D01*
X0453047Y0103831D02*
X0449048D01*
Y0097833D01*
X0453047D01*
X0449048Y0100832D02*
X0451047D01*
X0455046Y0103831D02*
Y0099833D01*
X0457046Y0097833D01*
X0459045Y0099833D01*
Y0103831D01*
X0461044Y0101832D02*
X0462044D01*
Y0100832D01*
X0461044D01*
Y0101832D01*
Y0098833D02*
X0462044D01*
Y0097833D01*
X0461044D01*
Y0098833D01*
X0530849Y0102832D02*
X0529849Y0103831D01*
X0527850D01*
X0526850Y0102832D01*
Y0101832D01*
X0527850Y0100832D01*
X0529849D01*
X0530849Y0099833D01*
Y0098833D01*
X0529849Y0097833D01*
X0527850D01*
X0526850Y0098833D01*
X0532848Y0103831D02*
Y0099833D01*
X0534847Y0097833D01*
X0536847Y0099833D01*
Y0103831D01*
X0538846Y0097833D02*
Y0103831D01*
X0542845Y0097833D01*
Y0103831D01*
X0550842Y0097833D02*
Y0103831D01*
X0553841D01*
X0554841Y0102832D01*
Y0100832D01*
X0553841Y0099833D01*
X0550842D01*
X0552842D02*
X0554841Y0097833D01*
X0560839Y0103831D02*
X0556840D01*
Y0097833D01*
X0560839D01*
X0556840Y0100832D02*
X0558840D01*
X0562838Y0103831D02*
Y0099833D01*
X0564838Y0097833D01*
X0566837Y0099833D01*
Y0103831D01*
X0568836Y0101832D02*
X0569836D01*
Y0100832D01*
X0568836D01*
Y0101832D01*
Y0098833D02*
X0569836D01*
Y0097833D01*
X0568836D01*
Y0098833D01*
X0577450Y0097833D02*
X0579449D01*
X0578450D01*
Y0103831D01*
X0577450Y0102832D01*
X0586447Y0103831D02*
Y0097833D01*
X0583448D01*
X0582448Y0098833D01*
Y0100832D01*
X0583448Y0101832D01*
X0586447D01*
X0589446Y0097833D02*
Y0102832D01*
Y0100832D01*
X0588446D01*
X0590446D01*
X0589446D01*
Y0102832D01*
X0590446Y0103831D01*
X0593445Y0102832D02*
X0594445Y0103831D01*
X0596444D01*
X0597443Y0102832D01*
Y0101832D01*
X0596444Y0100832D01*
X0595444D01*
X0596444D01*
X0597443Y0099833D01*
Y0098833D01*
X0596444Y0097833D01*
X0594445D01*
X0593445Y0098833D01*
X0603442Y0097833D02*
X0599443D01*
X0603442Y0101832D01*
Y0102832D01*
X0602442Y0103831D01*
X0600443D01*
X0599443Y0102832D01*
X0606441Y0101832D02*
X0608440D01*
X0609440Y0100832D01*
Y0097833D01*
X0606441D01*
X0605441Y0098833D01*
X0606441Y0099833D01*
X0609440D01*
X0615438Y0097833D02*
X0611439D01*
X0615438Y0101832D01*
Y0102832D01*
X0614438Y0103831D01*
X0612439D01*
X0611439Y0102832D01*
X0617437Y0098833D02*
X0618437Y0097833D01*
X0620436D01*
X0621436Y0098833D01*
Y0102832D01*
X0620436Y0103831D01*
X0618437D01*
X0617437Y0102832D01*
Y0101832D01*
X0618437Y0100832D01*
X0621436D01*
X0626434Y0097833D02*
X0624435D01*
X0623435Y0098833D01*
Y0100832D01*
X0624435Y0101832D01*
X0626434D01*
X0627434Y0100832D01*
Y0099833D01*
X0623435D01*
X0629433Y0103831D02*
X0633432D01*
Y0102832D01*
X0629433Y0098833D01*
Y0097833D01*
X0639430Y0101832D02*
X0636431D01*
X0635431Y0100832D01*
Y0098833D01*
X0636431Y0097833D01*
X0639430D01*
X0645428Y0101832D02*
X0642429D01*
X0641429Y0100832D01*
Y0098833D01*
X0642429Y0097833D01*
X0645428D01*
X0647427Y0103831D02*
X0651426D01*
Y0102832D01*
X0647427Y0098833D01*
Y0097833D01*
X0654425D02*
Y0102832D01*
Y0100832D01*
X0653425D01*
X0655425D01*
X0654425D01*
Y0102832D01*
X0655425Y0103831D01*
X0659423Y0101832D02*
X0661423D01*
X0662423Y0100832D01*
Y0097833D01*
X0659423D01*
X0658424Y0098833D01*
X0659423Y0099833D01*
X0662423D01*
X0668421Y0097833D02*
X0664422D01*
X0668421Y0101832D01*
Y0102832D01*
X0667421Y0103831D01*
X0665421D01*
X0664422Y0102832D01*
X0671420Y0097833D02*
Y0102832D01*
Y0100832D01*
X0670420D01*
X0672419D01*
X0671420D01*
Y0102832D01*
X0672419Y0103831D01*
X0679417D02*
Y0097833D01*
X0676418D01*
X0675418Y0098833D01*
Y0100832D01*
X0676418Y0101832D01*
X0679417D01*
X0684415Y0097833D02*
X0682416D01*
X0681416Y0098833D01*
Y0100832D01*
X0682416Y0101832D01*
X0684415D01*
X0685415Y0100832D01*
Y0099833D01*
X0681416D01*
X0691413Y0103831D02*
X0689414Y0102832D01*
X0687414Y0100832D01*
Y0098833D01*
X0688414Y0097833D01*
X0690414D01*
X0691413Y0098833D01*
Y0099833D01*
X0690414Y0100832D01*
X0687414D01*
X0693412Y0098833D02*
X0694412Y0097833D01*
X0696412D01*
X0697411Y0098833D01*
Y0102832D01*
X0696412Y0103831D01*
X0694412D01*
X0693412Y0102832D01*
Y0101832D01*
X0694412Y0100832D01*
X0697411D01*
X0703409Y0097833D02*
X0699410D01*
X0703409Y0101832D01*
Y0102832D01*
X0702410Y0103831D01*
X0700410D01*
X0699410Y0102832D01*
X0705409D02*
X0706408Y0103831D01*
X0708408D01*
X0709407Y0102832D01*
Y0101832D01*
X0708408Y0100832D01*
X0709407Y0099833D01*
Y0098833D01*
X0708408Y0097833D01*
X0706408D01*
X0705409Y0098833D01*
Y0099833D01*
X0706408Y0100832D01*
X0705409Y0101832D01*
Y0102832D01*
X0706408Y0100832D02*
X0708408D01*
X0711407Y0097833D02*
X0713406D01*
X0712406D01*
Y0103831D01*
X0711407Y0102832D01*
X0717405Y0097833D02*
Y0102832D01*
Y0100832D01*
X0716405D01*
X0718404D01*
X0717405D01*
Y0102832D01*
X0718404Y0103831D01*
X0725402D02*
Y0097833D01*
X0722403D01*
X0721403Y0098833D01*
Y0100832D01*
X0722403Y0101832D01*
X0725402D01*
X0731400Y0097833D02*
X0727401D01*
X0731400Y0101832D01*
Y0102832D01*
X0730401Y0103831D01*
X0728401D01*
X0727401Y0102832D01*
X0733399Y0097833D02*
X0735399D01*
X0734399D01*
Y0103831D01*
X0733399Y0102832D01*
X0738398Y0103831D02*
Y0097833D01*
X0741397D01*
X0742397Y0098833D01*
Y0099833D01*
Y0100832D01*
X0741397Y0101832D01*
X0738398D01*
X0748395Y0103831D02*
Y0097833D01*
X0745396D01*
X0744396Y0098833D01*
Y0100832D01*
X0745396Y0101832D01*
X0748395D01*
X0753393Y0097833D02*
Y0103831D01*
X0750394Y0100832D01*
X0754393D01*
X0756392Y0097833D02*
X0758391D01*
X0757392D01*
Y0103831D01*
X0756392Y0102832D01*
X0761390Y0103831D02*
Y0097833D01*
X0764390D01*
X0765389Y0098833D01*
Y0099833D01*
Y0100832D01*
X0764390Y0101832D01*
X0761390D01*
X0771387Y0103831D02*
X0769388Y0102832D01*
X0767388Y0100832D01*
Y0098833D01*
X0768388Y0097833D01*
X0770388D01*
X0771387Y0098833D01*
Y0099833D01*
X0770388Y0100832D01*
X0767388D01*
X0773387Y0103831D02*
X0777385D01*
Y0102832D01*
X0773387Y0098833D01*
Y0097833D01*
X0782384D02*
X0780384D01*
X0779385Y0098833D01*
Y0100832D01*
X0780384Y0101832D01*
X0782384D01*
X0783383Y0100832D01*
Y0099833D01*
X0779385D01*
X0785383Y0102832D02*
X0786382Y0103831D01*
X0788382D01*
X0789381Y0102832D01*
Y0101832D01*
X0788382Y0100832D01*
X0787382D01*
X0788382D01*
X0789381Y0099833D01*
Y0098833D01*
X0788382Y0097833D01*
X0786382D01*
X0785383Y0098833D01*
X0791381Y0103831D02*
X0795379D01*
Y0102832D01*
X0791381Y0098833D01*
Y0097833D01*
X0800378D02*
X0798379D01*
X0797379Y0098833D01*
Y0100832D01*
X0798379Y0101832D01*
X0800378D01*
X0801377Y0100832D01*
Y0099833D01*
X0797379D01*
X0804377Y0101832D02*
X0806376D01*
X0807376Y0100832D01*
Y0097833D01*
X0804377D01*
X0803377Y0098833D01*
X0804377Y0099833D01*
X0807376D01*
X0817372Y0097833D02*
X0815373D01*
Y0103831D01*
X0817372D01*
X0820371D02*
Y0097833D01*
X0824370D01*
X0827369D02*
X0829368D01*
X0830368Y0098833D01*
Y0100832D01*
X0829368Y0101832D01*
X0827369D01*
X0826369Y0100832D01*
Y0098833D01*
X0827369Y0097833D01*
X0836366Y0101832D02*
X0833367D01*
X0832368Y0100832D01*
Y0098833D01*
X0833367Y0097833D01*
X0836366D01*
X0839365Y0101832D02*
X0841365D01*
X0842364Y0100832D01*
Y0097833D01*
X0839365D01*
X0838366Y0098833D01*
X0839365Y0099833D01*
X0842364D01*
X0844364Y0097833D02*
X0846363D01*
X0845363D01*
Y0103831D01*
X0844364D01*
X0849362Y0097833D02*
X0851361D01*
X0850362D01*
Y0103831D01*
X0849362D01*
X0854360Y0101832D02*
Y0098833D01*
X0855360Y0097833D01*
X0858359D01*
Y0096834D01*
X0857359Y0095834D01*
X0856360D01*
X0858359Y0097833D02*
Y0101832D01*
X0866356Y0097833D02*
Y0103831D01*
X0868356Y0101832D01*
X0870355Y0103831D01*
Y0097833D01*
X0873354D02*
X0875354D01*
X0876353Y0098833D01*
Y0100832D01*
X0875354Y0101832D01*
X0873354D01*
X0872355Y0100832D01*
Y0098833D01*
X0873354Y0097833D01*
X0882351Y0103831D02*
Y0097833D01*
X0879352D01*
X0878353Y0098833D01*
Y0100832D01*
X0879352Y0101832D01*
X0882351D01*
X0884351Y0097833D02*
X0886350D01*
X0885350D01*
Y0101832D01*
X0884351D01*
X0890349Y0097833D02*
Y0102832D01*
Y0100832D01*
X0889349D01*
X0891348D01*
X0890349D01*
Y0102832D01*
X0891348Y0103831D01*
X0894347Y0097833D02*
X0896347D01*
X0895347D01*
Y0101832D01*
X0894347D01*
X0902345Y0097833D02*
X0900346D01*
X0899346Y0098833D01*
Y0100832D01*
X0900346Y0101832D01*
X0902345D01*
X0903345Y0100832D01*
Y0099833D01*
X0899346D01*
X0909343Y0103831D02*
Y0097833D01*
X0906344D01*
X0905344Y0098833D01*
Y0100832D01*
X0906344Y0101832D01*
X0909343D01*
X0911342Y0097833D02*
X0913341D01*
Y0103831D01*
X0911342D01*
G54D25*
X0543111Y0267178D02*
D03*
X0548820D02*
D03*
X0118686Y0218261D02*
D03*
X0124394D02*
D03*
X0104394D02*
D03*
X0098686D02*
D03*
X0687465Y0525876D02*
D03*
X0681756D02*
D03*
X0527788Y0267178D02*
D03*
X0533497D02*
D03*
X0558433D02*
D03*
X0564142D02*
D03*
X0573756D02*
D03*
X0579465D02*
D03*
G54D26*
X0539371Y0251296D02*
D03*
X0546851D02*
D03*
X0543111Y0260745D02*
D03*
X0108134Y0234013D02*
D03*
X0100654D02*
D03*
X0104394Y0224564D02*
D03*
X0524048Y0251296D02*
D03*
X0531529D02*
D03*
X0527788Y0260745D02*
D03*
X0554693Y0251296D02*
D03*
X0562174D02*
D03*
X0558433Y0260745D02*
D03*
X0570016Y0251296D02*
D03*
X0577496D02*
D03*
X0573756Y0260745D02*
D03*
G54D27*
X0364907Y0680649D02*
D03*
Y0678090D02*
D03*
Y0675531D02*
D03*
Y0672972D02*
D03*
Y0670413D02*
D03*
Y0667854D02*
D03*
Y0665295D02*
D03*
Y0662736D02*
D03*
X0388136Y0680649D02*
D03*
Y0678090D02*
D03*
Y0675531D02*
D03*
Y0672972D02*
D03*
Y0670413D02*
D03*
Y0667854D02*
D03*
Y0665295D02*
D03*
Y0662736D02*
D03*
G54D28*
X0356345Y0441532D02*
D03*
Y0433068D02*
D03*
X0349061D02*
D03*
Y0441532D02*
D03*
X0487525Y0444263D02*
D03*
Y0435799D02*
D03*
X0480242D02*
D03*
Y0444263D02*
D03*
G54D29*
X0679150Y0183400D02*
D03*
Y0680400D02*
D03*
X0109250Y0183400D02*
D03*
G54D30*
X0526809Y0213458D02*
D03*
X0530549D02*
D03*
X0534289D02*
D03*
Y0224285D02*
D03*
X0526809D02*
D03*
X0557454Y0213458D02*
D03*
X0561194D02*
D03*
X0564934D02*
D03*
Y0224285D02*
D03*
X0557454D02*
D03*
G54D31*
X0456403Y0494045D02*
D03*
X0458962D02*
D03*
X0461521D02*
D03*
X0464080D02*
D03*
X0466639D02*
D03*
X0469198D02*
D03*
X0471758D02*
D03*
X0474317D02*
D03*
Y0486368D02*
D03*
X0481994Y0471013D02*
D03*
Y0473572D02*
D03*
Y0476131D02*
D03*
X0479435Y0494045D02*
D03*
Y0491486D02*
D03*
Y0488927D02*
D03*
Y0486368D02*
D03*
Y0483809D02*
D03*
Y0481250D02*
D03*
Y0478691D02*
D03*
X0448726Y0463336D02*
D03*
Y0465895D02*
D03*
Y0468454D02*
D03*
Y0471013D02*
D03*
Y0473572D02*
D03*
Y0476131D02*
D03*
Y0478691D02*
D03*
Y0481250D02*
D03*
Y0483809D02*
D03*
Y0486368D02*
D03*
Y0488927D02*
D03*
Y0491486D02*
D03*
Y0494045D02*
D03*
Y0496604D02*
D03*
X0451285Y0463336D02*
D03*
Y0465895D02*
D03*
Y0468454D02*
D03*
Y0471013D02*
D03*
Y0473572D02*
D03*
Y0476131D02*
D03*
Y0478691D02*
D03*
Y0481250D02*
D03*
Y0483809D02*
D03*
Y0486368D02*
D03*
Y0488927D02*
D03*
Y0491486D02*
D03*
Y0494045D02*
D03*
Y0496604D02*
D03*
X0448726Y0499163D02*
D03*
X0453844Y0463336D02*
D03*
Y0465895D02*
D03*
Y0468454D02*
D03*
Y0471013D02*
D03*
Y0473572D02*
D03*
Y0476131D02*
D03*
Y0478691D02*
D03*
Y0481250D02*
D03*
Y0483809D02*
D03*
Y0486368D02*
D03*
Y0488927D02*
D03*
Y0491486D02*
D03*
Y0494045D02*
D03*
Y0496604D02*
D03*
X0451285Y0499163D02*
D03*
X0456403Y0463336D02*
D03*
Y0465895D02*
D03*
Y0468454D02*
D03*
Y0496604D02*
D03*
X0453844Y0499163D02*
D03*
X0458962Y0463336D02*
D03*
Y0465895D02*
D03*
Y0468454D02*
D03*
Y0476131D02*
D03*
Y0481250D02*
D03*
Y0486368D02*
D03*
Y0488927D02*
D03*
Y0496604D02*
D03*
X0461521Y0463336D02*
D03*
Y0465895D02*
D03*
Y0468454D02*
D03*
Y0473572D02*
D03*
Y0476131D02*
D03*
Y0478691D02*
D03*
Y0481250D02*
D03*
Y0483809D02*
D03*
Y0488927D02*
D03*
Y0496604D02*
D03*
X0458962Y0499163D02*
D03*
X0464080Y0463336D02*
D03*
Y0465895D02*
D03*
Y0468454D02*
D03*
Y0476131D02*
D03*
Y0481250D02*
D03*
Y0483809D02*
D03*
Y0486368D02*
D03*
Y0488927D02*
D03*
Y0496604D02*
D03*
X0466639Y0463336D02*
D03*
Y0465895D02*
D03*
Y0468454D02*
D03*
Y0473572D02*
D03*
Y0478691D02*
D03*
Y0483809D02*
D03*
Y0488927D02*
D03*
Y0496604D02*
D03*
X0464080Y0499163D02*
D03*
X0469198Y0463336D02*
D03*
Y0465895D02*
D03*
Y0468454D02*
D03*
Y0476131D02*
D03*
Y0481250D02*
D03*
Y0483809D02*
D03*
Y0486368D02*
D03*
Y0488927D02*
D03*
Y0496604D02*
D03*
X0471758Y0465895D02*
D03*
Y0468454D02*
D03*
Y0473572D02*
D03*
Y0478691D02*
D03*
Y0488927D02*
D03*
Y0496604D02*
D03*
X0469198Y0499163D02*
D03*
X0484553D02*
D03*
X0481994D02*
D03*
X0484553Y0496604D02*
D03*
Y0494045D02*
D03*
Y0488927D02*
D03*
Y0483809D02*
D03*
Y0478691D02*
D03*
Y0476131D02*
D03*
Y0468454D02*
D03*
Y0465895D02*
D03*
Y0463336D02*
D03*
X0479435Y0499163D02*
D03*
X0481994Y0496604D02*
D03*
Y0494045D02*
D03*
Y0491486D02*
D03*
Y0488927D02*
D03*
Y0486368D02*
D03*
Y0483809D02*
D03*
Y0481250D02*
D03*
Y0478691D02*
D03*
Y0468454D02*
D03*
Y0465895D02*
D03*
Y0463336D02*
D03*
X0476876Y0499163D02*
D03*
X0479435Y0496604D02*
D03*
Y0468454D02*
D03*
Y0465895D02*
D03*
Y0463336D02*
D03*
X0474317Y0499163D02*
D03*
X0476876Y0496604D02*
D03*
Y0468454D02*
D03*
Y0463336D02*
D03*
X0474317Y0496604D02*
D03*
Y0488927D02*
D03*
Y0481250D02*
D03*
Y0476131D02*
D03*
Y0473572D02*
D03*
Y0468454D02*
D03*
Y0465895D02*
D03*
Y0463336D02*
D03*
X0207903Y0484645D02*
D03*
X0210462D02*
D03*
X0213021D02*
D03*
X0215580D02*
D03*
X0218139D02*
D03*
X0220698D02*
D03*
X0223257D02*
D03*
X0225816D02*
D03*
Y0476968D02*
D03*
X0233494Y0461613D02*
D03*
Y0464173D02*
D03*
Y0466732D02*
D03*
X0230935Y0484645D02*
D03*
Y0482086D02*
D03*
Y0479527D02*
D03*
Y0476968D02*
D03*
Y0474409D02*
D03*
Y0471850D02*
D03*
Y0469291D02*
D03*
X0200226Y0453936D02*
D03*
Y0456495D02*
D03*
Y0459054D02*
D03*
Y0461613D02*
D03*
Y0464173D02*
D03*
Y0466732D02*
D03*
Y0469291D02*
D03*
Y0471850D02*
D03*
Y0474409D02*
D03*
Y0476968D02*
D03*
Y0479527D02*
D03*
Y0482086D02*
D03*
Y0484645D02*
D03*
Y0487204D02*
D03*
X0202785Y0453936D02*
D03*
Y0456495D02*
D03*
Y0459054D02*
D03*
Y0461613D02*
D03*
Y0464173D02*
D03*
Y0466732D02*
D03*
Y0469291D02*
D03*
Y0471850D02*
D03*
Y0474409D02*
D03*
Y0476968D02*
D03*
Y0479527D02*
D03*
Y0482086D02*
D03*
Y0484645D02*
D03*
Y0487204D02*
D03*
X0200226Y0489763D02*
D03*
X0205344Y0453936D02*
D03*
Y0456495D02*
D03*
Y0459054D02*
D03*
Y0461613D02*
D03*
Y0464173D02*
D03*
Y0466732D02*
D03*
Y0469291D02*
D03*
Y0471850D02*
D03*
Y0474409D02*
D03*
Y0476968D02*
D03*
Y0479527D02*
D03*
Y0482086D02*
D03*
Y0484645D02*
D03*
Y0487204D02*
D03*
X0202785Y0489763D02*
D03*
X0207903Y0453936D02*
D03*
Y0456495D02*
D03*
Y0459054D02*
D03*
Y0487204D02*
D03*
X0205344Y0489763D02*
D03*
X0210462Y0453936D02*
D03*
Y0456495D02*
D03*
Y0459054D02*
D03*
Y0466732D02*
D03*
Y0471850D02*
D03*
Y0476968D02*
D03*
Y0479527D02*
D03*
Y0487204D02*
D03*
X0213021Y0453936D02*
D03*
Y0456495D02*
D03*
Y0459054D02*
D03*
Y0464173D02*
D03*
Y0466732D02*
D03*
Y0469291D02*
D03*
Y0471850D02*
D03*
Y0474409D02*
D03*
Y0479527D02*
D03*
Y0487204D02*
D03*
X0210462Y0489763D02*
D03*
X0215580Y0453936D02*
D03*
Y0456495D02*
D03*
Y0459054D02*
D03*
Y0466732D02*
D03*
Y0471850D02*
D03*
Y0474409D02*
D03*
Y0476968D02*
D03*
Y0479527D02*
D03*
Y0487204D02*
D03*
X0218139Y0453936D02*
D03*
Y0456495D02*
D03*
Y0459054D02*
D03*
Y0464173D02*
D03*
Y0469291D02*
D03*
Y0474409D02*
D03*
Y0479527D02*
D03*
Y0487204D02*
D03*
X0215580Y0489763D02*
D03*
X0220698Y0453936D02*
D03*
Y0456495D02*
D03*
Y0459054D02*
D03*
Y0466732D02*
D03*
Y0471850D02*
D03*
Y0474409D02*
D03*
Y0476968D02*
D03*
Y0479527D02*
D03*
Y0487204D02*
D03*
X0223257Y0456495D02*
D03*
Y0459054D02*
D03*
Y0464173D02*
D03*
Y0469291D02*
D03*
Y0479527D02*
D03*
Y0487204D02*
D03*
X0220698Y0489763D02*
D03*
X0236053D02*
D03*
X0233494D02*
D03*
X0236053Y0487204D02*
D03*
Y0484645D02*
D03*
Y0479527D02*
D03*
Y0474409D02*
D03*
Y0469291D02*
D03*
Y0466732D02*
D03*
Y0459054D02*
D03*
Y0456495D02*
D03*
Y0453936D02*
D03*
X0230935Y0489763D02*
D03*
X0233494Y0487204D02*
D03*
Y0484645D02*
D03*
Y0482086D02*
D03*
Y0479527D02*
D03*
Y0476968D02*
D03*
Y0474409D02*
D03*
Y0471850D02*
D03*
Y0469291D02*
D03*
Y0459054D02*
D03*
Y0456495D02*
D03*
Y0453936D02*
D03*
X0228376Y0489763D02*
D03*
X0230935Y0487204D02*
D03*
Y0459054D02*
D03*
Y0456495D02*
D03*
Y0453936D02*
D03*
X0225816Y0489763D02*
D03*
X0228376Y0487204D02*
D03*
Y0459054D02*
D03*
Y0453936D02*
D03*
X0225816Y0487204D02*
D03*
Y0479527D02*
D03*
Y0471850D02*
D03*
Y0466732D02*
D03*
Y0464173D02*
D03*
Y0459054D02*
D03*
Y0456495D02*
D03*
Y0453936D02*
D03*
X0324903Y0494045D02*
D03*
X0327462D02*
D03*
X0330021D02*
D03*
X0332580D02*
D03*
X0335139D02*
D03*
X0337698D02*
D03*
X0340258D02*
D03*
X0342816D02*
D03*
Y0486368D02*
D03*
X0350494Y0471013D02*
D03*
Y0473572D02*
D03*
Y0476131D02*
D03*
X0347935Y0494045D02*
D03*
Y0491486D02*
D03*
Y0488927D02*
D03*
Y0486368D02*
D03*
Y0483809D02*
D03*
Y0481250D02*
D03*
Y0478691D02*
D03*
X0317226Y0463336D02*
D03*
Y0465895D02*
D03*
Y0468454D02*
D03*
Y0471013D02*
D03*
Y0473572D02*
D03*
Y0476131D02*
D03*
Y0478691D02*
D03*
Y0481250D02*
D03*
Y0483809D02*
D03*
Y0486368D02*
D03*
Y0488927D02*
D03*
Y0491486D02*
D03*
Y0494045D02*
D03*
Y0496604D02*
D03*
X0319785Y0463336D02*
D03*
Y0465895D02*
D03*
Y0468454D02*
D03*
Y0471013D02*
D03*
Y0473572D02*
D03*
Y0476131D02*
D03*
Y0478691D02*
D03*
Y0481250D02*
D03*
Y0483809D02*
D03*
Y0486368D02*
D03*
Y0488927D02*
D03*
Y0491486D02*
D03*
Y0494045D02*
D03*
Y0496604D02*
D03*
X0317226Y0499163D02*
D03*
X0322344Y0463336D02*
D03*
Y0465895D02*
D03*
Y0468454D02*
D03*
Y0471013D02*
D03*
Y0473572D02*
D03*
Y0476131D02*
D03*
Y0478691D02*
D03*
Y0481250D02*
D03*
Y0483809D02*
D03*
Y0486368D02*
D03*
Y0488927D02*
D03*
Y0491486D02*
D03*
Y0494045D02*
D03*
Y0496604D02*
D03*
X0319785Y0499163D02*
D03*
X0324903Y0463336D02*
D03*
Y0465895D02*
D03*
Y0468454D02*
D03*
Y0496604D02*
D03*
X0322344Y0499163D02*
D03*
X0327462Y0463336D02*
D03*
Y0465895D02*
D03*
Y0468454D02*
D03*
Y0476131D02*
D03*
Y0481250D02*
D03*
Y0486368D02*
D03*
Y0488927D02*
D03*
Y0496604D02*
D03*
X0330021Y0463336D02*
D03*
Y0465895D02*
D03*
Y0468454D02*
D03*
Y0473572D02*
D03*
Y0476131D02*
D03*
Y0478691D02*
D03*
Y0481250D02*
D03*
Y0483809D02*
D03*
Y0488927D02*
D03*
Y0496604D02*
D03*
X0327462Y0499163D02*
D03*
X0332580Y0463336D02*
D03*
Y0465895D02*
D03*
Y0468454D02*
D03*
Y0476131D02*
D03*
Y0481250D02*
D03*
Y0483809D02*
D03*
Y0486368D02*
D03*
Y0488927D02*
D03*
Y0496604D02*
D03*
X0335139Y0463336D02*
D03*
Y0465895D02*
D03*
Y0468454D02*
D03*
Y0473572D02*
D03*
Y0478691D02*
D03*
Y0483809D02*
D03*
Y0488927D02*
D03*
Y0496604D02*
D03*
X0332580Y0499163D02*
D03*
X0337698Y0463336D02*
D03*
Y0465895D02*
D03*
Y0468454D02*
D03*
Y0476131D02*
D03*
Y0481250D02*
D03*
Y0483809D02*
D03*
Y0486368D02*
D03*
Y0488927D02*
D03*
Y0496604D02*
D03*
X0340258Y0465895D02*
D03*
Y0468454D02*
D03*
Y0473572D02*
D03*
Y0478691D02*
D03*
Y0488927D02*
D03*
Y0496604D02*
D03*
X0337698Y0499163D02*
D03*
X0353053D02*
D03*
X0350494D02*
D03*
X0353053Y0496604D02*
D03*
Y0494045D02*
D03*
Y0488927D02*
D03*
Y0483809D02*
D03*
Y0478691D02*
D03*
Y0476131D02*
D03*
Y0468454D02*
D03*
Y0465895D02*
D03*
Y0463336D02*
D03*
X0347935Y0499163D02*
D03*
X0350494Y0496604D02*
D03*
Y0494045D02*
D03*
Y0491486D02*
D03*
Y0488927D02*
D03*
Y0486368D02*
D03*
Y0483809D02*
D03*
Y0481250D02*
D03*
Y0478691D02*
D03*
Y0468454D02*
D03*
Y0465895D02*
D03*
Y0463336D02*
D03*
X0345376Y0499163D02*
D03*
X0347935Y0496604D02*
D03*
Y0468454D02*
D03*
Y0465895D02*
D03*
Y0463336D02*
D03*
X0342816Y0499163D02*
D03*
X0345376Y0496604D02*
D03*
Y0468454D02*
D03*
Y0463336D02*
D03*
X0342816Y0496604D02*
D03*
Y0488927D02*
D03*
Y0481250D02*
D03*
Y0476131D02*
D03*
Y0473572D02*
D03*
Y0468454D02*
D03*
Y0465895D02*
D03*
Y0463336D02*
D03*
X0556703Y0484645D02*
D03*
X0559262D02*
D03*
X0561821D02*
D03*
X0564380D02*
D03*
X0566939D02*
D03*
X0569498D02*
D03*
X0572057D02*
D03*
X0574616D02*
D03*
Y0476968D02*
D03*
X0582294Y0461614D02*
D03*
Y0464173D02*
D03*
Y0466732D02*
D03*
X0579735Y0484645D02*
D03*
Y0482086D02*
D03*
Y0479527D02*
D03*
Y0476968D02*
D03*
Y0474409D02*
D03*
Y0471850D02*
D03*
Y0469291D02*
D03*
X0549026Y0453936D02*
D03*
Y0456495D02*
D03*
Y0459054D02*
D03*
Y0461614D02*
D03*
Y0464173D02*
D03*
Y0466732D02*
D03*
Y0469291D02*
D03*
Y0471850D02*
D03*
Y0474409D02*
D03*
Y0476968D02*
D03*
Y0479527D02*
D03*
Y0482086D02*
D03*
Y0484645D02*
D03*
Y0487204D02*
D03*
X0551585Y0453936D02*
D03*
Y0456495D02*
D03*
Y0459054D02*
D03*
Y0461614D02*
D03*
Y0464173D02*
D03*
Y0466732D02*
D03*
Y0469291D02*
D03*
Y0471850D02*
D03*
Y0474409D02*
D03*
Y0476968D02*
D03*
Y0479527D02*
D03*
Y0482086D02*
D03*
Y0484645D02*
D03*
Y0487204D02*
D03*
X0549026Y0489763D02*
D03*
X0554144Y0453936D02*
D03*
Y0456495D02*
D03*
Y0459054D02*
D03*
Y0461614D02*
D03*
Y0464173D02*
D03*
Y0466732D02*
D03*
Y0469291D02*
D03*
Y0471850D02*
D03*
Y0474409D02*
D03*
Y0476968D02*
D03*
Y0479527D02*
D03*
Y0482086D02*
D03*
Y0484645D02*
D03*
Y0487204D02*
D03*
X0551585Y0489763D02*
D03*
X0556703Y0453936D02*
D03*
Y0456495D02*
D03*
Y0459054D02*
D03*
Y0487204D02*
D03*
X0554144Y0489763D02*
D03*
X0559262Y0453936D02*
D03*
Y0456495D02*
D03*
Y0459054D02*
D03*
Y0466732D02*
D03*
Y0471850D02*
D03*
Y0476968D02*
D03*
Y0479527D02*
D03*
Y0487204D02*
D03*
X0561821Y0453936D02*
D03*
Y0456495D02*
D03*
Y0459054D02*
D03*
Y0464173D02*
D03*
Y0466732D02*
D03*
Y0469291D02*
D03*
Y0471850D02*
D03*
Y0474409D02*
D03*
Y0479527D02*
D03*
Y0487204D02*
D03*
X0559262Y0489763D02*
D03*
X0564380Y0453936D02*
D03*
Y0456495D02*
D03*
Y0459054D02*
D03*
Y0466732D02*
D03*
Y0471850D02*
D03*
Y0474409D02*
D03*
Y0476968D02*
D03*
Y0479527D02*
D03*
Y0487204D02*
D03*
X0566939Y0453936D02*
D03*
Y0456495D02*
D03*
Y0459054D02*
D03*
Y0464173D02*
D03*
Y0469291D02*
D03*
Y0474409D02*
D03*
Y0479527D02*
D03*
Y0487204D02*
D03*
X0564380Y0489763D02*
D03*
X0569498Y0453936D02*
D03*
Y0456495D02*
D03*
Y0459054D02*
D03*
Y0466732D02*
D03*
Y0471850D02*
D03*
Y0474409D02*
D03*
Y0476968D02*
D03*
Y0479527D02*
D03*
Y0487204D02*
D03*
X0572057Y0456495D02*
D03*
Y0459054D02*
D03*
Y0464173D02*
D03*
Y0469291D02*
D03*
Y0479527D02*
D03*
Y0487204D02*
D03*
X0569498Y0489763D02*
D03*
X0584853D02*
D03*
X0582294D02*
D03*
X0584853Y0487204D02*
D03*
Y0484645D02*
D03*
Y0479527D02*
D03*
Y0474409D02*
D03*
Y0469291D02*
D03*
Y0466732D02*
D03*
Y0459054D02*
D03*
Y0456495D02*
D03*
Y0453936D02*
D03*
X0579735Y0489763D02*
D03*
X0582294Y0487204D02*
D03*
Y0484645D02*
D03*
Y0482086D02*
D03*
Y0479527D02*
D03*
Y0476968D02*
D03*
Y0474409D02*
D03*
Y0471850D02*
D03*
Y0469291D02*
D03*
Y0459054D02*
D03*
Y0456495D02*
D03*
Y0453936D02*
D03*
X0577176Y0489763D02*
D03*
X0579735Y0487204D02*
D03*
Y0459054D02*
D03*
Y0456495D02*
D03*
Y0453936D02*
D03*
X0574616Y0489763D02*
D03*
X0577176Y0487204D02*
D03*
Y0459054D02*
D03*
Y0453936D02*
D03*
X0574616Y0487204D02*
D03*
Y0479527D02*
D03*
Y0471850D02*
D03*
Y0466732D02*
D03*
Y0464173D02*
D03*
Y0459054D02*
D03*
Y0456495D02*
D03*
Y0453936D02*
D03*
G54D32*
X0196990Y0253273D02*
D03*
X0208487D02*
D03*
G54D33*
X0647704Y0244242D02*
D03*
Y0252242D02*
D03*
X0329589Y0686949D02*
D03*
Y0678949D02*
D03*
X0344991Y0678949D02*
D03*
Y0686949D02*
D03*
X0426275Y0656272D02*
D03*
Y0664272D02*
D03*
X0410238Y0664272D02*
D03*
Y0656272D02*
D03*
X0140776Y0323028D02*
D03*
Y0331028D02*
D03*
X0160631Y0382565D02*
D03*
Y0374565D02*
D03*
X0140776Y0382565D02*
D03*
Y0374565D02*
D03*
X0160631Y0323028D02*
D03*
Y0331028D02*
D03*
X0627849Y0303779D02*
D03*
Y0295779D02*
D03*
X0647704Y0303779D02*
D03*
Y0295779D02*
D03*
X0627849Y0244242D02*
D03*
Y0252242D02*
D03*
G54D34*
X0244740Y0501300D02*
D03*
Y0494607D02*
D03*
X0493240Y0508000D02*
D03*
Y0501307D02*
D03*
X0593590Y0498600D02*
D03*
Y0491907D02*
D03*
X0364908Y0508699D02*
D03*
Y0502006D02*
D03*
G54D35*
X0391008Y0653357D02*
D03*
Y0648632D02*
D03*
X0339418Y0439689D02*
D03*
Y0434965D02*
D03*
X0344180Y0434965D02*
D03*
Y0439689D02*
D03*
X0470020Y0437566D02*
D03*
Y0442290D02*
D03*
X0475043Y0442290D02*
D03*
Y0437566D02*
D03*
X0405401Y0625745D02*
D03*
Y0630469D02*
D03*
X0438050Y0239147D02*
D03*
Y0234422D02*
D03*
X0411984Y0610503D02*
D03*
Y0615227D02*
D03*
X0374350Y0252824D02*
D03*
Y0248100D02*
D03*
X0413890Y0630537D02*
D03*
Y0635261D02*
D03*
X0375071Y0239314D02*
D03*
Y0234590D02*
D03*
X0552214Y0202059D02*
D03*
Y0206783D02*
D03*
X0566434Y0202059D02*
D03*
Y0206783D02*
D03*
X0521569Y0202059D02*
D03*
Y0206783D02*
D03*
X0535789Y0202059D02*
D03*
Y0206783D02*
D03*
X0448777Y0674863D02*
D03*
Y0679587D02*
D03*
Y0651558D02*
D03*
Y0656282D02*
D03*
Y0691792D02*
D03*
Y0687067D02*
D03*
Y0668487D02*
D03*
Y0663763D02*
D03*
X0443619Y0680966D02*
D03*
Y0685691D02*
D03*
X0287897Y0480366D02*
D03*
Y0475641D02*
D03*
X0361390Y0434965D02*
D03*
Y0439689D02*
D03*
X0358407Y0677986D02*
D03*
Y0682711D02*
D03*
X0492461Y0438338D02*
D03*
Y0443062D02*
D03*
X0396180Y0664823D02*
D03*
Y0660099D02*
D03*
Y0678090D02*
D03*
Y0682815D02*
D03*
X0385999Y0653357D02*
D03*
Y0648632D02*
D03*
X0358407Y0665189D02*
D03*
Y0669913D02*
D03*
X0366365Y0434965D02*
D03*
Y0439689D02*
D03*
X0359644Y0652838D02*
D03*
Y0657562D02*
D03*
X0364907Y0652838D02*
D03*
Y0657562D02*
D03*
X0469660Y0253045D02*
D03*
Y0248321D02*
D03*
X0438350Y0628859D02*
D03*
Y0624135D02*
D03*
X0450650Y0631225D02*
D03*
Y0626500D02*
D03*
X0454750Y0633525D02*
D03*
Y0628800D02*
D03*
X0113963Y0234013D02*
D03*
Y0229289D02*
D03*
X0438525Y0685691D02*
D03*
Y0680966D02*
D03*
Y0662386D02*
D03*
Y0657662D02*
D03*
X0556954Y0202059D02*
D03*
Y0206783D02*
D03*
X0526309Y0202059D02*
D03*
Y0206783D02*
D03*
X0531049Y0202059D02*
D03*
Y0206783D02*
D03*
X0443619Y0657662D02*
D03*
Y0662386D02*
D03*
X0561694Y0202059D02*
D03*
Y0206783D02*
D03*
G54D36*
X0390691Y0563326D02*
D03*
X0392029D02*
D03*
X0429927Y0539125D02*
D03*
X0431265D02*
D03*
G54D37*
X0497074Y0443031D02*
D03*
Y0445629D02*
D03*
X0527113Y0456993D02*
D03*
Y0454394D02*
D03*
X0293591Y0471200D02*
D03*
Y0468602D02*
D03*
G54D38*
X0594834Y0461302D02*
D03*
X0590834D02*
D03*
X0492821Y0457284D02*
D03*
X0496821D02*
D03*
X0370871Y0459989D02*
D03*
X0366871D02*
D03*
X0188540Y0465600D02*
D03*
X0184540D02*
D03*
X0305540Y0475000D02*
D03*
X0301540D02*
D03*
X0298650Y0493100D02*
D03*
X0302650D02*
D03*
X0186140Y0500200D02*
D03*
X0182140D02*
D03*
X0430239Y0493100D02*
D03*
X0434239D02*
D03*
X0437040Y0475000D02*
D03*
X0433040D02*
D03*
X0537340Y0465600D02*
D03*
X0533340D02*
D03*
X0186139Y0492200D02*
D03*
X0182139D02*
D03*
X0303150Y0501100D02*
D03*
X0299150D02*
D03*
X0534939Y0492200D02*
D03*
X0530939D02*
D03*
X0434639Y0501100D02*
D03*
X0430639D02*
D03*
X0181650Y0480200D02*
D03*
X0185650D02*
D03*
X0249064Y0449123D02*
D03*
X0253064D02*
D03*
X0192450Y0458100D02*
D03*
X0188450D02*
D03*
X0298650Y0489100D02*
D03*
X0302650D02*
D03*
X0309450Y0467500D02*
D03*
X0305450D02*
D03*
X0434640Y0497100D02*
D03*
X0430640D02*
D03*
X0534940Y0500200D02*
D03*
X0530940D02*
D03*
X0181639Y0484200D02*
D03*
X0185639D02*
D03*
X0303150Y0509100D02*
D03*
X0299150D02*
D03*
X0535440Y0487700D02*
D03*
X0531440D02*
D03*
X0434640Y0509100D02*
D03*
X0430640D02*
D03*
X0530439Y0484200D02*
D03*
X0534439D02*
D03*
X0530441Y0480200D02*
D03*
X0534441D02*
D03*
X0541250Y0458100D02*
D03*
X0537250D02*
D03*
X0492821Y0460740D02*
D03*
X0496821D02*
D03*
X0430241Y0489100D02*
D03*
X0434241D02*
D03*
X0440950Y0467500D02*
D03*
X0436950D02*
D03*
X0303150Y0497100D02*
D03*
X0299150D02*
D03*
X0360638Y0459989D02*
D03*
X0364638D02*
D03*
X0186140Y0488200D02*
D03*
X0182140D02*
D03*
X0154695Y0336262D02*
D03*
X0158695D02*
D03*
X0146713D02*
D03*
X0142713D02*
D03*
X0154695Y0369330D02*
D03*
X0158695D02*
D03*
X0146713D02*
D03*
X0142713D02*
D03*
X0363034Y0470702D02*
D03*
X0359034D02*
D03*
X0496034Y0467106D02*
D03*
X0492034D02*
D03*
X0246034Y0461302D02*
D03*
X0242034D02*
D03*
X0363034Y0467106D02*
D03*
X0359034D02*
D03*
X0596334Y0457706D02*
D03*
X0592334D02*
D03*
X0494534Y0470702D02*
D03*
X0490534D02*
D03*
X0246034Y0457706D02*
D03*
X0242034D02*
D03*
X0306708Y0463500D02*
D03*
X0310708D02*
D03*
X0538508Y0454100D02*
D03*
X0542508D02*
D03*
X0438208Y0463500D02*
D03*
X0442208D02*
D03*
X0189630Y0454100D02*
D03*
X0193630D02*
D03*
X0299150Y0505100D02*
D03*
X0303150D02*
D03*
X0297990Y0485100D02*
D03*
X0301990D02*
D03*
X0529790Y0476000D02*
D03*
X0533790D02*
D03*
X0530941Y0496200D02*
D03*
X0534941D02*
D03*
X0429490Y0485100D02*
D03*
X0433490D02*
D03*
X0430641Y0505100D02*
D03*
X0434641D02*
D03*
X0180990Y0476000D02*
D03*
X0184990D02*
D03*
X0182141Y0496200D02*
D03*
X0186141D02*
D03*
X0633785Y0290545D02*
D03*
X0629785D02*
D03*
X0641767D02*
D03*
X0645767D02*
D03*
X0633785Y0257477D02*
D03*
X0629785D02*
D03*
X0641767D02*
D03*
X0645767D02*
D03*
G54D39*
X0409579Y0599115D02*
D03*
X0404854D02*
D03*
X0416879Y0603215D02*
D03*
X0412154D02*
D03*
X0396660Y0252900D02*
D03*
X0401384D02*
D03*
X0478900Y0674347D02*
D03*
X0474175D02*
D03*
X0478900Y0688567D02*
D03*
X0474175D02*
D03*
X0478900Y0651042D02*
D03*
X0474175D02*
D03*
X0478900Y0665263D02*
D03*
X0474175D02*
D03*
X0552730Y0230063D02*
D03*
X0557454D02*
D03*
X0522085D02*
D03*
X0526809D02*
D03*
X0478900Y0683827D02*
D03*
X0474175D02*
D03*
Y0655782D02*
D03*
X0478900D02*
D03*
X0491131Y0495930D02*
D03*
X0495855D02*
D03*
X0591431Y0486530D02*
D03*
X0596155D02*
D03*
X0362001Y0495900D02*
D03*
X0366725D02*
D03*
X0242631Y0487730D02*
D03*
X0247355D02*
D03*
X0388162Y0687583D02*
D03*
X0383438D02*
D03*
X0478900Y0660523D02*
D03*
X0474175D02*
D03*
X0169308Y0470396D02*
D03*
X0164584D02*
D03*
X0474175Y0679087D02*
D03*
X0478900D02*
D03*
X0534289Y0230063D02*
D03*
X0539014D02*
D03*
X0564934D02*
D03*
X0569659D02*
D03*
X0396545Y0670413D02*
D03*
X0401269D02*
D03*
X0348824Y0672361D02*
D03*
X0353549D02*
D03*
X0348824Y0667465D02*
D03*
X0353549D02*
D03*
X0348824Y0662570D02*
D03*
X0353549D02*
D03*
X0376955Y0692663D02*
D03*
X0372230D02*
D03*
X0371089Y0445268D02*
D03*
X0366365D02*
D03*
X0376955Y0687583D02*
D03*
X0372230D02*
D03*
X0370552Y0657950D02*
D03*
X0375276D02*
D03*
X0375276Y0652304D02*
D03*
X0370552D02*
D03*
X0496468Y0451458D02*
D03*
X0491744D02*
D03*
X0581076Y0444308D02*
D03*
X0576351D02*
D03*
X0239585Y0436999D02*
D03*
X0234860D02*
D03*
X0415740Y0248900D02*
D03*
X0411016D02*
D03*
X0425660Y0612587D02*
D03*
X0430384D02*
D03*
X0479350Y0633525D02*
D03*
X0474625D02*
D03*
X0118686Y0211883D02*
D03*
X0123410D02*
D03*
X0687465Y0532254D02*
D03*
X0682740D02*
D03*
X0098686Y0211883D02*
D03*
X0103410D02*
D03*
X0533497Y0273680D02*
D03*
X0528773D02*
D03*
X0564142D02*
D03*
X0559418D02*
D03*
X0524048Y0245684D02*
D03*
X0528773D02*
D03*
X0554693D02*
D03*
X0559418D02*
D03*
X0579465Y0273680D02*
D03*
X0574740D02*
D03*
X0548820D02*
D03*
X0544095D02*
D03*
X0570016Y0245684D02*
D03*
X0565291D02*
D03*
X0539371D02*
D03*
X0534646D02*
D03*
X0479050Y0578574D02*
D03*
X0483775D02*
D03*
X0479050Y0573603D02*
D03*
X0483775D02*
D03*
X0533497Y0235215D02*
D03*
X0528773D02*
D03*
X0564142D02*
D03*
X0559418D02*
D03*
X0533497Y0239940D02*
D03*
X0528773D02*
D03*
X0564142D02*
D03*
X0559418D02*
D03*
G54D40*
X0443177Y0518299D02*
D03*
Y0522299D02*
D03*
X0594627Y0451340D02*
D03*
Y0447340D02*
D03*
X0548550Y0441658D02*
D03*
Y0445658D02*
D03*
X0438099Y0492771D02*
D03*
Y0488771D02*
D03*
X0189499Y0483871D02*
D03*
Y0479871D02*
D03*
X0316750Y0451058D02*
D03*
Y0455058D02*
D03*
X0538349Y0483871D02*
D03*
Y0479871D02*
D03*
X0448250Y0451058D02*
D03*
Y0455058D02*
D03*
X0199750Y0441658D02*
D03*
Y0445658D02*
D03*
X0312650Y0451058D02*
D03*
Y0455058D02*
D03*
X0544450Y0441658D02*
D03*
Y0445658D02*
D03*
X0444150Y0451058D02*
D03*
Y0455058D02*
D03*
X0195650Y0441800D02*
D03*
Y0445800D02*
D03*
X0427258Y0505100D02*
D03*
Y0509100D02*
D03*
X0306499Y0493071D02*
D03*
Y0489071D02*
D03*
X0521456Y0500300D02*
D03*
Y0496300D02*
D03*
G54D41*
X0466501Y0679587D02*
D03*
Y0683327D02*
D03*
Y0687067D02*
D03*
X0455674D02*
D03*
Y0679587D02*
D03*
X0466501Y0656282D02*
D03*
Y0660022D02*
D03*
Y0663763D02*
D03*
X0455674D02*
D03*
Y0656282D02*
D03*
G54D42*
X0294901Y0480366D02*
D03*
X0292302D02*
D03*
X0176828Y0470396D02*
D03*
X0174229D02*
D03*
X0419450Y0473400D02*
D03*
X0416852D02*
D03*
X0175972Y0461634D02*
D03*
X0173374D02*
D03*
G54D43*
X0499430Y0464083D02*
D03*
Y0470083D02*
D03*
X0599680Y0454683D02*
D03*
Y0448683D02*
D03*
X0366628Y0463255D02*
D03*
Y0469255D02*
D03*
X0153174Y0324001D02*
D03*
Y0330001D02*
D03*
X0148233Y0324001D02*
D03*
Y0330001D02*
D03*
X0153174Y0381591D02*
D03*
Y0375591D02*
D03*
X0148233Y0381591D02*
D03*
Y0375591D02*
D03*
X0635306Y0302805D02*
D03*
Y0296805D02*
D03*
X0640247Y0302805D02*
D03*
Y0296805D02*
D03*
X0635306Y0245216D02*
D03*
Y0251216D02*
D03*
X0640247Y0245216D02*
D03*
Y0251216D02*
D03*
G54D44*
X0245126Y0453338D02*
D03*
X0251126D02*
D03*
X0490505Y0476082D02*
D03*
X0496505D02*
D03*
X0590805Y0466632D02*
D03*
X0596805D02*
D03*
X0359005Y0476082D02*
D03*
X0365005D02*
D03*
X0242005Y0466732D02*
D03*
X0248005D02*
D03*
G54D45*
X0153741Y0348198D02*
D03*
X0159646D02*
D03*
X0153741Y0341399D02*
D03*
X0159646D02*
D03*
X0147667Y0348198D02*
D03*
X0141761D02*
D03*
X0147667Y0341443D02*
D03*
X0141761D02*
D03*
X0153741Y0357394D02*
D03*
X0159646D02*
D03*
X0153741Y0364194D02*
D03*
X0159646D02*
D03*
X0147667Y0357394D02*
D03*
X0141761D02*
D03*
X0147667Y0364194D02*
D03*
X0141761D02*
D03*
X0634739Y0285408D02*
D03*
X0628833D02*
D03*
X0640813Y0269412D02*
D03*
X0646719D02*
D03*
X0640813Y0285408D02*
D03*
X0646719D02*
D03*
X0634739Y0278609D02*
D03*
X0628833D02*
D03*
X0634739Y0262658D02*
D03*
X0628833D02*
D03*
X0640813Y0278609D02*
D03*
X0646719D02*
D03*
X0640813Y0262613D02*
D03*
X0646719D02*
D03*
X0634739Y0269412D02*
D03*
X0628833D02*
D03*
X0601827Y0491907D02*
D03*
X0607733D02*
D03*
G54D46*
X0169159Y0336933D02*
D03*
Y0331028D02*
D03*
X0132248Y0336933D02*
D03*
Y0331028D02*
D03*
X0169159Y0368659D02*
D03*
Y0374565D02*
D03*
X0132248Y0368659D02*
D03*
Y0374565D02*
D03*
X0656232Y0258148D02*
D03*
Y0252242D02*
D03*
X0619321Y0289874D02*
D03*
Y0295779D02*
D03*
X0656232Y0289874D02*
D03*
Y0295779D02*
D03*
X0619321Y0258148D02*
D03*
Y0252242D02*
D03*
X0373105Y0506273D02*
D03*
Y0500367D02*
D03*
X0501053Y0501757D02*
D03*
Y0507662D02*
D03*
X0254027Y0499012D02*
D03*
Y0493107D02*
D03*
G54D47*
X0352670Y0678397D02*
D03*
Y0684696D02*
D03*
X0402407Y0678090D02*
D03*
Y0684390D02*
D03*
Y0664823D02*
D03*
Y0658524D02*
D03*
X0337382Y0678397D02*
D03*
Y0684696D02*
D03*
X0418351Y0664823D02*
D03*
Y0658524D02*
D03*
M02*
