G04*
G04 #@! TF.GenerationSoftware,Altium Limited,Altium Designer,19.1.6 (110)*
G04*
G04 Layer_Color=128*
%FSAX25Y25*%
%MOIN*%
G70*
G01*
G75*
%ADD16C,0.01000*%
%ADD18C,0.00800*%
%ADD123C,0.00200*%
G54D16*
X0569450Y0049400D02*
Y0069683D01*
X0450550Y0050050D02*
X0710250D01*
Y0111050D01*
X0296550Y0050050D02*
Y0111050D01*
X0050050Y0050050D02*
Y0111050D01*
X0050100Y0050050D02*
X0207650D01*
X0050100D02*
Y0111050D01*
Y0111050D02*
X0710250D01*
X0050050Y0050050D02*
X0450550D01*
X0050050Y0070383D02*
X0710050D01*
X0050050Y0090717D02*
X0710250D01*
X0423250D02*
Y0111050D01*
X0507250Y0090717D02*
Y0111050D01*
G54D18*
X0590550Y0062964D02*
X0594549D01*
X0592549D01*
Y0056966D01*
X0600547Y0062964D02*
X0596548D01*
Y0056966D01*
X0600547D01*
X0596548Y0059965D02*
X0598547D01*
X0602546Y0062964D02*
X0606545Y0056966D01*
Y0062964D02*
X0602546Y0056966D01*
X0608544D02*
Y0060965D01*
X0610543Y0062964D01*
X0612543Y0060965D01*
Y0056966D01*
Y0059965D01*
X0608544D01*
X0618541Y0061965D02*
X0617541Y0062964D01*
X0615542D01*
X0614542Y0061965D01*
Y0060965D01*
X0615542Y0059965D01*
X0617541D01*
X0618541Y0058966D01*
Y0057966D01*
X0617541Y0056966D01*
X0615542D01*
X0614542Y0057966D01*
X0626538Y0062964D02*
X0628538D01*
X0627538D01*
Y0056966D01*
X0626538D01*
X0628538D01*
X0631537D02*
Y0062964D01*
X0635535Y0056966D01*
Y0062964D01*
X0641534Y0061965D02*
X0640534Y0062964D01*
X0638534D01*
X0637535Y0061965D01*
Y0060965D01*
X0638534Y0059965D01*
X0640534D01*
X0641534Y0058966D01*
Y0057966D01*
X0640534Y0056966D01*
X0638534D01*
X0637535Y0057966D01*
X0643533Y0062964D02*
X0647532D01*
X0645532D01*
Y0056966D01*
X0649531D02*
Y0062964D01*
X0652530D01*
X0653530Y0061965D01*
Y0059965D01*
X0652530Y0058966D01*
X0649531D01*
X0651530D02*
X0653530Y0056966D01*
X0655529Y0062964D02*
Y0057966D01*
X0656529Y0056966D01*
X0658528D01*
X0659528Y0057966D01*
Y0062964D01*
X0661527Y0056966D02*
Y0062964D01*
X0663526Y0060965D01*
X0665526Y0062964D01*
Y0056966D01*
X0671524Y0062964D02*
X0667525D01*
Y0056966D01*
X0671524D01*
X0667525Y0059965D02*
X0669524D01*
X0673523Y0056966D02*
Y0062964D01*
X0677522Y0056966D01*
Y0062964D01*
X0679521D02*
X0683520D01*
X0681521D01*
Y0056966D01*
X0689518Y0061965D02*
X0688518Y0062964D01*
X0686519D01*
X0685519Y0061965D01*
Y0060965D01*
X0686519Y0059965D01*
X0688518D01*
X0689518Y0058966D01*
Y0057966D01*
X0688518Y0056966D01*
X0686519D01*
X0685519Y0057966D01*
X0468099Y0062964D02*
X0466099Y0061965D01*
X0464100Y0059965D01*
Y0057966D01*
X0465100Y0056966D01*
X0467099D01*
X0468099Y0057966D01*
Y0058966D01*
X0467099Y0059965D01*
X0464100D01*
X0470098Y0060965D02*
X0471098D01*
Y0059965D01*
X0470098D01*
Y0060965D01*
Y0057966D02*
X0471098D01*
Y0056966D01*
X0470098D01*
Y0057966D01*
X0475096Y0061965D02*
X0476096Y0062964D01*
X0478095D01*
X0479095Y0061965D01*
Y0057966D01*
X0478095Y0056966D01*
X0476096D01*
X0475096Y0057966D01*
Y0061965D01*
X0485093Y0062964D02*
X0483094Y0061965D01*
X0481095Y0059965D01*
Y0057966D01*
X0482094Y0056966D01*
X0484094D01*
X0485093Y0057966D01*
Y0058966D01*
X0484094Y0059965D01*
X0481095D01*
X0487093Y0060965D02*
X0488092D01*
Y0059965D01*
X0487093D01*
Y0060965D01*
Y0057966D02*
X0488092D01*
Y0056966D01*
X0487093D01*
Y0057966D01*
X0492091Y0061965D02*
X0493091Y0062964D01*
X0495090D01*
X0496090Y0061965D01*
Y0060965D01*
X0495090Y0059965D01*
X0494090D01*
X0495090D01*
X0496090Y0058966D01*
Y0057966D01*
X0495090Y0056966D01*
X0493091D01*
X0492091Y0057966D01*
X0502088Y0062964D02*
X0500088Y0061965D01*
X0498089Y0059965D01*
Y0057966D01*
X0499089Y0056966D01*
X0501088D01*
X0502088Y0057966D01*
Y0058966D01*
X0501088Y0059965D01*
X0498089D01*
X0510085Y0056966D02*
Y0062964D01*
X0513084D01*
X0514084Y0061965D01*
Y0059965D01*
X0513084Y0058966D01*
X0510085D01*
X0516083Y0056966D02*
Y0062964D01*
X0518083Y0060965D01*
X0520082Y0062964D01*
Y0056966D01*
X0056400Y0083549D02*
Y0077551D01*
X0060399D01*
X0062398D02*
Y0081549D01*
X0064397Y0083549D01*
X0066397Y0081549D01*
Y0077551D01*
Y0080550D01*
X0062398D01*
X0068396Y0083549D02*
Y0082549D01*
X0070395Y0080550D01*
X0072395Y0082549D01*
Y0083549D01*
X0070395Y0080550D02*
Y0077551D01*
X0078393Y0083549D02*
X0074394D01*
Y0077551D01*
X0078393D01*
X0074394Y0080550D02*
X0076394D01*
X0080392Y0077551D02*
Y0083549D01*
X0083391D01*
X0084391Y0082549D01*
Y0080550D01*
X0083391Y0079550D01*
X0080392D01*
X0082392D02*
X0084391Y0077551D01*
X0092388D02*
Y0083549D01*
X0096387Y0077551D01*
Y0083549D01*
X0098386Y0077551D02*
Y0081549D01*
X0100386Y0083549D01*
X0102385Y0081549D01*
Y0077551D01*
Y0080550D01*
X0098386D01*
X0104385Y0077551D02*
Y0083549D01*
X0106384Y0081549D01*
X0108383Y0083549D01*
Y0077551D01*
X0114381Y0083549D02*
X0110382D01*
Y0077551D01*
X0114381D01*
X0110382Y0080550D02*
X0112382D01*
X0122379Y0079550D02*
X0126377D01*
X0122379Y0081549D02*
X0126377D01*
X0304050Y0103831D02*
Y0097833D01*
X0307049D01*
X0308049Y0098833D01*
Y0099833D01*
X0307049Y0100832D01*
X0304050D01*
X0307049D01*
X0308049Y0101832D01*
Y0102832D01*
X0307049Y0103831D01*
X0304050D01*
X0313047D02*
X0311048D01*
X0310048Y0102832D01*
Y0098833D01*
X0311048Y0097833D01*
X0313047D01*
X0314047Y0098833D01*
Y0102832D01*
X0313047Y0103831D01*
X0316046Y0097833D02*
Y0101832D01*
X0318045Y0103831D01*
X0320045Y0101832D01*
Y0097833D01*
Y0100832D01*
X0316046D01*
X0322044Y0097833D02*
Y0103831D01*
X0325043D01*
X0326043Y0102832D01*
Y0100832D01*
X0325043Y0099833D01*
X0322044D01*
X0324043D02*
X0326043Y0097833D01*
X0328042Y0103831D02*
Y0097833D01*
X0331041D01*
X0332041Y0098833D01*
Y0102832D01*
X0331041Y0103831D01*
X0328042D01*
X0341038Y0097833D02*
Y0103831D01*
X0343037D02*
Y0097833D01*
X0340038Y0101832D02*
X0343037D01*
X0344037D01*
X0340038Y0099833D02*
X0344037D01*
X0346036Y0101832D02*
X0347036D01*
Y0100832D01*
X0346036D01*
Y0101832D01*
Y0098833D02*
X0347036D01*
Y0097833D01*
X0346036D01*
Y0098833D01*
X0358600Y0097833D02*
Y0103831D01*
X0361599D01*
X0362599Y0102832D01*
Y0100832D01*
X0361599Y0099833D01*
X0358600D01*
X0364598Y0097833D02*
Y0103831D01*
X0367597D01*
X0368597Y0102832D01*
Y0100832D01*
X0367597Y0099833D01*
X0364598D01*
X0366597D02*
X0368597Y0097833D01*
X0373595Y0103831D02*
X0371596D01*
X0370596Y0102832D01*
Y0098833D01*
X0371596Y0097833D01*
X0373595D01*
X0374595Y0098833D01*
Y0102832D01*
X0373595Y0103831D01*
X0380593Y0102832D02*
X0379593Y0103831D01*
X0377594D01*
X0376594Y0102832D01*
Y0098833D01*
X0377594Y0097833D01*
X0379593D01*
X0380593Y0098833D01*
X0382592Y0102832D02*
X0383592Y0103831D01*
X0385591D01*
X0386591Y0102832D01*
Y0098833D01*
X0385591Y0097833D01*
X0383592D01*
X0382592Y0098833D01*
Y0102832D01*
X0392589Y0103831D02*
X0388590D01*
Y0100832D01*
X0390590Y0101832D01*
X0391589D01*
X0392589Y0100832D01*
Y0098833D01*
X0391589Y0097833D01*
X0389590D01*
X0388590Y0098833D01*
X0397587Y0097833D02*
Y0103831D01*
X0394588Y0100832D01*
X0398587D01*
X0472200Y0103831D02*
Y0097833D01*
X0475199D01*
X0476199Y0098833D01*
Y0102832D01*
X0475199Y0103831D01*
X0472200D01*
X0056400Y0097833D02*
Y0101832D01*
X0058399Y0103831D01*
X0060399Y0101832D01*
Y0097833D01*
Y0100832D01*
X0056400D01*
X0062398Y0103831D02*
Y0097833D01*
X0066397D01*
X0068396Y0103831D02*
Y0097833D01*
X0072395D01*
X0080392D02*
Y0101832D01*
X0082392Y0103831D01*
X0084391Y0101832D01*
Y0097833D01*
Y0100832D01*
X0080392D01*
X0086390Y0097833D02*
Y0103831D01*
X0089389D01*
X0090389Y0102832D01*
Y0100832D01*
X0089389Y0099833D01*
X0086390D01*
X0088390D02*
X0090389Y0097833D01*
X0092388Y0103831D02*
X0096387D01*
X0094388D01*
Y0097833D01*
X0098386Y0103831D02*
Y0097833D01*
X0100386Y0099833D01*
X0102385Y0097833D01*
Y0103831D01*
X0107384D02*
X0105384D01*
X0104385Y0102832D01*
Y0098833D01*
X0105384Y0097833D01*
X0107384D01*
X0108383Y0098833D01*
Y0102832D01*
X0107384Y0103831D01*
X0110382Y0097833D02*
Y0103831D01*
X0113382D01*
X0114381Y0102832D01*
Y0100832D01*
X0113382Y0099833D01*
X0110382D01*
X0112382D02*
X0114381Y0097833D01*
X0116381Y0103831D02*
Y0097833D01*
Y0099833D01*
X0120379Y0103831D01*
X0117380Y0100832D01*
X0120379Y0097833D01*
X0128377Y0103831D02*
Y0099833D01*
X0130376Y0097833D01*
X0132375Y0099833D01*
Y0103831D01*
X0134375D02*
X0136374D01*
X0135374D01*
Y0097833D01*
X0134375D01*
X0136374D01*
X0143372Y0103831D02*
X0139373D01*
Y0097833D01*
X0143372D01*
X0139373Y0100832D02*
X0141373D01*
X0145371Y0103831D02*
Y0097833D01*
X0147371Y0099833D01*
X0149370Y0097833D01*
Y0103831D01*
X0155368D02*
X0151369D01*
Y0097833D01*
X0155368D01*
X0151369Y0100832D02*
X0153369D01*
X0157367Y0103831D02*
Y0097833D01*
X0160366D01*
X0161366Y0098833D01*
Y0102832D01*
X0160366Y0103831D01*
X0157367D01*
X0173362D02*
X0169363D01*
Y0100832D01*
X0171363D01*
X0169363D01*
Y0097833D01*
X0175362D02*
Y0103831D01*
X0178360D01*
X0179360Y0102832D01*
Y0100832D01*
X0178360Y0099833D01*
X0175362D01*
X0177361D02*
X0179360Y0097833D01*
X0184359Y0103831D02*
X0182359D01*
X0181360Y0102832D01*
Y0098833D01*
X0182359Y0097833D01*
X0184359D01*
X0185358Y0098833D01*
Y0102832D01*
X0184359Y0103831D01*
X0187358Y0097833D02*
Y0103831D01*
X0189357Y0101832D01*
X0191356Y0103831D01*
Y0097833D01*
X0199354Y0103831D02*
X0203352D01*
X0201353D01*
Y0097833D01*
X0208351Y0103831D02*
X0206351D01*
X0205352Y0102832D01*
Y0098833D01*
X0206351Y0097833D01*
X0208351D01*
X0209350Y0098833D01*
Y0102832D01*
X0208351Y0103831D01*
X0211350Y0097833D02*
Y0103831D01*
X0214349D01*
X0215349Y0102832D01*
Y0100832D01*
X0214349Y0099833D01*
X0211350D01*
X0227345Y0102832D02*
X0226345Y0103831D01*
X0224346D01*
X0223346Y0102832D01*
Y0101832D01*
X0224346Y0100832D01*
X0226345D01*
X0227345Y0099833D01*
Y0098833D01*
X0226345Y0097833D01*
X0224346D01*
X0223346Y0098833D01*
X0229344Y0103831D02*
X0231343D01*
X0230344D01*
Y0097833D01*
X0229344D01*
X0231343D01*
X0234342Y0103831D02*
Y0097833D01*
X0237341D01*
X0238341Y0098833D01*
Y0102832D01*
X0237341Y0103831D01*
X0234342D01*
X0244339D02*
X0240340D01*
Y0097833D01*
X0244339D01*
X0240340Y0100832D02*
X0242340D01*
X0308249Y0061965D02*
X0307249Y0062964D01*
X0305250D01*
X0304250Y0061965D01*
Y0057966D01*
X0305250Y0056966D01*
X0307249D01*
X0308249Y0057966D01*
Y0059965D01*
X0306249D01*
X0314247Y0062964D02*
X0310248D01*
Y0056966D01*
X0314247D01*
X0310248Y0059965D02*
X0312247D01*
X0316246Y0056966D02*
Y0062964D01*
X0320245Y0056966D01*
Y0062964D01*
X0326243D02*
X0322244D01*
Y0056966D01*
X0326243D01*
X0322244Y0059965D02*
X0324243D01*
X0328242Y0056966D02*
Y0062964D01*
X0331241D01*
X0332241Y0061965D01*
Y0059965D01*
X0331241Y0058966D01*
X0328242D01*
X0330242D02*
X0332241Y0056966D01*
X0334240D02*
Y0060965D01*
X0336240Y0062964D01*
X0338239Y0060965D01*
Y0056966D01*
Y0059965D01*
X0334240D01*
X0340238Y0062964D02*
X0344237D01*
X0342238D01*
Y0056966D01*
X0350235Y0062964D02*
X0346236D01*
Y0056966D01*
X0350235D01*
X0346236Y0059965D02*
X0348236D01*
X0352235Y0062964D02*
Y0056966D01*
X0355234D01*
X0356233Y0057966D01*
Y0061965D01*
X0355234Y0062964D01*
X0352235D01*
X0382225Y0060965D02*
X0383225D01*
Y0059965D01*
X0382225D01*
Y0060965D01*
Y0057966D02*
X0383225D01*
Y0056966D01*
X0382225D01*
Y0057966D01*
X0395199Y0056966D02*
X0391200D01*
X0395199Y0060965D01*
Y0061965D01*
X0394199Y0062964D01*
X0392200D01*
X0391200Y0061965D01*
X0397198Y0056966D02*
X0401197Y0060965D01*
X0403196Y0056966D02*
X0405196D01*
X0404196D01*
Y0062964D01*
X0403196Y0061965D01*
X0408194D02*
X0409194Y0062964D01*
X0411194D01*
X0412193Y0061965D01*
Y0057966D01*
X0411194Y0056966D01*
X0409194D01*
X0408194Y0057966D01*
Y0061965D01*
X0414193Y0056966D02*
X0418191Y0060965D01*
X0424189Y0056966D02*
X0420191D01*
X0424189Y0060965D01*
Y0061965D01*
X0423190Y0062964D01*
X0421190D01*
X0420191Y0061965D01*
X0426189D02*
X0427188Y0062964D01*
X0429188D01*
X0430187Y0061965D01*
Y0057966D01*
X0429188Y0056966D01*
X0427188D01*
X0426189Y0057966D01*
Y0061965D01*
X0436186Y0056966D02*
X0432187D01*
X0436186Y0060965D01*
Y0061965D01*
X0435186Y0062964D01*
X0433186D01*
X0432187Y0061965D01*
X0438185D02*
X0439185Y0062964D01*
X0441184D01*
X0442183Y0061965D01*
Y0057966D01*
X0441184Y0056966D01*
X0439185D01*
X0438185Y0057966D01*
Y0061965D01*
X0443050Y0097833D02*
Y0103831D01*
X0446049D01*
X0447049Y0102832D01*
Y0100832D01*
X0446049Y0099833D01*
X0443050D01*
X0445049D02*
X0447049Y0097833D01*
X0453047Y0103831D02*
X0449048D01*
Y0097833D01*
X0453047D01*
X0449048Y0100832D02*
X0451047D01*
X0455046Y0103831D02*
Y0099833D01*
X0457046Y0097833D01*
X0459045Y0099833D01*
Y0103831D01*
X0461044Y0101832D02*
X0462044D01*
Y0100832D01*
X0461044D01*
Y0101832D01*
Y0098833D02*
X0462044D01*
Y0097833D01*
X0461044D01*
Y0098833D01*
X0530849Y0102832D02*
X0529849Y0103831D01*
X0527850D01*
X0526850Y0102832D01*
Y0101832D01*
X0527850Y0100832D01*
X0529849D01*
X0530849Y0099833D01*
Y0098833D01*
X0529849Y0097833D01*
X0527850D01*
X0526850Y0098833D01*
X0532848Y0103831D02*
Y0099833D01*
X0534847Y0097833D01*
X0536847Y0099833D01*
Y0103831D01*
X0538846Y0097833D02*
Y0103831D01*
X0542845Y0097833D01*
Y0103831D01*
X0550842Y0097833D02*
Y0103831D01*
X0553841D01*
X0554841Y0102832D01*
Y0100832D01*
X0553841Y0099833D01*
X0550842D01*
X0552842D02*
X0554841Y0097833D01*
X0560839Y0103831D02*
X0556840D01*
Y0097833D01*
X0560839D01*
X0556840Y0100832D02*
X0558840D01*
X0562838Y0103831D02*
Y0099833D01*
X0564838Y0097833D01*
X0566837Y0099833D01*
Y0103831D01*
X0568836Y0101832D02*
X0569836D01*
Y0100832D01*
X0568836D01*
Y0101832D01*
Y0098833D02*
X0569836D01*
Y0097833D01*
X0568836D01*
Y0098833D01*
X0577450Y0097833D02*
X0579449D01*
X0578450D01*
Y0103831D01*
X0577450Y0102832D01*
X0586447Y0103831D02*
Y0097833D01*
X0583448D01*
X0582448Y0098833D01*
Y0100832D01*
X0583448Y0101832D01*
X0586447D01*
X0589446Y0097833D02*
Y0102832D01*
Y0100832D01*
X0588446D01*
X0590446D01*
X0589446D01*
Y0102832D01*
X0590446Y0103831D01*
X0593445Y0102832D02*
X0594445Y0103831D01*
X0596444D01*
X0597443Y0102832D01*
Y0101832D01*
X0596444Y0100832D01*
X0595444D01*
X0596444D01*
X0597443Y0099833D01*
Y0098833D01*
X0596444Y0097833D01*
X0594445D01*
X0593445Y0098833D01*
X0603442Y0097833D02*
X0599443D01*
X0603442Y0101832D01*
Y0102832D01*
X0602442Y0103831D01*
X0600443D01*
X0599443Y0102832D01*
X0606441Y0101832D02*
X0608440D01*
X0609440Y0100832D01*
Y0097833D01*
X0606441D01*
X0605441Y0098833D01*
X0606441Y0099833D01*
X0609440D01*
X0615438Y0097833D02*
X0611439D01*
X0615438Y0101832D01*
Y0102832D01*
X0614438Y0103831D01*
X0612439D01*
X0611439Y0102832D01*
X0617437Y0098833D02*
X0618437Y0097833D01*
X0620436D01*
X0621436Y0098833D01*
Y0102832D01*
X0620436Y0103831D01*
X0618437D01*
X0617437Y0102832D01*
Y0101832D01*
X0618437Y0100832D01*
X0621436D01*
X0626434Y0097833D02*
X0624435D01*
X0623435Y0098833D01*
Y0100832D01*
X0624435Y0101832D01*
X0626434D01*
X0627434Y0100832D01*
Y0099833D01*
X0623435D01*
X0629433Y0103831D02*
X0633432D01*
Y0102832D01*
X0629433Y0098833D01*
Y0097833D01*
X0639430Y0101832D02*
X0636431D01*
X0635431Y0100832D01*
Y0098833D01*
X0636431Y0097833D01*
X0639430D01*
X0645428Y0101832D02*
X0642429D01*
X0641429Y0100832D01*
Y0098833D01*
X0642429Y0097833D01*
X0645428D01*
X0647427Y0103831D02*
X0651426D01*
Y0102832D01*
X0647427Y0098833D01*
Y0097833D01*
X0654425D02*
Y0102832D01*
Y0100832D01*
X0653425D01*
X0655425D01*
X0654425D01*
Y0102832D01*
X0655425Y0103831D01*
X0659423Y0101832D02*
X0661423D01*
X0662423Y0100832D01*
Y0097833D01*
X0659423D01*
X0658424Y0098833D01*
X0659423Y0099833D01*
X0662423D01*
X0668421Y0097833D02*
X0664422D01*
X0668421Y0101832D01*
Y0102832D01*
X0667421Y0103831D01*
X0665421D01*
X0664422Y0102832D01*
X0671420Y0097833D02*
Y0102832D01*
Y0100832D01*
X0670420D01*
X0672419D01*
X0671420D01*
Y0102832D01*
X0672419Y0103831D01*
X0679417D02*
Y0097833D01*
X0676418D01*
X0675418Y0098833D01*
Y0100832D01*
X0676418Y0101832D01*
X0679417D01*
X0684415Y0097833D02*
X0682416D01*
X0681416Y0098833D01*
Y0100832D01*
X0682416Y0101832D01*
X0684415D01*
X0685415Y0100832D01*
Y0099833D01*
X0681416D01*
X0691413Y0103831D02*
X0689414Y0102832D01*
X0687414Y0100832D01*
Y0098833D01*
X0688414Y0097833D01*
X0690414D01*
X0691413Y0098833D01*
Y0099833D01*
X0690414Y0100832D01*
X0687414D01*
X0693412Y0098833D02*
X0694412Y0097833D01*
X0696412D01*
X0697411Y0098833D01*
Y0102832D01*
X0696412Y0103831D01*
X0694412D01*
X0693412Y0102832D01*
Y0101832D01*
X0694412Y0100832D01*
X0697411D01*
X0703409Y0097833D02*
X0699410D01*
X0703409Y0101832D01*
Y0102832D01*
X0702410Y0103831D01*
X0700410D01*
X0699410Y0102832D01*
X0705409D02*
X0706408Y0103831D01*
X0708408D01*
X0709407Y0102832D01*
Y0101832D01*
X0708408Y0100832D01*
X0709407Y0099833D01*
Y0098833D01*
X0708408Y0097833D01*
X0706408D01*
X0705409Y0098833D01*
Y0099833D01*
X0706408Y0100832D01*
X0705409Y0101832D01*
Y0102832D01*
X0706408Y0100832D02*
X0708408D01*
X0711407Y0097833D02*
X0713406D01*
X0712406D01*
Y0103831D01*
X0711407Y0102832D01*
X0717405Y0097833D02*
Y0102832D01*
Y0100832D01*
X0716405D01*
X0718404D01*
X0717405D01*
Y0102832D01*
X0718404Y0103831D01*
X0725402D02*
Y0097833D01*
X0722403D01*
X0721403Y0098833D01*
Y0100832D01*
X0722403Y0101832D01*
X0725402D01*
X0731400Y0097833D02*
X0727401D01*
X0731400Y0101832D01*
Y0102832D01*
X0730401Y0103831D01*
X0728401D01*
X0727401Y0102832D01*
X0733399Y0097833D02*
X0735399D01*
X0734399D01*
Y0103831D01*
X0733399Y0102832D01*
X0738398Y0103831D02*
Y0097833D01*
X0741397D01*
X0742397Y0098833D01*
Y0099833D01*
Y0100832D01*
X0741397Y0101832D01*
X0738398D01*
X0748395Y0103831D02*
Y0097833D01*
X0745396D01*
X0744396Y0098833D01*
Y0100832D01*
X0745396Y0101832D01*
X0748395D01*
X0753393Y0097833D02*
Y0103831D01*
X0750394Y0100832D01*
X0754393D01*
X0756392Y0097833D02*
X0758391D01*
X0757392D01*
Y0103831D01*
X0756392Y0102832D01*
X0761390Y0103831D02*
Y0097833D01*
X0764390D01*
X0765389Y0098833D01*
Y0099833D01*
Y0100832D01*
X0764390Y0101832D01*
X0761390D01*
X0771387Y0103831D02*
X0769388Y0102832D01*
X0767388Y0100832D01*
Y0098833D01*
X0768388Y0097833D01*
X0770388D01*
X0771387Y0098833D01*
Y0099833D01*
X0770388Y0100832D01*
X0767388D01*
X0773387Y0103831D02*
X0777385D01*
Y0102832D01*
X0773387Y0098833D01*
Y0097833D01*
X0782384D02*
X0780384D01*
X0779385Y0098833D01*
Y0100832D01*
X0780384Y0101832D01*
X0782384D01*
X0783383Y0100832D01*
Y0099833D01*
X0779385D01*
X0785383Y0102832D02*
X0786382Y0103831D01*
X0788382D01*
X0789381Y0102832D01*
Y0101832D01*
X0788382Y0100832D01*
X0787382D01*
X0788382D01*
X0789381Y0099833D01*
Y0098833D01*
X0788382Y0097833D01*
X0786382D01*
X0785383Y0098833D01*
X0791381Y0103831D02*
X0795379D01*
Y0102832D01*
X0791381Y0098833D01*
Y0097833D01*
X0800378D02*
X0798379D01*
X0797379Y0098833D01*
Y0100832D01*
X0798379Y0101832D01*
X0800378D01*
X0801377Y0100832D01*
Y0099833D01*
X0797379D01*
X0804377Y0101832D02*
X0806376D01*
X0807376Y0100832D01*
Y0097833D01*
X0804377D01*
X0803377Y0098833D01*
X0804377Y0099833D01*
X0807376D01*
X0817372Y0097833D02*
X0815373D01*
Y0103831D01*
X0817372D01*
X0820371D02*
Y0097833D01*
X0824370D01*
X0827369D02*
X0829368D01*
X0830368Y0098833D01*
Y0100832D01*
X0829368Y0101832D01*
X0827369D01*
X0826369Y0100832D01*
Y0098833D01*
X0827369Y0097833D01*
X0836366Y0101832D02*
X0833367D01*
X0832368Y0100832D01*
Y0098833D01*
X0833367Y0097833D01*
X0836366D01*
X0839365Y0101832D02*
X0841365D01*
X0842364Y0100832D01*
Y0097833D01*
X0839365D01*
X0838366Y0098833D01*
X0839365Y0099833D01*
X0842364D01*
X0844364Y0097833D02*
X0846363D01*
X0845363D01*
Y0103831D01*
X0844364D01*
X0849362Y0097833D02*
X0851361D01*
X0850362D01*
Y0103831D01*
X0849362D01*
X0854360Y0101832D02*
Y0098833D01*
X0855360Y0097833D01*
X0858359D01*
Y0096834D01*
X0857359Y0095834D01*
X0856360D01*
X0858359Y0097833D02*
Y0101832D01*
X0866356Y0097833D02*
Y0103831D01*
X0868356Y0101832D01*
X0870355Y0103831D01*
Y0097833D01*
X0873354D02*
X0875354D01*
X0876353Y0098833D01*
Y0100832D01*
X0875354Y0101832D01*
X0873354D01*
X0872355Y0100832D01*
Y0098833D01*
X0873354Y0097833D01*
X0882351Y0103831D02*
Y0097833D01*
X0879352D01*
X0878353Y0098833D01*
Y0100832D01*
X0879352Y0101832D01*
X0882351D01*
X0884351Y0097833D02*
X0886350D01*
X0885350D01*
Y0101832D01*
X0884351D01*
X0890349Y0097833D02*
Y0102832D01*
Y0100832D01*
X0889349D01*
X0891348D01*
X0890349D01*
Y0102832D01*
X0891348Y0103831D01*
X0894347Y0097833D02*
X0896347D01*
X0895347D01*
Y0101832D01*
X0894347D01*
X0902345Y0097833D02*
X0900346D01*
X0899346Y0098833D01*
Y0100832D01*
X0900346Y0101832D01*
X0902345D01*
X0903345Y0100832D01*
Y0099833D01*
X0899346D01*
X0909343Y0103831D02*
Y0097833D01*
X0906344D01*
X0905344Y0098833D01*
Y0100832D01*
X0906344Y0101832D01*
X0909343D01*
X0911342Y0097833D02*
X0913341D01*
Y0103831D01*
X0911342D01*
X0136950Y0083549D02*
Y0077551D01*
X0139949D01*
X0140949Y0078550D01*
Y0082549D01*
X0139949Y0083549D01*
X0136950D01*
X0142948Y0081549D02*
Y0077551D01*
Y0079550D01*
X0143948Y0080550D01*
X0144947Y0081549D01*
X0145947D01*
X0148946Y0077551D02*
X0150945D01*
X0149946D01*
Y0081549D01*
X0148946D01*
X0153945Y0077551D02*
X0155944D01*
X0154944D01*
Y0083549D01*
X0153945D01*
X0158943Y0077551D02*
X0160942D01*
X0159943D01*
Y0083549D01*
X0158943D01*
X0173938Y0082549D02*
X0172938Y0083549D01*
X0170939D01*
X0169939Y0082549D01*
Y0078550D01*
X0170939Y0077551D01*
X0172938D01*
X0173938Y0078550D01*
Y0080550D01*
X0171939D01*
X0175937Y0081549D02*
Y0078550D01*
X0176937Y0077551D01*
X0179936D01*
Y0081549D01*
X0181935Y0077551D02*
X0183935D01*
X0182935D01*
Y0081549D01*
X0181935D01*
X0190933Y0083549D02*
Y0077551D01*
X0187934D01*
X0186934Y0078550D01*
Y0080550D01*
X0187934Y0081549D01*
X0190933D01*
X0195931Y0077551D02*
X0193932D01*
X0192932Y0078550D01*
Y0080550D01*
X0193932Y0081549D01*
X0195931D01*
X0196931Y0080550D01*
Y0079550D01*
X0192932D01*
G54D123*
X0150645Y0189384D02*
X0162457D01*
X0156551Y0183479D02*
Y0195290D01*
X0183716Y0189384D02*
X0195527D01*
X0189622Y0183479D02*
Y0195290D01*
X0153008Y0218124D02*
X0160094D01*
X0156551Y0214581D02*
Y0221668D01*
X0169543Y0218124D02*
X0176630D01*
X0173086Y0214581D02*
Y0221668D01*
X0186079Y0218124D02*
X0193165D01*
X0189622Y0214581D02*
Y0221668D01*
X0153008Y0239778D02*
X0160094D01*
X0156551Y0236235D02*
Y0243321D01*
X0169543Y0239778D02*
X0176630D01*
X0173086Y0236235D02*
Y0243321D01*
X0186079Y0239778D02*
X0193165D01*
X0189622Y0236235D02*
Y0243321D01*
X0657804Y0687300D02*
X0661804D01*
X0659804Y0685300D02*
Y0689300D01*
X0335212Y0257495D02*
X0339149D01*
X0337180Y0255526D02*
Y0259463D01*
X0502535Y0257495D02*
X0506472D01*
X0504503Y0255526D02*
Y0259463D01*
X0502535Y0267731D02*
X0506472D01*
X0504503Y0265763D02*
Y0269700D01*
X0335212Y0267731D02*
X0339149D01*
X0337180Y0265763D02*
Y0269700D01*
X0486393Y0247948D02*
X0491117D01*
X0488755Y0245585D02*
Y0250310D01*
X0350566Y0247948D02*
X0355291D01*
X0352928Y0245585D02*
Y0250310D01*
X0486393Y0277278D02*
X0491117D01*
X0488755Y0274916D02*
Y0279641D01*
X0350566Y0277278D02*
X0355291D01*
X0352928Y0274916D02*
Y0279641D01*
X0209660Y0414016D02*
X0213660D01*
X0211660Y0412016D02*
Y0416016D01*
X0335212Y0596077D02*
X0339149D01*
X0337180Y0594108D02*
Y0598045D01*
X0502535Y0596077D02*
X0506472D01*
X0504503Y0594108D02*
Y0598045D01*
X0502535Y0606313D02*
X0506472D01*
X0504503Y0604345D02*
Y0608282D01*
X0335212Y0606313D02*
X0339149D01*
X0337180Y0604345D02*
Y0608282D01*
X0486393Y0586530D02*
X0491117D01*
X0488755Y0584167D02*
Y0588892D01*
X0350566Y0586530D02*
X0355291D01*
X0352928Y0584167D02*
Y0588892D01*
X0486393Y0615860D02*
X0491117D01*
X0488755Y0613498D02*
Y0618223D01*
X0350566Y0615860D02*
X0355291D01*
X0352928Y0613498D02*
Y0618223D01*
X0091561Y0521763D02*
X0095561D01*
X0093561Y0519763D02*
Y0523763D01*
X0302055Y0686549D02*
X0306055D01*
X0304055Y0684549D02*
Y0688549D01*
X0693127Y0407791D02*
X0697127D01*
X0695127Y0405791D02*
Y0409791D01*
X0577173Y0211727D02*
X0581173D01*
X0579173Y0209727D02*
Y0213727D01*
X0208201Y0294110D02*
X0212200D01*
X0210201Y0292110D02*
Y0296110D01*
X0130818Y0683630D02*
X0134818D01*
X0132818Y0681630D02*
Y0685630D01*
X0688050Y0176500D02*
X0704050D01*
X0696050Y0168500D02*
Y0184500D01*
X0688050Y0687300D02*
X0704050D01*
X0696050Y0679300D02*
Y0695300D01*
X0084350Y0176500D02*
X0100350D01*
X0092350Y0168500D02*
Y0184500D01*
X0084350Y0687300D02*
X0100350D01*
X0092350Y0679300D02*
Y0695300D01*
X0688966Y0502200D02*
X0700776D01*
X0694871Y0496294D02*
Y0508106D01*
X0087644Y0441700D02*
X0099455D01*
X0093550Y0435794D02*
Y0447606D01*
X0087644Y0502200D02*
X0099455D01*
X0093550Y0496294D02*
Y0508106D01*
X0688966Y0441700D02*
X0700776D01*
X0694871Y0435794D02*
Y0447606D01*
X0640808Y0274011D02*
X0641595D01*
X0641201Y0273617D02*
Y0274404D01*
X0637383Y0274011D02*
X0638170D01*
X0637776Y0273617D02*
Y0274404D01*
X0633957Y0274011D02*
X0634745D01*
X0634351Y0273617D02*
Y0274404D01*
X0133637Y0252046D02*
X0134424D01*
X0134031Y0251652D02*
Y0252439D01*
X0129700Y0252046D02*
X0130487D01*
X0130094Y0251652D02*
Y0252439D01*
X0129700Y0248109D02*
X0130487D01*
X0130094Y0247715D02*
Y0248502D01*
X0133637Y0248109D02*
X0134424D01*
X0134031Y0247715D02*
Y0248502D01*
X0153735Y0352796D02*
X0154523D01*
X0154129Y0352402D02*
Y0353190D01*
X0150310Y0352796D02*
X0151098D01*
X0150704Y0352402D02*
Y0353190D01*
X0146885Y0352796D02*
X0147672D01*
X0147279Y0352402D02*
Y0353190D01*
X0578607Y0418519D02*
X0579407D01*
X0579007Y0418119D02*
Y0418919D01*
X0578647Y0403539D02*
X0579447D01*
X0579047Y0403139D02*
Y0403939D01*
X0578659Y0384210D02*
X0579459D01*
X0579060Y0383810D02*
Y0384610D01*
X0578717Y0363596D02*
X0579517D01*
X0579117Y0363196D02*
Y0363996D01*
X0573633Y0348508D02*
X0574433D01*
X0574033Y0348108D02*
Y0348908D01*
X0562416Y0337558D02*
X0563216D01*
X0562816Y0337158D02*
Y0337958D01*
X0527255Y0315750D02*
X0528055D01*
X0527655Y0315350D02*
Y0316149D01*
X0507708Y0315765D02*
X0508508D01*
X0508108Y0315365D02*
Y0316165D01*
X0490024Y0305550D02*
X0490824D01*
X0490424Y0305150D02*
Y0305950D01*
X0478339Y0294515D02*
X0479139D01*
X0478739Y0294115D02*
Y0294915D01*
X0472769Y0299367D02*
X0473569D01*
X0473169Y0298967D02*
Y0299767D01*
X0485092Y0311307D02*
X0485892D01*
X0485492Y0310907D02*
Y0311707D01*
X0566751Y0353634D02*
X0567551D01*
X0567151Y0353234D02*
Y0354034D01*
X0536179Y0344792D02*
X0536979D01*
X0536579Y0344392D02*
Y0345192D01*
X0531333Y0332775D02*
X0532133D01*
X0531733Y0332375D02*
Y0333175D01*
X0535198Y0323784D02*
X0535998D01*
X0535598Y0323384D02*
Y0324184D01*
X0489994Y0294769D02*
X0490794D01*
X0490394Y0294369D02*
Y0295169D01*
X0517764Y0306539D02*
X0518564D01*
X0518164Y0306139D02*
Y0306939D01*
X0550656Y0312402D02*
X0551456D01*
X0551056Y0312002D02*
Y0312802D01*
X0564785Y0327103D02*
X0565585D01*
X0565185Y0326703D02*
Y0327503D01*
X0578160Y0340627D02*
X0578960D01*
X0578560Y0340227D02*
Y0341027D01*
X0502303Y0349450D02*
X0503103D01*
X0502703Y0349050D02*
Y0349850D01*
X0501880Y0357449D02*
X0502680D01*
X0502280Y0357049D02*
Y0357849D01*
X0431009Y0305849D02*
X0431809D01*
X0431409Y0305449D02*
Y0306249D01*
X0472954Y0347710D02*
X0473754D01*
X0473354Y0347310D02*
Y0348110D01*
X0421370Y0290909D02*
X0422170D01*
X0421770Y0290509D02*
Y0291309D01*
X0421358Y0306171D02*
X0422158D01*
X0421758Y0305771D02*
Y0306571D01*
X0379815Y0416699D02*
X0380615D01*
X0380215Y0416299D02*
Y0417099D01*
X0359998Y0413652D02*
X0360798D01*
X0360398Y0413252D02*
Y0414052D01*
X0374119Y0399651D02*
X0374919D01*
X0374519Y0399251D02*
Y0400051D01*
X0336378Y0387649D02*
X0337177D01*
X0336777Y0387249D02*
Y0388049D01*
X0318394Y0411662D02*
X0319194D01*
X0318794Y0411262D02*
Y0412062D01*
X0380883Y0313157D02*
X0381683D01*
X0381283Y0312757D02*
Y0313557D01*
X0388865Y0313157D02*
X0389665D01*
X0389265Y0312757D02*
Y0313557D01*
X0402593Y0313157D02*
X0403393D01*
X0402993Y0312757D02*
Y0313557D01*
X0402638Y0296828D02*
X0403438D01*
X0403038Y0296427D02*
Y0297228D01*
X0346496Y0310865D02*
X0347296D01*
X0346896Y0310465D02*
Y0311265D01*
X0346446Y0326298D02*
X0347246D01*
X0346846Y0325898D02*
Y0326698D01*
X0346488Y0343767D02*
X0347288D01*
X0346888Y0343367D02*
Y0344167D01*
X0345074Y0373209D02*
X0345874D01*
X0345474Y0372809D02*
Y0373609D01*
X0105311Y0195777D02*
X0106111D01*
X0105711Y0195377D02*
Y0196177D01*
X0128915Y0195766D02*
X0129715D01*
X0129315Y0195366D02*
Y0196166D01*
X0209554Y0195920D02*
X0210354D01*
X0209954Y0195520D02*
Y0196320D01*
X0236348Y0195871D02*
X0237148D01*
X0236748Y0195471D02*
Y0196271D01*
X0265540Y0195846D02*
X0266340D01*
X0265940Y0195446D02*
Y0196246D01*
X0329099Y0195912D02*
X0329899D01*
X0329499Y0195512D02*
Y0196312D01*
X0289241Y0224805D02*
X0290041D01*
X0289641Y0224405D02*
Y0225205D01*
X0236443Y0228987D02*
X0237243D01*
X0236843Y0228587D02*
Y0229387D01*
X0275722Y0228987D02*
X0276522D01*
X0276122Y0228587D02*
Y0229387D01*
X0236564Y0257662D02*
X0237364D01*
X0236964Y0257262D02*
Y0258062D01*
X0275841Y0257825D02*
X0276641D01*
X0276241Y0257425D02*
Y0258225D01*
X0306643Y0257825D02*
X0307443D01*
X0307043Y0257425D02*
Y0258225D01*
X0236713Y0303999D02*
X0237513D01*
X0237113Y0303599D02*
Y0304399D01*
X0236699Y0356186D02*
X0237499D01*
X0237099Y0355786D02*
Y0356586D01*
X0275861Y0289123D02*
X0276661D01*
X0276261Y0288723D02*
Y0289523D01*
X0328552Y0274127D02*
X0329352D01*
X0328952Y0273727D02*
Y0274527D01*
X0309509Y0292919D02*
X0310309D01*
X0309909Y0292519D02*
Y0293319D01*
X0294036Y0308543D02*
X0294836D01*
X0294436Y0308143D02*
Y0308944D01*
X0278867Y0324016D02*
X0279667D01*
X0279267Y0323616D02*
Y0324416D01*
X0284150Y0366410D02*
X0284950D01*
X0284550Y0366010D02*
Y0366810D01*
X0284150Y0342190D02*
X0284950D01*
X0284550Y0341790D02*
Y0342590D01*
X0545321Y0190581D02*
X0546121D01*
X0545721Y0190181D02*
Y0190981D01*
X0568572Y0184317D02*
X0569372D01*
X0568972Y0183916D02*
Y0184716D01*
X0592361Y0184233D02*
X0593161D01*
X0592761Y0183833D02*
Y0184633D01*
X0641597Y0184113D02*
X0642396D01*
X0641996Y0183713D02*
Y0184513D01*
X0666638Y0184069D02*
X0667438D01*
X0667038Y0183669D02*
Y0184469D01*
X0700271Y0203629D02*
X0701071D01*
X0700671Y0203229D02*
Y0204029D01*
X0700186Y0240909D02*
X0700986D01*
X0700586Y0240509D02*
Y0241309D01*
X0686153Y0330047D02*
X0686952D01*
X0686552Y0329646D02*
Y0330447D01*
X0685920Y0364397D02*
X0686720D01*
X0686320Y0363997D02*
Y0364797D01*
X0665728Y0389464D02*
X0666528D01*
X0666128Y0389064D02*
Y0389864D01*
X0638572Y0431010D02*
X0639372D01*
X0638972Y0430610D02*
Y0431410D01*
X0638572Y0482536D02*
X0639372D01*
X0638972Y0482136D02*
Y0482936D01*
X0653426Y0453756D02*
X0654226D01*
X0653826Y0453356D02*
Y0454156D01*
X0673619Y0453988D02*
X0674419D01*
X0674019Y0453588D02*
Y0454388D01*
X0673851Y0503657D02*
X0674651D01*
X0674251Y0503258D02*
Y0504058D01*
X0653426Y0503890D02*
X0654226D01*
X0653826Y0503490D02*
Y0504290D01*
X0632064Y0569027D02*
X0632864D01*
X0632464Y0568626D02*
Y0569426D01*
X0632064Y0592365D02*
X0632864D01*
X0632464Y0591965D02*
Y0592765D01*
X0688792Y0607017D02*
X0689592D01*
X0689192Y0606617D02*
Y0607417D01*
X0668248Y0607017D02*
X0669048D01*
X0668648Y0606617D02*
Y0607417D01*
X0653564Y0528473D02*
X0654364D01*
X0653964Y0528073D02*
Y0528873D01*
X0625594Y0501552D02*
X0626394D01*
X0625994Y0501152D02*
Y0501952D01*
X0513096Y0664014D02*
X0513896D01*
X0513496Y0663614D02*
Y0664414D01*
X0629537Y0675298D02*
X0630337D01*
X0629937Y0674898D02*
Y0675698D01*
X0625291Y0649802D02*
X0626091D01*
X0625691Y0649402D02*
Y0650202D01*
X0641906Y0626697D02*
X0642706D01*
X0642306Y0626297D02*
Y0627097D01*
X0652282Y0675370D02*
X0653082D01*
X0652682Y0674970D02*
Y0675770D01*
X0495591Y0663963D02*
X0496391D01*
X0495991Y0663562D02*
Y0664362D01*
X0226070Y0375023D02*
X0226870D01*
X0226470Y0374623D02*
Y0375423D01*
X0211016Y0375023D02*
X0211816D01*
X0211416Y0374623D02*
Y0375423D01*
X0217710Y0398599D02*
X0218510D01*
X0218110Y0398199D02*
Y0398999D01*
X0243284Y0404869D02*
X0244084D01*
X0243684Y0404469D02*
Y0405269D01*
X0252857Y0390005D02*
X0253658D01*
X0253257Y0389605D02*
Y0390405D01*
X0257784Y0441513D02*
X0258583D01*
X0258184Y0441113D02*
Y0441913D01*
X0242166Y0671581D02*
X0242966D01*
X0242566Y0671181D02*
Y0671981D01*
X0267342Y0671560D02*
X0268142D01*
X0267742Y0671160D02*
Y0671960D01*
X0291143Y0671560D02*
X0291943D01*
X0291543Y0671160D02*
Y0671960D01*
X0314132Y0675740D02*
X0314932D01*
X0314532Y0675340D02*
Y0676140D01*
X0242015Y0693671D02*
X0242815D01*
X0242415Y0693271D02*
Y0694071D01*
X0267151Y0693671D02*
X0267951D01*
X0267551Y0693271D02*
Y0694071D01*
X0290911Y0693843D02*
X0291711D01*
X0291311Y0693443D02*
Y0694243D01*
X0337932Y0661158D02*
X0338732D01*
X0338332Y0660758D02*
Y0661558D01*
X0323390Y0656351D02*
X0324190D01*
X0323790Y0655950D02*
Y0656750D01*
X0239287Y0616130D02*
X0240087D01*
X0239687Y0615730D02*
Y0616530D01*
X0239287Y0600989D02*
X0240087D01*
X0239687Y0600589D02*
Y0601389D01*
X0241714Y0585375D02*
X0242513D01*
X0242113Y0584975D02*
Y0585775D01*
X0389291Y0434067D02*
X0390091D01*
X0389691Y0433667D02*
Y0434467D01*
X0373544Y0440369D02*
X0374344D01*
X0373944Y0439969D02*
Y0440769D01*
X0120574Y0480508D02*
X0121374D01*
X0120974Y0480108D02*
Y0480908D01*
X0120574Y0522959D02*
X0121374D01*
X0120974Y0522559D02*
Y0523359D01*
X0147524Y0562348D02*
X0148324D01*
X0147924Y0561948D02*
Y0562748D01*
X0144271Y0594295D02*
X0145071D01*
X0144671Y0593895D02*
Y0594695D01*
X0164405Y0577820D02*
X0165205D01*
X0164805Y0577420D02*
Y0578220D01*
X0148388Y0616212D02*
X0149188D01*
X0148788Y0615812D02*
Y0616612D01*
X0148424Y0646739D02*
X0149224D01*
X0148825Y0646339D02*
Y0647139D01*
X0148362Y0681542D02*
X0149162D01*
X0148762Y0681142D02*
Y0681942D01*
X0111351Y0608978D02*
X0112151D01*
X0111751Y0608578D02*
Y0609378D01*
X0135120Y0636880D02*
X0135920D01*
X0135520Y0636480D02*
Y0637280D01*
X0318001Y0600903D02*
X0318801D01*
X0318401Y0600503D02*
Y0601303D01*
X0341765Y0541268D02*
X0342565D01*
X0342165Y0540868D02*
Y0541668D01*
X0315923Y0572033D02*
X0316723D01*
X0316323Y0571633D02*
Y0572433D01*
X0347917Y0583148D02*
X0348717D01*
X0348317Y0582749D02*
Y0583548D01*
X0352674Y0648916D02*
X0353474D01*
X0353074Y0648516D02*
Y0649316D01*
X0414462Y0578915D02*
X0415262D01*
X0414862Y0578515D02*
Y0579315D01*
X0409905Y0671014D02*
X0410705D01*
X0410305Y0670614D02*
Y0671414D01*
X0584140Y0546862D02*
X0584940D01*
X0584540Y0546462D02*
Y0547262D01*
X0584162Y0531617D02*
X0584962D01*
X0584562Y0531217D02*
Y0532017D01*
X0536624Y0516924D02*
X0537424D01*
X0537024Y0516524D02*
Y0517324D01*
X0614180Y0567193D02*
X0614980D01*
X0614580Y0566793D02*
Y0567593D01*
X0518602Y0604469D02*
X0519402D01*
X0519002Y0604069D02*
Y0604869D01*
X0644093Y0649767D02*
X0644893D01*
X0644493Y0649367D02*
Y0650167D01*
X0621665Y0625470D02*
X0622465D01*
X0622065Y0625070D02*
Y0625870D01*
X0635544Y0603285D02*
X0636344D01*
X0635944Y0602885D02*
Y0603685D01*
X0552123Y0646699D02*
X0552923D01*
X0552523Y0646299D02*
Y0647099D01*
X0592586Y0648728D02*
X0593386D01*
X0592986Y0648328D02*
Y0649128D01*
X0250247Y0606148D02*
X0251467D01*
X0250857Y0605538D02*
Y0606758D01*
X0520217Y0400888D02*
X0521004D01*
X0520611Y0400495D02*
Y0401282D01*
X0516708Y0400888D02*
X0517495D01*
X0517101Y0400495D02*
Y0401282D01*
X0513264Y0389175D02*
X0514052D01*
X0513658Y0388781D02*
Y0389568D01*
X0509755Y0389175D02*
X0510543D01*
X0510149Y0388781D02*
Y0389568D01*
X0293664Y0398057D02*
X0294451D01*
X0294057Y0397663D02*
Y0398451D01*
X0293664Y0401057D02*
X0294451D01*
X0294057Y0400663D02*
Y0401451D01*
X0293664Y0395057D02*
X0294451D01*
X0294057Y0394663D02*
Y0395451D01*
X0290664Y0398057D02*
X0291451D01*
X0291057Y0397663D02*
Y0398451D01*
X0290664Y0401057D02*
X0291451D01*
X0291057Y0400663D02*
Y0401451D01*
X0290664Y0395057D02*
X0291451D01*
X0291057Y0394663D02*
Y0395451D01*
X0293664Y0392057D02*
X0294451D01*
X0294057Y0391663D02*
Y0392451D01*
X0290664Y0392057D02*
X0291451D01*
X0291057Y0391663D02*
Y0392451D01*
X0287664Y0392057D02*
X0288451D01*
X0288057Y0391663D02*
Y0392451D01*
X0287664Y0395057D02*
X0288451D01*
X0288057Y0394663D02*
Y0395451D01*
X0350892Y0386918D02*
X0352112D01*
X0351502Y0386308D02*
Y0387528D01*
X0681628Y0279040D02*
X0682847D01*
X0682237Y0278430D02*
Y0279650D01*
X0638406Y0248203D02*
X0639206D01*
X0638806Y0247803D02*
Y0248603D01*
X0638406Y0299818D02*
X0639206D01*
X0638806Y0299418D02*
Y0300218D01*
X0637376Y0288086D02*
X0638176D01*
X0637776Y0287686D02*
Y0288486D01*
X0637376Y0284250D02*
X0638176D01*
X0637776Y0283850D02*
Y0284650D01*
X0638675Y0289773D02*
X0639475D01*
X0639075Y0289372D02*
Y0290173D01*
X0639974Y0291449D02*
X0640774D01*
X0640374Y0291049D02*
Y0291849D01*
X0634818Y0291449D02*
X0635618D01*
X0635218Y0291049D02*
Y0291849D01*
X0636077Y0289773D02*
X0636877D01*
X0636477Y0289372D02*
Y0290173D01*
X0639974Y0293367D02*
X0640774D01*
X0640374Y0292967D02*
Y0293767D01*
X0639974Y0295285D02*
X0640774D01*
X0640374Y0294885D02*
Y0295685D01*
X0634818Y0293367D02*
X0635618D01*
X0635218Y0292967D02*
Y0293767D01*
X0634818Y0295285D02*
X0635618D01*
X0635218Y0294885D02*
Y0295685D01*
X0637333Y0297743D02*
X0638133D01*
X0637733Y0297343D02*
Y0298143D01*
X0637322Y0295570D02*
X0638122D01*
X0637722Y0295170D02*
Y0295970D01*
X0637376Y0286184D02*
X0638176D01*
X0637776Y0285784D02*
Y0286584D01*
X0637376Y0261838D02*
X0638176D01*
X0637776Y0261438D02*
Y0262238D01*
X0637322Y0252451D02*
X0638122D01*
X0637722Y0252051D02*
Y0252851D01*
X0637333Y0250278D02*
X0638133D01*
X0637733Y0249878D02*
Y0250678D01*
X0634818Y0252736D02*
X0635618D01*
X0635218Y0252336D02*
Y0253136D01*
X0634818Y0254654D02*
X0635618D01*
X0635218Y0254254D02*
Y0255054D01*
X0639974Y0252736D02*
X0640774D01*
X0640374Y0252336D02*
Y0253136D01*
X0639974Y0254654D02*
X0640774D01*
X0640374Y0254254D02*
Y0255054D01*
X0636077Y0258249D02*
X0636877D01*
X0636477Y0257849D02*
Y0258649D01*
X0634818Y0256572D02*
X0635618D01*
X0635218Y0256172D02*
Y0256972D01*
X0639974Y0256572D02*
X0640774D01*
X0640374Y0256172D02*
Y0256972D01*
X0638675Y0258249D02*
X0639475D01*
X0639075Y0257849D02*
Y0258649D01*
X0637376Y0263771D02*
X0638176D01*
X0637776Y0263371D02*
Y0264171D01*
X0637376Y0259935D02*
X0638176D01*
X0637776Y0259536D02*
Y0260335D01*
X0622985Y0283902D02*
X0623785D01*
X0623385Y0283502D02*
Y0284302D01*
X0621122Y0283902D02*
X0621922D01*
X0621522Y0283502D02*
Y0284302D01*
X0624848Y0283902D02*
X0625648D01*
X0625248Y0283502D02*
Y0284302D01*
X0624848Y0285803D02*
X0625648D01*
X0625248Y0285403D02*
Y0286203D01*
X0622985Y0285803D02*
X0623785D01*
X0623385Y0285403D02*
Y0286203D01*
X0624848Y0287704D02*
X0625648D01*
X0625248Y0287304D02*
Y0288104D01*
X0649904Y0287704D02*
X0650704D01*
X0650305Y0287304D02*
Y0288104D01*
X0651767Y0285803D02*
X0652567D01*
X0652167Y0285403D02*
Y0286203D01*
X0649904Y0285803D02*
X0650704D01*
X0650305Y0285403D02*
Y0286203D01*
X0649904Y0283902D02*
X0650704D01*
X0650305Y0283502D02*
Y0284302D01*
X0653630Y0283902D02*
X0654430D01*
X0654030Y0283502D02*
Y0284302D01*
X0651767Y0283902D02*
X0652567D01*
X0652167Y0283502D02*
Y0284302D01*
X0651767Y0264119D02*
X0652567D01*
X0652167Y0263719D02*
Y0264519D01*
X0653630Y0264119D02*
X0654430D01*
X0654030Y0263719D02*
Y0264519D01*
X0649904Y0264119D02*
X0650704D01*
X0650305Y0263719D02*
Y0264519D01*
X0649904Y0262218D02*
X0650704D01*
X0650305Y0261819D02*
Y0262618D01*
X0651767Y0262218D02*
X0652567D01*
X0652167Y0261819D02*
Y0262618D01*
X0649904Y0260318D02*
X0650704D01*
X0650305Y0259918D02*
Y0260718D01*
X0624848Y0260318D02*
X0625648D01*
X0625248Y0259918D02*
Y0260718D01*
X0622985Y0262218D02*
X0623785D01*
X0623385Y0261819D02*
Y0262618D01*
X0624848Y0262218D02*
X0625648D01*
X0625248Y0261819D02*
Y0262618D01*
X0624848Y0264119D02*
X0625648D01*
X0625248Y0263719D02*
Y0264519D01*
X0621122Y0264119D02*
X0621922D01*
X0621522Y0263719D02*
Y0264519D01*
X0622985Y0264119D02*
X0623785D01*
X0623385Y0263719D02*
Y0264519D01*
X0614191Y0289109D02*
X0614991D01*
X0614591Y0288709D02*
Y0289509D01*
X0612289Y0289121D02*
X0613089D01*
X0612689Y0288721D02*
Y0289521D01*
X0614189Y0291076D02*
X0614989D01*
X0614589Y0290676D02*
Y0291476D01*
X0612291Y0291076D02*
X0613091D01*
X0612691Y0290676D02*
Y0291476D01*
X0616782Y0285109D02*
X0617582D01*
X0617182Y0284709D02*
Y0285509D01*
X0614193Y0287142D02*
X0614993D01*
X0614593Y0286742D02*
Y0287542D01*
X0660560Y0287142D02*
X0661360D01*
X0660960Y0286742D02*
Y0287542D01*
X0657971Y0285109D02*
X0658771D01*
X0658371Y0284709D02*
Y0285509D01*
X0662462Y0291076D02*
X0663262D01*
X0662862Y0290676D02*
Y0291476D01*
X0660564Y0291076D02*
X0661364D01*
X0660964Y0290676D02*
Y0291476D01*
X0662463Y0289121D02*
X0663263D01*
X0662863Y0288721D02*
Y0289521D01*
X0660562Y0289109D02*
X0661362D01*
X0660962Y0288709D02*
Y0289509D01*
X0659631Y0260733D02*
X0660431D01*
X0660031Y0260333D02*
Y0261133D01*
X0659631Y0258830D02*
X0660431D01*
X0660031Y0258430D02*
Y0259230D01*
X0660131Y0256928D02*
X0660931D01*
X0660531Y0256528D02*
Y0257328D01*
X0659631Y0262635D02*
X0660431D01*
X0660031Y0262235D02*
Y0263035D01*
X0614193Y0260879D02*
X0614993D01*
X0614593Y0260479D02*
Y0261279D01*
X0616782Y0262913D02*
X0617582D01*
X0617182Y0262512D02*
Y0263313D01*
X0612291Y0256946D02*
X0613091D01*
X0612691Y0256546D02*
Y0257346D01*
X0614189Y0256946D02*
X0614989D01*
X0614589Y0256546D02*
Y0257346D01*
X0612289Y0258900D02*
X0613089D01*
X0612689Y0258500D02*
Y0259300D01*
X0614191Y0258912D02*
X0614991D01*
X0614591Y0258512D02*
Y0259312D01*
X0657590Y0262651D02*
X0658390D01*
X0657990Y0262251D02*
Y0263051D01*
X0170518Y0341437D02*
X0171318D01*
X0170918Y0341037D02*
Y0341837D01*
X0150304Y0338721D02*
X0151104D01*
X0150704Y0338321D02*
Y0339121D01*
X0150304Y0342557D02*
X0151104D01*
X0150704Y0342157D02*
Y0342957D01*
X0151602Y0337034D02*
X0152402D01*
X0152003Y0336634D02*
Y0337434D01*
X0152901Y0335357D02*
X0153701D01*
X0153301Y0334958D02*
Y0335757D01*
X0147746Y0335357D02*
X0148546D01*
X0148146Y0334958D02*
Y0335757D01*
X0149005Y0337034D02*
X0149805D01*
X0149405Y0336634D02*
Y0337434D01*
X0152901Y0333440D02*
X0153701D01*
X0153301Y0333040D02*
Y0333840D01*
X0152901Y0331522D02*
X0153701D01*
X0153301Y0331122D02*
Y0331922D01*
X0147746Y0333440D02*
X0148546D01*
X0148146Y0333040D02*
Y0333840D01*
X0147746Y0331522D02*
X0148546D01*
X0148146Y0331122D02*
Y0331922D01*
X0150261Y0329063D02*
X0151061D01*
X0150661Y0328663D02*
Y0329463D01*
X0150249Y0331237D02*
X0151049D01*
X0150649Y0330837D02*
Y0331637D01*
X0150304Y0340623D02*
X0151104D01*
X0150704Y0340223D02*
Y0341023D01*
X0135913Y0342905D02*
X0136713D01*
X0136313Y0342505D02*
Y0343305D01*
X0134050Y0342905D02*
X0134850D01*
X0134450Y0342505D02*
Y0343305D01*
X0137776Y0342905D02*
X0138575D01*
X0138175Y0342505D02*
Y0343305D01*
X0137776Y0341004D02*
X0138575D01*
X0138175Y0340604D02*
Y0341404D01*
X0135913Y0341004D02*
X0136713D01*
X0136313Y0340604D02*
Y0341404D01*
X0137776Y0339103D02*
X0138575D01*
X0138175Y0338703D02*
Y0339503D01*
X0162832Y0339103D02*
X0163632D01*
X0163232Y0338703D02*
Y0339503D01*
X0164695Y0341004D02*
X0165495D01*
X0165095Y0340604D02*
Y0341404D01*
X0162832Y0341004D02*
X0163632D01*
X0163232Y0340604D02*
Y0341404D01*
X0162832Y0342905D02*
X0163632D01*
X0163232Y0342505D02*
Y0343305D01*
X0166558Y0342905D02*
X0167358D01*
X0166958Y0342505D02*
Y0343305D01*
X0164695Y0342905D02*
X0165495D01*
X0165095Y0342505D02*
Y0343305D01*
X0127118Y0337698D02*
X0127918D01*
X0127518Y0337298D02*
Y0338098D01*
X0125217Y0337686D02*
X0126017D01*
X0125617Y0337286D02*
Y0338086D01*
X0127116Y0335731D02*
X0127916D01*
X0127516Y0335331D02*
Y0336131D01*
X0125218Y0335731D02*
X0126018D01*
X0125618Y0335331D02*
Y0336131D01*
X0129709Y0341698D02*
X0130509D01*
X0130109Y0341298D02*
Y0342098D01*
X0127120Y0339665D02*
X0127920D01*
X0127520Y0339265D02*
Y0340065D01*
X0172558Y0341421D02*
X0173358D01*
X0172958Y0341021D02*
Y0341821D01*
X0173058Y0335714D02*
X0173858D01*
X0173458Y0335314D02*
Y0336114D01*
X0172558Y0337616D02*
X0173358D01*
X0172958Y0337216D02*
Y0338016D01*
X0172558Y0339518D02*
X0173358D01*
X0172958Y0339118D02*
Y0339918D01*
X0164695Y0362687D02*
X0165495D01*
X0165095Y0362287D02*
Y0363087D01*
X0166558Y0362687D02*
X0167358D01*
X0166958Y0362287D02*
Y0363087D01*
X0162832Y0362687D02*
X0163632D01*
X0163232Y0362287D02*
Y0363087D01*
X0162832Y0364588D02*
X0163632D01*
X0163232Y0364188D02*
Y0364988D01*
X0164695Y0364588D02*
X0165495D01*
X0165095Y0364188D02*
Y0364988D01*
X0162832Y0366489D02*
X0163632D01*
X0163232Y0366089D02*
Y0366889D01*
X0173489Y0367895D02*
X0174289D01*
X0173889Y0367495D02*
Y0368295D01*
X0175391Y0367907D02*
X0176191D01*
X0175791Y0367507D02*
Y0368307D01*
X0173491Y0369861D02*
X0174291D01*
X0173891Y0369461D02*
Y0370261D01*
X0175389Y0369861D02*
X0176189D01*
X0175789Y0369461D02*
Y0370261D01*
X0170898Y0363894D02*
X0171698D01*
X0171298Y0363494D02*
Y0364294D01*
X0173487Y0365928D02*
X0174287D01*
X0173887Y0365528D02*
Y0366328D01*
X0150304Y0364969D02*
X0151104D01*
X0150704Y0364569D02*
Y0365369D01*
X0150249Y0374355D02*
X0151049D01*
X0150649Y0373955D02*
Y0374755D01*
X0150261Y0376529D02*
X0151061D01*
X0150661Y0376129D02*
Y0376929D01*
X0127120Y0365928D02*
X0127920D01*
X0127520Y0365528D02*
Y0366328D01*
X0137776Y0366489D02*
X0138575D01*
X0138175Y0366089D02*
Y0366889D01*
X0135913Y0364588D02*
X0136713D01*
X0136313Y0364188D02*
Y0364988D01*
X0137776Y0364588D02*
X0138575D01*
X0138175Y0364188D02*
Y0364988D01*
X0137776Y0362687D02*
X0138575D01*
X0138175Y0362287D02*
Y0363087D01*
X0134050Y0362687D02*
X0134850D01*
X0134450Y0362287D02*
Y0363087D01*
X0135913Y0362687D02*
X0136713D01*
X0136313Y0362287D02*
Y0363087D01*
X0129709Y0363894D02*
X0130509D01*
X0130109Y0363494D02*
Y0364294D01*
X0202340Y0447950D02*
X0203560D01*
X0202950Y0447340D02*
Y0448560D01*
X0202370Y0444573D02*
X0203590D01*
X0202980Y0443963D02*
Y0445183D01*
X0187095Y0505606D02*
X0188315D01*
X0187705Y0504996D02*
Y0506216D01*
X0620019Y0696131D02*
X0621239D01*
X0620629Y0695521D02*
Y0696741D01*
X0676018Y0696131D02*
X0677238D01*
X0676628Y0695521D02*
Y0696741D01*
X0669018Y0696131D02*
X0670238D01*
X0669628Y0695521D02*
Y0696741D01*
X0655018Y0696131D02*
X0656238D01*
X0655628Y0695521D02*
Y0696741D01*
X0662018Y0696131D02*
X0663238D01*
X0662628Y0695521D02*
Y0696741D01*
X0634019Y0696131D02*
X0635239D01*
X0634629Y0695521D02*
Y0696741D01*
X0627019Y0696131D02*
X0628239D01*
X0627629Y0695521D02*
Y0696741D01*
X0641018Y0696131D02*
X0642239D01*
X0641629Y0695521D02*
Y0696741D01*
X0648018Y0696131D02*
X0649238D01*
X0648628Y0695521D02*
Y0696741D01*
X0704271Y0398939D02*
X0705491D01*
X0704881Y0398329D02*
Y0399549D01*
X0704271Y0391939D02*
X0705491D01*
X0704881Y0391329D02*
Y0392549D01*
X0704271Y0419939D02*
X0705491D01*
X0704881Y0419329D02*
Y0420549D01*
X0704271Y0426939D02*
X0705491D01*
X0704881Y0426329D02*
Y0427549D01*
X0704271Y0412939D02*
X0705491D01*
X0704881Y0412329D02*
Y0413549D01*
X0704271Y0405939D02*
X0705491D01*
X0704881Y0405329D02*
Y0406549D01*
X0704271Y0461938D02*
X0705491D01*
X0704881Y0461328D02*
Y0462548D01*
X0704271Y0454938D02*
X0705491D01*
X0704881Y0454328D02*
Y0455548D01*
X0704271Y0510937D02*
X0705491D01*
X0704881Y0510327D02*
Y0511547D01*
X0704271Y0482937D02*
X0705491D01*
X0704881Y0482327D02*
Y0483547D01*
X0704271Y0489937D02*
X0705491D01*
X0704881Y0489327D02*
Y0490547D01*
X0704271Y0475938D02*
X0705491D01*
X0704881Y0475328D02*
Y0476548D01*
X0704271Y0468938D02*
X0705491D01*
X0704881Y0468328D02*
Y0469548D01*
X0082909Y0286941D02*
X0084129D01*
X0083519Y0286331D02*
Y0287551D01*
X0082909Y0300941D02*
X0084129D01*
X0083519Y0300331D02*
Y0301551D01*
X0082909Y0293941D02*
X0084129D01*
X0083519Y0293331D02*
Y0294551D01*
X0082909Y0244942D02*
X0084129D01*
X0083519Y0244332D02*
Y0245552D01*
X0082909Y0258942D02*
X0084129D01*
X0083519Y0258332D02*
Y0259552D01*
X0082909Y0251942D02*
X0084129D01*
X0083519Y0251332D02*
Y0252552D01*
X0082909Y0279942D02*
X0084129D01*
X0083519Y0279331D02*
Y0280552D01*
X0082909Y0272942D02*
X0084129D01*
X0083519Y0272332D02*
Y0273552D01*
X0082909Y0265942D02*
X0084129D01*
X0083519Y0265332D02*
Y0266552D01*
X0082909Y0223943D02*
X0084129D01*
X0083519Y0223333D02*
Y0224553D01*
X0082909Y0230943D02*
X0084129D01*
X0083519Y0230332D02*
Y0231553D01*
X0082909Y0237942D02*
X0084129D01*
X0083519Y0237332D02*
Y0238552D01*
X0082909Y0209943D02*
X0084129D01*
X0083519Y0209333D02*
Y0210553D01*
X0082909Y0216943D02*
X0084129D01*
X0083519Y0216333D02*
Y0217553D01*
X0082909Y0202943D02*
X0084129D01*
X0083519Y0202333D02*
Y0203553D01*
X0082909Y0195943D02*
X0084129D01*
X0083519Y0195333D02*
Y0196553D01*
X0119819Y0462906D02*
X0121039D01*
X0120429Y0462296D02*
Y0463516D01*
X0122550Y0462925D02*
X0123770D01*
X0123160Y0462315D02*
Y0463535D01*
X0125282Y0462944D02*
X0126502D01*
X0125892Y0462334D02*
Y0463554D01*
X0370740Y0630246D02*
X0371539D01*
X0371140Y0629846D02*
Y0630646D01*
X0344689Y0640563D02*
X0345489D01*
X0345089Y0640164D02*
Y0640964D01*
X0346658Y0640563D02*
X0347458D01*
X0347058Y0640164D02*
Y0640964D01*
X0342721Y0640563D02*
X0343521D01*
X0343121Y0640164D02*
Y0640964D01*
X0344689Y0644500D02*
X0345489D01*
X0345089Y0644100D02*
Y0644900D01*
X0346658Y0644500D02*
X0347458D01*
X0347058Y0644100D02*
Y0644900D01*
X0342721Y0644500D02*
X0343521D01*
X0343121Y0644100D02*
Y0644900D01*
X0342721Y0642532D02*
X0343521D01*
X0343121Y0642132D02*
Y0642932D01*
X0346658Y0642532D02*
X0347458D01*
X0347058Y0642132D02*
Y0642932D01*
X0344689Y0642532D02*
X0345489D01*
X0345089Y0642132D02*
Y0642932D01*
X0429962Y0633457D02*
X0430762D01*
X0430363Y0633057D02*
Y0633857D01*
X0524334Y0294224D02*
X0525554D01*
X0524944Y0293614D02*
Y0294834D01*
X0524418Y0298884D02*
X0525638D01*
X0525028Y0298274D02*
Y0299494D01*
X0529078Y0298800D02*
X0530298D01*
X0529688Y0298190D02*
Y0299410D01*
X0529078Y0294224D02*
X0530298D01*
X0529688Y0293614D02*
Y0294834D01*
X0393238Y0648632D02*
X0394458D01*
X0393848Y0648022D02*
Y0649242D01*
X0244354Y0440305D02*
X0245574D01*
X0244964Y0439695D02*
Y0440915D01*
X0382549Y0648632D02*
X0383769D01*
X0383159Y0648022D02*
Y0649242D01*
X0575487Y0448732D02*
X0576287D01*
X0575886Y0448331D02*
Y0449131D01*
X0380197Y0636200D02*
X0380997D01*
X0380597Y0635800D02*
Y0636600D01*
X0469537Y0228549D02*
X0470757D01*
X0470147Y0227939D02*
Y0229159D01*
X0407234Y0220918D02*
X0408454D01*
X0407844Y0220308D02*
Y0221529D01*
X0219361Y0357562D02*
X0220581D01*
X0219971Y0356952D02*
Y0358172D01*
X0382435Y0678704D02*
X0383655D01*
X0383045Y0678094D02*
Y0679314D01*
X0257854Y0563603D02*
X0259074D01*
X0258464Y0562993D02*
Y0564213D01*
X0315558Y0633797D02*
X0316778D01*
X0316168Y0633187D02*
Y0634407D01*
X0292927Y0431441D02*
X0294147D01*
X0293537Y0430831D02*
Y0432051D01*
X0430716Y0452492D02*
X0431936D01*
X0431326Y0451882D02*
Y0453102D01*
X0579024Y0204485D02*
X0579824D01*
X0579424Y0204085D02*
Y0204885D01*
X0577056Y0204485D02*
X0577856D01*
X0577456Y0204085D02*
Y0204885D01*
X0580993Y0204485D02*
X0581793D01*
X0581393Y0204085D02*
Y0204885D01*
X0580993Y0202517D02*
X0581793D01*
X0581393Y0202116D02*
Y0202917D01*
X0577056Y0202517D02*
X0577856D01*
X0577456Y0202116D02*
Y0202917D01*
X0579024Y0202517D02*
X0579824D01*
X0579424Y0202116D02*
Y0202917D01*
X0340953Y0458810D02*
X0341754D01*
X0341354Y0458410D02*
Y0459210D01*
X0369035Y0309238D02*
X0369835D01*
X0369435Y0308838D02*
Y0309638D01*
X0369035Y0311206D02*
X0369835D01*
X0369435Y0310806D02*
Y0311606D01*
X0369035Y0307269D02*
X0369835D01*
X0369435Y0306869D02*
Y0307669D01*
X0185843Y0341813D02*
X0187063D01*
X0186453Y0341203D02*
Y0342423D01*
X0185843Y0348315D02*
X0187063D01*
X0186453Y0347705D02*
Y0348925D01*
X0647457Y0380336D02*
X0648257D01*
X0647857Y0379936D02*
Y0380736D01*
X0649426Y0380336D02*
X0650226D01*
X0649826Y0379936D02*
Y0380736D01*
X0647457Y0382304D02*
X0648257D01*
X0647857Y0381904D02*
Y0382704D01*
X0649426Y0382304D02*
X0650226D01*
X0649826Y0381904D02*
Y0382704D01*
X0645489Y0382304D02*
X0646289D01*
X0645889Y0381904D02*
Y0382704D01*
X0645489Y0380336D02*
X0646289D01*
X0645889Y0379936D02*
Y0380736D01*
X0645489Y0378367D02*
X0646289D01*
X0645889Y0377967D02*
Y0378767D01*
X0649426Y0378367D02*
X0650226D01*
X0649826Y0377967D02*
Y0378767D01*
X0647457Y0378367D02*
X0648257D01*
X0647857Y0377967D02*
Y0378767D01*
X0668774Y0301366D02*
X0669574D01*
X0669174Y0300967D02*
Y0301766D01*
X0668774Y0299398D02*
X0669574D01*
X0669174Y0298998D02*
Y0299798D01*
X0668774Y0297429D02*
X0669574D01*
X0669174Y0297029D02*
Y0297830D01*
X0670743Y0299398D02*
X0671543D01*
X0671143Y0298998D02*
Y0299798D01*
X0670743Y0301366D02*
X0671543D01*
X0671143Y0300967D02*
Y0301766D01*
X0670743Y0297429D02*
X0671543D01*
X0671143Y0297029D02*
Y0297830D01*
X0589306Y0311980D02*
X0590106D01*
X0589706Y0311580D02*
Y0312380D01*
X0589306Y0315917D02*
X0590106D01*
X0589706Y0315517D02*
Y0316317D01*
X0589306Y0313948D02*
X0590106D01*
X0589706Y0313548D02*
Y0314348D01*
X0676145Y0253870D02*
X0676945D01*
X0676545Y0253470D02*
Y0254270D01*
X0672208Y0253870D02*
X0673008D01*
X0672608Y0253470D02*
Y0254270D01*
X0674177Y0253870D02*
X0674977D01*
X0674577Y0253470D02*
Y0254270D01*
X0676145Y0251901D02*
X0676945D01*
X0676545Y0251501D02*
Y0252301D01*
X0674177Y0251901D02*
X0674977D01*
X0674577Y0251501D02*
Y0252301D01*
X0672208Y0251901D02*
X0673008D01*
X0672608Y0251501D02*
Y0252301D01*
X0673780Y0233452D02*
X0674580D01*
X0674180Y0233052D02*
Y0233852D01*
X0673780Y0231483D02*
X0674580D01*
X0674180Y0231083D02*
Y0231883D01*
X0673780Y0229515D02*
X0674580D01*
X0674180Y0229115D02*
Y0229915D01*
X0571917Y0303147D02*
X0572717D01*
X0572317Y0302747D02*
Y0303547D01*
X0599056Y0251652D02*
X0600276D01*
X0599666Y0251042D02*
Y0252261D01*
X0602051Y0251652D02*
X0603271D01*
X0602662Y0251042D02*
Y0252261D01*
X0590682Y0251589D02*
X0591902D01*
X0591292Y0250979D02*
Y0252200D01*
X0593677Y0251589D02*
X0594897D01*
X0594287Y0250979D02*
Y0252200D01*
X0584083Y0250629D02*
X0585303D01*
X0584693Y0250019D02*
Y0251239D01*
X0587078Y0250629D02*
X0588298D01*
X0587688Y0250019D02*
Y0251239D01*
X0620425Y0180380D02*
X0621644D01*
X0621034Y0179770D02*
Y0180990D01*
X0620425Y0177384D02*
X0621644D01*
X0621034Y0176775D02*
Y0177995D01*
X0620990Y0184061D02*
X0622210D01*
X0621600Y0183451D02*
Y0184671D01*
X0623985Y0184061D02*
X0625205D01*
X0624595Y0183451D02*
Y0184671D01*
X0623263Y0192968D02*
X0624483D01*
X0623873Y0192358D02*
Y0193578D01*
X0623263Y0189973D02*
X0624483D01*
X0623873Y0189363D02*
Y0190583D01*
X0202497Y0379393D02*
X0203297D01*
X0202897Y0378993D02*
Y0379793D01*
X0200489Y0379393D02*
X0201289D01*
X0200889Y0378993D02*
Y0379793D01*
X0196094Y0378788D02*
X0196894D01*
X0196494Y0378388D02*
Y0379188D01*
X0194086Y0378788D02*
X0194886D01*
X0194486Y0378388D02*
Y0379188D01*
X0187523Y0376367D02*
X0188323D01*
X0187923Y0375968D02*
Y0376767D01*
X0185515Y0376367D02*
X0186315D01*
X0185915Y0375968D02*
Y0376767D01*
X0101513Y0312602D02*
X0102313D01*
X0101913Y0312202D02*
Y0313002D01*
X0099544Y0312602D02*
X0100344D01*
X0099944Y0312202D02*
Y0313002D01*
X0103481Y0312602D02*
X0104281D01*
X0103881Y0312202D02*
Y0313002D01*
X0105450Y0312602D02*
X0106250D01*
X0105850Y0312202D02*
Y0313002D01*
X0107418Y0312602D02*
X0108218D01*
X0107818Y0312202D02*
Y0313002D01*
X0099544Y0314571D02*
X0100344D01*
X0099944Y0314171D02*
Y0314971D01*
X0101513Y0314571D02*
X0102313D01*
X0101913Y0314171D02*
Y0314971D01*
X0103481Y0314571D02*
X0104281D01*
X0103881Y0314171D02*
Y0314971D01*
X0107418Y0314571D02*
X0108218D01*
X0107818Y0314171D02*
Y0314971D01*
X0105450Y0314571D02*
X0106250D01*
X0105850Y0314171D02*
Y0314971D01*
X0112133Y0328015D02*
X0112933D01*
X0112533Y0327615D02*
Y0328415D01*
X0114824Y0328015D02*
X0115624D01*
X0115224Y0327615D02*
Y0328415D01*
X0104385Y0328058D02*
X0105185D01*
X0104785Y0327658D02*
Y0328458D01*
X0107395Y0328058D02*
X0108194D01*
X0107794Y0327658D02*
Y0328458D01*
X0098472Y0327076D02*
X0099272D01*
X0098872Y0326676D02*
Y0327476D01*
X0101120Y0327076D02*
X0101920D01*
X0101520Y0326676D02*
Y0327476D01*
X0115210Y0332038D02*
X0116430D01*
X0115820Y0331428D02*
Y0332648D01*
X0135464Y0606119D02*
X0136684D01*
X0136074Y0605509D02*
Y0606729D01*
X0128007Y0603232D02*
X0129227D01*
X0128617Y0602622D02*
Y0603842D01*
X0201708Y0322059D02*
X0202928D01*
X0202318Y0321449D02*
Y0322669D01*
X0204440Y0322040D02*
X0205660D01*
X0205050Y0321430D02*
Y0322650D01*
X0195109Y0323473D02*
X0196329D01*
X0195720Y0322863D02*
Y0324083D01*
X0197841Y0323454D02*
X0199061D01*
X0198451Y0322844D02*
Y0324064D01*
X0186464Y0325855D02*
X0187684D01*
X0187074Y0325245D02*
Y0326465D01*
X0189196Y0325836D02*
X0190416D01*
X0189806Y0325226D02*
Y0326446D01*
X0197524Y0413196D02*
X0198324D01*
X0197924Y0412796D02*
Y0413596D01*
X0199532Y0413196D02*
X0200332D01*
X0199932Y0412796D02*
Y0413596D01*
X0196727Y0419010D02*
X0197527D01*
X0197127Y0418610D02*
Y0419410D01*
X0198735Y0419010D02*
X0199535D01*
X0199135Y0418610D02*
Y0419410D01*
X0542614Y0287673D02*
X0543401D01*
X0543008Y0287279D02*
Y0288067D01*
X0548552Y0287673D02*
X0549339D01*
X0548945Y0287279D02*
Y0288067D01*
X0536677Y0287673D02*
X0537464D01*
X0537070Y0287279D02*
Y0288067D01*
X0542614Y0305485D02*
X0543401D01*
X0543008Y0305092D02*
Y0305879D01*
X0548552Y0305485D02*
X0549339D01*
X0548945Y0305092D02*
Y0305879D01*
X0536677Y0305485D02*
X0537464D01*
X0537070Y0305092D02*
Y0305879D01*
X0554489Y0305485D02*
X0555276D01*
X0554883Y0305092D02*
Y0305879D01*
X0554489Y0287673D02*
X0555276D01*
X0554883Y0287279D02*
Y0288067D01*
X0554489Y0293611D02*
X0555276D01*
X0554883Y0293217D02*
Y0294004D01*
X0554489Y0299548D02*
X0555276D01*
X0554883Y0299154D02*
Y0299942D01*
X0250516Y0456408D02*
X0251736D01*
X0251126Y0455798D02*
Y0457018D01*
X0374621Y0495675D02*
X0375421D01*
X0375021Y0495275D02*
Y0496075D01*
X0372705Y0496890D02*
X0373505D01*
X0373105Y0496490D02*
Y0497290D01*
X0250093Y0494245D02*
X0250893D01*
X0250493Y0493845D02*
Y0494645D01*
X0250093Y0491969D02*
X0250893D01*
X0250493Y0491569D02*
Y0492369D01*
X0606757Y0486730D02*
X0607977D01*
X0607367Y0486120D02*
Y0487340D01*
X0604008Y0486730D02*
X0605228D01*
X0604618Y0486120D02*
Y0487340D01*
X0498174Y0523278D02*
X0499395D01*
X0498784Y0522668D02*
Y0523888D01*
X0495443Y0521923D02*
X0496663D01*
X0496053Y0521313D02*
Y0522534D01*
X0344850Y0672361D02*
X0346071D01*
X0345461Y0671751D02*
Y0672971D01*
X0294306Y0532687D02*
X0295526D01*
X0294916Y0532077D02*
Y0533297D01*
X0335980Y0541961D02*
X0337200D01*
X0336590Y0541351D02*
Y0542571D01*
X0313693Y0213441D02*
X0314913D01*
X0314303Y0212831D02*
Y0214051D01*
X0599170Y0446045D02*
X0600390D01*
X0599780Y0445435D02*
Y0446655D01*
X0293693Y0213441D02*
X0294913D01*
X0294303Y0212831D02*
Y0214051D01*
X0275477Y0213515D02*
X0276696D01*
X0276086Y0212905D02*
Y0214125D01*
X0374554Y0448133D02*
X0375774D01*
X0375164Y0447523D02*
Y0448743D01*
X0256360Y0449428D02*
X0257580D01*
X0256970Y0448818D02*
Y0450038D01*
X0315844Y0502592D02*
X0316644D01*
X0316244Y0502192D02*
Y0502992D01*
X0315844Y0500584D02*
X0316644D01*
X0316244Y0500184D02*
Y0500984D01*
X0343571Y0512733D02*
X0344371D01*
X0343971Y0512333D02*
Y0513133D01*
X0343708Y0514647D02*
X0344508D01*
X0344108Y0514247D02*
Y0515047D01*
X0345576Y0518110D02*
X0346376D01*
X0345976Y0517709D02*
Y0518509D01*
X0344385Y0516518D02*
X0345185D01*
X0344785Y0516118D02*
Y0516918D01*
X0618798Y0465928D02*
X0619598D01*
X0619198Y0465528D02*
Y0466328D01*
X0616829Y0465928D02*
X0617629D01*
X0617229Y0465528D02*
Y0466328D01*
X0618798Y0469865D02*
X0619598D01*
X0619198Y0469465D02*
Y0470265D01*
X0618798Y0471833D02*
X0619598D01*
X0619198Y0471433D02*
Y0472233D01*
X0616829Y0471833D02*
X0617629D01*
X0617229Y0471433D02*
Y0472233D01*
X0616829Y0469865D02*
X0617629D01*
X0617229Y0469465D02*
Y0470265D01*
X0616829Y0467897D02*
X0617629D01*
X0617229Y0467496D02*
Y0468296D01*
X0618798Y0467897D02*
X0619598D01*
X0619198Y0467496D02*
Y0468296D01*
X0567619Y0526322D02*
X0568419D01*
X0568019Y0525922D02*
Y0526722D01*
X0569588Y0526322D02*
X0570388D01*
X0569988Y0525922D02*
Y0526722D01*
X0567619Y0528291D02*
X0568419D01*
X0568019Y0527890D02*
Y0528690D01*
X0569588Y0528291D02*
X0570388D01*
X0569988Y0527890D02*
Y0528690D01*
X0565651Y0528291D02*
X0566451D01*
X0566051Y0527890D02*
Y0528690D01*
X0565651Y0526322D02*
X0566451D01*
X0566051Y0525922D02*
Y0526722D01*
X0358119Y0499561D02*
X0358919D01*
X0358519Y0499161D02*
Y0499961D01*
X0358119Y0501530D02*
X0358919D01*
X0358519Y0501130D02*
Y0501930D01*
X0354182Y0501530D02*
X0354982D01*
X0354582Y0501130D02*
Y0501930D01*
X0356150Y0501530D02*
X0356950D01*
X0356550Y0501130D02*
Y0501930D01*
X0356150Y0499561D02*
X0356950D01*
X0356550Y0499161D02*
Y0499961D01*
X0320171Y0517218D02*
X0320971D01*
X0320571Y0516818D02*
Y0517618D01*
X0320171Y0519186D02*
X0320971D01*
X0320571Y0518786D02*
Y0519586D01*
X0317101Y0520810D02*
X0317901D01*
X0317501Y0520410D02*
Y0521210D01*
X0318203Y0519186D02*
X0319003D01*
X0318603Y0518786D02*
Y0519586D01*
X0318203Y0517218D02*
X0319003D01*
X0318603Y0516818D02*
Y0517618D01*
X0517321Y0495083D02*
X0518541D01*
X0517931Y0494473D02*
Y0495693D01*
X0258585Y0505577D02*
X0259805D01*
X0259195Y0504967D02*
Y0506187D01*
X0250761Y0556387D02*
X0251981D01*
X0251371Y0555777D02*
Y0556997D01*
X0264382Y0542878D02*
X0265602D01*
X0264992Y0542269D02*
Y0543489D01*
X0524653Y0235156D02*
X0525873D01*
X0525263Y0234546D02*
Y0235766D01*
X0521700Y0235156D02*
X0522920D01*
X0522310Y0234546D02*
Y0235766D01*
X0552345Y0235156D02*
X0553565D01*
X0552954Y0234546D02*
Y0235766D01*
X0555298Y0235156D02*
X0556518D01*
X0555908Y0234546D02*
Y0235766D01*
X0441909Y0654232D02*
X0443128D01*
X0442519Y0653622D02*
Y0654842D01*
X0444862Y0654232D02*
X0446082D01*
X0445472Y0653622D02*
Y0654842D01*
X0444862Y0677536D02*
X0446082D01*
X0445472Y0676927D02*
Y0678147D01*
X0335152Y0691652D02*
X0336371D01*
X0335761Y0691042D02*
Y0692262D01*
X0332161Y0691162D02*
X0333381D01*
X0332771Y0690552D02*
Y0691772D01*
X0631873Y0689525D02*
X0632673D01*
X0632273Y0689125D02*
Y0689925D01*
X0629905Y0689525D02*
X0630704D01*
X0630304Y0689125D02*
Y0689925D01*
X0631873Y0687556D02*
X0632673D01*
X0632273Y0687156D02*
Y0687956D01*
X0629905Y0687556D02*
X0630704D01*
X0630304Y0687156D02*
Y0687956D01*
X0633842Y0687556D02*
X0634642D01*
X0634241Y0687156D02*
Y0687956D01*
X0633842Y0689525D02*
X0634642D01*
X0634241Y0689125D02*
Y0689925D01*
X0116462Y0239686D02*
X0117262D01*
X0116862Y0239286D02*
Y0240086D01*
X0114494Y0239686D02*
X0115294D01*
X0114893Y0239286D02*
Y0240086D01*
X0118430Y0239686D02*
X0119230D01*
X0118831Y0239286D02*
Y0240086D01*
X0118430Y0241654D02*
X0119230D01*
X0118831Y0241254D02*
Y0242054D01*
X0118430Y0243623D02*
X0119230D01*
X0118831Y0243223D02*
Y0244023D01*
X0114494Y0243623D02*
X0115294D01*
X0114893Y0243223D02*
Y0244023D01*
X0116462Y0243623D02*
X0117262D01*
X0116862Y0243223D02*
Y0244023D01*
X0114494Y0241654D02*
X0115294D01*
X0114893Y0241254D02*
Y0242054D01*
X0116462Y0241654D02*
X0117262D01*
X0116862Y0241254D02*
Y0242054D01*
X0155391Y0256637D02*
X0156611D01*
X0156001Y0256027D02*
Y0257247D01*
X0155391Y0253304D02*
X0156611D01*
X0156001Y0252694D02*
Y0253914D01*
X0155391Y0249971D02*
X0156611D01*
X0156001Y0249361D02*
Y0250581D01*
X0149691Y0256637D02*
X0150911D01*
X0150301Y0256027D02*
Y0257247D01*
X0149691Y0253304D02*
X0150911D01*
X0150301Y0252694D02*
Y0253914D01*
X0149691Y0249971D02*
X0150911D01*
X0150301Y0249361D02*
Y0250581D01*
X0372854Y0642130D02*
X0374074D01*
X0373464Y0641520D02*
Y0642740D01*
X0616884Y0574615D02*
X0618104D01*
X0617494Y0574005D02*
Y0575225D01*
X0620475Y0577496D02*
X0621695D01*
X0621085Y0576886D02*
Y0578106D01*
X0330094Y0231733D02*
X0330894D01*
X0330494Y0231333D02*
Y0232133D01*
X0330094Y0229765D02*
X0330894D01*
X0330494Y0229364D02*
Y0230165D01*
X0330094Y0233701D02*
X0330894D01*
X0330494Y0233301D02*
Y0234102D01*
X0328126Y0233701D02*
X0328926D01*
X0328526Y0233301D02*
Y0234102D01*
X0326157Y0233701D02*
X0326958D01*
X0326557Y0233301D02*
Y0234102D01*
X0326157Y0229765D02*
X0326958D01*
X0326557Y0229364D02*
Y0230165D01*
X0326157Y0231733D02*
X0326958D01*
X0326557Y0231333D02*
Y0232133D01*
X0328126Y0229765D02*
X0328926D01*
X0328526Y0229364D02*
Y0230165D01*
X0328126Y0231733D02*
X0328926D01*
X0328526Y0231333D02*
Y0232133D01*
X0326157Y0235670D02*
X0326958D01*
X0326557Y0235270D02*
Y0236070D01*
X0328126Y0235670D02*
X0328926D01*
X0328526Y0235270D02*
Y0236070D01*
X0330094Y0235670D02*
X0330894D01*
X0330494Y0235270D02*
Y0236070D01*
X0324189Y0235670D02*
X0324989D01*
X0324589Y0235270D02*
Y0236070D01*
X0324189Y0231733D02*
X0324989D01*
X0324589Y0231333D02*
Y0232133D01*
X0324189Y0229765D02*
X0324989D01*
X0324589Y0229364D02*
Y0230165D01*
X0324189Y0233701D02*
X0324989D01*
X0324589Y0233301D02*
Y0234102D01*
X0501456Y0220827D02*
X0502256D01*
X0501856Y0220427D02*
Y0221227D01*
X0497519Y0220827D02*
X0498319D01*
X0497919Y0220427D02*
Y0221227D01*
X0499487Y0220827D02*
X0500287D01*
X0499887Y0220427D02*
Y0221227D01*
X0503424Y0220827D02*
X0504224D01*
X0503824Y0220427D02*
Y0221227D01*
X0503424Y0226732D02*
X0504224D01*
X0503824Y0226332D02*
Y0227133D01*
X0503424Y0224764D02*
X0504224D01*
X0503824Y0224364D02*
Y0225164D01*
X0503424Y0222796D02*
X0504224D01*
X0503824Y0222395D02*
Y0223196D01*
X0499487Y0224764D02*
X0500287D01*
X0499887Y0224364D02*
Y0225164D01*
X0497519Y0224764D02*
X0498319D01*
X0497919Y0224364D02*
Y0225164D01*
X0499487Y0222796D02*
X0500287D01*
X0499887Y0222395D02*
Y0223196D01*
X0497519Y0222796D02*
X0498319D01*
X0497919Y0222395D02*
Y0223196D01*
X0501456Y0222796D02*
X0502256D01*
X0501856Y0222395D02*
Y0223196D01*
X0501456Y0224764D02*
X0502256D01*
X0501856Y0224364D02*
Y0225164D01*
X0501456Y0226732D02*
X0502256D01*
X0501856Y0226332D02*
Y0227133D01*
X0497519Y0226732D02*
X0498319D01*
X0497919Y0226332D02*
Y0227133D01*
X0499487Y0226732D02*
X0500287D01*
X0499887Y0226332D02*
Y0227133D01*
X0702865Y0275566D02*
X0704084D01*
X0703474Y0274956D02*
Y0276176D01*
X0695046Y0281692D02*
X0696266D01*
X0695655Y0281082D02*
Y0282302D01*
X0697697Y0269177D02*
X0698917D01*
X0698307Y0268567D02*
Y0269787D01*
X0531032Y0437159D02*
X0532252D01*
X0531642Y0436549D02*
Y0437769D01*
X0654169Y0341769D02*
X0655389D01*
X0654779Y0341159D02*
Y0342378D01*
X0646636Y0345918D02*
X0647856D01*
X0647246Y0345308D02*
Y0346529D01*
X0646636Y0341769D02*
X0647856D01*
X0647246Y0341159D02*
Y0342378D01*
X0646636Y0337618D02*
X0647856D01*
X0647246Y0337009D02*
Y0338229D01*
X0654169Y0337618D02*
X0655389D01*
X0654779Y0337009D02*
Y0338229D01*
X0650403Y0337618D02*
X0651623D01*
X0651013Y0337009D02*
Y0338229D01*
X0639103Y0341769D02*
X0640323D01*
X0639713Y0341159D02*
Y0342378D01*
X0642869Y0341769D02*
X0644089D01*
X0643479Y0341159D02*
Y0342378D01*
X0642869Y0345918D02*
X0644089D01*
X0643479Y0345308D02*
Y0346529D01*
X0639103Y0345918D02*
X0640323D01*
X0639713Y0345308D02*
Y0346529D01*
X0635336Y0345918D02*
X0636556D01*
X0635946Y0345308D02*
Y0346529D01*
X0635336Y0341769D02*
X0636556D01*
X0635946Y0341159D02*
Y0342378D01*
X0635336Y0337618D02*
X0636556D01*
X0635946Y0337009D02*
Y0338229D01*
X0642869Y0337618D02*
X0644089D01*
X0643479Y0337009D02*
Y0338229D01*
X0639103Y0337618D02*
X0640323D01*
X0639713Y0337009D02*
Y0338229D01*
X0627803Y0337618D02*
X0629023D01*
X0628413Y0337009D02*
Y0338229D01*
X0631569Y0337618D02*
X0632789D01*
X0632179Y0337009D02*
Y0338229D01*
X0624036Y0337618D02*
X0625256D01*
X0624646Y0337009D02*
Y0338229D01*
X0620269Y0337618D02*
X0621489D01*
X0620880Y0337009D02*
Y0338229D01*
X0620269Y0341769D02*
X0621489D01*
X0620880Y0341159D02*
Y0342378D01*
X0620269Y0345918D02*
X0621489D01*
X0620880Y0345308D02*
Y0346529D01*
X0624036Y0341769D02*
X0625256D01*
X0624646Y0341159D02*
Y0342378D01*
X0624036Y0345918D02*
X0625256D01*
X0624646Y0345308D02*
Y0346529D01*
X0627803Y0345918D02*
X0629023D01*
X0628413Y0345308D02*
Y0346529D01*
X0631569Y0345918D02*
X0632789D01*
X0632179Y0345308D02*
Y0346529D01*
X0631569Y0341769D02*
X0632789D01*
X0632179Y0341159D02*
Y0342378D01*
X0627803Y0341769D02*
X0629023D01*
X0628413Y0341159D02*
Y0342378D01*
X0627803Y0206253D02*
X0629023D01*
X0628413Y0205643D02*
Y0206863D01*
X0631569Y0206253D02*
X0632789D01*
X0632179Y0205643D02*
Y0206863D01*
X0631569Y0202103D02*
X0632789D01*
X0632179Y0201493D02*
Y0202713D01*
X0627803Y0202103D02*
X0629023D01*
X0628413Y0201493D02*
Y0202713D01*
X0624036Y0202103D02*
X0625256D01*
X0624646Y0201493D02*
Y0202713D01*
X0624036Y0206253D02*
X0625256D01*
X0624646Y0205643D02*
Y0206863D01*
X0620269Y0202103D02*
X0621489D01*
X0620880Y0201493D02*
Y0202713D01*
X0620269Y0206253D02*
X0621489D01*
X0620880Y0205643D02*
Y0206863D01*
X0620269Y0210403D02*
X0621489D01*
X0620880Y0209793D02*
Y0211013D01*
X0624036Y0210403D02*
X0625256D01*
X0624646Y0209793D02*
Y0211013D01*
X0631569Y0210403D02*
X0632789D01*
X0632179Y0209793D02*
Y0211013D01*
X0627803Y0210403D02*
X0629023D01*
X0628413Y0209793D02*
Y0211013D01*
X0639103Y0210403D02*
X0640323D01*
X0639713Y0209793D02*
Y0211013D01*
X0642869Y0210403D02*
X0644089D01*
X0643479Y0209793D02*
Y0211013D01*
X0635336Y0210403D02*
X0636556D01*
X0635946Y0209793D02*
Y0211013D01*
X0635336Y0206253D02*
X0636556D01*
X0635946Y0205643D02*
Y0206863D01*
X0635336Y0202103D02*
X0636556D01*
X0635946Y0201493D02*
Y0202713D01*
X0639103Y0202103D02*
X0640323D01*
X0639713Y0201493D02*
Y0202713D01*
X0642869Y0202103D02*
X0644089D01*
X0643479Y0201493D02*
Y0202713D01*
X0642869Y0206253D02*
X0644089D01*
X0643479Y0205643D02*
Y0206863D01*
X0639103Y0206253D02*
X0640323D01*
X0639713Y0205643D02*
Y0206863D01*
X0650403Y0210403D02*
X0651623D01*
X0651013Y0209793D02*
Y0211013D01*
X0654169Y0210403D02*
X0655389D01*
X0654779Y0209793D02*
Y0211013D01*
X0646636Y0210403D02*
X0647856D01*
X0647246Y0209793D02*
Y0211013D01*
X0646636Y0206253D02*
X0647856D01*
X0647246Y0205643D02*
Y0206863D01*
X0646636Y0202103D02*
X0647856D01*
X0647246Y0201493D02*
Y0202713D01*
X0650403Y0202103D02*
X0651623D01*
X0651013Y0201493D02*
Y0202713D01*
X0654169Y0202103D02*
X0655389D01*
X0654779Y0201493D02*
Y0202713D01*
X0654169Y0206253D02*
X0655389D01*
X0654779Y0205643D02*
Y0206863D01*
X0650403Y0206253D02*
X0651623D01*
X0651013Y0205643D02*
Y0206863D01*
X0651957Y0274995D02*
X0653177D01*
X0652567Y0274385D02*
Y0275605D01*
X0621349Y0273026D02*
X0622569D01*
X0621959Y0272416D02*
Y0273636D01*
X0644582Y0299779D02*
X0645382D01*
X0644982Y0299379D02*
Y0300179D01*
X0650758Y0299740D02*
X0651558D01*
X0651158Y0299340D02*
Y0300140D01*
X0648700Y0299740D02*
X0649500D01*
X0649100Y0299340D02*
Y0300140D01*
X0646641Y0299779D02*
X0647441D01*
X0647041Y0299379D02*
Y0300179D01*
X0640464Y0299818D02*
X0641264D01*
X0640864Y0299418D02*
Y0300218D01*
X0642523Y0299779D02*
X0643323D01*
X0642923Y0299379D02*
Y0300179D01*
X0652817Y0299740D02*
X0653617D01*
X0653217Y0299340D02*
Y0300140D01*
X0659939Y0298865D02*
X0660739D01*
X0660339Y0298465D02*
Y0299265D01*
X0659939Y0300873D02*
X0660739D01*
X0660339Y0300473D02*
Y0301273D01*
X0661946Y0298865D02*
X0662746D01*
X0662347Y0298465D02*
Y0299265D01*
X0661946Y0300873D02*
X0662746D01*
X0662347Y0300473D02*
Y0301273D01*
X0612806Y0300873D02*
X0613606D01*
X0613206Y0300473D02*
Y0301273D01*
X0612806Y0298865D02*
X0613606D01*
X0613206Y0298465D02*
Y0299265D01*
X0614814Y0300873D02*
X0615614D01*
X0615214Y0300473D02*
Y0301273D01*
X0614814Y0298865D02*
X0615614D01*
X0615214Y0298465D02*
Y0299265D01*
X0621935Y0299740D02*
X0622735D01*
X0622335Y0299340D02*
Y0300140D01*
X0632229Y0299779D02*
X0633029D01*
X0632629Y0299379D02*
Y0300179D01*
X0634288Y0299818D02*
X0635088D01*
X0634688Y0299418D02*
Y0300218D01*
X0636347Y0299818D02*
X0637147D01*
X0636747Y0299418D02*
Y0300218D01*
X0628112Y0299779D02*
X0628912D01*
X0628512Y0299379D02*
Y0300179D01*
X0626053Y0299740D02*
X0626853D01*
X0626453Y0299340D02*
Y0300140D01*
X0623994Y0299740D02*
X0624794D01*
X0624394Y0299340D02*
Y0300140D01*
X0630170Y0299779D02*
X0630970D01*
X0630570Y0299379D02*
Y0300179D01*
X0587337Y0313948D02*
X0588137D01*
X0587737Y0313548D02*
Y0314348D01*
X0587337Y0315917D02*
X0588137D01*
X0587737Y0315517D02*
Y0316317D01*
X0587337Y0311980D02*
X0588137D01*
X0587737Y0311580D02*
Y0312380D01*
X0588951Y0332614D02*
X0590171D01*
X0589561Y0332004D02*
Y0333224D01*
X0588951Y0335609D02*
X0590171D01*
X0589561Y0334999D02*
Y0336219D01*
X0586783Y0323654D02*
X0588003D01*
X0587393Y0323044D02*
Y0324264D01*
X0586783Y0326556D02*
X0588003D01*
X0587393Y0325946D02*
Y0327166D01*
X0586802Y0329288D02*
X0588022D01*
X0587412Y0328678D02*
Y0329898D01*
X0597890Y0295519D02*
X0599110D01*
X0598500Y0294909D02*
Y0296129D01*
X0600622Y0295500D02*
X0601842D01*
X0601232Y0294890D02*
Y0296110D01*
X0603524Y0295500D02*
X0604744D01*
X0604134Y0294890D02*
Y0296110D01*
X0591320Y0296921D02*
X0592540D01*
X0591930Y0296311D02*
Y0297531D01*
X0594315Y0296921D02*
X0595535D01*
X0594925Y0296311D02*
Y0297531D01*
X0587140Y0298788D02*
X0588360D01*
X0587750Y0298179D02*
Y0299398D01*
X0584145Y0298788D02*
X0585365D01*
X0584755Y0298179D02*
Y0299398D01*
X0590276Y0341828D02*
X0591496D01*
X0590886Y0341218D02*
Y0342438D01*
X0590276Y0338833D02*
X0591496D01*
X0590886Y0338223D02*
Y0339443D01*
X0651036Y0372761D02*
X0652256D01*
X0651646Y0372151D02*
Y0373371D01*
X0651036Y0369766D02*
X0652256D01*
X0651646Y0369156D02*
Y0370376D01*
X0647478Y0352968D02*
X0648699D01*
X0648089Y0352358D02*
Y0353578D01*
X0647460Y0355699D02*
X0648680D01*
X0648070Y0355089D02*
Y0356310D01*
X0647460Y0358602D02*
X0648680D01*
X0648070Y0357992D02*
Y0359212D01*
X0649117Y0363327D02*
X0650337D01*
X0649727Y0362717D02*
Y0363937D01*
X0649117Y0366322D02*
X0650337D01*
X0649727Y0365712D02*
Y0366932D01*
X0614814Y0249156D02*
X0615614D01*
X0615214Y0248756D02*
Y0249556D01*
X0612806Y0249156D02*
X0613606D01*
X0613206Y0248756D02*
Y0249556D01*
X0659939Y0249156D02*
X0660739D01*
X0660339Y0248756D02*
Y0249556D01*
X0659939Y0247148D02*
X0660739D01*
X0660339Y0246748D02*
Y0247548D01*
X0661946Y0249156D02*
X0662746D01*
X0662347Y0248756D02*
Y0249556D01*
X0630170Y0248242D02*
X0630970D01*
X0630570Y0247842D02*
Y0248642D01*
X0623994Y0248282D02*
X0624794D01*
X0624394Y0247882D02*
Y0248682D01*
X0626053Y0248282D02*
X0626853D01*
X0626453Y0247882D02*
Y0248682D01*
X0628112Y0248242D02*
X0628912D01*
X0628512Y0247842D02*
Y0248642D01*
X0636347Y0248203D02*
X0637147D01*
X0636747Y0247803D02*
Y0248603D01*
X0634288Y0248203D02*
X0635088D01*
X0634688Y0247803D02*
Y0248603D01*
X0632229Y0248242D02*
X0633029D01*
X0632629Y0247842D02*
Y0248642D01*
X0621935Y0248282D02*
X0622735D01*
X0622335Y0247882D02*
Y0248682D01*
X0614814Y0247148D02*
X0615614D01*
X0615214Y0246748D02*
Y0247548D01*
X0612806Y0247148D02*
X0613606D01*
X0613206Y0246748D02*
Y0247548D01*
X0661946Y0247148D02*
X0662746D01*
X0662347Y0246748D02*
Y0247548D01*
X0652817Y0248282D02*
X0653617D01*
X0653217Y0247882D02*
Y0248682D01*
X0642523Y0248242D02*
X0643323D01*
X0642923Y0247842D02*
Y0248642D01*
X0640464Y0248203D02*
X0641264D01*
X0640864Y0247803D02*
Y0248603D01*
X0646641Y0248242D02*
X0647441D01*
X0647041Y0247842D02*
Y0248642D01*
X0648700Y0248282D02*
X0649500D01*
X0649100Y0247882D02*
Y0248682D01*
X0650758Y0248282D02*
X0651558D01*
X0651158Y0247882D02*
Y0248682D01*
X0644582Y0248242D02*
X0645382D01*
X0644982Y0247842D02*
Y0248642D01*
X0569948Y0307084D02*
X0570749D01*
X0570349Y0306684D02*
Y0307484D01*
X0569948Y0305116D02*
X0570749D01*
X0570349Y0304715D02*
Y0305516D01*
X0569948Y0303147D02*
X0570749D01*
X0570349Y0302747D02*
Y0303547D01*
X0571917Y0307084D02*
X0572717D01*
X0572317Y0306684D02*
Y0307484D01*
X0487744Y0285202D02*
X0488544D01*
X0488144Y0284802D02*
Y0285602D01*
X0485775Y0285202D02*
X0486575D01*
X0486175Y0284802D02*
Y0285602D01*
X0487744Y0287170D02*
X0488544D01*
X0488144Y0286770D02*
Y0287570D01*
X0485775Y0287170D02*
X0486575D01*
X0486175Y0286770D02*
Y0287570D01*
X0489712Y0287170D02*
X0490512D01*
X0490112Y0286770D02*
Y0287570D01*
X0489712Y0285202D02*
X0490512D01*
X0490112Y0284802D02*
Y0285602D01*
X0489712Y0283233D02*
X0490512D01*
X0490112Y0282833D02*
Y0283633D01*
X0485775Y0283233D02*
X0486575D01*
X0486175Y0282833D02*
Y0283633D01*
X0487744Y0283233D02*
X0488544D01*
X0488144Y0282833D02*
Y0283633D01*
X0674885Y0215213D02*
X0675685D01*
X0675285Y0214813D02*
Y0215613D01*
X0676854Y0215213D02*
X0677654D01*
X0677254Y0214813D02*
Y0215613D01*
X0672917Y0215213D02*
X0673717D01*
X0673317Y0214813D02*
Y0215613D01*
X0672917Y0217182D02*
X0673717D01*
X0673317Y0216782D02*
Y0217582D01*
X0672917Y0219150D02*
X0673717D01*
X0673317Y0218750D02*
Y0219550D01*
X0676854Y0219150D02*
X0677654D01*
X0677254Y0218750D02*
Y0219550D01*
X0674885Y0219150D02*
X0675685D01*
X0675285Y0218750D02*
Y0219550D01*
X0676854Y0217182D02*
X0677654D01*
X0677254Y0216782D02*
Y0217582D01*
X0674885Y0217182D02*
X0675685D01*
X0675285Y0216782D02*
Y0217582D01*
X0669843Y0231483D02*
X0670643D01*
X0670243Y0231083D02*
Y0231883D01*
X0669843Y0229515D02*
X0670643D01*
X0670243Y0229115D02*
Y0229915D01*
X0671811Y0229515D02*
X0672612D01*
X0672212Y0229115D02*
Y0229915D01*
X0671811Y0231483D02*
X0672612D01*
X0672212Y0231083D02*
Y0231883D01*
X0671811Y0233452D02*
X0672612D01*
X0672212Y0233052D02*
Y0233852D01*
X0669843Y0233452D02*
X0670643D01*
X0670243Y0233052D02*
Y0233852D01*
X0675583Y0199347D02*
X0676803D01*
X0676193Y0198737D02*
Y0199957D01*
X0672588Y0199347D02*
X0673808D01*
X0673198Y0198737D02*
Y0199957D01*
X0682034Y0200723D02*
X0683254D01*
X0682644Y0200113D02*
Y0201333D01*
X0679303Y0200742D02*
X0680523D01*
X0679913Y0200132D02*
Y0201352D01*
X0664661Y0196953D02*
X0665881D01*
X0665271Y0196343D02*
Y0197563D01*
X0667657Y0196953D02*
X0668877D01*
X0668266Y0196343D02*
Y0197563D01*
X0163330Y0285038D02*
X0164550D01*
X0163940Y0284428D02*
Y0285648D01*
X0167097Y0285038D02*
X0168317D01*
X0167707Y0284428D02*
Y0285648D01*
X0167097Y0280888D02*
X0168317D01*
X0167707Y0280278D02*
Y0281498D01*
X0163330Y0280888D02*
X0164550D01*
X0163940Y0280278D02*
Y0281498D01*
X0159564Y0280888D02*
X0160784D01*
X0160174Y0280278D02*
Y0281498D01*
X0159564Y0285038D02*
X0160784D01*
X0160174Y0284428D02*
Y0285648D01*
X0159564Y0289188D02*
X0160784D01*
X0160174Y0288578D02*
Y0289798D01*
X0167097Y0289188D02*
X0168317D01*
X0167707Y0288578D02*
Y0289798D01*
X0163330Y0289188D02*
X0164550D01*
X0163940Y0288578D02*
Y0289798D01*
X0152030Y0285038D02*
X0153250D01*
X0152640Y0284428D02*
Y0285648D01*
X0155797Y0285038D02*
X0157017D01*
X0156407Y0284428D02*
Y0285648D01*
X0155797Y0280888D02*
X0157017D01*
X0156407Y0280278D02*
Y0281498D01*
X0152030Y0280888D02*
X0153250D01*
X0152640Y0280278D02*
Y0281498D01*
X0148264Y0280888D02*
X0149484D01*
X0148874Y0280278D02*
Y0281498D01*
X0148264Y0285038D02*
X0149484D01*
X0148874Y0284428D02*
Y0285648D01*
X0148264Y0289188D02*
X0149484D01*
X0148874Y0288578D02*
Y0289798D01*
X0155797Y0289188D02*
X0157017D01*
X0156407Y0288578D02*
Y0289798D01*
X0152030Y0289188D02*
X0153250D01*
X0152640Y0288578D02*
Y0289798D01*
X0140730Y0289188D02*
X0141950D01*
X0141340Y0288578D02*
Y0289798D01*
X0144497Y0289188D02*
X0145717D01*
X0145107Y0288578D02*
Y0289798D01*
X0136964Y0289188D02*
X0138184D01*
X0137574Y0288578D02*
Y0289798D01*
X0133197Y0289188D02*
X0134417D01*
X0133807Y0288578D02*
Y0289798D01*
X0133197Y0285038D02*
X0134417D01*
X0133807Y0284428D02*
Y0285648D01*
X0133197Y0280888D02*
X0134417D01*
X0133807Y0280278D02*
Y0281498D01*
X0136964Y0285038D02*
X0138184D01*
X0137574Y0284428D02*
Y0285648D01*
X0136964Y0280888D02*
X0138184D01*
X0137574Y0280278D02*
Y0281498D01*
X0140730Y0280888D02*
X0141950D01*
X0141340Y0280278D02*
Y0281498D01*
X0144497Y0280888D02*
X0145717D01*
X0145107Y0280278D02*
Y0281498D01*
X0144497Y0285038D02*
X0145717D01*
X0145107Y0284428D02*
Y0285648D01*
X0140730Y0285038D02*
X0141950D01*
X0141340Y0284428D02*
Y0285648D01*
X0101878Y0294193D02*
X0103098D01*
X0102488Y0293583D02*
Y0294803D01*
X0101878Y0291198D02*
X0103098D01*
X0102488Y0290588D02*
Y0291808D01*
X0099711Y0300250D02*
X0100931D01*
X0100321Y0299640D02*
Y0300860D01*
X0099730Y0297519D02*
X0100950D01*
X0100340Y0296909D02*
Y0298129D01*
X0103204Y0284979D02*
X0104424D01*
X0103814Y0284369D02*
Y0285589D01*
X0103204Y0287974D02*
X0104424D01*
X0103814Y0287364D02*
Y0288584D01*
X0196906Y0286545D02*
X0198126D01*
X0197516Y0285935D02*
Y0287155D01*
X0199901Y0286545D02*
X0201121D01*
X0200511Y0285935D02*
Y0287155D01*
X0200458Y0299236D02*
X0201678D01*
X0201068Y0298626D02*
Y0299846D01*
X0200477Y0301968D02*
X0201697D01*
X0201087Y0301358D02*
Y0302578D01*
X0200414Y0292682D02*
X0201634D01*
X0201024Y0292072D02*
Y0293291D01*
X0197419Y0292682D02*
X0198639D01*
X0198029Y0292072D02*
Y0293291D01*
X0207555Y0309598D02*
X0208355D01*
X0207955Y0309198D02*
Y0309998D01*
X0207555Y0307630D02*
X0208355D01*
X0207955Y0307230D02*
Y0308030D01*
X0209524Y0307630D02*
X0210324D01*
X0209924Y0307230D02*
Y0308030D01*
X0209524Y0309598D02*
X0210324D01*
X0209924Y0309198D02*
Y0309998D01*
X0209524Y0311567D02*
X0210324D01*
X0209924Y0311167D02*
Y0311967D01*
X0207555Y0311567D02*
X0208355D01*
X0207955Y0311167D02*
Y0311967D01*
X0207555Y0313535D02*
X0208355D01*
X0207955Y0313135D02*
Y0313935D01*
X0209524Y0313535D02*
X0210324D01*
X0209924Y0313135D02*
Y0313935D01*
X0244808Y0246348D02*
X0245608D01*
X0245208Y0245948D02*
Y0246748D01*
X0246776Y0246348D02*
X0247576D01*
X0247176Y0245948D02*
Y0246748D01*
X0244808Y0248317D02*
X0245608D01*
X0245208Y0247917D02*
Y0248717D01*
X0246776Y0248317D02*
X0247576D01*
X0247176Y0247917D02*
Y0248717D01*
X0242839Y0248317D02*
X0243639D01*
X0243239Y0247917D02*
Y0248717D01*
X0242839Y0246348D02*
X0243639D01*
X0243239Y0245948D02*
Y0246748D01*
X0242839Y0244380D02*
X0243639D01*
X0243239Y0243980D02*
Y0244780D01*
X0246776Y0244380D02*
X0247576D01*
X0247176Y0243980D02*
Y0244780D01*
X0244808Y0244380D02*
X0245608D01*
X0245208Y0243980D02*
Y0244780D01*
X0119325Y0288896D02*
X0120125D01*
X0119725Y0288495D02*
Y0289296D01*
X0117357Y0288896D02*
X0118157D01*
X0117757Y0288495D02*
Y0289296D01*
X0121294Y0288896D02*
X0122094D01*
X0121694Y0288495D02*
Y0289296D01*
X0121294Y0290864D02*
X0122094D01*
X0121694Y0290464D02*
Y0291264D01*
X0121294Y0292832D02*
X0122094D01*
X0121694Y0292432D02*
Y0293232D01*
X0117357Y0292832D02*
X0118157D01*
X0117757Y0292432D02*
Y0293232D01*
X0119325Y0292832D02*
X0120125D01*
X0119725Y0292432D02*
Y0293232D01*
X0117357Y0290864D02*
X0118157D01*
X0117757Y0290464D02*
Y0291264D01*
X0119325Y0290864D02*
X0120125D01*
X0119725Y0290464D02*
Y0291264D01*
X0092781Y0473010D02*
X0093581D01*
X0093181Y0472610D02*
Y0473410D01*
X0092781Y0471041D02*
X0093581D01*
X0093181Y0470642D02*
Y0471442D01*
X0092781Y0474978D02*
X0093581D01*
X0093181Y0474579D02*
Y0475379D01*
X0092781Y0476947D02*
X0093581D01*
X0093181Y0476547D02*
Y0477347D01*
X0092781Y0478915D02*
X0093581D01*
X0093181Y0478515D02*
Y0479315D01*
X0157510Y0327028D02*
X0158309D01*
X0157910Y0326628D02*
Y0327428D01*
X0163686Y0327067D02*
X0164486D01*
X0164086Y0326667D02*
Y0327467D01*
X0161627Y0327067D02*
X0162427D01*
X0162027Y0326667D02*
Y0327467D01*
X0159568Y0327028D02*
X0160368D01*
X0159968Y0326628D02*
Y0327428D01*
X0151333Y0326988D02*
X0152133D01*
X0151733Y0326588D02*
Y0327388D01*
X0153392Y0326988D02*
X0154192D01*
X0153792Y0326588D02*
Y0327388D01*
X0155451Y0327028D02*
X0156251D01*
X0155851Y0326628D02*
Y0327428D01*
X0165745Y0327067D02*
X0166545D01*
X0166145Y0326667D02*
Y0327467D01*
X0174874Y0327942D02*
X0175674D01*
X0175274Y0327542D02*
Y0328342D01*
X0174874Y0325934D02*
X0175674D01*
X0175274Y0325534D02*
Y0326334D01*
X0125733Y0325934D02*
X0126533D01*
X0126134Y0325534D02*
Y0326334D01*
X0127741Y0325934D02*
X0128541D01*
X0128141Y0325534D02*
Y0326334D01*
X0134863Y0327067D02*
X0135663D01*
X0135263Y0326667D02*
Y0327467D01*
X0145157Y0327028D02*
X0145957D01*
X0145557Y0326628D02*
Y0327428D01*
X0147215Y0326988D02*
X0148015D01*
X0147616Y0326588D02*
Y0327388D01*
X0149274Y0326988D02*
X0150074D01*
X0149674Y0326588D02*
Y0327388D01*
X0141039Y0327028D02*
X0141839D01*
X0141439Y0326628D02*
Y0327428D01*
X0138980Y0327067D02*
X0139780D01*
X0139380Y0326667D02*
Y0327467D01*
X0136922Y0327067D02*
X0137722D01*
X0137321Y0326667D02*
Y0327467D01*
X0143098Y0327028D02*
X0143898D01*
X0143498Y0326628D02*
Y0327428D01*
X0172866Y0325934D02*
X0173666D01*
X0173266Y0325534D02*
Y0326334D01*
X0172866Y0327942D02*
X0173666D01*
X0173266Y0327542D02*
Y0328342D01*
X0125733Y0327942D02*
X0126533D01*
X0126134Y0327542D02*
Y0328342D01*
X0127741Y0327942D02*
X0128541D01*
X0128141Y0327542D02*
Y0328342D01*
X0140730Y0420554D02*
X0141950D01*
X0141340Y0419944D02*
Y0421164D01*
X0144497Y0420554D02*
X0145717D01*
X0145107Y0419944D02*
Y0421164D01*
X0144497Y0424704D02*
X0145717D01*
X0145107Y0424094D02*
Y0425314D01*
X0140730Y0424704D02*
X0141950D01*
X0141340Y0424094D02*
Y0425314D01*
X0136964Y0424704D02*
X0138184D01*
X0137574Y0424094D02*
Y0425314D01*
X0136964Y0420554D02*
X0138184D01*
X0137574Y0419944D02*
Y0421164D01*
X0133197Y0424704D02*
X0134417D01*
X0133807Y0424094D02*
Y0425314D01*
X0133197Y0420554D02*
X0134417D01*
X0133807Y0419944D02*
Y0421164D01*
X0133197Y0416404D02*
X0134417D01*
X0133807Y0415794D02*
Y0417014D01*
X0136964Y0416404D02*
X0138184D01*
X0137574Y0415794D02*
Y0417014D01*
X0144497Y0416404D02*
X0145717D01*
X0145107Y0415794D02*
Y0417014D01*
X0140730Y0416404D02*
X0141950D01*
X0141340Y0415794D02*
Y0417014D01*
X0152030Y0416404D02*
X0153250D01*
X0152640Y0415794D02*
Y0417014D01*
X0155797Y0416404D02*
X0157017D01*
X0156407Y0415794D02*
Y0417014D01*
X0148264Y0416404D02*
X0149484D01*
X0148874Y0415794D02*
Y0417014D01*
X0148264Y0420554D02*
X0149484D01*
X0148874Y0419944D02*
Y0421164D01*
X0148264Y0424704D02*
X0149484D01*
X0148874Y0424094D02*
Y0425314D01*
X0152030Y0424704D02*
X0153250D01*
X0152640Y0424094D02*
Y0425314D01*
X0155797Y0424704D02*
X0157017D01*
X0156407Y0424094D02*
Y0425314D01*
X0155797Y0420554D02*
X0157017D01*
X0156407Y0419944D02*
Y0421164D01*
X0152030Y0420554D02*
X0153250D01*
X0152640Y0419944D02*
Y0421164D01*
X0163330Y0416404D02*
X0164550D01*
X0163940Y0415794D02*
Y0417014D01*
X0167097Y0416404D02*
X0168317D01*
X0167707Y0415794D02*
Y0417014D01*
X0159564Y0416404D02*
X0160784D01*
X0160174Y0415794D02*
Y0417014D01*
X0159564Y0420554D02*
X0160784D01*
X0160174Y0419944D02*
Y0421164D01*
X0159564Y0424704D02*
X0160784D01*
X0160174Y0424094D02*
Y0425314D01*
X0163330Y0424704D02*
X0164550D01*
X0163940Y0424094D02*
Y0425314D01*
X0167097Y0424704D02*
X0168317D01*
X0167707Y0424094D02*
Y0425314D01*
X0167097Y0420554D02*
X0168317D01*
X0167707Y0419944D02*
Y0421164D01*
X0163330Y0420554D02*
X0164550D01*
X0163940Y0419944D02*
Y0421164D01*
X0192837Y0405195D02*
X0194057D01*
X0193447Y0404585D02*
Y0405804D01*
X0200192Y0405244D02*
X0201412D01*
X0200802Y0404634D02*
Y0405854D01*
X0103204Y0417619D02*
X0104424D01*
X0103814Y0417008D02*
Y0418228D01*
X0103204Y0420614D02*
X0104424D01*
X0103814Y0420004D02*
Y0421224D01*
X0103256Y0383204D02*
X0104476D01*
X0103867Y0382594D02*
Y0383814D01*
X0103256Y0380209D02*
X0104476D01*
X0103867Y0379599D02*
Y0380819D01*
X0101860Y0385929D02*
X0103080D01*
X0102470Y0385319D02*
Y0386539D01*
X0101860Y0388924D02*
X0103080D01*
X0102470Y0388314D02*
Y0389534D01*
X0099711Y0392914D02*
X0100931D01*
X0100321Y0392304D02*
Y0393524D01*
X0099711Y0395816D02*
X0100931D01*
X0100321Y0395206D02*
Y0396426D01*
X0099730Y0398547D02*
X0100950D01*
X0100340Y0397937D02*
Y0399157D01*
X0099730Y0408073D02*
X0100950D01*
X0100340Y0407463D02*
Y0408683D01*
X0099711Y0405342D02*
X0100931D01*
X0100321Y0404732D02*
Y0405952D01*
X0099711Y0402440D02*
X0100931D01*
X0100321Y0401830D02*
Y0403050D01*
X0101878Y0414395D02*
X0103098D01*
X0102488Y0413785D02*
Y0415005D01*
X0101878Y0411399D02*
X0103098D01*
X0102488Y0410789D02*
Y0412009D01*
X0118312Y0381024D02*
X0119112D01*
X0118712Y0380624D02*
Y0381424D01*
X0118312Y0382992D02*
X0119112D01*
X0118712Y0382592D02*
Y0383392D01*
X0118312Y0384961D02*
X0119112D01*
X0118712Y0384561D02*
Y0385361D01*
X0118312Y0388898D02*
X0119112D01*
X0118712Y0388498D02*
Y0389298D01*
X0118312Y0386929D02*
X0119112D01*
X0118712Y0386529D02*
Y0387329D01*
X0119325Y0414728D02*
X0120125D01*
X0119725Y0414328D02*
Y0415128D01*
X0117357Y0414728D02*
X0118157D01*
X0117757Y0414328D02*
Y0415128D01*
X0119325Y0412760D02*
X0120125D01*
X0119725Y0412360D02*
Y0413160D01*
X0117357Y0412760D02*
X0118157D01*
X0117757Y0412360D02*
Y0413160D01*
X0121294Y0412760D02*
X0122094D01*
X0121694Y0412360D02*
Y0413160D01*
X0121294Y0414728D02*
X0122094D01*
X0121694Y0414328D02*
Y0415128D01*
X0121294Y0416697D02*
X0122094D01*
X0121694Y0416297D02*
Y0417097D01*
X0117357Y0416697D02*
X0118157D01*
X0117757Y0416297D02*
Y0417097D01*
X0119325Y0416697D02*
X0120125D01*
X0119725Y0416297D02*
Y0417097D01*
X0143098Y0378565D02*
X0143898D01*
X0143498Y0378165D02*
Y0378965D01*
X0136922Y0378525D02*
X0137722D01*
X0137321Y0378125D02*
Y0378925D01*
X0138980Y0378525D02*
X0139780D01*
X0139380Y0378125D02*
Y0378925D01*
X0141039Y0378565D02*
X0141839D01*
X0141439Y0378165D02*
Y0378965D01*
X0149274Y0378604D02*
X0150074D01*
X0149674Y0378204D02*
Y0379004D01*
X0147215Y0378604D02*
X0148015D01*
X0147616Y0378204D02*
Y0379004D01*
X0145157Y0378565D02*
X0145957D01*
X0145557Y0378165D02*
Y0378965D01*
X0134863Y0378525D02*
X0135663D01*
X0135263Y0378125D02*
Y0378925D01*
X0127741Y0377651D02*
X0128541D01*
X0128141Y0377251D02*
Y0378051D01*
X0127741Y0379659D02*
X0128541D01*
X0128141Y0379258D02*
Y0380059D01*
X0125733Y0377651D02*
X0126533D01*
X0126134Y0377251D02*
Y0378051D01*
X0125733Y0379659D02*
X0126533D01*
X0126134Y0379258D02*
Y0380059D01*
X0125218Y0369861D02*
X0126018D01*
X0125618Y0369461D02*
Y0370261D01*
X0127116Y0369861D02*
X0127916D01*
X0127516Y0369461D02*
Y0370261D01*
X0125217Y0367907D02*
X0126017D01*
X0125617Y0367507D02*
Y0368307D01*
X0127118Y0367895D02*
X0127918D01*
X0127518Y0367495D02*
Y0368295D01*
X0174874Y0379659D02*
X0175674D01*
X0175274Y0379258D02*
Y0380059D01*
X0174874Y0377651D02*
X0175674D01*
X0175274Y0377251D02*
Y0378051D01*
X0172866Y0379659D02*
X0173666D01*
X0173266Y0379258D02*
Y0380059D01*
X0172866Y0377651D02*
X0173666D01*
X0173266Y0377251D02*
Y0378051D01*
X0165745Y0378525D02*
X0166545D01*
X0166145Y0378125D02*
Y0378925D01*
X0155451Y0378565D02*
X0156251D01*
X0155851Y0378165D02*
Y0378965D01*
X0153392Y0378604D02*
X0154192D01*
X0153792Y0378204D02*
Y0379004D01*
X0151333Y0378604D02*
X0152133D01*
X0151733Y0378204D02*
Y0379004D01*
X0159568Y0378565D02*
X0160368D01*
X0159968Y0378165D02*
Y0378965D01*
X0161627Y0378525D02*
X0162427D01*
X0162027Y0378125D02*
Y0378925D01*
X0163686Y0378525D02*
X0164486D01*
X0164086Y0378125D02*
Y0378925D01*
X0157510Y0378565D02*
X0158309D01*
X0157910Y0378165D02*
Y0378965D01*
X0147746Y0374071D02*
X0148546D01*
X0148146Y0373671D02*
Y0374471D01*
X0147746Y0372153D02*
X0148546D01*
X0148146Y0371753D02*
Y0372553D01*
X0152901Y0374071D02*
X0153701D01*
X0153301Y0373671D02*
Y0374471D01*
X0152901Y0372153D02*
X0153701D01*
X0153301Y0371753D02*
Y0372553D01*
X0149005Y0368558D02*
X0149805D01*
X0149405Y0368158D02*
Y0368958D01*
X0147746Y0370235D02*
X0148546D01*
X0148146Y0369835D02*
Y0370635D01*
X0152901Y0370235D02*
X0153701D01*
X0153301Y0369835D02*
Y0370635D01*
X0151602Y0368558D02*
X0152402D01*
X0152003Y0368158D02*
Y0368958D01*
X0150304Y0363036D02*
X0151104D01*
X0150704Y0362636D02*
Y0363436D01*
X0150304Y0366871D02*
X0151104D01*
X0150704Y0366471D02*
Y0367271D01*
X0423775Y0520624D02*
X0424995D01*
X0424385Y0520014D02*
Y0521234D01*
X0503404Y0372194D02*
X0504624D01*
X0504014Y0371584D02*
Y0372804D01*
X0287714Y0495874D02*
X0288934D01*
X0288324Y0495264D02*
Y0496484D01*
X0595620Y0257698D02*
X0596840D01*
X0596230Y0257088D02*
Y0258308D01*
X0583030Y0270632D02*
X0584250D01*
X0583640Y0270022D02*
Y0271242D01*
X0589618Y0270632D02*
X0590838D01*
X0590228Y0270022D02*
Y0271242D01*
X0583030Y0284906D02*
X0584250D01*
X0583640Y0284296D02*
Y0285516D01*
X0589618Y0284906D02*
X0590838D01*
X0590228Y0284296D02*
Y0285516D01*
X0700226Y0285542D02*
X0701446D01*
X0700836Y0284932D02*
Y0286152D01*
X0593571Y0268457D02*
X0594791D01*
X0594181Y0267846D02*
Y0269067D01*
X0591996Y0263437D02*
X0593216D01*
X0592606Y0262827D02*
Y0264047D01*
X0594482Y0272189D02*
X0595702D01*
X0595092Y0271579D02*
Y0272799D01*
X0595067Y0276535D02*
X0596287D01*
X0595677Y0275925D02*
Y0277145D01*
X0593982Y0280893D02*
X0595202D01*
X0594592Y0280283D02*
Y0281503D01*
X0210135Y0363327D02*
X0211355D01*
X0210745Y0362717D02*
Y0363937D01*
X0100968Y0346818D02*
X0102188D01*
X0101578Y0346208D02*
Y0347428D01*
X0100968Y0374296D02*
X0102188D01*
X0101578Y0373686D02*
Y0374906D01*
X0106499Y0335892D02*
X0107719D01*
X0107108Y0335282D02*
Y0336502D01*
X0106499Y0340222D02*
X0107719D01*
X0107108Y0339612D02*
Y0340832D01*
X0104924Y0345242D02*
X0106144D01*
X0105534Y0344632D02*
Y0345852D01*
X0107410Y0350474D02*
X0108630D01*
X0108019Y0349864D02*
Y0351084D01*
X0107994Y0354821D02*
X0109214D01*
X0108605Y0354211D02*
Y0355431D01*
X0106909Y0359179D02*
X0108129D01*
X0107519Y0358569D02*
Y0359789D01*
X0106909Y0363509D02*
X0108129D01*
X0107519Y0362899D02*
Y0364120D01*
X0106909Y0367840D02*
X0108129D01*
X0107519Y0367230D02*
Y0368450D01*
X0134276Y0351812D02*
X0135496D01*
X0134886Y0351202D02*
Y0352422D01*
X0164885Y0353780D02*
X0166105D01*
X0165495Y0353170D02*
Y0354390D01*
X0449630Y0521853D02*
X0450850D01*
X0450241Y0521243D02*
Y0522463D01*
X0537132Y0494422D02*
X0538352D01*
X0537742Y0493812D02*
Y0495032D01*
X0436564Y0506846D02*
X0437784D01*
X0437174Y0506236D02*
Y0507456D01*
X0305021Y0504006D02*
X0306241D01*
X0305631Y0503396D02*
Y0504616D01*
X0186267Y0553810D02*
X0187055D01*
X0186661Y0553416D02*
Y0554203D01*
X0181767Y0553810D02*
X0182555D01*
X0182161Y0553416D02*
Y0554203D01*
X0177267Y0553810D02*
X0178055D01*
X0177661Y0553416D02*
Y0554203D01*
X0172767Y0564910D02*
X0173555D01*
X0173161Y0564516D02*
Y0565303D01*
X0177267Y0564910D02*
X0178055D01*
X0177661Y0564516D02*
Y0565303D01*
X0181767Y0564910D02*
X0182555D01*
X0182161Y0564516D02*
Y0565303D01*
X0172767Y0553810D02*
X0173555D01*
X0173161Y0553416D02*
Y0554203D01*
X0166825Y0583817D02*
X0168045D01*
X0167435Y0583207D02*
Y0584427D01*
X0188269Y0494596D02*
X0189489D01*
X0188879Y0493986D02*
Y0495206D01*
X0536540Y0430839D02*
X0537760D01*
X0537150Y0430229D02*
Y0431449D01*
X0594017Y0445020D02*
X0595237D01*
X0594627Y0444410D02*
Y0445630D01*
X0586540Y0490965D02*
X0587760D01*
X0587150Y0490355D02*
Y0491575D01*
X0566079Y0471900D02*
X0567299D01*
X0566689Y0471290D02*
Y0472510D01*
X0565884Y0477181D02*
X0567104D01*
X0566494Y0476571D02*
Y0477791D01*
X0537198Y0501770D02*
X0538418D01*
X0537808Y0501160D02*
Y0502380D01*
X0597641Y0500700D02*
X0598861D01*
X0598251Y0500090D02*
Y0501310D01*
X0597841Y0497400D02*
X0599061D01*
X0598451Y0496790D02*
Y0498010D01*
X0583729Y0444308D02*
X0584949D01*
X0584339Y0443698D02*
Y0444918D01*
X0540840Y0441100D02*
X0542060D01*
X0541450Y0440490D02*
Y0441710D01*
X0551200Y0441800D02*
X0552420D01*
X0551810Y0441190D02*
Y0442410D01*
X0534840Y0453299D02*
X0536060D01*
X0535450Y0452689D02*
Y0453909D01*
X0534040Y0456500D02*
X0535260D01*
X0534650Y0455890D02*
Y0457110D01*
X0533540Y0462699D02*
X0534760D01*
X0534150Y0462089D02*
Y0463309D01*
X0526540Y0477200D02*
X0527760D01*
X0527150Y0476590D02*
Y0477810D01*
X0525240Y0486800D02*
X0526460D01*
X0525850Y0486190D02*
Y0487410D01*
X0520440Y0490412D02*
X0521660D01*
X0521050Y0489802D02*
Y0491022D01*
X0527640Y0490900D02*
X0528860D01*
X0528250Y0490290D02*
Y0491510D01*
X0524140Y0492400D02*
X0525360D01*
X0524750Y0491790D02*
Y0493010D01*
X0526869Y0498141D02*
X0528089D01*
X0527479Y0497531D02*
Y0498751D01*
X0524340Y0500800D02*
X0525560D01*
X0524950Y0500190D02*
Y0501410D01*
X0538540Y0450500D02*
X0539760D01*
X0539150Y0449890D02*
Y0451110D01*
X0540640Y0481600D02*
X0541860D01*
X0541250Y0480990D02*
Y0482210D01*
X0533740Y0425276D02*
X0534960D01*
X0534350Y0424665D02*
Y0425885D01*
X0525640Y0469800D02*
X0526860D01*
X0526250Y0469190D02*
Y0470410D01*
X0530374Y0421274D02*
X0531594D01*
X0530984Y0420664D02*
Y0421884D01*
X0526192Y0448187D02*
X0527412D01*
X0526802Y0447577D02*
Y0448797D01*
X0542980Y0497376D02*
X0544200D01*
X0543590Y0496766D02*
Y0497986D01*
X0542740Y0449500D02*
X0543960D01*
X0543350Y0448890D02*
Y0450110D01*
X0525440Y0474200D02*
X0526660D01*
X0526050Y0473590D02*
Y0474810D01*
X0526140Y0480400D02*
X0527360D01*
X0526750Y0479790D02*
Y0481010D01*
X0525840Y0466000D02*
X0527060D01*
X0526450Y0465390D02*
Y0466610D01*
X0537640Y0490000D02*
X0538860D01*
X0538250Y0489390D02*
Y0490610D01*
X0551740Y0494236D02*
X0552960D01*
X0552350Y0493626D02*
Y0494846D01*
X0535740Y0448800D02*
X0536960D01*
X0536350Y0448190D02*
Y0449410D01*
X0540670Y0434770D02*
X0541890D01*
X0541280Y0434160D02*
Y0435380D01*
X0544310Y0434770D02*
X0545530D01*
X0544920Y0434160D02*
Y0435380D01*
X0545740Y0429700D02*
X0546960D01*
X0546350Y0429090D02*
Y0430310D01*
X0549702Y0429700D02*
X0550922D01*
X0550312Y0429090D02*
Y0430310D01*
X0551440Y0447700D02*
X0552660D01*
X0552050Y0447090D02*
Y0448310D01*
X0552640Y0427700D02*
X0553860D01*
X0553250Y0427090D02*
Y0428310D01*
X0557296Y0422900D02*
X0558516D01*
X0557906Y0422290D02*
Y0423510D01*
X0569640Y0429500D02*
X0570860D01*
X0570250Y0428890D02*
Y0430110D01*
X0573140Y0433900D02*
X0574360D01*
X0573750Y0433290D02*
Y0434510D01*
X0556280Y0427700D02*
X0557500D01*
X0556890Y0427090D02*
Y0428310D01*
X0560936Y0422900D02*
X0562156D01*
X0561546Y0422290D02*
Y0423510D01*
X0573280Y0429500D02*
X0574500D01*
X0573890Y0428890D02*
Y0430110D01*
X0573140Y0437980D02*
X0574360D01*
X0573750Y0437370D02*
Y0438590D01*
X0562540Y0430600D02*
X0563760D01*
X0563150Y0429990D02*
Y0431210D01*
X0566040Y0430700D02*
X0567260D01*
X0566650Y0430090D02*
Y0431310D01*
X0542140Y0460900D02*
X0543360D01*
X0542750Y0460290D02*
Y0461510D01*
X0542940Y0479100D02*
X0544160D01*
X0543550Y0478490D02*
Y0479710D01*
X0539940Y0447000D02*
X0541160D01*
X0540550Y0446390D02*
Y0447610D01*
X0551340Y0444930D02*
X0552560D01*
X0551950Y0444320D02*
Y0445540D01*
X0546040Y0452000D02*
X0547260D01*
X0546650Y0451390D02*
Y0452610D01*
X0548416Y0492200D02*
X0549636D01*
X0549026Y0491590D02*
Y0492810D01*
X0547440Y0436200D02*
X0548660D01*
X0548050Y0435590D02*
Y0436810D01*
X0551940Y0433000D02*
X0553160D01*
X0552550Y0432390D02*
Y0433610D01*
X0550340Y0425400D02*
X0551560D01*
X0550950Y0424790D02*
Y0426010D01*
X0559180Y0418350D02*
X0560400D01*
X0559790Y0417740D02*
Y0418960D01*
X0561740Y0427500D02*
X0562960D01*
X0562350Y0426890D02*
Y0428110D01*
X0567140Y0427400D02*
X0568360D01*
X0567750Y0426790D02*
Y0428010D01*
X0575540Y0427000D02*
X0576760D01*
X0576150Y0426390D02*
Y0427610D01*
X0576140Y0432600D02*
X0577360D01*
X0576750Y0431990D02*
Y0433210D01*
X0576140Y0439200D02*
X0577360D01*
X0576750Y0438590D02*
Y0439810D01*
X0435513Y0636035D02*
X0436733D01*
X0436123Y0635425D02*
Y0636645D01*
X0420452Y0504095D02*
X0421240D01*
X0420846Y0503701D02*
Y0504489D01*
X0420452Y0508195D02*
X0421240D01*
X0420846Y0507801D02*
Y0508589D01*
X0414552Y0499595D02*
X0415340D01*
X0414946Y0499201D02*
Y0499989D01*
X0409052Y0499595D02*
X0409840D01*
X0409446Y0499201D02*
Y0499989D01*
X0414552Y0508195D02*
X0415340D01*
X0414946Y0507801D02*
Y0508589D01*
X0414552Y0503595D02*
X0415340D01*
X0414946Y0503201D02*
Y0503989D01*
X0409052Y0503595D02*
X0409840D01*
X0409446Y0503201D02*
Y0503989D01*
X0409052Y0508195D02*
X0409840D01*
X0409446Y0507801D02*
Y0508589D01*
X0436920Y0497936D02*
X0438140D01*
X0437530Y0497326D02*
Y0498546D01*
X0465779Y0481300D02*
X0466999D01*
X0466389Y0480690D02*
Y0481910D01*
X0465584Y0486581D02*
X0466804D01*
X0466194Y0485971D02*
Y0487191D01*
X0459279Y0491445D02*
X0460499D01*
X0459889Y0490835D02*
Y0492055D01*
X0428740Y0458800D02*
X0429960D01*
X0429350Y0458190D02*
Y0459410D01*
X0415527Y0481264D02*
X0416747D01*
X0416137Y0480654D02*
Y0481874D01*
X0497741Y0495930D02*
X0498961D01*
X0498351Y0495320D02*
Y0496540D01*
X0491441Y0514100D02*
X0492661D01*
X0492051Y0513490D02*
Y0514710D01*
X0487341Y0510800D02*
X0488561D01*
X0487951Y0510190D02*
Y0511410D01*
X0497838Y0476131D02*
X0499058D01*
X0498448Y0475522D02*
Y0476742D01*
X0362092Y0282795D02*
X0363312D01*
X0362702Y0282185D02*
Y0283405D01*
X0292940Y0434800D02*
X0294160D01*
X0293550Y0434190D02*
Y0435410D01*
X0299440Y0438200D02*
X0300660D01*
X0300050Y0437590D02*
Y0438810D01*
X0369141Y0495930D02*
X0370361D01*
X0369751Y0495320D02*
Y0496540D01*
X0358434Y0443319D02*
X0359654D01*
X0359044Y0442709D02*
Y0443929D01*
X0307340Y0447188D02*
X0308560D01*
X0307950Y0446578D02*
Y0447798D01*
X0315640Y0445588D02*
X0316860D01*
X0316250Y0444978D02*
Y0446198D01*
X0318440Y0434588D02*
X0319660D01*
X0319050Y0433978D02*
Y0435198D01*
X0320140Y0442388D02*
X0321360D01*
X0320750Y0441778D02*
Y0442998D01*
X0327040Y0427688D02*
X0328260D01*
X0327650Y0427078D02*
Y0428298D01*
X0329940Y0436888D02*
X0331160D01*
X0330550Y0436278D02*
Y0437498D01*
X0335340Y0436788D02*
X0336560D01*
X0335950Y0436178D02*
Y0437398D01*
X0334240Y0440088D02*
X0335460D01*
X0334850Y0439478D02*
Y0440698D01*
X0330740Y0439988D02*
X0331960D01*
X0331350Y0439378D02*
Y0440598D01*
X0341340Y0454068D02*
X0342560D01*
X0341950Y0453458D02*
Y0454678D01*
X0339712Y0445894D02*
X0340932D01*
X0340322Y0445284D02*
Y0446504D01*
X0329136Y0432288D02*
X0330356D01*
X0329746Y0431678D02*
Y0432898D01*
X0324480Y0437088D02*
X0325700D01*
X0325090Y0436478D02*
Y0437698D01*
X0341340Y0450288D02*
X0342560D01*
X0341950Y0449678D02*
Y0450898D01*
X0336072Y0445894D02*
X0337292D01*
X0336682Y0445284D02*
Y0446504D01*
X0325496Y0432288D02*
X0326716D01*
X0326106Y0431678D02*
Y0432898D01*
X0320840Y0437088D02*
X0322060D01*
X0321450Y0436478D02*
Y0437698D01*
X0317902Y0439088D02*
X0319122D01*
X0318512Y0438478D02*
Y0439698D01*
X0313940Y0439088D02*
X0315160D01*
X0314550Y0438478D02*
Y0439698D01*
X0312510Y0444158D02*
X0313730D01*
X0313120Y0443548D02*
Y0444768D01*
X0308870Y0444158D02*
X0310090D01*
X0309480Y0443548D02*
Y0444768D01*
X0319390Y0457250D02*
X0320610D01*
X0320000Y0456640D02*
Y0457860D01*
X0295440Y0493800D02*
X0296660D01*
X0296050Y0493190D02*
Y0494410D01*
X0292240Y0492000D02*
X0293460D01*
X0292850Y0491390D02*
Y0492610D01*
X0294940Y0501400D02*
X0296160D01*
X0295550Y0500790D02*
Y0502010D01*
X0290990Y0502550D02*
X0292210D01*
X0291600Y0501940D02*
Y0503160D01*
X0294590Y0506650D02*
X0295810D01*
X0295200Y0506040D02*
Y0507260D01*
X0294640Y0509990D02*
X0295860D01*
X0295250Y0509380D02*
Y0510600D01*
X0306140Y0453188D02*
X0307360D01*
X0306750Y0452578D02*
Y0453798D01*
X0298680Y0449278D02*
X0299900D01*
X0299290Y0448668D02*
Y0449888D01*
X0295940Y0442688D02*
X0297160D01*
X0296550Y0442078D02*
Y0443298D01*
X0299590Y0445898D02*
X0300810D01*
X0300200Y0445288D02*
Y0446508D01*
X0297640Y0456888D02*
X0298860D01*
X0298250Y0456278D02*
Y0457498D01*
X0308140Y0456399D02*
X0309360D01*
X0308750Y0455789D02*
Y0457009D01*
X0302440Y0463500D02*
X0303660D01*
X0303050Y0462890D02*
Y0464110D01*
X0301840Y0466700D02*
X0303060D01*
X0302450Y0466090D02*
Y0467310D01*
X0301150Y0472100D02*
X0302370D01*
X0301760Y0471490D02*
Y0472710D01*
X0308840Y0490800D02*
X0310060D01*
X0309450Y0490190D02*
Y0491410D01*
X0314240Y0461400D02*
X0315460D01*
X0314850Y0460790D02*
Y0462010D01*
X0319240Y0451200D02*
X0320460D01*
X0319850Y0450590D02*
Y0451810D01*
X0309040Y0450500D02*
X0310260D01*
X0309650Y0449890D02*
Y0451110D01*
X0306840Y0459300D02*
X0308060D01*
X0307450Y0458690D02*
Y0459910D01*
X0319140Y0454500D02*
X0320360D01*
X0319750Y0453890D02*
Y0455110D01*
X0310440Y0488000D02*
X0311660D01*
X0311050Y0487390D02*
Y0488610D01*
X0310140Y0470600D02*
X0311360D01*
X0310750Y0469990D02*
Y0471210D01*
X0318089Y0508767D02*
X0319309D01*
X0318699Y0508157D02*
Y0509377D01*
X0305840Y0499400D02*
X0307060D01*
X0306450Y0498790D02*
Y0500010D01*
X0292815Y0477150D02*
X0294035D01*
X0293425Y0476540D02*
Y0477760D01*
X0292140Y0488500D02*
X0293360D01*
X0292750Y0487890D02*
Y0489110D01*
X0290778Y0484765D02*
X0291998D01*
X0291388Y0484155D02*
Y0485375D01*
X0310940Y0458900D02*
X0312160D01*
X0311550Y0458290D02*
Y0459510D01*
X0315334Y0510684D02*
X0316554D01*
X0315944Y0510074D02*
Y0511294D01*
X0311149Y0511492D02*
X0312369D01*
X0311759Y0510882D02*
Y0512102D01*
X0306440Y0508700D02*
X0307660D01*
X0307050Y0508090D02*
Y0509310D01*
X0311140Y0507800D02*
X0312360D01*
X0311750Y0507190D02*
Y0508410D01*
X0175940Y0486010D02*
X0177160D01*
X0176550Y0485400D02*
Y0486620D01*
X0189740Y0450500D02*
X0190960D01*
X0190350Y0449890D02*
Y0451110D01*
X0191840Y0481700D02*
X0193060D01*
X0192450Y0481090D02*
Y0482310D01*
X0171853Y0466687D02*
X0173073D01*
X0172463Y0466077D02*
Y0467297D01*
X0267760Y0494924D02*
X0268981D01*
X0268371Y0494314D02*
Y0495534D01*
X0258598Y0502470D02*
X0259819D01*
X0259208Y0501860D02*
Y0503080D01*
X0264287Y0501641D02*
X0265507D01*
X0264897Y0501031D02*
Y0502251D01*
X0263370Y0488321D02*
X0264591D01*
X0263981Y0487711D02*
Y0488931D01*
X0274647Y0502900D02*
X0275867D01*
X0275257Y0502290D02*
Y0503510D01*
X0275412Y0484307D02*
X0276632D01*
X0276022Y0483697D02*
Y0484917D01*
X0260370Y0467408D02*
X0261591D01*
X0260981Y0466798D02*
Y0468018D01*
X0276919Y0500879D02*
X0278139D01*
X0277529Y0500269D02*
Y0501489D01*
X0224805Y0518731D02*
X0226025D01*
X0225415Y0518121D02*
Y0519341D01*
X0227892Y0445108D02*
X0229112D01*
X0228502Y0444498D02*
Y0445718D01*
X0241401Y0436986D02*
X0242620D01*
X0242010Y0436376D02*
Y0437596D01*
X0256360Y0452271D02*
X0257580D01*
X0256970Y0451661D02*
Y0452881D01*
X0237225Y0495550D02*
X0238445D01*
X0237835Y0494940D02*
Y0496160D01*
X0249840Y0505289D02*
X0251060D01*
X0250450Y0504679D02*
Y0505899D01*
X0242740Y0505700D02*
X0243960D01*
X0243350Y0505090D02*
Y0506310D01*
X0249641Y0487730D02*
X0250861D01*
X0250251Y0487120D02*
Y0488340D01*
X0250505Y0466732D02*
X0251725D01*
X0251115Y0466121D02*
Y0467342D01*
X0247977Y0461302D02*
X0249197D01*
X0248587Y0460692D02*
Y0461912D01*
X0252454Y0445608D02*
X0253674D01*
X0253064Y0444998D02*
Y0446218D01*
X0204700Y0427400D02*
X0205920D01*
X0205310Y0426790D02*
Y0428010D01*
X0208340Y0427400D02*
X0209560D01*
X0208950Y0426790D02*
Y0428010D01*
X0216040Y0426100D02*
X0217260D01*
X0216650Y0425490D02*
Y0426710D01*
X0212400Y0426100D02*
X0213620D01*
X0213010Y0425490D02*
Y0426710D01*
X0228140Y0416300D02*
X0229360D01*
X0228750Y0415690D02*
Y0416910D01*
X0222140Y0416100D02*
X0223360D01*
X0222750Y0415490D02*
Y0416710D01*
X0233840Y0422159D02*
X0235060D01*
X0234450Y0421550D02*
Y0422769D01*
X0235840Y0424700D02*
X0237060D01*
X0236450Y0424090D02*
Y0425310D01*
X0231878Y0424700D02*
X0233098D01*
X0232488Y0424090D02*
Y0425310D01*
X0224140Y0447678D02*
X0225360D01*
X0224750Y0447068D02*
Y0448288D01*
X0227940Y0441572D02*
X0229160D01*
X0228550Y0440962D02*
Y0442182D01*
X0229902Y0428200D02*
X0231122D01*
X0230512Y0427590D02*
Y0428810D01*
X0227140Y0419600D02*
X0228360D01*
X0227750Y0418990D02*
Y0420210D01*
X0224140Y0444038D02*
X0225360D01*
X0224750Y0443428D02*
Y0444648D01*
X0227940Y0437610D02*
X0229160D01*
X0228550Y0437000D02*
Y0438220D01*
X0225940Y0428200D02*
X0227160D01*
X0226550Y0427590D02*
Y0428810D01*
X0222940Y0419700D02*
X0224160D01*
X0223550Y0419090D02*
Y0420310D01*
X0216080Y0429300D02*
X0217300D01*
X0216690Y0428690D02*
Y0429910D01*
X0212440Y0429300D02*
X0213660D01*
X0213050Y0428690D02*
Y0429910D01*
X0208280Y0430700D02*
X0209500D01*
X0208890Y0430090D02*
Y0431310D01*
X0204640Y0430700D02*
X0205860D01*
X0205250Y0430090D02*
Y0431310D01*
X0199140Y0438658D02*
X0200360D01*
X0199750Y0438048D02*
Y0439268D01*
X0191140Y0447000D02*
X0192360D01*
X0191750Y0446390D02*
Y0447610D01*
X0185620Y0452400D02*
X0186840D01*
X0186230Y0451790D02*
Y0453010D01*
X0185020Y0456500D02*
X0186240D01*
X0185630Y0455890D02*
Y0457110D01*
X0184520Y0462700D02*
X0185740D01*
X0185130Y0462090D02*
Y0463310D01*
X0177440Y0477400D02*
X0178660D01*
X0178050Y0476790D02*
Y0478010D01*
X0168628Y0487553D02*
X0169848D01*
X0169238Y0486943D02*
Y0488163D01*
X0165942Y0490400D02*
X0167162D01*
X0166551Y0489790D02*
Y0491010D01*
X0173689Y0490830D02*
X0174909D01*
X0174299Y0490220D02*
Y0491440D01*
X0193440Y0478600D02*
X0194660D01*
X0194050Y0477990D02*
Y0479210D01*
X0177940Y0496090D02*
X0179160D01*
X0178550Y0495480D02*
Y0496700D01*
X0175339Y0500100D02*
X0176559D01*
X0175949Y0499490D02*
Y0500710D01*
X0197240Y0452000D02*
X0198460D01*
X0197850Y0451390D02*
Y0452610D01*
X0199140Y0492500D02*
X0200360D01*
X0199750Y0491890D02*
Y0493110D01*
X0192940Y0461000D02*
X0194160D01*
X0193550Y0460390D02*
Y0461610D01*
X0186735Y0448001D02*
X0187955D01*
X0187345Y0447391D02*
Y0448611D01*
X0198740Y0503400D02*
X0199960D01*
X0199350Y0502790D02*
Y0504010D01*
X0188740Y0489800D02*
X0189960D01*
X0189350Y0489190D02*
Y0490410D01*
X0177040Y0466000D02*
X0178260D01*
X0177650Y0465390D02*
Y0466610D01*
X0176920Y0473910D02*
X0178140D01*
X0177530Y0473300D02*
Y0474520D01*
X0193940Y0449500D02*
X0195160D01*
X0194550Y0448890D02*
Y0450110D01*
X0200240Y0498500D02*
X0201460D01*
X0200850Y0497890D02*
Y0499110D01*
X0197640Y0500400D02*
X0198860D01*
X0198250Y0499790D02*
Y0501010D01*
X0190990Y0499350D02*
X0192210D01*
X0191600Y0498740D02*
Y0499960D01*
X0195440Y0498000D02*
X0196660D01*
X0196050Y0497390D02*
Y0498610D01*
X0170540Y0453300D02*
X0171760D01*
X0171150Y0452690D02*
Y0453910D01*
X0172140Y0449000D02*
X0173360D01*
X0172750Y0448390D02*
Y0449610D01*
X0403540Y0220212D02*
X0404760D01*
X0404150Y0219602D02*
Y0220822D01*
X0491040Y0636976D02*
X0492260D01*
X0491650Y0636366D02*
Y0637586D01*
X0486940Y0636976D02*
X0488160D01*
X0487550Y0636366D02*
Y0637586D01*
X0437915Y0654246D02*
X0439135D01*
X0438525Y0653636D02*
Y0654856D01*
X0426842Y0651958D02*
X0428062D01*
X0427452Y0651348D02*
Y0652568D01*
X0423778Y0651958D02*
X0424998D01*
X0424388Y0651348D02*
Y0652568D01*
X0420713Y0651958D02*
X0421933D01*
X0421323Y0651348D02*
Y0652568D01*
X0417649Y0651958D02*
X0418869D01*
X0418259Y0651348D02*
Y0652568D01*
X0377802Y0681541D02*
X0379022D01*
X0378412Y0680932D02*
Y0682152D01*
X0441909Y0677536D02*
X0443128D01*
X0442519Y0676927D02*
Y0678147D01*
X0437915Y0677551D02*
X0439135D01*
X0438525Y0676941D02*
Y0678161D01*
X0481705Y0651042D02*
X0482925D01*
X0482315Y0650432D02*
Y0651652D01*
X0481705Y0665263D02*
X0482925D01*
X0482315Y0664653D02*
Y0665873D01*
X0444751Y0691792D02*
X0445971D01*
X0445361Y0691182D02*
Y0692402D01*
X0465891Y0689936D02*
X0467111D01*
X0466501Y0689326D02*
Y0690547D01*
X0451582Y0674863D02*
X0452802D01*
X0452192Y0674253D02*
Y0675473D01*
X0481705Y0674347D02*
X0482925D01*
X0482315Y0673737D02*
Y0674957D01*
X0481705Y0688567D02*
X0482925D01*
X0482315Y0687957D02*
Y0689177D01*
X0451582Y0651558D02*
X0452802D01*
X0452192Y0650948D02*
Y0652168D01*
X0465891Y0666632D02*
X0467111D01*
X0466501Y0666022D02*
Y0667242D01*
X0444751Y0668487D02*
X0445971D01*
X0445361Y0667877D02*
Y0669097D01*
X0548188Y0202059D02*
X0549408D01*
X0548798Y0201449D02*
Y0202669D01*
X0569240Y0202059D02*
X0570460D01*
X0569850Y0201449D02*
Y0202669D01*
X0572464Y0230063D02*
X0573684D01*
X0573074Y0229453D02*
Y0230673D01*
X0567148Y0213458D02*
X0568368D01*
X0567758Y0212848D02*
Y0214068D01*
X0556344Y0193643D02*
X0557564D01*
X0556954Y0193033D02*
Y0194253D01*
X0552120Y0226648D02*
X0553340D01*
X0552730Y0226038D02*
Y0227258D01*
X0521475Y0226648D02*
X0522695D01*
X0522085Y0226038D02*
Y0227258D01*
X0525699Y0193643D02*
X0526919D01*
X0526309Y0193033D02*
Y0194253D01*
X0536503Y0213458D02*
X0537723D01*
X0537113Y0212848D02*
Y0214068D01*
X0538404Y0233479D02*
X0539624D01*
X0539014Y0232869D02*
Y0234089D01*
X0538595Y0202059D02*
X0539815D01*
X0539205Y0201449D02*
Y0202669D01*
X0517543Y0202059D02*
X0518763D01*
X0518153Y0201449D02*
Y0202669D01*
X0378030Y0657950D02*
X0379250D01*
X0378640Y0657340D02*
Y0658560D01*
X0476140Y0472460D02*
X0477360D01*
X0476750Y0471850D02*
Y0473070D01*
X0479247Y0470438D02*
X0480467D01*
X0479857Y0469828D02*
Y0471048D01*
X0477240Y0466400D02*
X0478460D01*
X0477850Y0465790D02*
Y0467010D01*
X0419380Y0545756D02*
X0420580D01*
X0419980Y0545156D02*
Y0546356D01*
X0421658Y0548228D02*
X0422878D01*
X0422268Y0547618D02*
Y0548838D01*
X0416998Y0548044D02*
X0418218D01*
X0417608Y0547434D02*
Y0548654D01*
X0425270Y0547317D02*
X0426490D01*
X0425880Y0546707D02*
Y0547927D01*
X0432274Y0516757D02*
X0433494D01*
X0432884Y0516147D02*
Y0517367D01*
X0432358Y0521417D02*
X0433578D01*
X0432968Y0520807D02*
Y0522027D01*
X0427598Y0521501D02*
X0428818D01*
X0428208Y0520891D02*
Y0522111D01*
X0431648Y0545422D02*
X0432868D01*
X0432258Y0544812D02*
Y0546032D01*
X0428324Y0545422D02*
X0429544D01*
X0428934Y0544812D02*
Y0546032D01*
X0357797Y0686075D02*
X0359017D01*
X0358407Y0685465D02*
Y0686685D01*
X0575940Y0482600D02*
X0577160D01*
X0576550Y0481990D02*
Y0483210D01*
X0556049Y0481675D02*
X0557269D01*
X0556659Y0481065D02*
Y0482285D01*
X0458739Y0483760D02*
X0459959D01*
X0459349Y0483150D02*
Y0484370D01*
X0423440Y0256600D02*
X0424660D01*
X0424050Y0255990D02*
Y0257210D01*
X0413342Y0280102D02*
X0414562D01*
X0413952Y0279492D02*
Y0280712D01*
X0407437Y0280102D02*
X0408657D01*
X0408047Y0279492D02*
Y0280712D01*
X0356150Y0507600D02*
X0357350D01*
X0356750Y0507000D02*
Y0508200D01*
X0350050Y0513901D02*
X0351250D01*
X0350650Y0513301D02*
Y0514501D01*
X0401376Y0569955D02*
X0402576D01*
X0401976Y0569355D02*
Y0570555D01*
X0440612Y0545754D02*
X0441812D01*
X0441212Y0545154D02*
Y0546354D01*
X0443640Y0579800D02*
X0444860D01*
X0444250Y0579190D02*
Y0580410D01*
X0385640Y0241500D02*
X0386860D01*
X0386250Y0240890D02*
Y0242110D01*
X0382940Y0243669D02*
X0384160D01*
X0383550Y0243059D02*
Y0244279D01*
X0509062Y0502425D02*
X0510282D01*
X0509672Y0501815D02*
Y0503035D01*
X0507456Y0476828D02*
X0508676D01*
X0508066Y0476218D02*
Y0477438D01*
X0511795Y0485736D02*
X0513015D01*
X0512405Y0485126D02*
Y0486346D01*
X0319762Y0571595D02*
X0320982D01*
X0320372Y0570985D02*
Y0572205D01*
X0313838Y0568531D02*
X0315058D01*
X0314448Y0567921D02*
Y0569141D01*
X0577822Y0451101D02*
X0579042D01*
X0578432Y0450491D02*
Y0451711D01*
X0558540Y0468900D02*
X0559760D01*
X0559150Y0468290D02*
Y0469510D01*
X0555334Y0470514D02*
X0556554D01*
X0555944Y0469904D02*
Y0471124D01*
X0482840Y0636976D02*
X0484060D01*
X0483450Y0636366D02*
Y0637586D01*
X0458699Y0478513D02*
X0459919D01*
X0459309Y0477904D02*
Y0479123D01*
X0455034Y0479914D02*
X0456254D01*
X0455644Y0479304D02*
Y0480524D01*
X0476532Y0621729D02*
X0477752D01*
X0477142Y0621119D02*
Y0622339D01*
X0377909Y0260600D02*
X0379129D01*
X0378519Y0259990D02*
Y0261210D01*
X0227619Y0472870D02*
X0228839D01*
X0228229Y0472260D02*
Y0473480D01*
X0223094Y0471625D02*
X0224314D01*
X0223704Y0471015D02*
Y0472235D01*
X0217279Y0471900D02*
X0218499D01*
X0217889Y0471290D02*
Y0472510D01*
X0477140Y0257300D02*
X0478360D01*
X0477750Y0256690D02*
Y0257910D01*
X0206534Y0470514D02*
X0207754D01*
X0207144Y0469904D02*
Y0471124D01*
X0227640Y0463060D02*
X0228860D01*
X0228250Y0462450D02*
Y0463670D01*
X0212943Y0461214D02*
X0214163D01*
X0213553Y0460604D02*
Y0461824D01*
X0219874Y0481883D02*
X0221094D01*
X0220484Y0481273D02*
Y0482493D01*
X0359340Y0264100D02*
X0360560D01*
X0359950Y0263490D02*
Y0264710D01*
X0228740Y0457000D02*
X0229960D01*
X0229350Y0456390D02*
Y0457610D01*
X0577540Y0457000D02*
X0578760D01*
X0578150Y0456390D02*
Y0457610D01*
X0345740Y0466400D02*
X0346960D01*
X0346350Y0465790D02*
Y0467010D01*
X0214774Y0464454D02*
X0215994D01*
X0215384Y0463844D02*
Y0465064D01*
X0463274Y0473854D02*
X0464494D01*
X0463884Y0473244D02*
Y0474464D01*
X0563574Y0464454D02*
X0564794D01*
X0564184Y0463844D02*
Y0465064D01*
X0331774Y0473854D02*
X0332994D01*
X0332384Y0473244D02*
Y0474464D01*
X0210239Y0474360D02*
X0211459D01*
X0210849Y0473750D02*
Y0474970D01*
X0559039Y0474360D02*
X0560259D01*
X0559649Y0473750D02*
Y0474970D01*
X0327239Y0483760D02*
X0328459D01*
X0327849Y0483150D02*
Y0484370D01*
X0210779Y0482045D02*
X0211999D01*
X0211389Y0481435D02*
Y0482655D01*
X0223739Y0481270D02*
X0224959D01*
X0224349Y0480660D02*
Y0481880D01*
X0230840Y0465400D02*
X0232060D01*
X0231450Y0464790D02*
Y0466010D01*
X0479340Y0474900D02*
X0480560D01*
X0479950Y0474290D02*
Y0475510D01*
X0579640Y0465700D02*
X0580860D01*
X0580250Y0465090D02*
Y0466310D01*
X0347940Y0475100D02*
X0349160D01*
X0348550Y0474490D02*
Y0475710D01*
X0215149Y0482057D02*
X0216369D01*
X0215759Y0481447D02*
Y0482667D01*
X0227140Y0482600D02*
X0228360D01*
X0227750Y0481990D02*
Y0483210D01*
X0468374Y0491283D02*
X0469594D01*
X0468984Y0490673D02*
Y0491893D01*
X0463649Y0491457D02*
X0464869D01*
X0464259Y0490847D02*
Y0492067D01*
X0475640Y0492000D02*
X0476860D01*
X0476250Y0491390D02*
Y0492610D01*
X0563949Y0482057D02*
X0565169D01*
X0564559Y0481447D02*
Y0482667D01*
X0568674Y0481883D02*
X0569894D01*
X0569284Y0481273D02*
Y0482493D01*
X0336874Y0491283D02*
X0338094D01*
X0337484Y0490673D02*
Y0491893D01*
X0332149Y0491457D02*
X0333369D01*
X0332759Y0490847D02*
Y0492067D01*
X0472239Y0490670D02*
X0473459D01*
X0472849Y0490060D02*
Y0491280D01*
X0461443Y0470614D02*
X0462663D01*
X0462053Y0470004D02*
Y0471224D01*
X0561743Y0461214D02*
X0562963D01*
X0562353Y0460604D02*
Y0461824D01*
X0572539Y0481270D02*
X0573759D01*
X0573149Y0480660D02*
Y0481880D01*
X0559579Y0482045D02*
X0560799D01*
X0560189Y0481435D02*
Y0482655D01*
X0327779Y0491445D02*
X0328999D01*
X0328389Y0490835D02*
Y0492055D01*
X0329943Y0470614D02*
X0331163D01*
X0330553Y0470004D02*
Y0471224D01*
X0344640Y0472460D02*
X0345860D01*
X0345250Y0471850D02*
Y0473070D01*
X0340739Y0490670D02*
X0341959D01*
X0341349Y0490060D02*
Y0491280D01*
X0230699Y0460990D02*
X0231919D01*
X0231309Y0460380D02*
Y0461600D01*
X0579540Y0460990D02*
X0580760D01*
X0580150Y0460380D02*
Y0461600D01*
X0347699Y0470390D02*
X0348919D01*
X0348309Y0469780D02*
Y0471000D01*
X0515640Y0584267D02*
X0516860D01*
X0516250Y0583657D02*
Y0584877D01*
X0515640Y0589500D02*
X0516860D01*
X0516250Y0588890D02*
Y0590110D01*
X0515640Y0579033D02*
X0516860D01*
X0516250Y0578423D02*
Y0579643D01*
X0515640Y0573800D02*
X0516860D01*
X0516250Y0573190D02*
Y0574410D01*
X0366840Y0597800D02*
X0368060D01*
X0367450Y0597190D02*
Y0598410D01*
X0210134Y0463994D02*
X0211354D01*
X0210744Y0463384D02*
Y0464604D01*
X0217900Y0461469D02*
X0219120D01*
X0218510Y0460859D02*
Y0462079D01*
X0371340Y0597700D02*
X0372560D01*
X0371950Y0597090D02*
Y0598310D01*
X0207344Y0461250D02*
X0208564D01*
X0207954Y0460640D02*
Y0461860D01*
X0416296Y0581819D02*
X0417516D01*
X0416906Y0581209D02*
Y0582429D01*
X0412357Y0581819D02*
X0413577D01*
X0412967Y0581209D02*
Y0582429D01*
X0408640Y0579300D02*
X0409860D01*
X0409250Y0578690D02*
Y0579910D01*
X0404701Y0579300D02*
X0405921D01*
X0405311Y0578690D02*
Y0579910D01*
X0386540Y0600000D02*
X0387760D01*
X0387150Y0599390D02*
Y0600610D01*
X0390540Y0599300D02*
X0391760D01*
X0391150Y0598690D02*
Y0599910D01*
X0206809Y0476240D02*
X0208029D01*
X0207419Y0475630D02*
Y0476850D01*
X0206839Y0481369D02*
X0208059D01*
X0207449Y0480759D02*
Y0481979D01*
X0392340Y0595300D02*
X0393560D01*
X0392950Y0594690D02*
Y0595910D01*
X0210199Y0469114D02*
X0211419D01*
X0210809Y0468504D02*
Y0469724D01*
X0400440Y0576400D02*
X0401660D01*
X0401050Y0575790D02*
Y0577010D01*
X0392879Y0577900D02*
X0394099D01*
X0393489Y0577290D02*
Y0578510D01*
X0369140Y0575650D02*
X0370360D01*
X0369750Y0575040D02*
Y0576260D01*
X0365040Y0577000D02*
X0366260D01*
X0365650Y0576390D02*
Y0577610D01*
X0396501Y0576400D02*
X0397721D01*
X0397111Y0575790D02*
Y0577010D01*
X0388940Y0577900D02*
X0390160D01*
X0389550Y0577290D02*
Y0578510D01*
X0369140Y0579493D02*
X0370360D01*
X0369750Y0578883D02*
Y0580103D01*
X0365040Y0573157D02*
X0366260D01*
X0365650Y0572547D02*
Y0573767D01*
X0384979Y0577800D02*
X0386199D01*
X0385589Y0577190D02*
Y0578410D01*
X0381040Y0577800D02*
X0382260D01*
X0381650Y0577190D02*
Y0578410D01*
X0206459Y0465390D02*
X0207679D01*
X0207069Y0464780D02*
Y0466000D01*
X0222591Y0461572D02*
X0223811D01*
X0223201Y0460962D02*
Y0462182D01*
X0458634Y0473394D02*
X0459854D01*
X0459244Y0472784D02*
Y0474004D01*
X0466400Y0470869D02*
X0467620D01*
X0467010Y0470259D02*
Y0471479D01*
X0455844Y0470650D02*
X0457064D01*
X0456454Y0470040D02*
Y0471260D01*
X0455309Y0485640D02*
X0456529D01*
X0455919Y0485030D02*
Y0486250D01*
X0455339Y0490769D02*
X0456559D01*
X0455949Y0490159D02*
Y0491379D01*
X0471091Y0470972D02*
X0472311D01*
X0471701Y0470362D02*
Y0471582D01*
X0454959Y0474790D02*
X0456179D01*
X0455569Y0474180D02*
Y0475400D01*
X0566700Y0460969D02*
X0567920D01*
X0567310Y0460359D02*
Y0461579D01*
X0464340Y0258800D02*
X0465560D01*
X0464950Y0258190D02*
Y0259410D01*
X0556144Y0461250D02*
X0557364D01*
X0556754Y0460640D02*
Y0461860D01*
X0437740Y0257700D02*
X0438960D01*
X0438350Y0257090D02*
Y0258310D01*
X0464959Y0263247D02*
X0466179D01*
X0465569Y0262637D02*
Y0263857D01*
X0450733Y0261567D02*
X0451953D01*
X0451343Y0260957D02*
Y0262177D01*
X0555609Y0476240D02*
X0556829D01*
X0556219Y0475630D02*
Y0476850D01*
X0448408Y0256967D02*
X0449628D01*
X0449018Y0256357D02*
Y0257577D01*
X0555259Y0465390D02*
X0556479D01*
X0555869Y0464780D02*
Y0466000D01*
X0571391Y0461572D02*
X0572611D01*
X0572001Y0460962D02*
Y0462182D01*
X0327134Y0473394D02*
X0328354D01*
X0327744Y0472784D02*
Y0474004D01*
X0334900Y0470869D02*
X0336120D01*
X0335510Y0470259D02*
Y0471479D01*
X0324344Y0470650D02*
X0325564D01*
X0324954Y0470040D02*
Y0471260D01*
X0383240Y0262100D02*
X0384460D01*
X0383850Y0261490D02*
Y0262710D01*
X0397225Y0259565D02*
X0398445D01*
X0397835Y0258955D02*
Y0260175D01*
X0363940Y0263700D02*
X0365160D01*
X0364550Y0263090D02*
Y0264310D01*
X0323809Y0485640D02*
X0325029D01*
X0324419Y0485030D02*
Y0486250D01*
X0323839Y0490769D02*
X0325059D01*
X0324449Y0490159D02*
Y0491379D01*
X0356140Y0266800D02*
X0357360D01*
X0356750Y0266190D02*
Y0267410D01*
X0390760Y0543330D02*
X0391960D01*
X0391360Y0542730D02*
Y0543930D01*
X0429996Y0519129D02*
X0431196D01*
X0430596Y0518529D02*
Y0519729D01*
X0356880Y0454020D02*
X0358080D01*
X0357480Y0453420D02*
Y0454620D01*
X0327199Y0478514D02*
X0328419D01*
X0327809Y0477904D02*
Y0479124D01*
X0339591Y0470972D02*
X0340811D01*
X0340201Y0470362D02*
Y0471582D01*
X0323459Y0474790D02*
X0324679D01*
X0324069Y0474180D02*
Y0475400D01*
X0563419Y0468922D02*
X0564639D01*
X0564029Y0468312D02*
Y0469532D01*
X0571829Y0477270D02*
X0573049D01*
X0572439Y0476660D02*
Y0477880D01*
X0573699Y0469290D02*
X0574919D01*
X0574309Y0468680D02*
Y0469900D01*
X0573849Y0474410D02*
X0575069D01*
X0574459Y0473800D02*
Y0475020D01*
X0576419Y0470070D02*
X0577639D01*
X0577029Y0469460D02*
Y0470680D01*
X0576419Y0472870D02*
X0577639D01*
X0577029Y0472260D02*
Y0473480D01*
X0568889Y0469090D02*
X0570109D01*
X0569499Y0468480D02*
Y0469700D01*
X0566248Y0467092D02*
X0567468D01*
X0566858Y0466482D02*
Y0467702D01*
X0465948Y0476492D02*
X0467168D01*
X0466558Y0475882D02*
Y0477102D01*
X0463119Y0478322D02*
X0464339D01*
X0463729Y0477712D02*
Y0478932D01*
X0476119Y0482270D02*
X0477339D01*
X0476729Y0481660D02*
Y0482880D01*
X0476119Y0479470D02*
X0477339D01*
X0476729Y0478860D02*
Y0480080D01*
X0473549Y0483810D02*
X0474769D01*
X0474159Y0483200D02*
Y0484420D01*
X0473399Y0478690D02*
X0474619D01*
X0474009Y0478080D02*
Y0479300D01*
X0471529Y0486670D02*
X0472749D01*
X0472139Y0486060D02*
Y0487280D01*
X0581710Y0498246D02*
X0582930D01*
X0582320Y0497636D02*
Y0498856D01*
X0585064Y0501482D02*
X0586284D01*
X0585674Y0500872D02*
Y0502092D01*
X0588300Y0498127D02*
X0589520D01*
X0588910Y0497517D02*
Y0498737D01*
X0585064Y0494892D02*
X0586284D01*
X0585674Y0494282D02*
Y0495502D01*
X0438314Y0548226D02*
X0439534D01*
X0438924Y0547616D02*
Y0548836D01*
X0438314Y0543282D02*
X0439534D01*
X0438924Y0542672D02*
Y0543892D01*
X0436455Y0540785D02*
X0437675D01*
X0437065Y0540175D02*
Y0541395D01*
X0442890Y0543382D02*
X0444110D01*
X0443500Y0542772D02*
Y0543992D01*
X0442974Y0548042D02*
X0444194D01*
X0443584Y0547432D02*
Y0548652D01*
X0423517Y0540785D02*
X0424737D01*
X0424127Y0540175D02*
Y0541395D01*
X0417082Y0543384D02*
X0418302D01*
X0417692Y0542774D02*
Y0543994D01*
X0421658Y0543284D02*
X0422878D01*
X0422268Y0542674D02*
Y0543894D01*
X0403654Y0567583D02*
X0404874D01*
X0404264Y0566973D02*
Y0568193D01*
X0382422Y0567485D02*
X0383642D01*
X0383032Y0566875D02*
Y0568095D01*
X0382422Y0572429D02*
X0383642D01*
X0383032Y0571819D02*
Y0573039D01*
X0399078Y0572427D02*
X0400298D01*
X0399688Y0571817D02*
Y0573037D01*
X0399078Y0567483D02*
X0400298D01*
X0399688Y0566873D02*
Y0568093D01*
X0386034Y0571518D02*
X0387254D01*
X0386644Y0570908D02*
Y0572128D01*
X0377846Y0567585D02*
X0379066D01*
X0378456Y0566975D02*
Y0568195D01*
X0377762Y0572245D02*
X0378982D01*
X0378372Y0571635D02*
Y0572855D01*
X0395466Y0571516D02*
X0396686D01*
X0396076Y0570906D02*
Y0572126D01*
X0392412Y0569623D02*
X0393632D01*
X0393022Y0569013D02*
Y0570233D01*
X0389088Y0569623D02*
X0390308D01*
X0389698Y0569013D02*
Y0570233D01*
X0397219Y0564986D02*
X0398439D01*
X0397829Y0564376D02*
Y0565596D01*
X0384281Y0564986D02*
X0385501D01*
X0384891Y0564376D02*
Y0565596D01*
X0388462Y0540958D02*
X0389682D01*
X0389072Y0540348D02*
Y0541568D01*
X0393038Y0540958D02*
X0394258D01*
X0393648Y0540348D02*
Y0541568D01*
X0393122Y0545618D02*
X0394342D01*
X0393732Y0545008D02*
Y0546228D01*
X0388362Y0545702D02*
X0389582D01*
X0388972Y0545092D02*
Y0546312D01*
X0387191Y0548730D02*
X0388411D01*
X0387801Y0548120D02*
Y0549340D01*
X0394311Y0548730D02*
X0395531D01*
X0394921Y0548120D02*
Y0549340D01*
X0353335Y0513842D02*
X0354555D01*
X0353945Y0513232D02*
Y0514452D01*
X0350099Y0510606D02*
X0351319D01*
X0350709Y0509996D02*
Y0511216D01*
X0350099Y0517196D02*
X0351319D01*
X0350709Y0516586D02*
Y0517806D01*
X0358512Y0509888D02*
X0359732D01*
X0359122Y0509278D02*
Y0510498D01*
X0353852Y0509972D02*
X0355072D01*
X0354462Y0509362D02*
Y0510582D01*
X0359242Y0456308D02*
X0360462D01*
X0359852Y0455698D02*
Y0456918D01*
X0359158Y0451648D02*
X0360378D01*
X0359768Y0451038D02*
Y0452258D01*
X0354582Y0451648D02*
X0355802D01*
X0355192Y0451038D02*
Y0452258D01*
X0354582Y0456392D02*
X0355802D01*
X0355192Y0455782D02*
Y0457002D01*
X0358428Y0505228D02*
X0359648D01*
X0359038Y0504618D02*
Y0505838D01*
X0353852Y0505228D02*
X0355072D01*
X0354462Y0504618D02*
Y0505838D01*
X0334084Y0486581D02*
X0335304D01*
X0334694Y0485971D02*
Y0487191D01*
X0340029Y0486670D02*
X0341249D01*
X0340639Y0486060D02*
Y0487280D01*
X0341899Y0478690D02*
X0343119D01*
X0342509Y0478080D02*
Y0479300D01*
X0342049Y0483810D02*
X0343269D01*
X0342659Y0483200D02*
Y0484420D01*
X0344619Y0479470D02*
X0345839D01*
X0345229Y0478860D02*
Y0480080D01*
X0331619Y0478322D02*
X0332839D01*
X0332229Y0477712D02*
Y0478932D01*
X0346745Y0513960D02*
X0347965D01*
X0347355Y0513350D02*
Y0514570D01*
X0334448Y0476492D02*
X0335668D01*
X0335058Y0475882D02*
Y0477102D01*
X0217084Y0477181D02*
X0218304D01*
X0217694Y0476571D02*
Y0477791D01*
X0220089Y0469090D02*
X0221309D01*
X0220699Y0468480D02*
Y0469700D01*
X0217448Y0467092D02*
X0218668D01*
X0218058Y0466482D02*
Y0467702D01*
X0214619Y0468922D02*
X0215839D01*
X0215229Y0468312D02*
Y0469532D01*
X0223029Y0477270D02*
X0224249D01*
X0223639Y0476660D02*
Y0477880D01*
X0227619Y0470070D02*
X0228839D01*
X0228229Y0469460D02*
Y0470680D01*
X0224899Y0469290D02*
X0226119D01*
X0225509Y0468680D02*
Y0469900D01*
X0225049Y0474410D02*
X0226269D01*
X0225659Y0473800D02*
Y0475020D01*
X0235255Y0502388D02*
X0236475D01*
X0235865Y0501778D02*
Y0502998D01*
X0230595Y0502472D02*
X0231815D01*
X0231205Y0501862D02*
Y0503082D01*
X0235171Y0497728D02*
X0236391D01*
X0235781Y0497118D02*
Y0498338D01*
X0230595Y0497728D02*
X0231815D01*
X0231205Y0497118D02*
Y0498338D01*
X0426427Y0524529D02*
X0427647D01*
X0427037Y0523919D02*
Y0525139D01*
X0433547Y0524529D02*
X0434767D01*
X0434157Y0523919D02*
Y0525139D01*
X0478990Y0511473D02*
X0480210D01*
X0479600Y0510863D02*
Y0512083D01*
X0483566Y0511473D02*
X0484786D01*
X0484176Y0510863D02*
Y0512083D01*
X0483650Y0516133D02*
X0484870D01*
X0484260Y0515523D02*
Y0516743D01*
X0478990Y0516217D02*
X0480210D01*
X0479600Y0515607D02*
Y0516827D01*
X0362032Y0597500D02*
X0363251D01*
X0362642Y0596890D02*
Y0598110D01*
X0380540Y0604800D02*
X0381760D01*
X0381150Y0604190D02*
Y0605410D01*
X0397594Y0619400D02*
X0398814D01*
X0398204Y0618790D02*
Y0620010D01*
X0366098Y0280102D02*
X0367318D01*
X0366708Y0279492D02*
Y0280712D01*
X0382040Y0634244D02*
X0383260D01*
X0382650Y0633634D02*
Y0634854D01*
X0389720Y0268746D02*
X0390940D01*
X0390330Y0268136D02*
Y0269356D01*
X0395626Y0280102D02*
X0396846D01*
X0396236Y0279492D02*
Y0280712D01*
X0399940Y0597800D02*
X0401160D01*
X0400550Y0597190D02*
Y0598410D01*
X0401531Y0280102D02*
X0402751D01*
X0402141Y0279492D02*
Y0280712D01*
X0419248Y0618900D02*
X0420468D01*
X0419858Y0618290D02*
Y0619510D01*
X0419540Y0284200D02*
X0420760D01*
X0420150Y0283590D02*
Y0284810D01*
X0422240Y0622000D02*
X0423460D01*
X0422850Y0621390D02*
Y0622610D01*
X0423540Y0281700D02*
X0424760D01*
X0424150Y0281090D02*
Y0282310D01*
X0425640Y0621900D02*
X0426860D01*
X0426250Y0621290D02*
Y0622510D01*
X0427440Y0607600D02*
X0428660D01*
X0428050Y0606990D02*
Y0608210D01*
X0426340Y0634008D02*
X0427560D01*
X0426950Y0633398D02*
Y0634618D01*
X0437740Y0618600D02*
X0438960D01*
X0438350Y0617990D02*
Y0619210D01*
X0585050Y0498300D02*
X0586250D01*
X0585650Y0497700D02*
Y0498900D01*
X0444838Y0268746D02*
X0446058D01*
X0445448Y0268136D02*
Y0269356D01*
X0446807Y0280102D02*
X0448027D01*
X0447417Y0279492D02*
Y0280712D01*
X0446740Y0602000D02*
X0447960D01*
X0447350Y0601390D02*
Y0602610D01*
X0440901Y0598700D02*
X0442121D01*
X0441511Y0598090D02*
Y0599310D01*
X0437740Y0633300D02*
X0438960D01*
X0438350Y0632690D02*
Y0633910D01*
X0433140Y0633413D02*
X0434360D01*
X0433750Y0632803D02*
Y0634023D01*
X0429090Y0268746D02*
X0430310D01*
X0429700Y0268136D02*
Y0269356D01*
X0432440Y0618600D02*
X0433660D01*
X0433050Y0617990D02*
Y0619210D01*
X0422548Y0602364D02*
X0423768D01*
X0423158Y0601754D02*
Y0602974D01*
X0410156Y0635261D02*
X0411376D01*
X0410767Y0634651D02*
Y0635871D01*
X0408074Y0621133D02*
X0409294D01*
X0408684Y0620523D02*
Y0621743D01*
X0406640Y0634244D02*
X0407860D01*
X0407250Y0633634D02*
Y0634854D01*
X0416886Y0600217D02*
X0418106D01*
X0417496Y0599607D02*
Y0600827D01*
X0412184Y0599115D02*
X0413404D01*
X0412794Y0598505D02*
Y0599725D01*
X0405468Y0268746D02*
X0406688D01*
X0406078Y0268136D02*
Y0269356D01*
X0409763Y0631121D02*
X0410983D01*
X0410373Y0630511D02*
Y0631731D01*
X0402540Y0634244D02*
X0403760D01*
X0403150Y0633634D02*
Y0634854D01*
X0398499Y0603664D02*
X0399719D01*
X0399109Y0603054D02*
Y0604274D01*
X0398440Y0634244D02*
X0399660D01*
X0399050Y0633634D02*
Y0634854D01*
X0394340Y0634244D02*
X0395560D01*
X0394950Y0633634D02*
Y0634854D01*
X0390240Y0634244D02*
X0391460D01*
X0390850Y0633634D02*
Y0634854D01*
X0431059Y0280102D02*
X0432279D01*
X0431669Y0279492D02*
Y0280712D01*
X0377740Y0634244D02*
X0378960D01*
X0378350Y0633634D02*
Y0634854D01*
X0373640Y0634244D02*
X0374860D01*
X0374250Y0633634D02*
Y0634854D01*
X0363161Y0619000D02*
X0364381D01*
X0363771Y0618390D02*
Y0619610D01*
X0474366Y0583900D02*
X0475586D01*
X0474976Y0583290D02*
Y0584510D01*
X0468460Y0583521D02*
X0469680D01*
X0469070Y0582911D02*
Y0584131D01*
X0466440Y0594800D02*
X0467660D01*
X0467050Y0594190D02*
Y0595410D01*
X0460586Y0595247D02*
X0461806D01*
X0461196Y0594637D02*
Y0595857D01*
X0459140Y0583200D02*
X0460360D01*
X0459750Y0582590D02*
Y0583810D01*
X0452712Y0595247D02*
X0453932D01*
X0453322Y0594637D02*
Y0595857D01*
X0451040Y0582800D02*
X0452260D01*
X0451650Y0582190D02*
Y0583410D01*
X0444640Y0583400D02*
X0445860D01*
X0445250Y0582790D02*
Y0584010D01*
X0438933Y0594475D02*
X0440153D01*
X0439543Y0593865D02*
Y0595085D01*
X0434996Y0595247D02*
X0436216D01*
X0435606Y0594637D02*
Y0595857D01*
X0433027Y0583521D02*
X0434247D01*
X0433637Y0582911D02*
Y0584131D01*
X0427122Y0595247D02*
X0428342D01*
X0427732Y0594637D02*
Y0595857D01*
X0421216Y0595247D02*
X0422436D01*
X0421826Y0594637D02*
Y0595857D01*
X0419248Y0583521D02*
X0420468D01*
X0419858Y0582911D02*
Y0584131D01*
X0417279Y0595247D02*
X0418499D01*
X0417889Y0594637D02*
Y0595857D01*
X0411374Y0595247D02*
X0412594D01*
X0411984Y0594637D02*
Y0595857D01*
X0403500Y0595247D02*
X0404720D01*
X0404110Y0594637D02*
Y0595857D01*
X0401531Y0583521D02*
X0402751D01*
X0402141Y0582911D02*
Y0584131D01*
X0395626Y0595247D02*
X0396846D01*
X0396236Y0594637D02*
Y0595857D01*
X0387752Y0595247D02*
X0388971D01*
X0388362Y0594637D02*
Y0595857D01*
X0385783Y0583521D02*
X0387003D01*
X0386393Y0582911D02*
Y0584131D01*
X0379877Y0583521D02*
X0381098D01*
X0380487Y0582911D02*
Y0584131D01*
X0375941Y0595247D02*
X0377161D01*
X0376551Y0594637D02*
Y0595857D01*
X0374240Y0583200D02*
X0375460D01*
X0374850Y0582590D02*
Y0583810D01*
X0368067Y0583521D02*
X0369286D01*
X0368676Y0582911D02*
Y0584131D01*
X0445040Y0620000D02*
X0446260D01*
X0445650Y0619390D02*
Y0620610D01*
X0438933Y0607400D02*
X0440153D01*
X0439543Y0606790D02*
Y0608010D01*
X0427140Y0618500D02*
X0428360D01*
X0427750Y0617890D02*
Y0619110D01*
X0416040Y0607000D02*
X0417260D01*
X0416650Y0606390D02*
Y0607610D01*
X0410007Y0627941D02*
X0411227D01*
X0410617Y0627331D02*
Y0628551D01*
X0411374Y0607512D02*
X0412594D01*
X0411984Y0606902D02*
Y0608122D01*
X0403500Y0607512D02*
X0404720D01*
X0404110Y0606902D02*
Y0608122D01*
X0393657Y0607512D02*
X0394877D01*
X0394267Y0606902D02*
Y0608122D01*
X0385783Y0618500D02*
X0387003D01*
X0386393Y0617890D02*
Y0619110D01*
X0379877Y0618500D02*
X0381098D01*
X0380487Y0617890D02*
Y0619110D01*
X0371539Y0618700D02*
X0372760D01*
X0372149Y0618090D02*
Y0619310D01*
X0361068Y0622760D02*
X0362288D01*
X0361678Y0622150D02*
Y0623370D01*
X0427698Y0516757D02*
X0428918D01*
X0428308Y0516147D02*
Y0517367D01*
X0223049Y0467030D02*
X0224269D01*
X0223659Y0466420D02*
Y0467640D01*
X0227619Y0467230D02*
X0228839D01*
X0228229Y0466620D02*
Y0467840D01*
X0227639Y0478470D02*
X0228859D01*
X0228249Y0477860D02*
Y0479080D01*
X0340049Y0476430D02*
X0341269D01*
X0340659Y0475820D02*
Y0477040D01*
X0344619Y0476630D02*
X0345839D01*
X0345229Y0476020D02*
Y0477240D01*
X0334279Y0481300D02*
X0335499D01*
X0334889Y0480690D02*
Y0481910D01*
X0340094Y0481025D02*
X0341314D01*
X0340704Y0480415D02*
Y0481635D01*
X0344639Y0487870D02*
X0345859D01*
X0345249Y0487260D02*
Y0488480D01*
X0412740Y0245000D02*
X0413960D01*
X0413350Y0244390D02*
Y0245610D01*
X0429240Y0243800D02*
X0430460D01*
X0429850Y0243190D02*
Y0244410D01*
X0476139Y0485070D02*
X0477359D01*
X0476749Y0484460D02*
Y0485680D01*
X0476139Y0487870D02*
X0477359D01*
X0476749Y0487260D02*
Y0488480D01*
X0471594Y0481025D02*
X0472814D01*
X0472204Y0480415D02*
Y0481635D01*
X0471549Y0476430D02*
X0472769D01*
X0472159Y0475820D02*
Y0477040D01*
X0476119Y0476630D02*
X0477339D01*
X0476729Y0476020D02*
Y0477240D01*
X0571894Y0471625D02*
X0573114D01*
X0572504Y0471015D02*
Y0472235D01*
X0576439Y0478470D02*
X0577659D01*
X0577049Y0477860D02*
Y0479080D01*
X0576439Y0475670D02*
X0577659D01*
X0577049Y0475060D02*
Y0476280D01*
X0571849Y0467030D02*
X0573069D01*
X0572459Y0466420D02*
Y0467640D01*
X0401440Y0241100D02*
X0402660D01*
X0402050Y0240490D02*
Y0241710D01*
X0380144Y0569957D02*
X0381344D01*
X0380744Y0569357D02*
Y0570557D01*
X0398990Y0244150D02*
X0400210D01*
X0399600Y0243540D02*
Y0244760D01*
X0408340Y0244600D02*
X0409560D01*
X0408950Y0243990D02*
Y0245210D01*
X0375340Y0257540D02*
X0376560D01*
X0375950Y0256930D02*
Y0258150D01*
X0445040Y0245300D02*
X0446260D01*
X0445650Y0244690D02*
Y0245910D01*
X0442840Y0257200D02*
X0444060D01*
X0443450Y0256590D02*
Y0257810D01*
X0432940Y0258700D02*
X0434160D01*
X0433550Y0258090D02*
Y0259310D01*
X0404245Y0603514D02*
X0405465D01*
X0404854Y0602904D02*
Y0604124D01*
X0407940Y0604000D02*
X0409160D01*
X0408550Y0603390D02*
Y0604610D01*
X0576119Y0463060D02*
X0577339D01*
X0576729Y0462450D02*
Y0463670D01*
X0418840Y0280300D02*
X0420060D01*
X0419450Y0279690D02*
Y0280910D01*
X0452940Y0607148D02*
X0454160D01*
X0453550Y0606538D02*
Y0607758D01*
X0450040Y0623120D02*
X0451260D01*
X0450650Y0622510D02*
Y0623730D01*
X0454140Y0625092D02*
X0455360D01*
X0454750Y0624482D02*
Y0625702D01*
X0458640Y0618800D02*
X0459860D01*
X0459250Y0618190D02*
Y0619410D01*
X0457489Y0602145D02*
X0458709D01*
X0458099Y0601535D02*
Y0602755D01*
X0460340Y0280300D02*
X0461560D01*
X0460950Y0279690D02*
Y0280910D01*
X0448026Y0637114D02*
X0449246D01*
X0448636Y0636504D02*
Y0637724D01*
X0460640Y0602100D02*
X0461860D01*
X0461250Y0601490D02*
Y0602710D01*
X0462340Y0636976D02*
X0463560D01*
X0462950Y0636366D02*
Y0637586D01*
X0464140Y0601700D02*
X0465360D01*
X0464750Y0601090D02*
Y0602310D01*
X0470429Y0618500D02*
X0471649D01*
X0471039Y0617890D02*
Y0619110D01*
X0466440Y0636976D02*
X0467660D01*
X0467050Y0636366D02*
Y0637586D01*
X0464910Y0280310D02*
X0466130D01*
X0465520Y0279700D02*
Y0280920D01*
X0468840Y0601100D02*
X0470060D01*
X0469450Y0600490D02*
Y0601710D01*
X0466492Y0268746D02*
X0467712D01*
X0467102Y0268136D02*
Y0269356D01*
X0470540Y0636976D02*
X0471760D01*
X0471150Y0636366D02*
Y0637586D01*
X0472040Y0599700D02*
X0473260D01*
X0472650Y0599090D02*
Y0600310D01*
X0474640Y0636976D02*
X0475860D01*
X0475250Y0636366D02*
Y0637586D01*
X0478740Y0636976D02*
X0479960D01*
X0479350Y0636366D02*
Y0637586D01*
X0362161Y0583521D02*
X0363381D01*
X0362771Y0582911D02*
Y0584131D01*
X0392840Y0243600D02*
X0394060D01*
X0393450Y0242990D02*
Y0244210D01*
X0393657Y0583521D02*
X0394877D01*
X0394267Y0582911D02*
Y0584131D01*
X0435240Y0262700D02*
X0436460D01*
X0435850Y0262090D02*
Y0263310D01*
X0409405Y0583521D02*
X0410625D01*
X0410015Y0582911D02*
Y0584131D01*
X0422340Y0599200D02*
X0423560D01*
X0422950Y0598590D02*
Y0599810D01*
X0426279Y0599200D02*
X0427499D01*
X0426889Y0598590D02*
Y0599810D01*
X0431040Y0599700D02*
X0432260D01*
X0431650Y0599090D02*
Y0600310D01*
X0435279Y0599400D02*
X0436499D01*
X0435889Y0598790D02*
Y0600010D01*
X0439701Y0579800D02*
X0440921D01*
X0440311Y0579190D02*
Y0580410D01*
X0446001Y0576500D02*
X0447221D01*
X0446611Y0575890D02*
Y0577110D01*
X0449940Y0576500D02*
X0451160D01*
X0450550Y0575890D02*
Y0577110D01*
X0453740Y0580300D02*
X0454960D01*
X0454350Y0579690D02*
Y0580910D01*
X0457679Y0580300D02*
X0458899D01*
X0458289Y0579690D02*
Y0580910D01*
X0461740Y0580300D02*
X0462960D01*
X0462350Y0579690D02*
Y0580910D01*
X0465679Y0580300D02*
X0466899D01*
X0466289Y0579690D02*
Y0580910D01*
X0469601Y0578600D02*
X0470821D01*
X0470211Y0577990D02*
Y0579210D01*
X0481393Y0513900D02*
X0482593D01*
X0481993Y0513300D02*
Y0514500D01*
X0372004Y0280102D02*
X0373224D01*
X0372614Y0279492D02*
Y0280712D01*
X0373972Y0268746D02*
X0375192D01*
X0374582Y0268136D02*
Y0269356D01*
X0379877Y0268746D02*
X0381098D01*
X0380487Y0268136D02*
Y0269356D01*
X0381846Y0280102D02*
X0383066D01*
X0382456Y0279492D02*
Y0280712D01*
X0387752Y0280102D02*
X0388972D01*
X0388362Y0279492D02*
Y0280712D01*
X0436964Y0280102D02*
X0438184D01*
X0437574Y0279492D02*
Y0280712D01*
X0438933Y0268746D02*
X0440153D01*
X0439543Y0268136D02*
Y0269356D01*
X0403738Y0572243D02*
X0404958D01*
X0404348Y0571633D02*
Y0572853D01*
X0452712Y0268746D02*
X0453932D01*
X0453322Y0268136D02*
Y0269356D01*
X0454681Y0280102D02*
X0455901D01*
X0455291Y0279492D02*
Y0280712D01*
X0472397Y0280102D02*
X0473617D01*
X0473007Y0279492D02*
Y0280712D01*
X0478303Y0280102D02*
X0479523D01*
X0478913Y0279492D02*
Y0280712D01*
X0362161Y0230528D02*
X0363381D01*
X0362771Y0229918D02*
Y0231138D01*
X0366261Y0230528D02*
X0367481D01*
X0366871Y0229918D02*
Y0231138D01*
X0370361Y0230528D02*
X0371581D01*
X0370971Y0229918D02*
Y0231138D01*
X0367639Y0264000D02*
X0368860D01*
X0368250Y0263390D02*
Y0264610D01*
X0371683Y0256689D02*
X0372903D01*
X0372293Y0256079D02*
Y0257299D01*
X0369298Y0244000D02*
X0370518D01*
X0369908Y0243390D02*
Y0244610D01*
X0373740Y0244100D02*
X0374960D01*
X0374350Y0243490D02*
Y0244710D01*
X0374461Y0230528D02*
X0375681D01*
X0375071Y0229918D02*
Y0231138D01*
X0378561Y0230528D02*
X0379781D01*
X0379171Y0229918D02*
Y0231138D01*
X0382661Y0230528D02*
X0383881D01*
X0383271Y0229918D02*
Y0231138D01*
X0381940Y0256400D02*
X0383160D01*
X0382550Y0255790D02*
Y0257010D01*
X0390340Y0229756D02*
X0391560D01*
X0390950Y0229146D02*
Y0230366D01*
X0398440Y0229756D02*
X0399660D01*
X0399050Y0229146D02*
Y0230366D01*
X0394040Y0262100D02*
X0395260D01*
X0394650Y0261490D02*
Y0262710D01*
X0411740Y0229756D02*
X0412960D01*
X0412350Y0229146D02*
Y0230366D01*
X0415540Y0243300D02*
X0416760D01*
X0416150Y0242690D02*
Y0243910D01*
X0458640Y0260500D02*
X0459860D01*
X0459250Y0259890D02*
Y0261110D01*
X0427940Y0259700D02*
X0429160D01*
X0428550Y0259090D02*
Y0260310D01*
X0425140Y0229756D02*
X0426360D01*
X0425750Y0229146D02*
Y0230366D01*
X0430440Y0263840D02*
X0431660D01*
X0431050Y0263230D02*
Y0264450D01*
X0429240Y0229756D02*
X0430460D01*
X0429850Y0229146D02*
Y0230366D01*
X0433340Y0229756D02*
X0434560D01*
X0433950Y0229146D02*
Y0230366D01*
X0437140Y0244000D02*
X0438360D01*
X0437750Y0243390D02*
Y0244610D01*
X0437440Y0229756D02*
X0438660D01*
X0438050Y0229146D02*
Y0230366D01*
X0390340Y0240700D02*
X0391560D01*
X0390950Y0240090D02*
Y0241310D01*
X0439140Y0261800D02*
X0440360D01*
X0439750Y0261190D02*
Y0262410D01*
X0441540Y0229756D02*
X0442760D01*
X0442150Y0229146D02*
Y0230366D01*
X0445040Y0259600D02*
X0446260D01*
X0445650Y0258990D02*
Y0260210D01*
X0445640Y0229756D02*
X0446860D01*
X0446250Y0229146D02*
Y0230366D01*
X0449740Y0229756D02*
X0450960D01*
X0450350Y0229146D02*
Y0230366D01*
X0434702Y0547315D02*
X0435922D01*
X0435312Y0546705D02*
Y0547925D01*
X0454355Y0244884D02*
X0455575D01*
X0454965Y0244274D02*
Y0245494D01*
X0458618Y0256600D02*
X0459838D01*
X0459228Y0255990D02*
Y0257210D01*
X0453840Y0229756D02*
X0455060D01*
X0454450Y0229146D02*
Y0230366D01*
X0457940Y0229756D02*
X0459160D01*
X0458550Y0229146D02*
Y0230366D01*
X0461643Y0257532D02*
X0462862D01*
X0462253Y0256922D02*
Y0258142D01*
X0462040Y0229756D02*
X0463260D01*
X0462650Y0229146D02*
Y0230366D01*
X0466140Y0229756D02*
X0467360D01*
X0466750Y0229146D02*
Y0230366D01*
X0469050Y0244500D02*
X0470270D01*
X0469660Y0243890D02*
Y0245110D01*
X0472540Y0263500D02*
X0473760D01*
X0473150Y0262890D02*
Y0264110D01*
X0466740Y0256400D02*
X0467960D01*
X0467350Y0255790D02*
Y0257010D01*
X0472397Y0257200D02*
X0473617D01*
X0473007Y0256590D02*
Y0257810D01*
X0558934Y0463994D02*
X0560154D01*
X0559544Y0463384D02*
Y0464604D01*
X0404791Y0619261D02*
X0406011D01*
X0405401Y0618651D02*
Y0619871D01*
X0227639Y0475670D02*
X0228859D01*
X0228249Y0475060D02*
Y0476280D01*
X0323534Y0479914D02*
X0324754D01*
X0324144Y0479304D02*
Y0480524D01*
X0344389Y0492198D02*
X0345609D01*
X0344999Y0491588D02*
Y0492808D01*
X0344639Y0485070D02*
X0345859D01*
X0345249Y0484460D02*
Y0485680D01*
X0344619Y0482270D02*
X0345839D01*
X0345229Y0481660D02*
Y0482880D01*
X0353739Y0459001D02*
X0354959D01*
X0354349Y0458391D02*
Y0459611D01*
X0129374Y0592789D02*
X0130594D01*
X0129984Y0592179D02*
Y0593399D01*
X0129374Y0582789D02*
X0130594D01*
X0129984Y0582179D02*
Y0583399D01*
X0121275Y0572789D02*
X0122495D01*
X0121886Y0572179D02*
Y0573399D01*
X0121275Y0562789D02*
X0122495D01*
X0121886Y0562179D02*
Y0563399D01*
X0129374Y0552789D02*
X0130594D01*
X0129984Y0552179D02*
Y0553399D01*
X0164594Y0611870D02*
X0165814D01*
X0165204Y0611261D02*
Y0612480D01*
X0159561Y0616234D02*
X0160781D01*
X0160171Y0615624D02*
Y0616844D01*
X0121275Y0631871D02*
X0122495D01*
X0121886Y0631260D02*
Y0632480D01*
X0121275Y0641870D02*
X0122495D01*
X0121886Y0641260D02*
Y0642481D01*
X0129374Y0651870D02*
X0130594D01*
X0129984Y0651261D02*
Y0652481D01*
X0129374Y0661870D02*
X0130594D01*
X0129984Y0661261D02*
Y0662480D01*
X0653806Y0641870D02*
X0655026D01*
X0654416Y0641260D02*
Y0642481D01*
X0653806Y0631871D02*
X0655026D01*
X0654416Y0631260D02*
Y0632480D01*
X0653806Y0621871D02*
X0655026D01*
X0654416Y0621260D02*
Y0622480D01*
X0653806Y0611870D02*
X0655026D01*
X0654416Y0611261D02*
Y0612480D01*
X0653806Y0542789D02*
X0655026D01*
X0654416Y0542179D02*
Y0543399D01*
X0653806Y0552789D02*
X0655026D01*
X0654416Y0552179D02*
Y0553399D01*
X0653806Y0562789D02*
X0655026D01*
X0654416Y0562179D02*
Y0563399D01*
X0653806Y0572789D02*
X0655026D01*
X0654416Y0572179D02*
Y0573399D01*
X0637585Y0582789D02*
X0638805D01*
X0638195Y0582179D02*
Y0583399D01*
X0641068Y0592789D02*
X0642288D01*
X0641678Y0592179D02*
Y0593399D01*
X0232893Y0500100D02*
X0234093D01*
X0233493Y0499500D02*
Y0500700D01*
X0082319Y0666595D02*
X0083539D01*
X0082929Y0665985D02*
Y0667205D01*
X0082319Y0656595D02*
X0083539D01*
X0082929Y0655985D02*
Y0657205D01*
X0082319Y0646595D02*
X0083539D01*
X0082929Y0645985D02*
Y0647205D01*
X0082319Y0636595D02*
X0083539D01*
X0082929Y0635985D02*
Y0637205D01*
X0082319Y0626595D02*
X0083539D01*
X0082929Y0625985D02*
Y0627205D01*
X0082319Y0616595D02*
X0083539D01*
X0082929Y0615985D02*
Y0617205D01*
X0082319Y0547513D02*
X0083539D01*
X0082929Y0546903D02*
Y0548123D01*
X0082319Y0557513D02*
X0083539D01*
X0082929Y0556903D02*
Y0558123D01*
X0082319Y0567513D02*
X0083539D01*
X0082929Y0566903D02*
Y0568123D01*
X0082319Y0577513D02*
X0083539D01*
X0082929Y0576903D02*
Y0578123D01*
X0082319Y0587513D02*
X0083539D01*
X0082929Y0586903D02*
Y0588123D01*
X0082319Y0597513D02*
X0083539D01*
X0082929Y0596903D02*
Y0598123D01*
X0700861Y0616595D02*
X0702081D01*
X0701471Y0615985D02*
Y0617205D01*
X0700861Y0626595D02*
X0702081D01*
X0701471Y0625985D02*
Y0627205D01*
X0700861Y0636595D02*
X0702081D01*
X0701471Y0635985D02*
Y0637205D01*
X0700861Y0646595D02*
X0702081D01*
X0701471Y0645985D02*
Y0647205D01*
X0700861Y0656595D02*
X0702081D01*
X0701471Y0655985D02*
Y0657205D01*
X0700861Y0666595D02*
X0702081D01*
X0701471Y0665985D02*
Y0667205D01*
X0700861Y0547513D02*
X0702081D01*
X0701471Y0546903D02*
Y0548123D01*
X0700861Y0557513D02*
X0702081D01*
X0701471Y0556903D02*
Y0558123D01*
X0700861Y0567513D02*
X0702081D01*
X0701471Y0566903D02*
Y0568123D01*
X0700861Y0577513D02*
X0702081D01*
X0701471Y0576903D02*
Y0578123D01*
X0700861Y0587513D02*
X0702081D01*
X0701471Y0586903D02*
Y0588123D01*
X0700861Y0597513D02*
X0702081D01*
X0701471Y0596903D02*
Y0598123D01*
X0134781Y0236523D02*
X0136001D01*
X0135391Y0235913D02*
Y0237133D01*
X0131448Y0236523D02*
X0132668D01*
X0132058Y0235913D02*
Y0237133D01*
X0128114Y0236523D02*
X0129334D01*
X0128725Y0235913D02*
Y0237133D01*
X0118444Y0255011D02*
X0119664D01*
X0119054Y0254401D02*
Y0255621D01*
X0368942Y0678090D02*
X0370162D01*
X0369552Y0677480D02*
Y0678700D01*
X0368942Y0667854D02*
X0370162D01*
X0369552Y0667244D02*
Y0668464D01*
X0352060Y0688020D02*
X0353280D01*
X0352670Y0687410D02*
Y0688630D01*
X0344381Y0690971D02*
X0345601D01*
X0344991Y0690361D02*
Y0691581D01*
X0336771Y0689139D02*
X0337991D01*
X0337382Y0688529D02*
Y0689749D01*
X0328979Y0691946D02*
X0330199D01*
X0329589Y0691336D02*
Y0692556D01*
X0328979Y0674734D02*
X0330199D01*
X0329589Y0674124D02*
Y0675344D01*
X0357797Y0661825D02*
X0359017D01*
X0358407Y0661215D02*
Y0662435D01*
X0391637Y0684418D02*
X0392857D01*
X0392247Y0683808D02*
Y0685028D01*
X0344850Y0667465D02*
X0346071D01*
X0345461Y0666855D02*
Y0668075D01*
X0395570Y0656735D02*
X0396790D01*
X0396180Y0656125D02*
Y0657345D01*
X0401797Y0654082D02*
X0403017D01*
X0402407Y0653472D02*
Y0654692D01*
X0401797Y0688832D02*
X0403017D01*
X0402407Y0688222D02*
Y0689442D01*
X0395570Y0686179D02*
X0396790D01*
X0396180Y0685569D02*
Y0686789D01*
X0409628Y0651274D02*
X0410848D01*
X0410238Y0650664D02*
Y0651884D01*
X0425665Y0669269D02*
X0426885D01*
X0426275Y0668659D02*
Y0669879D01*
X0405390Y0670413D02*
X0406610D01*
X0406000Y0669803D02*
Y0671023D01*
X0385946Y0659057D02*
X0387166D01*
X0386556Y0658447D02*
Y0659666D01*
X0368942Y0672972D02*
X0370162D01*
X0369552Y0672362D02*
Y0673582D01*
X0369214Y0648523D02*
X0370434D01*
X0369824Y0647914D02*
Y0649133D01*
X0391213Y0672972D02*
X0392433D01*
X0391823Y0672362D02*
Y0673582D01*
X0380961Y0662736D02*
X0382181D01*
X0381571Y0662126D02*
Y0663346D01*
X0378030Y0652304D02*
X0379250D01*
X0378640Y0651694D02*
Y0652914D01*
X0365341Y0688334D02*
X0366561D01*
X0365951Y0687723D02*
Y0688943D01*
X0344850Y0662570D02*
X0346071D01*
X0345461Y0661960D02*
Y0663180D01*
X0264985Y0562127D02*
X0266205D01*
X0265595Y0561517D02*
Y0562737D01*
X0264382Y0539762D02*
X0265602D01*
X0264992Y0539152D02*
Y0540372D01*
X0248244Y0550201D02*
X0249464D01*
X0248854Y0549591D02*
Y0550811D01*
X0250761Y0559987D02*
X0251981D01*
X0251371Y0559377D02*
Y0560597D01*
X0274264Y0538947D02*
X0275484D01*
X0274874Y0538338D02*
Y0539558D01*
X0275917Y0542524D02*
X0277137D01*
X0276527Y0541914D02*
Y0543134D01*
X0267490Y0564329D02*
X0268710D01*
X0268100Y0563719D02*
Y0564939D01*
X0253535Y0574376D02*
X0254755D01*
X0254145Y0573766D02*
Y0574986D01*
X0454140Y0636807D02*
X0455360D01*
X0454750Y0636197D02*
Y0637417D01*
X0458240Y0636803D02*
X0459460D01*
X0458850Y0636193D02*
Y0637413D01*
X0462316Y0640508D02*
X0463536D01*
X0462926Y0639898D02*
Y0641118D01*
X0394399Y0619441D02*
X0395619D01*
X0395009Y0618831D02*
Y0620051D01*
X0473340Y0578600D02*
X0474560D01*
X0473950Y0577990D02*
Y0579210D01*
X0478303Y0595200D02*
X0479523D01*
X0478913Y0594590D02*
Y0595810D01*
X0279585Y0174238D02*
X0280805D01*
X0280195Y0173628D02*
Y0174848D01*
X0289585Y0174238D02*
X0290805D01*
X0290195Y0173628D02*
Y0174848D01*
X0299585Y0174238D02*
X0300805D01*
X0300195Y0173628D02*
Y0174848D01*
X0309585Y0174238D02*
X0310805D01*
X0310195Y0173628D02*
Y0174848D01*
X0540070Y0273680D02*
X0541290D01*
X0540680Y0273070D02*
Y0274290D01*
X0524747Y0273680D02*
X0525967D01*
X0525357Y0273070D02*
Y0274290D01*
X0570715Y0273680D02*
X0571935D01*
X0571325Y0273070D02*
Y0274290D01*
X0555392Y0273680D02*
X0556612D01*
X0556002Y0273070D02*
Y0274290D01*
X0546241Y0255212D02*
X0547461D01*
X0546851Y0254602D02*
Y0255822D01*
X0530919Y0255212D02*
X0532139D01*
X0531529Y0254602D02*
Y0255822D01*
X0576886Y0255212D02*
X0578106D01*
X0577496Y0254602D02*
Y0255822D01*
X0561564Y0255212D02*
X0562784D01*
X0562174Y0254602D02*
Y0255822D01*
X0564681Y0261520D02*
X0565901D01*
X0565291Y0260910D02*
Y0262130D01*
X0394740Y0257477D02*
X0395960D01*
X0395350Y0256867D02*
Y0258087D01*
X0123784Y0222854D02*
X0125004D01*
X0124394Y0222244D02*
Y0223464D01*
X0126595Y0211883D02*
X0127815D01*
X0127206Y0211273D02*
Y0212493D01*
X0421040Y0229756D02*
X0422260D01*
X0421650Y0229146D02*
Y0230366D01*
X0113353Y0225493D02*
X0114573D01*
X0113963Y0224883D02*
Y0226103D01*
X0100044Y0237928D02*
X0101264D01*
X0100654Y0237318D02*
Y0238538D01*
X0214030Y0253273D02*
X0215250D01*
X0214640Y0252663D02*
Y0253883D01*
X0207876Y0247120D02*
X0209097D01*
X0208487Y0246510D02*
Y0247730D01*
X0207876Y0259427D02*
X0209097D01*
X0208487Y0258817D02*
Y0260037D01*
X0356793Y0207656D02*
X0358013D01*
X0357403Y0207046D02*
Y0208266D01*
X0346849Y0207656D02*
X0348068D01*
X0347459Y0207046D02*
Y0208266D01*
X0289585Y0213478D02*
X0290805D01*
X0290195Y0212868D02*
Y0214088D01*
X0678715Y0532254D02*
X0679935D01*
X0679325Y0531644D02*
Y0532864D01*
X0681146Y0522461D02*
X0682366D01*
X0681756Y0521851D02*
Y0523071D01*
X0486140Y0458590D02*
X0487340D01*
X0486740Y0457990D02*
Y0459190D01*
X0517829Y0502425D02*
X0519049D01*
X0518439Y0501815D02*
Y0503035D01*
X0388040Y0243700D02*
X0389260D01*
X0388650Y0243090D02*
Y0244310D01*
X0129374Y0542789D02*
X0130594D01*
X0129984Y0542179D02*
Y0543399D01*
X0182601Y0256637D02*
X0183821D01*
X0183211Y0256027D02*
Y0257247D01*
X0182601Y0253304D02*
X0183821D01*
X0183211Y0252694D02*
Y0253914D01*
X0182601Y0249971D02*
X0183821D01*
X0183211Y0249361D02*
Y0250581D01*
X0177331Y0256637D02*
X0178551D01*
X0177941Y0256027D02*
Y0257247D01*
X0177331Y0253304D02*
X0178551D01*
X0177941Y0252694D02*
Y0253914D01*
X0177331Y0249971D02*
X0178551D01*
X0177941Y0249361D02*
Y0250581D01*
X0171631Y0256637D02*
X0172851D01*
X0172241Y0256027D02*
Y0257247D01*
X0171631Y0253304D02*
X0172851D01*
X0172241Y0252694D02*
Y0253914D01*
X0171631Y0249971D02*
X0172851D01*
X0172241Y0249361D02*
Y0250581D01*
X0431940Y0607400D02*
X0433160D01*
X0432550Y0606790D02*
Y0608010D01*
X0534036Y0261520D02*
X0535256D01*
X0534646Y0260910D02*
Y0262130D01*
X0513868Y0604476D02*
X0515088D01*
X0514478Y0603866D02*
Y0605086D01*
X0386085Y0631808D02*
X0387305D01*
X0386695Y0631198D02*
Y0632418D01*
X0456649Y0242184D02*
X0457869D01*
X0457259Y0241574D02*
Y0242794D01*
X0361212Y0688356D02*
X0362433D01*
X0361823Y0687746D02*
Y0688966D01*
X0406681Y0260104D02*
X0407901D01*
X0407291Y0259494D02*
Y0260714D01*
X0409140Y0257500D02*
X0410360D01*
X0409750Y0256890D02*
Y0258110D01*
X0403650Y0256790D02*
X0404870D01*
X0404260Y0256180D02*
Y0257400D01*
X0423433Y0260119D02*
X0424653D01*
X0424043Y0259509D02*
Y0260729D01*
X0111183Y0167669D02*
X0112403D01*
X0111793Y0167059D02*
Y0168279D01*
X0118183Y0167669D02*
X0119403D01*
X0118793Y0167059D02*
Y0168279D01*
X0132183Y0167669D02*
X0133403D01*
X0132793Y0167059D02*
Y0168279D01*
X0125183Y0167669D02*
X0126403D01*
X0125793Y0167059D02*
Y0168279D01*
X0153182Y0167669D02*
X0154402D01*
X0153792Y0167059D02*
Y0168279D01*
X0160182Y0167669D02*
X0161402D01*
X0160792Y0167059D02*
Y0168279D01*
X0146183Y0167669D02*
X0147403D01*
X0146792Y0167059D02*
Y0168279D01*
X0139183Y0167669D02*
X0140403D01*
X0139793Y0167059D02*
Y0168279D01*
X0181182Y0167669D02*
X0182402D01*
X0181792Y0167059D02*
Y0168279D01*
X0188182Y0167669D02*
X0189402D01*
X0188792Y0167059D02*
Y0168279D01*
X0174182Y0167669D02*
X0175402D01*
X0174792Y0167059D02*
Y0168279D01*
X0167182Y0167669D02*
X0168402D01*
X0167792Y0167059D02*
Y0168279D01*
X0209181Y0167669D02*
X0210401D01*
X0209791Y0167059D02*
Y0168279D01*
X0216181Y0167669D02*
X0217401D01*
X0216791Y0167059D02*
Y0168279D01*
X0202181Y0167669D02*
X0203401D01*
X0202791Y0167059D02*
Y0168279D01*
X0195182Y0167669D02*
X0196402D01*
X0195791Y0167059D02*
Y0168279D01*
X0237181Y0167669D02*
X0238401D01*
X0237791Y0167059D02*
Y0168279D01*
X0244180Y0167669D02*
X0245401D01*
X0244791Y0167059D02*
Y0168279D01*
X0230181Y0167669D02*
X0231401D01*
X0230791Y0167059D02*
Y0168279D01*
X0223181Y0167669D02*
X0224401D01*
X0223791Y0167059D02*
Y0168279D01*
X0265180Y0167669D02*
X0266400D01*
X0265790Y0167059D02*
Y0168279D01*
X0272180Y0167669D02*
X0273400D01*
X0272790Y0167059D02*
Y0168279D01*
X0258180Y0167669D02*
X0259400D01*
X0258790Y0167059D02*
Y0168279D01*
X0251180Y0167669D02*
X0252400D01*
X0251790Y0167059D02*
Y0168279D01*
X0419177Y0167669D02*
X0420397D01*
X0419787Y0167059D02*
Y0168279D01*
X0426177Y0167669D02*
X0427397D01*
X0426787Y0167059D02*
Y0168279D01*
X0440177Y0167669D02*
X0441397D01*
X0440787Y0167059D02*
Y0168279D01*
X0433177Y0167669D02*
X0434397D01*
X0433787Y0167059D02*
Y0168279D01*
X0391178Y0167669D02*
X0392398D01*
X0391788Y0167059D02*
Y0168279D01*
X0398177Y0167669D02*
X0399397D01*
X0398787Y0167059D02*
Y0168279D01*
X0412177Y0167669D02*
X0413397D01*
X0412787Y0167059D02*
Y0168279D01*
X0405177Y0167669D02*
X0406397D01*
X0405787Y0167059D02*
Y0168279D01*
X0363178Y0167669D02*
X0364398D01*
X0363788Y0167059D02*
Y0168279D01*
X0370178Y0167669D02*
X0371398D01*
X0370788Y0167059D02*
Y0168279D01*
X0384178Y0167669D02*
X0385398D01*
X0384788Y0167059D02*
Y0168279D01*
X0377178Y0167669D02*
X0378398D01*
X0377788Y0167059D02*
Y0168279D01*
X0335179Y0167669D02*
X0336399D01*
X0335789Y0167059D02*
Y0168279D01*
X0342179Y0167669D02*
X0343399D01*
X0342789Y0167059D02*
Y0168279D01*
X0356178Y0167669D02*
X0357398D01*
X0356788Y0167059D02*
Y0168279D01*
X0349178Y0167669D02*
X0350398D01*
X0349788Y0167059D02*
Y0168279D01*
X0307179Y0167669D02*
X0308399D01*
X0307789Y0167059D02*
Y0168279D01*
X0314179Y0167669D02*
X0315399D01*
X0314789Y0167059D02*
Y0168279D01*
X0328179Y0167669D02*
X0329399D01*
X0328789Y0167059D02*
Y0168279D01*
X0321179Y0167669D02*
X0322399D01*
X0321789Y0167059D02*
Y0168279D01*
X0293179Y0167669D02*
X0294399D01*
X0293790Y0167059D02*
Y0168279D01*
X0300179Y0167669D02*
X0301399D01*
X0300789Y0167059D02*
Y0168279D01*
X0286180Y0167669D02*
X0287400D01*
X0286790Y0167059D02*
Y0168279D01*
X0279180Y0167669D02*
X0280400D01*
X0279790Y0167059D02*
Y0168279D01*
X0587174Y0167669D02*
X0588394D01*
X0587784Y0167059D02*
Y0168279D01*
X0594173Y0167669D02*
X0595394D01*
X0594783Y0167059D02*
Y0168279D01*
X0608173Y0167669D02*
X0609393D01*
X0608783Y0167059D02*
Y0168279D01*
X0601173Y0167669D02*
X0602393D01*
X0601783Y0167059D02*
Y0168279D01*
X0559174Y0167669D02*
X0560394D01*
X0559784Y0167059D02*
Y0168279D01*
X0566174Y0167669D02*
X0567394D01*
X0566784Y0167059D02*
Y0168279D01*
X0580174Y0167669D02*
X0581394D01*
X0580784Y0167059D02*
Y0168279D01*
X0573174Y0167669D02*
X0574394D01*
X0573784Y0167059D02*
Y0168279D01*
X0531175Y0167669D02*
X0532395D01*
X0531785Y0167059D02*
Y0168279D01*
X0538175Y0167669D02*
X0539395D01*
X0538785Y0167059D02*
Y0168279D01*
X0552174Y0167669D02*
X0553394D01*
X0552784Y0167059D02*
Y0168279D01*
X0545175Y0167669D02*
X0546394D01*
X0545785Y0167059D02*
Y0168279D01*
X0503175Y0167669D02*
X0504395D01*
X0503785Y0167059D02*
Y0168279D01*
X0510175Y0167669D02*
X0511395D01*
X0510785Y0167059D02*
Y0168279D01*
X0524175Y0167669D02*
X0525395D01*
X0524785Y0167059D02*
Y0168279D01*
X0517175Y0167669D02*
X0518395D01*
X0517785Y0167059D02*
Y0168279D01*
X0475176Y0167669D02*
X0476396D01*
X0475786Y0167059D02*
Y0168279D01*
X0482176Y0167669D02*
X0483396D01*
X0482786Y0167059D02*
Y0168279D01*
X0496175Y0167669D02*
X0497396D01*
X0496785Y0167059D02*
Y0168279D01*
X0489176Y0167669D02*
X0490396D01*
X0489786Y0167059D02*
Y0168279D01*
X0461176Y0167669D02*
X0462396D01*
X0461786Y0167059D02*
Y0168279D01*
X0468176Y0167669D02*
X0469396D01*
X0468786Y0167059D02*
Y0168279D01*
X0454176Y0167669D02*
X0455396D01*
X0454786Y0167059D02*
Y0168279D01*
X0447177Y0167669D02*
X0448396D01*
X0447787Y0167059D02*
Y0168279D01*
X0671172Y0167669D02*
X0672392D01*
X0671782Y0167059D02*
Y0168279D01*
X0678172Y0167669D02*
X0679392D01*
X0678782Y0167059D02*
Y0168279D01*
X0643173Y0167669D02*
X0644392D01*
X0643783Y0167059D02*
Y0168279D01*
X0650172Y0167669D02*
X0651392D01*
X0650782Y0167059D02*
Y0168279D01*
X0664172Y0167669D02*
X0665392D01*
X0664782Y0167059D02*
Y0168279D01*
X0657172Y0167669D02*
X0658392D01*
X0657782Y0167059D02*
Y0168279D01*
X0629173Y0167669D02*
X0630393D01*
X0629783Y0167059D02*
Y0168279D01*
X0636173Y0167669D02*
X0637393D01*
X0636783Y0167059D02*
Y0168279D01*
X0622173Y0167669D02*
X0623393D01*
X0622783Y0167059D02*
Y0168279D01*
X0615173Y0167669D02*
X0616393D01*
X0615783Y0167059D02*
Y0168279D01*
X0139183Y0696131D02*
X0140403D01*
X0139793Y0695521D02*
Y0696741D01*
X0146183Y0696131D02*
X0147403D01*
X0146792Y0695521D02*
Y0696741D01*
X0160182Y0696131D02*
X0161402D01*
X0160792Y0695521D02*
Y0696741D01*
X0153182Y0696131D02*
X0154402D01*
X0153792Y0695521D02*
Y0696741D01*
X0125183Y0696131D02*
X0126403D01*
X0125793Y0695521D02*
Y0696741D01*
X0132183Y0696131D02*
X0133403D01*
X0132793Y0695521D02*
Y0696741D01*
X0118183Y0696131D02*
X0119403D01*
X0118793Y0695521D02*
Y0696741D01*
X0111183Y0696131D02*
X0112403D01*
X0111793Y0695521D02*
Y0696741D01*
X0704271Y0531937D02*
X0705491D01*
X0704881Y0531326D02*
Y0532547D01*
X0704271Y0538936D02*
X0705491D01*
X0704881Y0538326D02*
Y0539546D01*
X0704271Y0552936D02*
X0705491D01*
X0704881Y0552326D02*
Y0553546D01*
X0704271Y0545936D02*
X0705491D01*
X0704881Y0545326D02*
Y0546546D01*
X0704271Y0573936D02*
X0705491D01*
X0704881Y0573326D02*
Y0574546D01*
X0704271Y0580935D02*
X0705491D01*
X0704881Y0580326D02*
Y0581545D01*
X0704271Y0566936D02*
X0705491D01*
X0704881Y0566326D02*
Y0567546D01*
X0704271Y0559936D02*
X0705491D01*
X0704881Y0559326D02*
Y0560546D01*
X0704271Y0601935D02*
X0705491D01*
X0704881Y0601325D02*
Y0602545D01*
X0704271Y0608935D02*
X0705491D01*
X0704881Y0608325D02*
Y0609545D01*
X0704271Y0594935D02*
X0705491D01*
X0704881Y0594325D02*
Y0595545D01*
X0704271Y0587935D02*
X0705491D01*
X0704881Y0587325D02*
Y0588545D01*
X0704271Y0629935D02*
X0705491D01*
X0704881Y0629324D02*
Y0630545D01*
X0704271Y0636934D02*
X0705491D01*
X0704881Y0636324D02*
Y0637544D01*
X0704271Y0622935D02*
X0705491D01*
X0704881Y0622325D02*
Y0623545D01*
X0704271Y0615935D02*
X0705491D01*
X0704881Y0615325D02*
Y0616545D01*
X0704271Y0657934D02*
X0705491D01*
X0704881Y0657324D02*
Y0658544D01*
X0704271Y0664934D02*
X0705491D01*
X0704881Y0664324D02*
Y0665544D01*
X0704271Y0650934D02*
X0705491D01*
X0704881Y0650324D02*
Y0651544D01*
X0704271Y0643934D02*
X0705491D01*
X0704881Y0643324D02*
Y0644544D01*
X0704271Y0671934D02*
X0705491D01*
X0704881Y0671324D02*
Y0672544D01*
X0704271Y0517937D02*
X0705491D01*
X0704881Y0517327D02*
Y0518547D01*
X0704271Y0524937D02*
X0705491D01*
X0704881Y0524327D02*
Y0525547D01*
X0082909Y0531937D02*
X0084129D01*
X0083519Y0531326D02*
Y0532547D01*
X0082909Y0538936D02*
X0084129D01*
X0083519Y0538326D02*
Y0539546D01*
X0082909Y0608935D02*
X0084129D01*
X0083519Y0608325D02*
Y0609545D01*
X0082909Y0524937D02*
X0084129D01*
X0083519Y0524327D02*
Y0525547D01*
X0300420Y0229649D02*
X0301640D01*
X0301030Y0229039D02*
Y0230259D01*
X0237193Y0447149D02*
X0238413D01*
X0237803Y0446539D02*
Y0447759D01*
X0324378Y0562327D02*
X0325598D01*
X0324988Y0561717D02*
Y0562937D01*
X0333343Y0543470D02*
X0334563D01*
X0333953Y0542860D02*
Y0544080D01*
X0297425Y0532616D02*
X0298645D01*
X0298035Y0532006D02*
Y0533226D01*
X0300133Y0551800D02*
X0301353D01*
X0300743Y0551190D02*
Y0552410D01*
X0311319Y0541070D02*
X0312539D01*
X0311929Y0540460D02*
Y0541680D01*
X0334065Y0553378D02*
X0335285D01*
X0334675Y0552768D02*
Y0553988D01*
X0366737Y0207656D02*
X0367957D01*
X0367347Y0207046D02*
Y0208266D01*
X0376681Y0207656D02*
X0377901D01*
X0377291Y0207046D02*
Y0208266D01*
X0386625Y0207656D02*
X0387845D01*
X0387235Y0207046D02*
Y0208266D01*
X0396569Y0207656D02*
X0397789D01*
X0397179Y0207046D02*
Y0208266D01*
X0446289Y0207656D02*
X0447509D01*
X0446900Y0207046D02*
Y0208266D01*
X0436345Y0207656D02*
X0437565D01*
X0436955Y0207046D02*
Y0208266D01*
X0426401Y0207656D02*
X0427621D01*
X0427011Y0207046D02*
Y0208266D01*
X0416457Y0207656D02*
X0417677D01*
X0417067Y0207046D02*
Y0208266D01*
X0406513Y0207656D02*
X0407733D01*
X0407123Y0207046D02*
Y0208266D01*
X0486066Y0207656D02*
X0487286D01*
X0486676Y0207046D02*
Y0208266D01*
X0476122Y0207656D02*
X0477342D01*
X0476732Y0207046D02*
Y0208266D01*
X0466178Y0207656D02*
X0467398D01*
X0466788Y0207046D02*
Y0208266D01*
X0456234Y0207656D02*
X0457454D01*
X0456844Y0207046D02*
Y0208266D01*
X0346849Y0187768D02*
X0348068D01*
X0347459Y0187158D02*
Y0188378D01*
X0346849Y0197712D02*
X0348068D01*
X0347459Y0197102D02*
Y0198322D01*
X0456234Y0197712D02*
X0457454D01*
X0456844Y0197102D02*
Y0198322D01*
X0466178Y0197712D02*
X0467398D01*
X0466788Y0197102D02*
Y0198322D01*
X0476122Y0197712D02*
X0477342D01*
X0476732Y0197102D02*
Y0198322D01*
X0486066Y0197712D02*
X0487286D01*
X0486676Y0197102D02*
Y0198322D01*
X0406513Y0197712D02*
X0407733D01*
X0407123Y0197102D02*
Y0198322D01*
X0416457Y0197712D02*
X0417677D01*
X0417067Y0197102D02*
Y0198322D01*
X0426401Y0197712D02*
X0427621D01*
X0427011Y0197102D02*
Y0198322D01*
X0436345Y0197712D02*
X0437565D01*
X0436955Y0197102D02*
Y0198322D01*
X0446289Y0197712D02*
X0447509D01*
X0446900Y0197102D02*
Y0198322D01*
X0396569Y0197712D02*
X0397789D01*
X0397179Y0197102D02*
Y0198322D01*
X0386625Y0197712D02*
X0387845D01*
X0387235Y0197102D02*
Y0198322D01*
X0376681Y0197712D02*
X0377901D01*
X0377291Y0197102D02*
Y0198322D01*
X0366737Y0197712D02*
X0367957D01*
X0367347Y0197102D02*
Y0198322D01*
X0356793Y0197712D02*
X0358013D01*
X0357403Y0197102D02*
Y0198322D01*
X0456234Y0187768D02*
X0457454D01*
X0456844Y0187158D02*
Y0188378D01*
X0466178Y0187768D02*
X0467398D01*
X0466788Y0187158D02*
Y0188378D01*
X0476122Y0187768D02*
X0477342D01*
X0476732Y0187158D02*
Y0188378D01*
X0486066Y0187768D02*
X0487286D01*
X0486676Y0187158D02*
Y0188378D01*
X0406513Y0187768D02*
X0407733D01*
X0407123Y0187158D02*
Y0188378D01*
X0416457Y0187768D02*
X0417677D01*
X0417067Y0187158D02*
Y0188378D01*
X0426401Y0187768D02*
X0427621D01*
X0427011Y0187158D02*
Y0188378D01*
X0436345Y0187768D02*
X0437565D01*
X0436955Y0187158D02*
Y0188378D01*
X0446289Y0187768D02*
X0447509D01*
X0446900Y0187158D02*
Y0188378D01*
X0396569Y0187768D02*
X0397789D01*
X0397179Y0187158D02*
Y0188378D01*
X0386625Y0187768D02*
X0387845D01*
X0387235Y0187158D02*
Y0188378D01*
X0376681Y0187768D02*
X0377901D01*
X0377291Y0187158D02*
Y0188378D01*
X0366737Y0187768D02*
X0367957D01*
X0367347Y0187158D02*
Y0188378D01*
X0356793Y0187768D02*
X0358013D01*
X0357403Y0187158D02*
Y0188378D01*
X0500773Y0695413D02*
X0501993D01*
X0501383Y0694803D02*
Y0696023D01*
X0500773Y0692313D02*
X0501993D01*
X0501383Y0691703D02*
Y0692923D01*
X0497673Y0695413D02*
X0498893D01*
X0498283Y0694803D02*
Y0696023D01*
X0497673Y0692313D02*
X0498893D01*
X0498283Y0691703D02*
Y0692923D01*
X0494573Y0695413D02*
X0495793D01*
X0495183Y0694803D02*
Y0696023D01*
X0494573Y0692313D02*
X0495793D01*
X0495183Y0691703D02*
Y0692923D01*
X0503873Y0692313D02*
X0505093D01*
X0504483Y0691703D02*
Y0692923D01*
X0503873Y0695413D02*
X0505093D01*
X0504483Y0694803D02*
Y0696023D01*
X0506973Y0692313D02*
X0508193D01*
X0507583Y0691703D02*
Y0692923D01*
X0506973Y0695413D02*
X0508193D01*
X0507583Y0694803D02*
Y0696023D01*
X0510073Y0692313D02*
X0511293D01*
X0510683Y0691703D02*
Y0692923D01*
X0510073Y0695413D02*
X0511293D01*
X0510683Y0694803D02*
Y0696023D01*
X0513173Y0692313D02*
X0514393D01*
X0513783Y0691703D02*
Y0692923D01*
X0513173Y0695413D02*
X0514393D01*
X0513783Y0694803D02*
Y0696023D01*
X0160661Y0249971D02*
X0161881D01*
X0161271Y0249361D02*
Y0250581D01*
X0160661Y0253304D02*
X0161881D01*
X0161271Y0252694D02*
Y0253914D01*
X0160661Y0256637D02*
X0161881D01*
X0161271Y0256027D02*
Y0257247D01*
X0166361Y0249971D02*
X0167581D01*
X0166971Y0249361D02*
Y0250581D01*
X0166361Y0253304D02*
X0167581D01*
X0166971Y0252694D02*
Y0253914D01*
X0166361Y0256637D02*
X0167581D01*
X0166971Y0256027D02*
Y0257247D01*
X0287664Y0404057D02*
X0288451D01*
X0288057Y0403663D02*
Y0404451D01*
X0287664Y0401057D02*
X0288451D01*
X0288057Y0400663D02*
Y0401451D01*
X0287664Y0398057D02*
X0288451D01*
X0288057Y0397663D02*
Y0398451D01*
X0283749Y0412418D02*
X0284969D01*
X0284359Y0411808D02*
Y0413028D01*
X0282749Y0380018D02*
X0283969D01*
X0283359Y0379408D02*
Y0380628D01*
X0423440Y0477900D02*
X0424660D01*
X0424050Y0477290D02*
Y0478510D01*
X0413881Y0466960D02*
X0415101D01*
X0414491Y0466351D02*
Y0467570D01*
X0415269Y0463565D02*
X0416489D01*
X0415879Y0462955D02*
Y0464175D01*
X0418540Y0480200D02*
X0419760D01*
X0419150Y0479590D02*
Y0480810D01*
X0417304Y0466006D02*
X0418524D01*
X0417914Y0465396D02*
Y0466616D01*
X0443840Y0507000D02*
X0445060D01*
X0444450Y0506390D02*
Y0507610D01*
X0441040Y0511600D02*
X0442260D01*
X0441650Y0510990D02*
Y0512210D01*
X0445640Y0510600D02*
X0446860D01*
X0446250Y0509990D02*
Y0511210D01*
X0448397Y0508612D02*
X0449617D01*
X0449007Y0508002D02*
Y0509222D01*
X0442440Y0458900D02*
X0443660D01*
X0443050Y0458290D02*
Y0459510D01*
X0421840Y0480700D02*
X0423060D01*
X0422450Y0480090D02*
Y0481310D01*
X0427040Y0489000D02*
X0428260D01*
X0427650Y0488390D02*
Y0489610D01*
X0425540Y0475400D02*
X0426760D01*
X0426150Y0474790D02*
Y0476010D01*
X0439840Y0499700D02*
X0441060D01*
X0440450Y0499090D02*
Y0500310D01*
X0451040Y0510600D02*
X0452260D01*
X0451650Y0509990D02*
Y0511210D01*
X0441440Y0470400D02*
X0442660D01*
X0442050Y0469790D02*
Y0471010D01*
X0443848Y0487607D02*
X0445068D01*
X0444458Y0486997D02*
Y0488217D01*
X0438240Y0459900D02*
X0439460D01*
X0438850Y0459290D02*
Y0460510D01*
X0447740Y0502900D02*
X0448960D01*
X0448350Y0502290D02*
Y0503510D01*
X0445740Y0461400D02*
X0446960D01*
X0446350Y0460790D02*
Y0462010D01*
X0420740Y0511400D02*
X0421960D01*
X0421350Y0510790D02*
Y0512010D01*
X0439213Y0525205D02*
X0440433D01*
X0439823Y0524595D02*
Y0525815D01*
X0417030Y0485460D02*
X0418250D01*
X0417640Y0484850D02*
Y0486070D01*
X0420340Y0486571D02*
X0421560D01*
X0420950Y0485961D02*
Y0487181D01*
X0423490Y0489250D02*
X0424710D01*
X0424100Y0488640D02*
Y0489860D01*
X0440440Y0491500D02*
X0441660D01*
X0441050Y0490890D02*
Y0492110D01*
X0426340Y0484500D02*
X0427560D01*
X0426950Y0483890D02*
Y0485110D01*
X0433240Y0472100D02*
X0434460D01*
X0433850Y0471490D02*
Y0472710D01*
X0433740Y0465900D02*
X0434960D01*
X0434350Y0465290D02*
Y0466510D01*
X0433240Y0461099D02*
X0434460D01*
X0433850Y0460489D02*
Y0461709D01*
X0450740Y0454499D02*
X0451960D01*
X0451350Y0453889D02*
Y0455109D01*
X0439640Y0456399D02*
X0440860D01*
X0440250Y0455789D02*
Y0457009D01*
X0440540Y0450499D02*
X0441760D01*
X0441150Y0449889D02*
Y0451109D01*
X0450640Y0451199D02*
X0451860D01*
X0451250Y0450589D02*
Y0451809D01*
X0451040Y0457400D02*
X0452260D01*
X0451650Y0456790D02*
Y0458010D01*
X0440370Y0444169D02*
X0441590D01*
X0440980Y0443559D02*
Y0444779D01*
X0444010Y0444169D02*
X0445230D01*
X0444620Y0443559D02*
Y0444779D01*
X0445440Y0439099D02*
X0446660D01*
X0446050Y0438489D02*
Y0439709D01*
X0449402Y0439099D02*
X0450622D01*
X0450012Y0438489D02*
Y0439709D01*
X0451960Y0437099D02*
X0453180D01*
X0452570Y0436489D02*
Y0437709D01*
X0456996Y0432299D02*
X0458216D01*
X0457606Y0431689D02*
Y0432909D01*
X0467140Y0448228D02*
X0468360D01*
X0467750Y0447618D02*
Y0448838D01*
X0472840Y0451299D02*
X0474060D01*
X0473450Y0450689D02*
Y0451909D01*
X0455980Y0437099D02*
X0457200D01*
X0456590Y0436489D02*
Y0437709D01*
X0460636Y0432299D02*
X0461856D01*
X0461246Y0431689D02*
Y0432909D01*
X0470880Y0448228D02*
X0472100D01*
X0471490Y0447618D02*
Y0448838D01*
X0472840Y0454679D02*
X0474060D01*
X0473450Y0454069D02*
Y0455289D01*
X0462240Y0439999D02*
X0463460D01*
X0462850Y0439389D02*
Y0440609D01*
X0465740Y0440099D02*
X0466960D01*
X0466350Y0439489D02*
Y0440709D01*
X0461440Y0435799D02*
X0462660D01*
X0462050Y0435189D02*
Y0436409D01*
X0454140Y0430499D02*
X0455360D01*
X0454750Y0429889D02*
Y0431109D01*
X0449540Y0434399D02*
X0450760D01*
X0450150Y0433789D02*
Y0435009D01*
X0451640Y0442399D02*
X0452860D01*
X0452250Y0441789D02*
Y0443009D01*
X0447140Y0445599D02*
X0448360D01*
X0447750Y0444989D02*
Y0446209D01*
X0194555Y0363327D02*
X0195775D01*
X0195165Y0362717D02*
Y0363937D01*
X0194555Y0357825D02*
X0195775D01*
X0195165Y0357215D02*
Y0358435D01*
X0194555Y0351323D02*
X0195775D01*
X0195165Y0350713D02*
Y0351933D01*
X0194555Y0344822D02*
X0195775D01*
X0195165Y0344212D02*
Y0345431D01*
X0194555Y0338320D02*
X0195775D01*
X0195165Y0337710D02*
Y0338930D01*
X0208560Y0338320D02*
X0209780D01*
X0209170Y0337710D02*
Y0338930D01*
X0122569Y0460194D02*
X0123789D01*
X0123179Y0459584D02*
Y0460804D01*
X0119838Y0460175D02*
X0121058D01*
X0120448Y0459565D02*
Y0460785D01*
X0125301Y0460213D02*
X0126521D01*
X0125911Y0459603D02*
Y0460823D01*
X0677640Y0288398D02*
X0678860D01*
X0678250Y0287788D02*
Y0289008D01*
X0681628Y0272538D02*
X0682847D01*
X0682237Y0271928D02*
Y0273148D01*
X0681628Y0266036D02*
X0682847D01*
X0682237Y0265426D02*
Y0266646D01*
X0248244Y0541320D02*
X0249464D01*
X0248854Y0540710D02*
Y0541930D01*
X0428431Y0449974D02*
X0429651D01*
X0429041Y0449364D02*
Y0450584D01*
X0525719Y0462053D02*
X0526939D01*
X0526329Y0461444D02*
Y0462664D01*
X0171180Y0493568D02*
X0172400D01*
X0171790Y0492958D02*
Y0494178D01*
X0279585Y0213478D02*
X0280805D01*
X0280195Y0212868D02*
Y0214088D01*
X0299585Y0226533D02*
X0300805D01*
X0300195Y0225923D02*
Y0227143D01*
X0292540Y0497400D02*
X0293760D01*
X0293150Y0496790D02*
Y0498010D01*
X0167991Y0466682D02*
X0169211D01*
X0168601Y0466072D02*
Y0467292D01*
X0168211Y0483465D02*
X0169431D01*
X0168821Y0482855D02*
Y0484075D01*
X0169490Y0458349D02*
X0170710D01*
X0170100Y0457739D02*
Y0458959D01*
X0294140Y0485100D02*
X0295360D01*
X0294750Y0484490D02*
Y0485710D01*
X0604866Y0286937D02*
X0606086D01*
X0605476Y0286327D02*
Y0287547D01*
X0347627Y0386918D02*
X0348847D01*
X0348237Y0386308D02*
Y0387528D01*
X0106596Y0211883D02*
X0107816D01*
X0107205Y0211273D02*
Y0212493D01*
X0085714Y0302079D02*
X0086934D01*
X0086324Y0301469D02*
Y0302689D01*
X0216212Y0358821D02*
X0217432D01*
X0216822Y0358211D02*
Y0359431D01*
X0372732Y0452725D02*
X0373952D01*
X0373342Y0452115D02*
Y0453335D01*
X0309585Y0213478D02*
X0310805D01*
X0310195Y0212868D02*
Y0214088D01*
X0438185Y0453162D02*
X0439405D01*
X0438795Y0452552D02*
Y0453772D01*
X0115621Y0373422D02*
X0116841D01*
X0116231Y0372812D02*
Y0374032D01*
X0258616Y0348315D02*
X0259836D01*
X0259226Y0347705D02*
Y0348925D01*
X0255982Y0344132D02*
X0257202D01*
X0256592Y0343523D02*
Y0344742D01*
X0167914Y0503093D02*
X0169134D01*
X0168524Y0502483D02*
Y0503703D01*
X0170632Y0505310D02*
X0171852D01*
X0171241Y0504700D02*
Y0505920D01*
X0287205Y0507027D02*
X0288425D01*
X0287815Y0506417D02*
Y0507637D01*
X0286843Y0502518D02*
X0288063D01*
X0287453Y0501908D02*
Y0503128D01*
X0436564Y0521214D02*
X0437784D01*
X0437174Y0520604D02*
Y0521824D01*
X0395464Y0430449D02*
X0396684D01*
X0396074Y0429839D02*
Y0431059D01*
X0489634Y0568305D02*
X0490854D01*
X0490243Y0567695D02*
Y0568915D01*
X0489646Y0571508D02*
X0490866D01*
X0490256Y0570898D02*
Y0572118D01*
X0650403Y0345918D02*
X0651623D01*
X0651013Y0345308D02*
Y0346529D01*
X0650403Y0341769D02*
X0651623D01*
X0651013Y0341159D02*
Y0342378D01*
X0654169Y0345918D02*
X0655389D01*
X0654779Y0345308D02*
Y0346529D01*
X0442567Y0526551D02*
X0443787D01*
X0443177Y0525941D02*
Y0527161D01*
X0374624Y0512604D02*
X0375844D01*
X0375234Y0511994D02*
Y0513214D01*
X0374202Y0516126D02*
X0375422D01*
X0374812Y0515516D02*
Y0516736D01*
X0123707Y0443096D02*
X0124507D01*
X0124107Y0442696D02*
Y0443496D01*
X0123707Y0441128D02*
X0124507D01*
X0124107Y0440728D02*
Y0441528D01*
X0123707Y0445065D02*
X0124507D01*
X0124107Y0444665D02*
Y0445465D01*
X0125676Y0445065D02*
X0126476D01*
X0126076Y0444665D02*
Y0445465D01*
X0125676Y0441128D02*
X0126476D01*
X0126076Y0440728D02*
Y0441528D01*
X0125676Y0443096D02*
X0126476D01*
X0126076Y0442696D02*
Y0443496D01*
X0235612Y0592655D02*
X0236832D01*
X0236222Y0592045D02*
Y0593265D01*
X0173029Y0480127D02*
X0174249D01*
X0173639Y0479517D02*
Y0480737D01*
X0116343Y0381024D02*
X0117143D01*
X0116743Y0380624D02*
Y0381424D01*
X0116343Y0382992D02*
X0117143D01*
X0116743Y0382592D02*
Y0383392D01*
X0116343Y0384961D02*
X0117143D01*
X0116743Y0384561D02*
Y0385361D01*
X0116343Y0388898D02*
X0117143D01*
X0116743Y0388498D02*
Y0389298D01*
X0116343Y0386929D02*
X0117143D01*
X0116743Y0386529D02*
Y0387329D01*
X0090812Y0471041D02*
X0091612D01*
X0091212Y0470642D02*
Y0471442D01*
X0090812Y0473010D02*
X0091612D01*
X0091212Y0472610D02*
Y0473410D01*
X0090812Y0474978D02*
X0091612D01*
X0091212Y0474579D02*
Y0475379D01*
X0090812Y0478915D02*
X0091612D01*
X0091212Y0478515D02*
Y0479315D01*
X0090812Y0476947D02*
X0091612D01*
X0091212Y0476547D02*
Y0477347D01*
X0571917Y0305116D02*
X0572717D01*
X0572317Y0304715D02*
Y0305516D01*
X0567980Y0303147D02*
X0568780D01*
X0568380Y0302747D02*
Y0303547D01*
X0567980Y0307084D02*
X0568780D01*
X0568380Y0306684D02*
Y0307484D01*
X0567980Y0305116D02*
X0568780D01*
X0568380Y0304715D02*
Y0305516D01*
X0585369Y0311980D02*
X0586169D01*
X0585769Y0311580D02*
Y0312380D01*
X0585369Y0315917D02*
X0586169D01*
X0585769Y0315517D02*
Y0316317D01*
X0585369Y0313948D02*
X0586169D01*
X0585769Y0313548D02*
Y0314348D01*
X0192040Y0441100D02*
X0193260D01*
X0192650Y0440490D02*
Y0441710D01*
X0517479Y0638362D02*
X0518279D01*
X0517879Y0637962D02*
Y0638762D01*
X0515511Y0638362D02*
X0516311D01*
X0515911Y0637962D02*
Y0638762D01*
X0519448Y0638362D02*
X0520248D01*
X0519848Y0637962D02*
Y0638762D01*
X0519448Y0636394D02*
X0520248D01*
X0519848Y0635994D02*
Y0636794D01*
X0519448Y0634425D02*
X0520248D01*
X0519848Y0634025D02*
Y0634825D01*
X0515511Y0634425D02*
X0516311D01*
X0515911Y0634025D02*
Y0634825D01*
X0517479Y0634425D02*
X0518279D01*
X0517879Y0634025D02*
Y0634825D01*
X0515511Y0636394D02*
X0516311D01*
X0515911Y0635994D02*
Y0636794D01*
X0517479Y0636394D02*
X0518279D01*
X0517879Y0635994D02*
Y0636794D01*
X0521416Y0634425D02*
X0522216D01*
X0521816Y0634025D02*
Y0634825D01*
X0521416Y0636394D02*
X0522216D01*
X0521816Y0635994D02*
Y0636794D01*
X0521416Y0638362D02*
X0522216D01*
X0521816Y0637962D02*
Y0638762D01*
X0507193Y0615645D02*
X0507993D01*
X0507593Y0615245D02*
Y0616045D01*
X0507193Y0613676D02*
X0507993D01*
X0507593Y0613276D02*
Y0614076D01*
X0509161Y0615645D02*
X0509961D01*
X0509561Y0615245D02*
Y0616045D01*
X0509161Y0613676D02*
X0509961D01*
X0509561Y0613276D02*
Y0614076D01*
X0509161Y0617613D02*
X0509961D01*
X0509561Y0617213D02*
Y0618013D01*
X0507193Y0617613D02*
X0507993D01*
X0507593Y0617213D02*
Y0618013D01*
X0505224Y0617613D02*
X0506024D01*
X0505624Y0617213D02*
Y0618013D01*
X0505224Y0613676D02*
X0506024D01*
X0505624Y0613276D02*
Y0614076D01*
X0505224Y0615645D02*
X0506024D01*
X0505624Y0615245D02*
Y0616045D01*
X0331399Y0644451D02*
X0332199D01*
X0331799Y0644051D02*
Y0644850D01*
X0333368Y0644451D02*
X0334168D01*
X0333768Y0644051D02*
Y0644850D01*
X0335336Y0644451D02*
X0336136D01*
X0335736Y0644051D02*
Y0644850D01*
X0333368Y0640514D02*
X0334168D01*
X0333768Y0640113D02*
Y0640913D01*
X0335336Y0640514D02*
X0336136D01*
X0335736Y0640113D02*
Y0640913D01*
X0335336Y0642482D02*
X0336136D01*
X0335736Y0642082D02*
Y0642882D01*
X0333368Y0642482D02*
X0334168D01*
X0333768Y0642082D02*
Y0642882D01*
X0331399Y0642482D02*
X0332199D01*
X0331799Y0642082D02*
Y0642882D01*
X0331399Y0640514D02*
X0332199D01*
X0331799Y0640113D02*
Y0640913D01*
X0347560Y0223073D02*
X0348360D01*
X0347960Y0222673D02*
Y0223473D01*
X0349528Y0223073D02*
X0350328D01*
X0349928Y0222673D02*
Y0223473D01*
X0345591Y0223073D02*
X0346391D01*
X0345991Y0222673D02*
Y0223473D01*
X0345591Y0225042D02*
X0346391D01*
X0345991Y0224641D02*
Y0225442D01*
X0345591Y0227010D02*
X0346391D01*
X0345991Y0226610D02*
Y0227410D01*
X0349528Y0227010D02*
X0350328D01*
X0349928Y0226610D02*
Y0227410D01*
X0347560Y0227010D02*
X0348360D01*
X0347960Y0226610D02*
Y0227410D01*
X0349528Y0225042D02*
X0350328D01*
X0349928Y0224641D02*
Y0225442D01*
X0347560Y0225042D02*
X0348360D01*
X0347960Y0224641D02*
Y0225442D01*
X0343623Y0227010D02*
X0344423D01*
X0344023Y0226610D02*
Y0227410D01*
X0343623Y0225042D02*
X0344423D01*
X0344023Y0224641D02*
Y0225442D01*
X0343623Y0223073D02*
X0344423D01*
X0344023Y0222673D02*
Y0223473D01*
X0490333Y0238651D02*
X0491133D01*
X0490733Y0238251D02*
Y0239051D01*
X0488364Y0238651D02*
X0489164D01*
X0488764Y0238251D02*
Y0239051D01*
X0488364Y0240620D02*
X0489164D01*
X0488764Y0240220D02*
Y0241020D01*
X0490333Y0240620D02*
X0491133D01*
X0490733Y0240220D02*
Y0241020D01*
X0486396Y0240620D02*
X0487196D01*
X0486796Y0240220D02*
Y0241020D01*
X0486396Y0238651D02*
X0487196D01*
X0486796Y0238251D02*
Y0239051D01*
X0486351Y0224597D02*
X0487151D01*
X0486751Y0224197D02*
Y0224996D01*
X0486351Y0226565D02*
X0487151D01*
X0486751Y0226165D02*
Y0226965D01*
X0490288Y0226565D02*
X0491088D01*
X0490688Y0226165D02*
Y0226965D01*
X0488319Y0226565D02*
X0489119D01*
X0488719Y0226165D02*
Y0226965D01*
X0488319Y0224597D02*
X0489119D01*
X0488719Y0224197D02*
Y0224996D01*
X0490288Y0224597D02*
X0491088D01*
X0490688Y0224197D02*
Y0224996D01*
X0338757Y0545831D02*
X0339977D01*
X0339367Y0545221D02*
Y0546441D01*
X0654139Y0568305D02*
X0655359D01*
X0654748Y0567695D02*
Y0568915D01*
X0628061Y0577006D02*
X0629281D01*
X0628671Y0576396D02*
Y0577616D01*
X0478440Y0583400D02*
X0479660D01*
X0479050Y0582790D02*
Y0584010D01*
X0485597Y0655782D02*
X0486817D01*
X0486207Y0655172D02*
Y0656392D01*
X0161138Y0653040D02*
X0161938D01*
X0161538Y0652639D02*
Y0653440D01*
X0161138Y0651071D02*
X0161938D01*
X0161538Y0650671D02*
Y0651471D01*
X0161138Y0655008D02*
X0161938D01*
X0161538Y0654608D02*
Y0655408D01*
X0159170Y0655008D02*
X0159970D01*
X0159570Y0654608D02*
Y0655408D01*
X0159170Y0651071D02*
X0159970D01*
X0159570Y0650671D02*
Y0651471D01*
X0159170Y0653040D02*
X0159970D01*
X0159570Y0652639D02*
Y0653440D01*
X0151858Y0558241D02*
X0153078D01*
X0152468Y0557631D02*
Y0558851D01*
X0415359Y0527853D02*
X0416579D01*
X0415969Y0527243D02*
Y0528463D01*
X0412351Y0527853D02*
X0413571D01*
X0412961Y0527243D02*
Y0528463D01*
X0403714Y0525924D02*
X0404934D01*
X0404324Y0525314D02*
Y0526534D01*
X0406285Y0525924D02*
X0407505D01*
X0406895Y0525314D02*
Y0526534D01*
X0311419Y0373354D02*
X0312638D01*
X0312029Y0372744D02*
Y0373964D01*
X0307575Y0370185D02*
X0308795D01*
X0308185Y0369575D02*
Y0370795D01*
X0528657Y0374316D02*
X0529877D01*
X0529267Y0373706D02*
Y0374926D01*
X0528680Y0371108D02*
X0529900D01*
X0529290Y0370498D02*
Y0371718D01*
X0508421Y0368043D02*
X0509641D01*
X0509031Y0367433D02*
Y0368653D01*
X0505122Y0368654D02*
X0506342D01*
X0505732Y0368044D02*
Y0369264D01*
X0391733Y0516245D02*
X0392953D01*
X0392343Y0515635D02*
Y0516855D01*
X0392075Y0508940D02*
X0393295D01*
X0392685Y0508330D02*
Y0509550D01*
X0537254Y0384026D02*
X0538474D01*
X0537864Y0383416D02*
Y0384636D01*
X0536854Y0376535D02*
X0538074D01*
X0537464Y0375925D02*
Y0377145D01*
X0167366Y0533506D02*
X0168586D01*
X0167976Y0532896D02*
Y0534116D01*
X0171940Y0535680D02*
X0173160D01*
X0172550Y0535070D02*
Y0536290D01*
X0509717Y0392503D02*
X0510504D01*
X0510110Y0392110D02*
Y0392897D01*
X0513226Y0392503D02*
X0514013D01*
X0513620Y0392110D02*
Y0392897D01*
X0516735Y0392503D02*
X0517522D01*
X0517129Y0392110D02*
Y0392897D01*
X0520244Y0392503D02*
X0521032D01*
X0520638Y0392110D02*
Y0392897D01*
X0312331Y0388864D02*
X0313551D01*
X0312941Y0388254D02*
Y0389474D01*
X0314331Y0382013D02*
X0315551D01*
X0314941Y0381403D02*
Y0382623D01*
X0293953Y0368290D02*
X0295173D01*
X0294563Y0367680D02*
Y0368900D01*
X0290329Y0368290D02*
X0291548D01*
X0290938Y0367680D02*
Y0368900D01*
X0227765Y0485215D02*
X0228985D01*
X0228375Y0484605D02*
Y0485824D01*
X0476264Y0494465D02*
X0477484D01*
X0476874Y0493855D02*
Y0495075D01*
X0576565Y0485215D02*
X0577785D01*
X0577175Y0484605D02*
Y0485825D01*
X0344766Y0494614D02*
X0345986D01*
X0345376Y0494004D02*
Y0495224D01*
X0151858Y0554605D02*
X0153078D01*
X0152468Y0553995D02*
Y0555215D01*
X0151787Y0546265D02*
X0153007D01*
X0152397Y0545655D02*
Y0546875D01*
X0151787Y0549901D02*
X0153007D01*
X0152397Y0549291D02*
Y0550511D01*
X0179629Y0537406D02*
X0180849D01*
X0180239Y0536796D02*
Y0538016D01*
X0186829Y0537406D02*
X0188049D01*
X0187439Y0536796D02*
Y0538016D01*
X0186267Y0556510D02*
X0187055D01*
X0186661Y0556116D02*
Y0556903D01*
X0181767Y0556510D02*
X0182555D01*
X0182161Y0556116D02*
Y0556903D01*
X0177267Y0556510D02*
X0178055D01*
X0177661Y0556116D02*
Y0556903D01*
X0172767Y0556510D02*
X0173555D01*
X0173161Y0556116D02*
Y0556903D01*
X0161702Y0580666D02*
X0162922D01*
X0162312Y0580056D02*
Y0581276D01*
X0189779Y0444533D02*
X0190999D01*
X0190389Y0443923D02*
Y0445143D01*
X0241634Y0463339D02*
X0242434D01*
X0242034Y0462939D02*
Y0463739D01*
X0247977Y0457706D02*
X0249197D01*
X0248587Y0457096D02*
Y0458316D01*
X0241634Y0455669D02*
X0242434D01*
X0242034Y0455269D02*
Y0456069D01*
X0367505Y0476131D02*
X0368725D01*
X0368115Y0475522D02*
Y0476742D01*
X0358634Y0472739D02*
X0359434D01*
X0359034Y0472339D02*
Y0473139D01*
X0358634Y0465069D02*
X0359434D01*
X0359034Y0464669D02*
Y0465469D01*
X0362634Y0472739D02*
X0363434D01*
X0363034Y0472339D02*
Y0473139D01*
X0362634Y0465069D02*
X0363434D01*
X0363034Y0464669D02*
Y0465469D01*
X0367228Y0471292D02*
X0368028D01*
X0367628Y0470892D02*
Y0471692D01*
X0370261Y0471421D02*
X0371481D01*
X0370871Y0470811D02*
Y0472031D01*
X0491634Y0465069D02*
X0492434D01*
X0492034Y0464669D02*
Y0465469D01*
X0490134Y0472739D02*
X0490934D01*
X0490534Y0472339D02*
Y0473139D01*
X0494134Y0472739D02*
X0494934D01*
X0494534Y0472339D02*
Y0473139D01*
X0495634Y0469143D02*
X0496434D01*
X0496034Y0468743D02*
Y0469543D01*
X0472483Y0458325D02*
X0473703D01*
X0473093Y0457715D02*
Y0458935D01*
X0475749Y0434049D02*
X0476969D01*
X0476359Y0433439D02*
Y0434659D01*
X0472814Y0434049D02*
X0474034D01*
X0473424Y0433439D02*
Y0434659D01*
X0474282Y0431509D02*
X0475502D01*
X0474892Y0430899D02*
Y0432119D01*
X0498870Y0472026D02*
X0500090D01*
X0499480Y0471416D02*
Y0472636D01*
X0500012Y0459824D02*
X0500812D01*
X0500412Y0459424D02*
Y0460224D01*
X0598138Y0466732D02*
X0599358D01*
X0598748Y0466122D02*
Y0467342D01*
X0590434Y0463339D02*
X0591234D01*
X0590834Y0462939D02*
Y0463739D01*
X0594434Y0463339D02*
X0595234D01*
X0594834Y0462939D02*
Y0463739D01*
X0591934Y0455669D02*
X0592734D01*
X0592334Y0455269D02*
Y0456069D01*
X0595934Y0459743D02*
X0596734D01*
X0596334Y0459343D02*
Y0460143D01*
X0341150Y0431923D02*
X0342370D01*
X0341760Y0431313D02*
Y0432533D01*
X0343418Y0430410D02*
X0344638D01*
X0344028Y0429800D02*
Y0431020D01*
X0345715Y0428313D02*
X0346935D01*
X0346325Y0427703D02*
Y0428923D01*
X0361404Y0443319D02*
X0362624D01*
X0362014Y0442709D02*
Y0443929D01*
X0370479Y0448120D02*
X0371699D01*
X0371089Y0447510D02*
Y0448730D01*
X0412640Y0485460D02*
X0413860D01*
X0413250Y0484850D02*
Y0486070D01*
X0549093Y0500547D02*
X0549893D01*
X0549493Y0500147D02*
Y0500947D01*
X0547037Y0498109D02*
X0547837D01*
X0547437Y0497709D02*
Y0498509D01*
X0545175Y0500426D02*
X0545975D01*
X0545575Y0500026D02*
Y0500826D01*
X0505586Y0498014D02*
X0506807D01*
X0506196Y0497404D02*
Y0498624D01*
X0505297Y0501181D02*
X0506517D01*
X0505907Y0500571D02*
Y0501791D01*
X0517735Y0497965D02*
X0518955D01*
X0518345Y0497355D02*
Y0498575D01*
X0524601Y0495933D02*
X0525821D01*
X0525211Y0495324D02*
Y0496544D01*
X0513787Y0502425D02*
X0515006D01*
X0514396Y0501815D02*
Y0503035D01*
X0526651Y0296617D02*
X0527871D01*
X0527261Y0296007D02*
Y0297227D01*
X0296900Y0452930D02*
X0298120D01*
X0297510Y0452320D02*
Y0453540D01*
X0277434Y0390845D02*
X0278655D01*
X0278045Y0390235D02*
Y0391455D01*
X0287287Y0483776D02*
X0288507D01*
X0287897Y0483166D02*
Y0484386D01*
X0287287Y0472516D02*
X0288507D01*
X0287897Y0471906D02*
Y0473126D01*
X0528750Y0416000D02*
X0529970D01*
X0529360Y0415390D02*
Y0416610D01*
X0423883Y0516573D02*
X0424683D01*
X0424283Y0516173D02*
Y0516973D01*
X0418135Y0461106D02*
X0419355D01*
X0418745Y0460496D02*
Y0461716D01*
X0412499Y0473400D02*
X0413299D01*
X0412899Y0473000D02*
Y0473800D01*
X0169488Y0461634D02*
X0170708D01*
X0170098Y0461024D02*
Y0462244D01*
X0183218Y0544170D02*
X0184438D01*
X0183828Y0543560D02*
Y0544780D01*
X0168327Y0574455D02*
X0169547D01*
X0168937Y0573845D02*
Y0575065D01*
X0170183Y0474578D02*
X0171403D01*
X0170793Y0473968D02*
Y0475188D01*
X0159972Y0470396D02*
X0161192D01*
X0160582Y0469785D02*
Y0471005D01*
X0173259Y0544796D02*
X0174479D01*
X0173869Y0544186D02*
Y0545406D01*
X0482741Y0458566D02*
X0483961D01*
X0483351Y0457956D02*
Y0459176D01*
X0485976Y0455330D02*
X0487196D01*
X0486586Y0454720D02*
Y0455940D01*
X0489331Y0458566D02*
X0490551D01*
X0489941Y0457956D02*
Y0459176D01*
X0486095Y0461920D02*
X0487315D01*
X0486705Y0461310D02*
Y0462530D01*
X0499622Y0451458D02*
X0500422D01*
X0500022Y0451057D02*
Y0451858D01*
X0499578Y0456663D02*
X0500378D01*
X0499978Y0456263D02*
Y0457063D01*
X0476266Y0507400D02*
X0477486D01*
X0476876Y0506790D02*
Y0508010D01*
X0227766Y0504600D02*
X0228986D01*
X0228376Y0503990D02*
Y0505210D01*
X0576566Y0499469D02*
X0577786D01*
X0577176Y0498858D02*
Y0500078D01*
X0587681Y0447939D02*
X0588901D01*
X0588291Y0447329D02*
Y0448549D01*
X0371004Y0311206D02*
X0371804D01*
X0371404Y0310806D02*
Y0311606D01*
X0371004Y0307269D02*
X0371804D01*
X0371404Y0306869D02*
Y0307669D01*
X0371004Y0309238D02*
X0371804D01*
X0371404Y0308838D02*
Y0309638D01*
X0371004Y0305301D02*
X0371804D01*
X0371404Y0304901D02*
Y0305701D01*
X0369035Y0305301D02*
X0369835D01*
X0369435Y0304901D02*
Y0305701D01*
X0219415Y0216466D02*
X0220635D01*
X0220025Y0215856D02*
Y0217076D01*
X0313800Y0539364D02*
X0315020D01*
X0314410Y0538754D02*
Y0539974D01*
X0297262Y0552857D02*
X0298482D01*
X0297872Y0552247D02*
Y0553467D01*
X0235599Y0595731D02*
X0236819D01*
X0236209Y0595121D02*
Y0596341D01*
X0171835Y0482854D02*
X0173056D01*
X0172445Y0482244D02*
Y0483464D01*
X0406021Y0264000D02*
X0406821D01*
X0406421Y0263600D02*
Y0264400D01*
X0408711Y0264786D02*
X0409511D01*
X0409111Y0264386D02*
Y0265186D01*
X0411124Y0266678D02*
X0411924D01*
X0411524Y0266278D02*
Y0267078D01*
X0389107Y0287347D02*
X0389907D01*
X0389507Y0286947D02*
Y0287747D01*
X0247217Y0556199D02*
X0248437D01*
X0247827Y0555589D02*
Y0556809D01*
X0318098Y0630768D02*
X0319318D01*
X0318708Y0630158D02*
Y0631378D01*
X0250916Y0602792D02*
X0252136D01*
X0251526Y0602182D02*
Y0603402D01*
M02*
