G04*
G04 #@! TF.GenerationSoftware,Altium Limited,Altium Designer,19.1.6 (110)*
G04*
G04 Layer_Color=16711935*
%FSAX25Y25*%
%MOIN*%
G70*
G01*
G75*
%ADD16C,0.01000*%
%ADD18C,0.00800*%
%ADD27O,0.05512X0.01772*%
%ADD29C,0.03937*%
G04:AMPARAMS|DCode=32|XSize=87.8mil|YSize=70.87mil|CornerRadius=2.13mil|HoleSize=0mil|Usage=FLASHONLY|Rotation=90.000|XOffset=0mil|YOffset=0mil|HoleType=Round|Shape=RoundedRectangle|*
%AMROUNDEDRECTD32*
21,1,0.08780,0.06661,0,0,90.0*
21,1,0.08354,0.07087,0,0,90.0*
1,1,0.00425,0.03331,0.04177*
1,1,0.00425,0.03331,-0.04177*
1,1,0.00425,-0.03331,-0.04177*
1,1,0.00425,-0.03331,0.04177*
%
%ADD32ROUNDEDRECTD32*%
%ADD33R,0.06300X0.05000*%
%ADD35R,0.02362X0.03150*%
%ADD37R,0.01654X0.01811*%
%ADD38R,0.01500X0.02400*%
%ADD39R,0.03150X0.02362*%
%ADD40R,0.02400X0.01500*%
%ADD42R,0.01811X0.01654*%
%ADD43R,0.03500X0.02000*%
%ADD44R,0.02000X0.03500*%
%ADD45R,0.04331X0.05512*%
%ADD46R,0.05512X0.04331*%
%ADD47R,0.03740X0.03937*%
%ADD48C,0.07874*%
%ADD50C,0.12611*%
G04:AMPARAMS|DCode=51|XSize=106.3mil|YSize=106.3mil|CornerRadius=26.57mil|HoleSize=0mil|Usage=FLASHONLY|Rotation=90.000|XOffset=0mil|YOffset=0mil|HoleType=Round|Shape=RoundedRectangle|*
%AMROUNDEDRECTD51*
21,1,0.10630,0.05315,0,0,90.0*
21,1,0.05315,0.10630,0,0,90.0*
1,1,0.05315,0.02657,0.02657*
1,1,0.05315,0.02657,-0.02657*
1,1,0.05315,-0.02657,-0.02657*
1,1,0.05315,-0.02657,0.02657*
%
%ADD51ROUNDEDRECTD51*%
%ADD52C,0.10630*%
%ADD53C,0.08000*%
%ADD54C,0.05512*%
%ADD55C,0.06299*%
%ADD56C,0.20000*%
%ADD57C,0.15811*%
%ADD73C,0.01968*%
%ADD74C,0.01800*%
G04:AMPARAMS|DCode=82|XSize=133.86mil|YSize=157.48mil|CornerRadius=2.01mil|HoleSize=0mil|Usage=FLASHONLY|Rotation=270.000|XOffset=0mil|YOffset=0mil|HoleType=Round|Shape=RoundedRectangle|*
%AMROUNDEDRECTD82*
21,1,0.13386,0.15346,0,0,270.0*
21,1,0.12984,0.15748,0,0,270.0*
1,1,0.00402,-0.07673,-0.06492*
1,1,0.00402,-0.07673,0.06492*
1,1,0.00402,0.07673,0.06492*
1,1,0.00402,0.07673,-0.06492*
%
%ADD82ROUNDEDRECTD82*%
G04:AMPARAMS|DCode=83|XSize=31.5mil|YSize=15.75mil|CornerRadius=1.97mil|HoleSize=0mil|Usage=FLASHONLY|Rotation=270.000|XOffset=0mil|YOffset=0mil|HoleType=Round|Shape=RoundedRectangle|*
%AMROUNDEDRECTD83*
21,1,0.03150,0.01181,0,0,270.0*
21,1,0.02756,0.01575,0,0,270.0*
1,1,0.00394,-0.00591,-0.01378*
1,1,0.00394,-0.00591,0.01378*
1,1,0.00394,0.00591,0.01378*
1,1,0.00394,0.00591,-0.01378*
%
%ADD83ROUNDEDRECTD83*%
%ADD84R,0.14488X0.05000*%
%ADD85R,0.05000X0.14488*%
G04:AMPARAMS|DCode=86|XSize=9.84mil|YSize=71.65mil|CornerRadius=1.97mil|HoleSize=0mil|Usage=FLASHONLY|Rotation=180.000|XOffset=0mil|YOffset=0mil|HoleType=Round|Shape=RoundedRectangle|*
%AMROUNDEDRECTD86*
21,1,0.00984,0.06772,0,0,180.0*
21,1,0.00591,0.07165,0,0,180.0*
1,1,0.00394,-0.00295,0.03386*
1,1,0.00394,0.00295,0.03386*
1,1,0.00394,0.00295,-0.03386*
1,1,0.00394,-0.00295,-0.03386*
%
%ADD86ROUNDEDRECTD86*%
G04:AMPARAMS|DCode=87|XSize=88.19mil|YSize=25.98mil|CornerRadius=1.95mil|HoleSize=0mil|Usage=FLASHONLY|Rotation=180.000|XOffset=0mil|YOffset=0mil|HoleType=Round|Shape=RoundedRectangle|*
%AMROUNDEDRECTD87*
21,1,0.08819,0.02209,0,0,180.0*
21,1,0.08429,0.02598,0,0,180.0*
1,1,0.00390,-0.04215,0.01104*
1,1,0.00390,0.04215,0.01104*
1,1,0.00390,0.04215,-0.01104*
1,1,0.00390,-0.04215,-0.01104*
%
%ADD87ROUNDEDRECTD87*%
G04:AMPARAMS|DCode=88|XSize=23.62mil|YSize=15.75mil|CornerRadius=1.97mil|HoleSize=0mil|Usage=FLASHONLY|Rotation=0.000|XOffset=0mil|YOffset=0mil|HoleType=Round|Shape=RoundedRectangle|*
%AMROUNDEDRECTD88*
21,1,0.02362,0.01181,0,0,0.0*
21,1,0.01968,0.01575,0,0,0.0*
1,1,0.00394,0.00984,-0.00591*
1,1,0.00394,-0.00984,-0.00591*
1,1,0.00394,-0.00984,0.00591*
1,1,0.00394,0.00984,0.00591*
%
%ADD88ROUNDEDRECTD88*%
G04:AMPARAMS|DCode=89|XSize=23.62mil|YSize=9.84mil|CornerRadius=1.97mil|HoleSize=0mil|Usage=FLASHONLY|Rotation=0.000|XOffset=0mil|YOffset=0mil|HoleType=Round|Shape=RoundedRectangle|*
%AMROUNDEDRECTD89*
21,1,0.02362,0.00591,0,0,0.0*
21,1,0.01968,0.00984,0,0,0.0*
1,1,0.00394,0.00984,-0.00295*
1,1,0.00394,-0.00984,-0.00295*
1,1,0.00394,-0.00984,0.00295*
1,1,0.00394,0.00984,0.00295*
%
%ADD89ROUNDEDRECTD89*%
%ADD90R,0.04724X0.07874*%
G04:AMPARAMS|DCode=91|XSize=11.81mil|YSize=74.8mil|CornerRadius=1.95mil|HoleSize=0mil|Usage=FLASHONLY|Rotation=0.000|XOffset=0mil|YOffset=0mil|HoleType=Round|Shape=RoundedRectangle|*
%AMROUNDEDRECTD91*
21,1,0.01181,0.07091,0,0,0.0*
21,1,0.00791,0.07480,0,0,0.0*
1,1,0.00390,0.00396,-0.03545*
1,1,0.00390,-0.00396,-0.03545*
1,1,0.00390,-0.00396,0.03545*
1,1,0.00390,0.00396,0.03545*
%
%ADD91ROUNDEDRECTD91*%
G04:AMPARAMS|DCode=92|XSize=11.81mil|YSize=26.38mil|CornerRadius=1.95mil|HoleSize=0mil|Usage=FLASHONLY|Rotation=0.000|XOffset=0mil|YOffset=0mil|HoleType=Round|Shape=RoundedRectangle|*
%AMROUNDEDRECTD92*
21,1,0.01181,0.02248,0,0,0.0*
21,1,0.00791,0.02638,0,0,0.0*
1,1,0.00390,0.00396,-0.01124*
1,1,0.00390,-0.00396,-0.01124*
1,1,0.00390,-0.00396,0.01124*
1,1,0.00390,0.00396,0.01124*
%
%ADD92ROUNDEDRECTD92*%
G04:AMPARAMS|DCode=93|XSize=59.06mil|YSize=68.9mil|CornerRadius=2.07mil|HoleSize=0mil|Usage=FLASHONLY|Rotation=0.000|XOffset=0mil|YOffset=0mil|HoleType=Round|Shape=RoundedRectangle|*
%AMROUNDEDRECTD93*
21,1,0.05906,0.06476,0,0,0.0*
21,1,0.05492,0.06890,0,0,0.0*
1,1,0.00413,0.02746,-0.03238*
1,1,0.00413,-0.02746,-0.03238*
1,1,0.00413,-0.02746,0.03238*
1,1,0.00413,0.02746,0.03238*
%
%ADD93ROUNDEDRECTD93*%
G04:AMPARAMS|DCode=94|XSize=11.81mil|YSize=23.62mil|CornerRadius=1.95mil|HoleSize=0mil|Usage=FLASHONLY|Rotation=270.000|XOffset=0mil|YOffset=0mil|HoleType=Round|Shape=RoundedRectangle|*
%AMROUNDEDRECTD94*
21,1,0.01181,0.01972,0,0,270.0*
21,1,0.00791,0.02362,0,0,270.0*
1,1,0.00390,-0.00986,-0.00396*
1,1,0.00390,-0.00986,0.00396*
1,1,0.00390,0.00986,0.00396*
1,1,0.00390,0.00986,-0.00396*
%
%ADD94ROUNDEDRECTD94*%
%ADD95R,0.07874X0.03543*%
%ADD96C,0.02000*%
%ADD97R,0.05512X0.02362*%
%ADD98R,0.06890X0.04331*%
%ADD99R,0.03937X0.03740*%
%ADD100R,0.04331X0.06890*%
%ADD101R,0.05000X0.06300*%
G04:AMPARAMS|DCode=102|XSize=133.86mil|YSize=157.48mil|CornerRadius=2.01mil|HoleSize=0mil|Usage=FLASHONLY|Rotation=180.000|XOffset=0mil|YOffset=0mil|HoleType=Round|Shape=RoundedRectangle|*
%AMROUNDEDRECTD102*
21,1,0.13386,0.15346,0,0,180.0*
21,1,0.12984,0.15748,0,0,180.0*
1,1,0.00402,-0.06492,0.07673*
1,1,0.00402,0.06492,0.07673*
1,1,0.00402,0.06492,-0.07673*
1,1,0.00402,-0.06492,-0.07673*
%
%ADD102ROUNDEDRECTD102*%
G04:AMPARAMS|DCode=103|XSize=31.5mil|YSize=15.75mil|CornerRadius=1.97mil|HoleSize=0mil|Usage=FLASHONLY|Rotation=180.000|XOffset=0mil|YOffset=0mil|HoleType=Round|Shape=RoundedRectangle|*
%AMROUNDEDRECTD103*
21,1,0.03150,0.01181,0,0,180.0*
21,1,0.02756,0.01575,0,0,180.0*
1,1,0.00394,-0.01378,0.00591*
1,1,0.00394,0.01378,0.00591*
1,1,0.00394,0.01378,-0.00591*
1,1,0.00394,-0.01378,-0.00591*
%
%ADD103ROUNDEDRECTD103*%
%ADD104R,0.07874X0.04724*%
G36*
X0157607Y0362412D02*
X0157662Y0362356D01*
X0157692Y0362284D01*
Y0362245D01*
Y0359391D01*
Y0359351D01*
X0157662Y0359279D01*
X0157607Y0359224D01*
X0157534Y0359194D01*
X0156472D01*
X0156399Y0359224D01*
X0156344Y0359279D01*
X0156314Y0359351D01*
Y0359391D01*
Y0362245D01*
Y0362284D01*
X0156344Y0362356D01*
X0156399Y0362412D01*
X0156472Y0362442D01*
X0157534D01*
X0157607Y0362412D01*
D02*
G37*
G36*
X0145008D02*
X0145064Y0362356D01*
X0145094Y0362284D01*
Y0362245D01*
Y0359391D01*
Y0359351D01*
X0145064Y0359279D01*
X0145008Y0359224D01*
X0144936Y0359194D01*
X0143873D01*
X0143801Y0359224D01*
X0143746Y0359279D01*
X0143716Y0359351D01*
Y0359391D01*
Y0362245D01*
Y0362284D01*
X0143746Y0362356D01*
X0143801Y0362412D01*
X0143873Y0362442D01*
X0144936D01*
X0145008Y0362412D01*
D02*
G37*
G36*
X0157607Y0346369D02*
X0157662Y0346313D01*
X0157692Y0346241D01*
Y0346202D01*
Y0343347D01*
Y0343308D01*
X0157662Y0343236D01*
X0157607Y0343180D01*
X0157534Y0343150D01*
X0156472D01*
X0156399Y0343180D01*
X0156344Y0343236D01*
X0156314Y0343308D01*
Y0343347D01*
Y0346202D01*
Y0346241D01*
X0156344Y0346313D01*
X0156399Y0346369D01*
X0156472Y0346398D01*
X0157534D01*
X0157607Y0346369D01*
D02*
G37*
G36*
X0145008D02*
X0145064Y0346313D01*
X0145094Y0346241D01*
Y0346202D01*
Y0343347D01*
Y0343308D01*
X0145064Y0343236D01*
X0145008Y0343180D01*
X0144936Y0343150D01*
X0143873D01*
X0143801Y0343180D01*
X0143746Y0343236D01*
X0143716Y0343308D01*
Y0343347D01*
Y0346202D01*
Y0346241D01*
X0143746Y0346313D01*
X0143801Y0346369D01*
X0143873Y0346398D01*
X0144936D01*
X0145008Y0346369D01*
D02*
G37*
G36*
X0133893Y0253522D02*
X0135015D01*
Y0246632D01*
X0133893D01*
Y0244172D01*
X0132790D01*
Y0246632D01*
X0131334D01*
X0131334Y0244172D01*
X0130231D01*
X0130231Y0246632D01*
X0129109D01*
Y0253522D01*
X0130231D01*
X0130231Y0255983D01*
X0131334D01*
X0131334Y0253522D01*
X0132790D01*
Y0255983D01*
X0133893D01*
Y0253522D01*
D02*
G37*
G36*
X0556073Y0286381D02*
X0535600D01*
Y0292680D01*
X0538932D01*
X0538932Y0292715D01*
X0539400Y0291986D01*
X0540559Y0290702D01*
X0541969Y0289701D01*
X0543564Y0289030D01*
X0545265Y0288721D01*
X0546993Y0288789D01*
X0548666Y0289230D01*
X0550202Y0290024D01*
X0551530Y0291133D01*
X0552585Y0292503D01*
X0553317Y0294070D01*
X0553692Y0295759D01*
X0553691Y0297488D01*
X0553315Y0299176D01*
X0552582Y0300743D01*
X0551526Y0302112D01*
X0550197Y0303220D01*
X0548660Y0304013D01*
X0546987Y0304453D01*
X0545259Y0304519D01*
X0543558Y0304209D01*
X0541964Y0303537D01*
X0540555Y0302535D01*
X0539396Y0301251D01*
X0538929Y0300521D01*
X0538886Y0300554D01*
X0535600D01*
Y0306853D01*
X0556073D01*
Y0286381D01*
D02*
G37*
G36*
X0632081Y0283626D02*
X0632136Y0283571D01*
X0632166Y0283499D01*
Y0283459D01*
Y0280605D01*
Y0280566D01*
X0632136Y0280494D01*
X0632081Y0280438D01*
X0632008Y0280408D01*
X0630946D01*
X0630873Y0280438D01*
X0630818Y0280494D01*
X0630788Y0280566D01*
Y0280605D01*
Y0283459D01*
Y0283499D01*
X0630818Y0283571D01*
X0630873Y0283626D01*
X0630946Y0283656D01*
X0632008D01*
X0632081Y0283626D01*
D02*
G37*
G36*
Y0267583D02*
X0632136Y0267528D01*
X0632166Y0267455D01*
Y0267416D01*
Y0264562D01*
Y0264523D01*
X0632136Y0264450D01*
X0632081Y0264395D01*
X0632008Y0264365D01*
X0630946D01*
X0630873Y0264395D01*
X0630818Y0264450D01*
X0630788Y0264523D01*
Y0264562D01*
Y0267416D01*
Y0267455D01*
X0630818Y0267528D01*
X0630873Y0267583D01*
X0630946Y0267613D01*
X0632008D01*
X0632081Y0267583D01*
D02*
G37*
G36*
X0644679D02*
X0644734Y0267528D01*
X0644765Y0267455D01*
Y0267416D01*
Y0264562D01*
Y0264523D01*
X0644734Y0264450D01*
X0644679Y0264395D01*
X0644607Y0264365D01*
X0643544D01*
X0643472Y0264395D01*
X0643417Y0264450D01*
X0643387Y0264523D01*
Y0264562D01*
Y0267416D01*
Y0267455D01*
X0643417Y0267528D01*
X0643472Y0267583D01*
X0643544Y0267613D01*
X0644607D01*
X0644679Y0267583D01*
D02*
G37*
G36*
Y0283626D02*
X0644734Y0283571D01*
X0644765Y0283499D01*
Y0283459D01*
Y0280605D01*
Y0280566D01*
X0644734Y0280494D01*
X0644679Y0280438D01*
X0644607Y0280408D01*
X0643544D01*
X0643472Y0280438D01*
X0643417Y0280494D01*
X0643387Y0280566D01*
Y0280605D01*
Y0283459D01*
Y0283499D01*
X0643417Y0283571D01*
X0643472Y0283626D01*
X0643544Y0283656D01*
X0644607D01*
X0644679Y0283626D01*
D02*
G37*
G54D16*
X0569450Y0049400D02*
Y0069683D01*
X0450550Y0050050D02*
X0710250D01*
Y0111050D01*
X0296550Y0050050D02*
Y0111050D01*
X0050050Y0050050D02*
Y0111050D01*
X0050100Y0050050D02*
X0207650D01*
X0050100D02*
Y0111050D01*
Y0111050D02*
X0710250D01*
X0050050Y0050050D02*
X0450550D01*
X0050050Y0070383D02*
X0710050D01*
X0050050Y0090717D02*
X0710250D01*
X0423250D02*
Y0111050D01*
X0507250Y0090717D02*
Y0111050D01*
G54D18*
X0136950Y0083549D02*
Y0077551D01*
X0139949D01*
X0140949Y0078550D01*
Y0079550D01*
X0139949Y0080550D01*
X0136950D01*
X0139949D01*
X0140949Y0081549D01*
Y0082549D01*
X0139949Y0083549D01*
X0136950D01*
X0143948Y0077551D02*
X0145947D01*
X0146947Y0078550D01*
Y0080550D01*
X0145947Y0081549D01*
X0143948D01*
X0142948Y0080550D01*
Y0078550D01*
X0143948Y0077551D01*
X0149946Y0082549D02*
Y0081549D01*
X0148946D01*
X0150945D01*
X0149946D01*
Y0078550D01*
X0150945Y0077551D01*
X0154944Y0082549D02*
Y0081549D01*
X0153945D01*
X0155944D01*
X0154944D01*
Y0078550D01*
X0155944Y0077551D01*
X0159943D02*
X0161942D01*
X0162942Y0078550D01*
Y0080550D01*
X0161942Y0081549D01*
X0159943D01*
X0158943Y0080550D01*
Y0078550D01*
X0159943Y0077551D01*
X0164941D02*
Y0081549D01*
X0165941D01*
X0166940Y0080550D01*
Y0077551D01*
Y0080550D01*
X0167940Y0081549D01*
X0168940Y0080550D01*
Y0077551D01*
X0180936Y0082549D02*
X0179936Y0083549D01*
X0177937D01*
X0176937Y0082549D01*
Y0081549D01*
X0177937Y0080550D01*
X0179936D01*
X0180936Y0079550D01*
Y0078550D01*
X0179936Y0077551D01*
X0177937D01*
X0176937Y0078550D01*
X0183935Y0077551D02*
X0185934D01*
X0186934Y0078550D01*
Y0080550D01*
X0185934Y0081549D01*
X0183935D01*
X0182935Y0080550D01*
Y0078550D01*
X0183935Y0077551D01*
X0188933D02*
X0190933D01*
X0189933D01*
Y0083549D01*
X0188933D01*
X0197930D02*
Y0077551D01*
X0194931D01*
X0193932Y0078550D01*
Y0080550D01*
X0194931Y0081549D01*
X0197930D01*
X0202929Y0077551D02*
X0200929D01*
X0199930Y0078550D01*
Y0080550D01*
X0200929Y0081549D01*
X0202929D01*
X0203928Y0080550D01*
Y0079550D01*
X0199930D01*
X0205928Y0081549D02*
Y0077551D01*
Y0079550D01*
X0206927Y0080550D01*
X0207927Y0081549D01*
X0208927D01*
X0590550Y0062964D02*
X0594549D01*
X0592549D01*
Y0056966D01*
X0600547Y0062964D02*
X0596548D01*
Y0056966D01*
X0600547D01*
X0596548Y0059965D02*
X0598547D01*
X0602546Y0062964D02*
X0606545Y0056966D01*
Y0062964D02*
X0602546Y0056966D01*
X0608544D02*
Y0060965D01*
X0610543Y0062964D01*
X0612543Y0060965D01*
Y0056966D01*
Y0059965D01*
X0608544D01*
X0618541Y0061965D02*
X0617541Y0062964D01*
X0615542D01*
X0614542Y0061965D01*
Y0060965D01*
X0615542Y0059965D01*
X0617541D01*
X0618541Y0058966D01*
Y0057966D01*
X0617541Y0056966D01*
X0615542D01*
X0614542Y0057966D01*
X0626538Y0062964D02*
X0628538D01*
X0627538D01*
Y0056966D01*
X0626538D01*
X0628538D01*
X0631537D02*
Y0062964D01*
X0635535Y0056966D01*
Y0062964D01*
X0641534Y0061965D02*
X0640534Y0062964D01*
X0638534D01*
X0637535Y0061965D01*
Y0060965D01*
X0638534Y0059965D01*
X0640534D01*
X0641534Y0058966D01*
Y0057966D01*
X0640534Y0056966D01*
X0638534D01*
X0637535Y0057966D01*
X0643533Y0062964D02*
X0647532D01*
X0645532D01*
Y0056966D01*
X0649531D02*
Y0062964D01*
X0652530D01*
X0653530Y0061965D01*
Y0059965D01*
X0652530Y0058966D01*
X0649531D01*
X0651530D02*
X0653530Y0056966D01*
X0655529Y0062964D02*
Y0057966D01*
X0656529Y0056966D01*
X0658528D01*
X0659528Y0057966D01*
Y0062964D01*
X0661527Y0056966D02*
Y0062964D01*
X0663526Y0060965D01*
X0665526Y0062964D01*
Y0056966D01*
X0671524Y0062964D02*
X0667525D01*
Y0056966D01*
X0671524D01*
X0667525Y0059965D02*
X0669524D01*
X0673523Y0056966D02*
Y0062964D01*
X0677522Y0056966D01*
Y0062964D01*
X0679521D02*
X0683520D01*
X0681521D01*
Y0056966D01*
X0689518Y0061965D02*
X0688518Y0062964D01*
X0686519D01*
X0685519Y0061965D01*
Y0060965D01*
X0686519Y0059965D01*
X0688518D01*
X0689518Y0058966D01*
Y0057966D01*
X0688518Y0056966D01*
X0686519D01*
X0685519Y0057966D01*
X0468099Y0062964D02*
X0466099Y0061965D01*
X0464100Y0059965D01*
Y0057966D01*
X0465100Y0056966D01*
X0467099D01*
X0468099Y0057966D01*
Y0058966D01*
X0467099Y0059965D01*
X0464100D01*
X0470098Y0060965D02*
X0471098D01*
Y0059965D01*
X0470098D01*
Y0060965D01*
Y0057966D02*
X0471098D01*
Y0056966D01*
X0470098D01*
Y0057966D01*
X0475096Y0061965D02*
X0476096Y0062964D01*
X0478095D01*
X0479095Y0061965D01*
Y0057966D01*
X0478095Y0056966D01*
X0476096D01*
X0475096Y0057966D01*
Y0061965D01*
X0485093Y0062964D02*
X0483094Y0061965D01*
X0481095Y0059965D01*
Y0057966D01*
X0482094Y0056966D01*
X0484094D01*
X0485093Y0057966D01*
Y0058966D01*
X0484094Y0059965D01*
X0481095D01*
X0487093Y0060965D02*
X0488092D01*
Y0059965D01*
X0487093D01*
Y0060965D01*
Y0057966D02*
X0488092D01*
Y0056966D01*
X0487093D01*
Y0057966D01*
X0496090Y0056966D02*
X0492091D01*
X0496090Y0060965D01*
Y0061965D01*
X0495090Y0062964D01*
X0493091D01*
X0492091Y0061965D01*
X0498089D02*
X0499089Y0062964D01*
X0501088D01*
X0502088Y0061965D01*
Y0060965D01*
X0501088Y0059965D01*
X0502088Y0058966D01*
Y0057966D01*
X0501088Y0056966D01*
X0499089D01*
X0498089Y0057966D01*
Y0058966D01*
X0499089Y0059965D01*
X0498089Y0060965D01*
Y0061965D01*
X0499089Y0059965D02*
X0501088D01*
X0510085Y0056966D02*
Y0062964D01*
X0513084D01*
X0514084Y0061965D01*
Y0059965D01*
X0513084Y0058966D01*
X0510085D01*
X0516083Y0056966D02*
Y0062964D01*
X0518083Y0060965D01*
X0520082Y0062964D01*
Y0056966D01*
X0056400Y0083549D02*
Y0077551D01*
X0060399D01*
X0062398D02*
Y0081549D01*
X0064397Y0083549D01*
X0066397Y0081549D01*
Y0077551D01*
Y0080550D01*
X0062398D01*
X0068396Y0083549D02*
Y0082549D01*
X0070395Y0080550D01*
X0072395Y0082549D01*
Y0083549D01*
X0070395Y0080550D02*
Y0077551D01*
X0078393Y0083549D02*
X0074394D01*
Y0077551D01*
X0078393D01*
X0074394Y0080550D02*
X0076394D01*
X0080392Y0077551D02*
Y0083549D01*
X0083391D01*
X0084391Y0082549D01*
Y0080550D01*
X0083391Y0079550D01*
X0080392D01*
X0082392D02*
X0084391Y0077551D01*
X0092388D02*
Y0083549D01*
X0096387Y0077551D01*
Y0083549D01*
X0098386Y0077551D02*
Y0081549D01*
X0100386Y0083549D01*
X0102385Y0081549D01*
Y0077551D01*
Y0080550D01*
X0098386D01*
X0104385Y0077551D02*
Y0083549D01*
X0106384Y0081549D01*
X0108383Y0083549D01*
Y0077551D01*
X0114381Y0083549D02*
X0110382D01*
Y0077551D01*
X0114381D01*
X0110382Y0080550D02*
X0112382D01*
X0122379Y0079550D02*
X0126377D01*
X0122379Y0081549D02*
X0126377D01*
X0304050Y0103831D02*
Y0097833D01*
X0307049D01*
X0308049Y0098833D01*
Y0099833D01*
X0307049Y0100832D01*
X0304050D01*
X0307049D01*
X0308049Y0101832D01*
Y0102832D01*
X0307049Y0103831D01*
X0304050D01*
X0313047D02*
X0311048D01*
X0310048Y0102832D01*
Y0098833D01*
X0311048Y0097833D01*
X0313047D01*
X0314047Y0098833D01*
Y0102832D01*
X0313047Y0103831D01*
X0316046Y0097833D02*
Y0101832D01*
X0318045Y0103831D01*
X0320045Y0101832D01*
Y0097833D01*
Y0100832D01*
X0316046D01*
X0322044Y0097833D02*
Y0103831D01*
X0325043D01*
X0326043Y0102832D01*
Y0100832D01*
X0325043Y0099833D01*
X0322044D01*
X0324043D02*
X0326043Y0097833D01*
X0328042Y0103831D02*
Y0097833D01*
X0331041D01*
X0332041Y0098833D01*
Y0102832D01*
X0331041Y0103831D01*
X0328042D01*
X0341038Y0097833D02*
Y0103831D01*
X0343037D02*
Y0097833D01*
X0340038Y0101832D02*
X0343037D01*
X0344037D01*
X0340038Y0099833D02*
X0344037D01*
X0346036Y0101832D02*
X0347036D01*
Y0100832D01*
X0346036D01*
Y0101832D01*
Y0098833D02*
X0347036D01*
Y0097833D01*
X0346036D01*
Y0098833D01*
X0358600Y0097833D02*
Y0103831D01*
X0361599D01*
X0362599Y0102832D01*
Y0100832D01*
X0361599Y0099833D01*
X0358600D01*
X0364598Y0097833D02*
Y0103831D01*
X0367597D01*
X0368597Y0102832D01*
Y0100832D01*
X0367597Y0099833D01*
X0364598D01*
X0366597D02*
X0368597Y0097833D01*
X0373595Y0103831D02*
X0371596D01*
X0370596Y0102832D01*
Y0098833D01*
X0371596Y0097833D01*
X0373595D01*
X0374595Y0098833D01*
Y0102832D01*
X0373595Y0103831D01*
X0380593Y0102832D02*
X0379593Y0103831D01*
X0377594D01*
X0376594Y0102832D01*
Y0098833D01*
X0377594Y0097833D01*
X0379593D01*
X0380593Y0098833D01*
X0382592Y0102832D02*
X0383592Y0103831D01*
X0385591D01*
X0386591Y0102832D01*
Y0098833D01*
X0385591Y0097833D01*
X0383592D01*
X0382592Y0098833D01*
Y0102832D01*
X0392589Y0103831D02*
X0388590D01*
Y0100832D01*
X0390590Y0101832D01*
X0391589D01*
X0392589Y0100832D01*
Y0098833D01*
X0391589Y0097833D01*
X0389590D01*
X0388590Y0098833D01*
X0397587Y0097833D02*
Y0103831D01*
X0394588Y0100832D01*
X0398587D01*
X0472200Y0103831D02*
Y0097833D01*
X0475199D01*
X0476199Y0098833D01*
Y0102832D01*
X0475199Y0103831D01*
X0472200D01*
X0056400Y0097833D02*
Y0101832D01*
X0058399Y0103831D01*
X0060399Y0101832D01*
Y0097833D01*
Y0100832D01*
X0056400D01*
X0062398Y0103831D02*
Y0097833D01*
X0066397D01*
X0068396Y0103831D02*
Y0097833D01*
X0072395D01*
X0080392D02*
Y0101832D01*
X0082392Y0103831D01*
X0084391Y0101832D01*
Y0097833D01*
Y0100832D01*
X0080392D01*
X0086390Y0097833D02*
Y0103831D01*
X0089389D01*
X0090389Y0102832D01*
Y0100832D01*
X0089389Y0099833D01*
X0086390D01*
X0088390D02*
X0090389Y0097833D01*
X0092388Y0103831D02*
X0096387D01*
X0094388D01*
Y0097833D01*
X0098386Y0103831D02*
Y0097833D01*
X0100386Y0099833D01*
X0102385Y0097833D01*
Y0103831D01*
X0107384D02*
X0105384D01*
X0104385Y0102832D01*
Y0098833D01*
X0105384Y0097833D01*
X0107384D01*
X0108383Y0098833D01*
Y0102832D01*
X0107384Y0103831D01*
X0110382Y0097833D02*
Y0103831D01*
X0113382D01*
X0114381Y0102832D01*
Y0100832D01*
X0113382Y0099833D01*
X0110382D01*
X0112382D02*
X0114381Y0097833D01*
X0116381Y0103831D02*
Y0097833D01*
Y0099833D01*
X0120379Y0103831D01*
X0117380Y0100832D01*
X0120379Y0097833D01*
X0128377Y0103831D02*
Y0099833D01*
X0130376Y0097833D01*
X0132375Y0099833D01*
Y0103831D01*
X0134375D02*
X0136374D01*
X0135374D01*
Y0097833D01*
X0134375D01*
X0136374D01*
X0143372Y0103831D02*
X0139373D01*
Y0097833D01*
X0143372D01*
X0139373Y0100832D02*
X0141373D01*
X0145371Y0103831D02*
Y0097833D01*
X0147371Y0099833D01*
X0149370Y0097833D01*
Y0103831D01*
X0155368D02*
X0151369D01*
Y0097833D01*
X0155368D01*
X0151369Y0100832D02*
X0153369D01*
X0157367Y0103831D02*
Y0097833D01*
X0160366D01*
X0161366Y0098833D01*
Y0102832D01*
X0160366Y0103831D01*
X0157367D01*
X0173362D02*
X0169363D01*
Y0100832D01*
X0171363D01*
X0169363D01*
Y0097833D01*
X0175362D02*
Y0103831D01*
X0178360D01*
X0179360Y0102832D01*
Y0100832D01*
X0178360Y0099833D01*
X0175362D01*
X0177361D02*
X0179360Y0097833D01*
X0184359Y0103831D02*
X0182359D01*
X0181360Y0102832D01*
Y0098833D01*
X0182359Y0097833D01*
X0184359D01*
X0185358Y0098833D01*
Y0102832D01*
X0184359Y0103831D01*
X0187358Y0097833D02*
Y0103831D01*
X0189357Y0101832D01*
X0191356Y0103831D01*
Y0097833D01*
X0199354Y0103831D02*
X0203352D01*
X0201353D01*
Y0097833D01*
X0208351Y0103831D02*
X0206351D01*
X0205352Y0102832D01*
Y0098833D01*
X0206351Y0097833D01*
X0208351D01*
X0209350Y0098833D01*
Y0102832D01*
X0208351Y0103831D01*
X0211350Y0097833D02*
Y0103831D01*
X0214349D01*
X0215349Y0102832D01*
Y0100832D01*
X0214349Y0099833D01*
X0211350D01*
X0227345Y0102832D02*
X0226345Y0103831D01*
X0224346D01*
X0223346Y0102832D01*
Y0101832D01*
X0224346Y0100832D01*
X0226345D01*
X0227345Y0099833D01*
Y0098833D01*
X0226345Y0097833D01*
X0224346D01*
X0223346Y0098833D01*
X0229344Y0103831D02*
X0231343D01*
X0230344D01*
Y0097833D01*
X0229344D01*
X0231343D01*
X0234342Y0103831D02*
Y0097833D01*
X0237341D01*
X0238341Y0098833D01*
Y0102832D01*
X0237341Y0103831D01*
X0234342D01*
X0244339D02*
X0240340D01*
Y0097833D01*
X0244339D01*
X0240340Y0100832D02*
X0242340D01*
X0308249Y0061965D02*
X0307249Y0062964D01*
X0305250D01*
X0304250Y0061965D01*
Y0057966D01*
X0305250Y0056966D01*
X0307249D01*
X0308249Y0057966D01*
Y0059965D01*
X0306249D01*
X0314247Y0062964D02*
X0310248D01*
Y0056966D01*
X0314247D01*
X0310248Y0059965D02*
X0312247D01*
X0316246Y0056966D02*
Y0062964D01*
X0320245Y0056966D01*
Y0062964D01*
X0326243D02*
X0322244D01*
Y0056966D01*
X0326243D01*
X0322244Y0059965D02*
X0324243D01*
X0328242Y0056966D02*
Y0062964D01*
X0331241D01*
X0332241Y0061965D01*
Y0059965D01*
X0331241Y0058966D01*
X0328242D01*
X0330242D02*
X0332241Y0056966D01*
X0334240D02*
Y0060965D01*
X0336240Y0062964D01*
X0338239Y0060965D01*
Y0056966D01*
Y0059965D01*
X0334240D01*
X0340238Y0062964D02*
X0344237D01*
X0342238D01*
Y0056966D01*
X0350235Y0062964D02*
X0346236D01*
Y0056966D01*
X0350235D01*
X0346236Y0059965D02*
X0348236D01*
X0352235Y0062964D02*
Y0056966D01*
X0355234D01*
X0356233Y0057966D01*
Y0061965D01*
X0355234Y0062964D01*
X0352235D01*
X0382225Y0060965D02*
X0383225D01*
Y0059965D01*
X0382225D01*
Y0060965D01*
Y0057966D02*
X0383225D01*
Y0056966D01*
X0382225D01*
Y0057966D01*
X0395199Y0056966D02*
X0391200D01*
X0395199Y0060965D01*
Y0061965D01*
X0394199Y0062964D01*
X0392200D01*
X0391200Y0061965D01*
X0397198Y0056966D02*
X0401197Y0060965D01*
X0403196Y0056966D02*
X0405196D01*
X0404196D01*
Y0062964D01*
X0403196Y0061965D01*
X0408194D02*
X0409194Y0062964D01*
X0411194D01*
X0412193Y0061965D01*
Y0057966D01*
X0411194Y0056966D01*
X0409194D01*
X0408194Y0057966D01*
Y0061965D01*
X0414193Y0056966D02*
X0418191Y0060965D01*
X0424189Y0056966D02*
X0420191D01*
X0424189Y0060965D01*
Y0061965D01*
X0423190Y0062964D01*
X0421190D01*
X0420191Y0061965D01*
X0426189D02*
X0427188Y0062964D01*
X0429188D01*
X0430187Y0061965D01*
Y0057966D01*
X0429188Y0056966D01*
X0427188D01*
X0426189Y0057966D01*
Y0061965D01*
X0436186Y0056966D02*
X0432187D01*
X0436186Y0060965D01*
Y0061965D01*
X0435186Y0062964D01*
X0433186D01*
X0432187Y0061965D01*
X0438185D02*
X0439185Y0062964D01*
X0441184D01*
X0442183Y0061965D01*
Y0057966D01*
X0441184Y0056966D01*
X0439185D01*
X0438185Y0057966D01*
Y0061965D01*
X0443050Y0097833D02*
Y0103831D01*
X0446049D01*
X0447049Y0102832D01*
Y0100832D01*
X0446049Y0099833D01*
X0443050D01*
X0445049D02*
X0447049Y0097833D01*
X0453047Y0103831D02*
X0449048D01*
Y0097833D01*
X0453047D01*
X0449048Y0100832D02*
X0451047D01*
X0455046Y0103831D02*
Y0099833D01*
X0457046Y0097833D01*
X0459045Y0099833D01*
Y0103831D01*
X0461044Y0101832D02*
X0462044D01*
Y0100832D01*
X0461044D01*
Y0101832D01*
Y0098833D02*
X0462044D01*
Y0097833D01*
X0461044D01*
Y0098833D01*
X0530849Y0102832D02*
X0529849Y0103831D01*
X0527850D01*
X0526850Y0102832D01*
Y0101832D01*
X0527850Y0100832D01*
X0529849D01*
X0530849Y0099833D01*
Y0098833D01*
X0529849Y0097833D01*
X0527850D01*
X0526850Y0098833D01*
X0532848Y0103831D02*
Y0099833D01*
X0534847Y0097833D01*
X0536847Y0099833D01*
Y0103831D01*
X0538846Y0097833D02*
Y0103831D01*
X0542845Y0097833D01*
Y0103831D01*
X0550842Y0097833D02*
Y0103831D01*
X0553841D01*
X0554841Y0102832D01*
Y0100832D01*
X0553841Y0099833D01*
X0550842D01*
X0552842D02*
X0554841Y0097833D01*
X0560839Y0103831D02*
X0556840D01*
Y0097833D01*
X0560839D01*
X0556840Y0100832D02*
X0558840D01*
X0562838Y0103831D02*
Y0099833D01*
X0564838Y0097833D01*
X0566837Y0099833D01*
Y0103831D01*
X0568836Y0101832D02*
X0569836D01*
Y0100832D01*
X0568836D01*
Y0101832D01*
Y0098833D02*
X0569836D01*
Y0097833D01*
X0568836D01*
Y0098833D01*
X0577450Y0097833D02*
X0579449D01*
X0578450D01*
Y0103831D01*
X0577450Y0102832D01*
X0586447Y0103831D02*
Y0097833D01*
X0583448D01*
X0582448Y0098833D01*
Y0100832D01*
X0583448Y0101832D01*
X0586447D01*
X0589446Y0097833D02*
Y0102832D01*
Y0100832D01*
X0588446D01*
X0590446D01*
X0589446D01*
Y0102832D01*
X0590446Y0103831D01*
X0593445Y0102832D02*
X0594445Y0103831D01*
X0596444D01*
X0597443Y0102832D01*
Y0101832D01*
X0596444Y0100832D01*
X0595444D01*
X0596444D01*
X0597443Y0099833D01*
Y0098833D01*
X0596444Y0097833D01*
X0594445D01*
X0593445Y0098833D01*
X0603442Y0097833D02*
X0599443D01*
X0603442Y0101832D01*
Y0102832D01*
X0602442Y0103831D01*
X0600443D01*
X0599443Y0102832D01*
X0606441Y0101832D02*
X0608440D01*
X0609440Y0100832D01*
Y0097833D01*
X0606441D01*
X0605441Y0098833D01*
X0606441Y0099833D01*
X0609440D01*
X0615438Y0097833D02*
X0611439D01*
X0615438Y0101832D01*
Y0102832D01*
X0614438Y0103831D01*
X0612439D01*
X0611439Y0102832D01*
X0617437Y0098833D02*
X0618437Y0097833D01*
X0620436D01*
X0621436Y0098833D01*
Y0102832D01*
X0620436Y0103831D01*
X0618437D01*
X0617437Y0102832D01*
Y0101832D01*
X0618437Y0100832D01*
X0621436D01*
X0626434Y0097833D02*
X0624435D01*
X0623435Y0098833D01*
Y0100832D01*
X0624435Y0101832D01*
X0626434D01*
X0627434Y0100832D01*
Y0099833D01*
X0623435D01*
X0629433Y0103831D02*
X0633432D01*
Y0102832D01*
X0629433Y0098833D01*
Y0097833D01*
X0639430Y0101832D02*
X0636431D01*
X0635431Y0100832D01*
Y0098833D01*
X0636431Y0097833D01*
X0639430D01*
X0645428Y0101832D02*
X0642429D01*
X0641429Y0100832D01*
Y0098833D01*
X0642429Y0097833D01*
X0645428D01*
X0647427Y0103831D02*
X0651426D01*
Y0102832D01*
X0647427Y0098833D01*
Y0097833D01*
X0654425D02*
Y0102832D01*
Y0100832D01*
X0653425D01*
X0655425D01*
X0654425D01*
Y0102832D01*
X0655425Y0103831D01*
X0659423Y0101832D02*
X0661423D01*
X0662423Y0100832D01*
Y0097833D01*
X0659423D01*
X0658424Y0098833D01*
X0659423Y0099833D01*
X0662423D01*
X0668421Y0097833D02*
X0664422D01*
X0668421Y0101832D01*
Y0102832D01*
X0667421Y0103831D01*
X0665421D01*
X0664422Y0102832D01*
X0671420Y0097833D02*
Y0102832D01*
Y0100832D01*
X0670420D01*
X0672419D01*
X0671420D01*
Y0102832D01*
X0672419Y0103831D01*
X0679417D02*
Y0097833D01*
X0676418D01*
X0675418Y0098833D01*
Y0100832D01*
X0676418Y0101832D01*
X0679417D01*
X0684415Y0097833D02*
X0682416D01*
X0681416Y0098833D01*
Y0100832D01*
X0682416Y0101832D01*
X0684415D01*
X0685415Y0100832D01*
Y0099833D01*
X0681416D01*
X0691413Y0103831D02*
X0689414Y0102832D01*
X0687414Y0100832D01*
Y0098833D01*
X0688414Y0097833D01*
X0690414D01*
X0691413Y0098833D01*
Y0099833D01*
X0690414Y0100832D01*
X0687414D01*
X0693412Y0098833D02*
X0694412Y0097833D01*
X0696412D01*
X0697411Y0098833D01*
Y0102832D01*
X0696412Y0103831D01*
X0694412D01*
X0693412Y0102832D01*
Y0101832D01*
X0694412Y0100832D01*
X0697411D01*
X0703409Y0097833D02*
X0699410D01*
X0703409Y0101832D01*
Y0102832D01*
X0702410Y0103831D01*
X0700410D01*
X0699410Y0102832D01*
X0705409D02*
X0706408Y0103831D01*
X0708408D01*
X0709407Y0102832D01*
Y0101832D01*
X0708408Y0100832D01*
X0709407Y0099833D01*
Y0098833D01*
X0708408Y0097833D01*
X0706408D01*
X0705409Y0098833D01*
Y0099833D01*
X0706408Y0100832D01*
X0705409Y0101832D01*
Y0102832D01*
X0706408Y0100832D02*
X0708408D01*
X0711407Y0097833D02*
X0713406D01*
X0712406D01*
Y0103831D01*
X0711407Y0102832D01*
X0717405Y0097833D02*
Y0102832D01*
Y0100832D01*
X0716405D01*
X0718404D01*
X0717405D01*
Y0102832D01*
X0718404Y0103831D01*
X0725402D02*
Y0097833D01*
X0722403D01*
X0721403Y0098833D01*
Y0100832D01*
X0722403Y0101832D01*
X0725402D01*
X0731400Y0097833D02*
X0727401D01*
X0731400Y0101832D01*
Y0102832D01*
X0730401Y0103831D01*
X0728401D01*
X0727401Y0102832D01*
X0733399Y0097833D02*
X0735399D01*
X0734399D01*
Y0103831D01*
X0733399Y0102832D01*
X0738398Y0103831D02*
Y0097833D01*
X0741397D01*
X0742397Y0098833D01*
Y0099833D01*
Y0100832D01*
X0741397Y0101832D01*
X0738398D01*
X0748395Y0103831D02*
Y0097833D01*
X0745396D01*
X0744396Y0098833D01*
Y0100832D01*
X0745396Y0101832D01*
X0748395D01*
X0753393Y0097833D02*
Y0103831D01*
X0750394Y0100832D01*
X0754393D01*
X0756392Y0097833D02*
X0758391D01*
X0757392D01*
Y0103831D01*
X0756392Y0102832D01*
X0761390Y0103831D02*
Y0097833D01*
X0764390D01*
X0765389Y0098833D01*
Y0099833D01*
Y0100832D01*
X0764390Y0101832D01*
X0761390D01*
X0771387Y0103831D02*
X0769388Y0102832D01*
X0767388Y0100832D01*
Y0098833D01*
X0768388Y0097833D01*
X0770388D01*
X0771387Y0098833D01*
Y0099833D01*
X0770388Y0100832D01*
X0767388D01*
X0773387Y0103831D02*
X0777385D01*
Y0102832D01*
X0773387Y0098833D01*
Y0097833D01*
X0782384D02*
X0780384D01*
X0779385Y0098833D01*
Y0100832D01*
X0780384Y0101832D01*
X0782384D01*
X0783383Y0100832D01*
Y0099833D01*
X0779385D01*
X0785383Y0102832D02*
X0786382Y0103831D01*
X0788382D01*
X0789381Y0102832D01*
Y0101832D01*
X0788382Y0100832D01*
X0787382D01*
X0788382D01*
X0789381Y0099833D01*
Y0098833D01*
X0788382Y0097833D01*
X0786382D01*
X0785383Y0098833D01*
X0791381Y0103831D02*
X0795379D01*
Y0102832D01*
X0791381Y0098833D01*
Y0097833D01*
X0800378D02*
X0798379D01*
X0797379Y0098833D01*
Y0100832D01*
X0798379Y0101832D01*
X0800378D01*
X0801377Y0100832D01*
Y0099833D01*
X0797379D01*
X0804377Y0101832D02*
X0806376D01*
X0807376Y0100832D01*
Y0097833D01*
X0804377D01*
X0803377Y0098833D01*
X0804377Y0099833D01*
X0807376D01*
X0817372Y0097833D02*
X0815373D01*
Y0103831D01*
X0817372D01*
X0820371D02*
Y0097833D01*
X0824370D01*
X0827369D02*
X0829368D01*
X0830368Y0098833D01*
Y0100832D01*
X0829368Y0101832D01*
X0827369D01*
X0826369Y0100832D01*
Y0098833D01*
X0827369Y0097833D01*
X0836366Y0101832D02*
X0833367D01*
X0832368Y0100832D01*
Y0098833D01*
X0833367Y0097833D01*
X0836366D01*
X0839365Y0101832D02*
X0841365D01*
X0842364Y0100832D01*
Y0097833D01*
X0839365D01*
X0838366Y0098833D01*
X0839365Y0099833D01*
X0842364D01*
X0844364Y0097833D02*
X0846363D01*
X0845363D01*
Y0103831D01*
X0844364D01*
X0849362Y0097833D02*
X0851361D01*
X0850362D01*
Y0103831D01*
X0849362D01*
X0854360Y0101832D02*
Y0098833D01*
X0855360Y0097833D01*
X0858359D01*
Y0096834D01*
X0857359Y0095834D01*
X0856360D01*
X0858359Y0097833D02*
Y0101832D01*
X0866356Y0097833D02*
Y0103831D01*
X0868356Y0101832D01*
X0870355Y0103831D01*
Y0097833D01*
X0873354D02*
X0875354D01*
X0876353Y0098833D01*
Y0100832D01*
X0875354Y0101832D01*
X0873354D01*
X0872355Y0100832D01*
Y0098833D01*
X0873354Y0097833D01*
X0882351Y0103831D02*
Y0097833D01*
X0879352D01*
X0878353Y0098833D01*
Y0100832D01*
X0879352Y0101832D01*
X0882351D01*
X0884351Y0097833D02*
X0886350D01*
X0885350D01*
Y0101832D01*
X0884351D01*
X0890349Y0097833D02*
Y0102832D01*
Y0100832D01*
X0889349D01*
X0891348D01*
X0890349D01*
Y0102832D01*
X0891348Y0103831D01*
X0894347Y0097833D02*
X0896347D01*
X0895347D01*
Y0101832D01*
X0894347D01*
X0902345Y0097833D02*
X0900346D01*
X0899346Y0098833D01*
Y0100832D01*
X0900346Y0101832D01*
X0902345D01*
X0903345Y0100832D01*
Y0099833D01*
X0899346D01*
X0909343Y0103831D02*
Y0097833D01*
X0906344D01*
X0905344Y0098833D01*
Y0100832D01*
X0906344Y0101832D01*
X0909343D01*
X0911342Y0097833D02*
X0913341D01*
Y0103831D01*
X0911342D01*
G54D27*
X0283240Y0546682D02*
D03*
Y0549241D02*
D03*
Y0551800D02*
D03*
Y0554359D02*
D03*
Y0556918D02*
D03*
Y0559478D02*
D03*
Y0562037D02*
D03*
Y0564596D02*
D03*
X0306468Y0546682D02*
D03*
Y0549241D02*
D03*
Y0551800D02*
D03*
Y0554359D02*
D03*
Y0556918D02*
D03*
Y0559478D02*
D03*
Y0562037D02*
D03*
Y0564596D02*
D03*
G54D29*
X0121693Y0356008D02*
D03*
X0180928Y0338320D02*
D03*
Y0344822D02*
D03*
Y0351323D02*
D03*
X0404150Y0224219D02*
D03*
X0263290Y0568429D02*
D03*
X0467750Y0224694D02*
D03*
X0431811Y0637681D02*
D03*
X0369595Y0634244D02*
D03*
X0180928Y0357825D02*
D03*
X0461650Y0224694D02*
D03*
X0439290Y0639414D02*
D03*
X0378350Y0639371D02*
D03*
X0416923Y0227143D02*
D03*
X0474976Y0240817D02*
D03*
X0419636Y0626814D02*
D03*
X0364038Y0631368D02*
D03*
X0608766Y0283647D02*
D03*
X0668001Y0279040D02*
D03*
Y0259534D02*
D03*
X0608766Y0264374D02*
D03*
X0668001Y0272538D02*
D03*
Y0266036D02*
D03*
X0608766Y0270798D02*
D03*
Y0277223D02*
D03*
X0356853Y0288091D02*
D03*
X0358079Y0631368D02*
D03*
X0377785Y0579061D02*
D03*
X0404911Y0288170D02*
D03*
X0434929Y0578195D02*
D03*
X0463250Y0285973D02*
D03*
X0121693Y0343160D02*
D03*
Y0349584D02*
D03*
Y0362432D02*
D03*
G54D32*
X0488756Y0232682D02*
D03*
X0500252D02*
D03*
X0346929D02*
D03*
X0335432D02*
D03*
X0345307Y0634718D02*
D03*
X0333811D02*
D03*
X0507572Y0628520D02*
D03*
X0519068D02*
D03*
G54D33*
X0293251Y0380595D02*
D03*
Y0372595D02*
D03*
X0414151Y0515629D02*
D03*
Y0523629D02*
D03*
X0511376Y0380232D02*
D03*
Y0372232D02*
D03*
X0133847Y0433747D02*
D03*
Y0441747D02*
D03*
X0328296Y0543470D02*
D03*
Y0551470D02*
D03*
G54D35*
X0450241Y0514234D02*
D03*
Y0518958D02*
D03*
X0382650Y0626397D02*
D03*
Y0631121D02*
D03*
X0383271Y0233590D02*
D03*
Y0238314D02*
D03*
X0379171Y0233590D02*
D03*
Y0238314D02*
D03*
X0426950Y0626100D02*
D03*
Y0630824D02*
D03*
X0407250Y0626397D02*
D03*
Y0631121D02*
D03*
X0458550Y0237542D02*
D03*
Y0232818D02*
D03*
X0438050Y0237542D02*
D03*
Y0232818D02*
D03*
X0458850Y0633525D02*
D03*
Y0628800D02*
D03*
X0462950Y0633525D02*
D03*
Y0628800D02*
D03*
X0429850Y0232818D02*
D03*
Y0237542D02*
D03*
X0433950Y0232818D02*
D03*
Y0237542D02*
D03*
X0399050Y0237542D02*
D03*
Y0232818D02*
D03*
X0412350Y0237542D02*
D03*
Y0232818D02*
D03*
X0467050Y0628800D02*
D03*
Y0633525D02*
D03*
X0375071Y0238314D02*
D03*
Y0233590D02*
D03*
X0403150Y0626397D02*
D03*
Y0631121D02*
D03*
X0438350Y0623742D02*
D03*
Y0628467D02*
D03*
X0442150Y0237542D02*
D03*
Y0232818D02*
D03*
X0471150Y0633525D02*
D03*
Y0628800D02*
D03*
X0425750Y0232818D02*
D03*
Y0237542D02*
D03*
X0475250Y0628800D02*
D03*
Y0633525D02*
D03*
X0421650Y0237542D02*
D03*
Y0232818D02*
D03*
X0228376Y0513945D02*
D03*
Y0509220D02*
D03*
X0237803Y0438060D02*
D03*
Y0442784D02*
D03*
X0491650Y0633525D02*
D03*
Y0628800D02*
D03*
X0446250Y0232818D02*
D03*
Y0237542D02*
D03*
X0362771Y0233590D02*
D03*
Y0238314D02*
D03*
X0399050Y0631121D02*
D03*
Y0626397D02*
D03*
X0483450Y0633525D02*
D03*
Y0628800D02*
D03*
X0487550Y0633525D02*
D03*
Y0628800D02*
D03*
X0394950Y0631121D02*
D03*
Y0626397D02*
D03*
X0390850Y0631121D02*
D03*
Y0626397D02*
D03*
X0366871Y0233590D02*
D03*
Y0238314D02*
D03*
X0370971Y0233590D02*
D03*
Y0238314D02*
D03*
X0454450Y0232818D02*
D03*
Y0237542D02*
D03*
X0450350Y0232818D02*
D03*
Y0237542D02*
D03*
X0425234Y0471133D02*
D03*
Y0466409D02*
D03*
X0276527Y0550612D02*
D03*
Y0545888D02*
D03*
X0314448Y0547723D02*
D03*
Y0552447D02*
D03*
Y0560442D02*
D03*
Y0565167D02*
D03*
X0506196Y0490358D02*
D03*
Y0495083D02*
D03*
X0510296Y0490358D02*
D03*
Y0495083D02*
D03*
X0302966Y0541070D02*
D03*
Y0536346D02*
D03*
X0307898Y0541070D02*
D03*
Y0536346D02*
D03*
X0300518Y0569941D02*
D03*
Y0574665D02*
D03*
X0298035Y0541070D02*
D03*
Y0536346D02*
D03*
X0442450Y0631234D02*
D03*
Y0626510D02*
D03*
X0446550Y0631234D02*
D03*
Y0626510D02*
D03*
X0408250Y0232818D02*
D03*
Y0237542D02*
D03*
X0404150Y0232818D02*
D03*
Y0237542D02*
D03*
X0390950Y0237542D02*
D03*
Y0232818D02*
D03*
X0466750Y0232818D02*
D03*
Y0237542D02*
D03*
X0462650Y0232818D02*
D03*
Y0237542D02*
D03*
X0433750Y0628467D02*
D03*
Y0623742D02*
D03*
X0374250Y0631121D02*
D03*
Y0626397D02*
D03*
X0378350Y0631121D02*
D03*
Y0626397D02*
D03*
X0450650Y0631225D02*
D03*
Y0626500D02*
D03*
X0479350Y0633525D02*
D03*
Y0628800D02*
D03*
X0502097Y0495083D02*
D03*
Y0490358D02*
D03*
X0514396Y0495083D02*
D03*
Y0490358D02*
D03*
X0122121Y0250287D02*
D03*
Y0255011D02*
D03*
X0260981Y0483921D02*
D03*
Y0488645D02*
D03*
X0256680Y0483922D02*
D03*
Y0488646D02*
D03*
X0260981Y0498245D02*
D03*
Y0493521D02*
D03*
X0252380Y0488647D02*
D03*
Y0483923D02*
D03*
X0125935Y0661870D02*
D03*
Y0666595D02*
D03*
Y0651870D02*
D03*
Y0656595D02*
D03*
Y0641870D02*
D03*
Y0646595D02*
D03*
Y0631871D02*
D03*
Y0636595D02*
D03*
Y0621871D02*
D03*
Y0626595D02*
D03*
Y0611870D02*
D03*
Y0616595D02*
D03*
X0658465Y0592789D02*
D03*
Y0597513D02*
D03*
Y0582789D02*
D03*
Y0587513D02*
D03*
Y0572789D02*
D03*
Y0577513D02*
D03*
Y0562789D02*
D03*
Y0567513D02*
D03*
Y0552789D02*
D03*
Y0557513D02*
D03*
Y0542789D02*
D03*
Y0547513D02*
D03*
Y0661870D02*
D03*
Y0666595D02*
D03*
Y0651870D02*
D03*
Y0656595D02*
D03*
Y0641870D02*
D03*
Y0646595D02*
D03*
Y0631871D02*
D03*
Y0636595D02*
D03*
Y0621871D02*
D03*
Y0626595D02*
D03*
Y0611870D02*
D03*
Y0616595D02*
D03*
X0125935Y0542789D02*
D03*
Y0547513D02*
D03*
Y0552789D02*
D03*
Y0557513D02*
D03*
Y0562789D02*
D03*
Y0567513D02*
D03*
Y0572789D02*
D03*
Y0577513D02*
D03*
Y0582789D02*
D03*
Y0587513D02*
D03*
Y0592789D02*
D03*
Y0597513D02*
D03*
G54D37*
X0177439Y0578021D02*
D03*
Y0575423D02*
D03*
X0180239Y0540098D02*
D03*
Y0542696D02*
D03*
X0182439Y0578021D02*
D03*
Y0575423D02*
D03*
X0187439Y0540098D02*
D03*
Y0542696D02*
D03*
X0276776Y0408443D02*
D03*
Y0405844D02*
D03*
X0499232Y0399916D02*
D03*
Y0397317D02*
D03*
X0431651Y0493888D02*
D03*
Y0496487D02*
D03*
X0429279Y0477900D02*
D03*
Y0475302D02*
D03*
G54D38*
X0320720Y0479916D02*
D03*
X0316720D02*
D03*
X0193805Y0469378D02*
D03*
X0189805D02*
D03*
X0312941Y0394318D02*
D03*
X0308941D02*
D03*
X0535214Y0388267D02*
D03*
X0531214D02*
D03*
X0394885Y0505427D02*
D03*
X0398885D02*
D03*
X0277776Y0412418D02*
D03*
X0281776D02*
D03*
X0159172Y0566076D02*
D03*
X0163172D02*
D03*
X0394885Y0508840D02*
D03*
X0398885D02*
D03*
X0535214Y0384026D02*
D03*
X0531214D02*
D03*
X0312941Y0390845D02*
D03*
X0308941D02*
D03*
X0122637Y0384564D02*
D03*
X0126637D02*
D03*
X0178771D02*
D03*
X0174771D02*
D03*
X0122637Y0321028D02*
D03*
X0126637D02*
D03*
X0310209Y0478116D02*
D03*
X0314209D02*
D03*
X0546740Y0470853D02*
D03*
X0542740D02*
D03*
X0310209Y0481715D02*
D03*
X0314209D02*
D03*
X0552410Y0478595D02*
D03*
X0548410D02*
D03*
X0542740Y0467100D02*
D03*
X0546740D02*
D03*
X0451072Y0484916D02*
D03*
X0447072D02*
D03*
X0178771Y0321028D02*
D03*
X0174771D02*
D03*
X0447496Y0479120D02*
D03*
X0443496D02*
D03*
Y0475020D02*
D03*
X0447496D02*
D03*
X0307940Y0494100D02*
D03*
X0303940D02*
D03*
X0302781Y0499400D02*
D03*
X0298781D02*
D03*
X0316720Y0476315D02*
D03*
X0320720D02*
D03*
X0190940Y0484700D02*
D03*
X0186940D02*
D03*
X0189805Y0465278D02*
D03*
X0193805D02*
D03*
X0167730Y0335698D02*
D03*
X0163730D02*
D03*
X0133678D02*
D03*
X0137678D02*
D03*
X0167730Y0369894D02*
D03*
X0163730D02*
D03*
X0133678D02*
D03*
X0137678D02*
D03*
X0597376Y0272189D02*
D03*
X0601376D02*
D03*
X0345122Y0498601D02*
D03*
X0341122D02*
D03*
X0576673Y0489003D02*
D03*
X0572673D02*
D03*
X0228122Y0489201D02*
D03*
X0224122D02*
D03*
X0476622Y0498101D02*
D03*
X0472622D02*
D03*
X0587959Y0463300D02*
D03*
X0583959D02*
D03*
X0238073Y0463200D02*
D03*
X0234073D02*
D03*
X0326480Y0467100D02*
D03*
X0330480D02*
D03*
X0558280Y0457700D02*
D03*
X0562280D02*
D03*
X0457980Y0467100D02*
D03*
X0461980D02*
D03*
X0217480Y0457700D02*
D03*
X0213480D02*
D03*
X0327259Y0494918D02*
D03*
X0331259D02*
D03*
X0556250Y0486853D02*
D03*
X0560250D02*
D03*
X0460259Y0498380D02*
D03*
X0464259D02*
D03*
X0211759Y0485518D02*
D03*
X0215759D02*
D03*
X0327259Y0498380D02*
D03*
X0331259D02*
D03*
X0556250Y0490315D02*
D03*
X0560250D02*
D03*
X0460259Y0494918D02*
D03*
X0464259D02*
D03*
X0211759Y0488980D02*
D03*
X0215759D02*
D03*
X0344201Y0462453D02*
D03*
X0340201D02*
D03*
X0227201Y0453053D02*
D03*
X0223201D02*
D03*
X0299940Y0490410D02*
D03*
X0303940D02*
D03*
X0544410Y0482485D02*
D03*
X0548410D02*
D03*
X0302781Y0504006D02*
D03*
X0298781D02*
D03*
X0535048Y0494422D02*
D03*
X0531048D02*
D03*
X0291815Y0510010D02*
D03*
X0287815D02*
D03*
X0172524Y0500110D02*
D03*
X0168524D02*
D03*
X0110303Y0350474D02*
D03*
X0114303D02*
D03*
X0598933Y0257698D02*
D03*
X0602933D02*
D03*
X0620750Y0256913D02*
D03*
X0624750D02*
D03*
X0654802D02*
D03*
X0650802D02*
D03*
X0620750Y0291109D02*
D03*
X0624750D02*
D03*
X0654802D02*
D03*
X0650802D02*
D03*
X0665843Y0242242D02*
D03*
X0661843D02*
D03*
X0609710D02*
D03*
X0613709D02*
D03*
X0665843Y0305779D02*
D03*
X0661843D02*
D03*
X0609710D02*
D03*
X0613709D02*
D03*
G54D39*
X0485740Y0507375D02*
D03*
X0481015D02*
D03*
X0581900Y0501850D02*
D03*
X0577176D02*
D03*
X0583566Y0451744D02*
D03*
X0588291D02*
D03*
X0678250Y0279040D02*
D03*
X0673526D02*
D03*
X0602892Y0268457D02*
D03*
X0598168D02*
D03*
X0186453Y0338320D02*
D03*
X0191178D02*
D03*
X0191178Y0344822D02*
D03*
X0186453D02*
D03*
X0191178Y0357825D02*
D03*
X0186453D02*
D03*
X0603303Y0280893D02*
D03*
X0598579D02*
D03*
X0205183Y0338320D02*
D03*
X0200459D02*
D03*
X0673526Y0272538D02*
D03*
X0678250D02*
D03*
X0186453Y0351323D02*
D03*
X0191178D02*
D03*
X0678250Y0266036D02*
D03*
X0673526D02*
D03*
X0514396Y0499571D02*
D03*
X0509672D02*
D03*
X0373688Y0667854D02*
D03*
X0378412D02*
D03*
Y0662736D02*
D03*
X0373688D02*
D03*
Y0672972D02*
D03*
X0378412D02*
D03*
X0373688Y0678090D02*
D03*
X0378412D02*
D03*
X0328280Y0557805D02*
D03*
X0333004D02*
D03*
X0287920Y0541464D02*
D03*
X0292644D02*
D03*
X0271464Y0564329D02*
D03*
X0276189D02*
D03*
X0276189Y0556129D02*
D03*
X0271464D02*
D03*
X0271464Y0572529D02*
D03*
X0276189D02*
D03*
X0271464Y0568429D02*
D03*
X0276189D02*
D03*
X0271464Y0560229D02*
D03*
X0276189D02*
D03*
X0364038Y0626009D02*
D03*
X0368762D02*
D03*
X0454750Y0640508D02*
D03*
X0459474D02*
D03*
X0520800Y0465633D02*
D03*
X0516075D02*
D03*
X0186453Y0363327D02*
D03*
X0191178D02*
D03*
X0673526Y0285542D02*
D03*
X0678250D02*
D03*
X0266282Y0498244D02*
D03*
X0271007D02*
D03*
X0111506Y0367840D02*
D03*
X0116231D02*
D03*
X0115820Y0340222D02*
D03*
X0111096D02*
D03*
X0116231Y0359179D02*
D03*
X0111506D02*
D03*
X0116231Y0363509D02*
D03*
X0111506D02*
D03*
X0115820Y0335892D02*
D03*
X0111096D02*
D03*
G54D40*
X0617989Y0256913D02*
D03*
Y0260913D02*
D03*
X0192740Y0489794D02*
D03*
Y0493794D02*
D03*
X0437174Y0509871D02*
D03*
Y0513871D02*
D03*
X0130916Y0335698D02*
D03*
Y0339698D02*
D03*
X0170491Y0335698D02*
D03*
Y0339698D02*
D03*
X0176288Y0538440D02*
D03*
Y0542440D02*
D03*
X0421123Y0520624D02*
D03*
Y0516624D02*
D03*
X0504014Y0374751D02*
D03*
Y0378751D02*
D03*
X0172550Y0538440D02*
D03*
Y0542440D02*
D03*
X0534555Y0490000D02*
D03*
Y0486000D02*
D03*
X0443950Y0514534D02*
D03*
Y0518534D02*
D03*
X0170491Y0369894D02*
D03*
Y0365894D02*
D03*
X0130916Y0369894D02*
D03*
Y0365894D02*
D03*
X0462839Y0484669D02*
D03*
Y0488669D02*
D03*
X0331339Y0484669D02*
D03*
Y0488669D02*
D03*
X0563139Y0475269D02*
D03*
Y0479269D02*
D03*
X0214339Y0475269D02*
D03*
Y0479269D02*
D03*
X0352948Y0481049D02*
D03*
Y0477049D02*
D03*
X0484159Y0468700D02*
D03*
Y0472700D02*
D03*
X0337788Y0484507D02*
D03*
Y0488507D02*
D03*
X0569588Y0475107D02*
D03*
Y0479107D02*
D03*
X0469288Y0484507D02*
D03*
Y0488507D02*
D03*
X0220788Y0475107D02*
D03*
Y0479107D02*
D03*
X0348848Y0489269D02*
D03*
Y0493269D02*
D03*
X0580648Y0479869D02*
D03*
Y0483869D02*
D03*
X0480348Y0489411D02*
D03*
Y0493411D02*
D03*
X0231848Y0479869D02*
D03*
Y0483869D02*
D03*
X0551980Y0461390D02*
D03*
Y0465390D02*
D03*
X0469256Y0478327D02*
D03*
Y0474327D02*
D03*
X0203414Y0457735D02*
D03*
Y0461735D02*
D03*
X0320414Y0467135D02*
D03*
Y0471135D02*
D03*
X0572001Y0452884D02*
D03*
Y0456884D02*
D03*
X0451925Y0470790D02*
D03*
Y0474790D02*
D03*
X0315250Y0466928D02*
D03*
Y0470928D02*
D03*
X0542350Y0454058D02*
D03*
Y0458058D02*
D03*
X0439045Y0463600D02*
D03*
Y0467600D02*
D03*
X0193550Y0454058D02*
D03*
Y0458058D02*
D03*
X0307940Y0484600D02*
D03*
Y0488600D02*
D03*
X0298734Y0507323D02*
D03*
Y0511323D02*
D03*
X0530969Y0498141D02*
D03*
Y0502141D02*
D03*
X0539740Y0474605D02*
D03*
Y0478605D02*
D03*
X0440646Y0483154D02*
D03*
Y0487154D02*
D03*
X0182256Y0496090D02*
D03*
Y0500090D02*
D03*
X0190940Y0475200D02*
D03*
Y0479200D02*
D03*
X0231650Y0472671D02*
D03*
Y0468671D02*
D03*
X0480209Y0482551D02*
D03*
Y0478551D02*
D03*
X0580509Y0473009D02*
D03*
Y0469009D02*
D03*
X0348709Y0482551D02*
D03*
Y0478551D02*
D03*
X0431951Y0486700D02*
D03*
Y0490700D02*
D03*
X0183250Y0488700D02*
D03*
Y0484700D02*
D03*
X0185738Y0496090D02*
D03*
Y0500090D02*
D03*
X0617989Y0291109D02*
D03*
Y0287109D02*
D03*
X0657564Y0291109D02*
D03*
Y0287109D02*
D03*
Y0256913D02*
D03*
Y0260913D02*
D03*
G54D42*
X0274177Y0395845D02*
D03*
X0276776D02*
D03*
X0312941Y0398045D02*
D03*
X0310342D02*
D03*
X0301105Y0411427D02*
D03*
X0303704D02*
D03*
X0395934Y0501100D02*
D03*
X0398532D02*
D03*
X0395934Y0492100D02*
D03*
X0398532D02*
D03*
X0496634Y0392317D02*
D03*
X0499232D02*
D03*
X0534158D02*
D03*
X0531560D02*
D03*
X0523771Y0407899D02*
D03*
X0526369D02*
D03*
X0433858Y0500482D02*
D03*
X0431260D02*
D03*
X0523398Y0469778D02*
D03*
X0520800D02*
D03*
G54D43*
X0586410Y0307576D02*
D03*
Y0301576D02*
D03*
X0118940Y0449805D02*
D03*
Y0455805D02*
D03*
X0203999Y0313497D02*
D03*
Y0319497D02*
D03*
X0167976Y0542190D02*
D03*
Y0536190D02*
D03*
X0201873Y0387531D02*
D03*
Y0381531D02*
D03*
X0099541Y0318654D02*
D03*
Y0324654D02*
D03*
X0690803Y0308279D02*
D03*
Y0302279D02*
D03*
X0689413Y0238566D02*
D03*
Y0244566D02*
D03*
X0681622Y0209242D02*
D03*
Y0203242D02*
D03*
X0585991Y0242013D02*
D03*
Y0248013D02*
D03*
G54D44*
X0112654Y0419094D02*
D03*
X0106654D02*
D03*
X0112654Y0381548D02*
D03*
X0106654D02*
D03*
X0188753Y0286498D02*
D03*
X0194754D02*
D03*
X0112654D02*
D03*
X0106654D02*
D03*
X0399135Y0512987D02*
D03*
X0393135D02*
D03*
X0531464Y0379628D02*
D03*
X0537464D02*
D03*
X0308941Y0385269D02*
D03*
X0314941D02*
D03*
X0597951Y0276535D02*
D03*
X0603951D02*
D03*
X0188753Y0419095D02*
D03*
X0194754D02*
D03*
X0110878Y0354821D02*
D03*
X0116878D02*
D03*
X0660486Y0371285D02*
D03*
X0654486D02*
D03*
X0611985Y0179017D02*
D03*
X0617985D02*
D03*
X0599727Y0340309D02*
D03*
X0593727D02*
D03*
G54D45*
X0147536Y0309780D02*
D03*
X0141630D02*
D03*
X0107201Y0413078D02*
D03*
X0113107D02*
D03*
X0107201Y0387565D02*
D03*
X0113107D02*
D03*
X0158866Y0548083D02*
D03*
X0164771D02*
D03*
X0147536Y0395813D02*
D03*
X0141630D02*
D03*
X0147536Y0302480D02*
D03*
X0141630D02*
D03*
X0153872Y0309780D02*
D03*
X0159777D02*
D03*
X0107201Y0292514D02*
D03*
X0113107D02*
D03*
X0153872Y0302480D02*
D03*
X0159777D02*
D03*
X0194206Y0413079D02*
D03*
X0188301D02*
D03*
X0194206Y0292514D02*
D03*
X0188301D02*
D03*
X0153872Y0403112D02*
D03*
X0159777D02*
D03*
X0153872Y0395813D02*
D03*
X0159777D02*
D03*
X0153872Y0317079D02*
D03*
X0159777D02*
D03*
X0147536D02*
D03*
X0141630D02*
D03*
X0153872Y0388514D02*
D03*
X0159777D02*
D03*
X0147536D02*
D03*
X0141630D02*
D03*
X0147536Y0403112D02*
D03*
X0141630D02*
D03*
X0348245Y0504580D02*
D03*
X0342340D02*
D03*
X0580046Y0494880D02*
D03*
X0574140D02*
D03*
X0369678Y0460288D02*
D03*
X0363772D02*
D03*
X0501805Y0464326D02*
D03*
X0495900D02*
D03*
X0252613Y0451099D02*
D03*
X0246708D02*
D03*
X0321235Y0504059D02*
D03*
X0327141D02*
D03*
X0554549Y0499477D02*
D03*
X0560455D02*
D03*
X0457769Y0504104D02*
D03*
X0463674D02*
D03*
X0205854Y0495704D02*
D03*
X0211759D02*
D03*
X0594274Y0334293D02*
D03*
X0600179D02*
D03*
X0640944Y0324326D02*
D03*
X0646850D02*
D03*
X0640944Y0317027D02*
D03*
X0646850D02*
D03*
X0634608Y0309728D02*
D03*
X0628703D02*
D03*
X0640944D02*
D03*
X0646850D02*
D03*
X0634608Y0238293D02*
D03*
X0628703D02*
D03*
X0640944D02*
D03*
X0646850D02*
D03*
X0640944Y0230994D02*
D03*
X0646850D02*
D03*
X0640944Y0223695D02*
D03*
X0646850D02*
D03*
X0634608Y0324326D02*
D03*
X0628703D02*
D03*
X0617938Y0185414D02*
D03*
X0612032D02*
D03*
X0634608Y0230994D02*
D03*
X0628703D02*
D03*
X0634608Y0223695D02*
D03*
X0628703D02*
D03*
X0634608Y0317027D02*
D03*
X0628703D02*
D03*
X0654440Y0364643D02*
D03*
X0660346D02*
D03*
G54D46*
X0214966Y0216466D02*
D03*
Y0210561D02*
D03*
X0125561Y0455730D02*
D03*
Y0449825D02*
D03*
X0307185Y0374354D02*
D03*
Y0380260D02*
D03*
X0405743Y0521700D02*
D03*
Y0515795D02*
D03*
X0524617Y0374316D02*
D03*
Y0380222D02*
D03*
X0197257Y0319619D02*
D03*
Y0313713D02*
D03*
X0169948Y0326934D02*
D03*
Y0321028D02*
D03*
X0131593Y0327067D02*
D03*
Y0321162D02*
D03*
X0169948Y0378659D02*
D03*
Y0384564D02*
D03*
X0131459Y0378659D02*
D03*
Y0384564D02*
D03*
X0195415Y0382126D02*
D03*
Y0388032D02*
D03*
X0471992Y0510344D02*
D03*
Y0504439D02*
D03*
X0225340Y0500085D02*
D03*
Y0494180D02*
D03*
X0597369Y0449764D02*
D03*
Y0455669D02*
D03*
X0354834Y0487363D02*
D03*
Y0493269D02*
D03*
X0586648Y0476797D02*
D03*
Y0482702D02*
D03*
X0486348Y0486197D02*
D03*
Y0492102D02*
D03*
X0237848Y0476797D02*
D03*
Y0482702D02*
D03*
X0105925Y0324652D02*
D03*
Y0318747D02*
D03*
X0618532Y0299873D02*
D03*
Y0305779D02*
D03*
X0657021Y0299873D02*
D03*
Y0305779D02*
D03*
X0618666Y0248282D02*
D03*
Y0242376D02*
D03*
X0657021Y0248148D02*
D03*
Y0242242D02*
D03*
X0684220Y0302109D02*
D03*
Y0308014D02*
D03*
X0675269Y0203233D02*
D03*
Y0209138D02*
D03*
X0592987Y0247966D02*
D03*
Y0242061D02*
D03*
X0682775Y0243630D02*
D03*
Y0237724D02*
D03*
X0593289Y0301652D02*
D03*
Y0307558D02*
D03*
X0214966Y0232065D02*
D03*
Y0226159D02*
D03*
G54D47*
X0101578Y0364009D02*
D03*
Y0370309D02*
D03*
X0590228Y0280919D02*
D03*
Y0274619D02*
D03*
X0583640Y0274619D02*
D03*
Y0280919D02*
D03*
X0270659Y0550201D02*
D03*
Y0543902D02*
D03*
X0320372Y0545737D02*
D03*
Y0552036D02*
D03*
Y0560853D02*
D03*
Y0567153D02*
D03*
X0101578Y0350805D02*
D03*
Y0357104D02*
D03*
G54D48*
X0679150Y0680400D02*
D03*
Y0183400D02*
D03*
X0109250D02*
D03*
G54D50*
X0156551Y0189384D02*
D03*
X0189622D02*
D03*
G54D51*
X0156551Y0218124D02*
D03*
G54D52*
X0173086D02*
D03*
X0189622D02*
D03*
X0156551Y0239778D02*
D03*
X0173086D02*
D03*
X0189622D02*
D03*
G54D53*
X0659804Y0687300D02*
D03*
X0211660Y0414016D02*
D03*
X0093561Y0521763D02*
D03*
X0304055Y0686549D02*
D03*
X0695127Y0407791D02*
D03*
X0579173Y0211727D02*
D03*
X0210201Y0294110D02*
D03*
X0132818Y0683630D02*
D03*
G54D54*
X0337180Y0257495D02*
D03*
X0504503D02*
D03*
Y0267731D02*
D03*
X0337180D02*
D03*
Y0596077D02*
D03*
X0504503D02*
D03*
Y0606313D02*
D03*
X0337180D02*
D03*
G54D55*
X0488755Y0247948D02*
D03*
X0352928D02*
D03*
X0488755Y0277278D02*
D03*
X0352928D02*
D03*
X0488755Y0586530D02*
D03*
X0352928D02*
D03*
X0488755Y0615860D02*
D03*
X0352928D02*
D03*
G54D56*
X0696050Y0176500D02*
D03*
Y0687300D02*
D03*
X0092350Y0176500D02*
D03*
Y0687300D02*
D03*
G54D57*
X0694871Y0502200D02*
D03*
X0093550Y0441700D02*
D03*
Y0502200D02*
D03*
X0694871Y0441700D02*
D03*
G54D73*
X0641201Y0274011D02*
D03*
X0637776D02*
D03*
X0634351D02*
D03*
X0134031Y0252046D02*
D03*
X0130094D02*
D03*
Y0248109D02*
D03*
X0134031D02*
D03*
X0154129Y0352796D02*
D03*
X0150704D02*
D03*
X0147279D02*
D03*
G54D74*
X0520611Y0400888D02*
D03*
X0517101D02*
D03*
X0513658Y0389175D02*
D03*
X0510149D02*
D03*
X0294057Y0398057D02*
D03*
Y0401057D02*
D03*
Y0395057D02*
D03*
X0291057Y0398057D02*
D03*
Y0401057D02*
D03*
Y0395057D02*
D03*
X0294057Y0392057D02*
D03*
X0291057D02*
D03*
X0288057D02*
D03*
Y0395057D02*
D03*
X0543008Y0287673D02*
D03*
X0548945D02*
D03*
X0537070D02*
D03*
X0543008Y0305485D02*
D03*
X0548945D02*
D03*
X0537070D02*
D03*
X0554883D02*
D03*
Y0287673D02*
D03*
Y0293611D02*
D03*
Y0299548D02*
D03*
X0186661Y0553810D02*
D03*
X0182161D02*
D03*
X0177661D02*
D03*
X0173161Y0564910D02*
D03*
X0177661D02*
D03*
X0182161D02*
D03*
X0173161Y0553810D02*
D03*
X0420846Y0504095D02*
D03*
Y0508195D02*
D03*
X0414946Y0499595D02*
D03*
X0409446D02*
D03*
X0414946Y0508195D02*
D03*
Y0503595D02*
D03*
X0409446D02*
D03*
Y0508195D02*
D03*
X0288057Y0404057D02*
D03*
Y0401057D02*
D03*
Y0398057D02*
D03*
X0510110Y0392503D02*
D03*
X0513620D02*
D03*
X0517129D02*
D03*
X0520638D02*
D03*
X0186661Y0556510D02*
D03*
X0182161D02*
D03*
X0177661D02*
D03*
X0173161D02*
D03*
G54D82*
X0179939Y0559310D02*
D03*
G54D83*
X0172439Y0548286D02*
D03*
X0177439D02*
D03*
X0182439D02*
D03*
X0187439D02*
D03*
Y0570333D02*
D03*
X0182439D02*
D03*
X0177439D02*
D03*
X0172439D02*
D03*
G54D84*
X0112570Y0597513D02*
D03*
Y0587513D02*
D03*
Y0577513D02*
D03*
Y0567513D02*
D03*
Y0557513D02*
D03*
Y0547513D02*
D03*
X0093082Y0597513D02*
D03*
Y0587513D02*
D03*
Y0577513D02*
D03*
Y0567513D02*
D03*
Y0557513D02*
D03*
Y0547513D02*
D03*
X0112570Y0666595D02*
D03*
Y0656595D02*
D03*
Y0646595D02*
D03*
Y0636595D02*
D03*
Y0626595D02*
D03*
Y0616595D02*
D03*
X0093082Y0666595D02*
D03*
Y0656595D02*
D03*
Y0646595D02*
D03*
Y0636595D02*
D03*
Y0626595D02*
D03*
Y0616595D02*
D03*
X0671830Y0547513D02*
D03*
Y0557513D02*
D03*
Y0567513D02*
D03*
Y0577513D02*
D03*
Y0587513D02*
D03*
Y0597513D02*
D03*
X0691318Y0547513D02*
D03*
Y0557513D02*
D03*
Y0567513D02*
D03*
Y0577513D02*
D03*
Y0587513D02*
D03*
Y0597513D02*
D03*
X0671830Y0616595D02*
D03*
Y0626595D02*
D03*
Y0636595D02*
D03*
Y0646595D02*
D03*
Y0656595D02*
D03*
Y0666595D02*
D03*
X0691318Y0616595D02*
D03*
Y0626595D02*
D03*
Y0636595D02*
D03*
Y0646595D02*
D03*
Y0656595D02*
D03*
Y0666595D02*
D03*
G54D85*
X0310195Y0183462D02*
D03*
X0300195D02*
D03*
X0290195D02*
D03*
X0280195D02*
D03*
X0310195Y0202950D02*
D03*
X0300195D02*
D03*
X0290195D02*
D03*
X0280195D02*
D03*
G54D86*
X0633839Y0267948D02*
D03*
X0635808D02*
D03*
X0637776D02*
D03*
X0639745D02*
D03*
X0641713D02*
D03*
X0633839Y0280074D02*
D03*
X0635808D02*
D03*
X0637776D02*
D03*
X0639745D02*
D03*
X0641713D02*
D03*
X0146767Y0346733D02*
D03*
X0148735D02*
D03*
X0150704D02*
D03*
X0152672D02*
D03*
X0154641D02*
D03*
X0146767Y0358859D02*
D03*
X0148735D02*
D03*
X0150704D02*
D03*
X0152672D02*
D03*
X0154641D02*
D03*
G54D87*
X0637776Y0274011D02*
D03*
X0150704Y0352796D02*
D03*
G54D88*
X0630296Y0281196D02*
D03*
Y0266826D02*
D03*
X0645257D02*
D03*
Y0281196D02*
D03*
X0143224Y0359981D02*
D03*
Y0345611D02*
D03*
X0158184D02*
D03*
Y0359981D02*
D03*
G54D89*
X0630296Y0278932D02*
D03*
Y0276963D02*
D03*
Y0274995D02*
D03*
Y0273026D02*
D03*
Y0271058D02*
D03*
Y0269089D02*
D03*
X0645257Y0269089D02*
D03*
Y0271058D02*
D03*
Y0273026D02*
D03*
Y0274995D02*
D03*
Y0276963D02*
D03*
Y0278932D02*
D03*
X0143224Y0357717D02*
D03*
Y0355749D02*
D03*
Y0353780D02*
D03*
Y0351812D02*
D03*
Y0349843D02*
D03*
Y0347875D02*
D03*
X0158184Y0347875D02*
D03*
Y0349843D02*
D03*
Y0351812D02*
D03*
Y0353780D02*
D03*
Y0355749D02*
D03*
Y0357717D02*
D03*
G54D90*
X0622383Y0232725D02*
D03*
X0609784D02*
D03*
X0135310Y0299032D02*
D03*
X0122712D02*
D03*
X0135310Y0394082D02*
D03*
X0122712D02*
D03*
X0135310Y0311510D02*
D03*
X0122712D02*
D03*
X0166097D02*
D03*
X0178696D02*
D03*
X0166097Y0299032D02*
D03*
X0178696D02*
D03*
X0135310Y0406561D02*
D03*
X0122712D02*
D03*
X0166097D02*
D03*
X0178696D02*
D03*
X0166097Y0394082D02*
D03*
X0178696D02*
D03*
X0653170Y0327775D02*
D03*
X0665768D02*
D03*
X0653170Y0315296D02*
D03*
X0665768D02*
D03*
X0622383D02*
D03*
X0609784D02*
D03*
X0653170Y0232725D02*
D03*
X0665768D02*
D03*
X0653170Y0220246D02*
D03*
X0665768D02*
D03*
X0622383Y0327775D02*
D03*
X0609784D02*
D03*
G54D91*
X0478913Y0250802D02*
D03*
X0476944D02*
D03*
X0474976D02*
D03*
X0473007D02*
D03*
X0471039D02*
D03*
X0469070D02*
D03*
X0467102D02*
D03*
X0465133D02*
D03*
X0463165D02*
D03*
X0461196D02*
D03*
X0459228D02*
D03*
X0457259D02*
D03*
X0455291D02*
D03*
X0453322D02*
D03*
X0451354D02*
D03*
X0449385D02*
D03*
X0447417D02*
D03*
X0445448D02*
D03*
X0443480D02*
D03*
X0441511D02*
D03*
X0439543D02*
D03*
X0437574D02*
D03*
X0435606D02*
D03*
X0433637D02*
D03*
X0431669D02*
D03*
X0429700D02*
D03*
X0427732D02*
D03*
X0425763D02*
D03*
X0423795D02*
D03*
X0421826D02*
D03*
X0419858D02*
D03*
X0417889D02*
D03*
X0415921D02*
D03*
X0413952D02*
D03*
X0411984D02*
D03*
X0410015D02*
D03*
X0408047D02*
D03*
X0406078D02*
D03*
X0404110D02*
D03*
X0402141D02*
D03*
X0400173D02*
D03*
X0398204D02*
D03*
X0396236D02*
D03*
X0394267D02*
D03*
X0392299D02*
D03*
X0390330D02*
D03*
X0388362D02*
D03*
X0386393D02*
D03*
X0384424D02*
D03*
X0382456D02*
D03*
X0380487D02*
D03*
X0378519D02*
D03*
X0376551D02*
D03*
X0374582D02*
D03*
X0372614D02*
D03*
X0370645D02*
D03*
X0368676D02*
D03*
X0366708D02*
D03*
X0364739D02*
D03*
X0362771D02*
D03*
X0478913Y0274424D02*
D03*
X0476944D02*
D03*
X0474976D02*
D03*
X0473007D02*
D03*
X0471039D02*
D03*
X0469070D02*
D03*
X0467102D02*
D03*
X0465133D02*
D03*
X0463165D02*
D03*
X0461196D02*
D03*
X0459228D02*
D03*
X0457259D02*
D03*
X0455291D02*
D03*
X0453322D02*
D03*
X0451354D02*
D03*
X0449385D02*
D03*
X0447417D02*
D03*
X0445448D02*
D03*
X0443480D02*
D03*
X0441511D02*
D03*
X0439543D02*
D03*
X0437574D02*
D03*
X0435606D02*
D03*
X0433637D02*
D03*
X0431669D02*
D03*
X0429700D02*
D03*
X0427732D02*
D03*
X0425763D02*
D03*
X0423795D02*
D03*
X0421826D02*
D03*
X0419858D02*
D03*
X0417889D02*
D03*
X0415921D02*
D03*
X0413952D02*
D03*
X0411984D02*
D03*
X0410015D02*
D03*
X0408047D02*
D03*
X0406078D02*
D03*
X0404110D02*
D03*
X0402141D02*
D03*
X0400173D02*
D03*
X0398204D02*
D03*
X0396236D02*
D03*
X0394267D02*
D03*
X0392299D02*
D03*
X0390330D02*
D03*
X0388362D02*
D03*
X0386393D02*
D03*
X0384424D02*
D03*
X0382456D02*
D03*
X0380487D02*
D03*
X0378519D02*
D03*
X0376551D02*
D03*
X0374582D02*
D03*
X0372614D02*
D03*
X0370645D02*
D03*
X0368676D02*
D03*
X0366708D02*
D03*
X0364739D02*
D03*
X0362771D02*
D03*
X0478913Y0589384D02*
D03*
X0476944D02*
D03*
X0474976D02*
D03*
X0473007D02*
D03*
X0471039D02*
D03*
X0469070D02*
D03*
X0467102D02*
D03*
X0465133D02*
D03*
X0463165D02*
D03*
X0461196D02*
D03*
X0459228D02*
D03*
X0457259D02*
D03*
X0455291D02*
D03*
X0453322D02*
D03*
X0451354D02*
D03*
X0449385D02*
D03*
X0447417D02*
D03*
X0445448D02*
D03*
X0443480D02*
D03*
X0441511D02*
D03*
X0439543D02*
D03*
X0437574D02*
D03*
X0435606D02*
D03*
X0433637D02*
D03*
X0431669D02*
D03*
X0429700D02*
D03*
X0427732D02*
D03*
X0425763D02*
D03*
X0423795D02*
D03*
X0421826D02*
D03*
X0419858D02*
D03*
X0417889D02*
D03*
X0415921D02*
D03*
X0413952D02*
D03*
X0411984D02*
D03*
X0410015D02*
D03*
X0408047D02*
D03*
X0406078D02*
D03*
X0404110D02*
D03*
X0402141D02*
D03*
X0400173D02*
D03*
X0398204D02*
D03*
X0396236D02*
D03*
X0394267D02*
D03*
X0392299D02*
D03*
X0390330D02*
D03*
X0388362D02*
D03*
X0386393D02*
D03*
X0384424D02*
D03*
X0382456D02*
D03*
X0380487D02*
D03*
X0378519D02*
D03*
X0376551D02*
D03*
X0374582D02*
D03*
X0372614D02*
D03*
X0370645D02*
D03*
X0368676D02*
D03*
X0366708D02*
D03*
X0364739D02*
D03*
X0362771D02*
D03*
X0478913Y0613006D02*
D03*
X0476944D02*
D03*
X0474976D02*
D03*
X0473007D02*
D03*
X0471039D02*
D03*
X0469070D02*
D03*
X0467102D02*
D03*
X0465133D02*
D03*
X0463165D02*
D03*
X0461196D02*
D03*
X0459228D02*
D03*
X0457259D02*
D03*
X0455291D02*
D03*
X0453322D02*
D03*
X0451354D02*
D03*
X0449385D02*
D03*
X0447417D02*
D03*
X0445448D02*
D03*
X0443480D02*
D03*
X0441511D02*
D03*
X0439543D02*
D03*
X0437574D02*
D03*
X0435606D02*
D03*
X0433637D02*
D03*
X0431669D02*
D03*
X0429700D02*
D03*
X0427732D02*
D03*
X0425763D02*
D03*
X0423795D02*
D03*
X0421826D02*
D03*
X0419858D02*
D03*
X0417889D02*
D03*
X0415921D02*
D03*
X0413952D02*
D03*
X0411984D02*
D03*
X0410015D02*
D03*
X0408047D02*
D03*
X0406078D02*
D03*
X0404110D02*
D03*
X0402141D02*
D03*
X0400173D02*
D03*
X0398204D02*
D03*
X0396236D02*
D03*
X0394267D02*
D03*
X0392299D02*
D03*
X0390330D02*
D03*
X0388362D02*
D03*
X0386393D02*
D03*
X0384424D02*
D03*
X0382456D02*
D03*
X0380487D02*
D03*
X0378519D02*
D03*
X0376551D02*
D03*
X0374582D02*
D03*
X0372614D02*
D03*
X0370645D02*
D03*
X0368676D02*
D03*
X0366708D02*
D03*
X0364739D02*
D03*
X0362771D02*
D03*
G54D92*
X0506196Y0486182D02*
D03*
X0508165Y0480355D02*
D03*
X0506196D02*
D03*
X0504228D02*
D03*
Y0486182D02*
D03*
X0508165D02*
D03*
X0260981Y0478783D02*
D03*
X0262949Y0472956D02*
D03*
X0260981D02*
D03*
X0259012D02*
D03*
Y0478783D02*
D03*
X0262949D02*
D03*
G54D93*
X0132062Y0250077D02*
D03*
G54D94*
X0137574Y0246239D02*
D03*
Y0248798D02*
D03*
Y0251357D02*
D03*
Y0253916D02*
D03*
X0126550D02*
D03*
Y0251357D02*
D03*
Y0248798D02*
D03*
Y0246239D02*
D03*
G54D95*
X0647615Y0252364D02*
D03*
Y0244097D02*
D03*
X0160543Y0331150D02*
D03*
Y0322882D02*
D03*
X0140865Y0331150D02*
D03*
Y0322882D02*
D03*
X0160543Y0374443D02*
D03*
Y0382710D02*
D03*
X0140865Y0374443D02*
D03*
Y0382710D02*
D03*
X0627937Y0295657D02*
D03*
Y0303925D02*
D03*
X0647615Y0295657D02*
D03*
Y0303925D02*
D03*
X0627937Y0252364D02*
D03*
Y0244097D02*
D03*
G54D96*
X0537937Y0289117D02*
D03*
G54D97*
X0534813Y0296617D02*
D03*
G54D98*
X0674598Y0248308D02*
D03*
Y0237678D02*
D03*
X0133805Y0460377D02*
D03*
Y0449748D02*
D03*
X0114105Y0324652D02*
D03*
Y0314022D02*
D03*
X0188645Y0322125D02*
D03*
Y0311495D02*
D03*
X0186987Y0379654D02*
D03*
Y0390284D02*
D03*
X0675765Y0299527D02*
D03*
Y0310157D02*
D03*
X0601464Y0248024D02*
D03*
Y0237394D02*
D03*
X0601489Y0299517D02*
D03*
Y0310148D02*
D03*
X0666795Y0200737D02*
D03*
Y0211367D02*
D03*
G54D99*
X0596593Y0263437D02*
D03*
X0602892D02*
D03*
X0109521Y0345242D02*
D03*
X0115820D02*
D03*
X0135530Y0240509D02*
D03*
X0141830D02*
D03*
X0128714Y0240515D02*
D03*
X0122414D02*
D03*
X0262403Y0558187D02*
D03*
X0256104D02*
D03*
X0200459Y0363327D02*
D03*
X0206758D02*
D03*
X0683804Y0285542D02*
D03*
X0690103D02*
D03*
G54D100*
X0104339Y0405084D02*
D03*
X0114968D02*
D03*
X0197069Y0405085D02*
D03*
X0186439D02*
D03*
X0104339Y0395559D02*
D03*
X0114968D02*
D03*
X0197069Y0300508D02*
D03*
X0186439D02*
D03*
X0104338D02*
D03*
X0114968D02*
D03*
X0619803Y0193694D02*
D03*
X0609173D02*
D03*
X0591411Y0326298D02*
D03*
X0602041D02*
D03*
X0652087Y0355957D02*
D03*
X0662717D02*
D03*
G54D101*
X0164937Y0556423D02*
D03*
X0156937D02*
D03*
X0261852Y0541320D02*
D03*
X0253852D02*
D03*
X0261852Y0550201D02*
D03*
X0253852D02*
D03*
G54D102*
X0415146Y0501400D02*
D03*
X0515346Y0394817D02*
D03*
X0292680Y0398345D02*
D03*
G54D103*
X0404122Y0508900D02*
D03*
Y0503900D02*
D03*
Y0498900D02*
D03*
Y0493900D02*
D03*
X0426170D02*
D03*
Y0498900D02*
D03*
Y0503900D02*
D03*
Y0508900D02*
D03*
X0526369Y0387317D02*
D03*
Y0392317D02*
D03*
Y0397317D02*
D03*
Y0402317D02*
D03*
X0504322D02*
D03*
Y0397317D02*
D03*
Y0392317D02*
D03*
Y0387317D02*
D03*
X0303704Y0390845D02*
D03*
Y0395845D02*
D03*
Y0400845D02*
D03*
Y0405845D02*
D03*
X0281657D02*
D03*
Y0400845D02*
D03*
Y0395845D02*
D03*
Y0390845D02*
D03*
G54D104*
X0609165Y0217296D02*
D03*
Y0204697D02*
D03*
M02*
